<svg width="90" height="82" viewBox="0 0 90 82" fill="none" xmlns="http://www.w3.org/2000/svg">
<path d="M74.694 14.4785V6.83333C74.6887 3.06133 71.3477 0.00478333 67.2246 0H7.4694C3.34629 0.00478333 0.00522858 3.06133 0 6.83333V36.9C0.0115776 40.3901 2.90335 43.309 6.69855 43.6629L12.314 56.9985C13.7975 60.5198 18.12 62.2739 21.9694 60.9185L57.0363 48.5604C54.6132 54.3506 55.3027 60.846 58.8969 66.1019L59.7552 67.3575V80.6333C59.7552 81.3884 60.4237 82 61.249 82H88.1389C88.9642 82 89.6327 81.3884 89.6327 80.6333V35.5214C89.6185 30.7951 87.5619 26.2666 83.9093 22.9241L74.694 14.4785ZM74.694 22.6518L79.2279 33.4191C80.1164 35.5326 78.965 37.9042 76.655 38.7177L74.0635 39.6333C74.4773 38.7716 74.6917 37.8403 74.694 36.9V22.6518ZM2.98776 36.9V6.83333C2.98776 4.56945 4.99478 2.73333 7.4694 2.73333H67.2246C69.6992 2.73333 71.7062 4.56945 71.7062 6.83333V15.5199H71.6931L71.7062 15.551V36.9C71.6946 37.1385 71.6606 37.3749 71.6046 37.6079L57.9207 25.0879C54.8448 22.3388 49.9411 22.3177 46.8376 25.038C43.7333 27.7601 43.5469 32.2427 46.4178 35.1708L52.2514 41H7.4694C4.99478 41 2.98776 39.1639 2.98776 36.9ZM22.1258 43.7333L11.5029 47.4749L9.93131 43.7333H22.1258ZM20.8949 58.3673C18.5853 59.1818 15.9916 58.1284 15.1016 56.0156L12.5814 50.02L30.4139 43.7333V43.7251H54.9897L56.9314 45.6617L20.8949 58.3673ZM86.645 79.2667H62.7429V68.3333H86.645V79.2667ZM86.645 65.6H62.0781L61.4302 64.6529C57.7877 59.3277 57.6428 52.6016 61.0518 47.15C61.3745 46.6341 61.2953 45.9863 60.8561 45.5483L48.6142 33.3303C46.7887 31.5023 46.8914 28.6764 48.8457 26.9643C50.8008 25.2519 53.8913 25.2799 55.808 27.0265L79.6133 48.7996L81.7256 46.8671L76.1983 41.8104L77.731 41.2638C81.577 39.9063 83.4936 35.9553 82.014 32.4348L76.9576 20.4231L81.797 24.8597C84.8893 27.688 86.633 31.5208 86.645 35.5214V65.6Z" fill="white"/>
<path d="M17.0303 25.0459C19.1755 25.0459 20.9144 22.9635 20.9144 20.3945V11.8073C20.9144 9.23836 19.1755 7.15598 17.0303 7.15598H9.85967C7.71446 7.15598 5.97559 9.23836 5.97559 11.8073V20.3945C5.97559 22.9635 7.71446 25.0459 9.85967 25.0459H17.0303ZM8.96334 20.3945V17.8899H11.9511V14.3119H8.96334V11.8073C8.96334 11.2147 9.36482 10.734 9.85967 10.734H17.0303C17.5251 10.734 17.9266 11.2147 17.9266 11.8073V14.3119H14.9389V17.8899H17.9266V20.3945C17.9266 20.9871 17.5251 21.4679 17.0303 21.4679H9.85967C9.36482 21.4679 8.96334 20.9871 8.96334 20.3945Z" fill="white"/>
<path d="M7.46973 30.4131H13.4452V33.9911H7.46973V30.4131Z" fill="white"/>
<path d="M7.46973 41.1466H13.4452V44.7246H7.46973V41.1466Z" fill="white"/>
<path d="M34.3594 41.1466H40.3349V44.7246H34.3594V41.1466Z" fill="white"/>
<path d="M16.4326 30.4131H22.4081V33.9911H16.4326V30.4131Z" fill="white"/>
<path d="M25.3955 30.4131H31.371V33.9911H25.3955V30.4131Z" fill="white"/>
<path d="M34.3594 30.4131H40.3349V33.9911H34.3594V30.4131Z" fill="white"/>
<path d="M62.7432 8.94426H65.7309V14.3112H62.7432V8.94426Z" fill="white"/>
<path d="M56.7676 8.94426H59.7553V14.3112H56.7676V8.94426Z" fill="white"/>
<path d="M50.792 8.94426H53.7798V14.3112H50.792V8.94426Z" fill="white"/>
<path d="M44.8164 8.94426H47.8042V14.3112H44.8164V8.94426Z" fill="white"/>
</svg>
