<svg width="87" height="87" viewBox="0 0 87 87" fill="none" xmlns="http://www.w3.org/2000/svg">
<path d="M78.5039 12.9141H8.49609C3.81129 12.9141 0 16.7254 0 21.4102V65.5898C0 70.2746 3.81129 74.0859 8.49609 74.0859H78.5039C83.1887 74.0859 87 70.2746 87 65.5898V21.4102C87 16.7254 83.1887 12.9141 78.5039 12.9141ZM83.6016 65.5898C83.6016 68.4009 81.3149 70.6875 78.5039 70.6875H8.49609C5.68508 70.6875 3.39844 68.4009 3.39844 65.5898V62.1914H83.6016V65.5898ZM83.6016 58.793H3.39844V48.5977H83.6016V58.793ZM83.6016 45.1992H3.39844V21.4102C3.39844 18.5991 5.68508 16.3125 8.49609 16.3125H78.5039C81.3149 16.3125 83.6016 18.5991 83.6016 21.4102V45.1992Z" fill="white"/>
<path d="M44.5195 25.1484H70.0078C70.9444 25.1484 71.707 24.3858 71.707 23.4492C71.707 22.5127 70.9444 21.75 70.0078 21.75H44.5195C43.583 21.75 42.8203 22.5127 42.8203 23.4492C42.8203 24.3858 43.583 25.1484 44.5195 25.1484Z" fill="white"/>
<path d="M76.8047 25.1484C77.7412 25.1484 78.5039 24.3858 78.5039 23.4492C78.5039 22.5127 77.7412 21.75 76.8047 21.75C75.8681 21.75 75.1055 22.5127 75.1055 23.4492C75.1055 24.3858 75.8681 25.1484 76.8047 25.1484Z" fill="white"/>
<path d="M78.5039 28.5469H68.3086C67.37 28.5469 66.6094 29.3075 66.6094 30.2461C66.6094 31.1846 67.37 31.9453 68.3086 31.9453H78.5039C79.4425 31.9453 80.2031 31.1846 80.2031 30.2461C80.2031 29.3075 79.4425 28.5469 78.5039 28.5469Z" fill="white"/>
<path d="M61.5117 28.5469H44.5195C43.581 28.5469 42.8203 29.3075 42.8203 30.2461C42.8203 31.1846 43.581 31.9453 44.5195 31.9453H61.5117C62.4503 31.9453 63.2109 31.1846 63.2109 30.2461C63.2109 29.3075 62.4503 28.5469 61.5117 28.5469Z" fill="white"/>
<path d="M78.5039 35.3438H75.1055C74.1689 35.3438 73.4062 36.1064 73.4062 37.043C73.4062 37.9795 74.1689 38.7422 75.1055 38.7422H78.5039C79.4405 38.7422 80.2031 37.9795 80.2031 37.043C80.2031 36.1064 79.4405 35.3438 78.5039 35.3438Z" fill="white"/>
<path d="M68.3086 35.3438H64.9102C63.9736 35.3438 63.2109 36.1064 63.2109 37.043C63.2109 37.9795 63.9736 38.7422 64.9102 38.7422H68.3086C69.2452 38.7422 70.0078 37.9795 70.0078 37.043C70.0078 36.1064 69.2452 35.3438 68.3086 35.3438Z" fill="white"/>
<path d="M47.918 35.3438H44.5195C43.583 35.3438 42.8203 36.1064 42.8203 37.043C42.8203 37.9795 43.583 38.7422 44.5195 38.7422H47.918C48.8545 38.7422 49.6172 37.9795 49.6172 37.043C49.6172 36.1064 48.8545 35.3438 47.918 35.3438Z" fill="white"/>
<path d="M58.1133 35.3438H54.7148C53.7783 35.3438 53.0156 36.1064 53.0156 37.043C53.0156 37.9795 53.7783 38.7422 54.7148 38.7422H58.1133C59.0498 38.7422 59.8125 37.9795 59.8125 37.043C59.8125 36.1064 59.0498 35.3438 58.1133 35.3438Z" fill="white"/>
<path d="M31.0092 20.1189C30.2956 19.5089 29.223 19.5932 28.6137 20.3068L12.641 38.9982C12.031 39.711 12.1153 40.7843 12.8289 41.3937C13.1488 41.6671 13.5418 41.8012 13.932 41.8012C14.4119 41.8012 14.8885 41.5994 15.2244 41.2058L31.197 22.5144C31.807 21.8009 31.7227 20.7282 31.0092 20.1189Z" fill="white"/>
<path d="M18.6914 24.8086C18.6914 21.9976 16.4048 19.7109 13.5938 19.7109C10.7827 19.7109 8.49609 21.9976 8.49609 24.8086C8.49609 27.6196 10.7827 29.9062 13.5938 29.9062C16.4048 29.9062 18.6914 27.6196 18.6914 24.8086ZM11.8945 24.8086C11.8945 23.8714 12.6565 23.1094 13.5938 23.1094C14.531 23.1094 15.293 23.8714 15.293 24.8086C15.293 25.7458 14.531 26.5078 13.5938 26.5078C12.6565 26.5078 11.8945 25.7458 11.8945 24.8086Z" fill="white"/>
<path d="M30.416 31.6055C27.605 31.6055 25.3184 33.8921 25.3184 36.7031C25.3184 39.5141 27.605 41.8008 30.416 41.8008C33.227 41.8008 35.5137 39.5141 35.5137 36.7031C35.5137 33.8921 33.227 31.6055 30.416 31.6055ZM30.416 38.4023C29.4788 38.4023 28.7168 37.6404 28.7168 36.7031C28.7168 35.7659 29.4788 35.0039 30.416 35.0039C31.3532 35.0039 32.1152 35.7659 32.1152 36.7031C32.1152 37.6404 31.3532 38.4023 30.416 38.4023Z" fill="white"/>
</svg>
