<svg width="88" height="88" viewBox="0 0 88 88" fill="none" xmlns="http://www.w3.org/2000/svg">
<path d="M85.7812 42.1879H73.7072L86.7755 29.1196C87.3253 28.5697 87.3253 27.681 86.7755 27.1311L60.0567 0.412383C59.5069 -0.137461 58.6181 -0.137461 58.0683 0.412383L16.2928 42.1879H1.40625C0.628594 42.1879 0 42.8179 0 43.5941V80.1566C0 80.9329 0.628594 81.5629 1.40625 81.5629H21.9178L27.1308 86.7758C27.405 87.05 27.765 87.1879 28.125 87.1879C28.485 87.1879 28.845 87.05 29.1192 86.7758L34.3336 81.5629H85.7812C86.5589 81.5629 87.1875 80.9329 87.1875 80.1566V43.5941C87.1875 42.8179 86.5589 42.1879 85.7812 42.1879ZM59.0625 3.39504L83.7928 28.1254L69.7303 42.1879H58.9936C58.6716 38.5879 57.1191 35.2438 54.5316 32.6563C48.5016 26.6263 38.6873 26.6249 32.6545 32.6563C30.0684 35.2438 28.5159 38.5879 28.1925 42.1879H20.2683L59.0625 3.39504ZM36.8817 42.1879C36.6905 41.2738 36.9464 40.2964 37.627 39.6172L40.1991 42.1879H36.8817ZM52.0523 42.1879C51.8977 41.9839 51.7317 41.7871 51.5489 41.6057C49.3538 39.4133 45.7875 39.4119 43.5938 41.6057L39.6155 37.6288C40.6786 36.5671 42.5292 36.5671 43.5923 37.6288L45.5808 35.6404C44.5177 34.5786 43.1058 33.9936 41.6039 33.9936C40.102 33.9936 38.6887 34.5786 37.627 35.6404L37.6256 35.6418L36.6314 34.6475L34.643 36.636L35.6372 37.6302C34.4011 38.8663 33.8541 40.5411 34.0298 42.1907H31.0191C31.3327 39.343 32.587 36.7035 34.6416 34.6475C39.5775 29.713 47.6058 29.7144 52.5417 34.6475C54.5962 36.7035 55.852 39.343 56.1642 42.1907H52.0523V42.1879ZM28.125 83.7932L25.8947 81.5629H30.3553L28.125 83.7932ZM84.375 78.7504H2.8125V45.0004H84.375V78.7504Z" fill="white"/>
<path d="M39.375 66.0942H36.5625C36.5625 69.1964 39.0853 71.7192 42.1875 71.7192V73.1254H45V71.7192C48.1022 71.7192 50.625 69.1964 50.625 66.0942C50.625 62.992 48.1022 60.4692 45 60.4692V54.8442C46.5511 54.8442 47.8125 56.1056 47.8125 57.6567H50.625C50.625 54.5545 48.1022 52.0317 45 52.0317V50.6254H42.1875V52.0317C39.0853 52.0317 36.5625 54.5545 36.5625 57.6567C36.5625 60.7589 39.0853 63.2817 42.1875 63.2817V68.9067C40.6364 68.9067 39.375 67.6453 39.375 66.0942ZM39.375 57.6567C39.375 56.1056 40.6364 54.8442 42.1875 54.8442V60.4692C40.6364 60.4692 39.375 59.2078 39.375 57.6567ZM45 63.2817C46.5511 63.2817 47.8125 64.5431 47.8125 66.0942C47.8125 67.6453 46.5511 68.9067 45 68.9067V63.2817Z" fill="white"/>
<path d="M43.5938 77.3442C52.1227 77.3442 59.0625 70.4043 59.0625 61.8754C59.0625 53.3465 52.1227 46.4067 43.5938 46.4067C35.0648 46.4067 28.125 53.3465 28.125 61.8754C28.125 70.4043 35.0648 77.3442 43.5938 77.3442ZM43.5938 49.2192C50.573 49.2192 56.25 54.8976 56.25 61.8754C56.25 68.8532 50.573 74.5317 43.5938 74.5317C36.6145 74.5317 30.9375 68.8532 30.9375 61.8754C30.9375 54.8976 36.6145 49.2192 43.5938 49.2192Z" fill="white"/>
<path d="M81.5625 74.5317V49.2192C81.5625 48.4429 80.9339 47.8129 80.1562 47.8129H63.2812V50.6254H78.75V73.1254H63.2812V75.9379H80.1562C80.9339 75.9379 81.5625 75.3079 81.5625 74.5317Z" fill="white"/>
<path d="M7.03125 75.9379H23.9062V73.1254H8.4375V50.6254H23.9062V47.8129H7.03125C6.25359 47.8129 5.625 48.4429 5.625 49.2192V74.5317C5.625 75.3079 6.25359 75.9379 7.03125 75.9379Z" fill="white"/>
<path d="M63.2812 67.5004H66.0938V70.3129H63.2812V67.5004Z" fill="white"/>
<path d="M68.9062 67.5004H71.7188V70.3129H68.9062V67.5004Z" fill="white"/>
<path d="M63.2812 53.4379H66.0938V56.2504H63.2812V53.4379Z" fill="white"/>
<path d="M68.9062 53.4379H71.7188V56.2504H68.9062V53.4379Z" fill="white"/>
<path d="M59.4448 11.8328L75.3537 27.7431L64.4159 38.6809L66.4043 40.6693L78.3364 28.7373C78.8862 28.1874 78.8862 27.2987 78.3364 26.7489L60.439 8.8501C59.9117 8.32275 58.9779 8.32275 58.4506 8.8501L46.5186 20.7821L48.507 22.7706L59.4448 11.8328Z" fill="white"/>
<path d="M60.4307 34.7062L62.4194 32.7174L64.4081 34.7062L62.4194 36.6949L60.4307 34.7062Z" fill="white"/>
<path d="M64.4062 30.7286L66.395 28.7398L68.3837 30.7286L66.395 32.7173L64.4062 30.7286Z" fill="white"/>
<path d="M50.4883 24.7637L52.477 22.775L54.4658 24.7637L52.477 26.7525L50.4883 24.7637Z" fill="white"/>
<path d="M54.4648 20.7861L56.4536 18.7973L58.4423 20.7861L56.4536 22.7748L54.4648 20.7861Z" fill="white"/>
<path d="M15.4688 53.4379H18.2812V56.2504H15.4688V53.4379Z" fill="white"/>
<path d="M21.0938 53.4379H23.9062V56.2504H21.0938V53.4379Z" fill="white"/>
<path d="M15.4688 67.5004H18.2812V70.3129H15.4688V67.5004Z" fill="white"/>
<path d="M21.0938 67.5004H23.9062V70.3129H21.0938V67.5004Z" fill="white"/>
</svg>
