<svg width="90" height="90" viewBox="0 0 90 90" fill="none" xmlns="http://www.w3.org/2000/svg">
<path d="M3 7.5C3.00073 6.67236 3.67236 6.00073 4.5 6H40.5C41.3276 6.00073 41.9993 6.67236 42 7.5V45H45V7.5C44.9971 5.01562 42.9844 3.00293 40.5 3H4.5C2.01562 3.00293 0.00292969 5.01562 0 7.5V67.5C0.00292969 69.9844 2.01562 71.9971 4.5 72H27V69H4.5C3.67236 68.9993 3.00073 68.3276 3 67.5V57H27V54H3V7.5Z" fill="white"/>
<path d="M25.5 63C25.5 64.6567 24.1567 66 22.5 66C20.8433 66 19.5 64.6567 19.5 63C19.5 61.3433 20.8433 60 22.5 60C24.1567 60 25.5 61.3433 25.5 63Z" fill="white"/>
<path d="M10.5 61.5H15V64.5H10.5V61.5Z" fill="white"/>
<path d="M19.5 9H25.5V12H19.5V9Z" fill="white"/>
<path d="M85.5 48H34.5C32.0156 48.0029 30.0029 50.0156 30 52.5V82.5C30.0029 84.9844 32.0156 86.9971 34.5 87H85.5C87.9844 86.9971 89.9971 84.9844 90 82.5V52.5C89.9971 50.0156 87.9844 48.0029 85.5 48ZM87 82.5C86.9993 83.3276 86.3276 83.9993 85.5 84H34.5C33.6724 83.9993 33.0007 83.3276 33 82.5V52.5C33.0007 51.6724 33.6724 51.0007 34.5 51H85.5C86.3276 51.0007 86.9993 51.6724 87 52.5V82.5Z" fill="white"/>
<path d="M51 66V61.5C50.9971 59.0156 48.9844 57.0029 46.5 57H42C39.5156 57.0029 37.5029 59.0156 37.5 61.5V66C37.5029 68.4844 39.5156 70.4971 42 70.5H46.5C48.9844 70.4971 50.9971 68.4844 51 66ZM40.5 66V61.5C40.5007 60.6724 41.1724 60.0007 42 60H46.5C47.3276 60.0007 47.9993 60.6724 48 61.5V66C47.9993 66.8276 47.3276 67.4993 46.5 67.5H42C41.1724 67.4993 40.5007 66.8276 40.5 66Z" fill="white"/>
<path d="M81 57H84V60H81V57Z" fill="white"/>
<path d="M61.5 57H78V60H61.5V57Z" fill="white"/>
<path d="M55.5 57H58.5V60H55.5V57Z" fill="white"/>
<path d="M81 63H84V66H81V63Z" fill="white"/>
<path d="M61.5 63H78V66H61.5V63Z" fill="white"/>
<path d="M55.5 63H58.5V66H55.5V63Z" fill="white"/>
<path d="M81 69H84V72H81V69Z" fill="white"/>
<path d="M61.5 69H78V72H61.5V69Z" fill="white"/>
<path d="M55.5 69H58.5V72H55.5V69Z" fill="white"/>
<path d="M37.5 75H40.5V78H37.5V75Z" fill="white"/>
<path d="M81 75H84V78H81V75Z" fill="white"/>
<path d="M43.5 75H78V78H43.5V75Z" fill="white"/>
</svg>
