<svg width="92" height="92" viewBox="0 0 92 92" fill="none" xmlns="http://www.w3.org/2000/svg">
<g clip-path="url(#clip0_606_86583)">
<path d="M68.9955 76.6662C68.1488 76.6662 67.4623 77.3527 67.4623 78.1994C67.4556 84.1242 62.6545 88.9253 56.7297 88.9321H7.62799C5.11178 88.9298 3.07171 86.8912 3.06647 84.375V13.8036C3.07321 7.87882 7.87429 3.07773 13.7991 3.07099H70.6912C68.6257 5.08635 67.4608 7.85111 67.4623 10.7372V38.3354C67.4623 39.1821 68.1488 39.8686 68.9955 39.8686C69.8422 39.8686 70.5288 39.1821 70.5288 38.3354V10.7372C70.5288 6.50355 73.9613 3.07099 78.1949 3.07099C82.4285 3.07099 85.8611 6.50355 85.8611 10.7372V16.8701C85.8611 17.7168 85.1746 18.4033 84.3279 18.4033H76.6617C75.815 18.4033 75.1285 19.0898 75.1285 19.9366C75.1285 20.7833 75.815 21.4698 76.6617 21.4698H84.3279C86.868 21.4698 88.9276 19.4103 88.9276 16.8701V10.7372C88.9208 4.81235 84.1197 0.0112621 78.1949 0.00452423H13.7991C6.1816 0.013508 0.00898379 6.18612 0 13.8036V84.375C0.00673783 88.5847 3.41833 91.994 7.62799 91.9985H56.7297C64.3472 91.9903 70.5205 85.8169 70.5288 78.1994C70.5288 77.3527 69.8422 76.6662 68.9955 76.6662Z" fill="white"/>
<path d="M21.4651 15.3383C21.4651 13.6449 20.0921 12.2719 18.3986 12.2719H12.2657C10.5722 12.2719 9.19922 13.6449 9.19922 15.3383V21.4713C9.19922 23.1647 10.5722 24.5377 12.2657 24.5377H18.3986C20.0921 24.5377 21.4651 23.1647 21.4651 21.4713V15.3383ZM12.2657 21.4713V15.3383H18.3986V21.4713H12.2657Z" fill="white"/>
<path d="M18.3986 33.7373C19.2453 33.7373 19.9319 33.0508 19.9319 32.204C19.9319 31.3573 19.2453 30.6708 18.3986 30.6708H12.2657C10.5722 30.6708 9.19922 32.0438 9.19922 33.7373V39.8702C9.19922 41.5636 10.5722 42.9367 12.2657 42.9367H18.3986C19.2453 42.9367 19.9319 42.2502 19.9319 41.4034C19.9319 40.5567 19.2453 39.8702 18.3986 39.8702H12.2657V33.7373H18.3986Z" fill="white"/>
<path d="M21.4651 52.1357C21.4651 50.4422 20.0921 49.0692 18.3986 49.0692H12.2657C10.5722 49.0692 9.19922 50.4422 9.19922 52.1357V58.2686C9.19922 59.9621 10.5722 61.3351 12.2657 61.3351H18.3986C20.0921 61.3351 21.4651 59.9621 21.4651 58.2686V52.1357ZM12.2657 58.2686V52.1357H18.3986V58.2686H12.2657Z" fill="white"/>
<path d="M10.7325 69.0012C9.88573 69.0012 9.19922 69.6877 9.19922 70.5344V76.6674C9.19922 78.3608 10.5722 79.7338 12.2657 79.7338H18.3986C20.0921 79.7338 21.4651 78.3608 21.4651 76.6674V70.5344C21.4651 69.6877 20.7786 69.0012 19.9319 69.0012C19.0851 69.0012 18.3986 69.6877 18.3986 70.5344V76.6674H12.2657V70.5344C12.2657 69.6877 11.5792 69.0012 10.7325 69.0012Z" fill="white"/>
<path d="M47.5297 21.4714H27.5977C26.751 21.4714 26.0645 22.1579 26.0645 23.0047C26.0645 23.8514 26.751 24.5379 27.5977 24.5379H47.5297C48.3764 24.5379 49.063 23.8514 49.063 23.0047C49.063 22.1579 48.3764 21.4714 47.5297 21.4714Z" fill="white"/>
<path d="M27.5977 42.9368H32.1974C33.0441 42.9368 33.7306 42.2503 33.7306 41.4036C33.7306 40.5569 33.0441 39.8704 32.1974 39.8704H27.5977C26.751 39.8704 26.0645 40.5569 26.0645 41.4036C26.0645 42.2503 26.751 42.9368 27.5977 42.9368Z" fill="white"/>
<path d="M27.5977 76.6678C26.751 76.6678 26.0645 77.3543 26.0645 78.201C26.0645 79.0477 26.751 79.7342 27.5977 79.7342H45.9965C46.8432 79.7342 47.5297 79.0477 47.5297 78.201C47.5297 77.3543 46.8432 76.6678 45.9965 76.6678H27.5977Z" fill="white"/>
<path d="M50.5962 59.8019C50.5962 58.9552 49.9097 58.2687 49.063 58.2687H27.5977C26.751 58.2687 26.0645 58.9552 26.0645 59.8019C26.0645 60.6486 26.751 61.3352 27.5977 61.3352H49.063C49.9097 61.3352 50.5962 60.6486 50.5962 59.8019Z" fill="white"/>
<path d="M42.9308 33.737C44.6242 33.737 45.9973 35.11 45.9973 36.8034C45.9973 37.6502 46.6838 38.3367 47.5305 38.3367C48.3772 38.3367 49.0637 37.6502 49.0637 36.8034C49.0532 34.0155 47.1637 31.5854 44.464 30.8884V29.1373C44.464 28.2906 43.7775 27.604 42.9308 27.604C42.0841 27.604 41.3976 28.2906 41.3976 29.1373V30.8884C38.4104 31.6572 36.4617 34.5283 36.8518 37.588C37.2411 40.6485 39.8464 42.9401 42.9308 42.9364C44.6242 42.9364 45.9973 44.3094 45.9973 46.0028C45.9973 47.6963 44.6242 49.0693 42.9308 49.0693C41.2373 49.0693 39.8643 47.6963 39.8643 46.0028C39.8643 45.1561 39.1778 44.4696 38.3311 44.4696C37.4844 44.4696 36.7979 45.1561 36.7979 46.0028C36.8083 48.7908 38.6979 51.2209 41.3976 51.9179V53.669C41.3976 54.5157 42.0841 55.2022 42.9308 55.2022C43.7775 55.2022 44.464 54.5157 44.464 53.669V51.9224C47.4601 51.161 49.4186 48.2847 49.0285 45.2183C48.6385 42.151 46.022 39.8572 42.9308 39.8699C41.2373 39.8699 39.8643 38.4969 39.8643 36.8034C39.8643 35.11 41.2373 33.737 42.9308 33.737V33.737Z" fill="white"/>
<path d="M53.6631 39.8704C52.8164 39.8704 52.1299 40.5569 52.1299 41.4036C52.1299 42.2503 52.8164 42.9368 53.6631 42.9368H59.796C60.6428 42.9368 61.3293 42.2503 61.3293 41.4036C61.3293 40.5569 60.6428 39.8704 59.796 39.8704H53.6631Z" fill="white"/>
<path d="M89.6946 38.49L88.3665 37.7234L90.6663 33.7368C92.3605 30.8029 91.3551 27.0521 88.4211 25.3587C85.4879 23.6652 81.7364 24.6699 80.043 27.6039L77.7431 31.5904L60.1109 62.1308C60.0001 62.3307 59.935 62.5531 59.9223 62.7807L56.9097 73.1562C56.6237 74.1474 56.7922 75.2142 57.3694 76.0692L56.4231 77.7117C56.0001 78.4454 56.2516 79.3835 56.9853 79.8064C57.719 80.2302 58.657 79.9786 59.0808 79.245L60.0353 77.5889C60.1139 77.5889 60.1888 77.6196 60.2689 77.6196C61.2167 77.6181 62.124 77.2303 62.7799 76.5461L70.5044 68.5595L70.5291 68.5415C70.6092 68.4592 70.6796 68.3686 70.7395 68.2713C70.7687 68.2009 70.7934 68.1283 70.8129 68.0534L86.8347 40.3848L88.1658 41.1514C88.8995 41.5752 89.1503 42.5125 88.7273 43.2462L82.5944 53.868C82.3159 54.3426 82.3136 54.9303 82.5876 55.4072C82.8616 55.8841 83.37 56.1783 83.9202 56.1768C84.4705 56.1753 84.9781 55.8796 85.2498 55.4012L91.3828 44.7794C91.9944 43.7215 92.1599 42.4646 91.8432 41.2847C91.5265 40.1048 90.7531 39.0994 89.6946 38.49V38.49ZM82.6999 29.1371C83.5721 27.7274 85.4063 27.2662 86.8415 28.095C88.2766 28.9245 88.7932 30.7437 88.0078 32.2036L85.708 36.1901L80.3971 33.1237L82.6999 29.1371ZM60.5803 74.4214C60.4433 74.5629 60.2277 74.5936 60.057 74.4948C59.8856 74.396 59.804 74.1931 59.8579 74.0029L62.3741 65.2093L66.9386 67.8453L60.5803 74.4214ZM84.1748 38.8486L68.8424 65.4039L63.5315 62.3375L78.8638 35.7836L80.1912 36.5502L82.8474 38.0835L84.1748 38.8486Z" fill="white"/>
</g>
<defs>
<clipPath id="clip0_606_86583">
<rect width="92" height="92" fill="white"/>
</clipPath>
</defs>
</svg>
