<svg width="787" height="586" viewBox="0 0 787 586" fill="none" xmlns="http://www.w3.org/2000/svg">
<g clip-path="url(#clip0_1001_62807)">
<path d="M786.625 514.359H0.625V514.752H786.625V514.359Z" fill="#EBEBEB"/>
<path d="M707.867 539.621H655.803V540.014H707.867V539.621Z" fill="#EBEBEB"/>
<path d="M521.303 543.891H507.643V544.283H521.303V543.891Z" fill="#EBEBEB"/>
<path d="M654.231 525.051H624.064V525.443H654.231V525.051Z" fill="#EBEBEB"/>
<path d="M150.986 527.691H83.0918V528.084H150.986V527.691Z" fill="#EBEBEB"/>
<path d="M174.943 527.691H164.992V528.084H174.943V527.691Z" fill="#EBEBEB"/>
<path d="M354.56 534.316H207.295V534.709H354.56V534.316Z" fill="#EBEBEB"/>
<path d="M373.205 444.338H69.6675C64.7157 444.338 60.6914 440.319 60.6914 435.373V9.22645C60.6914 4.28093 64.7157 0.261719 69.6675 0.261719H373.221C378.173 0.261719 382.197 4.28093 382.197 9.22645V435.373C382.181 440.319 378.157 444.338 373.205 444.338ZM69.6675 0.65422C64.9358 0.65422 61.0844 4.50074 61.0844 9.22645V435.373C61.0844 440.099 64.9358 443.945 69.6675 443.945H373.221C377.952 443.945 381.804 440.099 381.804 435.373V9.22645C381.804 4.50074 377.952 0.65422 373.221 0.65422H69.6675Z" fill="#EBEBEB"/>
<path d="M713.229 444.338H409.675C404.724 444.338 400.699 440.319 400.699 435.373V9.22645C400.699 4.28093 404.724 0.261719 409.675 0.261719H713.229C718.18 0.261719 722.205 4.28093 722.205 9.22645V435.373C722.205 440.319 718.18 444.338 713.229 444.338ZM409.675 0.65422C404.944 0.65422 401.092 4.50074 401.092 9.22645V435.373C401.092 440.099 404.944 443.945 409.675 443.945H713.229C717.96 443.945 721.812 440.099 721.812 435.373V9.22645C721.812 4.50074 717.96 0.65422 713.229 0.65422H409.675Z" fill="#EBEBEB"/>
<path d="M700.825 97.9453H319.961V464.605H700.825V97.9453Z" fill="#E0E0E0"/>
<path d="M700.825 104.602H326.076V458.198H700.825V104.602Z" fill="#F5F5F5"/>
<path d="M328.843 372.57V266.218H339.894V252.167L364.795 240.533V226.167H368.945V266.218H373.095V372.57H378.628V317.322H391.078V288.324H395.228V372.57H404.896V340.809H411.813V332.519H427.03V303.506H435.33V284.179H445.014V255.165H449.164V284.179H458.847V303.506H467.132V332.519H482.349V340.809H489.266V372.57H497.566V332.519H512.783V244.112H516.933V234.441H550.118V244.112H557.034V307.651H584.702V314.559H594.369V318.703H584.702V343.572H613.736V260.692H619.27V244.112H633.104V180.574H637.254V244.112H646.937V260.692H700.825V458.214H326.076V372.57H328.843Z" fill="#E6E6E6"/>
<path d="M672.026 265.027H668.111V268.937H672.026V265.027Z" fill="#F0F0F0"/>
<path d="M672.026 271.59H668.111V275.499H672.026V271.59Z" fill="#F0F0F0"/>
<path d="M672.026 297.824H668.111V301.734H672.026V297.824Z" fill="#F0F0F0"/>
<path d="M672.026 304.387H668.111V308.296H672.026V304.387Z" fill="#F0F0F0"/>
<path d="M672.026 310.949H668.111V314.859H672.026V310.949Z" fill="#F0F0F0"/>
<path d="M672.026 330.637H668.111V334.546H672.026V330.637Z" fill="#F0F0F0"/>
<path d="M672.026 337.199H668.111V341.109H672.026V337.199Z" fill="#F0F0F0"/>
<path d="M665.801 291.262H661.887V295.171H665.801V291.262Z" fill="#F0F0F0"/>
<path d="M665.801 297.824H661.887V301.734H665.801V297.824Z" fill="#F0F0F0"/>
<path d="M665.801 304.387H661.887V308.296H665.801V304.387Z" fill="#F0F0F0"/>
<path d="M665.801 310.949H661.887V314.859H665.801V310.949Z" fill="#F0F0F0"/>
<path d="M665.801 317.512H661.887V321.421H665.801V317.512Z" fill="#F0F0F0"/>
<path d="M665.801 330.637H661.887V334.546H665.801V330.637Z" fill="#F0F0F0"/>
<path d="M665.801 337.199H661.887V341.109H665.801V337.199Z" fill="#F0F0F0"/>
<path d="M659.576 265.027H655.662V268.937H659.576V265.027Z" fill="#F0F0F0"/>
<path d="M659.576 271.59H655.662V275.499H659.576V271.59Z" fill="#F0F0F0"/>
<path d="M659.576 278.152H655.662V282.062H659.576V278.152Z" fill="#F0F0F0"/>
<path d="M659.576 284.715H655.662V288.624H659.576V284.715Z" fill="#F0F0F0"/>
<path d="M659.576 291.262H655.662V295.171H659.576V291.262Z" fill="#F0F0F0"/>
<path d="M659.576 297.824H655.662V301.734H659.576V297.824Z" fill="#F0F0F0"/>
<path d="M659.576 304.387H655.662V308.296H659.576V304.387Z" fill="#F0F0F0"/>
<path d="M659.576 310.949H655.662V314.859H659.576V310.949Z" fill="#F0F0F0"/>
<path d="M659.576 317.512H655.662V321.421H659.576V317.512Z" fill="#F0F0F0"/>
<path d="M659.576 324.074H655.662V327.984H659.576V324.074Z" fill="#F0F0F0"/>
<path d="M659.576 337.199H655.662V341.109H659.576V337.199Z" fill="#F0F0F0"/>
<path d="M653.352 265.027H649.438V268.937H653.352V265.027Z" fill="#F0F0F0"/>
<path d="M653.352 271.59H649.438V275.499H653.352V271.59Z" fill="#F0F0F0"/>
<path d="M653.352 278.152H649.438V282.062H653.352V278.152Z" fill="#F0F0F0"/>
<path d="M653.352 284.715H649.438V288.624H653.352V284.715Z" fill="#F0F0F0"/>
<path d="M653.352 291.262H649.438V295.171H653.352V291.262Z" fill="#F0F0F0"/>
<path d="M653.352 297.824H649.438V301.734H653.352V297.824Z" fill="#F0F0F0"/>
<path d="M653.352 304.387H649.438V308.296H653.352V304.387Z" fill="#F0F0F0"/>
<path d="M653.352 363.434H649.438V367.343H653.352V363.434Z" fill="#F0F0F0"/>
<path d="M647.125 265.027H643.211V268.937H647.125V265.027Z" fill="#F0F0F0"/>
<path d="M647.125 271.59H643.211V275.499H647.125V271.59Z" fill="#F0F0F0"/>
<path d="M647.125 278.152H643.211V282.062H647.125V278.152Z" fill="#F0F0F0"/>
<path d="M647.125 284.715H643.211V288.624H647.125V284.715Z" fill="#F0F0F0"/>
<path d="M647.125 291.262H643.211V295.171H647.125V291.262Z" fill="#F0F0F0"/>
<path d="M647.125 297.824H643.211V301.734H647.125V297.824Z" fill="#F0F0F0"/>
<path d="M647.125 304.387H643.211V308.296H647.125V304.387Z" fill="#F0F0F0"/>
<path d="M647.125 310.949H643.211V314.859H647.125V310.949Z" fill="#F0F0F0"/>
<path d="M647.125 350.324H643.211V354.233H647.125V350.324Z" fill="#F0F0F0"/>
<path d="M647.125 356.871H643.211V360.78H647.125V356.871Z" fill="#F0F0F0"/>
<path d="M647.125 363.434H643.211V367.343H647.125V363.434Z" fill="#F0F0F0"/>
<path d="M647.125 369.996H643.211V373.905H647.125V369.996Z" fill="#F0F0F0"/>
<path d="M647.125 396.246H643.211V400.155H647.125V396.246Z" fill="#F0F0F0"/>
<path d="M640.901 265.027H636.986V268.937H640.901V265.027Z" fill="#F0F0F0"/>
<path d="M640.901 271.59H636.986V275.499H640.901V271.59Z" fill="#F0F0F0"/>
<path d="M640.901 278.152H636.986V282.062H640.901V278.152Z" fill="#F0F0F0"/>
<path d="M640.901 284.715H636.986V288.624H640.901V284.715Z" fill="#F0F0F0"/>
<path d="M640.901 291.262H636.986V295.171H640.901V291.262Z" fill="#F0F0F0"/>
<path d="M640.901 297.824H636.986V301.734H640.901V297.824Z" fill="#F0F0F0"/>
<path d="M640.901 304.387H636.986V308.296H640.901V304.387Z" fill="#F0F0F0"/>
<path d="M640.901 310.949H636.986V314.859H640.901V310.949Z" fill="#F0F0F0"/>
<path d="M640.901 317.512H636.986V321.421H640.901V317.512Z" fill="#F0F0F0"/>
<path d="M640.901 324.074H636.986V327.984H640.901V324.074Z" fill="#F0F0F0"/>
<path d="M640.901 343.762H636.986V347.671H640.901V343.762Z" fill="#F0F0F0"/>
<path d="M640.901 350.324H636.986V354.233H640.901V350.324Z" fill="#F0F0F0"/>
<path d="M640.901 356.871H636.986V360.78H640.901V356.871Z" fill="#F0F0F0"/>
<path d="M640.901 363.434H636.986V367.343H640.901V363.434Z" fill="#F0F0F0"/>
<path d="M640.901 369.996H636.986V373.905H640.901V369.996Z" fill="#F0F0F0"/>
<path d="M640.901 396.246H636.986V400.155H640.901V396.246Z" fill="#F0F0F0"/>
<path d="M634.676 265.027H630.762V268.937H634.676V265.027Z" fill="#F0F0F0"/>
<path d="M634.676 271.59H630.762V275.499H634.676V271.59Z" fill="#F0F0F0"/>
<path d="M634.676 278.152H630.762V282.062H634.676V278.152Z" fill="#F0F0F0"/>
<path d="M634.676 284.715H630.762V288.624H634.676V284.715Z" fill="#F0F0F0"/>
<path d="M634.676 291.262H630.762V295.171H634.676V291.262Z" fill="#F0F0F0"/>
<path d="M634.676 297.824H630.762V301.734H634.676V297.824Z" fill="#F0F0F0"/>
<path d="M634.676 304.387H630.762V308.296H634.676V304.387Z" fill="#F0F0F0"/>
<path d="M634.676 310.949H630.762V314.859H634.676V310.949Z" fill="#F0F0F0"/>
<path d="M634.676 317.512H630.762V321.421H634.676V317.512Z" fill="#F0F0F0"/>
<path d="M634.676 324.074H630.762V327.984H634.676V324.074Z" fill="#F0F0F0"/>
<path d="M634.676 330.637H630.762V334.546H634.676V330.637Z" fill="#F0F0F0"/>
<path d="M634.676 337.199H630.762V341.109H634.676V337.199Z" fill="#F0F0F0"/>
<path d="M634.676 343.762H630.762V347.671H634.676V343.762Z" fill="#F0F0F0"/>
<path d="M634.676 350.324H630.762V354.233H634.676V350.324Z" fill="#F0F0F0"/>
<path d="M634.676 356.871H630.762V360.78H634.676V356.871Z" fill="#F0F0F0"/>
<path d="M634.676 363.434H630.762V367.343H634.676V363.434Z" fill="#F0F0F0"/>
<path d="M634.676 369.996H630.762V373.905H634.676V369.996Z" fill="#F0F0F0"/>
<path d="M634.676 376.559H630.762V380.468H634.676V376.559Z" fill="#F0F0F0"/>
<path d="M628.449 265.027H624.535V268.937H628.449V265.027Z" fill="#F0F0F0"/>
<path d="M628.449 271.59H624.535V275.499H628.449V271.59Z" fill="#F0F0F0"/>
<path d="M628.449 278.152H624.535V282.062H628.449V278.152Z" fill="#F0F0F0"/>
<path d="M628.449 284.715H624.535V288.624H628.449V284.715Z" fill="#F0F0F0"/>
<path d="M628.449 291.262H624.535V295.171H628.449V291.262Z" fill="#F0F0F0"/>
<path d="M628.449 297.824H624.535V301.734H628.449V297.824Z" fill="#F0F0F0"/>
<path d="M628.449 304.387H624.535V308.296H628.449V304.387Z" fill="#F0F0F0"/>
<path d="M628.449 310.949H624.535V314.859H628.449V310.949Z" fill="#F0F0F0"/>
<path d="M628.449 317.512H624.535V321.421H628.449V317.512Z" fill="#F0F0F0"/>
<path d="M628.449 324.074H624.535V327.984H628.449V324.074Z" fill="#F0F0F0"/>
<path d="M628.449 343.762H624.535V347.671H628.449V343.762Z" fill="#F0F0F0"/>
<path d="M628.449 350.324H624.535V354.233H628.449V350.324Z" fill="#F0F0F0"/>
<path d="M628.449 356.871H624.535V360.78H628.449V356.871Z" fill="#F0F0F0"/>
<path d="M628.449 363.434H624.535V367.343H628.449V363.434Z" fill="#F0F0F0"/>
<path d="M622.24 265.027H618.326V268.937H622.24V265.027Z" fill="#F0F0F0"/>
<path d="M622.24 271.59H618.326V275.499H622.24V271.59Z" fill="#F0F0F0"/>
<path d="M622.24 278.152H618.326V282.062H622.24V278.152Z" fill="#F0F0F0"/>
<path d="M622.24 284.715H618.326V288.624H622.24V284.715Z" fill="#F0F0F0"/>
<path d="M622.24 291.262H618.326V295.171H622.24V291.262Z" fill="#F0F0F0"/>
<path d="M622.24 297.824H618.326V301.734H622.24V297.824Z" fill="#F0F0F0"/>
<path d="M622.24 304.387H618.326V308.296H622.24V304.387Z" fill="#F0F0F0"/>
<path d="M622.24 310.949H618.326V314.859H622.24V310.949Z" fill="#F0F0F0"/>
<path d="M622.24 317.512H618.326V321.421H622.24V317.512Z" fill="#F0F0F0"/>
<path d="M622.24 324.074H618.326V327.984H622.24V324.074Z" fill="#F0F0F0"/>
<path d="M622.24 343.762H618.326V347.671H622.24V343.762Z" fill="#F0F0F0"/>
<path d="M622.24 350.324H618.326V354.233H622.24V350.324Z" fill="#F0F0F0"/>
<path d="M622.24 356.871H618.326V360.78H622.24V356.871Z" fill="#F0F0F0"/>
<path d="M552.16 247.992H548.246V251.902H552.16V247.992Z" fill="#F0F0F0"/>
<path d="M552.16 254.555H548.246V258.464H552.16V254.555Z" fill="#F0F0F0"/>
<path d="M552.16 261.117H548.246V265.026H552.16V261.117Z" fill="#F0F0F0"/>
<path d="M552.16 267.664H548.246V271.573H552.16V267.664Z" fill="#F0F0F0"/>
<path d="M552.16 274.227H548.246V278.136H552.16V274.227Z" fill="#F0F0F0"/>
<path d="M552.16 280.789H548.246V284.698H552.16V280.789Z" fill="#F0F0F0"/>
<path d="M552.16 287.352H548.246V291.261H552.16V287.352Z" fill="#F0F0F0"/>
<path d="M552.16 293.914H548.246V297.823H552.16V293.914Z" fill="#F0F0F0"/>
<path d="M552.16 313.602H548.246V317.511H552.16V313.602Z" fill="#F0F0F0"/>
<path d="M552.16 320.164H548.246V324.073H552.16V320.164Z" fill="#F0F0F0"/>
<path d="M545.936 247.992H542.021V251.902H545.936V247.992Z" fill="#F0F0F0"/>
<path d="M545.936 254.555H542.021V258.464H545.936V254.555Z" fill="#F0F0F0"/>
<path d="M545.936 261.117H542.021V265.026H545.936V261.117Z" fill="#F0F0F0"/>
<path d="M545.936 267.664H542.021V271.573H545.936V267.664Z" fill="#F0F0F0"/>
<path d="M545.936 274.227H542.021V278.136H545.936V274.227Z" fill="#F0F0F0"/>
<path d="M545.936 280.789H542.021V284.698H545.936V280.789Z" fill="#F0F0F0"/>
<path d="M545.936 287.352H542.021V291.261H545.936V287.352Z" fill="#F0F0F0"/>
<path d="M545.936 293.914H542.021V297.823H545.936V293.914Z" fill="#F0F0F0"/>
<path d="M545.936 320.164H542.021V324.073H545.936V320.164Z" fill="#F0F0F0"/>
<path d="M539.711 247.992H535.797V251.902H539.711V247.992Z" fill="#F0F0F0"/>
<path d="M539.711 254.555H535.797V258.464H539.711V254.555Z" fill="#F0F0F0"/>
<path d="M539.711 261.117H535.797V265.026H539.711V261.117Z" fill="#F0F0F0"/>
<path d="M539.711 267.664H535.797V271.573H539.711V267.664Z" fill="#F0F0F0"/>
<path d="M539.711 274.227H535.797V278.136H539.711V274.227Z" fill="#F0F0F0"/>
<path d="M539.711 280.789H535.797V284.698H539.711V280.789Z" fill="#F0F0F0"/>
<path d="M539.711 287.352H535.797V291.261H539.711V287.352Z" fill="#F0F0F0"/>
<path d="M539.711 293.914H535.797V297.823H539.711V293.914Z" fill="#F0F0F0"/>
<path d="M533.487 247.992H529.572V251.902H533.487V247.992Z" fill="#F0F0F0"/>
<path d="M533.487 254.555H529.572V258.464H533.487V254.555Z" fill="#F0F0F0"/>
<path d="M533.487 261.117H529.572V265.026H533.487V261.117Z" fill="#F0F0F0"/>
<path d="M533.487 267.664H529.572V271.573H533.487V267.664Z" fill="#F0F0F0"/>
<path d="M533.487 274.227H529.572V278.136H533.487V274.227Z" fill="#F0F0F0"/>
<path d="M533.487 280.789H529.572V284.698H533.487V280.789Z" fill="#F0F0F0"/>
<path d="M533.487 293.914H529.572V297.823H533.487V293.914Z" fill="#F0F0F0"/>
<path d="M533.487 300.477H529.572V304.386H533.487V300.477Z" fill="#F0F0F0"/>
<path d="M533.487 320.164H529.572V324.073H533.487V320.164Z" fill="#F0F0F0"/>
<path d="M533.487 326.727H529.572V330.636H533.487V326.727Z" fill="#F0F0F0"/>
<path d="M533.487 333.273H529.572V337.183H533.487V333.273Z" fill="#F0F0F0"/>
<path d="M533.487 339.836H529.572V343.745H533.487V339.836Z" fill="#F0F0F0"/>
<path d="M533.487 346.398H529.572V350.308H533.487V346.398Z" fill="#F0F0F0"/>
<path d="M533.487 352.965H529.572V356.874H533.487V352.965Z" fill="#F0F0F0"/>
<path d="M533.487 359.527H529.572V363.437H533.487V359.527Z" fill="#F0F0F0"/>
<path d="M527.26 247.992H523.346V251.902H527.26V247.992Z" fill="#F0F0F0"/>
<path d="M527.26 254.555H523.346V258.464H527.26V254.555Z" fill="#F0F0F0"/>
<path d="M527.26 261.117H523.346V265.026H527.26V261.117Z" fill="#F0F0F0"/>
<path d="M527.26 267.664H523.346V271.573H527.26V267.664Z" fill="#F0F0F0"/>
<path d="M527.26 274.227H523.346V278.136H527.26V274.227Z" fill="#F0F0F0"/>
<path d="M527.26 280.789H523.346V284.698H527.26V280.789Z" fill="#F0F0F0"/>
<path d="M527.26 300.477H523.346V304.386H527.26V300.477Z" fill="#F0F0F0"/>
<path d="M527.26 307.039H523.346V310.948H527.26V307.039Z" fill="#F0F0F0"/>
<path d="M527.26 313.602H523.346V317.511H527.26V313.602Z" fill="#F0F0F0"/>
<path d="M527.26 320.164H523.346V324.073H527.26V320.164Z" fill="#F0F0F0"/>
<path d="M527.26 326.727H523.346V330.636H527.26V326.727Z" fill="#F0F0F0"/>
<path d="M527.26 333.273H523.346V337.183H527.26V333.273Z" fill="#F0F0F0"/>
<path d="M527.26 339.836H523.346V343.745H527.26V339.836Z" fill="#F0F0F0"/>
<path d="M527.26 346.398H523.346V350.308H527.26V346.398Z" fill="#F0F0F0"/>
<path d="M527.26 352.965H523.346V356.874H527.26V352.965Z" fill="#F0F0F0"/>
<path d="M527.26 359.527H523.346V363.437H527.26V359.527Z" fill="#F0F0F0"/>
<path d="M527.26 366.09H523.346V369.999H527.26V366.09Z" fill="#F0F0F0"/>
<path d="M527.26 379.215H523.346V383.124H527.26V379.215Z" fill="#F0F0F0"/>
<path d="M521.035 247.992H517.121V251.902H521.035V247.992Z" fill="#F0F0F0"/>
<path d="M521.035 254.555H517.121V258.464H521.035V254.555Z" fill="#F0F0F0"/>
<path d="M521.035 261.117H517.121V265.026H521.035V261.117Z" fill="#F0F0F0"/>
<path d="M521.035 267.664H517.121V271.573H521.035V267.664Z" fill="#F0F0F0"/>
<path d="M521.035 274.227H517.121V278.136H521.035V274.227Z" fill="#F0F0F0"/>
<path d="M521.035 280.789H517.121V284.698H521.035V280.789Z" fill="#F0F0F0"/>
<path d="M521.035 300.477H517.121V304.386H521.035V300.477Z" fill="#F0F0F0"/>
<path d="M521.035 307.039H517.121V310.948H521.035V307.039Z" fill="#F0F0F0"/>
<path d="M521.035 313.602H517.121V317.511H521.035V313.602Z" fill="#F0F0F0"/>
<path d="M521.035 320.164H517.121V324.073H521.035V320.164Z" fill="#F0F0F0"/>
<path d="M521.035 339.836H517.121V343.745H521.035V339.836Z" fill="#F0F0F0"/>
<path d="M521.035 346.398H517.121V350.308H521.035V346.398Z" fill="#F0F0F0"/>
<path d="M521.035 352.965H517.121V356.874H521.035V352.965Z" fill="#F0F0F0"/>
<path d="M521.035 359.527H517.121V363.437H521.035V359.527Z" fill="#F0F0F0"/>
<path d="M521.035 366.09H517.121V369.999H521.035V366.09Z" fill="#F0F0F0"/>
<path d="M521.035 379.215H517.121V383.124H521.035V379.215Z" fill="#F0F0F0"/>
<path d="M521.035 385.777H517.121V389.687H521.035V385.777Z" fill="#F0F0F0"/>
<path d="M464.569 309.004H460.654V312.913H464.569V309.004Z" fill="#F0F0F0"/>
<path d="M464.569 315.551H460.654V319.46H464.569V315.551Z" fill="#F0F0F0"/>
<path d="M464.569 322.113H460.654V326.023H464.569V322.113Z" fill="#F0F0F0"/>
<path d="M464.569 328.676H460.654V332.585H464.569V328.676Z" fill="#F0F0F0"/>
<path d="M464.569 335.238H460.654V339.148H464.569V335.238Z" fill="#F0F0F0"/>
<path d="M464.569 341.801H460.654V345.71H464.569V341.801Z" fill="#F0F0F0"/>
<path d="M464.569 348.363H460.654V352.273H464.569V348.363Z" fill="#F0F0F0"/>
<path d="M464.569 368.051H460.654V371.96H464.569V368.051Z" fill="#F0F0F0"/>
<path d="M464.569 374.598H460.654V378.507H464.569V374.598Z" fill="#F0F0F0"/>
<path d="M464.569 381.16H460.654V385.069H464.569V381.16Z" fill="#F0F0F0"/>
<path d="M458.344 309.004H454.43V312.913H458.344V309.004Z" fill="#F0F0F0"/>
<path d="M458.344 315.551H454.43V319.46H458.344V315.551Z" fill="#F0F0F0"/>
<path d="M458.344 322.113H454.43V326.023H458.344V322.113Z" fill="#F0F0F0"/>
<path d="M458.344 328.676H454.43V332.585H458.344V328.676Z" fill="#F0F0F0"/>
<path d="M458.344 335.238H454.43V339.148H458.344V335.238Z" fill="#F0F0F0"/>
<path d="M458.344 341.801H454.43V345.71H458.344V341.801Z" fill="#F0F0F0"/>
<path d="M458.344 348.363H454.43V352.273H458.344V348.363Z" fill="#F0F0F0"/>
<path d="M452.119 309.004H448.205V312.913H452.119V309.004Z" fill="#F0F0F0"/>
<path d="M452.119 315.551H448.205V319.46H452.119V315.551Z" fill="#F0F0F0"/>
<path d="M452.119 322.113H448.205V326.023H452.119V322.113Z" fill="#F0F0F0"/>
<path d="M452.119 328.676H448.205V332.585H452.119V328.676Z" fill="#F0F0F0"/>
<path d="M452.119 335.238H448.205V339.148H452.119V335.238Z" fill="#F0F0F0"/>
<path d="M452.119 341.801H448.205V345.71H452.119V341.801Z" fill="#F0F0F0"/>
<path d="M452.119 348.363H448.205V352.273H452.119V348.363Z" fill="#F0F0F0"/>
<path d="M445.895 309.004H441.98V312.913H445.895V309.004Z" fill="#F0F0F0"/>
<path d="M445.895 315.551H441.98V319.46H445.895V315.551Z" fill="#F0F0F0"/>
<path d="M445.895 322.113H441.98V326.023H445.895V322.113Z" fill="#F0F0F0"/>
<path d="M445.895 328.676H441.98V332.585H445.895V328.676Z" fill="#F0F0F0"/>
<path d="M445.895 335.238H441.98V339.148H445.895V335.238Z" fill="#F0F0F0"/>
<path d="M445.895 341.801H441.98V345.71H445.895V341.801Z" fill="#F0F0F0"/>
<path d="M445.895 348.363H441.98V352.273H445.895V348.363Z" fill="#F0F0F0"/>
<path d="M445.895 354.926H441.98V358.835H445.895V354.926Z" fill="#F0F0F0"/>
<path d="M445.895 361.488H441.98V365.398H445.895V361.488Z" fill="#F0F0F0"/>
<path d="M445.895 368.051H441.98V371.96H445.895V368.051Z" fill="#F0F0F0"/>
<path d="M445.895 374.598H441.98V378.507H445.895V374.598Z" fill="#F0F0F0"/>
<path d="M439.668 309.004H435.754V312.913H439.668V309.004Z" fill="#F0F0F0"/>
<path d="M439.668 315.551H435.754V319.46H439.668V315.551Z" fill="#F0F0F0"/>
<path d="M439.668 322.113H435.754V326.023H439.668V322.113Z" fill="#F0F0F0"/>
<path d="M439.668 328.676H435.754V332.585H439.668V328.676Z" fill="#F0F0F0"/>
<path d="M439.668 335.238H435.754V339.148H439.668V335.238Z" fill="#F0F0F0"/>
<path d="M439.668 341.801H435.754V345.71H439.668V341.801Z" fill="#F0F0F0"/>
<path d="M439.668 348.363H435.754V352.273H439.668V348.363Z" fill="#F0F0F0"/>
<path d="M439.668 354.926H435.754V358.835H439.668V354.926Z" fill="#F0F0F0"/>
<path d="M439.668 361.488H435.754V365.398H439.668V361.488Z" fill="#F0F0F0"/>
<path d="M439.668 368.051H435.754V371.96H439.668V368.051Z" fill="#F0F0F0"/>
<path d="M439.668 374.598H435.754V378.507H439.668V374.598Z" fill="#F0F0F0"/>
<path d="M439.668 381.16H435.754V385.069H439.668V381.16Z" fill="#F0F0F0"/>
<path d="M439.668 400.848H435.754V404.757H439.668V400.848Z" fill="#F0F0F0"/>
<path d="M439.668 407.41H435.754V411.32H439.668V407.41Z" fill="#F0F0F0"/>
<path d="M433.444 309.004H429.529V312.913H433.444V309.004Z" fill="#F0F0F0"/>
<path d="M433.444 315.551H429.529V319.46H433.444V315.551Z" fill="#F0F0F0"/>
<path d="M433.444 322.113H429.529V326.023H433.444V322.113Z" fill="#F0F0F0"/>
<path d="M433.444 341.801H429.529V345.71H433.444V341.801Z" fill="#F0F0F0"/>
<path d="M433.444 348.363H429.529V352.273H433.444V348.363Z" fill="#F0F0F0"/>
<path d="M433.444 354.926H429.529V358.835H433.444V354.926Z" fill="#F0F0F0"/>
<path d="M433.444 361.488H429.529V365.398H433.444V361.488Z" fill="#F0F0F0"/>
<path d="M433.444 368.051H429.529V371.96H433.444V368.051Z" fill="#F0F0F0"/>
<path d="M433.444 374.598H429.529V378.507H433.444V374.598Z" fill="#F0F0F0"/>
<path d="M433.444 381.16H429.529V385.069H433.444V381.16Z" fill="#F0F0F0"/>
<path d="M433.444 400.848H429.529V404.757H433.444V400.848Z" fill="#F0F0F0"/>
<path d="M433.444 407.41H429.529V411.32H433.444V407.41Z" fill="#F0F0F0"/>
<path d="M433.444 413.973H429.529V417.882H433.444V413.973Z" fill="#F0F0F0"/>
<path d="M368.221 269.629H364.307V273.538H368.221V269.629Z" fill="#F0F0F0"/>
<path d="M368.221 276.191H364.307V280.101H368.221V276.191Z" fill="#F0F0F0"/>
<path d="M368.221 282.75H364.307V286.659H368.221V282.75Z" fill="#F0F0F0"/>
<path d="M368.221 289.316H364.307V293.226H368.221V289.316Z" fill="#F0F0F0"/>
<path d="M368.221 295.879H364.307V299.788H368.221V295.879Z" fill="#F0F0F0"/>
<path d="M368.221 302.441H364.307V306.351H368.221V302.441Z" fill="#F0F0F0"/>
<path d="M368.221 309.004H364.307V312.913H368.221V309.004Z" fill="#F0F0F0"/>
<path d="M368.221 315.551H364.307V319.46H368.221V315.551Z" fill="#F0F0F0"/>
<path d="M368.221 322.113H364.307V326.023H368.221V322.113Z" fill="#F0F0F0"/>
<path d="M368.221 328.676H364.307V332.585H368.221V328.676Z" fill="#F0F0F0"/>
<path d="M368.221 335.238H364.307V339.148H368.221V335.238Z" fill="#F0F0F0"/>
<path d="M368.221 341.801H364.307V345.71H368.221V341.801Z" fill="#F0F0F0"/>
<path d="M368.221 348.363H364.307V352.273H368.221V348.363Z" fill="#F0F0F0"/>
<path d="M368.221 354.926H364.307V358.835H368.221V354.926Z" fill="#F0F0F0"/>
<path d="M368.221 361.488H364.307V365.398H368.221V361.488Z" fill="#F0F0F0"/>
<path d="M368.221 368.051H364.307V371.96H368.221V368.051Z" fill="#F0F0F0"/>
<path d="M368.221 374.598H364.307V378.507H368.221V374.598Z" fill="#F0F0F0"/>
<path d="M368.221 381.16H364.307V385.069H368.221V381.16Z" fill="#F0F0F0"/>
<path d="M368.221 387.723H364.307V391.632H368.221V387.723Z" fill="#F0F0F0"/>
<path d="M368.221 394.285H364.307V398.195H368.221V394.285Z" fill="#F0F0F0"/>
<path d="M368.221 400.848H364.307V404.757H368.221V400.848Z" fill="#F0F0F0"/>
<path d="M368.221 407.41H364.307V411.32H368.221V407.41Z" fill="#F0F0F0"/>
<path d="M368.221 413.973H364.307V417.882H368.221V413.973Z" fill="#F0F0F0"/>
<path d="M361.996 269.629H358.082V273.538H361.996V269.629Z" fill="#F0F0F0"/>
<path d="M361.996 276.191H358.082V280.101H361.996V276.191Z" fill="#F0F0F0"/>
<path d="M361.996 282.75H358.082V286.659H361.996V282.75Z" fill="#F0F0F0"/>
<path d="M361.996 289.316H358.082V293.226H361.996V289.316Z" fill="#F0F0F0"/>
<path d="M361.996 295.879H358.082V299.788H361.996V295.879Z" fill="#F0F0F0"/>
<path d="M361.996 302.441H358.082V306.351H361.996V302.441Z" fill="#F0F0F0"/>
<path d="M361.996 309.004H358.082V312.913H361.996V309.004Z" fill="#F0F0F0"/>
<path d="M361.996 315.551H358.082V319.46H361.996V315.551Z" fill="#F0F0F0"/>
<path d="M361.996 322.113H358.082V326.023H361.996V322.113Z" fill="#F0F0F0"/>
<path d="M361.996 328.676H358.082V332.585H361.996V328.676Z" fill="#F0F0F0"/>
<path d="M361.996 335.238H358.082V339.148H361.996V335.238Z" fill="#F0F0F0"/>
<path d="M361.996 341.801H358.082V345.71H361.996V341.801Z" fill="#F0F0F0"/>
<path d="M361.996 348.363H358.082V352.273H361.996V348.363Z" fill="#F0F0F0"/>
<path d="M361.996 354.926H358.082V358.835H361.996V354.926Z" fill="#F0F0F0"/>
<path d="M361.996 361.488H358.082V365.398H361.996V361.488Z" fill="#F0F0F0"/>
<path d="M361.996 368.051H358.082V371.96H361.996V368.051Z" fill="#F0F0F0"/>
<path d="M361.996 374.598H358.082V378.507H361.996V374.598Z" fill="#F0F0F0"/>
<path d="M361.996 381.16H358.082V385.069H361.996V381.16Z" fill="#F0F0F0"/>
<path d="M361.996 387.723H358.082V391.632H361.996V387.723Z" fill="#F0F0F0"/>
<path d="M355.772 269.629H351.857V273.538H355.772V269.629Z" fill="#F0F0F0"/>
<path d="M355.772 276.191H351.857V280.101H355.772V276.191Z" fill="#F0F0F0"/>
<path d="M355.772 282.75H351.857V286.659H355.772V282.75Z" fill="#F0F0F0"/>
<path d="M355.772 289.316H351.857V293.226H355.772V289.316Z" fill="#F0F0F0"/>
<path d="M355.772 295.879H351.857V299.788H355.772V295.879Z" fill="#F0F0F0"/>
<path d="M355.772 302.441H351.857V306.351H355.772V302.441Z" fill="#F0F0F0"/>
<path d="M355.772 309.004H351.857V312.913H355.772V309.004Z" fill="#F0F0F0"/>
<path d="M355.772 315.551H351.857V319.46H355.772V315.551Z" fill="#F0F0F0"/>
<path d="M355.772 322.113H351.857V326.023H355.772V322.113Z" fill="#F0F0F0"/>
<path d="M355.772 328.676H351.857V332.585H355.772V328.676Z" fill="#F0F0F0"/>
<path d="M355.772 335.238H351.857V339.148H355.772V335.238Z" fill="#F0F0F0"/>
<path d="M355.772 341.801H351.857V345.71H355.772V341.801Z" fill="#F0F0F0"/>
<path d="M355.772 348.363H351.857V352.273H355.772V348.363Z" fill="#F0F0F0"/>
<path d="M355.772 354.926H351.857V358.835H355.772V354.926Z" fill="#F0F0F0"/>
<path d="M355.772 361.488H351.857V365.398H355.772V361.488Z" fill="#F0F0F0"/>
<path d="M355.772 368.051H351.857V371.96H355.772V368.051Z" fill="#F0F0F0"/>
<path d="M355.772 374.598H351.857V378.507H355.772V374.598Z" fill="#F0F0F0"/>
<path d="M355.772 381.16H351.857V385.069H355.772V381.16Z" fill="#F0F0F0"/>
<path d="M355.772 387.723H351.857V391.632H355.772V387.723Z" fill="#F0F0F0"/>
<path d="M349.547 269.629H345.633V273.538H349.547V269.629Z" fill="#F0F0F0"/>
<path d="M349.547 276.191H345.633V280.101H349.547V276.191Z" fill="#F0F0F0"/>
<path d="M349.547 282.75H345.633V286.659H349.547V282.75Z" fill="#F0F0F0"/>
<path d="M349.547 289.316H345.633V293.226H349.547V289.316Z" fill="#F0F0F0"/>
<path d="M349.547 295.879H345.633V299.788H349.547V295.879Z" fill="#F0F0F0"/>
<path d="M349.547 302.441H345.633V306.351H349.547V302.441Z" fill="#F0F0F0"/>
<path d="M349.547 309.004H345.633V312.913H349.547V309.004Z" fill="#F0F0F0"/>
<path d="M349.547 315.551H345.633V319.46H349.547V315.551Z" fill="#F0F0F0"/>
<path d="M349.547 322.113H345.633V326.023H349.547V322.113Z" fill="#F0F0F0"/>
<path d="M349.547 328.676H345.633V332.585H349.547V328.676Z" fill="#F0F0F0"/>
<path d="M349.547 335.238H345.633V339.148H349.547V335.238Z" fill="#F0F0F0"/>
<path d="M349.547 341.801H345.633V345.71H349.547V341.801Z" fill="#F0F0F0"/>
<path d="M349.547 348.363H345.633V352.273H349.547V348.363Z" fill="#F0F0F0"/>
<path d="M349.547 354.926H345.633V358.835H349.547V354.926Z" fill="#F0F0F0"/>
<path d="M349.547 361.488H345.633V365.398H349.547V361.488Z" fill="#F0F0F0"/>
<path d="M343.32 269.629H339.406V273.538H343.32V269.629Z" fill="#F0F0F0"/>
<path d="M343.32 276.191H339.406V280.101H343.32V276.191Z" fill="#F0F0F0"/>
<path d="M343.32 282.75H339.406V286.659H343.32V282.75Z" fill="#F0F0F0"/>
<path d="M343.32 289.316H339.406V293.226H343.32V289.316Z" fill="#F0F0F0"/>
<path d="M343.32 295.879H339.406V299.788H343.32V295.879Z" fill="#F0F0F0"/>
<path d="M343.32 302.441H339.406V306.351H343.32V302.441Z" fill="#F0F0F0"/>
<path d="M343.32 309.004H339.406V312.913H343.32V309.004Z" fill="#F0F0F0"/>
<path d="M343.32 315.551H339.406V319.46H343.32V315.551Z" fill="#F0F0F0"/>
<path d="M343.32 322.113H339.406V326.023H343.32V322.113Z" fill="#F0F0F0"/>
<path d="M343.32 328.676H339.406V332.585H343.32V328.676Z" fill="#F0F0F0"/>
<path d="M343.32 335.238H339.406V339.148H343.32V335.238Z" fill="#F0F0F0"/>
<path d="M343.32 341.801H339.406V345.71H343.32V341.801Z" fill="#F0F0F0"/>
<path d="M343.32 348.363H339.406V352.273H343.32V348.363Z" fill="#F0F0F0"/>
<path d="M337.096 269.629H333.182V273.538H337.096V269.629Z" fill="#F0F0F0"/>
<path d="M337.096 276.191H333.182V280.101H337.096V276.191Z" fill="#F0F0F0"/>
<path d="M337.096 282.75H333.182V286.659H337.096V282.75Z" fill="#F0F0F0"/>
<path d="M337.096 289.316H333.182V293.226H337.096V289.316Z" fill="#F0F0F0"/>
<path d="M337.096 295.879H333.182V299.788H337.096V295.879Z" fill="#F0F0F0"/>
<path d="M337.096 302.441H333.182V306.351H337.096V302.441Z" fill="#F0F0F0"/>
<path d="M337.096 309.004H333.182V312.913H337.096V309.004Z" fill="#F0F0F0"/>
<path d="M337.096 315.551H333.182V319.46H337.096V315.551Z" fill="#F0F0F0"/>
<path d="M337.096 322.113H333.182V326.023H337.096V322.113Z" fill="#F0F0F0"/>
<path d="M337.096 328.676H333.182V332.585H337.096V328.676Z" fill="#F0F0F0"/>
<path d="M337.096 335.238H333.182V339.148H337.096V335.238Z" fill="#F0F0F0"/>
<path d="M337.096 341.801H333.182V345.71H337.096V341.801Z" fill="#F0F0F0"/>
<path d="M700.369 267.664H696.455V271.573H700.369V267.664Z" fill="#F0F0F0"/>
<path d="M700.369 274.227H696.455V278.136H700.369V274.227Z" fill="#F0F0F0"/>
<path d="M700.369 280.789H696.455V284.698H700.369V280.789Z" fill="#F0F0F0"/>
<path d="M700.369 287.352H696.455V291.261H700.369V287.352Z" fill="#F0F0F0"/>
<path d="M700.369 293.914H696.455V297.823H700.369V293.914Z" fill="#F0F0F0"/>
<path d="M700.369 300.477H696.455V304.386H700.369V300.477Z" fill="#F0F0F0"/>
<path d="M700.369 307.039H696.455V310.948H700.369V307.039Z" fill="#F0F0F0"/>
<path d="M700.369 313.602H696.455V317.511H700.369V313.602Z" fill="#F0F0F0"/>
<path d="M700.369 320.164H696.455V324.073H700.369V320.164Z" fill="#F0F0F0"/>
<path d="M700.369 326.727H696.455V330.636H700.369V326.727Z" fill="#F0F0F0"/>
<path d="M700.369 333.273H696.455V337.183H700.369V333.273Z" fill="#F0F0F0"/>
<path d="M700.369 339.836H696.455V343.745H700.369V339.836Z" fill="#F0F0F0"/>
<path d="M700.369 346.398H696.455V350.308H700.369V346.398Z" fill="#F0F0F0"/>
<path d="M700.369 352.965H696.455V356.874H700.369V352.965Z" fill="#F0F0F0"/>
<path d="M700.369 359.527H696.455V363.437H700.369V359.527Z" fill="#F0F0F0"/>
<path d="M700.369 366.09H696.455V369.999H700.369V366.09Z" fill="#F0F0F0"/>
<path d="M700.369 372.652H696.455V376.562H700.369V372.652Z" fill="#F0F0F0"/>
<path d="M700.369 385.777H696.455V389.687H700.369V385.777Z" fill="#F0F0F0"/>
<path d="M700.369 392.34H696.455V396.249H700.369V392.34Z" fill="#F0F0F0"/>
<path d="M700.369 398.887H696.455V402.796H700.369V398.887Z" fill="#F0F0F0"/>
<path d="M700.369 405.449H696.455V409.359H700.369V405.449Z" fill="#F0F0F0"/>
<path d="M700.369 412.012H696.455V415.921H700.369V412.012Z" fill="#F0F0F0"/>
<path d="M694.145 267.664H690.23V271.573H694.145V267.664Z" fill="#F0F0F0"/>
<path d="M694.145 274.227H690.23V278.136H694.145V274.227Z" fill="#F0F0F0"/>
<path d="M694.145 280.789H690.23V284.698H694.145V280.789Z" fill="#F0F0F0"/>
<path d="M694.145 287.352H690.23V291.261H694.145V287.352Z" fill="#F0F0F0"/>
<path d="M694.145 293.914H690.23V297.823H694.145V293.914Z" fill="#F0F0F0"/>
<path d="M694.145 300.477H690.23V304.386H694.145V300.477Z" fill="#F0F0F0"/>
<path d="M694.145 307.039H690.23V310.948H694.145V307.039Z" fill="#F0F0F0"/>
<path d="M694.145 313.602H690.23V317.511H694.145V313.602Z" fill="#F0F0F0"/>
<path d="M694.145 320.164H690.23V324.073H694.145V320.164Z" fill="#F0F0F0"/>
<path d="M694.145 326.727H690.23V330.636H694.145V326.727Z" fill="#F0F0F0"/>
<path d="M694.145 333.273H690.23V337.183H694.145V333.273Z" fill="#F0F0F0"/>
<path d="M694.145 339.836H690.23V343.745H694.145V339.836Z" fill="#F0F0F0"/>
<path d="M694.145 346.398H690.23V350.308H694.145V346.398Z" fill="#F0F0F0"/>
<path d="M694.145 352.965H690.23V356.874H694.145V352.965Z" fill="#F0F0F0"/>
<path d="M694.145 359.527H690.23V363.437H694.145V359.527Z" fill="#F0F0F0"/>
<path d="M694.145 366.09H690.23V369.999H694.145V366.09Z" fill="#F0F0F0"/>
<path d="M694.145 405.449H690.23V409.359H694.145V405.449Z" fill="#F0F0F0"/>
<path d="M694.145 412.012H690.23V415.921H694.145V412.012Z" fill="#F0F0F0"/>
<path d="M687.934 267.664H684.02V271.573H687.934V267.664Z" fill="#F0F0F0"/>
<path d="M687.934 274.227H684.02V278.136H687.934V274.227Z" fill="#F0F0F0"/>
<path d="M687.934 280.789H684.02V284.698H687.934V280.789Z" fill="#F0F0F0"/>
<path d="M687.934 287.352H684.02V291.261H687.934V287.352Z" fill="#F0F0F0"/>
<path d="M687.934 293.914H684.02V297.823H687.934V293.914Z" fill="#F0F0F0"/>
<path d="M687.934 300.477H684.02V304.386H687.934V300.477Z" fill="#F0F0F0"/>
<path d="M687.934 307.039H684.02V310.948H687.934V307.039Z" fill="#F0F0F0"/>
<path d="M687.934 313.602H684.02V317.511H687.934V313.602Z" fill="#F0F0F0"/>
<path d="M687.934 320.164H684.02V324.073H687.934V320.164Z" fill="#F0F0F0"/>
<path d="M687.934 326.727H684.02V330.636H687.934V326.727Z" fill="#F0F0F0"/>
<path d="M687.934 333.273H684.02V337.183H687.934V333.273Z" fill="#F0F0F0"/>
<path d="M687.934 339.836H684.02V343.745H687.934V339.836Z" fill="#F0F0F0"/>
<path d="M687.934 346.398H684.02V350.308H687.934V346.398Z" fill="#F0F0F0"/>
<path d="M687.934 352.965H684.02V356.874H687.934V352.965Z" fill="#F0F0F0"/>
<path d="M687.934 359.527H684.02V363.437H687.934V359.527Z" fill="#F0F0F0"/>
<path d="M687.934 366.09H684.02V369.999H687.934V366.09Z" fill="#F0F0F0"/>
<path d="M687.934 379.215H684.02V383.124H687.934V379.215Z" fill="#F0F0F0"/>
<path d="M687.934 385.777H684.02V389.687H687.934V385.777Z" fill="#F0F0F0"/>
<path d="M687.934 392.34H684.02V396.249H687.934V392.34Z" fill="#F0F0F0"/>
<path d="M687.934 398.887H684.02V402.796H687.934V398.887Z" fill="#F0F0F0"/>
<path d="M687.934 412.012H684.02V415.921H687.934V412.012Z" fill="#F0F0F0"/>
<path d="M579.358 313.602H575.443V317.511H579.358V313.602Z" fill="#F0F0F0"/>
<path d="M579.358 320.164H575.443V324.073H579.358V320.164Z" fill="#F0F0F0"/>
<path d="M579.358 326.727H575.443V330.636H579.358V326.727Z" fill="#F0F0F0"/>
<path d="M579.358 333.273H575.443V337.183H579.358V333.273Z" fill="#F0F0F0"/>
<path d="M579.358 339.836H575.443V343.745H579.358V339.836Z" fill="#F0F0F0"/>
<path d="M579.358 346.398H575.443V350.308H579.358V346.398Z" fill="#F0F0F0"/>
<path d="M579.358 352.965H575.443V356.874H579.358V352.965Z" fill="#F0F0F0"/>
<path d="M579.358 359.527H575.443V363.437H579.358V359.527Z" fill="#F0F0F0"/>
<path d="M579.358 366.09H575.443V369.999H579.358V366.09Z" fill="#F0F0F0"/>
<path d="M579.358 372.652H575.443V376.562H579.358V372.652Z" fill="#F0F0F0"/>
<path d="M579.358 379.215H575.443V383.124H579.358V379.215Z" fill="#F0F0F0"/>
<path d="M579.358 385.777H575.443V389.687H579.358V385.777Z" fill="#F0F0F0"/>
<path d="M579.358 392.34H575.443V396.249H579.358V392.34Z" fill="#F0F0F0"/>
<path d="M579.358 405.449H575.443V409.359H579.358V405.449Z" fill="#F0F0F0"/>
<path d="M579.358 412.012H575.443V415.921H579.358V412.012Z" fill="#F0F0F0"/>
<path d="M579.358 418.574H575.443V422.484H579.358V418.574Z" fill="#F0F0F0"/>
<path d="M579.358 425.137H575.443V429.046H579.358V425.137Z" fill="#F0F0F0"/>
<path d="M579.358 438.262H575.443V442.171H579.358V438.262Z" fill="#F0F0F0"/>
<path d="M579.358 444.824H575.443V448.734H579.358V444.824Z" fill="#F0F0F0"/>
<path d="M579.358 451.387H575.443V455.296H579.358V451.387Z" fill="#F0F0F0"/>
<path d="M573.131 313.602H569.217V317.511H573.131V313.602Z" fill="#F0F0F0"/>
<path d="M573.131 320.164H569.217V324.073H573.131V320.164Z" fill="#F0F0F0"/>
<path d="M573.131 326.727H569.217V330.636H573.131V326.727Z" fill="#F0F0F0"/>
<path d="M573.131 333.273H569.217V337.183H573.131V333.273Z" fill="#F0F0F0"/>
<path d="M573.131 339.836H569.217V343.745H573.131V339.836Z" fill="#F0F0F0"/>
<path d="M573.131 346.398H569.217V350.308H573.131V346.398Z" fill="#F0F0F0"/>
<path d="M573.131 352.965H569.217V356.874H573.131V352.965Z" fill="#F0F0F0"/>
<path d="M573.131 359.527H569.217V363.437H573.131V359.527Z" fill="#F0F0F0"/>
<path d="M573.131 366.09H569.217V369.999H573.131V366.09Z" fill="#F0F0F0"/>
<path d="M573.131 372.652H569.217V376.562H573.131V372.652Z" fill="#F0F0F0"/>
<path d="M573.131 379.215H569.217V383.124H573.131V379.215Z" fill="#F0F0F0"/>
<path d="M573.131 385.777H569.217V389.687H573.131V385.777Z" fill="#F0F0F0"/>
<path d="M573.131 392.34H569.217V396.249H573.131V392.34Z" fill="#F0F0F0"/>
<path d="M573.131 412.012H569.217V415.921H573.131V412.012Z" fill="#F0F0F0"/>
<path d="M573.131 418.574H569.217V422.484H573.131V418.574Z" fill="#F0F0F0"/>
<path d="M573.131 431.699H569.217V435.609H573.131V431.699Z" fill="#F0F0F0"/>
<path d="M573.131 438.262H569.217V442.171H573.131V438.262Z" fill="#F0F0F0"/>
<path d="M573.131 444.824H569.217V448.734H573.131V444.824Z" fill="#F0F0F0"/>
<path d="M573.131 451.387H569.217V455.296H573.131V451.387Z" fill="#F0F0F0"/>
<path d="M566.906 313.602H562.992V317.511H566.906V313.602Z" fill="#F0F0F0"/>
<path d="M566.906 320.164H562.992V324.073H566.906V320.164Z" fill="#F0F0F0"/>
<path d="M566.906 326.727H562.992V330.636H566.906V326.727Z" fill="#F0F0F0"/>
<path d="M566.906 333.273H562.992V337.183H566.906V333.273Z" fill="#F0F0F0"/>
<path d="M566.906 339.836H562.992V343.745H566.906V339.836Z" fill="#F0F0F0"/>
<path d="M566.906 346.398H562.992V350.308H566.906V346.398Z" fill="#F0F0F0"/>
<path d="M566.906 352.965H562.992V356.874H566.906V352.965Z" fill="#F0F0F0"/>
<path d="M566.906 359.527H562.992V363.437H566.906V359.527Z" fill="#F0F0F0"/>
<path d="M566.906 366.09H562.992V369.999H566.906V366.09Z" fill="#F0F0F0"/>
<path d="M566.906 372.652H562.992V376.562H566.906V372.652Z" fill="#F0F0F0"/>
<path d="M566.906 379.215H562.992V383.124H566.906V379.215Z" fill="#F0F0F0"/>
<path d="M566.906 385.777H562.992V389.687H566.906V385.777Z" fill="#F0F0F0"/>
<path d="M566.906 392.34H562.992V396.249H566.906V392.34Z" fill="#F0F0F0"/>
<path d="M566.906 398.887H562.992V402.796H566.906V398.887Z" fill="#F0F0F0"/>
<path d="M566.906 412.012H562.992V415.921H566.906V412.012Z" fill="#F0F0F0"/>
<path d="M566.906 425.137H562.992V429.046H566.906V425.137Z" fill="#F0F0F0"/>
<path d="M566.906 431.699H562.992V435.609H566.906V431.699Z" fill="#F0F0F0"/>
<path d="M566.906 438.262H562.992V442.171H566.906V438.262Z" fill="#F0F0F0"/>
<path d="M566.906 444.824H562.992V448.734H566.906V444.824Z" fill="#F0F0F0"/>
<path d="M566.906 451.387H562.992V455.296H566.906V451.387Z" fill="#F0F0F0"/>
<path d="M604.713 351.016H600.799V354.925H604.713V351.016Z" fill="#F0F0F0"/>
<path d="M604.713 357.562H600.799V361.472H604.713V357.562Z" fill="#F0F0F0"/>
<path d="M604.713 364.125H600.799V368.034H604.713V364.125Z" fill="#F0F0F0"/>
<path d="M604.713 370.688H600.799V374.597H604.713V370.688Z" fill="#F0F0F0"/>
<path d="M604.713 377.25H600.799V381.159H604.713V377.25Z" fill="#F0F0F0"/>
<path d="M604.713 383.812H600.799V387.722H604.713V383.812Z" fill="#F0F0F0"/>
<path d="M604.713 403.5H600.799V407.409H604.713V403.5Z" fill="#F0F0F0"/>
<path d="M604.713 410.062H600.799V413.972H604.713V410.062Z" fill="#F0F0F0"/>
<path d="M604.713 416.609H600.799V420.519H604.713V416.609Z" fill="#F0F0F0"/>
<path d="M604.713 423.172H600.799V427.081H604.713V423.172Z" fill="#F0F0F0"/>
<path d="M604.713 429.734H600.799V433.644H604.713V429.734Z" fill="#F0F0F0"/>
<path d="M604.713 436.301H600.799V440.21H604.713V436.301Z" fill="#F0F0F0"/>
<path d="M604.713 442.863H600.799V446.773H604.713V442.863Z" fill="#F0F0F0"/>
<path d="M598.489 351.016H594.574V354.925H598.489V351.016Z" fill="#F0F0F0"/>
<path d="M598.489 357.562H594.574V361.472H598.489V357.562Z" fill="#F0F0F0"/>
<path d="M598.489 364.125H594.574V368.034H598.489V364.125Z" fill="#F0F0F0"/>
<path d="M598.489 370.688H594.574V374.597H598.489V370.688Z" fill="#F0F0F0"/>
<path d="M598.489 377.25H594.574V381.159H598.489V377.25Z" fill="#F0F0F0"/>
<path d="M598.489 383.812H594.574V387.722H598.489V383.812Z" fill="#F0F0F0"/>
<path d="M598.489 403.5H594.574V407.409H598.489V403.5Z" fill="#F0F0F0"/>
<path d="M598.489 410.062H594.574V413.972H598.489V410.062Z" fill="#F0F0F0"/>
<path d="M598.489 416.609H594.574V420.519H598.489V416.609Z" fill="#F0F0F0"/>
<path d="M598.489 423.172H594.574V427.081H598.489V423.172Z" fill="#F0F0F0"/>
<path d="M598.489 429.734H594.574V433.644H598.489V429.734Z" fill="#F0F0F0"/>
<path d="M598.489 436.301H594.574V440.21H598.489V436.301Z" fill="#F0F0F0"/>
<path d="M598.489 449.426H594.574V453.335H598.489V449.426Z" fill="#F0F0F0"/>
<path d="M391.723 322.113H387.809V326.023H391.723V322.113Z" fill="#F0F0F0"/>
<path d="M391.723 328.676H387.809V332.585H391.723V328.676Z" fill="#F0F0F0"/>
<path d="M391.723 335.238H387.809V339.148H391.723V335.238Z" fill="#F0F0F0"/>
<path d="M391.723 341.801H387.809V345.71H391.723V341.801Z" fill="#F0F0F0"/>
<path d="M391.723 348.363H387.809V352.273H391.723V348.363Z" fill="#F0F0F0"/>
<path d="M391.723 354.926H387.809V358.835H391.723V354.926Z" fill="#F0F0F0"/>
<path d="M391.723 361.488H387.809V365.398H391.723V361.488Z" fill="#F0F0F0"/>
<path d="M391.723 368.051H387.809V371.96H391.723V368.051Z" fill="#F0F0F0"/>
<path d="M391.723 374.598H387.809V378.507H391.723V374.598Z" fill="#F0F0F0"/>
<path d="M391.723 381.16H387.809V385.069H391.723V381.16Z" fill="#F0F0F0"/>
<path d="M391.723 387.723H387.809V391.632H391.723V387.723Z" fill="#F0F0F0"/>
<path d="M391.723 400.848H387.809V404.757H391.723V400.848Z" fill="#F0F0F0"/>
<path d="M391.723 407.41H387.809V411.32H391.723V407.41Z" fill="#F0F0F0"/>
<path d="M391.723 413.973H387.809V417.882H391.723V413.973Z" fill="#F0F0F0"/>
<path d="M391.723 420.535H387.809V424.444H391.723V420.535Z" fill="#F0F0F0"/>
<path d="M391.723 427.098H387.809V431.007H391.723V427.098Z" fill="#F0F0F0"/>
<path d="M391.723 433.66H387.809V437.57H391.723V433.66Z" fill="#F0F0F0"/>
<path d="M391.723 440.207H387.809V444.116H391.723V440.207Z" fill="#F0F0F0"/>
<path d="M391.723 446.77H387.809V450.679H391.723V446.77Z" fill="#F0F0F0"/>
<path d="M385.514 322.113H381.6V326.023H385.514V322.113Z" fill="#F0F0F0"/>
<path d="M385.514 328.676H381.6V332.585H385.514V328.676Z" fill="#F0F0F0"/>
<path d="M385.514 335.238H381.6V339.148H385.514V335.238Z" fill="#F0F0F0"/>
<path d="M385.514 341.801H381.6V345.71H385.514V341.801Z" fill="#F0F0F0"/>
<path d="M385.514 348.363H381.6V352.273H385.514V348.363Z" fill="#F0F0F0"/>
<path d="M385.514 354.926H381.6V358.835H385.514V354.926Z" fill="#F0F0F0"/>
<path d="M385.514 361.488H381.6V365.398H385.514V361.488Z" fill="#F0F0F0"/>
<path d="M385.514 368.051H381.6V371.96H385.514V368.051Z" fill="#F0F0F0"/>
<path d="M385.514 374.598H381.6V378.507H385.514V374.598Z" fill="#F0F0F0"/>
<path d="M385.514 381.16H381.6V385.069H385.514V381.16Z" fill="#F0F0F0"/>
<path d="M385.514 387.723H381.6V391.632H385.514V387.723Z" fill="#F0F0F0"/>
<path d="M385.514 394.285H381.6V398.195H385.514V394.285Z" fill="#F0F0F0"/>
<path d="M385.514 400.848H381.6V404.757H385.514V400.848Z" fill="#F0F0F0"/>
<path d="M385.514 407.41H381.6V411.32H385.514V407.41Z" fill="#F0F0F0"/>
<path d="M385.514 413.973H381.6V417.882H385.514V413.973Z" fill="#F0F0F0"/>
<path d="M385.514 420.535H381.6V424.444H385.514V420.535Z" fill="#F0F0F0"/>
<path d="M385.514 427.098H381.6V431.007H385.514V427.098Z" fill="#F0F0F0"/>
<path d="M385.514 433.66H381.6V437.57H385.514V433.66Z" fill="#F0F0F0"/>
<path d="M385.514 440.207H381.6V444.116H385.514V440.207Z" fill="#F0F0F0"/>
<path d="M385.514 446.77H381.6V450.679H385.514V446.77Z" fill="#F0F0F0"/>
<path d="M422.393 347.672H418.479V351.581H422.393V347.672Z" fill="#F0F0F0"/>
<path d="M422.393 354.234H418.479V358.144H422.393V354.234Z" fill="#F0F0F0"/>
<path d="M422.393 360.797H418.479V364.706H422.393V360.797Z" fill="#F0F0F0"/>
<path d="M422.393 367.359H418.479V371.269H422.393V367.359Z" fill="#F0F0F0"/>
<path d="M422.393 373.906H418.479V377.816H422.393V373.906Z" fill="#F0F0F0"/>
<path d="M422.393 380.469H418.479V384.378H422.393V380.469Z" fill="#F0F0F0"/>
<path d="M422.393 387.031H418.479V390.941H422.393V387.031Z" fill="#F0F0F0"/>
<path d="M422.393 393.594H418.479V397.503H422.393V393.594Z" fill="#F0F0F0"/>
<path d="M422.393 400.156H418.479V404.066H422.393V400.156Z" fill="#F0F0F0"/>
<path d="M422.393 406.719H418.479V410.628H422.393V406.719Z" fill="#F0F0F0"/>
<path d="M416.168 347.672H412.254V351.581H416.168V347.672Z" fill="#F0F0F0"/>
<path d="M416.168 354.234H412.254V358.144H416.168V354.234Z" fill="#F0F0F0"/>
<path d="M416.168 360.797H412.254V364.706H416.168V360.797Z" fill="#F0F0F0"/>
<path d="M416.168 367.359H412.254V371.269H416.168V367.359Z" fill="#F0F0F0"/>
<path d="M416.168 373.906H412.254V377.816H416.168V373.906Z" fill="#F0F0F0"/>
<path d="M416.168 380.469H412.254V384.378H416.168V380.469Z" fill="#F0F0F0"/>
<path d="M416.168 387.031H412.254V390.941H416.168V387.031Z" fill="#F0F0F0"/>
<path d="M416.168 393.594H412.254V397.503H416.168V393.594Z" fill="#F0F0F0"/>
<path d="M416.168 400.156H412.254V404.066H416.168V400.156Z" fill="#F0F0F0"/>
<path d="M453.188 98.6836H446.617V464.621H453.188V98.6836Z" fill="#E0E0E0"/>
<path d="M576.92 98.6836H570.35V464.621H576.92V98.6836Z" fill="#E0E0E0"/>
<path d="M700.637 98.6836H694.066V464.621H700.637V98.6836Z" fill="#E0E0E0"/>
<path d="M280.456 514.173H226.08V435.939C226.08 432.124 229.177 429.016 233.013 429.016H273.539C277.359 429.016 280.471 432.109 280.471 435.939V514.173H280.456Z" fill="#F0F0F0"/>
<path d="M280.456 440.523H226.08V446.631H280.456V440.523Z" fill="#E6E6E6"/>
<path d="M270.536 503.859H256.985C254.926 503.859 253.26 505.524 253.26 507.58V514.174H274.262V507.58C274.277 505.524 272.595 503.859 270.536 503.859Z" fill="#E0E0E0"/>
<path d="M274.34 514.172H259.265C257.928 514.172 256.844 513.088 256.844 511.754C256.844 510.419 257.928 509.336 259.265 509.336H274.34C275.676 509.336 276.761 510.419 276.761 511.754C276.761 513.088 275.676 514.172 274.34 514.172Z" fill="#E6E6E6"/>
<path d="M515.764 81.4494C535.662 76.7569 547.983 56.8429 543.285 36.9701C538.587 17.0974 518.647 4.79142 498.749 9.48393C478.851 14.1764 466.53 34.0905 471.228 53.9632C475.927 73.836 495.866 86.142 515.764 81.4494Z" fill="#E0E0E0"/>
<path d="M512.332 76.5257C529.497 73.7434 541.154 57.5901 538.368 40.4463C535.582 23.3026 519.409 11.6603 502.243 14.4426C485.078 17.2249 473.42 33.3782 476.206 50.522C478.992 67.6658 495.166 79.3081 512.332 76.5257Z" fill="#F0F0F0"/>
<path d="M508.758 23.9375V45.9176L523.346 37.6751" fill="#F0F0F0"/>
<path d="M508.758 23.9375V45.9176L523.346 37.6751" stroke="#E0E0E0" stroke-width="2" stroke-miterlimit="10" stroke-linecap="round" stroke-linejoin="round"/>
<path d="M152.999 406.405C150.17 401.758 145.516 405.793 145.516 405.793C146.177 396.875 137.971 390.784 137.971 390.784C137.971 390.784 147.513 390.784 148.849 381.693C150.185 372.603 145.516 376.826 141.146 376.764C136.776 376.701 132.202 389.465 137.971 396.624C143.74 403.799 142.184 416.045 128.885 427.82C125.631 430.693 123.43 434.524 121.936 438.653C122.943 427.836 123.508 412.591 120.317 402.417C114.91 385.132 125.222 380.484 128.209 371.834C131.211 363.183 120.317 355.882 120.317 355.882C120.317 355.882 130.551 351.235 125.552 345.913C120.553 340.591 110.241 341.313 110.241 348.268C110.241 355.223 117.236 357.876 117.236 357.876C117.236 357.876 125.222 366.182 125.222 370.515C125.222 374.832 117.236 384.143 117.236 384.143C117.236 384.143 120.899 376.183 113.573 375.837C106.248 375.492 103.921 385.132 106.924 389.465C109.926 393.782 114.91 390.124 114.91 390.124C114.91 390.124 115.491 399.434 117.205 405.087C117.959 407.567 117.598 417.317 116.969 427.459C115.491 423.801 113.416 420.441 110.492 417.851C97.1775 406.076 95.6369 393.83 101.406 386.655C107.175 379.48 102.601 366.731 98.2307 366.794C93.8606 366.857 89.1917 362.618 90.5279 371.724C91.8641 380.83 101.406 380.814 101.406 380.814C101.406 380.814 93.1846 386.922 93.8606 395.823C93.8606 395.823 89.2075 391.773 86.3779 396.436C81.3317 404.741 93.0274 409.891 95.0081 405.809C95.0081 405.809 119.83 423.361 113.841 448.623L115.24 450.68C115.067 452.721 114.941 453.945 114.941 453.945L116.89 453.113L119.107 456.363C118.997 462.674 119.673 467.337 119.673 467.337L125.615 458.592C119.626 433.331 144.448 415.778 144.448 415.778C146.35 419.86 158.045 414.711 152.999 406.405Z" fill="#E0E0E0"/>
<path opacity="0.2" d="M152.999 406.405C150.17 401.758 145.516 405.793 145.516 405.793C146.177 396.875 137.971 390.784 137.971 390.784C137.971 390.784 147.513 390.784 148.849 381.693C150.185 372.603 145.516 376.826 141.146 376.764C136.776 376.701 132.202 389.465 137.971 396.624C143.74 403.799 142.184 416.045 128.885 427.82C125.631 430.693 123.43 434.524 121.936 438.653C122.943 427.836 123.508 412.591 120.317 402.417C114.91 385.132 125.222 380.484 128.209 371.834C131.211 363.183 120.317 355.882 120.317 355.882C120.317 355.882 130.551 351.235 125.552 345.913C120.553 340.591 110.241 341.313 110.241 348.268C110.241 355.223 117.236 357.876 117.236 357.876C117.236 357.876 125.222 366.182 125.222 370.515C125.222 374.832 117.236 384.143 117.236 384.143C117.236 384.143 120.899 376.183 113.573 375.837C106.248 375.492 103.921 385.132 106.924 389.465C109.926 393.782 114.91 390.124 114.91 390.124C114.91 390.124 115.491 399.434 117.205 405.087C117.959 407.567 117.598 417.317 116.969 427.459C115.491 423.801 113.416 420.441 110.492 417.851C97.1775 406.076 95.6369 393.83 101.406 386.655C107.175 379.48 102.601 366.731 98.2307 366.794C93.8606 366.857 89.1917 362.618 90.5279 371.724C91.8641 380.83 101.406 380.814 101.406 380.814C101.406 380.814 93.1846 386.922 93.8606 395.823C93.8606 395.823 89.2075 391.773 86.3779 396.436C81.3317 404.741 93.0274 409.891 95.0081 405.809C95.0081 405.809 119.83 423.361 113.841 448.623L115.24 450.68C115.067 452.721 114.941 453.945 114.941 453.945L116.89 453.113L119.107 456.363C118.997 462.674 119.673 467.337 119.673 467.337L125.615 458.592C119.626 433.331 144.448 415.778 144.448 415.778C146.35 419.86 158.045 414.711 152.999 406.405Z" fill="#E0E0E0"/>
<path d="M148.141 514.172H91.2813L85.1348 451.984H154.271L148.141 514.172Z" fill="#E6E6E6"/>
<path d="M157.306 445.121H82.1016V458.843H157.306V445.121Z" fill="#F0F0F0"/>
<path d="M393.625 585.264C561.959 585.264 698.42 577.307 698.42 567.491C698.42 557.676 561.959 549.719 393.625 549.719C225.291 549.719 88.8301 557.676 88.8301 567.491C88.8301 577.307 225.291 585.264 393.625 585.264Z" fill="#F5F5F5"/>
<path d="M645.852 517.987C646.087 516.386 651.589 478.47 640.57 465.376C638.133 462.472 635.052 460.965 631.421 460.87C609.177 460.352 606.127 478.203 606.096 478.376L608.721 478.784C608.815 478.141 611.456 463.037 631.358 463.524C634.235 463.587 636.593 464.764 638.542 467.088C648.807 479.271 643.289 517.218 643.226 517.595L645.852 517.987Z" fill="#FFC400"/>
<path d="M647.189 516.261L649.845 516.182C649.83 515.837 648.965 481.25 666.021 474.106C682.747 467.104 690.261 481.501 690.576 482.113L692.95 480.92C692.855 480.747 684.036 463.681 664.999 471.657C646.261 479.507 647.142 514.769 647.189 516.261Z" fill="#FFC400"/>
<path d="M647.11 518.977C647.11 518.427 647.267 463.728 657.941 447.73C668.19 432.375 684.728 439.597 685.435 439.911L686.536 437.493C686.347 437.399 667.263 429 655.74 446.254C644.626 462.912 644.453 516.684 644.453 518.977H647.11Z" fill="#FFC400"/>
<path d="M628.23 462.206C628.23 462.206 637.945 465.786 635.052 474.233C632.16 482.679 601.443 496.574 601.443 496.574C601.443 496.574 588.584 484.799 600.39 465.645C612.211 446.475 627.962 456.162 628.23 462.206Z" fill="#FFC400"/>
<path d="M658.429 444.857C658.429 444.857 651.528 444.119 652.094 439.927C652.644 435.736 678.896 424.934 694.396 442.392C694.396 442.392 684.477 459.411 670.14 459.631C655.803 459.851 658.429 444.857 658.429 444.857Z" fill="#FFC400"/>
<path d="M665.517 472.883C665.517 472.883 660.753 469.053 665.894 467.169C671.034 465.3 696.234 465.834 696.501 490.766C696.501 490.766 667.152 495.633 663.52 486.134C659.873 476.651 665.517 472.883 665.517 472.883Z" fill="#FFC400"/>
<path d="M623.01 568.793H668.567L673.471 518.977H618.105L623.01 568.793Z" fill="#FFC400"/>
<path opacity="0.5" d="M623.01 568.793H668.567L673.471 518.977H618.105L623.01 568.793Z" fill="white"/>
<path d="M615.669 524.48H675.908V513.49H615.669V524.48Z" fill="#FFC400"/>
<path opacity="0.2" d="M615.669 524.48H675.908V513.49H615.669V524.48Z" fill="white"/>
<path d="M571.449 533.091L526.16 528.648V465.078H508.208V528.632L462.73 533.091C458.218 533.53 454.775 537.33 454.775 541.851V548.65H515.423H518.756H579.404V541.851C579.404 537.314 575.977 533.53 571.449 533.091Z" fill="#071D49"/>
<path opacity="0.2" d="M571.449 533.091L526.16 528.648V465.078H508.208V528.632L462.73 533.091C458.218 533.53 454.775 537.33 454.775 541.851V548.65H515.423H518.756H579.404V541.851C579.404 537.314 575.977 533.53 571.449 533.091Z" fill="white"/>
<path d="M459.571 568.792C466.056 568.792 471.314 563.541 471.314 557.064C471.314 550.587 466.056 545.336 459.571 545.336C453.086 545.336 447.828 550.587 447.828 557.064C447.828 563.541 453.086 568.792 459.571 568.792Z" fill="#071D49"/>
<path d="M574.626 568.792C581.111 568.792 586.369 563.541 586.369 557.064C586.369 550.587 581.111 545.336 574.626 545.336C568.14 545.336 562.883 550.587 562.883 557.064C562.883 563.541 568.14 568.792 574.626 568.792Z" fill="#071D49"/>
<path d="M522.749 478.736H511.604C508.019 478.736 505.111 475.831 505.111 472.251V422.121H529.241V472.251C529.257 475.831 526.349 478.736 522.749 478.736Z" fill="#071D49"/>
<path opacity="0.3" d="M522.749 478.736H511.604C508.019 478.736 505.111 475.831 505.111 472.251V422.121H529.241V472.251C529.257 475.831 526.349 478.736 522.749 478.736Z" fill="white"/>
<path d="M560.101 322.742C560.101 322.742 563.528 407.523 539.885 422.108H566.86C566.86 422.108 587.768 393.22 581.857 322.742H560.101Z" fill="#071D49"/>
<path opacity="0.3" d="M560.101 322.742C560.101 322.742 563.528 407.523 539.885 422.108H566.86C566.86 422.108 587.768 393.22 581.857 322.742H560.101Z" fill="white"/>
<path d="M462.999 410.254H568.197C572.536 410.254 576.057 413.771 576.057 418.104V428.607H455.139V418.104C455.139 413.771 458.66 410.254 462.999 410.254Z" fill="#071D49"/>
<path d="M453.267 419.422H577.942C579.687 419.422 581.102 420.835 581.102 422.578V425.435C581.102 427.178 579.687 428.591 577.942 428.591H453.267C451.522 428.591 450.107 427.178 450.107 425.435V422.593C450.107 420.835 451.522 419.422 453.267 419.422Z" fill="#071D49"/>
<path opacity="0.6" d="M453.267 419.422H577.942C579.687 419.422 581.102 420.835 581.102 422.578V425.435C581.102 427.178 579.687 428.591 577.942 428.591H453.267C451.522 428.591 450.107 427.178 450.107 425.435V422.593C450.107 420.835 451.522 419.422 453.267 419.422Z" fill="white"/>
<path d="M588.476 339.964H545.262C532.607 339.964 522.342 329.711 522.342 317.073V300.195C522.342 287.557 532.607 277.305 545.262 277.305H588.476C601.13 277.305 611.396 287.557 611.396 300.195V317.073C611.411 329.711 601.146 339.964 588.476 339.964Z" fill="#071D49"/>
<path d="M414.139 208.021L405.509 185.303C405.509 185.303 409.203 181.88 406.672 178.41C404.141 174.941 388.217 165.175 385.309 166.902C382.4 168.613 375.971 175.082 379.445 178.677C382.935 182.273 398.356 188.254 398.356 188.254L405.98 218.069L414.139 208.021Z" fill="#F8A17A"/>
<path d="M474.395 251.211C474.395 251.211 435.142 243.157 430.882 241.226C426.622 239.295 410.823 193.09 410.823 193.09L398.719 198.742C398.719 198.742 408.465 245.12 418.432 256.157C428.398 267.178 470.921 276.52 470.921 276.52L474.395 251.211Z" fill="#FFCF00"/>
<path opacity="0.2" d="M470.921 276.489C470.921 276.489 470.669 276.442 470.198 276.316C468.044 275.829 461.347 274.259 453.377 271.92C440.44 268.168 424.122 262.421 418.432 256.126C408.481 245.089 398.719 198.711 398.719 198.711L410.823 193.059C410.823 193.059 426.622 239.28 430.898 241.195C435.158 243.11 474.395 251.165 474.395 251.165L470.921 276.489Z" fill="black"/>
<path d="M411.028 192.18L413.528 197L397.965 202.353L398.562 196.466L411.028 192.18Z" fill="#FFCF00"/>
<path d="M529.729 219.217C529.729 219.217 532.04 240.93 523.976 246.268C515.927 251.606 476.297 245.357 471.801 236.612C467.305 227.883 484.22 204.16 484.22 204.16L529.729 219.217Z" fill="#263238"/>
<path d="M369.4 504.923L379.744 507.42L384.979 493.164L389.726 480.196L377.952 475.188L373.425 490.919L369.4 504.923Z" fill="#F8A17A"/>
<path opacity="0.2" d="M373.426 490.919L384.98 493.164L389.727 480.196L377.953 475.188L373.426 490.919Z" fill="black"/>
<path d="M374.463 483.398L388.8 488.72C388.8 488.72 427.046 393.217 434.906 392.887C442.766 392.558 522.797 429.296 542.856 408.917C562.914 388.554 533.911 339.46 533.911 339.46C533.911 339.46 485.666 332.583 482.035 343.463C481.327 345.567 480.557 349.696 479.991 353.229C479.441 356.557 479.064 359.352 479.064 359.352C479.064 359.352 479.048 359.352 479.032 359.336C477.539 358.959 429.106 346.478 410.022 359.352C390.639 372.446 374.463 483.398 374.463 483.398Z" fill="#FFCF00"/>
<path opacity="0.6" d="M374.463 483.398L388.8 488.72C388.8 488.72 427.046 393.217 434.906 392.887C442.766 392.558 522.797 429.296 542.856 408.917C562.914 388.554 533.911 339.46 533.911 339.46C533.911 339.46 485.666 332.583 482.035 343.463C481.327 345.567 480.557 349.696 479.991 353.229C479.441 356.557 479.064 359.352 479.064 359.352C479.064 359.352 479.048 359.352 479.032 359.336C477.539 358.959 429.106 346.478 410.022 359.352C390.639 372.446 374.463 483.398 374.463 483.398Z" fill="white"/>
<path d="M456.93 545.667L467.227 543.03L465.246 528.272L463.407 514.738L450.674 515.884L453.975 531.647L456.93 545.667Z" fill="#F8A17A"/>
<path opacity="0.2" d="M454.054 531.976L465.309 528.554L463.438 514.879L450.689 515.947L454.054 531.976Z" fill="black"/>
<path d="M394.725 483.417L373.833 476.336L372.953 484.877L388.783 490.466L394.725 483.417Z" fill="#FFCF00"/>
<path d="M508.208 413.818C508.208 413.818 504.938 413.897 454.336 411.542C454.336 411.542 461.897 474.735 466.031 522.023L450.893 524.598C450.893 524.598 414.737 423.317 415.13 407.224C415.523 391.132 433.994 386.422 433.994 386.422C433.994 386.422 470.04 407.224 508.208 413.818Z" fill="#FFCF00"/>
<path opacity="0.6" d="M508.208 413.818C508.208 413.818 504.938 413.897 454.336 411.542C454.336 411.542 461.897 474.735 466.031 522.023L450.893 524.598C450.893 524.598 414.737 423.317 415.13 407.224C415.523 391.132 433.994 386.422 433.994 386.422C433.994 386.422 470.04 407.224 508.208 413.818Z" fill="white"/>
<path opacity="0.1" d="M508.208 413.818C508.208 413.818 504.938 413.897 454.336 411.542C454.336 411.542 461.897 474.735 466.031 522.023L450.893 524.598C450.893 524.598 414.737 423.317 415.13 407.224C415.523 391.132 433.994 386.422 433.994 386.422C433.994 386.422 470.04 407.224 508.208 413.818Z" fill="black"/>
<path d="M468.233 517.438L447.436 519.793L451.46 527.941L468.296 525.79L468.233 517.438Z" fill="#FFCF00"/>
<path opacity="0.1" d="M479.064 359.353L507.282 365.225C507.282 365.225 491.688 356.622 479.992 353.23C479.442 356.559 479.064 359.353 479.064 359.353Z" fill="black"/>
<path d="M532.748 331.957L533.912 339.462L482.036 343.449L480.652 334.595L532.748 331.957Z" fill="#263238"/>
<path opacity="0.2" d="M532.748 331.957L533.912 339.462L482.036 343.449L480.652 334.595L532.748 331.957Z" fill="black"/>
<path d="M516.361 344.521L518.926 344.258L517.583 331.216L515.018 331.48L516.361 344.521Z" fill="#FFCF00"/>
<path d="M493.395 343.186L504.752 342.457L504.199 333.856L492.841 334.584L493.395 343.186Z" fill="white"/>
<path d="M484.574 345.912L487.139 345.648L485.796 332.608L483.231 332.872L484.574 345.912Z" fill="#FFCF00"/>
<path opacity="0.6" d="M516.361 344.521L518.926 344.258L517.583 331.216L515.018 331.48L516.361 344.521Z" fill="white"/>
<path opacity="0.6" d="M484.574 345.912L487.139 345.648L485.796 332.608L483.231 332.872L484.574 345.912Z" fill="white"/>
<path d="M473.452 250.488C473.452 250.488 486.689 254.633 503.336 253.785C519.984 252.937 539.885 261.007 539.885 261.007L532.732 331.956L480.652 334.578C480.652 334.593 463.156 275.341 473.452 250.488Z" fill="#FFCF00"/>
<path d="M481.83 210.422C481.83 210.422 484.754 175.96 513.6 188.489C549.803 204.204 521.02 246.171 503.335 237.551C485.634 228.932 481.83 210.422 481.83 210.422Z" fill="#263238"/>
<path opacity="0.2" d="M489.91 255.716L490.743 275.184L497.204 266.031C497.204 266.031 494.893 287.572 496.245 299.284C496.245 299.284 497.487 278.262 500.411 266.031L507.281 275.184L517.137 255.842C517.153 255.826 501.181 250.111 489.91 255.716Z" fill="black"/>
<path d="M498.84 259.329L513.758 255.121C504.562 248.81 509.199 234.68 509.199 234.68L494.422 239.861C495.208 242.31 495.711 244.382 496.01 246.172C497.551 255.372 493.385 256.11 493.385 256.11L498.84 259.329Z" fill="#F8A17A"/>
<path opacity="0.2" d="M494.422 239.876C495.208 242.326 495.711 244.398 496.01 246.188C503.084 243.362 509.199 234.695 509.199 234.695L494.422 239.876Z" fill="black"/>
<path d="M504.074 195.727C490.995 192.838 485.225 198.898 481.28 212.149C476.359 228.712 477.444 241.492 494.595 241.508C517.892 241.539 525.799 200.531 504.074 195.727Z" fill="#F8A17A"/>
<path d="M489.894 213.297C489.894 213.297 487.331 216.311 484.879 217.881C484.879 217.881 485.602 219.907 488.007 220.126L489.894 213.297Z" fill="#E4897B"/>
<path d="M498.147 213.986C497.879 215.054 498.241 216.059 498.964 216.231C499.671 216.404 500.473 215.682 500.725 214.614C500.992 213.547 500.63 212.542 499.907 212.369C499.2 212.197 498.414 212.919 498.147 213.986Z" fill="#263238"/>
<path d="M500.19 212.495L498.084 211.02C498.1 211.02 498.776 213.249 500.19 212.495Z" fill="#263238"/>
<path d="M484.91 210.502C484.643 211.57 485.005 212.574 485.728 212.747C486.435 212.92 487.237 212.198 487.488 211.13C487.756 210.062 487.394 209.058 486.671 208.885C485.963 208.712 485.177 209.434 484.91 210.502Z" fill="#263238"/>
<path d="M486.954 209.011L484.848 207.535C484.863 207.535 485.539 209.765 486.954 209.011Z" fill="#263238"/>
<path d="M500.27 204.992C500.27 204.992 504.058 205.322 505.504 208.226" stroke="#263238" stroke-width="0.7247" stroke-miterlimit="10" stroke-linecap="round" stroke-linejoin="round"/>
<path d="M490.885 202.338C490.885 202.338 488.762 200.972 485.43 202.26" stroke="#263238" stroke-width="0.7247" stroke-miterlimit="10" stroke-linecap="round" stroke-linejoin="round"/>
<path d="M513.49 220.909C513.49 220.909 509.749 208.82 512.516 200.734C512.516 200.734 488.936 184.422 481.83 210.421C481.83 210.421 484.471 186.526 507.076 190.969C529.65 195.412 522.309 228.256 508.523 235.479C508.507 235.494 515.785 228.461 513.49 220.909Z" fill="#263238"/>
<path d="M510.739 223.187C511.29 221.099 514.261 218.021 518.081 219.309C522.042 220.643 522.121 229.388 511.604 229.153C510.079 229.137 509.576 227.536 510.739 223.187Z" fill="#F8A17A"/>
<path d="M485.666 225.07C486.122 226.797 486.342 229.922 486.342 229.922C486.625 229.953 486.924 229.985 487.207 230C491.105 230.33 493.039 229.2 493.982 227.834C494.501 227.096 494.705 226.264 494.799 225.589C494.909 224.804 494.799 224.223 494.799 224.223C492.63 225.275 488.952 225.259 487.002 225.149C486.185 225.133 485.666 225.07 485.666 225.07Z" fill="#263238"/>
<path d="M487.002 225.165L487.238 226.593C490.916 226.892 493.557 226.625 494.799 225.604C494.909 224.819 494.799 224.238 494.799 224.238C492.63 225.29 488.967 225.259 487.002 225.165Z" fill="white"/>
<path d="M487.207 230.002C491.106 230.331 493.039 229.201 493.982 227.835C492.646 227.772 491.027 227.851 489.565 228.322C488.465 228.699 487.726 229.342 487.207 230.002Z" fill="#F8A17A"/>
<path d="M504.121 196.764C504.121 196.764 504.624 219.435 518.237 222.151C531.851 224.867 516.964 193.027 516.964 193.027C516.964 193.027 496.685 179.808 483.182 189.118C469.662 198.444 481.814 210.423 481.814 210.423C481.814 210.423 484.675 193.593 504.121 196.764Z" fill="#263238"/>
<path d="M504.594 195.273C504.594 195.273 499.736 209.608 509.325 217.128" stroke="#263238" stroke-width="0.5" stroke-miterlimit="10" stroke-linecap="round" stroke-linejoin="round"/>
<path d="M522.215 226.813C520.486 231.429 516.037 234.019 512.28 232.606C508.523 231.193 506.888 226.326 508.617 221.71C510.346 217.094 514.795 214.504 518.552 215.917C522.309 217.33 523.944 222.213 522.215 226.813Z" fill="#FFCF00"/>
<path opacity="0.4" d="M522.215 226.813C520.486 231.429 516.037 234.019 512.28 232.606C508.523 231.193 506.888 226.326 508.617 221.71C510.346 217.094 514.795 214.504 518.552 215.917C522.309 217.33 523.944 222.213 522.215 226.813Z" fill="black"/>
<path d="M517.876 219.262C517.876 219.262 523.52 194.032 510.865 187.422C510.865 187.422 513.506 187.783 515.141 188.254C516.776 188.725 526.884 198.961 521.775 221.632L517.876 219.262Z" fill="#FFCF00"/>
<path opacity="0.2" d="M517.876 219.262C517.876 219.262 523.52 194.032 510.865 187.422C510.865 187.422 513.506 187.783 515.141 188.254C516.776 188.725 526.884 198.961 521.775 221.632L517.876 219.262Z" fill="black"/>
<path d="M494.156 233.704C493.842 233.657 493.527 233.61 493.213 233.563L493.464 232.008C504.861 233.861 513.335 227.848 513.413 227.785L514.341 229.057C513.995 229.308 505.742 235.227 494.156 233.704Z" fill="#FFCF00"/>
<g opacity="0.2">
<path opacity="0.2" d="M494.156 233.704C493.842 233.657 493.527 233.61 493.213 233.563L493.464 232.008C504.861 233.861 513.335 227.848 513.413 227.785L514.341 229.057C513.995 229.308 505.742 235.227 494.156 233.704Z" fill="black"/>
</g>
<path d="M521.682 226.184C520.534 229.23 517.595 230.942 515.111 230.015C512.627 229.089 511.543 225.855 512.69 222.809C513.838 219.763 516.777 218.052 519.261 218.978C521.745 219.92 522.83 223.139 521.682 226.184Z" fill="#FFCF00"/>
<path d="M492.756 234.208L491.499 234.035C490.556 233.91 489.895 233.062 490.021 232.12C490.147 231.178 490.996 230.519 491.939 230.644L493.197 230.817C494.14 230.943 494.8 231.79 494.674 232.732C494.549 233.674 493.684 234.334 492.756 234.208Z" fill="#FFCF00"/>
<path opacity="0.4" d="M492.756 234.208L491.499 234.035C490.556 233.91 489.895 233.062 490.021 232.12C490.147 231.178 490.996 230.519 491.939 230.644L493.197 230.817C494.14 230.943 494.8 231.79 494.674 232.732C494.549 233.674 493.684 234.334 492.756 234.208Z" fill="black"/>
<path d="M509.748 249.734L500.41 258.887L504.152 270.113L517.152 255.826L509.748 249.734Z" fill="#FFCF00"/>
<path d="M496.245 251.652L497.754 258.702L492.928 268.671L489.91 255.719L496.245 251.652Z" fill="#FFCF00"/>
<path d="M507.752 257.681L513.175 237.852C513.175 237.852 510.55 232.907 511.116 231.886C511.682 230.85 514.512 217.536 516.524 216.092C518.536 214.647 526.805 217.112 527.654 218.462C528.487 219.813 519.731 237.852 519.731 237.852L516.539 259.33L507.752 257.681Z" fill="#F8A17A"/>
<path d="M539.885 261.005C554.803 276.266 524.888 310.837 507.753 309.361C490.618 307.886 508.177 245.211 508.177 245.211L519.15 247.016C519.15 247.016 515.299 274.146 516.509 276.266C517.735 278.385 534.87 255.871 539.885 261.005Z" fill="#FFCF00"/>
<path opacity="0.2" d="M539.885 261.005C554.803 276.266 524.888 310.837 507.753 309.361C490.618 307.886 508.177 245.211 508.177 245.211L519.15 247.016C519.15 247.016 515.299 274.146 516.509 276.266C517.735 278.385 534.87 255.871 539.885 261.005Z" fill="black"/>
<path d="M507.281 243.203L505.662 248.384L520.958 249.734V245.213L507.281 243.203Z" fill="#FFCF00"/>
<path opacity="0.6" d="M484.109 298.357H477.916C477.224 298.357 476.674 297.807 476.674 297.116V285.436C476.674 284.745 477.224 284.195 477.916 284.195H484.109C484.801 284.195 485.351 284.745 485.351 285.436V297.116C485.351 297.807 484.785 298.357 484.109 298.357Z" fill="white"/>
<path opacity="0.2" d="M484.22 285.121H477.178V294.745H484.22V285.121Z" fill="black"/>
<path d="M481.642 280.773H480.086V286.441H481.642V280.773Z" fill="#263238"/>
<path d="M352.298 524.99C353.87 524.268 355.567 523.844 357.281 523.719C357.281 523.719 363.254 520.202 369.165 506.574L375.815 506.543C378.125 506.574 380.153 508.034 380.924 510.201C381.034 510.499 381.097 510.813 381.112 511.127C381.049 512.729 380.876 514.33 380.594 515.916C379.996 520.893 376.711 531.553 376.711 531.553L375.579 531.271L377.622 521.348C378.298 517.973 374.761 521.238 373.111 524.629C371.46 528.021 368.945 531.443 361.588 529.763C353.052 527.754 349.609 526.529 352.298 524.99Z" fill="#FFCF00"/>
<path d="M370.376 502.992C370.376 502.992 362.06 520.357 357.281 523.717C357.281 523.717 363.695 527.532 370.376 519.038C379.006 508.048 381.129 511.109 381.129 511.109C381.129 511.109 380.767 507.341 380.091 505.504C378.786 501.956 370.376 502.992 370.376 502.992Z" fill="#F8A17A"/>
<path d="M443.82 566.36C445.172 565.292 446.712 564.476 448.363 563.942C448.363 563.942 453.33 559.122 455.846 544.474L462.307 542.857C464.555 542.339 466.881 543.265 468.139 545.196C468.312 545.463 468.453 545.746 468.547 546.044C468.862 547.614 469.082 549.215 469.192 550.817C469.789 555.794 469.129 566.925 469.129 566.925L467.966 566.909L467.604 556.783C467.463 553.344 464.79 557.348 464.004 561.038C463.218 564.727 461.583 568.652 454.038 568.762C445.219 568.872 441.572 568.479 443.82 566.36Z" fill="#FFCF00"/>
<path d="M456.16 540.721C456.16 540.721 452.215 559.561 448.363 563.941C448.363 563.941 455.5 566.139 459.965 556.295C465.75 543.562 468.532 546.059 468.532 546.059C468.532 546.059 467.29 542.495 466.19 540.862C464.083 537.706 456.16 540.721 456.16 540.721Z" fill="#F8A17A"/>
<path d="M602.323 200.075H547.429C543.027 200.075 539.459 196.511 539.459 192.115V168.659C539.459 164.263 543.027 160.699 547.429 160.699H602.323C606.725 160.699 610.293 164.263 610.293 168.659V192.115C610.293 196.511 606.725 200.075 602.323 200.075Z" fill="#FFC400"/>
<path d="M558.448 195.586L541.91 218.037L568.587 197.093L558.448 195.586Z" fill="#FFC400"/>
<path d="M559.061 180.386C559.061 181.658 558.024 182.71 556.735 182.71C555.461 182.71 554.408 181.674 554.408 180.386C554.408 179.114 555.446 178.062 556.735 178.062C558.024 178.078 559.061 179.114 559.061 180.386Z" fill="white"/>
<path d="M571.149 180.386C571.149 181.658 570.112 182.71 568.823 182.71C567.534 182.71 566.496 181.674 566.496 180.386C566.496 179.114 567.534 178.062 568.823 178.062C570.112 178.062 571.149 179.114 571.149 180.386Z" fill="white"/>
<path d="M583.239 180.386C583.239 181.658 582.202 182.71 580.913 182.71C579.639 182.71 578.586 181.674 578.586 180.386C578.586 179.114 579.623 178.062 580.913 178.062C582.202 178.078 583.239 179.114 583.239 180.386Z" fill="white"/>
<path d="M595.327 180.386C595.327 181.658 594.289 182.71 593 182.71C591.727 182.71 590.674 181.674 590.674 180.386C590.674 179.114 591.711 178.062 593 178.062C594.289 178.078 595.327 179.114 595.327 180.386Z" fill="white"/>
<path d="M381.724 169.116L342.582 148.062C341.528 147.497 341.12 146.178 341.701 145.111L354.183 121.969C354.749 120.917 356.069 120.509 357.138 121.09L396.281 142.143C397.334 142.709 397.743 144.027 397.161 145.095L384.68 168.237C384.098 169.289 382.778 169.681 381.724 169.116Z" fill="#FFC400"/>
<path opacity="0.7" d="M381.724 169.116L342.582 148.062C341.528 147.497 341.12 146.178 341.701 145.111L354.183 121.969C354.749 120.917 356.069 120.509 357.138 121.09L396.281 142.143C397.334 142.709 397.743 144.027 397.161 145.095L384.68 168.237C384.098 169.289 382.778 169.681 381.724 169.116Z" fill="white"/>
<path opacity="0.2" d="M353.145 123.883L365.39 146.726C366.349 148.501 368.283 149.537 370.279 149.333L395.761 146.821L369.808 150.636C367.481 150.981 365.202 149.757 364.211 147.621L353.145 123.883Z" fill="black"/>
<path d="M323.419 119.631C323.828 110.902 330.304 93.3017 338.18 87.9166C346.056 82.5315 340.868 89.989 340.868 89.989C340.868 89.989 348.335 82.7356 352.265 82.9554C356.211 83.1595 352.265 87.7125 352.265 87.7125C352.265 87.7125 360.345 82.7356 364.087 82.9397C367.812 83.1438 364.087 87.4927 364.087 87.4927C364.087 87.4927 370.721 82.7356 373.409 85.0121C376.097 87.2886 338.998 111.718 334.848 121.656C330.729 131.594 322.995 128.47 323.419 119.631Z" fill="#FFC400"/>
<path opacity="0.4" d="M323.419 119.631C323.828 110.902 330.304 93.3017 338.18 87.9166C346.056 82.5315 340.868 89.989 340.868 89.989C340.868 89.989 348.335 82.7356 352.265 82.9554C356.211 83.1595 352.265 87.7125 352.265 87.7125C352.265 87.7125 360.345 82.7356 364.087 82.9397C367.812 83.1438 364.087 87.4927 364.087 87.4927C364.087 87.4927 370.721 82.7356 373.409 85.0121C376.097 87.2886 338.998 111.718 334.848 121.656C330.729 131.594 322.995 128.47 323.419 119.631Z" fill="white"/>
<path d="M355.299 118.344L360.25 121.515C360.612 121.751 360.423 122.3 359.999 122.269L354.796 121.861L355.236 125.848C355.283 126.288 354.748 126.523 354.45 126.194L351.447 122.803L355.299 118.344Z" fill="#FFC400"/>
<path opacity="0.3" d="M355.299 118.344L360.25 121.515C360.612 121.751 360.423 122.3 359.999 122.269L354.796 121.861L355.236 125.848C355.283 126.288 354.748 126.523 354.45 126.194L351.447 122.803L355.299 118.344Z" fill="white"/>
<path d="M285.738 98.6859C285.738 98.6859 292.577 93.9288 302.952 97.0217C302.952 97.0217 305.938 110.681 314.081 115.234C318.562 117.73 329.519 117.526 338.196 114.716C348.493 111.387 353.539 111.387 355.409 115.234C357.17 118.876 355.205 123.099 347.329 124.968C339.454 126.836 333.228 140.495 318.923 140.699C304.618 140.903 297.088 126.585 300.688 113.993C300.672 113.993 296.318 104.605 285.738 98.6859Z" fill="#FFC400"/>
<path opacity="0.5" d="M285.738 98.6859C285.738 98.6859 292.577 93.9288 302.952 97.0217C302.952 97.0217 305.938 110.681 314.081 115.234C318.562 117.73 329.519 117.526 338.196 114.716C348.493 111.387 353.539 111.387 355.409 115.234C357.17 118.876 355.205 123.099 347.329 124.968C339.454 126.836 333.228 140.495 318.923 140.699C304.618 140.903 297.088 126.585 300.688 113.993C300.672 113.993 296.318 104.605 285.738 98.6859Z" fill="white"/>
<path d="M351.464 117.824C351.464 118.216 351.149 118.515 350.772 118.515C350.379 118.515 350.064 118.2 350.064 117.824C350.064 117.431 350.379 117.117 350.772 117.117C351.149 117.133 351.464 117.447 351.464 117.824Z" fill="#263238"/>
<path d="M315.591 129.334C307.149 131.642 288.379 130.92 280.818 125.095C273.257 119.27 281.966 121.892 281.966 121.892C281.966 121.892 272.754 117.041 271.748 113.242C270.726 109.442 276.275 111.766 276.275 111.766C276.275 111.766 269.044 105.627 268.085 102.016C267.142 98.405 272.424 100.603 272.424 100.603C272.424 100.603 265.837 95.7674 267.173 92.5017C268.509 89.2361 303.235 116.947 313.972 117.826C324.74 118.689 324.142 126.995 315.591 129.334Z" fill="#FFC400"/>
<path opacity="0.4" d="M315.591 129.334C307.149 131.642 288.379 130.92 280.818 125.095C273.257 119.27 281.966 121.892 281.966 121.892C281.966 121.892 272.754 117.041 271.748 113.242C270.726 109.442 276.275 111.766 276.275 111.766C276.275 111.766 269.044 105.627 268.085 102.016C267.142 98.405 272.424 100.603 272.424 100.603C272.424 100.603 265.837 95.7674 267.173 92.5017C268.509 89.2361 303.235 116.947 313.972 117.826C324.74 118.689 324.142 126.995 315.591 129.334Z" fill="white"/>
<path d="M260.256 90.5539C258.778 90.0358 257.285 89.5334 255.775 89.0781" stroke="#FFC400" stroke-width="0.75" stroke-linecap="round" stroke-linejoin="round"/>
<path d="M246.594 86.7401C241.092 85.594 235.48 84.8404 229.916 84.4479C214.636 83.3803 190.663 81.8731 181.309 97.0864C172.773 110.95 187.456 134.594 192.659 147.468C199.041 163.231 206.634 182.715 199.089 199.404C183.589 233.693 117.266 215.889 94.8965 184.3" stroke="#FFC400" stroke-width="0.75" stroke-linecap="round" stroke-linejoin="round" stroke-dasharray="6.03 6.03"/>
<path d="M92.3662 180.329C91.5802 178.947 90.8728 177.534 90.2754 176.105" stroke="#FFC400" stroke-width="0.75" stroke-linecap="round" stroke-linejoin="round"/>
<path d="M283.286 304.984H223.613V317.199H283.286V304.984Z" fill="white"/>
<path opacity="0.1" d="M283.286 304.984H223.613V317.199H283.286V304.984Z" fill="#071D49"/>
<path opacity="0.1" d="M248.75 304.984H223.613V317.199H248.75V304.984Z" fill="#071D49"/>
<path opacity="0.1" d="M223.613 306.742H276.731L223.613 308.249V306.742Z" fill="#071D49"/>
<path opacity="0.1" d="M283.286 308.863L237.242 310.009H283.286V308.863Z" fill="#071D49"/>
<path opacity="0.1" d="M226.049 312.286L248.749 311.344L282.122 312.286L248.749 312.804L226.049 312.286Z" fill="#071D49"/>
<path opacity="0.1" d="M223.613 314.875H262.945L223.613 315.801V314.875Z" fill="#071D49"/>
<path opacity="0.1" d="M283.192 315.801L256.939 316.287H283.286L283.192 315.801Z" fill="#071D49"/>
<path d="M274.986 292.754H215.312V304.969H274.986V292.754Z" fill="white"/>
<path opacity="0.1" d="M274.986 292.754H215.312V304.969H274.986V292.754Z" fill="#071D49"/>
<path opacity="0.1" d="M240.449 292.754H215.312V304.969H240.449V292.754Z" fill="#071D49"/>
<path opacity="0.1" d="M215.312 294.527H268.43L215.312 296.019V294.527Z" fill="#071D49"/>
<path opacity="0.1" d="M274.985 296.648L228.941 297.779H274.985V296.648Z" fill="#071D49"/>
<path opacity="0.1" d="M217.732 300.055L240.432 299.129L273.806 300.055L240.432 300.573L217.732 300.055Z" fill="#071D49"/>
<path opacity="0.1" d="M215.312 302.645H254.644L215.312 303.571V302.645Z" fill="#071D49"/>
<path opacity="0.1" d="M274.891 303.57L248.623 304.057H274.986L274.891 303.57Z" fill="#071D49"/>
<path d="M281.792 280.539H222.119V292.754H281.792V280.539Z" fill="white"/>
<path opacity="0.1" d="M281.792 280.539H222.119V292.754H281.792V280.539Z" fill="#071D49"/>
<path opacity="0.1" d="M247.255 280.539H222.119V292.754H247.255V280.539Z" fill="#071D49"/>
<path opacity="0.1" d="M222.119 282.297H275.237L222.119 283.804V282.297Z" fill="#071D49"/>
<path opacity="0.1" d="M281.792 284.418L235.748 285.564H281.792V284.418Z" fill="#071D49"/>
<path opacity="0.1" d="M224.555 287.84L247.254 286.898L280.628 287.84L247.254 288.359L224.555 287.84Z" fill="#071D49"/>
<path opacity="0.1" d="M222.119 290.43H261.451L222.119 291.356V290.43Z" fill="#071D49"/>
<path opacity="0.1" d="M281.713 291.355L255.445 291.842H281.792L281.713 291.355Z" fill="#071D49"/>
<path d="M321.549 316.95L323.089 311.094H386.834L416.199 314.03L417.315 316.95H321.549Z" fill="#071D49"/>
<path opacity="0.4" d="M386.834 311.094V316.95H321.549L323.089 311.094H386.834Z" fill="#071D49"/>
<path d="M374.038 283.068C374.321 286.16 372.058 288.672 368.977 288.672H271.324C268.227 288.672 265.492 286.16 265.209 283.068L259.408 220.628C259.345 219.985 259.392 219.372 259.534 218.807C260.084 216.609 262.018 215.023 264.47 215.023H362.123C365.22 215.023 367.955 217.535 368.238 220.628L374.038 283.068Z" fill="#071D49"/>
<path opacity="0.4" d="M368.631 288.674H271.324C268.227 288.674 265.492 286.162 265.209 283.069L259.408 220.63C259.345 219.986 259.392 219.374 259.534 218.809H356.841C359.922 218.809 362.657 221.321 362.956 224.414L368.757 286.853C368.819 287.496 368.772 288.109 368.631 288.674Z" fill="#071D49"/>
<path d="M301.538 250.363H321.738L316.362 308.14L348.305 312.928V316.947H281.023V312.928L294.81 308.14L301.538 250.363Z" fill="#071D49"/>
<path opacity="0.1" d="M321.737 250.363L306.772 316.037L294.809 315.676L301.537 250.363H321.737Z" fill="white"/>
<path d="M321.643 568.795H312.023L294.715 328.191H307.495L321.643 568.795Z" fill="#071D49"/>
<path opacity="0.4" d="M321.659 568.793H312.023L295.564 340.137L294.715 328.582H307.495L308.187 340.137L321.659 568.793Z" fill="white"/>
<path opacity="0.2" d="M308.187 339.572H295.564L294.715 328.582H307.495L308.187 339.572Z" fill="#071D49"/>
<path d="M392.32 568.795H382.699L381.127 328.191H393.892L392.32 568.795Z" fill="#071D49"/>
<path opacity="0.5" d="M393.907 328.582L393.656 367.393L392.335 568.793H382.699L381.378 367.393L381.127 328.582H393.907Z" fill="white"/>
<path opacity="0.2" d="M393.907 328.582L393.656 367.832H381.378L381.127 328.582H393.907Z" fill="#071D49"/>
<path d="M494.563 568.795H484.943L467.635 328.191H480.415L494.563 568.795Z" fill="#071D49"/>
<path opacity="0.5" d="M494.579 568.793H484.943L468.484 340.137L467.635 328.582H480.415L481.107 340.137L494.579 568.793Z" fill="white"/>
<path opacity="0.2" d="M481.107 339.572H468.484L467.635 328.582H480.415L481.107 339.572Z" fill="#071D49"/>
<path d="M211.478 568.795H201.857L216.005 328.191H228.786L211.478 568.795Z" fill="#071D49"/>
<path opacity="0.5" d="M228.786 328.582L227.937 340.137L211.478 568.793H201.857L215.314 340.137L216.005 328.582H228.786Z" fill="white"/>
<path opacity="0.2" d="M216.006 328.582H228.786L227.938 339.572H215.314L216.006 328.582Z" fill="#071D49"/>
<path d="M487.143 334.218H209.276C207.406 334.218 205.881 332.695 205.881 330.826V322.176H490.539V330.826C490.539 332.695 489.014 334.218 487.143 334.218Z" fill="#071D49"/>
<path opacity="0.6" d="M487.143 334.218H209.276C207.406 334.218 205.881 332.695 205.881 330.826V322.176H490.539V330.826C490.539 332.695 489.014 334.218 487.143 334.218Z" fill="white"/>
<path opacity="0.2" d="M490.539 322.16H205.881V328.189H490.539V322.16Z" fill="#071D49"/>
<path d="M496.512 323.747H199.907C198.037 323.747 196.512 322.224 196.512 320.356C196.512 318.488 198.037 316.965 199.907 316.965H496.512C498.383 316.965 499.908 318.488 499.908 320.356C499.908 322.224 498.383 323.747 496.512 323.747Z" fill="#071D49"/>
<path opacity="0.6" d="M496.512 323.747H199.907C198.037 323.747 196.512 322.224 196.512 320.356C196.512 318.488 198.037 316.965 199.907 316.965H496.512C498.383 316.965 499.908 318.488 499.908 320.356C499.908 322.224 498.383 323.747 496.512 323.747Z" fill="white"/>
<path d="M426.338 306.491L429.985 301.028C430.708 299.945 431.934 299.285 433.255 299.285H437.876C438.269 299.285 438.647 299.348 439.008 299.458L455.498 304.45C456.442 304.733 457.228 305.361 457.731 306.193L460.089 310.165L426.338 306.491Z" fill="#071D49"/>
<path opacity="0.2" d="M460.104 310.165L436.1 307.559L426.338 306.491L429.985 301.028C430.708 299.945 431.934 299.285 433.255 299.285H437.876C438.269 299.285 438.647 299.348 439.024 299.458L439.385 299.568L455.498 304.45C456.442 304.733 457.243 305.345 457.746 306.193L460.104 310.165Z" fill="#071D49"/>
<path opacity="0.2" d="M460.104 310.164L436.1 307.558L439.385 299.566L455.498 304.449C456.441 304.732 457.243 305.344 457.746 306.192L460.104 310.164Z" fill="#071D49"/>
<path d="M471.517 316.43V316.948H450.594H420.553L422.439 309.585C423.178 306.822 425.693 304.891 428.554 304.891H451.16C451.914 304.891 452.653 305.016 453.36 305.283L456.19 306.335L467.414 310.511C469.882 311.438 471.517 313.793 471.517 316.43Z" fill="#071D49"/>
<path opacity="0.2" d="M471.517 316.43V316.948H450.594L451.71 308.988C452.009 306.884 454.194 305.597 456.19 306.335L467.414 310.511C469.882 311.437 471.517 313.792 471.517 316.43Z" fill="#071D49"/>
<path d="M453.848 311.531L460.497 291.576C460.78 290.713 461.771 290.32 462.588 290.728C463.201 291.042 463.515 291.749 463.343 292.424L457.73 313.729C457.73 313.729 454.005 315.236 453.848 311.531Z" fill="#071D49"/>
<path opacity="0.2" d="M426.338 315.299H423.383L423.949 312.395H426.904L426.338 315.299Z" fill="#071D49"/>
<path opacity="0.2" d="M430.739 315.174H427.783L428.349 312.285H431.304L430.739 315.174Z" fill="#071D49"/>
</g>
<defs>
<clipPath id="clip0_1001_62807">
<rect width="786" height="585" fill="white" transform="translate(0.625 0.261719)"/>
</clipPath>
</defs>
</svg>
