<svg width="56" height="56" viewBox="0 0 56 56" fill="none" xmlns="http://www.w3.org/2000/svg">
<path fill-rule="evenodd" clip-rule="evenodd" d="M33.575 24.7305L37.3081 26.8485L26.1126 33.1991L22.3796 31.081C26.1089 28.9666 29.842 26.8485 33.575 24.7305ZM14.9097 26.8485L29.842 18.3762C27.352 16.9666 24.8658 15.5533 22.3758 14.1401L26.1089 12.022L44.7743 22.6087L41.0412 24.7268L33.575 20.4943L18.6465 28.9666L14.9097 26.8485ZM22.3758 18.3762L11.1803 24.7305L7.44727 22.6124L18.6465 16.2618L22.3758 18.3762ZM7.44727 31.1032L26.1126 41.6899L44.778 31.1032L41.0374 28.9814L26.1126 37.4463L11.1879 28.9814L7.44727 31.1032Z" fill="#FFC600"/>
<path fill-rule="evenodd" clip-rule="evenodd" d="M28 0C43.4654 0 56 12.5375 56 28.0019C56 43.4662 43.4616 56 28 56C12.5384 56 0 43.4625 0 28.0019C0 12.5375 12.5384 0 28 0Z" fill="#FFC600"/>
<path fill-rule="evenodd" clip-rule="evenodd" d="M35.1889 26.2472L38.7867 28.2878L27.9931 34.4096L24.3952 32.369C27.9894 30.3284 31.591 28.2878 35.1889 26.2472ZM17.1957 28.2878L31.591 20.1218C29.1912 18.7601 26.7913 17.4022 24.3952 16.0406L27.9931 14L45.9862 24.2066L42.3884 26.2472L35.1889 22.1624L20.7936 30.3284L17.1957 28.2878ZM24.3915 20.1218L13.5979 26.2472L10 24.2066L20.7936 18.0849L24.3915 20.1218ZM10 32.3911L27.9931 42.5978L45.9862 32.3911L42.3771 30.3432L27.9931 38.5018L13.6091 30.3432L10 32.3911Z" fill="#071D49"/>
</svg>
