<svg width="287" height="55" viewBox="0 0 287 55" fill="none" xmlns="http://www.w3.org/2000/svg">
<g clip-path="url(#clip0_1014_95038)">
<path fill-rule="evenodd" clip-rule="evenodd" d="M34.1691 23.7309L37.9684 25.849L26.5744 32.1996L22.7752 30.0815C26.5706 27.9671 30.3699 25.849 34.1691 23.7309ZM15.1728 25.849L30.3699 17.3767C27.8358 15.9671 25.3055 14.5538 22.7714 13.1405L26.5706 11.0225L45.5669 21.6092L41.7677 23.7273L34.1691 19.4948L18.9759 27.9671L15.1728 25.849ZM22.7714 17.3767L11.3774 23.7309L7.57812 21.6129L18.9759 15.2623L22.7714 17.3767ZM7.57812 30.1036L26.5744 40.6904L45.5708 30.1036L41.7639 27.9819L26.5744 36.4468L11.385 27.9819L7.57812 30.1036Z" fill="#8C8C8C"/>
<path d="M81.2652 7.90447C81.2652 8.2255 81.2499 8.50226 81.2231 8.72735C81.1925 8.95613 81.1505 9.13694 81.0932 9.27716C81.0358 9.41738 80.9632 9.51702 80.8791 9.58344C80.7912 9.64986 80.6995 9.68307 80.5925 9.68307H75.0044V27.0484C75.0044 27.1591 74.9662 27.2587 74.8936 27.3473C74.8171 27.4358 74.6948 27.5096 74.5228 27.565C74.3508 27.6203 74.1177 27.6646 73.8233 27.6978C73.529 27.731 73.1659 27.7495 72.7264 27.7495C72.2906 27.7495 71.9237 27.7347 71.6332 27.6978C71.3389 27.6646 71.1058 27.6203 70.9338 27.565C70.7618 27.5096 70.6395 27.4358 70.563 27.3473C70.4866 27.2587 70.4522 27.1591 70.4522 27.0484V9.68307H64.8641C64.7495 9.68307 64.6501 9.64986 64.5698 9.58344C64.4895 9.51702 64.4207 9.41369 64.3634 9.27716C64.3061 9.13694 64.264 8.95613 64.2335 8.72735C64.2029 8.49857 64.1914 8.2255 64.1914 7.90447C64.1914 7.57237 64.2067 7.28823 64.2335 7.05576C64.2602 6.82329 64.3061 6.63879 64.3634 6.49857C64.4207 6.35834 64.4895 6.25871 64.5698 6.19967C64.6501 6.13694 64.7495 6.10742 64.8641 6.10742H80.5925C80.6957 6.10742 80.7912 6.13694 80.8791 6.19967C80.967 6.2624 81.0358 6.36203 81.0932 6.49857C81.1505 6.63879 81.1925 6.82329 81.2231 7.05576C81.2537 7.28823 81.2652 7.57237 81.2652 7.90447Z" fill="white"/>
<path d="M98.4005 25.9347C98.4005 26.2558 98.3852 26.5252 98.3585 26.7429C98.3279 26.9606 98.2858 27.134 98.2285 27.2669C98.1712 27.3997 98.0986 27.4956 98.0145 27.5584C97.9266 27.6211 97.8348 27.6506 97.7278 27.6506H86.5173C86.1389 27.6506 85.8178 27.5436 85.5617 27.3259C85.3056 27.1082 85.1719 26.7576 85.1719 26.2705V7.48826C85.1719 7.00117 85.3018 6.64693 85.5617 6.42922C85.8216 6.2115 86.1389 6.10449 86.5173 6.10449H97.659C97.7622 6.10449 97.8539 6.13401 97.9342 6.18936C98.0145 6.24471 98.0833 6.34065 98.1406 6.48088C98.1979 6.6211 98.24 6.79822 98.2706 7.01224C98.2973 7.22995 98.3126 7.50302 98.3126 7.83512C98.3126 8.14508 98.2973 8.41077 98.2706 8.62479C98.24 8.8425 98.1979 9.01593 98.1406 9.14877C98.0833 9.28161 98.0145 9.38124 97.9342 9.44029C97.8539 9.50302 97.7622 9.53254 97.659 9.53254H89.6935V14.7982H96.4359C96.5391 14.7982 96.6347 14.8277 96.7226 14.8905C96.8105 14.9532 96.8793 15.0455 96.9366 15.1746C96.9939 15.3038 97.036 15.4735 97.0666 15.6912C97.0933 15.9089 97.1086 16.1709 97.1086 16.4809C97.1086 16.8019 97.0933 17.0676 97.0666 17.2816C97.036 17.4919 96.9939 17.6617 96.9366 17.7908C96.8793 17.92 96.8067 18.0086 96.7226 18.0639C96.6347 18.1193 96.5429 18.1488 96.4359 18.1488H89.6935V24.2263H97.7278C97.831 24.2263 97.9266 24.2558 98.0145 24.3185C98.1024 24.3812 98.1712 24.4772 98.2285 24.61C98.2858 24.7429 98.3279 24.9163 98.3585 25.134C98.3852 25.3443 98.4005 25.6137 98.4005 25.9347Z" fill="white"/>
<path d="M118.594 24.3839C118.594 24.6607 118.587 24.8968 118.567 25.0924C118.552 25.288 118.525 25.454 118.491 25.5906C118.457 25.7308 118.411 25.8489 118.353 25.9485C118.296 26.0481 118.204 26.1625 118.078 26.288C117.952 26.4171 117.707 26.5795 117.344 26.7788C116.981 26.978 116.538 27.1699 116.018 27.3544C115.494 27.5389 114.898 27.6902 114.225 27.812C113.553 27.9337 112.826 27.9965 112.043 27.9965C110.514 27.9965 109.134 27.7677 107.903 27.3138C106.673 26.8599 105.625 26.1773 104.765 25.2732C103.902 24.3692 103.24 23.24 102.782 21.8858C102.323 20.5315 102.094 18.9559 102.094 17.1588C102.094 15.3286 102.346 13.7013 102.854 12.2806C103.359 10.8599 104.066 9.66806 104.976 8.70127C105.885 7.73448 106.975 7.00385 108.244 6.50201C109.513 6.00385 110.915 5.75293 112.444 5.75293C113.063 5.75293 113.664 5.80459 114.237 5.90422C114.81 6.00385 115.341 6.133 115.831 6.29536C116.32 6.45773 116.76 6.64223 117.149 6.85256C117.539 7.06289 117.814 7.2437 117.967 7.395C118.124 7.54629 118.227 7.66806 118.285 7.77138C118.342 7.87101 118.388 8.00016 118.422 8.15514C118.457 8.31013 118.483 8.49463 118.499 8.70496C118.514 8.91529 118.525 9.17728 118.525 9.48725C118.525 9.81935 118.514 10.1035 118.491 10.336C118.468 10.5684 118.426 10.7566 118.369 10.9005C118.311 11.0444 118.243 11.1515 118.162 11.2179C118.082 11.2843 117.99 11.3175 117.887 11.3175C117.715 11.3175 117.497 11.2216 117.233 11.026C116.97 10.8304 116.626 10.6164 116.209 10.3765C115.789 10.1367 115.288 9.92267 114.711 9.7271C114.13 9.53153 113.438 9.43559 112.632 9.43559C111.745 9.43559 110.957 9.60902 110.262 9.95957C109.566 10.3101 108.974 10.8083 108.484 11.4577C107.995 12.1072 107.624 12.8932 107.372 13.812C107.12 14.7345 106.994 15.7714 106.994 16.9264C106.994 18.192 107.128 19.288 107.399 20.2142C107.67 21.1404 108.053 21.9042 108.553 22.502C109.054 23.0998 109.658 23.5463 110.365 23.8415C111.072 24.1367 111.867 24.2843 112.754 24.2843C113.56 24.2843 114.252 24.192 114.841 24.0112C115.426 23.8267 115.93 23.6275 116.351 23.4024C116.771 23.181 117.115 22.9817 117.386 22.8046C117.658 22.6275 117.864 22.5389 118.017 22.5389C118.132 22.5389 118.223 22.561 118.292 22.6053C118.361 22.6496 118.418 22.7382 118.464 22.871C118.51 23.0039 118.545 23.192 118.567 23.4282C118.583 23.6681 118.594 23.9854 118.594 24.3839Z" fill="white"/>
<path d="M140.539 27.0482C140.539 27.1589 140.501 27.2585 140.428 27.3471C140.352 27.4356 140.229 27.5094 140.057 27.5648C139.885 27.6201 139.656 27.6644 139.369 27.6976C139.083 27.7308 138.72 27.7493 138.284 27.7493C137.837 27.7493 137.466 27.7345 137.172 27.6976C136.877 27.6644 136.648 27.6201 136.484 27.5648C136.315 27.5094 136.197 27.4356 136.12 27.3471C136.044 27.2585 136.01 27.1589 136.01 27.0482V18.3397H127.658V27.0482C127.658 27.1589 127.624 27.2585 127.555 27.3471C127.486 27.4356 127.364 27.5094 127.192 27.5648C127.02 27.6201 126.79 27.6644 126.504 27.6976C126.217 27.7308 125.85 27.7493 125.399 27.7493C124.963 27.7493 124.597 27.7345 124.306 27.6976C124.012 27.6644 123.779 27.6201 123.607 27.5648C123.435 27.5094 123.308 27.4356 123.236 27.3471C123.159 27.2585 123.125 27.1589 123.125 27.0482V6.70501C123.125 6.59431 123.163 6.49468 123.236 6.40612C123.308 6.31756 123.435 6.24376 123.607 6.18841C123.779 6.13306 124.012 6.08878 124.306 6.05557C124.6 6.02236 124.963 6.00391 125.399 6.00391C125.846 6.00391 126.217 6.01867 126.504 6.05557C126.79 6.09247 127.02 6.13306 127.192 6.18841C127.364 6.24376 127.486 6.31756 127.555 6.40612C127.624 6.49468 127.658 6.59431 127.658 6.70501V14.6128H136.006V6.70501C136.006 6.59431 136.044 6.49468 136.117 6.40612C136.189 6.31756 136.312 6.24376 136.48 6.18841C136.648 6.13306 136.877 6.08878 137.168 6.05557C137.462 6.02236 137.833 6.00391 138.28 6.00391C138.716 6.00391 139.079 6.01867 139.366 6.05557C139.652 6.09247 139.882 6.13306 140.054 6.18841C140.226 6.24376 140.348 6.31756 140.424 6.40612C140.501 6.49468 140.535 6.59431 140.535 6.70501V27.0482H140.539Z" fill="white"/>
<path d="M165.076 26.1185C165.076 26.3731 165.03 26.6019 164.938 26.8012C164.847 27.0004 164.724 27.1665 164.568 27.2993C164.411 27.4322 164.227 27.5281 164.017 27.5908C163.803 27.6499 163.589 27.6831 163.371 27.6831H161.441C161.04 27.6831 160.692 27.6462 160.398 27.565C160.103 27.4875 159.836 27.3473 159.587 27.1407C159.339 26.934 159.102 26.6573 158.872 26.3067C158.643 25.9561 158.383 25.506 158.097 24.9488L152.543 14.875C152.222 14.2772 151.893 13.6277 151.561 12.934C151.228 12.2403 150.926 11.565 150.662 10.9119H150.628C150.674 11.7126 150.708 12.506 150.731 13.2993C150.754 14.0927 150.766 14.9119 150.766 15.7532V27.0226C150.766 27.1333 150.735 27.2329 150.67 27.3215C150.605 27.41 150.498 27.4838 150.341 27.5466C150.185 27.6093 149.974 27.6536 149.711 27.6868C149.447 27.72 149.107 27.7384 148.694 27.7384C148.293 27.7384 147.96 27.7237 147.692 27.6868C147.429 27.6536 147.222 27.6056 147.073 27.5466C146.924 27.4838 146.821 27.41 146.764 27.3215C146.706 27.2329 146.676 27.1333 146.676 27.0226V7.67201C146.676 7.15172 146.832 6.76057 147.15 6.49858C147.467 6.23659 147.853 6.10744 148.312 6.10744H150.743C151.178 6.10744 151.549 6.14434 151.847 6.21445C152.145 6.28825 152.413 6.40633 152.65 6.57238C152.887 6.73843 153.109 6.9709 153.315 7.26242C153.521 7.55762 153.735 7.91924 153.953 8.35467L158.299 16.2292C158.551 16.7052 158.8 17.1739 159.048 17.6351C159.297 18.0964 159.534 18.5576 159.763 19.0152C159.992 19.4764 160.218 19.9266 160.436 20.3731C160.654 20.8159 160.868 21.2624 161.074 21.7052H161.089C161.055 20.9303 161.028 20.1185 161.013 19.2735C160.998 18.4285 160.986 17.624 160.986 16.8602V6.75319C160.986 6.64249 161.021 6.54286 161.089 6.4543C161.158 6.36574 161.273 6.28825 161.433 6.22183C161.594 6.15541 161.808 6.10744 162.072 6.08161C162.335 6.05578 162.676 6.04102 163.088 6.04102C163.478 6.04102 163.807 6.05578 164.071 6.08161C164.334 6.11113 164.537 6.15541 164.682 6.22183C164.827 6.28825 164.927 6.36574 164.984 6.4543C165.042 6.54286 165.072 6.64249 165.072 6.75319V26.1185H165.076Z" fill="white"/>
<path d="M191.278 16.6277C191.278 18.4137 191.048 20.0115 190.59 21.421C190.131 22.8306 189.447 24.0262 188.537 25.0078C187.627 25.9893 186.504 26.7384 185.166 27.255C183.828 27.7716 182.276 28.0299 180.518 28.0299C178.783 28.0299 177.265 27.8122 175.974 27.3731C174.682 26.934 173.604 26.2661 172.74 25.3657C171.876 24.4653 171.23 23.3251 170.798 21.9377C170.366 20.5502 170.152 18.9081 170.152 17.0115C170.152 15.2698 170.382 13.7015 170.84 12.3067C171.299 10.9155 171.983 9.72732 172.893 8.75315C173.803 7.77529 174.922 7.02622 176.264 6.50592C177.602 5.98563 179.157 5.72363 180.927 5.72363C182.617 5.72363 184.107 5.94135 185.403 6.37308C186.695 6.80481 187.777 7.47271 188.644 8.36939C189.512 9.26976 190.169 10.4026 190.609 11.7753C191.056 13.1443 191.278 14.7642 191.278 16.6277ZM186.519 16.8602C186.519 15.7273 186.427 14.6978 186.244 13.7716C186.06 12.8454 185.747 12.052 185.304 11.3915C184.86 10.731 184.272 10.2218 183.534 9.86016C182.796 9.49854 181.879 9.31773 180.774 9.31773C179.658 9.31773 178.729 9.52068 177.98 9.92658C177.231 10.3325 176.627 10.8712 176.168 11.5502C175.706 12.2255 175.385 13.0188 175.194 13.9229C175.003 14.827 174.911 15.7864 174.911 16.7937C174.911 17.9709 175.003 19.0262 175.186 19.9635C175.37 20.9008 175.679 21.7015 176.119 22.3694C176.558 23.0373 177.143 23.5428 177.877 23.8934C178.615 24.2439 179.54 24.4174 180.656 24.4174C181.772 24.4174 182.701 24.2181 183.45 23.8196C184.199 23.421 184.799 22.8749 185.262 22.1886C185.72 21.5022 186.045 20.6978 186.236 19.7827C186.427 18.8675 186.519 17.8934 186.519 16.8602Z" fill="white"/>
<path d="M208.625 25.8157C208.625 26.1478 208.61 26.4283 208.583 26.657C208.552 26.8858 208.51 27.074 208.453 27.2216C208.396 27.3729 208.323 27.4799 208.239 27.5463C208.151 27.6128 208.052 27.646 207.937 27.646H197.713C197.334 27.646 197.013 27.539 196.757 27.3212C196.497 27.1035 196.367 26.753 196.367 26.2659V6.70501C196.367 6.59431 196.405 6.49468 196.478 6.40612C196.551 6.31756 196.677 6.24376 196.849 6.18841C197.021 6.13306 197.254 6.08878 197.548 6.05557C197.843 6.02236 198.206 6.00391 198.641 6.00391C199.089 6.00391 199.459 6.01867 199.746 6.05557C200.033 6.09247 200.262 6.13306 200.434 6.18841C200.606 6.24376 200.728 6.31756 200.805 6.40612C200.877 6.49468 200.916 6.59431 200.916 6.70501V24.0371H207.933C208.048 24.0371 208.147 24.0666 208.235 24.1294C208.319 24.1921 208.392 24.2917 208.449 24.4283C208.506 24.5685 208.549 24.7493 208.579 24.9781C208.61 25.2032 208.625 25.4836 208.625 25.8157Z" fill="white"/>
<path d="M232.02 16.6277C232.02 18.4137 231.79 20.0115 231.332 21.421C230.873 22.8306 230.189 24.0262 229.279 25.0078C228.37 25.9893 227.246 26.7384 225.908 27.255C224.567 27.7716 223.019 28.0299 221.26 28.0299C219.525 28.0299 218.011 27.8122 216.716 27.3731C215.424 26.934 214.346 26.2661 213.482 25.3657C212.618 24.4653 211.972 23.3251 211.54 21.9377C211.109 20.5502 210.895 18.9081 210.895 17.0115C210.895 15.2698 211.124 13.7015 211.583 12.3067C212.041 10.9155 212.725 9.72732 213.635 8.75315C214.545 7.77529 215.668 7.02622 217.006 6.50592C218.344 5.98563 219.9 5.72363 221.673 5.72363C223.363 5.72363 224.853 5.94135 226.149 6.37308C227.441 6.80481 228.522 7.47271 229.39 8.36939C230.258 9.26976 230.911 10.4026 231.355 11.7753C231.798 13.1443 232.02 14.7642 232.02 16.6277ZM227.261 16.8602C227.261 15.7273 227.169 14.6978 226.986 13.7716C226.803 12.8454 226.489 12.052 226.046 11.3915C225.602 10.731 225.014 10.2218 224.28 9.86016C223.542 9.49854 222.625 9.31773 221.52 9.31773C220.404 9.31773 219.472 9.52068 218.726 9.92658C217.977 10.3325 217.373 10.8712 216.914 11.5502C216.456 12.2255 216.131 13.0188 215.94 13.9229C215.749 14.827 215.657 15.7864 215.657 16.7937C215.657 17.9709 215.749 19.0262 215.932 19.9635C216.116 20.9008 216.425 21.7015 216.865 22.3694C217.301 23.0336 217.889 23.5428 218.623 23.8934C219.357 24.2439 220.286 24.4174 221.398 24.4174C222.51 24.4174 223.443 24.2181 224.192 23.8196C224.941 23.421 225.545 22.8749 226.004 22.1886C226.462 21.5022 226.787 20.6978 226.978 19.7827C227.169 18.8675 227.261 17.8934 227.261 16.8602Z" fill="white"/>
<path d="M255.002 9.45046C255.002 9.77149 254.987 10.0482 254.96 10.2844C254.934 10.5169 254.892 10.7051 254.838 10.8416C254.788 10.9818 254.723 11.0778 254.647 11.1331C254.571 11.1885 254.483 11.218 254.379 11.218C254.23 11.218 253.99 11.1184 253.657 10.9191C253.325 10.7198 252.881 10.5021 252.331 10.2696C251.78 10.0372 251.119 9.81946 250.358 9.6202C249.594 9.42094 248.707 9.32131 247.694 9.32131C246.613 9.32131 245.638 9.50212 244.763 9.86374C243.887 10.2254 243.142 10.7346 242.519 11.3951C241.896 12.0556 241.422 12.849 241.086 13.7752C240.753 14.7014 240.585 15.7272 240.585 16.8453C240.585 18.0778 240.757 19.1626 241.093 20.0999C241.434 21.0372 241.908 21.8232 242.515 22.4541C243.123 23.0851 243.857 23.5648 244.713 23.8859C245.569 24.2069 246.513 24.3693 247.549 24.3693C248.054 24.3693 248.554 24.3139 249.047 24.2032C249.541 24.0925 250.003 23.9265 250.427 23.7051V18.7088H246.204C245.997 18.7088 245.837 18.5833 245.722 18.3324C245.607 18.0815 245.55 17.6571 245.55 17.0593C245.55 16.7494 245.565 16.4874 245.592 16.277C245.619 16.0667 245.665 15.897 245.722 15.7678C245.779 15.6386 245.848 15.5464 245.929 15.4837C246.009 15.4246 246.101 15.3914 246.204 15.3914H253.741C253.925 15.3914 254.089 15.4209 254.234 15.4837C254.379 15.5464 254.506 15.635 254.613 15.7567C254.723 15.8785 254.804 16.0261 254.861 16.1995C254.918 16.373 254.949 16.5685 254.949 16.7899V25.3619C254.949 25.694 254.888 25.9855 254.769 26.2364C254.651 26.4874 254.402 26.6829 254.028 26.8268C253.653 26.9708 253.191 27.122 252.64 27.277C252.09 27.432 251.517 27.5648 250.924 27.6755C250.332 27.7862 249.735 27.8711 249.132 27.9265C248.528 27.9818 247.92 28.0113 247.312 28.0113C245.531 28.0113 243.933 27.7641 242.527 27.2696C241.12 26.7752 239.928 26.0593 238.949 25.122C237.971 24.1848 237.225 23.0409 236.706 21.694C236.19 20.3471 235.93 18.8158 235.93 17.1073C235.93 15.3434 236.205 13.7567 236.755 12.3545C237.309 10.9523 238.089 9.75673 239.102 8.77518C240.115 7.79363 241.334 7.04086 242.768 6.52057C244.197 6.00027 245.795 5.73828 247.553 5.73828C248.52 5.73828 249.399 5.80101 250.19 5.93016C250.985 6.05931 251.677 6.2143 252.27 6.39511C252.862 6.57961 253.351 6.77518 253.745 6.98551C254.135 7.19585 254.41 7.38035 254.563 7.53533C254.72 7.69031 254.83 7.91171 254.899 8.19216C254.968 8.47629 255.002 8.89695 255.002 9.45046Z" fill="white"/>
<path d="M265.427 27.0492C265.427 27.1599 265.389 27.2595 265.316 27.3481C265.24 27.4366 265.118 27.5104 264.946 27.5658C264.774 27.6211 264.544 27.6654 264.258 27.6986C263.971 27.7318 263.604 27.7503 263.153 27.7503C262.717 27.7503 262.35 27.7355 262.056 27.6986C261.762 27.6617 261.529 27.6211 261.357 27.5658C261.185 27.5104 261.058 27.4366 260.986 27.3481C260.909 27.2595 260.875 27.1599 260.875 27.0492V6.70599C260.875 6.59529 260.913 6.49566 260.986 6.4071C261.058 6.31854 261.188 6.24474 261.364 6.18938C261.544 6.13403 261.777 6.08975 262.064 6.05654C262.35 6.02333 262.713 6.00488 263.149 6.00488C263.596 6.00488 263.963 6.01964 264.254 6.05654C264.544 6.09344 264.77 6.13403 264.942 6.18938C265.114 6.24474 265.24 6.31854 265.313 6.4071C265.385 6.49566 265.423 6.59529 265.423 6.70599V27.0492H265.427Z" fill="white"/>
<path d="M287 24.3839C287 24.6607 286.993 24.8968 286.974 25.0924C286.958 25.288 286.932 25.454 286.897 25.5906C286.863 25.7308 286.817 25.8489 286.76 25.9485C286.702 26.0481 286.611 26.1625 286.484 26.288C286.358 26.4171 286.114 26.5795 285.751 26.7788C285.387 26.978 284.944 27.1699 284.424 27.3544C283.904 27.5389 283.304 27.6902 282.632 27.812C281.959 27.9337 281.233 27.9965 280.449 27.9965C278.92 27.9965 277.54 27.7677 276.31 27.3138C275.079 26.8599 274.032 26.1773 273.172 25.2732C272.308 24.3692 271.647 23.24 271.188 21.8858C270.729 20.5315 270.5 18.9559 270.5 17.1588C270.5 15.3286 270.752 13.7013 271.261 12.2806C271.765 10.8599 272.472 9.66806 273.382 8.70127C274.292 7.73448 275.377 7.00385 276.65 6.50201C277.923 6.00016 279.322 5.75293 280.851 5.75293C281.474 5.75293 282.07 5.80459 282.643 5.90422C283.216 6.00385 283.748 6.133 284.237 6.29536C284.726 6.45773 285.166 6.64223 285.556 6.85256C285.945 7.06289 286.221 7.2437 286.374 7.395C286.53 7.54629 286.637 7.66806 286.695 7.77138C286.752 7.87101 286.798 8.00016 286.832 8.15514C286.867 8.31013 286.893 8.49463 286.909 8.70496C286.924 8.91529 286.935 9.17728 286.935 9.48725C286.935 9.81935 286.924 10.1035 286.901 10.336C286.878 10.5684 286.836 10.7566 286.779 10.9005C286.721 11.0444 286.653 11.1515 286.572 11.2179C286.492 11.2843 286.4 11.3175 286.297 11.3175C286.125 11.3175 285.907 11.2216 285.644 11.026C285.38 10.8304 285.036 10.6164 284.615 10.3765C284.195 10.1367 283.694 9.92267 283.117 9.7271C282.536 9.53153 281.844 9.43559 281.038 9.43559C280.151 9.43559 279.364 9.60902 278.668 9.95957C277.972 10.3101 277.38 10.8083 276.891 11.4577C276.401 12.1072 276.031 12.8932 275.778 13.812C275.526 14.7345 275.4 15.7714 275.4 16.9264C275.4 18.192 275.534 19.288 275.805 20.2142C276.077 21.1404 276.459 21.9042 276.96 22.502C277.46 23.0998 278.064 23.5463 278.771 23.8415C279.478 24.1367 280.273 24.2843 281.16 24.2843C281.967 24.2843 282.658 24.192 283.247 24.0112C283.832 23.8267 284.336 23.6275 284.757 23.4024C285.177 23.181 285.521 22.9817 285.793 22.8046C286.064 22.6275 286.274 22.5389 286.423 22.5389C286.538 22.5389 286.63 22.561 286.698 22.6053C286.767 22.6496 286.825 22.7382 286.87 22.871C286.916 23.0039 286.951 23.192 286.974 23.4282C286.989 23.6681 287 23.9854 287 24.3839Z" fill="white"/>
<path fill-rule="evenodd" clip-rule="evenodd" d="M28.483 0C44.2152 0 56.966 12.3137 56.966 27.5018C56.966 42.69 44.2113 55 28.483 55C12.7547 55 0 42.6863 0 27.5018C0 12.3137 12.7547 0 28.483 0Z" fill="white"/>
<path fill-rule="evenodd" clip-rule="evenodd" d="M35.0456 25.4504L38.7073 27.4909L27.7223 33.6127L24.0606 31.5721C27.7185 29.5315 31.384 27.4909 35.0456 25.4504ZM16.7335 27.4909L31.384 19.3249C28.9416 17.9633 26.4992 16.6053 24.0606 15.2437L27.7223 13.2031L46.0344 23.4098L42.3728 25.4504L35.0456 21.3655L20.3951 29.5315L16.7335 27.4909ZM24.0568 19.3249L13.0718 25.4504L9.41016 23.4098L20.3951 17.288L24.0568 19.3249ZM9.41016 31.5943L27.7223 41.8009L46.0344 31.5943L42.3613 29.5463L27.7223 37.705L13.0833 29.5463L9.41016 31.5943Z" fill="#071D49"/>
<path d="M74.4629 48.7378C74.5137 48.8901 74.5454 49.0107 74.5581 49.0996C74.5708 49.1885 74.5539 49.2562 74.5073 49.3027C74.4608 49.3451 74.3783 49.3704 74.2598 49.3789C74.1413 49.3916 73.9784 49.3979 73.771 49.3979C73.5552 49.3979 73.3859 49.3937 73.2632 49.3853C73.1447 49.381 73.0537 49.3704 72.9902 49.3535C72.9268 49.3324 72.8823 49.3049 72.8569 49.271C72.8315 49.2371 72.8104 49.1927 72.7935 49.1377L72.2412 47.4873H69.1562L68.6357 49.0933C68.6188 49.1525 68.5955 49.2033 68.5659 49.2456C68.5405 49.2837 68.4961 49.3154 68.4326 49.3408C68.3734 49.362 68.2866 49.3768 68.1724 49.3853C68.0623 49.3937 67.9163 49.3979 67.7344 49.3979C67.5397 49.3979 67.3874 49.3916 67.2773 49.3789C67.1673 49.3662 67.0911 49.3366 67.0488 49.29C67.0065 49.2393 66.9917 49.1694 67.0044 49.0806C67.0171 48.9917 67.0488 48.8732 67.0996 48.7251L69.6323 41.438C69.6577 41.366 69.6873 41.3089 69.7212 41.2666C69.755 41.2201 69.8079 41.1862 69.8799 41.165C69.9561 41.1396 70.0597 41.1248 70.1909 41.1206C70.3221 41.1121 70.4956 41.1079 70.7114 41.1079C70.9611 41.1079 71.16 41.1121 71.3081 41.1206C71.4562 41.1248 71.5705 41.1396 71.6509 41.165C71.7355 41.1862 71.7948 41.2201 71.8286 41.2666C71.8667 41.3132 71.8984 41.3766 71.9238 41.457L74.4629 48.7378ZM70.6924 42.7139H70.686L69.5244 46.2051H71.854L70.6924 42.7139Z" fill="#FCFEFF"/>
<path d="M82.0928 46.3003C82.0928 46.8039 82.0187 47.2546 81.8706 47.6523C81.7225 48.0501 81.5046 48.3866 81.2168 48.6616C80.929 48.9367 80.5736 49.1462 80.1504 49.29C79.7272 49.4339 79.2406 49.5059 78.6904 49.5059C78.1742 49.5059 77.7108 49.4424 77.3003 49.3154C76.8898 49.1842 76.5428 48.9875 76.2593 48.7251C75.9757 48.4627 75.7578 48.1369 75.6055 47.7476C75.4574 47.354 75.3833 46.8949 75.3833 46.3701V41.3745C75.3833 41.3322 75.396 41.2941 75.4214 41.2603C75.4468 41.2264 75.4912 41.1989 75.5547 41.1777C75.6224 41.1566 75.7091 41.1396 75.8149 41.127C75.9207 41.1143 76.0562 41.1079 76.2212 41.1079C76.382 41.1079 76.5153 41.1143 76.6211 41.127C76.7269 41.1396 76.8115 41.1566 76.875 41.1777C76.9385 41.1989 76.9829 41.2264 77.0083 41.2603C77.0379 41.2941 77.0527 41.3322 77.0527 41.3745V46.2241C77.0527 46.55 77.0929 46.8335 77.1733 47.0747C77.2537 47.3117 77.368 47.5085 77.5161 47.665C77.6685 47.8216 77.8483 47.9401 78.0557 48.0205C78.2673 48.0967 78.5021 48.1348 78.7603 48.1348C79.0226 48.1348 79.2575 48.0946 79.4648 48.0142C79.6722 47.9338 79.8478 47.8174 79.9917 47.665C80.1356 47.5085 80.2456 47.318 80.3218 47.0938C80.4022 46.8652 80.4424 46.6071 80.4424 46.3193V41.3745C80.4424 41.3322 80.4551 41.2941 80.4805 41.2603C80.5059 41.2264 80.5503 41.1989 80.6138 41.1777C80.6772 41.1566 80.7619 41.1396 80.8677 41.127C80.9777 41.1143 81.1131 41.1079 81.2739 41.1079C81.4347 41.1079 81.5659 41.1143 81.6675 41.127C81.7733 41.1396 81.8579 41.1566 81.9214 41.1777C81.9849 41.1989 82.0293 41.2264 82.0547 41.2603C82.0801 41.2941 82.0928 41.3322 82.0928 41.3745V46.3003Z" fill="#FCFEFF"/>
<path d="M89.3481 41.8315C89.3481 41.9543 89.3418 42.0601 89.3291 42.1489C89.3206 42.2336 89.3058 42.3034 89.2847 42.3584C89.2635 42.4092 89.236 42.4473 89.2021 42.4727C89.1725 42.498 89.1387 42.5107 89.1006 42.5107H87.0439V49.1313C87.0439 49.1737 87.0291 49.2118 86.9995 49.2456C86.9741 49.2795 86.9297 49.307 86.8662 49.3281C86.8027 49.3493 86.716 49.3662 86.606 49.3789C86.5002 49.3916 86.3669 49.3979 86.2061 49.3979C86.0452 49.3979 85.9098 49.3916 85.7998 49.3789C85.694 49.3662 85.6094 49.3493 85.5459 49.3281C85.4824 49.307 85.4359 49.2795 85.4062 49.2456C85.3809 49.2118 85.3682 49.1737 85.3682 49.1313V42.5107H83.3115C83.2692 42.5107 83.2332 42.498 83.2036 42.4727C83.174 42.4473 83.1486 42.4092 83.1274 42.3584C83.1063 42.3034 83.0894 42.2336 83.0767 42.1489C83.0682 42.0601 83.064 41.9543 83.064 41.8315C83.064 41.7046 83.0682 41.5967 83.0767 41.5078C83.0894 41.4189 83.1063 41.3491 83.1274 41.2983C83.1486 41.2433 83.174 41.2052 83.2036 41.1841C83.2332 41.1587 83.2692 41.146 83.3115 41.146H89.1006C89.1387 41.146 89.1725 41.1587 89.2021 41.1841C89.236 41.2052 89.2635 41.2433 89.2847 41.2983C89.3058 41.3491 89.3206 41.4189 89.3291 41.5078C89.3418 41.5967 89.3481 41.7046 89.3481 41.8315Z" fill="#FCFEFF"/>
<path d="M97.3525 45.1577C97.3525 45.839 97.2679 46.4484 97.0986 46.9858C96.9294 47.5233 96.6776 47.9803 96.3433 48.3569C96.009 48.7293 95.5942 49.015 95.0991 49.2139C94.6082 49.4085 94.0391 49.5059 93.3916 49.5059C92.7526 49.5059 92.194 49.4233 91.7158 49.2583C91.2419 49.089 90.8462 48.833 90.5288 48.4902C90.2114 48.1475 89.9723 47.7116 89.8115 47.1826C89.6549 46.6536 89.5767 46.0273 89.5767 45.3037C89.5767 44.6393 89.6613 44.0426 89.8306 43.5137C89.9998 42.9805 90.2516 42.5277 90.5859 42.1553C90.9202 41.7829 91.3328 41.4972 91.8237 41.2983C92.3188 41.0994 92.8923 41 93.5439 41C94.166 41 94.714 41.0825 95.188 41.2476C95.6662 41.4126 96.064 41.6665 96.3813 42.0093C96.703 42.3521 96.9442 42.7858 97.105 43.3105C97.27 43.8311 97.3525 44.4468 97.3525 45.1577ZM95.6006 45.2466C95.6006 44.8149 95.5667 44.4235 95.499 44.0723C95.4313 43.7168 95.3149 43.4142 95.1499 43.1646C94.9891 42.9106 94.7733 42.716 94.5024 42.5806C94.2316 42.4409 93.8931 42.3711 93.4868 42.3711C93.0763 42.3711 92.7336 42.4494 92.4585 42.606C92.1834 42.7583 91.9613 42.9635 91.792 43.2217C91.6227 43.4798 91.5021 43.7824 91.4302 44.1294C91.3625 44.4722 91.3286 44.8361 91.3286 45.2212C91.3286 45.6698 91.3625 46.0739 91.4302 46.4336C91.4979 46.7891 91.6121 47.0938 91.7729 47.3477C91.9338 47.6016 92.1496 47.7962 92.4204 47.9316C92.6912 48.0628 93.0319 48.1284 93.4424 48.1284C93.8529 48.1284 94.1956 48.0522 94.4707 47.8999C94.7458 47.7476 94.9679 47.5402 95.1372 47.2778C95.3065 47.0155 95.425 46.7108 95.4927 46.3638C95.5646 46.0125 95.6006 45.6401 95.6006 45.2466Z" fill="#FCFEFF"/>
<path d="M103.383 49.1313C103.383 49.1737 103.368 49.2118 103.338 49.2456C103.313 49.2795 103.269 49.307 103.205 49.3281C103.142 49.3493 103.057 49.3662 102.951 49.3789C102.845 49.3916 102.71 49.3979 102.545 49.3979C102.384 49.3979 102.249 49.3916 102.139 49.3789C102.033 49.3662 101.948 49.3493 101.885 49.3281C101.821 49.307 101.775 49.2795 101.745 49.2456C101.72 49.2118 101.707 49.1737 101.707 49.1313V41.3745C101.707 41.3322 101.72 41.2941 101.745 41.2603C101.775 41.2264 101.821 41.1989 101.885 41.1777C101.952 41.1566 102.039 41.1396 102.145 41.127C102.251 41.1143 102.384 41.1079 102.545 41.1079C102.71 41.1079 102.845 41.1143 102.951 41.127C103.057 41.1396 103.142 41.1566 103.205 41.1777C103.269 41.1989 103.313 41.2264 103.338 41.2603C103.368 41.2941 103.383 41.3322 103.383 41.3745V49.1313Z" fill="#FCFEFF"/>
<path d="M111.997 45.1323C111.997 45.8856 111.897 46.5309 111.698 47.0684C111.504 47.6016 111.222 48.0374 110.854 48.376C110.486 48.7145 110.037 48.9642 109.508 49.125C108.984 49.2816 108.357 49.3599 107.629 49.3599H105.668C105.528 49.3599 105.41 49.3197 105.312 49.2393C105.219 49.1546 105.173 49.0192 105.173 48.833V41.6729C105.173 41.4867 105.219 41.3534 105.312 41.2729C105.41 41.1883 105.528 41.146 105.668 41.146H107.775C108.507 41.146 109.127 41.2327 109.635 41.4062C110.147 41.5755 110.577 41.8294 110.924 42.168C111.275 42.5023 111.542 42.917 111.724 43.4121C111.906 43.9072 111.997 44.4806 111.997 45.1323ZM110.27 45.1895C110.27 44.8001 110.223 44.4383 110.13 44.104C110.042 43.7697 109.896 43.4798 109.692 43.2344C109.493 42.9889 109.235 42.7985 108.918 42.6631C108.605 42.5234 108.192 42.4536 107.68 42.4536H106.836V48.0396H107.706C108.163 48.0396 108.548 47.9803 108.861 47.8618C109.174 47.7433 109.434 47.5656 109.642 47.3286C109.853 47.0874 110.01 46.7891 110.111 46.4336C110.217 46.0781 110.27 45.6634 110.27 45.1895Z" fill="#FCFEFF"/>
<path d="M121.532 46.9779C121.532 47.417 121.449 47.8007 121.284 48.1292C121.119 48.4613 120.893 48.7343 120.608 48.9557C120.323 49.1771 119.992 49.3432 119.613 49.4539C119.233 49.5646 118.828 49.6199 118.392 49.6199C118.099 49.6199 117.829 49.5978 117.577 49.5498C117.326 49.5018 117.104 49.4465 116.912 49.3801C116.721 49.3137 116.559 49.2435 116.432 49.1697C116.304 49.0959 116.21 49.0332 116.154 48.9779C116.097 48.9225 116.056 48.8413 116.034 48.738C116.011 48.631 115.996 48.4797 115.996 48.2841C115.996 48.1513 116 48.0406 116.011 47.9483C116.019 47.8598 116.034 47.786 116.052 47.7306C116.071 47.6753 116.097 47.6347 116.131 47.6125C116.165 47.5904 116.203 47.5756 116.248 47.5756C116.308 47.5756 116.394 47.6125 116.507 47.6827C116.62 47.7528 116.762 47.8303 116.935 47.9188C117.108 48.0037 117.318 48.0849 117.562 48.155C117.806 48.2251 118.084 48.262 118.403 48.262C118.614 48.262 118.802 48.2362 118.967 48.1882C119.132 48.1402 119.275 48.0701 119.391 47.9779C119.508 47.8893 119.594 47.7749 119.658 47.6421C119.718 47.5092 119.748 47.3616 119.748 47.1956C119.748 47.0074 119.695 46.845 119.59 46.7085C119.485 46.572 119.35 46.4539 119.181 46.3469C119.012 46.2399 118.82 46.1439 118.606 46.0517C118.392 45.9594 118.171 45.8635 117.945 45.7601C117.716 45.6568 117.498 45.5387 117.284 45.4096C117.07 45.2804 116.879 45.1218 116.71 44.941C116.541 44.7601 116.405 44.5424 116.3 44.2952C116.195 44.048 116.143 43.7491 116.143 43.3985C116.143 43 116.218 42.6494 116.368 42.3469C116.518 42.0443 116.721 41.7934 116.976 41.5941C117.232 41.3948 117.532 41.2472 117.881 41.1476C118.231 41.048 118.599 41 118.986 41C119.188 41 119.387 41.0148 119.59 41.0443C119.793 41.0738 119.981 41.1144 120.154 41.1661C120.326 41.2177 120.484 41.2768 120.619 41.3395C120.754 41.4022 120.845 41.4576 120.89 41.5018C120.935 41.5461 120.961 41.583 120.98 41.6125C120.995 41.6421 121.01 41.6827 121.017 41.7306C121.025 41.7786 121.036 41.8413 121.04 41.9188C121.044 41.9926 121.047 42.0886 121.047 42.1993C121.047 42.3247 121.044 42.428 121.036 42.5129C121.029 42.5978 121.017 42.6679 121.002 42.7269C120.987 42.7823 120.965 42.8229 120.938 42.8487C120.908 42.8745 120.871 42.8856 120.822 42.8856C120.773 42.8856 120.698 42.8561 120.593 42.797C120.488 42.738 120.36 42.6716 120.206 42.6015C120.052 42.5314 119.876 42.4649 119.677 42.4096C119.474 42.3506 119.256 42.321 119.016 42.321C118.828 42.321 118.663 42.3432 118.524 42.3875C118.385 42.4317 118.268 42.4945 118.174 42.5756C118.08 42.6568 118.009 42.7491 117.964 42.8635C117.919 42.9742 117.896 43.0923 117.896 43.2177C117.896 43.4022 117.949 43.5609 118.05 43.6974C118.152 43.834 118.291 43.952 118.464 44.059C118.636 44.1661 118.832 44.262 119.049 44.3542C119.267 44.4465 119.489 44.5424 119.718 44.6458C119.943 44.7491 120.169 44.8672 120.386 44.9963C120.604 45.1292 120.8 45.2841 120.969 45.4649C121.138 45.6458 121.276 45.8635 121.382 46.1107C121.487 46.3579 121.532 46.6421 121.532 46.9779Z" fill="#FCFEFF"/>
<path d="M131.557 45.2214C131.557 45.9114 131.471 46.5314 131.294 47.0775C131.118 47.6236 130.858 48.0849 130.513 48.4649C130.167 48.845 129.739 49.1365 129.232 49.3358C128.725 49.535 128.136 49.6347 127.467 49.6347C126.806 49.6347 126.232 49.5498 125.74 49.3801C125.248 49.2103 124.838 48.952 124.511 48.6052C124.185 48.2583 123.937 47.8155 123.775 47.2767C123.61 46.7417 123.531 46.1033 123.531 45.369C123.531 44.6937 123.618 44.0886 123.794 43.5498C123.967 43.0111 124.23 42.5535 124.575 42.1734C124.921 41.797 125.349 41.5055 125.856 41.3026C126.363 41.0996 126.956 41 127.629 41C128.271 41 128.838 41.0849 129.33 41.2509C129.822 41.417 130.231 41.6753 130.562 42.0221C130.892 42.369 131.14 42.8081 131.309 43.3395C131.471 43.8745 131.557 44.4982 131.557 45.2214ZM129.747 45.31C129.747 44.8708 129.713 44.4723 129.642 44.1144C129.57 43.7565 129.454 43.4502 129.285 43.1919C129.116 42.9373 128.894 42.738 128.613 42.5978C128.331 42.4576 127.982 42.3875 127.565 42.3875C127.14 42.3875 126.787 42.4649 126.502 42.6236C126.217 42.7786 125.987 42.9889 125.815 43.2509C125.642 43.5129 125.518 43.8192 125.443 44.1697C125.372 44.5203 125.334 44.8893 125.334 45.2804C125.334 45.7343 125.368 46.1439 125.439 46.5092C125.51 46.8708 125.627 47.1808 125.792 47.4391C125.957 47.6974 126.183 47.893 126.461 48.0295C126.739 48.166 127.092 48.2325 127.516 48.2325C127.94 48.2325 128.293 48.155 128.579 48C128.864 47.845 129.093 47.6347 129.266 47.369C129.439 47.1033 129.563 46.7934 129.638 46.4391C129.709 46.0886 129.747 45.7122 129.747 45.31Z" fill="#FCFEFF"/>
<path d="M138.219 48.6679C138.219 48.797 138.216 48.9041 138.204 48.9926C138.193 49.0812 138.178 49.155 138.155 49.2103C138.133 49.2694 138.107 49.31 138.073 49.3358C138.039 49.3616 138.001 49.3727 137.956 49.3727H134.069C133.927 49.3727 133.803 49.3321 133.705 49.2472C133.607 49.1624 133.559 49.0258 133.559 48.8376V41.2694C133.559 41.2251 133.574 41.1882 133.6 41.155C133.63 41.1218 133.675 41.0923 133.743 41.0701C133.806 41.048 133.897 41.0295 134.009 41.0184C134.122 41.0037 134.261 41 134.426 41C134.595 41 134.738 41.0074 134.847 41.0184C134.956 41.0295 135.042 41.048 135.11 41.0701C135.173 41.0923 135.222 41.1181 135.252 41.155C135.282 41.1882 135.294 41.2288 135.294 41.2694V47.9742H137.96C138.005 47.9742 138.043 47.9852 138.077 48.0111C138.11 48.0332 138.137 48.0738 138.159 48.1255C138.182 48.1808 138.197 48.2509 138.208 48.3395C138.216 48.4317 138.219 48.5387 138.219 48.6679Z" fill="#FCFEFF"/>
<path d="M147.144 46.2731C147.144 46.7823 147.069 47.2399 146.915 47.6458C146.761 48.048 146.536 48.3911 146.239 48.6679C145.942 48.9483 145.574 49.1587 145.139 49.3063C144.703 49.4539 144.2 49.524 143.633 49.524C143.099 49.524 142.622 49.4576 142.198 49.3284C141.774 49.1993 141.417 49 141.124 48.7343C140.831 48.4686 140.606 48.1365 140.452 47.738C140.298 47.3395 140.219 46.8745 140.219 46.3432V41.2731C140.219 41.2288 140.234 41.1919 140.256 41.1587C140.283 41.1255 140.331 41.0959 140.399 41.0738C140.467 41.0517 140.557 41.0332 140.666 41.0221C140.775 41.0074 140.914 41.0037 141.086 41.0037C141.252 41.0037 141.39 41.0111 141.499 41.0221C141.608 41.0332 141.695 41.0517 141.762 41.0738C141.826 41.0959 141.875 41.1218 141.905 41.1587C141.935 41.1919 141.946 41.2325 141.946 41.2731V46.1919C141.946 46.524 141.988 46.8081 142.07 47.0517C142.153 47.2952 142.273 47.4945 142.427 47.6531C142.581 47.8118 142.769 47.9299 142.983 48.0111C143.201 48.0923 143.441 48.1292 143.708 48.1292C143.978 48.1292 144.222 48.0886 144.436 48.0074C144.65 47.9262 144.831 47.8081 144.981 47.6494C145.127 47.4945 145.244 47.2989 145.326 47.0701C145.409 46.8413 145.447 46.5793 145.447 46.2878V41.2694C145.447 41.2251 145.462 41.1882 145.488 41.155C145.514 41.1218 145.559 41.0923 145.627 41.0701C145.694 41.048 145.781 41.0295 145.893 41.0184C146.006 41.0037 146.145 41 146.31 41C146.476 41 146.611 41.0074 146.72 41.0184C146.829 41.0295 146.915 41.048 146.979 41.0701C147.043 41.0923 147.091 41.1181 147.118 41.155C147.144 41.1882 147.155 41.2288 147.155 41.2694V46.2731H147.144Z" fill="#FCFEFF"/>
<path d="M155.65 41.6937C155.65 41.8192 155.646 41.9262 155.635 42.0111C155.623 42.0996 155.608 42.1697 155.586 42.2251C155.563 42.2804 155.537 42.3173 155.503 42.3432C155.469 42.369 155.436 42.3801 155.394 42.3801H153.269V49.0959C153.269 49.1402 153.254 49.1771 153.227 49.2103C153.201 49.2435 153.152 49.2731 153.085 49.2952C153.021 49.3173 152.931 49.3321 152.818 49.3469C152.705 49.3616 152.566 49.3653 152.401 49.3653C152.236 49.3653 152.097 49.3579 151.984 49.3469C151.875 49.3321 151.785 49.3173 151.718 49.2952C151.65 49.2731 151.605 49.2472 151.575 49.2103C151.549 49.1771 151.534 49.1365 151.534 49.0959V42.3801H149.412C149.367 42.3801 149.333 42.3653 149.299 42.3432C149.269 42.3173 149.243 42.2768 149.22 42.2251C149.198 42.1734 149.183 42.0996 149.171 42.0111C149.16 41.9225 149.156 41.8155 149.156 41.6937C149.156 41.5646 149.164 41.4539 149.171 41.3653C149.179 41.2768 149.198 41.203 149.22 41.1513C149.243 41.0996 149.269 41.059 149.299 41.0369C149.329 41.0148 149.367 41 149.412 41H155.391C155.428 41 155.466 41.0111 155.499 41.0369C155.533 41.059 155.56 41.0996 155.582 41.1513C155.605 41.2066 155.62 41.2768 155.631 41.3653C155.642 41.4539 155.65 41.5646 155.65 41.6937Z" fill="#FCFEFF"/>
<path d="M159.384 49.1402C159.384 49.1845 159.369 49.2214 159.342 49.2546C159.312 49.2878 159.267 49.3173 159.2 49.3395C159.132 49.3616 159.046 49.3764 158.937 49.3911C158.828 49.4059 158.689 49.4096 158.516 49.4096C158.351 49.4096 158.212 49.4022 158.099 49.3911C157.986 49.3801 157.9 49.3616 157.832 49.3395C157.765 49.3173 157.72 49.2915 157.69 49.2546C157.66 49.2214 157.648 49.1808 157.648 49.1402V41.2694C157.648 41.2251 157.663 41.1882 157.69 41.155C157.72 41.1218 157.765 41.0923 157.832 41.0701C157.9 41.048 157.99 41.0295 158.099 41.0185C158.208 41.0037 158.347 41 158.512 41C158.685 41 158.824 41.0074 158.933 41.0185C159.042 41.0295 159.128 41.048 159.196 41.0701C159.26 41.0923 159.308 41.1181 159.338 41.155C159.369 41.1882 159.38 41.2288 159.38 41.2694V49.1402H159.384Z" fill="#FCFEFF"/>
<path d="M169.412 45.2214C169.412 45.9114 169.326 46.5314 169.149 47.0775C168.973 47.6236 168.714 48.0849 168.368 48.4649C168.023 48.845 167.595 49.1365 167.088 49.3358C166.581 49.535 165.991 49.6347 165.319 49.6347C164.658 49.6347 164.083 49.5498 163.591 49.3801C163.099 49.2103 162.69 48.952 162.363 48.6052C162.036 48.2583 161.788 47.8155 161.627 47.2767C161.462 46.7417 161.383 46.1033 161.383 45.369C161.383 44.6937 161.469 44.0886 161.646 43.5498C161.822 43.0111 162.081 42.5535 162.427 42.1734C162.772 41.797 163.197 41.5055 163.708 41.3026C164.215 41.0996 164.808 41 165.48 41C166.122 41 166.689 41.0849 167.181 41.2509C167.673 41.417 168.083 41.6753 168.413 42.0221C168.744 42.369 168.992 42.8081 169.161 43.3395C169.33 43.8745 169.412 44.4982 169.412 45.2214ZM167.602 45.31C167.602 44.8708 167.568 44.4723 167.497 44.1144C167.426 43.7565 167.309 43.4502 167.14 43.1919C166.971 42.9336 166.75 42.738 166.468 42.5978C166.186 42.4576 165.837 42.3875 165.42 42.3875C164.996 42.3875 164.643 42.4649 164.357 42.6236C164.072 42.7786 163.843 42.9889 163.67 43.2509C163.497 43.5129 163.373 43.8192 163.298 44.1697C163.227 44.5203 163.189 44.8893 163.189 45.2804C163.189 45.7343 163.223 46.1439 163.294 46.5092C163.366 46.8745 163.482 47.1808 163.647 47.4391C163.813 47.6974 164.038 47.893 164.316 48.0295C164.594 48.166 164.947 48.2325 165.371 48.2325C165.796 48.2325 166.149 48.155 166.434 48C166.72 47.845 166.949 47.6347 167.121 47.369C167.294 47.1033 167.418 46.7934 167.493 46.4391C167.568 46.0886 167.602 45.7122 167.602 45.31Z" fill="#FCFEFF"/>
<path d="M178.418 48.7638C178.418 48.8635 178.399 48.952 178.366 49.0295C178.332 49.107 178.283 49.1697 178.223 49.2214C178.163 49.2731 178.095 49.31 178.013 49.3358C177.93 49.3579 177.851 49.3727 177.765 49.3727H177.032C176.878 49.3727 176.747 49.3579 176.634 49.3284C176.522 49.2989 176.42 49.2435 176.326 49.1624C176.233 49.0849 176.142 48.9742 176.056 48.8413C175.97 48.7048 175.872 48.5314 175.759 48.3173L173.649 44.4207C173.525 44.1882 173.401 43.9373 173.273 43.6716C173.145 43.4059 173.033 43.1439 172.931 42.8893H172.916C172.931 43.1993 172.946 43.5055 172.954 43.8118C172.961 44.1181 172.969 44.4354 172.969 44.7601V49.1218C172.969 49.166 172.958 49.2029 172.931 49.2362C172.909 49.2694 172.867 49.2989 172.807 49.3247C172.747 49.3469 172.668 49.3653 172.567 49.3801C172.466 49.3948 172.338 49.3985 172.18 49.3985C172.026 49.3985 171.899 49.3911 171.801 49.3801C171.703 49.369 171.621 49.3505 171.564 49.3247C171.508 49.3026 171.467 49.2731 171.448 49.2362C171.425 49.2029 171.414 49.1624 171.414 49.1218V41.631C171.414 41.428 171.474 41.2768 171.594 41.1771C171.715 41.0775 171.861 41.0258 172.037 41.0258H172.961C173.127 41.0258 173.266 41.0406 173.382 41.0664C173.495 41.0959 173.596 41.1402 173.686 41.2066C173.776 41.2694 173.859 41.3616 173.938 41.4723C174.017 41.5867 174.096 41.7269 174.178 41.893L175.831 44.941C175.928 45.1255 176.022 45.3063 176.116 45.4834C176.21 45.6605 176.3 45.8413 176.386 46.0184C176.473 46.1956 176.559 46.3727 176.642 46.5424C176.724 46.7159 176.807 46.8856 176.886 47.059H176.893C176.878 46.7601 176.871 46.4465 176.863 46.1181C176.856 45.7934 176.852 45.4797 176.852 45.1845V41.2768C176.852 41.2325 176.867 41.1956 176.893 41.1624C176.92 41.1292 176.965 41.0996 177.025 41.0701C177.085 41.0443 177.168 41.0258 177.265 41.0148C177.367 41.0037 177.494 41 177.652 41C177.799 41 177.926 41.0037 178.024 41.0148C178.125 41.0258 178.2 41.0443 178.257 41.0701C178.313 41.0959 178.351 41.1255 178.373 41.1624C178.396 41.1956 178.407 41.2362 178.407 41.2768V48.7638H178.418Z" fill="#FCFEFF"/>
<path d="M185.954 46.9779C185.954 47.417 185.871 47.8007 185.706 48.1292C185.541 48.4613 185.315 48.7343 185.03 48.9557C184.744 49.1771 184.414 49.3432 184.035 49.4539C183.655 49.5646 183.246 49.6199 182.814 49.6199C182.521 49.6199 182.251 49.5978 181.999 49.5498C181.747 49.5018 181.526 49.4465 181.334 49.3801C181.143 49.3137 180.981 49.2435 180.854 49.1697C180.726 49.0959 180.632 49.0332 180.576 48.9779C180.519 48.9225 180.478 48.8413 180.456 48.738C180.433 48.6347 180.418 48.4797 180.418 48.2841C180.418 48.1513 180.422 48.0406 180.433 47.9483C180.44 47.8598 180.456 47.786 180.474 47.7306C180.493 47.6753 180.519 47.6347 180.553 47.6125C180.587 47.5904 180.625 47.5756 180.666 47.5756C180.726 47.5756 180.812 47.6125 180.925 47.6827C181.038 47.7528 181.18 47.8303 181.353 47.9188C181.526 48.0037 181.736 48.0849 181.98 48.155C182.224 48.2251 182.502 48.262 182.822 48.262C183.032 48.262 183.22 48.2362 183.385 48.1882C183.55 48.1402 183.693 48.0701 183.809 47.9779C183.926 47.8856 184.012 47.7749 184.076 47.6421C184.136 47.5092 184.166 47.3616 184.166 47.1956C184.166 47.0074 184.113 46.845 184.008 46.7085C183.903 46.572 183.768 46.4539 183.599 46.3469C183.43 46.2399 183.238 46.1439 183.024 46.0517C182.81 45.9594 182.589 45.8635 182.363 45.7601C182.134 45.6568 181.916 45.5387 181.702 45.4096C181.488 45.2804 181.297 45.1218 181.128 44.941C180.959 44.7601 180.824 44.5424 180.718 44.2952C180.613 44.048 180.561 43.7491 180.561 43.3985C180.561 43 180.636 42.6494 180.786 42.3469C180.936 42.0443 181.139 41.7934 181.394 41.5941C181.65 41.3948 181.95 41.2472 182.3 41.1476C182.649 41.048 183.013 41 183.404 41C183.606 41 183.805 41.0148 184.008 41.0443C184.211 41.0738 184.399 41.1144 184.572 41.1661C184.744 41.2177 184.902 41.2768 185.037 41.3395C185.173 41.4022 185.263 41.4576 185.304 41.5018C185.349 41.5461 185.379 41.583 185.394 41.6125C185.409 41.6421 185.42 41.6827 185.432 41.7306C185.443 41.7786 185.45 41.8413 185.454 41.9188C185.458 41.9926 185.462 42.0886 185.462 42.1993C185.462 42.3247 185.458 42.428 185.45 42.5129C185.443 42.5978 185.432 42.6679 185.417 42.7269C185.402 42.7823 185.379 42.8229 185.349 42.8487C185.319 42.8745 185.281 42.8856 185.236 42.8856C185.188 42.8856 185.112 42.8561 185.007 42.797C184.902 42.738 184.774 42.6716 184.62 42.6015C184.466 42.5314 184.29 42.4649 184.091 42.4096C183.888 42.3506 183.67 42.321 183.43 42.321C183.242 42.321 183.077 42.3432 182.938 42.3875C182.799 42.4317 182.683 42.4945 182.589 42.5756C182.495 42.6568 182.423 42.7491 182.378 42.8635C182.333 42.9742 182.311 43.0923 182.311 43.2177C182.311 43.4022 182.363 43.5609 182.465 43.6974C182.566 43.834 182.705 43.952 182.878 44.059C183.051 44.1661 183.246 44.262 183.464 44.3542C183.682 44.4465 183.907 44.5424 184.132 44.6458C184.358 44.7491 184.583 44.8672 184.801 44.9963C185.019 45.1292 185.214 45.2841 185.383 45.4649C185.556 45.6458 185.691 45.8635 185.796 46.1107C185.901 46.3579 185.954 46.6421 185.954 46.9779Z" fill="#FCFEFF"/>
</g>
<defs>
<clipPath id="clip0_1014_95038">
<rect width="287" height="55" fill="white"/>
</clipPath>
</defs>
</svg>
