<svg width="282" height="55" viewBox="0 0 282 55" fill="none" xmlns="http://www.w3.org/2000/svg">
<path fill-rule="evenodd" clip-rule="evenodd" d="M33.575 23.7319L37.3081 25.85L26.1126 32.2006L22.3796 30.0825C26.1089 27.9681 29.842 25.85 33.575 23.7319ZM14.9097 25.85L29.842 17.3777C27.352 15.9681 24.8658 14.5548 22.3758 13.1415L26.1089 11.0234L44.7743 21.6102L41.0412 23.7282L33.575 19.4958L18.6465 27.9681L14.9097 25.85ZM22.3758 17.3777L11.1803 23.7319L7.44727 21.6138L18.6465 15.2633L22.3758 17.3777ZM7.44727 30.1046L26.1126 40.6913L44.778 30.1046L41.0374 27.9828L26.1126 36.4478L11.1879 27.9828L7.44727 30.1046Z" fill="#FFC600"/>
<path d="M79.8505 7.90252C79.8505 8.22355 79.8355 8.5003 79.8092 8.7254C79.7792 8.95418 79.7379 9.13499 79.6815 9.27521C79.6252 9.41543 79.5538 9.51506 79.4712 9.58148C79.3848 9.6479 79.2947 9.68112 79.1895 9.68112H73.6988V27.0464C73.6988 27.1571 73.6613 27.2568 73.5899 27.3453C73.5148 27.4339 73.3946 27.5077 73.2256 27.563C73.0566 27.6184 72.8275 27.6627 72.5384 27.6959C72.2492 27.7291 71.8924 27.7475 71.4605 27.7475C71.0324 27.7475 70.6718 27.7328 70.3864 27.6959C70.0972 27.6627 69.8681 27.6184 69.6991 27.563C69.5301 27.5077 69.4099 27.4339 69.3348 27.3453C69.2597 27.2568 69.2259 27.1571 69.2259 27.0464V9.68112H63.7352C63.6225 9.68112 63.5249 9.6479 63.446 9.58148C63.3672 9.51506 63.2996 9.41174 63.2432 9.27521C63.1869 9.13499 63.1456 8.95418 63.1155 8.7254C63.0855 8.49661 63.0742 8.22355 63.0742 7.90252C63.0742 7.57041 63.0892 7.28628 63.1155 7.05381C63.1418 6.82134 63.1869 6.63683 63.2432 6.49661C63.2996 6.35639 63.3672 6.25676 63.446 6.19772C63.5249 6.13499 63.6225 6.10547 63.7352 6.10547H79.1895C79.2909 6.10547 79.3848 6.13499 79.4712 6.19772C79.5576 6.26045 79.6252 6.36008 79.6815 6.49661C79.7379 6.63683 79.7792 6.82134 79.8092 7.05381C79.8393 7.28628 79.8505 7.57041 79.8505 7.90252Z" fill="#071D49"/>
<path d="M96.6896 25.9318C96.6896 26.2529 96.6746 26.5222 96.6483 26.7399C96.6182 26.9576 96.5769 27.1311 96.5206 27.2639C96.4643 27.3968 96.3929 27.4927 96.3103 27.5554C96.2239 27.6182 96.1338 27.6477 96.0286 27.6477H85.0134C84.6416 27.6477 84.3261 27.5407 84.0745 27.323C83.8228 27.1053 83.6914 26.7547 83.6914 26.2676V7.48533C83.6914 6.99824 83.8191 6.644 84.0745 6.42629C84.3299 6.20857 84.6416 6.10156 85.0134 6.10156H95.961C96.0624 6.10156 96.1525 6.13108 96.2314 6.18643C96.3103 6.24178 96.3779 6.33772 96.4342 6.47795C96.4905 6.61817 96.5319 6.79529 96.5619 7.00931C96.5882 7.22702 96.6032 7.50009 96.6032 7.83219C96.6032 8.14215 96.5882 8.40784 96.5619 8.62186C96.5319 8.83957 96.4905 9.013 96.4342 9.14584C96.3779 9.27868 96.3103 9.37831 96.2314 9.43736C96.1525 9.50009 96.0624 9.52961 95.961 9.52961H88.1343V14.7953H94.7592C94.8606 14.7953 94.9545 14.8248 95.0409 14.8875C95.1273 14.9503 95.1949 15.0425 95.2512 15.1717C95.3075 15.3008 95.3488 15.4706 95.3789 15.6883C95.4052 15.906 95.4202 16.168 95.4202 16.4779C95.4202 16.799 95.4052 17.0647 95.3789 17.2787C95.3488 17.489 95.3075 17.6588 95.2512 17.7879C95.1949 17.9171 95.1235 18.0056 95.0409 18.061C94.9545 18.1163 94.8644 18.1458 94.7592 18.1458H88.1343V24.2233H96.0286C96.13 24.2233 96.2239 24.2529 96.3103 24.3156C96.3967 24.3783 96.4643 24.4743 96.5206 24.6071C96.5769 24.7399 96.6182 24.9134 96.6483 25.1311C96.6746 25.3414 96.6896 25.6108 96.6896 25.9318Z" fill="#071D49"/>
<path d="M116.527 24.3849C116.527 24.6617 116.52 24.8978 116.501 25.0934C116.486 25.289 116.46 25.455 116.426 25.5915C116.392 25.7318 116.347 25.8498 116.291 25.9495C116.234 26.0491 116.144 26.1635 116.02 26.289C115.896 26.4181 115.656 26.5805 115.299 26.7797C114.943 26.979 114.507 27.1709 113.996 27.3554C113.482 27.5399 112.896 27.6912 112.235 27.8129C111.574 27.9347 110.86 27.9974 110.09 27.9974C108.588 27.9974 107.232 27.7687 106.023 27.3148C104.814 26.8609 103.785 26.1783 102.94 25.2742C102.091 24.3701 101.441 23.241 100.99 21.8867C100.54 20.5325 100.314 18.9569 100.314 17.1598C100.314 15.3296 100.562 13.7022 101.062 12.2816C101.558 10.8609 102.252 9.66903 103.146 8.70225C104.04 7.73546 105.11 7.00483 106.357 6.50298C107.604 6.00483 108.982 5.75391 110.485 5.75391C111.093 5.75391 111.683 5.80557 112.246 5.9052C112.809 6.00483 113.331 6.13398 113.812 6.29634C114.293 6.4587 114.725 6.6432 115.108 6.85354C115.491 7.06387 115.761 7.24468 115.912 7.39597C116.065 7.54726 116.167 7.66903 116.223 7.77236C116.28 7.87199 116.325 8.00114 116.358 8.15612C116.392 8.3111 116.419 8.4956 116.434 8.70594C116.449 8.91627 116.46 9.17826 116.46 9.48822C116.46 9.82033 116.449 10.1045 116.426 10.3369C116.403 10.5694 116.362 10.7576 116.306 10.9015C116.25 11.0454 116.182 11.1524 116.103 11.2189C116.024 11.2853 115.934 11.3185 115.833 11.3185C115.664 11.3185 115.45 11.2225 115.19 11.027C114.931 10.8314 114.593 10.6174 114.184 10.3775C113.771 10.1377 113.279 9.92365 112.712 9.72808C112.141 9.5325 111.461 9.43656 110.669 9.43656C109.797 9.43656 109.024 9.60999 108.34 9.96055C107.657 10.3111 107.075 10.8093 106.594 11.4587C106.113 12.1081 105.749 12.8941 105.501 13.8129C105.253 14.7355 105.129 15.7724 105.129 16.9273C105.129 18.193 105.261 19.289 105.527 20.2152C105.794 21.1414 106.169 21.9052 106.661 22.503C107.153 23.1008 107.747 23.5473 108.442 23.8425C109.136 24.1377 109.918 24.2853 110.789 24.2853C111.581 24.2853 112.261 24.193 112.839 24.0122C113.414 23.8277 113.91 23.6284 114.323 23.4034C114.736 23.1819 115.074 22.9827 115.341 22.8056C115.607 22.6284 115.81 22.5399 115.96 22.5399C116.073 22.5399 116.163 22.562 116.231 22.6063C116.298 22.6506 116.355 22.7391 116.4 22.872C116.445 23.0048 116.479 23.193 116.501 23.4292C116.516 23.669 116.527 23.9864 116.527 24.3849Z" fill="#071D49"/>
<path d="M138.091 27.0482C138.091 27.1589 138.053 27.2585 137.982 27.3471C137.907 27.4356 137.787 27.5094 137.618 27.5648C137.449 27.6201 137.224 27.6644 136.942 27.6976C136.66 27.7308 136.303 27.7493 135.875 27.7493C135.436 27.7493 135.072 27.7345 134.782 27.6976C134.493 27.6644 134.268 27.6201 134.106 27.5648C133.941 27.5094 133.825 27.4356 133.75 27.3471C133.674 27.2585 133.641 27.1589 133.641 27.0482V18.3397H125.435V27.0482C125.435 27.1589 125.401 27.2585 125.333 27.3471C125.266 27.4356 125.145 27.5094 124.976 27.5648C124.807 27.6201 124.582 27.6644 124.3 27.6976C124.019 27.7308 123.658 27.7493 123.215 27.7493C122.787 27.7493 122.426 27.7345 122.141 27.6976C121.852 27.6644 121.623 27.6201 121.454 27.5648C121.285 27.5094 121.161 27.4356 121.089 27.3471C121.014 27.2585 120.98 27.1589 120.98 27.0482V6.70501C120.98 6.59431 121.018 6.49468 121.089 6.40612C121.161 6.31756 121.285 6.24376 121.454 6.18841C121.623 6.13306 121.852 6.08878 122.141 6.05557C122.43 6.02236 122.787 6.00391 123.215 6.00391C123.654 6.00391 124.019 6.01867 124.3 6.05557C124.582 6.09247 124.807 6.13306 124.976 6.18841C125.145 6.24376 125.266 6.31756 125.333 6.40612C125.401 6.49468 125.435 6.59431 125.435 6.70501V14.6128H133.637V6.70501C133.637 6.59431 133.674 6.49468 133.746 6.40612C133.817 6.31756 133.937 6.24376 134.103 6.18841C134.268 6.13306 134.493 6.08878 134.779 6.05557C135.068 6.02236 135.432 6.00391 135.871 6.00391C136.3 6.00391 136.656 6.01867 136.938 6.05557C137.22 6.09247 137.445 6.13306 137.614 6.18841C137.783 6.24376 137.903 6.31756 137.978 6.40612C138.053 6.49468 138.087 6.59431 138.087 6.70501V27.0482H138.091Z" fill="#071D49"/>
<path d="M162.201 26.1166C162.201 26.3712 162.156 26.6 162.065 26.7992C161.975 26.9985 161.855 27.1645 161.701 27.2974C161.547 27.4302 161.367 27.5262 161.16 27.5889C160.95 27.6479 160.74 27.6811 160.526 27.6811H158.629C158.235 27.6811 157.893 27.6442 157.604 27.5631C157.315 27.4856 157.052 27.3453 156.808 27.1387C156.563 26.9321 156.331 26.6553 156.105 26.3048C155.88 25.9542 155.625 25.504 155.343 24.9468L149.886 14.873C149.571 14.2752 149.248 13.6258 148.921 12.9321C148.594 12.2383 148.297 11.563 148.038 10.9099H148.004C148.049 11.7107 148.083 12.504 148.106 13.2974C148.128 14.0907 148.14 14.9099 148.14 15.7512V27.0206C148.14 27.1313 148.11 27.231 148.046 27.3195C147.982 27.4081 147.877 27.4819 147.723 27.5446C147.569 27.6073 147.362 27.6516 147.103 27.6848C146.844 27.718 146.51 27.7365 146.104 27.7365C145.71 27.7365 145.383 27.7217 145.12 27.6848C144.861 27.6516 144.658 27.6036 144.512 27.5446C144.365 27.4819 144.264 27.4081 144.207 27.3195C144.151 27.231 144.121 27.1313 144.121 27.0206V7.67006C144.121 7.14976 144.275 6.75862 144.587 6.49663C144.899 6.23463 145.278 6.10548 145.729 6.10548H148.117C148.545 6.10548 148.91 6.14238 149.202 6.21249C149.495 6.28629 149.758 6.40438 149.991 6.57043C150.224 6.73648 150.442 6.96895 150.645 7.26046C150.847 7.55567 151.058 7.91729 151.272 8.35272L155.542 16.2273C155.79 16.7033 156.034 17.1719 156.278 17.6332C156.522 18.0944 156.755 18.5557 156.98 19.0132C157.206 19.4745 157.427 19.9247 157.641 20.3712C157.855 20.814 158.066 21.2605 158.269 21.7033H158.284C158.25 20.9284 158.223 20.1166 158.208 19.2715C158.193 18.4265 158.182 17.6221 158.182 16.8583V6.75124C158.182 6.64054 158.216 6.54091 158.284 6.45235C158.351 6.36379 158.464 6.28629 158.622 6.21987C158.779 6.15345 158.99 6.10548 159.249 6.07965C159.508 6.05382 159.842 6.03906 160.248 6.03906C160.631 6.03906 160.954 6.05382 161.213 6.07965C161.472 6.10917 161.671 6.15345 161.814 6.21987C161.957 6.28629 162.054 6.36379 162.111 6.45235C162.167 6.54091 162.197 6.64054 162.197 6.75124V26.1166H162.201Z" fill="#071D49"/>
<path d="M187.949 16.6267C187.949 18.4127 187.723 20.0105 187.273 21.4201C186.822 22.8297 186.15 24.0252 185.256 25.0068C184.362 25.9883 183.258 26.7374 181.943 27.254C180.629 27.7706 179.104 28.0289 177.377 28.0289C175.672 28.0289 174.181 27.8112 172.911 27.3721C171.642 26.933 170.583 26.2651 169.734 25.3647C168.885 24.4643 168.25 23.3241 167.826 21.9367C167.402 20.5492 167.191 18.9072 167.191 17.0105C167.191 15.2688 167.417 13.7005 167.867 12.3057C168.318 10.9145 168.99 9.72635 169.884 8.75218C170.778 7.77432 171.878 7.02524 173.197 6.50494C174.511 5.98465 176.04 5.72266 177.778 5.72266C179.438 5.72266 180.903 5.94037 182.176 6.3721C183.446 6.80384 184.509 7.47173 185.361 8.36841C186.214 9.26878 186.86 10.4016 187.291 11.7743C187.731 13.1433 187.949 14.7632 187.949 16.6267ZM183.273 16.8592C183.273 15.7263 183.183 14.6968 183.003 13.7706C182.822 12.8444 182.514 12.0511 182.079 11.3906C181.643 10.73 181.065 10.2208 180.34 9.85919C179.615 9.49756 178.714 9.31675 177.628 9.31675C176.532 9.31675 175.619 9.5197 174.883 9.92561C174.147 10.3315 173.553 10.8703 173.103 11.5492C172.648 12.2245 172.333 13.0179 172.145 13.9219C171.957 14.826 171.867 15.7854 171.867 16.7928C171.867 17.9699 171.957 19.0252 172.138 19.9625C172.318 20.8998 172.622 21.7005 173.054 22.3684C173.486 23.0363 174.06 23.5418 174.782 23.8924C175.506 24.2429 176.415 24.4164 177.512 24.4164C178.608 24.4164 179.521 24.2171 180.257 23.8186C180.993 23.4201 181.583 22.8739 182.037 22.1876C182.488 21.5013 182.807 20.6968 182.995 19.7817C183.183 18.8666 183.273 17.8924 183.273 16.8592Z" fill="#071D49"/>
<path d="M204.992 25.8157C204.992 26.1478 204.976 26.4283 204.95 26.657C204.92 26.8858 204.879 27.074 204.822 27.2216C204.766 27.3729 204.695 27.4799 204.612 27.5463C204.526 27.6128 204.428 27.646 204.315 27.646H194.269C193.897 27.646 193.582 27.539 193.33 27.3212C193.075 27.1035 192.947 26.753 192.947 26.2659V6.70501C192.947 6.59431 192.985 6.49468 193.056 6.40612C193.128 6.31756 193.251 6.24376 193.42 6.18841C193.589 6.13306 193.819 6.08878 194.108 6.05557C194.397 6.02236 194.754 6.00391 195.182 6.00391C195.621 6.00391 195.986 6.01867 196.267 6.05557C196.549 6.09247 196.774 6.13306 196.943 6.18841C197.112 6.24376 197.232 6.31756 197.308 6.40612C197.379 6.49468 197.416 6.59431 197.416 6.70501V24.0371H204.312C204.424 24.0371 204.522 24.0666 204.608 24.1294C204.691 24.1921 204.762 24.2917 204.819 24.4283C204.875 24.5685 204.916 24.7493 204.946 24.9781C204.976 25.2032 204.992 25.4836 204.992 25.8157Z" fill="#071D49"/>
<path d="M227.98 16.6267C227.98 18.4127 227.755 20.0105 227.304 21.4201C226.853 22.8297 226.181 24.0252 225.287 25.0068C224.393 25.9883 223.289 26.7374 221.975 27.254C220.656 27.7706 219.135 28.0289 217.408 28.0289C215.703 28.0289 214.216 27.8112 212.942 27.3721C211.673 26.933 210.614 26.2651 209.765 25.3647C208.916 24.4643 208.282 23.3241 207.857 21.9367C207.433 20.5492 207.223 18.9072 207.223 17.0105C207.223 15.2688 207.448 13.7005 207.899 12.3057C208.349 10.9145 209.022 9.72635 209.915 8.75218C210.809 7.77432 211.913 7.02524 213.228 6.50494C214.542 5.98465 216.071 5.72266 217.813 5.72266C219.473 5.72266 220.938 5.94037 222.211 6.3721C223.481 6.80384 224.544 7.47173 225.396 8.36841C226.249 9.26878 226.891 10.4016 227.326 11.7743C227.762 13.1433 227.98 14.7632 227.98 16.6267ZM223.304 16.8592C223.304 15.7263 223.214 14.6968 223.034 13.7706C222.854 12.8444 222.546 12.0511 222.11 11.3906C221.674 10.73 221.096 10.2208 220.375 9.85919C219.65 9.49756 218.749 9.31675 217.663 9.31675C216.567 9.31675 215.65 9.5197 214.918 9.92561C214.182 10.3315 213.588 10.8703 213.138 11.5492C212.687 12.2245 212.368 13.0179 212.18 13.9219C211.992 14.826 211.902 15.7854 211.902 16.7928C211.902 17.9699 211.992 19.0252 212.173 19.9625C212.353 20.8998 212.657 21.7005 213.089 22.3684C213.517 23.0326 214.095 23.5418 214.816 23.8924C215.538 24.2429 216.45 24.4164 217.543 24.4164C218.636 24.4164 219.552 24.2171 220.288 23.8186C221.025 23.4201 221.618 22.8739 222.069 22.1876C222.519 21.5013 222.838 20.6968 223.026 19.7817C223.214 18.8666 223.304 17.8924 223.304 16.8592Z" fill="#071D49"/>
<path d="M250.561 9.45046C250.561 9.77149 250.546 10.0482 250.519 10.2844C250.493 10.5169 250.452 10.7051 250.399 10.8416C250.35 10.9818 250.287 11.0778 250.212 11.1331C250.136 11.1885 250.05 11.218 249.949 11.218C249.802 11.218 249.566 11.1184 249.239 10.9191C248.912 10.7198 248.476 10.5021 247.936 10.2696C247.395 10.0372 246.745 9.81946 245.998 9.6202C245.247 9.42094 244.375 9.32131 243.38 9.32131C242.317 9.32131 241.36 9.50212 240.5 9.86374C239.639 10.2254 238.907 10.7346 238.295 11.3951C237.683 12.0556 237.217 12.849 236.887 13.7752C236.56 14.7014 236.395 15.7272 236.395 16.8453C236.395 18.0778 236.564 19.1626 236.894 20.0999C237.228 21.0372 237.694 21.8232 238.291 22.4541C238.888 23.0851 239.609 23.5648 240.451 23.8859C241.292 24.2069 242.22 24.3693 243.237 24.3693C243.733 24.3693 244.225 24.3139 244.71 24.2032C245.194 24.0925 245.648 23.9265 246.065 23.7051V18.7088H241.915C241.713 18.7088 241.555 18.5833 241.442 18.3324C241.33 18.0815 241.273 17.6571 241.273 17.0593C241.273 16.7494 241.288 16.4874 241.314 16.277C241.341 16.0667 241.386 15.897 241.442 15.7678C241.499 15.6386 241.566 15.5464 241.645 15.4837C241.724 15.4246 241.814 15.3914 241.915 15.3914H249.321C249.502 15.3914 249.663 15.4209 249.806 15.4837C249.949 15.5464 250.073 15.635 250.178 15.7567C250.287 15.8785 250.366 16.0261 250.422 16.1995C250.478 16.373 250.508 16.5685 250.508 16.7899V25.3619C250.508 25.694 250.448 25.9855 250.332 26.2364C250.215 26.4874 249.971 26.6829 249.603 26.8268C249.235 26.9708 248.781 27.122 248.24 27.277C247.699 27.432 247.136 27.5648 246.554 27.6755C245.971 27.7862 245.386 27.8711 244.792 27.9265C244.199 27.9818 243.602 28.0113 243.005 28.0113C241.254 28.0113 239.685 27.7641 238.302 27.2696C236.92 26.7752 235.749 26.0593 234.787 25.122C233.826 24.1848 233.093 23.0409 232.583 21.694C232.076 20.3471 231.82 18.8158 231.82 17.1073C231.82 15.3434 232.091 13.7567 232.632 12.3545C233.176 10.9523 233.942 9.75673 234.937 8.77518C235.933 7.79363 237.131 7.04086 238.539 6.52057C239.944 6.00027 241.514 5.73828 243.241 5.73828C244.191 5.73828 245.055 5.80101 245.832 5.93016C246.614 6.05931 247.293 6.2143 247.876 6.39511C248.458 6.57961 248.938 6.77518 249.325 6.98551C249.708 7.19585 249.979 7.38035 250.129 7.53533C250.283 7.69031 250.392 7.91171 250.459 8.19216C250.527 8.47629 250.561 8.89695 250.561 9.45046Z" fill="#071D49"/>
<path d="M260.807 27.0482C260.807 27.1589 260.769 27.2585 260.698 27.3471C260.623 27.4356 260.503 27.5094 260.334 27.5648C260.165 27.6201 259.939 27.6644 259.658 27.6976C259.376 27.7308 259.015 27.7493 258.572 27.7493C258.144 27.7493 257.784 27.7345 257.494 27.6976C257.205 27.6607 256.976 27.6201 256.807 27.5648C256.638 27.5094 256.514 27.4356 256.443 27.3471C256.368 27.2585 256.334 27.1589 256.334 27.0482V6.70501C256.334 6.59431 256.372 6.49468 256.443 6.40612C256.514 6.31756 256.642 6.24376 256.815 6.18841C256.991 6.13306 257.22 6.08878 257.502 6.05557C257.784 6.02236 258.14 6.00391 258.569 6.00391C259.008 6.00391 259.368 6.01867 259.654 6.05557C259.939 6.09247 260.161 6.13306 260.33 6.18841C260.499 6.24376 260.623 6.31756 260.694 6.40612C260.766 6.49468 260.803 6.59431 260.803 6.70501V27.0482H260.807Z" fill="#071D49"/>
<path d="M282 24.3849C282 24.6617 281.993 24.8978 281.974 25.0934C281.959 25.289 281.932 25.455 281.899 25.5915C281.865 25.7318 281.82 25.8498 281.763 25.9495C281.707 26.0491 281.617 26.1635 281.493 26.289C281.369 26.4181 281.129 26.5805 280.772 26.7797C280.415 26.979 279.98 27.1709 279.469 27.3554C278.958 27.5399 278.368 27.6912 277.707 27.8129C277.046 27.9347 276.333 27.9974 275.563 27.9974C274.061 27.9974 272.705 27.7687 271.496 27.3148C270.286 26.8609 269.257 26.1783 268.412 25.2742C267.564 24.3701 266.914 23.241 266.463 21.8867C266.012 20.5325 265.787 18.9569 265.787 17.1598C265.787 15.3296 266.035 13.7022 266.534 12.2816C267.03 10.8609 267.725 9.66903 268.619 8.70225C269.513 7.73546 270.579 7.00483 271.83 6.50298C273.08 6.00114 274.455 5.75391 275.957 5.75391C276.569 5.75391 277.155 5.80557 277.719 5.9052C278.282 6.00483 278.804 6.13398 279.285 6.29634C279.765 6.4587 280.197 6.6432 280.58 6.85354C280.963 7.06387 281.234 7.24468 281.384 7.39597C281.538 7.54726 281.643 7.66903 281.7 7.77236C281.756 7.87199 281.801 8.00114 281.835 8.15612C281.869 8.3111 281.895 8.4956 281.91 8.70594C281.925 8.91627 281.936 9.17826 281.936 9.48822C281.936 9.82033 281.925 10.1045 281.902 10.3369C281.88 10.5694 281.839 10.7576 281.782 10.9015C281.726 11.0454 281.658 11.1524 281.579 11.2189C281.501 11.2853 281.41 11.3185 281.309 11.3185C281.14 11.3185 280.926 11.2225 280.667 11.027C280.408 10.8314 280.07 10.6174 279.657 10.3775C279.243 10.1377 278.751 9.92365 278.184 9.72808C277.613 9.5325 276.934 9.43656 276.141 9.43656C275.27 9.43656 274.496 9.60999 273.813 9.96055C273.129 10.3111 272.547 10.8093 272.066 11.4587C271.586 12.1081 271.221 12.8941 270.974 13.8129C270.726 14.7355 270.602 15.7724 270.602 16.9273C270.602 18.193 270.733 19.289 271 20.2152C271.267 21.1414 271.642 21.9052 272.134 22.503C272.626 23.1008 273.219 23.5473 273.914 23.8425C274.609 24.1377 275.39 24.2853 276.261 24.2853C277.054 24.2853 277.734 24.193 278.312 24.0122C278.887 23.8277 279.382 23.6284 279.795 23.4034C280.209 23.1819 280.547 22.9827 280.813 22.8056C281.08 22.6284 281.286 22.5399 281.433 22.5399C281.546 22.5399 281.636 22.562 281.703 22.6063C281.771 22.6506 281.827 22.7391 281.872 22.872C281.917 23.0048 281.951 23.193 281.974 23.4292C281.989 23.669 282 23.9864 282 24.3849Z" fill="#071D49"/>
<path fill-rule="evenodd" clip-rule="evenodd" d="M27.9868 0C43.4449 0 55.9736 12.3137 55.9736 27.5018C55.9736 42.69 43.4411 55 27.9868 55C12.5325 55 0 42.6863 0 27.5018C0 12.3137 12.5325 0 27.9868 0Z" fill="#FFC600"/>
<path fill-rule="evenodd" clip-rule="evenodd" d="M34.435 25.4504L38.0328 27.4909L27.2392 33.6127L23.6413 31.5721C27.2355 29.5315 30.8371 27.4909 34.435 25.4504ZM16.4418 27.4909L30.8371 19.3249C28.4372 17.9633 26.0374 16.6053 23.6413 15.2437L27.2392 13.2031L45.2323 23.4098L41.6344 25.4504L34.435 21.3655L20.0397 29.5315L16.4418 27.4909ZM23.6376 19.3249L12.844 25.4504L9.24609 23.4098L20.0397 17.288L23.6376 19.3249ZM9.24609 31.5943L27.2392 41.8009L45.2323 31.5943L41.6232 29.5463L27.2392 37.705L12.8552 29.5463L9.24609 31.5943Z" fill="#071D49"/>
<path d="M73.2832 45.2378C73.334 45.3901 73.3657 45.5107 73.3784 45.5996C73.3911 45.6885 73.3742 45.7562 73.3276 45.8027C73.2811 45.8451 73.1986 45.8704 73.0801 45.8789C72.9616 45.8916 72.7987 45.8979 72.5913 45.8979C72.3755 45.8979 72.2062 45.8937 72.0835 45.8853C71.965 45.881 71.874 45.8704 71.8105 45.8535C71.7471 45.8324 71.7026 45.8049 71.6772 45.771C71.6519 45.7371 71.6307 45.6927 71.6138 45.6377L71.0615 43.9873H67.9766L67.4561 45.5933C67.4391 45.6525 67.4159 45.7033 67.3862 45.7456C67.3608 45.7837 67.3164 45.8154 67.2529 45.8408C67.1937 45.862 67.1069 45.8768 66.9927 45.8853C66.8826 45.8937 66.7367 45.8979 66.5547 45.8979C66.36 45.8979 66.2077 45.8916 66.0977 45.8789C65.9876 45.8662 65.9115 45.8366 65.8691 45.79C65.8268 45.7393 65.812 45.6694 65.8247 45.5806C65.8374 45.4917 65.8691 45.3732 65.9199 45.2251L68.4526 37.938C68.478 37.866 68.5076 37.8089 68.5415 37.7666C68.5754 37.7201 68.6283 37.6862 68.7002 37.665C68.7764 37.6396 68.88 37.6248 69.0112 37.6206C69.1424 37.6121 69.3159 37.6079 69.5317 37.6079C69.7814 37.6079 69.9803 37.6121 70.1284 37.6206C70.2765 37.6248 70.3908 37.6396 70.4712 37.665C70.5558 37.6862 70.6151 37.7201 70.6489 37.7666C70.687 37.8132 70.7188 37.8766 70.7441 37.957L73.2832 45.2378ZM69.5127 39.2139H69.5063L68.3447 42.7051H70.6743L69.5127 39.2139Z" fill="#071D49"/>
<path d="M80.9131 42.8003C80.9131 43.3039 80.839 43.7546 80.6909 44.1523C80.5428 44.5501 80.3249 44.8866 80.0371 45.1616C79.7493 45.4367 79.3939 45.6462 78.9707 45.79C78.5475 45.9339 78.0609 46.0059 77.5107 46.0059C76.9945 46.0059 76.5311 45.9424 76.1206 45.8154C75.7101 45.6842 75.3631 45.4875 75.0796 45.2251C74.7961 44.9627 74.5781 44.6369 74.4258 44.2476C74.2777 43.854 74.2036 43.3949 74.2036 42.8701V37.8745C74.2036 37.8322 74.2163 37.7941 74.2417 37.7603C74.2671 37.7264 74.3115 37.6989 74.375 37.6777C74.4427 37.6566 74.5295 37.6396 74.6353 37.627C74.741 37.6143 74.8765 37.6079 75.0415 37.6079C75.2023 37.6079 75.3356 37.6143 75.4414 37.627C75.5472 37.6396 75.6318 37.6566 75.6953 37.6777C75.7588 37.6989 75.8032 37.7264 75.8286 37.7603C75.8582 37.7941 75.873 37.8322 75.873 37.8745V42.7241C75.873 43.05 75.9132 43.3335 75.9937 43.5747C76.0741 43.8117 76.1883 44.0085 76.3364 44.165C76.4888 44.3216 76.6686 44.4401 76.876 44.5205C77.0876 44.5967 77.3224 44.6348 77.5806 44.6348C77.8429 44.6348 78.0778 44.5946 78.2852 44.5142C78.4925 44.4338 78.6681 44.3174 78.812 44.165C78.9559 44.0085 79.0659 43.818 79.1421 43.5938C79.2225 43.3652 79.2627 43.1071 79.2627 42.8193V37.8745C79.2627 37.8322 79.2754 37.7941 79.3008 37.7603C79.3262 37.7264 79.3706 37.6989 79.4341 37.6777C79.4976 37.6566 79.5822 37.6396 79.688 37.627C79.798 37.6143 79.9334 37.6079 80.0942 37.6079C80.255 37.6079 80.3862 37.6143 80.4878 37.627C80.5936 37.6396 80.6782 37.6566 80.7417 37.6777C80.8052 37.6989 80.8496 37.7264 80.875 37.7603C80.9004 37.7941 80.9131 37.8322 80.9131 37.8745V42.8003Z" fill="#071D49"/>
<path d="M88.1685 38.3315C88.1685 38.4543 88.1621 38.5601 88.1494 38.6489C88.141 38.7336 88.1261 38.8034 88.105 38.8584C88.0838 38.9092 88.0563 38.9473 88.0225 38.9727C87.9928 38.998 87.959 39.0107 87.9209 39.0107H85.8643V45.6313C85.8643 45.6737 85.8494 45.7118 85.8198 45.7456C85.7944 45.7795 85.75 45.807 85.6865 45.8281C85.623 45.8493 85.5363 45.8662 85.4263 45.8789C85.3205 45.8916 85.1872 45.8979 85.0264 45.8979C84.8656 45.8979 84.7301 45.8916 84.6201 45.8789C84.5143 45.8662 84.4297 45.8493 84.3662 45.8281C84.3027 45.807 84.2562 45.7795 84.2266 45.7456C84.2012 45.7118 84.1885 45.6737 84.1885 45.6313V39.0107H82.1318C82.0895 39.0107 82.0535 38.998 82.0239 38.9727C81.9943 38.9473 81.9689 38.9092 81.9478 38.8584C81.9266 38.8034 81.9097 38.7336 81.897 38.6489C81.8885 38.5601 81.8843 38.4543 81.8843 38.3315C81.8843 38.2046 81.8885 38.0967 81.897 38.0078C81.9097 37.9189 81.9266 37.8491 81.9478 37.7983C81.9689 37.7433 81.9943 37.7052 82.0239 37.6841C82.0535 37.6587 82.0895 37.646 82.1318 37.646H87.9209C87.959 37.646 87.9928 37.6587 88.0225 37.6841C88.0563 37.7052 88.0838 37.7433 88.105 37.7983C88.1261 37.8491 88.141 37.9189 88.1494 38.0078C88.1621 38.0967 88.1685 38.2046 88.1685 38.3315Z" fill="#071D49"/>
<path d="M96.1729 41.6577C96.1729 42.339 96.0882 42.9484 95.9189 43.4858C95.7497 44.0233 95.4979 44.4803 95.1636 44.8569C94.8293 45.2293 94.4146 45.515 93.9194 45.7139C93.4285 45.9085 92.8594 46.0059 92.2119 46.0059C91.5729 46.0059 91.0143 45.9233 90.5361 45.7583C90.0622 45.589 89.6665 45.333 89.3491 44.9902C89.0317 44.6475 88.7926 44.2116 88.6318 43.6826C88.4753 43.1536 88.397 42.5273 88.397 41.8037C88.397 41.1393 88.4816 40.5426 88.6509 40.0137C88.8202 39.4805 89.0719 39.0277 89.4062 38.6553C89.7406 38.2829 90.1532 37.9972 90.644 37.7983C91.1392 37.5994 91.7126 37.5 92.3643 37.5C92.9863 37.5 93.5343 37.5825 94.0083 37.7476C94.4865 37.9126 94.8843 38.1665 95.2017 38.5093C95.5233 38.8521 95.7645 39.2858 95.9253 39.8105C96.0903 40.3311 96.1729 40.9468 96.1729 41.6577ZM94.4209 41.7466C94.4209 41.3149 94.387 40.9235 94.3193 40.5723C94.2516 40.2168 94.1353 39.9142 93.9702 39.6646C93.8094 39.4106 93.5936 39.216 93.3228 39.0806C93.0519 38.9409 92.7134 38.8711 92.3071 38.8711C91.8966 38.8711 91.5539 38.9494 91.2788 39.106C91.0037 39.2583 90.7816 39.4635 90.6123 39.7217C90.443 39.9798 90.3224 40.2824 90.2505 40.6294C90.1828 40.9722 90.1489 41.3361 90.1489 41.7212C90.1489 42.1698 90.1828 42.5739 90.2505 42.9336C90.3182 43.2891 90.4325 43.5938 90.5933 43.8477C90.7541 44.1016 90.9699 44.2962 91.2407 44.4316C91.5116 44.5628 91.8522 44.6284 92.2627 44.6284C92.6732 44.6284 93.016 44.5522 93.291 44.3999C93.5661 44.2476 93.7882 44.0402 93.9575 43.7778C94.1268 43.5155 94.2453 43.2108 94.313 42.8638C94.3849 42.5125 94.4209 42.1401 94.4209 41.7466Z" fill="#071D49"/>
<path d="M102.203 45.6313C102.203 45.6737 102.188 45.7118 102.159 45.7456C102.133 45.7795 102.089 45.807 102.025 45.8281C101.962 45.8493 101.877 45.8662 101.771 45.8789C101.666 45.8916 101.53 45.8979 101.365 45.8979C101.204 45.8979 101.069 45.8916 100.959 45.8789C100.853 45.8662 100.769 45.8493 100.705 45.8281C100.642 45.807 100.595 45.7795 100.565 45.7456C100.54 45.7118 100.527 45.6737 100.527 45.6313V37.8745C100.527 37.8322 100.54 37.7941 100.565 37.7603C100.595 37.7264 100.642 37.6989 100.705 37.6777C100.773 37.6566 100.86 37.6396 100.965 37.627C101.071 37.6143 101.204 37.6079 101.365 37.6079C101.53 37.6079 101.666 37.6143 101.771 37.627C101.877 37.6396 101.962 37.6566 102.025 37.6777C102.089 37.6989 102.133 37.7264 102.159 37.7603C102.188 37.7941 102.203 37.8322 102.203 37.8745V45.6313Z" fill="#071D49"/>
<path d="M110.817 41.6323C110.817 42.3856 110.717 43.0309 110.519 43.5684C110.324 44.1016 110.042 44.5374 109.674 44.876C109.306 45.2145 108.858 45.4642 108.329 45.625C107.804 45.7816 107.178 45.8599 106.45 45.8599H104.488C104.349 45.8599 104.23 45.8197 104.133 45.7393C104.04 45.6546 103.993 45.5192 103.993 45.333V38.1729C103.993 37.9867 104.04 37.8534 104.133 37.7729C104.23 37.6883 104.349 37.646 104.488 37.646H106.596C107.328 37.646 107.948 37.7327 108.456 37.9062C108.968 38.0755 109.397 38.3294 109.744 38.668C110.095 39.0023 110.362 39.417 110.544 39.9121C110.726 40.4072 110.817 40.9806 110.817 41.6323ZM109.09 41.6895C109.09 41.3001 109.044 40.9383 108.951 40.604C108.862 40.2697 108.716 39.9798 108.513 39.7344C108.314 39.4889 108.056 39.2985 107.738 39.1631C107.425 39.0234 107.013 38.9536 106.5 38.9536H105.656V44.5396H106.526C106.983 44.5396 107.368 44.4803 107.681 44.3618C107.994 44.2433 108.255 44.0656 108.462 43.8286C108.674 43.5874 108.83 43.2891 108.932 42.9336C109.037 42.5781 109.09 42.1634 109.09 41.6895Z" fill="#071D49"/>
<path d="M120.352 43.4779C120.352 43.917 120.27 44.3007 120.104 44.6292C119.939 44.9613 119.714 45.2343 119.428 45.4557C119.143 45.6771 118.812 45.8432 118.433 45.9539C118.054 46.0646 117.648 46.1199 117.212 46.1199C116.92 46.1199 116.649 46.0978 116.398 46.0498C116.146 46.0018 115.924 45.9465 115.733 45.8801C115.541 45.8137 115.38 45.7435 115.252 45.6697C115.124 45.5959 115.03 45.5332 114.974 45.4779C114.918 45.4225 114.876 45.3413 114.854 45.238C114.831 45.131 114.816 44.9797 114.816 44.7841C114.816 44.6513 114.82 44.5406 114.831 44.4483C114.839 44.3598 114.854 44.286 114.873 44.2306C114.892 44.1753 114.918 44.1347 114.952 44.1125C114.985 44.0904 115.023 44.0756 115.068 44.0756C115.128 44.0756 115.214 44.1125 115.327 44.1827C115.44 44.2528 115.583 44.3303 115.755 44.4188C115.928 44.5037 116.138 44.5849 116.382 44.655C116.627 44.7251 116.905 44.762 117.224 44.762C117.434 44.762 117.622 44.7362 117.787 44.6882C117.952 44.6402 118.095 44.5701 118.211 44.4779C118.328 44.3893 118.414 44.2749 118.478 44.1421C118.538 44.0092 118.568 43.8616 118.568 43.6956C118.568 43.5074 118.516 43.345 118.411 43.2085C118.305 43.072 118.17 42.9539 118.001 42.8469C117.832 42.7399 117.641 42.6439 117.427 42.5517C117.212 42.4594 116.991 42.3635 116.766 42.2601C116.536 42.1568 116.319 42.0387 116.105 41.9096C115.891 41.7804 115.699 41.6218 115.53 41.441C115.361 41.2601 115.226 41.0424 115.121 40.7952C115.015 40.548 114.963 40.2491 114.963 39.8985C114.963 39.5 115.038 39.1494 115.188 38.8469C115.338 38.5443 115.541 38.2934 115.797 38.0941C116.052 37.8948 116.352 37.7472 116.702 37.6476C117.051 37.548 117.419 37.5 117.806 37.5C118.009 37.5 118.208 37.5148 118.411 37.5443C118.613 37.5738 118.801 37.6144 118.974 37.6661C119.147 37.7177 119.304 37.7768 119.44 37.8395C119.575 37.9022 119.665 37.9576 119.71 38.0018C119.755 38.0461 119.781 38.083 119.8 38.1125C119.815 38.1421 119.83 38.1827 119.838 38.2306C119.845 38.2786 119.856 38.3413 119.86 38.4188C119.864 38.4926 119.868 38.5886 119.868 38.6993C119.868 38.8247 119.864 38.928 119.856 39.0129C119.849 39.0978 119.838 39.1679 119.823 39.2269C119.808 39.2823 119.785 39.3229 119.759 39.3487C119.729 39.3745 119.691 39.3856 119.642 39.3856C119.594 39.3856 119.518 39.3561 119.413 39.297C119.308 39.238 119.18 39.1716 119.026 39.1015C118.872 39.0314 118.696 38.9649 118.497 38.9096C118.294 38.8506 118.076 38.821 117.836 38.821C117.648 38.821 117.483 38.8432 117.344 38.8875C117.205 38.9317 117.089 38.9945 116.995 39.0756C116.901 39.1568 116.829 39.2491 116.784 39.3635C116.739 39.4742 116.717 39.5923 116.717 39.7177C116.717 39.9022 116.769 40.0609 116.871 40.1974C116.972 40.334 117.111 40.452 117.284 40.559C117.457 40.6661 117.652 40.762 117.87 40.8542C118.088 40.9465 118.309 41.0424 118.538 41.1458C118.764 41.2491 118.989 41.3672 119.207 41.4963C119.425 41.6292 119.62 41.7841 119.789 41.9649C119.958 42.1458 120.097 42.3635 120.202 42.6107C120.307 42.8579 120.352 43.1421 120.352 43.4779Z" fill="#071D49"/>
<path d="M130.377 41.7214C130.377 42.4114 130.291 43.0314 130.114 43.5775C129.938 44.1236 129.679 44.5849 129.333 44.9649C128.988 45.345 128.56 45.6365 128.053 45.8358C127.546 46.035 126.956 46.1347 126.287 46.1347C125.626 46.1347 125.052 46.0498 124.56 45.8801C124.068 45.7103 123.659 45.452 123.332 45.1052C123.005 44.7583 122.757 44.3155 122.596 43.7768C122.43 43.2417 122.352 42.6033 122.352 41.869C122.352 41.1937 122.438 40.5886 122.614 40.0498C122.787 39.5111 123.05 39.0535 123.396 38.6734C123.741 38.297 124.169 38.0055 124.676 37.8026C125.183 37.5996 125.777 37.5 126.449 37.5C127.091 37.5 127.658 37.5849 128.15 37.7509C128.642 37.917 129.052 38.1753 129.382 38.5221C129.713 38.869 129.96 39.3081 130.129 39.8395C130.291 40.3745 130.377 40.9982 130.377 41.7214ZM128.567 41.81C128.567 41.3708 128.533 40.9723 128.462 40.6144C128.391 40.2565 128.274 39.9502 128.105 39.6919C127.936 39.4373 127.715 39.238 127.433 39.0978C127.151 38.9576 126.802 38.8875 126.385 38.8875C125.961 38.8875 125.608 38.9649 125.322 39.1236C125.037 39.2786 124.808 39.4889 124.635 39.7509C124.462 40.0129 124.338 40.3192 124.263 40.6697C124.192 41.0203 124.154 41.3893 124.154 41.7804C124.154 42.2343 124.188 42.6439 124.259 43.0092C124.331 43.3708 124.447 43.6808 124.612 43.9391C124.778 44.1974 125.003 44.393 125.281 44.5295C125.559 44.666 125.912 44.7325 126.336 44.7325C126.761 44.7325 127.114 44.655 127.399 44.5C127.685 44.345 127.914 44.1347 128.086 43.869C128.259 43.6033 128.383 43.2934 128.458 42.9391C128.53 42.5886 128.567 42.2122 128.567 41.81Z" fill="#071D49"/>
<path d="M137.04 45.1679C137.04 45.297 137.036 45.4041 137.025 45.4926C137.013 45.5812 136.998 45.655 136.976 45.7103C136.953 45.7694 136.927 45.81 136.893 45.8358C136.859 45.8616 136.822 45.8727 136.777 45.8727H132.89C132.747 45.8727 132.623 45.8321 132.525 45.7472C132.428 45.6624 132.379 45.5258 132.379 45.3376V37.7694C132.379 37.7251 132.394 37.6882 132.42 37.655C132.45 37.6218 132.495 37.5923 132.563 37.5701C132.627 37.548 132.717 37.5295 132.83 37.5184C132.942 37.5037 133.081 37.5 133.246 37.5C133.415 37.5 133.558 37.5074 133.667 37.5184C133.776 37.5295 133.862 37.548 133.93 37.5701C133.994 37.5923 134.043 37.6181 134.073 37.655C134.103 37.6882 134.114 37.7288 134.114 37.7694V44.4742H136.78C136.826 44.4742 136.863 44.4852 136.897 44.5111C136.931 44.5332 136.957 44.5738 136.979 44.6255C137.002 44.6808 137.017 44.7509 137.028 44.8395C137.036 44.9317 137.04 45.0387 137.04 45.1679Z" fill="#071D49"/>
<path d="M145.964 42.7731C145.964 43.2823 145.889 43.7399 145.735 44.1458C145.581 44.548 145.356 44.8911 145.059 45.1679C144.763 45.4483 144.395 45.6587 143.959 45.8063C143.523 45.9539 143.02 46.024 142.453 46.024C141.92 46.024 141.443 45.9576 141.018 45.8284C140.594 45.6993 140.237 45.5 139.944 45.2343C139.651 44.9686 139.426 44.6365 139.272 44.238C139.118 43.8395 139.039 43.3745 139.039 42.8432V37.7731C139.039 37.7288 139.054 37.6919 139.077 37.6587C139.103 37.6255 139.152 37.5959 139.219 37.5738C139.287 37.5517 139.377 37.5332 139.486 37.5221C139.595 37.5074 139.734 37.5037 139.907 37.5037C140.072 37.5037 140.211 37.5111 140.32 37.5221C140.429 37.5332 140.515 37.5517 140.583 37.5738C140.646 37.5959 140.695 37.6218 140.725 37.6587C140.755 37.6919 140.767 37.7325 140.767 37.7731V42.6919C140.767 43.024 140.808 43.3081 140.891 43.5517C140.973 43.7952 141.093 43.9945 141.247 44.1531C141.401 44.3118 141.589 44.4299 141.803 44.5111C142.021 44.5923 142.261 44.6292 142.528 44.6292C142.798 44.6292 143.043 44.5886 143.257 44.5074C143.471 44.4262 143.651 44.3081 143.801 44.1494C143.948 43.9945 144.064 43.7989 144.147 43.5701C144.229 43.3413 144.267 43.0793 144.267 42.7878V37.7694C144.267 37.7251 144.282 37.6882 144.308 37.655C144.334 37.6218 144.38 37.5923 144.447 37.5701C144.515 37.548 144.601 37.5295 144.714 37.5184C144.826 37.5037 144.965 37.5 145.131 37.5C145.296 37.5 145.431 37.5074 145.54 37.5184C145.649 37.5295 145.735 37.548 145.799 37.5701C145.863 37.5923 145.912 37.6181 145.938 37.655C145.964 37.6882 145.976 37.7288 145.976 37.7694V42.7731H145.964Z" fill="#071D49"/>
<path d="M154.47 38.1937C154.47 38.3192 154.466 38.4262 154.455 38.5111C154.444 38.5996 154.429 38.6697 154.406 38.7251C154.384 38.7804 154.357 38.8173 154.324 38.8432C154.29 38.869 154.256 38.8801 154.215 38.8801H152.089V45.5959C152.089 45.6402 152.074 45.6771 152.048 45.7103C152.021 45.7435 151.973 45.7731 151.905 45.7952C151.841 45.8173 151.751 45.8321 151.638 45.8469C151.526 45.8616 151.387 45.8653 151.221 45.8653C151.056 45.8653 150.917 45.8579 150.805 45.8469C150.696 45.8321 150.605 45.8173 150.538 45.7952C150.47 45.7731 150.425 45.7472 150.395 45.7103C150.369 45.6771 150.354 45.6365 150.354 45.5959V38.8801H148.232C148.187 38.8801 148.153 38.8653 148.119 38.8432C148.089 38.8173 148.063 38.7768 148.04 38.7251C148.018 38.6734 148.003 38.5996 147.992 38.5111C147.98 38.4225 147.977 38.3155 147.977 38.1937C147.977 38.0646 147.984 37.9539 147.992 37.8653C147.999 37.7768 148.018 37.703 148.04 37.6513C148.063 37.5996 148.089 37.559 148.119 37.5369C148.149 37.5148 148.187 37.5 148.232 37.5H154.211C154.248 37.5 154.286 37.5111 154.32 37.5369C154.354 37.559 154.38 37.5996 154.402 37.6513C154.425 37.7066 154.44 37.7768 154.451 37.8653C154.462 37.9539 154.47 38.0646 154.47 38.1937Z" fill="#071D49"/>
<path d="M158.204 45.6402C158.204 45.6845 158.189 45.7214 158.163 45.7546C158.132 45.7878 158.087 45.8173 158.02 45.8395C157.952 45.8616 157.866 45.8764 157.757 45.8911C157.648 45.9059 157.509 45.9096 157.336 45.9096C157.171 45.9096 157.032 45.9022 156.919 45.8911C156.807 45.8801 156.72 45.8616 156.653 45.8395C156.585 45.8173 156.54 45.7915 156.51 45.7546C156.48 45.7214 156.469 45.6808 156.469 45.6402V37.7694C156.469 37.7251 156.484 37.6882 156.51 37.655C156.54 37.6218 156.585 37.5923 156.653 37.5701C156.72 37.548 156.811 37.5295 156.919 37.5185C157.028 37.5037 157.167 37.5 157.333 37.5C157.505 37.5 157.644 37.5074 157.753 37.5185C157.862 37.5295 157.948 37.548 158.016 37.5701C158.08 37.5923 158.129 37.6181 158.159 37.655C158.189 37.6882 158.2 37.7288 158.2 37.7694V45.6402H158.204Z" fill="#071D49"/>
<path d="M168.233 41.7214C168.233 42.4114 168.146 43.0314 167.97 43.5775C167.793 44.1236 167.534 44.5849 167.189 44.9649C166.843 45.345 166.415 45.6365 165.908 45.8358C165.401 46.035 164.811 46.1347 164.139 46.1347C163.478 46.1347 162.903 46.0498 162.411 45.8801C161.919 45.7103 161.51 45.452 161.183 45.1052C160.857 44.7583 160.609 44.3155 160.447 43.7768C160.282 43.2417 160.203 42.6033 160.203 41.869C160.203 41.1937 160.289 40.5886 160.466 40.0498C160.643 39.5111 160.902 39.0535 161.247 38.6734C161.593 38.297 162.017 38.0055 162.528 37.8026C163.035 37.5996 163.628 37.5 164.3 37.5C164.943 37.5 165.51 37.5849 166.002 37.7509C166.494 37.917 166.903 38.1753 167.234 38.5221C167.564 38.869 167.812 39.3081 167.981 39.8395C168.15 40.3745 168.233 40.9982 168.233 41.7214ZM166.422 41.81C166.422 41.3708 166.389 40.9723 166.317 40.6144C166.246 40.2565 166.129 39.9502 165.96 39.6919C165.791 39.4336 165.57 39.238 165.288 39.0978C165.007 38.9576 164.657 38.8875 164.24 38.8875C163.816 38.8875 163.463 38.9649 163.178 39.1236C162.892 39.2786 162.663 39.4889 162.49 39.7509C162.318 40.0129 162.194 40.3192 162.118 40.6697C162.047 41.0203 162.01 41.3893 162.01 41.7804C162.01 42.2343 162.043 42.6439 162.115 43.0092C162.186 43.3745 162.303 43.6808 162.468 43.9391C162.633 44.1974 162.858 44.393 163.136 44.5295C163.414 44.666 163.767 44.7325 164.192 44.7325C164.616 44.7325 164.969 44.655 165.254 44.5C165.54 44.345 165.769 44.1347 165.942 43.869C166.114 43.6033 166.238 43.2934 166.313 42.9391C166.389 42.5886 166.422 42.2122 166.422 41.81Z" fill="#071D49"/>
<path d="M177.239 45.2638C177.239 45.3635 177.22 45.452 177.186 45.5295C177.152 45.607 177.103 45.6697 177.043 45.7214C176.983 45.7731 176.916 45.81 176.833 45.8358C176.75 45.8579 176.671 45.8727 176.585 45.8727H175.853C175.699 45.8727 175.567 45.8579 175.455 45.8284C175.342 45.7989 175.241 45.7435 175.147 45.6624C175.053 45.5849 174.963 45.4742 174.876 45.3413C174.79 45.2048 174.692 45.0314 174.58 44.8173L172.469 40.9207C172.345 40.6882 172.221 40.4373 172.093 40.1716C171.966 39.9059 171.853 39.6439 171.752 39.3893H171.737C171.752 39.6993 171.767 40.0055 171.774 40.3118C171.782 40.6181 171.789 40.9354 171.789 41.2601V45.6218C171.789 45.666 171.778 45.7029 171.752 45.7362C171.729 45.7694 171.688 45.7989 171.628 45.8247C171.568 45.8469 171.489 45.8653 171.387 45.8801C171.286 45.8948 171.158 45.8985 171.001 45.8985C170.847 45.8985 170.719 45.8911 170.621 45.8801C170.524 45.869 170.441 45.8505 170.385 45.8247C170.328 45.8026 170.287 45.7731 170.268 45.7362C170.246 45.7029 170.234 45.6624 170.234 45.6218V38.131C170.234 37.928 170.294 37.7768 170.415 37.6771C170.535 37.5775 170.681 37.5258 170.858 37.5258H171.782C171.947 37.5258 172.086 37.5406 172.202 37.5664C172.315 37.5959 172.416 37.6402 172.507 37.7066C172.597 37.7694 172.679 37.8616 172.758 37.9723C172.837 38.0867 172.916 38.2269 172.998 38.393L174.651 41.441C174.749 41.6255 174.843 41.8063 174.936 41.9834C175.03 42.1605 175.12 42.3413 175.207 42.5184C175.293 42.6956 175.38 42.8727 175.462 43.0424C175.545 43.2159 175.627 43.3856 175.706 43.559H175.714C175.699 43.2601 175.691 42.9465 175.684 42.6181C175.676 42.2934 175.672 41.9797 175.672 41.6845V37.7768C175.672 37.7325 175.688 37.6956 175.714 37.6624C175.74 37.6292 175.785 37.5996 175.845 37.5701C175.905 37.5443 175.988 37.5258 176.086 37.5148C176.187 37.5037 176.315 37.5 176.472 37.5C176.619 37.5 176.747 37.5037 176.844 37.5148C176.946 37.5258 177.021 37.5443 177.077 37.5701C177.133 37.5959 177.171 37.6255 177.194 37.6624C177.216 37.6956 177.227 37.7362 177.227 37.7768V45.2638H177.239Z" fill="#071D49"/>
<path d="M184.774 43.4779C184.774 43.917 184.691 44.3007 184.526 44.6292C184.361 44.9613 184.136 45.2343 183.85 45.4557C183.565 45.6771 183.234 45.8432 182.855 45.9539C182.476 46.0646 182.066 46.1199 181.634 46.1199C181.341 46.1199 181.071 46.0978 180.819 46.0498C180.568 46.0018 180.346 45.9465 180.155 45.8801C179.963 45.8137 179.802 45.7435 179.674 45.6697C179.546 45.5959 179.452 45.5332 179.396 45.4779C179.34 45.4225 179.298 45.3413 179.276 45.238C179.253 45.1347 179.238 44.9797 179.238 44.7841C179.238 44.6513 179.242 44.5406 179.253 44.4483C179.261 44.3598 179.276 44.286 179.295 44.2306C179.313 44.1753 179.34 44.1347 179.373 44.1125C179.407 44.0904 179.445 44.0756 179.486 44.0756C179.546 44.0756 179.633 44.1125 179.745 44.1827C179.858 44.2528 180.001 44.3303 180.173 44.4188C180.346 44.5037 180.556 44.5849 180.801 44.655C181.045 44.7251 181.323 44.762 181.642 44.762C181.852 44.762 182.04 44.7362 182.205 44.6882C182.37 44.6402 182.513 44.5701 182.63 44.4779C182.746 44.3856 182.832 44.2749 182.896 44.1421C182.956 44.0092 182.986 43.8616 182.986 43.6956C182.986 43.5074 182.934 43.345 182.829 43.2085C182.723 43.072 182.588 42.9539 182.419 42.8469C182.25 42.7399 182.059 42.6439 181.845 42.5517C181.631 42.4594 181.409 42.3635 181.184 42.2601C180.955 42.1568 180.737 42.0387 180.523 41.9096C180.309 41.7804 180.117 41.6218 179.948 41.441C179.779 41.2601 179.644 41.0424 179.539 40.7952C179.434 40.548 179.381 40.2491 179.381 39.8985C179.381 39.5 179.456 39.1494 179.606 38.8469C179.757 38.5443 179.959 38.2934 180.215 38.0941C180.47 37.8948 180.771 37.7472 181.12 37.6476C181.469 37.548 181.833 37.5 182.224 37.5C182.427 37.5 182.626 37.5148 182.829 37.5443C183.031 37.5738 183.219 37.6144 183.392 37.6661C183.565 37.7177 183.722 37.7768 183.858 37.8395C183.993 37.9022 184.083 37.9576 184.124 38.0018C184.169 38.0461 184.199 38.083 184.214 38.1125C184.229 38.1421 184.241 38.1827 184.252 38.2306C184.263 38.2786 184.271 38.3413 184.275 38.4188C184.278 38.4926 184.282 38.5886 184.282 38.6993C184.282 38.8247 184.278 38.928 184.271 39.0129C184.263 39.0978 184.252 39.1679 184.237 39.2269C184.222 39.2823 184.199 39.3229 184.169 39.3487C184.139 39.3745 184.102 39.3856 184.057 39.3856C184.008 39.3856 183.933 39.3561 183.828 39.297C183.722 39.238 183.595 39.1716 183.441 39.1015C183.287 39.0314 183.11 38.9649 182.911 38.9096C182.708 38.8506 182.491 38.821 182.25 38.821C182.062 38.821 181.897 38.8432 181.758 38.8875C181.619 38.9317 181.503 38.9945 181.409 39.0756C181.315 39.1568 181.244 39.2491 181.199 39.3635C181.154 39.4742 181.131 39.5923 181.131 39.7177C181.131 39.9022 181.184 40.0609 181.285 40.1974C181.386 40.334 181.525 40.452 181.698 40.559C181.871 40.6661 182.066 40.762 182.284 40.8542C182.502 40.9465 182.727 41.0424 182.953 41.1458C183.178 41.2491 183.403 41.3672 183.621 41.4963C183.839 41.6292 184.034 41.7841 184.203 41.9649C184.376 42.1458 184.511 42.3635 184.616 42.6107C184.721 42.8579 184.774 43.1421 184.774 43.4779Z" fill="#071D49"/>
</svg>
