<svg width="178" height="64" viewBox="0 0 178 64" fill="none" xmlns="http://www.w3.org/2000/svg">
<path d="M11.7905 54H29.4225C29.8285 54 30.3698 53.9903 31.0465 53.971C31.7425 53.9323 32.3611 53.884 32.9025 53.826C35.3191 53.5747 37.3201 52.84 38.9055 51.622C40.5101 50.3847 41.7088 48.8283 42.5015 46.953C43.2941 45.0583 43.6905 42.9993 43.6905 40.776C43.6905 38.5527 43.2845 36.5033 42.4725 34.628C41.6798 32.7333 40.4811 31.177 38.8765 29.959C37.2911 28.7217 35.2998 27.9773 32.9025 27.726C32.3611 27.668 31.7425 27.6293 31.0465 27.61C30.3505 27.5713 29.8091 27.552 29.4225 27.552H19.6785V19.606H40.4425V12.24H11.7905V54ZM19.6785 46.634V34.918H29.0745C29.4805 34.918 29.9251 34.9373 30.4085 34.976C30.8918 34.9953 31.3365 35.0533 31.7425 35.15C33.3471 35.498 34.4105 36.2423 34.9325 37.383C35.4738 38.5043 35.7445 39.6353 35.7445 40.776C35.7445 41.8973 35.4738 43.0283 34.9325 44.169C34.4105 45.3097 33.3471 46.054 31.7425 46.402C31.3365 46.4793 30.8918 46.5373 30.4085 46.576C29.9251 46.6147 29.4805 46.634 29.0745 46.634H19.6785ZM47.508 54C50.5434 54.5993 52.9117 54.5123 54.613 53.739C56.3337 52.9657 57.6387 51.6317 58.528 49.737C59.4174 47.8423 60.1327 45.5127 60.674 42.748C61.1187 40.6213 61.4957 38.427 61.805 36.165C62.1144 33.903 62.3754 31.7183 62.588 29.611C62.8007 27.5037 62.965 25.58 63.081 23.84C63.2164 22.1 63.3227 20.6887 63.4 19.606H76.74V54H84.628V12.24H56.15C56.092 13.4967 56.005 15.1883 55.889 17.315C55.773 19.4223 55.6087 21.7617 55.396 24.333C55.1834 26.9043 54.9127 29.5337 54.584 32.221C54.2747 34.889 53.888 37.4313 53.424 39.848C53.0374 41.8973 52.612 43.4923 52.148 44.633C51.684 45.7543 51.0847 46.5277 50.35 46.953C49.6347 47.359 48.6874 47.5233 47.508 47.446V54Z" fill="#071D49"/>
<path fill-rule="evenodd" clip-rule="evenodd" d="M116.501 7.66016C130.183 7.66016 141.271 18.5587 141.271 32.0014C141.271 45.4442 130.179 56.3395 116.501 56.3395C102.823 56.3395 91.7305 45.4409 91.7305 32.0014C91.7305 18.5587 102.823 7.66016 116.501 7.66016Z" fill="#FFC600"/>
<path fill-rule="evenodd" clip-rule="evenodd" d="M122.208 30.1835L125.393 31.9896L115.839 37.4078L112.655 35.6018C115.836 33.7957 119.024 31.9896 122.208 30.1835ZM106.283 31.9896L119.024 24.762C116.9 23.5569 114.776 22.355 112.655 21.1498L115.839 19.3438L131.765 28.3774L128.58 30.1835L122.208 26.5681L109.467 33.7957L106.283 31.9896ZM112.652 24.762L103.098 30.1835L99.9141 28.3774L109.467 22.9592L112.652 24.762ZM99.9141 35.6214L115.839 44.655L131.765 35.6214L128.57 33.8087L115.839 41.0298L103.108 33.8087L99.9141 35.6214Z" fill="#071D49"/>
<path d="M145.33 54H153.218V19.606H172.59V12.24H145.33V54Z" fill="#000E38"/>
</svg>
