<svg width="166" height="33" viewBox="0 0 166 33" fill="none" xmlns="http://www.w3.org/2000/svg">
<path fill-rule="evenodd" clip-rule="evenodd" d="M19.7649 13.9692L21.9624 15.216L15.3722 18.9542L13.1747 17.7074C15.37 16.4628 17.5674 15.216 19.7649 13.9692ZM8.77752 15.216L17.5674 10.2287C16.1017 9.39896 14.6382 8.56703 13.1725 7.73509L15.37 6.48828L26.3574 12.7202L24.1599 13.967L19.7649 11.4755L10.9772 16.4628L8.77752 15.216ZM13.1725 10.2287L6.58225 13.9692L4.38477 12.7223L10.9772 8.98408L13.1725 10.2287ZM4.38477 17.7205L15.3722 23.9523L26.3596 17.7205L24.1577 16.4715L15.3722 21.4544L6.58667 16.4715L4.38477 17.7205Z" fill="#FFC600"/>
<path d="M47.0043 4.65159C47.0043 4.84056 46.9955 5.00347 46.98 5.13597C46.9623 5.27065 46.938 5.37708 46.9048 5.45962C46.8717 5.54217 46.8297 5.60081 46.781 5.63991C46.7302 5.67901 46.6771 5.69856 46.6152 5.69856H43.3831V15.9207C43.3831 15.9858 43.361 16.0445 43.319 16.0966C43.2748 16.1488 43.204 16.1922 43.1046 16.2248C43.0051 16.2574 42.8702 16.2834 42.7 16.303C42.5298 16.3225 42.3197 16.3334 42.0655 16.3334C41.8135 16.3334 41.6012 16.3247 41.4332 16.303C41.263 16.2834 41.1281 16.2574 41.0287 16.2248C40.9292 16.1922 40.8584 16.1488 40.8142 16.0966C40.77 16.0445 40.7501 15.9858 40.7501 15.9207V5.69856H37.518C37.4517 5.69856 37.3942 5.67901 37.3478 5.63991C37.3013 5.60081 37.2616 5.53999 37.2284 5.45962C37.1952 5.37708 37.1709 5.27065 37.1532 5.13597C37.1355 5.0013 37.1289 4.84056 37.1289 4.65159C37.1289 4.45609 37.1377 4.28884 37.1532 4.15199C37.1687 4.01515 37.1952 3.90654 37.2284 3.824C37.2616 3.74146 37.3013 3.68281 37.3478 3.64805C37.3942 3.61113 37.4517 3.59375 37.518 3.59375H46.6152C46.6749 3.59375 46.7302 3.61113 46.781 3.64805C46.8319 3.68498 46.8717 3.74363 46.9048 3.824C46.938 3.90654 46.9623 4.01515 46.98 4.15199C46.9977 4.28884 47.0043 4.45609 47.0043 4.65159Z" fill="#FCFEFF"/>
<path d="M56.917 15.2644C56.917 15.4534 56.9082 15.612 56.8927 15.7401C56.875 15.8683 56.8507 15.9704 56.8175 16.0486C56.7844 16.1268 56.7424 16.1832 56.6937 16.2202C56.6429 16.2571 56.5898 16.2745 56.5279 16.2745H50.0438C49.8249 16.2745 49.6392 16.2115 49.4911 16.0833C49.343 15.9552 49.2656 15.7488 49.2656 15.4621V4.40586C49.2656 4.11914 49.3408 3.91061 49.4911 3.78246C49.6415 3.6543 49.8249 3.59131 50.0438 3.59131H56.4881C56.5478 3.59131 56.6009 3.60869 56.6473 3.64127C56.6937 3.67385 56.7335 3.73033 56.7667 3.81287C56.7999 3.89541 56.8242 3.99967 56.8419 4.12566C56.8573 4.25381 56.8662 4.41455 56.8662 4.61005C56.8662 4.79251 56.8573 4.9489 56.8419 5.07488C56.8242 5.20304 56.7999 5.30513 56.7667 5.38333C56.7335 5.46153 56.6937 5.52017 56.6473 5.55493C56.6009 5.59186 56.5478 5.60923 56.4881 5.60923H51.8809V8.70889H55.7807C55.8404 8.70889 55.8957 8.72626 55.9465 8.76319C55.9974 8.80012 56.0372 8.85442 56.0703 8.93044C56.1035 9.00647 56.1278 9.10639 56.1455 9.23455C56.161 9.3627 56.1698 9.51692 56.1698 9.69938C56.1698 9.88836 56.161 10.0448 56.1455 10.1707C56.1278 10.2946 56.1035 10.3945 56.0703 10.4705C56.0372 10.5465 55.9951 10.5987 55.9465 10.6312C55.8957 10.6638 55.8426 10.6812 55.7807 10.6812H51.8809V14.2587H56.5279C56.5876 14.2587 56.6429 14.2761 56.6937 14.313C56.7446 14.35 56.7844 14.4064 56.8175 14.4846C56.8507 14.5628 56.875 14.6649 56.8927 14.7931C56.9082 14.9169 56.917 15.0754 56.917 15.2644Z" fill="#FCFEFF"/>
<path d="M68.5946 14.3519C68.5946 14.5148 68.5902 14.6539 68.5791 14.769C68.5703 14.8841 68.5548 14.9819 68.5349 15.0622C68.515 15.1448 68.4885 15.2143 68.4553 15.2729C68.4221 15.3316 68.3691 15.3989 68.2961 15.4728C68.2232 15.5488 68.0817 15.6444 67.8717 15.7617C67.6616 15.879 67.4052 15.9919 67.1045 16.1005C66.8017 16.2091 66.4568 16.2982 66.0677 16.3699C65.6786 16.4415 65.2586 16.4785 64.8054 16.4785C63.9211 16.4785 63.123 16.3438 62.4111 16.0766C61.6993 15.8094 61.0935 15.4076 60.5961 14.8754C60.0965 14.3432 59.714 13.6786 59.4487 12.8814C59.1834 12.0842 59.0508 11.1567 59.0508 10.0989C59.0508 9.02149 59.1967 8.06357 59.4907 7.22729C59.7825 6.39102 60.1915 5.68941 60.7177 5.12031C61.2438 4.55121 61.8739 4.12112 62.6079 3.82571C63.3418 3.53247 64.1532 3.38477 65.0375 3.38477C65.3956 3.38477 65.7427 3.41518 66.0743 3.47382C66.4059 3.53247 66.7132 3.6085 66.9962 3.70407C67.2792 3.79965 67.5334 3.90825 67.7589 4.03207C67.9844 4.15588 68.1436 4.26231 68.232 4.35137C68.3227 4.44043 68.3823 4.51211 68.4155 4.57293C68.4487 4.63158 68.4752 4.7076 68.4951 4.79883C68.515 4.89006 68.5305 4.99867 68.5393 5.12248C68.5481 5.2463 68.5548 5.40052 68.5548 5.58298C68.5548 5.77847 68.5482 5.94573 68.5349 6.08257C68.5216 6.21942 68.4973 6.3302 68.4641 6.41491C68.431 6.49962 68.3912 6.56262 68.3448 6.60171C68.2983 6.64081 68.2453 6.66036 68.1856 6.66036C68.0861 6.66036 67.9601 6.60389 67.8075 6.48876C67.655 6.37364 67.456 6.24765 67.2151 6.10647C66.9719 5.96528 66.6823 5.83929 66.3485 5.72417C66.0124 5.60904 65.6123 5.55257 65.1458 5.55257C64.6329 5.55257 64.1775 5.65466 63.7752 5.86101C63.3728 6.06737 63.0301 6.36061 62.7471 6.7429C62.4642 7.1252 62.2497 7.58787 62.1038 8.12873C61.9579 8.67177 61.885 9.28214 61.885 9.96202C61.885 10.7071 61.9623 11.3522 62.1193 11.8974C62.2763 12.4426 62.4973 12.8923 62.7869 13.2441C63.0766 13.596 63.4259 13.8589 63.8348 14.0326C64.2438 14.2064 64.7037 14.2933 65.2166 14.2933C65.683 14.2933 66.0832 14.239 66.4236 14.1325C66.7619 14.0239 67.0537 13.9066 67.2969 13.7741C67.54 13.6438 67.739 13.5265 67.896 13.4223C68.0529 13.318 68.1723 13.2659 68.2607 13.2659C68.3271 13.2659 68.3801 13.2789 68.4199 13.305C68.4597 13.331 68.4929 13.3832 68.5194 13.4614C68.5459 13.5396 68.5658 13.6503 68.5791 13.7893C68.5879 13.9305 68.5946 14.1173 68.5946 14.3519Z" fill="#FCFEFF"/>
<path d="M81.289 15.9205C81.289 15.9856 81.2669 16.0443 81.2249 16.0964C81.1806 16.1485 81.1099 16.192 81.0104 16.2246C80.9109 16.2571 80.7783 16.2832 80.6125 16.3028C80.4467 16.3223 80.2366 16.3332 79.9846 16.3332C79.726 16.3332 79.5115 16.3245 79.3413 16.3028C79.1711 16.2832 79.0384 16.2571 78.9434 16.2246C78.8461 16.192 78.7776 16.1485 78.7333 16.0964C78.6891 16.0443 78.6692 15.9856 78.6692 15.9205V10.7942H73.8387V15.9205C73.8387 15.9856 73.8188 16.0443 73.7791 16.0964C73.7393 16.1485 73.6685 16.192 73.569 16.2246C73.4695 16.2571 73.3369 16.2832 73.1711 16.3028C73.0053 16.3223 72.7931 16.3332 72.5322 16.3332C72.2802 16.3332 72.0679 16.3245 71.8999 16.3028C71.7297 16.2832 71.5948 16.2571 71.4953 16.2246C71.3959 16.192 71.3229 16.1485 71.2809 16.0964C71.2367 16.0443 71.2168 15.9856 71.2168 15.9205V3.94542C71.2168 3.88026 71.2389 3.82161 71.2809 3.76948C71.3229 3.71735 71.3959 3.6739 71.4953 3.64132C71.5948 3.60874 71.7297 3.58267 71.8999 3.56312C72.0701 3.54358 72.2802 3.53271 72.5322 3.53271C72.7908 3.53271 73.0053 3.5414 73.1711 3.56312C73.3369 3.58485 73.4695 3.60874 73.569 3.64132C73.6685 3.6739 73.7393 3.71735 73.7791 3.76948C73.8188 3.82161 73.8387 3.88026 73.8387 3.94542V8.60033H78.667V3.94542C78.667 3.88026 78.6891 3.82161 78.7311 3.76948C78.7731 3.71735 78.8439 3.6739 78.9411 3.64132C79.0384 3.60874 79.1711 3.58267 79.3391 3.56312C79.5093 3.54358 79.7238 3.53271 79.9824 3.53271C80.2344 3.53271 80.4445 3.5414 80.6103 3.56312C80.7761 3.58485 80.9087 3.60874 81.0082 3.64132C81.1077 3.6739 81.1784 3.71735 81.2226 3.76948C81.2669 3.82161 81.2868 3.88026 81.2868 3.94542V15.9205H81.289Z" fill="#FCFEFF"/>
<path d="M95.4805 15.3743C95.4805 15.5242 95.4539 15.6589 95.4009 15.7762C95.3478 15.8935 95.2771 15.9912 95.1864 16.0694C95.0958 16.1476 94.9897 16.2041 94.8681 16.241C94.7443 16.2758 94.6205 16.2953 94.4945 16.2953H93.378C93.1459 16.2953 92.9447 16.2736 92.7745 16.2258C92.6043 16.1802 92.4495 16.0976 92.3058 15.976C92.1621 15.8544 92.0251 15.6915 91.8924 15.4851C91.7598 15.2787 91.6094 15.0137 91.4436 14.6857L88.2314 8.75578C88.0457 8.4039 87.8556 8.0216 87.6632 7.61323C87.4709 7.20487 87.2962 6.80737 87.1437 6.4229H87.1238C87.1503 6.89425 87.1702 7.36127 87.1835 7.82828C87.1968 8.29529 87.2034 8.77751 87.2034 9.27276V15.9065C87.2034 15.9717 87.1857 16.0303 87.1481 16.0824C87.1106 16.1346 87.0486 16.178 86.958 16.2149C86.8674 16.2519 86.7458 16.2779 86.5932 16.2975C86.4407 16.317 86.2439 16.3279 86.0052 16.3279C85.773 16.3279 85.5807 16.3192 85.426 16.2975C85.2734 16.2779 85.154 16.2497 85.0678 16.2149C84.9816 16.178 84.9219 16.1346 84.8887 16.0824C84.8556 16.0303 84.8379 15.9717 84.8379 15.9065V4.51575C84.8379 4.20948 84.9285 3.97923 85.112 3.82501C85.2955 3.67079 85.5188 3.59476 85.7841 3.59476H87.1901C87.4422 3.59476 87.6566 3.61648 87.829 3.65775C88.0015 3.7012 88.1562 3.77071 88.2933 3.86845C88.4304 3.9662 88.5586 4.10305 88.678 4.27464C88.7974 4.44842 88.9212 4.66129 89.0472 4.9176L91.5608 9.55296C91.7067 9.83317 91.8504 10.109 91.9941 10.3806C92.1378 10.6521 92.2749 10.9236 92.4075 11.1929C92.5402 11.4645 92.6706 11.7295 92.7966 11.9923C92.9226 12.2529 93.0464 12.5158 93.1658 12.7764H93.1746C93.1548 12.3203 93.1393 11.8424 93.1304 11.345C93.1216 10.8476 93.115 10.374 93.115 9.9244V3.97489C93.115 3.90972 93.1349 3.85108 93.1746 3.79894C93.2144 3.74681 93.2808 3.7012 93.3736 3.6621C93.4665 3.623 93.5903 3.59476 93.7428 3.57956C93.8954 3.56435 94.0921 3.55566 94.3309 3.55566C94.5564 3.55566 94.7465 3.56435 94.899 3.57956C95.0516 3.59693 95.1687 3.623 95.2528 3.6621C95.3368 3.7012 95.3942 3.74681 95.4274 3.79894C95.4606 3.85108 95.4783 3.90972 95.4783 3.97489V15.3743H95.4805Z" fill="#FCFEFF"/>
<path d="M110.637 9.78686C110.637 10.8382 110.504 11.7787 110.239 12.6085C109.974 13.4382 109.578 14.142 109.052 14.7198C108.526 15.2976 107.876 15.7385 107.102 16.0426C106.328 16.3467 105.43 16.4988 104.414 16.4988C103.41 16.4988 102.532 16.3706 101.785 16.1121C101.038 15.8537 100.414 15.4605 99.9146 14.9305C99.415 14.4005 99.0414 13.7293 98.7916 12.9126C98.5418 12.0958 98.418 11.1292 98.418 10.0128C98.418 8.98751 98.5506 8.06434 98.8159 7.24327C99.0812 6.42437 99.4769 5.72494 100.003 5.1515C100.529 4.57588 101.177 4.13493 101.953 3.82866C102.727 3.52239 103.626 3.36816 104.65 3.36816C105.627 3.36816 106.489 3.49632 107.239 3.75046C107.986 4.0046 108.612 4.39776 109.114 4.92559C109.615 5.4556 109.996 6.12245 110.25 6.93048C110.509 7.73635 110.637 8.68992 110.637 9.78686ZM107.884 9.9237C107.884 9.25685 107.831 8.65082 107.725 8.10562C107.619 7.56041 107.438 7.0934 107.181 6.70458C106.925 6.31577 106.584 6.01601 106.158 5.80314C105.731 5.59027 105.201 5.48383 104.562 5.48383C103.916 5.48383 103.379 5.6033 102.946 5.84224C102.512 6.08117 102.163 6.39831 101.898 6.79798C101.63 7.19549 101.444 7.6625 101.334 8.19467C101.223 8.72685 101.17 9.29161 101.17 9.8846C101.17 10.5775 101.223 11.1988 101.33 11.7505C101.436 12.3022 101.615 12.7736 101.869 13.1667C102.123 13.5599 102.461 13.8575 102.886 14.0638C103.313 14.2702 103.848 14.3723 104.493 14.3723C105.139 14.3723 105.676 14.255 106.109 14.0204C106.542 13.7858 106.89 13.4643 107.157 13.0603C107.422 12.6563 107.61 12.1827 107.721 11.644C107.831 11.1053 107.884 10.5319 107.884 9.9237Z" fill="#FCFEFF"/>
<path d="M120.67 15.195C120.67 15.3905 120.661 15.5555 120.646 15.6902C120.628 15.8249 120.604 15.9357 120.57 16.0226C120.537 16.1116 120.495 16.1746 120.447 16.2137C120.396 16.2528 120.338 16.2724 120.272 16.2724H114.358C114.139 16.2724 113.954 16.2094 113.806 16.0812C113.655 15.953 113.58 15.7467 113.58 15.46V3.94542C113.58 3.88026 113.602 3.82161 113.644 3.76948C113.686 3.71735 113.759 3.6739 113.859 3.64132C113.958 3.60874 114.093 3.58267 114.263 3.56312C114.433 3.54358 114.643 3.53271 114.895 3.53271C115.154 3.53271 115.369 3.5414 115.534 3.56312C115.7 3.58485 115.833 3.60874 115.932 3.64132C116.032 3.6739 116.103 3.71735 116.147 3.76948C116.189 3.82161 116.211 3.88026 116.211 3.94542V14.148H120.27C120.336 14.148 120.394 14.1654 120.444 14.2023C120.493 14.2392 120.535 14.2979 120.568 14.3782C120.601 14.4608 120.626 14.5672 120.643 14.7019C120.661 14.8344 120.67 14.9995 120.67 15.195Z" fill="#FCFEFF"/>
<path d="M134.201 9.78686C134.201 10.8382 134.069 11.7787 133.803 12.6085C133.538 13.4382 133.142 14.142 132.616 14.7198C132.09 15.2976 131.44 15.7385 130.666 16.0426C129.89 16.3467 128.995 16.4988 127.978 16.4988C126.974 16.4988 126.099 16.3706 125.349 16.1121C124.602 15.8537 123.979 15.4605 123.479 14.9305C122.979 14.4005 122.606 13.7293 122.356 12.9126C122.106 12.0958 121.982 11.1292 121.982 10.0128C121.982 8.98751 122.115 8.06434 122.38 7.24327C122.646 6.42437 123.041 5.72494 123.568 5.1515C124.094 4.57588 124.744 4.13493 125.517 3.82866C126.291 3.52239 127.191 3.36816 128.217 3.36816C129.194 3.36816 130.056 3.49632 130.806 3.75046C131.553 4.0046 132.178 4.39776 132.68 4.92559C133.182 5.4556 133.56 6.12245 133.817 6.93048C134.073 7.73635 134.201 8.68992 134.201 9.78686ZM131.449 9.9237C131.449 9.25685 131.396 8.65082 131.29 8.10562C131.184 7.56041 131.002 7.0934 130.746 6.70458C130.489 6.31577 130.149 6.01601 129.724 5.80314C129.298 5.59027 128.767 5.48383 128.128 5.48383C127.483 5.48383 126.943 5.6033 126.512 5.84224C126.079 6.08117 125.73 6.39831 125.464 6.79798C125.199 7.19549 125.011 7.6625 124.901 8.19467C124.79 8.72685 124.737 9.29161 124.737 9.8846C124.737 10.5775 124.79 11.1988 124.896 11.7505C125.002 12.3022 125.181 12.7736 125.436 13.1667C125.688 13.5577 126.028 13.8575 126.453 14.0638C126.877 14.2702 127.414 14.3723 128.058 14.3723C128.701 14.3723 129.24 14.255 129.674 14.0204C130.107 13.7858 130.456 13.4643 130.721 13.0603C130.987 12.6563 131.175 12.1827 131.285 11.644C131.396 11.1053 131.449 10.5319 131.449 9.9237Z" fill="#FCFEFF"/>
<path d="M147.493 5.56164C147.493 5.75062 147.484 5.91353 147.468 6.05255C147.453 6.18939 147.428 6.30017 147.397 6.38054C147.369 6.46308 147.331 6.51956 147.287 6.55214C147.243 6.58473 147.192 6.6021 147.132 6.6021C147.046 6.6021 146.907 6.54345 146.714 6.42616C146.522 6.30886 146.266 6.18071 145.947 6.04386C145.629 5.90702 145.246 5.77886 144.807 5.66156C144.364 5.54427 143.851 5.48562 143.266 5.48562C142.64 5.48562 142.076 5.59205 141.57 5.80492C141.064 6.01779 140.633 6.31755 140.272 6.70637C139.912 7.09518 139.638 7.56219 139.443 8.1074C139.251 8.65261 139.154 9.25647 139.154 9.91463C139.154 10.6401 139.253 11.2787 139.448 11.8305C139.644 12.3822 139.919 12.8449 140.27 13.2163C140.622 13.5877 141.046 13.8701 141.541 14.0591C142.036 14.2481 142.582 14.3436 143.182 14.3436C143.473 14.3436 143.763 14.311 144.048 14.2459C144.333 14.1807 144.601 14.083 144.846 13.9526V11.0116H142.403C142.284 11.0116 142.191 10.9377 142.125 10.79C142.059 10.6423 142.025 10.3925 142.025 10.0406C142.025 9.85815 142.034 9.70393 142.05 9.58012C142.065 9.4563 142.092 9.35638 142.125 9.28036C142.158 9.20433 142.198 9.15003 142.244 9.1131C142.291 9.07835 142.344 9.0588 142.403 9.0588H146.763C146.869 9.0588 146.964 9.07618 147.048 9.1131C147.132 9.15003 147.205 9.20216 147.267 9.27384C147.331 9.34552 147.378 9.43241 147.411 9.5345C147.444 9.63659 147.462 9.75171 147.462 9.88204V14.9279C147.462 15.1234 147.426 15.295 147.358 15.4427C147.289 15.5904 147.145 15.7056 146.929 15.7903C146.712 15.875 146.445 15.9641 146.126 16.0553C145.808 16.1465 145.476 16.2247 145.134 16.2899C144.791 16.355 144.446 16.405 144.097 16.4376C143.748 16.4702 143.396 16.4875 143.045 16.4875C142.014 16.4875 141.09 16.342 140.277 16.0509C139.463 15.7599 138.773 15.3385 138.207 14.7868C137.641 14.235 137.21 13.5617 136.91 12.7688C136.611 11.976 136.461 11.0746 136.461 10.0688C136.461 9.03056 136.62 8.09654 136.938 7.27112C137.259 6.44571 137.71 5.74193 138.296 5.16414C138.882 4.58635 139.587 4.14323 140.416 3.83696C141.243 3.53069 142.167 3.37646 143.184 3.37646C143.743 3.37646 144.252 3.41339 144.709 3.48942C145.169 3.56544 145.569 3.65667 145.912 3.76311C146.255 3.87171 146.538 3.98684 146.765 4.11065C146.991 4.23446 147.15 4.34307 147.238 4.4343C147.329 4.52553 147.393 4.65586 147.433 4.82094C147.473 4.9882 147.493 5.23582 147.493 5.56164Z" fill="#FCFEFF"/>
<path d="M153.526 15.9205C153.526 15.9856 153.503 16.0443 153.461 16.0964C153.417 16.1485 153.346 16.192 153.247 16.2246C153.148 16.2571 153.015 16.2832 152.849 16.3028C152.683 16.3223 152.471 16.3332 152.21 16.3332C151.958 16.3332 151.746 16.3245 151.576 16.3028C151.405 16.281 151.271 16.2571 151.171 16.2246C151.072 16.192 150.999 16.1485 150.957 16.0964C150.912 16.0443 150.893 15.9856 150.893 15.9205V3.94542C150.893 3.88026 150.915 3.82161 150.957 3.76948C150.999 3.71735 151.074 3.6739 151.176 3.64132C151.279 3.60874 151.414 3.58267 151.58 3.56312C151.746 3.54358 151.956 3.53271 152.208 3.53271C152.467 3.53271 152.679 3.5414 152.847 3.56312C153.015 3.58485 153.145 3.60874 153.245 3.64132C153.344 3.6739 153.417 3.71735 153.459 3.76948C153.501 3.82161 153.523 3.88026 153.523 3.94542V15.9205H153.526Z" fill="#FCFEFF"/>
<path d="M166.001 14.3519C166.001 14.5148 165.996 14.6539 165.985 14.769C165.976 14.8841 165.961 14.9819 165.941 15.0622C165.921 15.1448 165.895 15.2143 165.862 15.2729C165.828 15.3316 165.775 15.3989 165.702 15.4728C165.629 15.5488 165.488 15.6444 165.278 15.7617C165.068 15.879 164.811 15.9919 164.511 16.1005C164.21 16.2091 163.863 16.2982 163.474 16.3699C163.085 16.4415 162.665 16.4785 162.212 16.4785C161.327 16.4785 160.529 16.3438 159.817 16.0766C159.105 15.8094 158.5 15.4076 158.002 14.8754C157.503 14.3432 157.12 13.6786 156.855 12.8814C156.59 12.0842 156.457 11.1567 156.457 10.0989C156.457 9.02149 156.603 8.06357 156.897 7.22729C157.189 6.39102 157.598 5.68941 158.124 5.12031C158.65 4.55121 159.278 4.12112 160.014 3.82571C160.75 3.5303 161.559 3.38477 162.444 3.38477C162.804 3.38477 163.149 3.41518 163.481 3.47382C163.812 3.53247 164.119 3.6085 164.402 3.70407C164.685 3.79965 164.94 3.90825 165.165 4.03207C165.391 4.15588 165.55 4.26231 165.638 4.35137C165.729 4.44043 165.791 4.51211 165.824 4.57293C165.857 4.63158 165.884 4.7076 165.904 4.79883C165.923 4.89006 165.939 4.99867 165.948 5.12248C165.957 5.2463 165.963 5.40052 165.963 5.58298C165.963 5.77847 165.957 5.94573 165.943 6.08257C165.93 6.21942 165.906 6.3302 165.873 6.41491C165.839 6.49962 165.8 6.56262 165.753 6.60171C165.707 6.64081 165.654 6.66036 165.594 6.66036C165.495 6.66036 165.369 6.60389 165.216 6.48876C165.063 6.37364 164.864 6.24765 164.621 6.10647C164.378 5.96528 164.088 5.83929 163.755 5.72417C163.419 5.60904 163.019 5.55257 162.552 5.55257C162.039 5.55257 161.584 5.65466 161.181 5.86101C160.779 6.06737 160.436 6.36061 160.153 6.7429C159.87 7.1252 159.656 7.58787 159.51 8.12873C159.364 8.67177 159.291 9.28214 159.291 9.96202C159.291 10.7071 159.369 11.3522 159.526 11.8974C159.683 12.4426 159.904 12.8923 160.193 13.2441C160.483 13.596 160.832 13.8589 161.241 14.0326C161.65 14.2064 162.11 14.2933 162.623 14.2933C163.089 14.2933 163.489 14.239 163.83 14.1325C164.168 14.0239 164.46 13.9066 164.703 13.7741C164.946 13.6438 165.145 13.5265 165.302 13.4223C165.459 13.318 165.581 13.2659 165.667 13.2659C165.733 13.2659 165.786 13.2789 165.826 13.305C165.866 13.331 165.899 13.3832 165.926 13.4614C165.952 13.5396 165.972 13.6503 165.985 13.7893C165.994 13.9305 166.001 14.1173 166.001 14.3519Z" fill="#FCFEFF"/>
<path fill-rule="evenodd" clip-rule="evenodd" d="M16.4745 0C25.5739 0 32.9489 7.24845 32.9489 16.189C32.9489 25.1296 25.5717 32.3758 16.4745 32.3758C7.37726 32.3758 0 25.1274 0 16.189C0 7.24845 7.37726 0 16.4745 0Z" fill="#FFC600"/>
<path fill-rule="evenodd" clip-rule="evenodd" d="M20.2689 14.9813L22.3868 16.1825L16.0331 19.7861L13.9152 18.5849C16.0309 17.3837 18.151 16.1825 20.2689 14.9813ZM9.67719 16.1825L18.151 11.3756C16.7383 10.574 15.3256 9.77469 13.9152 8.97317L16.0331 7.77197L26.6248 13.7801L24.5069 14.9813L20.2689 12.5768L11.7951 17.3837L9.67719 16.1825ZM13.913 11.3756L7.5593 14.9813L5.44141 13.7801L11.7951 10.1765L13.913 11.3756ZM5.44141 18.598L16.0331 24.6061L26.6248 18.598L24.5002 17.3924L16.0331 22.195L7.56593 17.3924L5.44141 18.598Z" fill="#071D49"/>
<path d="M41.4781 26.549C41.5085 26.6385 41.5276 26.7094 41.5352 26.7617C41.5428 26.8139 41.5327 26.8537 41.5047 26.8811C41.4768 26.906 41.4273 26.9209 41.3562 26.9259C41.2851 26.9333 41.1873 26.9371 41.0629 26.9371C40.9334 26.9371 40.8318 26.9346 40.7582 26.9296C40.6871 26.9271 40.6325 26.9209 40.5944 26.9109C40.5563 26.8985 40.5297 26.8823 40.5144 26.8624C40.4992 26.8425 40.4865 26.8164 40.4763 26.7841L40.145 25.8139H38.2938L37.9815 26.758C37.9714 26.7928 37.9574 26.8226 37.9396 26.8475C37.9244 26.8699 37.8977 26.8885 37.8596 26.9035C37.8241 26.9159 37.772 26.9246 37.7035 26.9296C37.6375 26.9346 37.5498 26.9371 37.4407 26.9371C37.3239 26.9371 37.2324 26.9333 37.1664 26.9259C37.1004 26.9184 37.0547 26.901 37.0293 26.8736C37.0039 26.8438 36.995 26.8027 37.0026 26.7505C37.0103 26.6982 37.0293 26.6286 37.0598 26.5415L38.5795 22.258C38.5947 22.2157 38.6125 22.1821 38.6328 22.1572C38.6532 22.1298 38.6849 22.1099 38.7281 22.0975C38.7738 22.0826 38.836 22.0739 38.9147 22.0714C38.9934 22.0664 39.0975 22.0639 39.227 22.0639C39.3768 22.0639 39.4962 22.0664 39.5851 22.0714C39.6739 22.0739 39.7425 22.0826 39.7907 22.0975C39.8415 22.1099 39.8771 22.1298 39.8974 22.1572C39.9202 22.1846 39.9393 22.2219 39.9545 22.2691L41.4781 26.549ZM39.2156 23.008H39.2118L38.5148 25.0602H39.9126L39.2156 23.008Z" fill="#FCFEFF"/>
<path d="M46.0564 25.1162C46.0564 25.4122 46.0119 25.6771 45.923 25.9109C45.8342 26.1448 45.7034 26.3425 45.5307 26.5042C45.3581 26.6659 45.1448 26.789 44.8908 26.8736C44.6369 26.9582 44.3449 27.0005 44.0148 27.0005C43.705 27.0005 43.427 26.9632 43.1806 26.8885C42.9343 26.8114 42.7261 26.6958 42.556 26.5415C42.3859 26.3873 42.2551 26.1958 42.1637 25.9669C42.0748 25.7356 42.0304 25.4657 42.0304 25.1572V22.2206C42.0304 22.1958 42.038 22.1734 42.0532 22.1535C42.0685 22.1336 42.0951 22.1174 42.1332 22.105C42.1738 22.0925 42.2259 22.0826 42.2894 22.0751C42.3528 22.0677 42.4341 22.0639 42.5331 22.0639C42.6296 22.0639 42.7096 22.0677 42.7731 22.0751C42.8366 22.0826 42.8874 22.0925 42.9254 22.105C42.9635 22.1174 42.9902 22.1336 43.0054 22.1535C43.0232 22.1734 43.0321 22.1958 43.0321 22.2206V25.0714C43.0321 25.2629 43.0562 25.4296 43.1045 25.5714C43.1527 25.7107 43.2213 25.8264 43.3101 25.9184C43.4016 26.0104 43.5095 26.0801 43.6339 26.1274C43.7609 26.1721 43.9018 26.1945 44.0567 26.1945C44.2141 26.1945 44.3551 26.1709 44.4795 26.1236C44.6039 26.0764 44.7093 26.008 44.7956 25.9184C44.8819 25.8264 44.948 25.7144 44.9937 25.5826C45.0419 25.4482 45.066 25.2965 45.066 25.1274V22.2206C45.066 22.1958 45.0737 22.1734 45.0889 22.1535C45.1041 22.1336 45.1308 22.1174 45.1689 22.105C45.207 22.0925 45.2578 22.0826 45.3212 22.0751C45.3873 22.0677 45.4685 22.0639 45.565 22.0639C45.6615 22.0639 45.7402 22.0677 45.8012 22.0751C45.8646 22.0826 45.9154 22.0925 45.9535 22.105C45.9916 22.1174 46.0183 22.1336 46.0335 22.1535C46.0487 22.1734 46.0564 22.1958 46.0564 22.2206V25.1162Z" fill="#FCFEFF"/>
<path d="M50.4099 22.4893C50.4099 22.5614 50.4061 22.6236 50.3985 22.6759C50.3934 22.7256 50.3845 22.7667 50.3718 22.799C50.3591 22.8288 50.3426 22.8512 50.3223 22.8662C50.3045 22.8811 50.2842 22.8885 50.2614 22.8885H49.0273V26.7803C49.0273 26.8052 49.0184 26.8276 49.0006 26.8475C48.9854 26.8674 48.9587 26.8836 48.9206 26.896C48.8825 26.9084 48.8305 26.9184 48.7645 26.9259C48.701 26.9333 48.621 26.9371 48.5245 26.9371C48.428 26.9371 48.3468 26.9333 48.2807 26.9259C48.2173 26.9184 48.1665 26.9084 48.1284 26.896C48.0903 26.8836 48.0624 26.8674 48.0446 26.8475C48.0294 26.8276 48.0217 26.8052 48.0217 26.7803V22.8885H46.7877C46.7623 22.8885 46.7407 22.8811 46.7229 22.8662C46.7051 22.8512 46.6899 22.8288 46.6772 22.799C46.6645 22.7667 46.6543 22.7256 46.6467 22.6759C46.6417 22.6236 46.6391 22.5614 46.6391 22.4893C46.6391 22.4147 46.6417 22.3512 46.6467 22.299C46.6543 22.2468 46.6645 22.2057 46.6772 22.1759C46.6899 22.1435 46.7051 22.1211 46.7229 22.1087C46.7407 22.0938 46.7623 22.0863 46.7877 22.0863H50.2614C50.2842 22.0863 50.3045 22.0938 50.3223 22.1087C50.3426 22.1211 50.3591 22.1435 50.3718 22.1759C50.3845 22.2057 50.3934 22.2468 50.3985 22.299C50.4061 22.3512 50.4099 22.4147 50.4099 22.4893Z" fill="#FCFEFF"/>
<path d="M55.2129 24.4445C55.2129 24.845 55.1621 25.2032 55.0606 25.5191C54.959 25.8351 54.8079 26.1037 54.6073 26.3251C54.4067 26.544 54.1578 26.7119 53.8608 26.8288C53.5662 26.9433 53.2247 27.0005 52.8362 27.0005C52.4527 27.0005 52.1176 26.952 51.8306 26.855C51.5462 26.7555 51.3088 26.605 51.1184 26.4035C50.9279 26.202 50.7844 25.9458 50.688 25.6348C50.594 25.3239 50.547 24.9557 50.547 24.5303C50.547 24.1398 50.5978 23.789 50.6994 23.4781C50.801 23.1647 50.952 22.8985 51.1526 22.6796C51.3532 22.4607 51.6008 22.2928 51.8954 22.1759C52.1925 22.0589 52.5365 22.0005 52.9276 22.0005C53.3008 22.0005 53.6297 22.049 53.9141 22.146C54.201 22.243 54.4397 22.3923 54.6301 22.5938C54.8231 22.7953 54.9679 23.0502 55.0644 23.3587C55.1634 23.6647 55.2129 24.0266 55.2129 24.4445ZM54.1617 24.4968C54.1617 24.243 54.1413 24.0129 54.1007 23.8065C54.0601 23.5975 53.9903 23.4196 53.8912 23.2729C53.7947 23.1236 53.6652 23.0092 53.5027 22.9296C53.3402 22.8475 53.1371 22.8065 52.8933 22.8065C52.647 22.8065 52.4413 22.8525 52.2763 22.9445C52.1112 23.0341 51.9779 23.1547 51.8763 23.3065C51.7748 23.4582 51.7024 23.6361 51.6592 23.84C51.6186 24.0415 51.5983 24.2555 51.5983 24.4818C51.5983 24.7455 51.6186 24.9831 51.6592 25.1945C51.6998 25.4035 51.7684 25.5826 51.8649 25.7318C51.9614 25.8811 52.0909 25.9955 52.2534 26.0751C52.4159 26.1522 52.6203 26.1908 52.8666 26.1908C53.1129 26.1908 53.3186 26.146 53.4837 26.0565C53.6487 25.9669 53.782 25.845 53.8836 25.6908C53.9852 25.5366 54.0563 25.3575 54.0969 25.1535C54.1401 24.947 54.1617 24.7281 54.1617 24.4968Z" fill="#FCFEFF"/>
<path d="M58.8313 26.7803C58.8313 26.8052 58.8225 26.8276 58.8047 26.8475C58.7894 26.8674 58.7628 26.8836 58.7247 26.896C58.6866 26.9084 58.6358 26.9184 58.5723 26.9259C58.5089 26.9333 58.4276 26.9371 58.3286 26.9371C58.2321 26.9371 58.1508 26.9333 58.0848 26.9259C58.0213 26.9184 57.9705 26.9084 57.9324 26.896C57.8944 26.8836 57.8664 26.8674 57.8487 26.8475C57.8334 26.8276 57.8258 26.8052 57.8258 26.7803V22.2206C57.8258 22.1958 57.8334 22.1734 57.8487 22.1535C57.8664 22.1336 57.8944 22.1174 57.9324 22.105C57.9731 22.0925 58.0251 22.0826 58.0886 22.0751C58.1521 22.0677 58.2321 22.0639 58.3286 22.0639C58.4276 22.0639 58.5089 22.0677 58.5723 22.0751C58.6358 22.0826 58.6866 22.0925 58.7247 22.105C58.7628 22.1174 58.7894 22.1336 58.8047 22.1535C58.8225 22.1734 58.8313 22.1958 58.8313 22.2206V26.7803Z" fill="#FCFEFF"/>
<path d="M64 24.4296C64 24.8724 63.9403 25.2517 63.821 25.5677C63.7042 25.8811 63.5353 26.1373 63.3144 26.3363C63.0935 26.5353 62.8243 26.6821 62.5069 26.7766C62.192 26.8686 61.8162 26.9147 61.3795 26.9147H60.2025C60.1187 26.9147 60.0476 26.891 59.9892 26.8438C59.9334 26.794 59.9055 26.7144 59.9055 26.605V22.396C59.9055 22.2866 59.9334 22.2082 59.9892 22.1609C60.0476 22.1112 60.1187 22.0863 60.2025 22.0863H61.4671C61.9064 22.0863 62.2784 22.1373 62.5831 22.2393C62.8903 22.3388 63.1481 22.4881 63.3563 22.6871C63.5671 22.8836 63.727 23.1274 63.8362 23.4184C63.9454 23.7094 64 24.0465 64 24.4296ZM62.964 24.4632C62.964 24.2343 62.9361 24.0216 62.8802 23.8251C62.8269 23.6286 62.7393 23.4582 62.6174 23.3139C62.498 23.1696 62.3431 23.0577 62.1527 22.9781C61.9648 22.896 61.7172 22.855 61.41 22.855H60.9034V26.1385H61.4252C61.6994 26.1385 61.9305 26.1037 62.1184 26.0341C62.3063 25.9644 62.4625 25.8599 62.5869 25.7206C62.7139 25.5788 62.8078 25.4035 62.8688 25.1945C62.9322 24.9856 62.964 24.7418 62.964 24.4632Z" fill="#FCFEFF"/>
<path d="M69.0809 25.3162C69.0809 25.5747 69.0323 25.8006 68.935 25.994C68.8377 26.1894 68.7051 26.3502 68.5371 26.4805C68.3691 26.6108 68.1745 26.7086 67.9512 26.7738C67.7279 26.8389 67.4892 26.8715 67.2327 26.8715C67.0603 26.8715 66.9011 26.8585 66.753 26.8302C66.6049 26.802 66.4744 26.7694 66.3617 26.7303C66.2489 26.6912 66.1539 26.6499 66.0787 26.6065C66.0035 26.5631 65.9483 26.5261 65.9151 26.4935C65.882 26.461 65.8576 26.4132 65.8444 26.3524C65.8311 26.2894 65.8223 26.2003 65.8223 26.0852C65.8223 26.007 65.8245 25.9418 65.8311 25.8875C65.8355 25.8354 65.8444 25.7919 65.8554 25.7594C65.8665 25.7268 65.882 25.7029 65.9018 25.6899C65.9217 25.6768 65.9439 25.6681 65.9704 25.6681C66.0058 25.6681 66.0566 25.6899 66.1229 25.7311C66.1892 25.7724 66.2733 25.818 66.375 25.8701C66.4766 25.9201 66.6004 25.9679 66.7441 26.0092C66.8878 26.0504 67.0514 26.0721 67.2394 26.0721C67.3632 26.0721 67.4737 26.0569 67.571 26.0287C67.6682 26.0005 67.7523 25.9592 67.8208 25.9049C67.8893 25.8528 67.9402 25.7854 67.9777 25.7072C68.0131 25.629 68.0308 25.5421 68.0308 25.4444C68.0308 25.3336 67.9999 25.238 67.938 25.1577C67.8761 25.0773 67.7965 25.0078 67.697 24.9448C67.5975 24.8818 67.4847 24.8253 67.3587 24.771C67.2327 24.7167 67.1023 24.6603 66.9696 24.5994C66.8348 24.5386 66.7066 24.4691 66.5806 24.3931C66.4545 24.3171 66.3418 24.2237 66.2423 24.1172C66.1428 24.0108 66.0632 23.8826 66.0013 23.7371C65.9394 23.5916 65.9085 23.4156 65.9085 23.2093C65.9085 22.9747 65.9527 22.7683 66.0411 22.5902C66.1296 22.4121 66.2489 22.2644 66.3993 22.1471C66.5496 22.0298 66.7265 21.9429 66.9321 21.8842C67.1377 21.8256 67.3543 21.7974 67.582 21.7974C67.7014 21.7974 67.8186 21.8061 67.938 21.8234C68.0573 21.8408 68.1679 21.8647 68.2696 21.8951C68.3713 21.9255 68.4641 21.9603 68.5437 21.9972C68.6233 22.0341 68.6763 22.0667 68.7029 22.0928C68.7294 22.1188 68.7449 22.1406 68.7559 22.1579C68.7648 22.1753 68.7736 22.1992 68.778 22.2274C68.7825 22.2557 68.7891 22.2926 68.7913 22.3382C68.7935 22.3817 68.7957 22.4381 68.7957 22.5033C68.7957 22.5772 68.7935 22.638 68.7891 22.6879C68.7847 22.7379 68.778 22.7792 68.7692 22.8139C68.7604 22.8465 68.7471 22.8704 68.7316 22.8856C68.7139 22.9008 68.6918 22.9073 68.6631 22.9073C68.6343 22.9073 68.5901 22.89 68.5282 22.8552C68.4663 22.8204 68.3912 22.7813 68.3005 22.7401C68.2099 22.6988 68.106 22.6597 67.9888 22.6271C67.8694 22.5924 67.7412 22.575 67.5997 22.575C67.4892 22.575 67.3919 22.588 67.3101 22.6141C67.2283 22.6402 67.1598 22.6771 67.1045 22.7249C67.0492 22.7727 67.0072 22.827 66.9807 22.8943C66.9542 22.9595 66.9409 23.029 66.9409 23.1028C66.9409 23.2114 66.9719 23.3048 67.0315 23.3852C67.0912 23.4656 67.173 23.5351 67.2747 23.5981C67.3764 23.6611 67.4914 23.7175 67.6196 23.7718C67.7478 23.8261 67.8783 23.8826 68.0131 23.9434C68.1458 24.0043 68.2784 24.0738 68.4066 24.1498C68.5349 24.228 68.6498 24.3192 68.7493 24.4257C68.8488 24.5321 68.9306 24.6603 68.9925 24.8058C69.0544 24.9513 69.0809 25.1186 69.0809 25.3162Z" fill="#FCFEFF"/>
<path d="M74.9822 24.2823C74.9822 24.6885 74.9313 25.0534 74.8274 25.3749C74.7235 25.6964 74.571 25.9679 74.3676 26.1916C74.1642 26.4153 73.9122 26.5869 73.6137 26.7042C73.3153 26.8215 72.9682 26.8802 72.5747 26.8802C72.1856 26.8802 71.8473 26.8302 71.5577 26.7303C71.2681 26.6304 71.0272 26.4783 70.8348 26.2742C70.6425 26.07 70.4966 25.8093 70.4015 25.4922C70.3042 25.1772 70.2578 24.8014 70.2578 24.3692C70.2578 23.9717 70.3087 23.6154 70.4126 23.2983C70.5143 22.9812 70.669 22.7118 70.8724 22.4881C71.0758 22.2665 71.3278 22.0949 71.6263 21.9755C71.9247 21.856 72.274 21.7974 72.6697 21.7974C73.0478 21.7974 73.3816 21.8473 73.6712 21.9451C73.9608 22.0428 74.2018 22.1949 74.3963 22.399C74.5909 22.6032 74.7368 22.8617 74.8363 23.1745C74.9313 23.4895 74.9822 23.8566 74.9822 24.2823ZM73.9166 24.3344C73.9166 24.0759 73.8967 23.8414 73.8547 23.6307C73.8127 23.42 73.7442 23.2397 73.6447 23.0876C73.5452 22.9377 73.4148 22.8204 73.249 22.7379C73.0832 22.6554 72.8775 22.6141 72.6322 22.6141C72.3823 22.6141 72.1745 22.6597 72.0065 22.7531C71.8385 22.8443 71.7036 22.9681 71.6019 23.1224C71.5003 23.2766 71.4273 23.4569 71.3831 23.6632C71.3411 23.8696 71.319 24.0868 71.319 24.3171C71.319 24.5842 71.3389 24.8253 71.3809 25.0404C71.4229 25.2532 71.4914 25.4357 71.5887 25.5878C71.686 25.7398 71.8186 25.8549 71.9822 25.9353C72.1458 26.0157 72.3536 26.0548 72.6034 26.0548C72.8532 26.0548 73.061 26.0092 73.2291 25.9179C73.3971 25.8267 73.5319 25.7029 73.6336 25.5465C73.7353 25.3901 73.8083 25.2076 73.8525 24.9991C73.8945 24.7928 73.9166 24.5712 73.9166 24.3344Z" fill="#FCFEFF"/>
<path d="M78.9037 26.3111C78.9037 26.3871 78.9015 26.4501 78.8948 26.5022C78.8882 26.5544 78.8794 26.5978 78.8661 26.6304C78.8528 26.6651 78.8374 26.689 78.8175 26.7042C78.7976 26.7194 78.7754 26.726 78.7489 26.726H76.4608C76.3768 26.726 76.3039 26.7021 76.2464 26.6521C76.1889 26.6022 76.1602 26.5218 76.1602 26.411V21.9559C76.1602 21.9299 76.169 21.9081 76.1845 21.8886C76.2022 21.869 76.2287 21.8517 76.2685 21.8386C76.3061 21.8256 76.3591 21.8147 76.4254 21.8082C76.4918 21.7995 76.5736 21.7974 76.6708 21.7974C76.7703 21.7974 76.8543 21.8017 76.9184 21.8082C76.9825 21.8147 77.0334 21.8256 77.0732 21.8386C77.1108 21.8517 77.1395 21.8669 77.1572 21.8886C77.1749 21.9081 77.1815 21.932 77.1815 21.9559V25.9027H78.7511C78.7777 25.9027 78.7998 25.9092 78.8197 25.9244C78.8396 25.9375 78.855 25.9614 78.8683 25.9918C78.8816 26.0244 78.8904 26.0656 78.897 26.1178C78.9015 26.1721 78.9037 26.2351 78.9037 26.3111Z" fill="#FCFEFF"/>
<path d="M84.1567 24.9014C84.1567 25.2011 84.1125 25.4705 84.0218 25.7094C83.9312 25.9462 83.7985 26.1482 83.6239 26.3111C83.4492 26.4762 83.2326 26.6 82.9761 26.6869C82.7197 26.7738 82.4235 26.815 82.0896 26.815C81.7757 26.815 81.4949 26.7759 81.2451 26.6999C80.9953 26.6239 80.7853 26.5066 80.6129 26.3502C80.4404 26.1938 80.3078 25.9983 80.2171 25.7637C80.1265 25.5291 80.0801 25.2554 80.0801 24.9426V21.9581C80.0801 21.932 80.0889 21.9103 80.1022 21.8908C80.1177 21.8712 80.1464 21.8538 80.1862 21.8408C80.226 21.8278 80.279 21.8169 80.3431 21.8104C80.4073 21.8017 80.4891 21.7995 80.5908 21.7995C80.688 21.7995 80.7698 21.8039 80.8339 21.8104C80.898 21.8169 80.9489 21.8278 80.9887 21.8408C81.0263 21.8538 81.055 21.869 81.0727 21.8908C81.0904 21.9103 81.097 21.9342 81.097 21.9581V24.8536C81.097 25.0491 81.1213 25.2163 81.17 25.3597C81.2186 25.503 81.2893 25.6203 81.38 25.7137C81.4706 25.8071 81.5812 25.8767 81.7072 25.9244C81.8354 25.9722 81.9769 25.994 82.1338 25.994C82.293 25.994 82.4367 25.9701 82.5627 25.9223C82.6887 25.8745 82.7949 25.805 82.8833 25.7116C82.9695 25.6203 83.038 25.5052 83.0867 25.3705C83.1353 25.2359 83.1574 25.0817 83.1574 24.9101V21.9559C83.1574 21.9299 83.1663 21.9081 83.1817 21.8886C83.1972 21.869 83.2237 21.8517 83.2635 21.8386C83.3033 21.8256 83.3542 21.8147 83.4205 21.8082C83.4868 21.7995 83.5686 21.7974 83.6659 21.7974C83.7632 21.7974 83.8427 21.8017 83.9069 21.8082C83.971 21.8147 84.0218 21.8256 84.0594 21.8386C84.097 21.8517 84.1257 21.8669 84.1412 21.8886C84.1567 21.9081 84.1633 21.932 84.1633 21.9559V24.9014H84.1567Z" fill="#FCFEFF"/>
<path d="M89.1642 22.2057C89.1642 22.2796 89.162 22.3426 89.1553 22.3925C89.1487 22.4447 89.1399 22.4859 89.1266 22.5185C89.1133 22.5511 89.0978 22.5728 89.078 22.588C89.0581 22.6032 89.0382 22.6097 89.0138 22.6097H87.7626V26.563C87.7626 26.5891 87.7537 26.6108 87.7382 26.6304C87.7228 26.6499 87.694 26.6673 87.6542 26.6803C87.6166 26.6934 87.5636 26.7021 87.4973 26.7108C87.4309 26.7194 87.3491 26.7216 87.2519 26.7216C87.1546 26.7216 87.0728 26.7173 87.0065 26.7108C86.9424 26.7021 86.8893 26.6934 86.8495 26.6803C86.8097 26.6673 86.7832 26.6521 86.7655 26.6304C86.75 26.6108 86.7412 26.5869 86.7412 26.563V22.6097H85.4921C85.4656 22.6097 85.4457 22.6011 85.4258 22.588C85.4081 22.5728 85.3926 22.5489 85.3794 22.5185C85.3661 22.4881 85.3573 22.4447 85.3506 22.3925C85.344 22.3404 85.3418 22.2774 85.3418 22.2057C85.3418 22.1297 85.3462 22.0645 85.3506 22.0124C85.3551 21.9603 85.3661 21.9168 85.3794 21.8864C85.3926 21.856 85.4081 21.8321 85.4258 21.8191C85.4435 21.8061 85.4656 21.7974 85.4921 21.7974H89.0116C89.0337 21.7974 89.0558 21.8039 89.0757 21.8191C89.0956 21.8321 89.1111 21.856 89.1244 21.8864C89.1376 21.919 89.1465 21.9603 89.1531 22.0124C89.1597 22.0645 89.1642 22.1297 89.1642 22.2057Z" fill="#FCFEFF"/>
<path d="M91.3612 26.5891C91.3612 26.6152 91.3524 26.6369 91.3369 26.6565C91.3192 26.676 91.2927 26.6934 91.2529 26.7064C91.2131 26.7194 91.1623 26.7281 91.0981 26.7368C91.034 26.7455 90.9522 26.7477 90.8505 26.7477C90.7533 26.7477 90.6715 26.7433 90.6051 26.7368C90.5388 26.7303 90.488 26.7194 90.4482 26.7064C90.4084 26.6934 90.3819 26.6782 90.3642 26.6565C90.3465 26.6369 90.3398 26.613 90.3398 26.5891V21.9559C90.3398 21.9299 90.3487 21.9081 90.3642 21.8886C90.3819 21.869 90.4084 21.8517 90.4482 21.8386C90.488 21.8256 90.541 21.8147 90.6051 21.8082C90.6692 21.7995 90.751 21.7974 90.8483 21.7974C90.95 21.7974 91.0318 21.8017 91.0959 21.8082C91.16 21.8147 91.2109 21.8256 91.2507 21.8386C91.2883 21.8517 91.317 21.8669 91.3347 21.8886C91.3524 21.9081 91.359 21.932 91.359 21.9559V26.5891H91.3612Z" fill="#FCFEFF"/>
<path d="M97.2656 24.2823C97.2656 24.6885 97.2148 25.0534 97.1109 25.3749C97.007 25.6964 96.8544 25.9679 96.651 26.1916C96.4477 26.4153 96.1956 26.5869 95.8972 26.7042C95.5987 26.8215 95.2516 26.8802 94.8559 26.8802C94.4668 26.8802 94.1286 26.8302 93.839 26.7303C93.5494 26.6304 93.3084 26.4783 93.1161 26.2742C92.9237 26.07 92.7778 25.8093 92.6828 25.4922C92.5855 25.1772 92.5391 24.8014 92.5391 24.3692C92.5391 23.9717 92.5899 23.6154 92.6938 23.2983C92.7977 22.9812 92.9503 22.7118 93.1536 22.4881C93.357 22.2665 93.6069 22.0949 93.9075 21.9755C94.206 21.856 94.5553 21.7974 94.951 21.7974C95.329 21.7974 95.6628 21.8473 95.9525 21.9451C96.2421 22.0428 96.483 22.1949 96.6776 22.399C96.8721 22.6032 97.018 22.8617 97.1175 23.1745C97.217 23.4895 97.2656 23.8566 97.2656 24.2823ZM96.2001 24.3344C96.2001 24.0759 96.1802 23.8414 96.1382 23.6307C96.0961 23.42 96.0276 23.2397 95.9281 23.0876C95.8286 22.9356 95.6982 22.8204 95.5324 22.7379C95.3666 22.6554 95.161 22.6141 94.9156 22.6141C94.6658 22.6141 94.458 22.6597 94.29 22.7531C94.122 22.8443 93.9871 22.9681 93.8854 23.1224C93.7837 23.2766 93.7108 23.4569 93.6665 23.6632C93.6245 23.8696 93.6024 24.0868 93.6024 24.3171C93.6024 24.5842 93.6223 24.8253 93.6643 25.0404C93.7063 25.2554 93.7749 25.4357 93.8721 25.5878C93.9694 25.7398 94.1021 25.8549 94.2657 25.9353C94.4292 26.0157 94.6371 26.0548 94.8869 26.0548C95.1367 26.0548 95.3445 26.0092 95.5125 25.9179C95.6805 25.8267 95.8154 25.7029 95.9171 25.5465C96.0188 25.3901 96.0917 25.2076 96.1359 24.9991C96.1802 24.7928 96.2001 24.5712 96.2001 24.3344Z" fill="#FCFEFF"/>
<path d="M102.566 26.3676C102.566 26.4262 102.555 26.4783 102.535 26.524C102.516 26.5696 102.487 26.6065 102.451 26.6369C102.416 26.6673 102.376 26.689 102.328 26.7042C102.279 26.7173 102.233 26.726 102.182 26.726H101.751C101.66 26.726 101.583 26.7173 101.516 26.6999C101.45 26.6825 101.39 26.6499 101.335 26.6021C101.28 26.5565 101.227 26.4914 101.176 26.4132C101.125 26.3328 101.068 26.2307 101.001 26.1047L99.7588 23.8109C99.6858 23.6741 99.6128 23.5264 99.5377 23.37C99.4625 23.2136 99.3962 23.0594 99.3365 22.9095H99.3277C99.3365 23.092 99.3453 23.2723 99.3498 23.4525C99.3542 23.6328 99.3586 23.8196 99.3586 24.0108V26.5783C99.3586 26.6043 99.352 26.626 99.3365 26.6456C99.3232 26.6651 99.2989 26.6825 99.2635 26.6977C99.2282 26.7108 99.1817 26.7216 99.1221 26.7303C99.0624 26.739 98.9872 26.7412 98.8943 26.7412C98.8037 26.7412 98.7285 26.7368 98.6711 26.7303C98.6136 26.7238 98.5649 26.7129 98.5318 26.6977C98.4986 26.6847 98.4743 26.6673 98.4633 26.6456C98.45 26.626 98.4434 26.6021 98.4434 26.5783V22.1688C98.4434 22.0493 98.4787 21.9603 98.5495 21.9016C98.6202 21.843 98.7064 21.8126 98.8103 21.8126H99.3542C99.4515 21.8126 99.5333 21.8213 99.6018 21.8365C99.6681 21.8538 99.7278 21.8799 99.7809 21.919C99.8339 21.9559 99.8826 22.0102 99.929 22.0754C99.9754 22.1427 100.022 22.2253 100.07 22.323L101.043 24.1172C101.101 24.2258 101.156 24.3323 101.211 24.4365C101.266 24.5408 101.32 24.6472 101.37 24.7515C101.421 24.8557 101.472 24.96 101.521 25.0599C101.569 25.162 101.618 25.2619 101.664 25.364H101.669C101.66 25.1881 101.656 25.0034 101.651 24.8101C101.647 24.619 101.645 24.4343 101.645 24.2606V21.9603C101.645 21.9342 101.653 21.9125 101.669 21.8929C101.684 21.8734 101.711 21.856 101.746 21.8386C101.782 21.8234 101.83 21.8126 101.888 21.8061C101.947 21.7995 102.023 21.7974 102.115 21.7974C102.202 21.7974 102.277 21.7995 102.334 21.8061C102.394 21.8126 102.438 21.8234 102.471 21.8386C102.505 21.8538 102.527 21.8712 102.54 21.8929C102.553 21.9125 102.56 21.9364 102.56 21.9603V26.3676H102.566Z" fill="#FCFEFF"/>
<path d="M107.003 25.3162C107.003 25.5747 106.954 25.8006 106.857 25.994C106.76 26.1894 106.627 26.3502 106.459 26.4805C106.291 26.6108 106.096 26.7086 105.873 26.7738C105.65 26.8389 105.409 26.8715 105.155 26.8715C104.982 26.8715 104.823 26.8585 104.675 26.8302C104.527 26.802 104.396 26.7694 104.284 26.7303C104.171 26.6912 104.076 26.6499 104.001 26.6065C103.925 26.5631 103.87 26.5261 103.837 26.4935C103.804 26.461 103.78 26.4132 103.766 26.3524C103.753 26.2915 103.744 26.2003 103.744 26.0852C103.744 26.007 103.746 25.9418 103.753 25.8875C103.757 25.8354 103.766 25.7919 103.777 25.7594C103.788 25.7268 103.804 25.7029 103.824 25.6899C103.844 25.6768 103.866 25.6681 103.89 25.6681C103.925 25.6681 103.976 25.6899 104.043 25.7311C104.109 25.7724 104.193 25.818 104.295 25.8701C104.396 25.9201 104.52 25.9679 104.664 26.0092C104.807 26.0504 104.971 26.0721 105.159 26.0721C105.283 26.0721 105.393 26.0569 105.491 26.0287C105.588 26.0005 105.672 25.9592 105.74 25.9049C105.809 25.8506 105.86 25.7854 105.897 25.7072C105.933 25.629 105.95 25.5421 105.95 25.4444C105.95 25.3336 105.919 25.238 105.858 25.1577C105.796 25.0773 105.716 25.0078 105.617 24.9448C105.517 24.8818 105.404 24.8253 105.278 24.771C105.152 24.7167 105.022 24.6603 104.889 24.5994C104.754 24.5386 104.626 24.4691 104.5 24.3931C104.374 24.3171 104.261 24.2237 104.162 24.1172C104.062 24.0108 103.983 23.8826 103.921 23.7371C103.859 23.5916 103.828 23.4156 103.828 23.2093C103.828 22.9747 103.872 22.7683 103.961 22.5902C104.049 22.4121 104.169 22.2644 104.319 22.1471C104.469 22.0298 104.646 21.9429 104.852 21.8842C105.057 21.8256 105.272 21.7974 105.502 21.7974C105.621 21.7974 105.738 21.8061 105.858 21.8234C105.977 21.8408 106.088 21.8647 106.189 21.8951C106.291 21.9255 106.384 21.9603 106.463 21.9972C106.543 22.0341 106.596 22.0667 106.62 22.0928C106.647 22.1188 106.665 22.1406 106.673 22.1579C106.682 22.1753 106.689 22.1992 106.695 22.2274C106.702 22.2557 106.707 22.2926 106.709 22.3382C106.711 22.3817 106.713 22.4381 106.713 22.5033C106.713 22.5772 106.711 22.638 106.707 22.6879C106.702 22.7379 106.695 22.7792 106.687 22.8139C106.678 22.8465 106.665 22.8704 106.647 22.8856C106.629 22.9008 106.607 22.9073 106.58 22.9073C106.552 22.9073 106.508 22.89 106.446 22.8552C106.384 22.8204 106.309 22.7813 106.218 22.7401C106.127 22.6988 106.023 22.6597 105.906 22.6271C105.787 22.5924 105.659 22.575 105.517 22.575C105.407 22.575 105.309 22.588 105.228 22.6141C105.146 22.6402 105.077 22.6771 105.022 22.7249C104.967 22.7727 104.925 22.827 104.898 22.8943C104.872 22.9595 104.858 23.029 104.858 23.1028C104.858 23.2114 104.889 23.3048 104.949 23.3852C105.009 23.4656 105.09 23.5351 105.192 23.5981C105.294 23.6611 105.409 23.7175 105.537 23.7718C105.665 23.8261 105.798 23.8826 105.931 23.9434C106.063 24.0043 106.196 24.0738 106.324 24.1498C106.452 24.228 106.567 24.3192 106.667 24.4257C106.768 24.5321 106.848 24.6603 106.91 24.8058C106.972 24.9513 107.003 25.1186 107.003 25.3162Z" fill="#FCFEFF"/>
</svg>
