<svg width="294" height="123" viewBox="0 0 294 123" fill="none" xmlns="http://www.w3.org/2000/svg">
<path d="M28.0738 75.1799C28.0738 75.5009 28.0585 75.7776 28.0317 76.0027C28.0011 76.2315 27.9591 76.4123 27.9018 76.5526C27.8444 76.6928 27.7718 76.7924 27.6877 76.8588C27.5998 76.9252 27.5081 76.9585 27.4011 76.9585H21.813V94.3238C21.813 94.4345 21.7748 94.5341 21.7022 94.6227C21.6257 94.7112 21.5034 94.785 21.3314 94.8404C21.1594 94.8957 20.9262 94.94 20.6319 94.9732C20.3376 95.0064 19.9745 95.0249 19.535 95.0249C19.0992 95.0249 18.7323 95.0101 18.4418 94.9732C18.1475 94.94 17.9144 94.8957 17.7424 94.8404C17.5704 94.785 17.448 94.7112 17.3716 94.6227C17.2952 94.5341 17.2608 94.4345 17.2608 94.3238V76.9585H11.6727C11.558 76.9585 11.4587 76.9252 11.3784 76.8588C11.2981 76.7924 11.2293 76.6891 11.172 76.5526C11.1147 76.4123 11.0726 76.2315 11.042 76.0027C11.0115 75.774 11 75.5009 11 75.1799C11 74.8478 11.0153 74.5636 11.042 74.3312C11.0688 74.0987 11.1147 73.9142 11.172 73.774C11.2293 73.6337 11.2981 73.5341 11.3784 73.4751C11.4587 73.4123 11.558 73.3828 11.6727 73.3828H27.4011C27.5043 73.3828 27.5998 73.4123 27.6877 73.4751C27.7756 73.5378 27.8444 73.6374 27.9018 73.774C27.9591 73.9142 28.0011 74.0987 28.0317 74.3312C28.0623 74.5636 28.0738 74.8478 28.0738 75.1799Z" fill="white"/>
<path d="M45.2091 93.2131C45.2091 93.5341 45.1938 93.8035 45.1671 94.0212C45.1365 94.2389 45.0944 94.4123 45.0371 94.5452C44.9798 94.678 44.9072 94.774 44.8231 94.8367C44.7352 94.8994 44.6434 94.9289 44.5364 94.9289H33.3259C32.9475 94.9289 32.6264 94.8219 32.3703 94.6042C32.1142 94.3865 31.9805 94.0359 31.9805 93.5489V74.7666C31.9805 74.2795 32.1104 73.9252 32.3703 73.7075C32.6302 73.4898 32.9475 73.3828 33.3259 73.3828H44.4676C44.5708 73.3828 44.6625 73.4123 44.7428 73.4677C44.8231 73.523 44.8919 73.619 44.9492 73.7592C45.0065 73.8994 45.0486 74.0765 45.0791 74.2906C45.1059 74.5083 45.1212 74.7813 45.1212 75.1134C45.1212 75.4234 45.1059 75.6891 45.0791 75.9031C45.0486 76.1208 45.0065 76.2943 44.9492 76.4271C44.8919 76.5599 44.8231 76.6596 44.7428 76.7186C44.6625 76.7813 44.5708 76.8109 44.4676 76.8109H36.5021V82.0765H43.2445C43.3477 82.0765 43.4433 82.1061 43.5312 82.1688C43.6191 82.2315 43.6879 82.3238 43.7452 82.4529C43.8025 82.5821 43.8446 82.7518 43.8752 82.9695C43.9019 83.1872 43.9172 83.4492 43.9172 83.7592C43.9172 84.0802 43.9019 84.3459 43.8752 84.5599C43.8446 84.7703 43.8025 84.94 43.7452 85.0692C43.6879 85.1983 43.6153 85.2869 43.5312 85.3422C43.4433 85.3976 43.3515 85.4271 43.2445 85.4271H36.5021V91.5046H44.5364C44.6396 91.5046 44.7352 91.5341 44.8231 91.5968C44.911 91.6596 44.9798 91.7555 45.0371 91.8883C45.0944 92.0212 45.1365 92.1946 45.1671 92.4123C45.1938 92.6227 45.2091 92.892 45.2091 93.2131Z" fill="white"/>
<path d="M65.4028 91.6622C65.4028 91.939 65.3951 92.1752 65.376 92.3707C65.3607 92.5663 65.334 92.7324 65.2996 92.8689C65.2652 93.0091 65.2193 93.1272 65.162 93.2268C65.1047 93.3265 65.0129 93.4408 64.8868 93.5663C64.7607 93.6955 64.516 93.8578 64.1529 94.0571C63.7898 94.2563 63.3464 94.4482 62.8266 94.6327C62.303 94.8172 61.7067 94.9685 61.034 95.0903C60.3613 95.2121 59.6351 95.2748 58.8515 95.2748C57.3227 95.2748 55.9428 95.046 54.7121 94.5921C53.4813 94.1383 52.4341 93.4556 51.5741 92.5515C50.7103 91.6475 50.049 90.5183 49.5903 89.1641C49.1317 87.8098 48.9023 86.2342 48.9023 84.4372C48.9023 82.6069 49.1546 80.9796 49.663 79.5589C50.1675 78.1383 50.8746 76.9464 51.7843 75.9796C52.694 75.0128 53.7833 74.2822 55.0523 73.7803C56.3212 73.2822 57.724 73.0312 59.2529 73.0312C59.8721 73.0312 60.4722 73.0829 61.0455 73.1825C61.6188 73.2822 62.1501 73.4113 62.6393 73.5737C63.1286 73.736 63.5681 73.9205 63.958 74.1309C64.3479 74.3412 64.6231 74.522 64.776 74.6733C64.9327 74.8246 65.0359 74.9464 65.0932 75.0497C65.1505 75.1493 65.1964 75.2785 65.2308 75.4335C65.2652 75.5884 65.2919 75.7729 65.3072 75.9833C65.3225 76.1936 65.334 76.4556 65.334 76.7656C65.334 77.0977 65.3225 77.3818 65.2996 77.6143C65.2767 77.8467 65.2346 78.0349 65.1773 78.1789C65.1199 78.3228 65.0511 78.4298 64.9709 78.4962C64.8906 78.5626 64.7989 78.5958 64.6957 78.5958C64.5237 78.5958 64.3058 78.4999 64.0421 78.3043C63.7784 78.1087 63.4344 77.8947 63.0177 77.6549C62.5973 77.415 62.0966 77.201 61.5194 77.0054C60.9385 76.8098 60.2466 76.7139 59.4402 76.7139C58.5534 76.7139 57.766 76.8873 57.0704 77.2379C56.3748 77.5884 55.7823 78.0866 55.2931 78.736C54.8038 79.3855 54.4331 80.1715 54.1808 81.0903C53.9285 82.0128 53.8024 83.0497 53.8024 84.2047C53.8024 85.4704 53.9362 86.5663 54.2076 87.4925C54.4789 88.4187 54.8612 89.1825 55.3619 89.7803C55.8626 90.3781 56.4665 90.8246 57.1736 91.1198C57.8807 91.415 58.6757 91.5626 59.5625 91.5626C60.3689 91.5626 61.0608 91.4704 61.6494 91.2896C62.2342 91.105 62.7387 90.9058 63.1592 90.6807C63.5796 90.4593 63.9236 90.26 64.195 90.0829C64.4663 89.9058 64.6727 89.8172 64.8256 89.8172C64.9403 89.8172 65.032 89.8394 65.1008 89.8836C65.1696 89.9279 65.227 90.0165 65.2728 90.1493C65.3187 90.2822 65.3531 90.4704 65.376 90.7065C65.3913 90.9464 65.4028 91.2637 65.4028 91.6622Z" fill="white"/>
<path d="M87.3475 94.3255C87.3475 94.4362 87.3093 94.5359 87.2367 94.6244C87.1602 94.713 87.0379 94.7868 86.8659 94.8421C86.6939 94.8975 86.4646 94.9418 86.1779 94.975C85.8913 95.0082 85.5282 95.0266 85.0924 95.0266C84.6452 95.0266 84.2745 95.0119 83.9802 94.975C83.6859 94.9418 83.4565 94.8975 83.2922 94.8421C83.124 94.7868 83.0055 94.713 82.9291 94.6244C82.8526 94.5359 82.8182 94.4362 82.8182 94.3255V85.617H74.4667V94.3255C74.4667 94.4362 74.4323 94.5359 74.3635 94.6244C74.2947 94.713 74.1724 94.7868 74.0004 94.8421C73.8284 94.8975 73.5991 94.9418 73.3124 94.975C73.0258 95.0082 72.6588 95.0266 72.2078 95.0266C71.7721 95.0266 71.4051 95.0119 71.1147 94.975C70.8203 94.9418 70.5872 94.8975 70.4152 94.8421C70.2432 94.7868 70.1171 94.713 70.0444 94.6244C69.968 94.5359 69.9336 94.4362 69.9336 94.3255V73.9824C69.9336 73.8717 69.9718 73.772 70.0444 73.6835C70.1171 73.5949 70.2432 73.5211 70.4152 73.4658C70.5872 73.4104 70.8203 73.3661 71.1147 73.3329C71.409 73.2997 71.7721 73.2812 72.2078 73.2812C72.655 73.2812 73.0258 73.296 73.3124 73.3329C73.5991 73.3698 73.8284 73.4104 74.0004 73.4658C74.1724 73.5211 74.2947 73.5949 74.3635 73.6835C74.4323 73.772 74.4667 73.8717 74.4667 73.9824V81.8901H82.8144V73.9824C82.8144 73.8717 82.8526 73.772 82.9252 73.6835C82.9979 73.5949 83.1202 73.5211 83.2883 73.4658C83.4565 73.4104 83.6859 73.3661 83.9763 73.3329C84.2707 73.2997 84.6414 73.2812 85.0886 73.2812C85.5243 73.2812 85.8874 73.296 86.1741 73.3329C86.4608 73.3698 86.6901 73.4104 86.8621 73.4658C87.0341 73.5211 87.1564 73.5949 87.2329 73.6835C87.3093 73.772 87.3437 73.8717 87.3437 73.9824V94.3255H87.3475Z" fill="white"/>
<path d="M111.885 93.3939C111.885 93.6485 111.839 93.8773 111.747 94.0766C111.655 94.2758 111.533 94.4419 111.376 94.5747C111.219 94.7076 111.036 94.8035 110.826 94.8662C110.612 94.9253 110.398 94.9585 110.18 94.9585H108.25C107.848 94.9585 107.5 94.9216 107.206 94.8404C106.912 94.7629 106.644 94.6227 106.396 94.416C106.147 94.2094 105.91 93.9326 105.681 93.5821C105.452 93.2315 105.192 92.7814 104.905 92.2242L99.3515 82.1504C99.0304 81.5526 98.7017 80.9031 98.3692 80.2094C98.0366 79.5157 97.7347 78.8404 97.4709 78.1873H97.4365C97.4824 78.988 97.5168 79.7814 97.5397 80.5747C97.5627 81.3681 97.5741 82.1873 97.5741 83.0286V94.298C97.5741 94.4087 97.5436 94.5083 97.4786 94.5969C97.4136 94.6854 97.3066 94.7592 97.1499 94.8219C96.9932 94.8847 96.7829 94.929 96.5192 94.9622C96.2555 94.9954 95.9153 95.0138 95.5025 95.0138C95.1012 95.0138 94.7686 94.9991 94.5011 94.9622C94.2374 94.929 94.031 94.881 93.8819 94.8219C93.7328 94.7592 93.6296 94.6854 93.5723 94.5969C93.515 94.5083 93.4844 94.4087 93.4844 94.298V74.9474C93.4844 74.4271 93.6411 74.036 93.9583 73.774C94.2756 73.512 94.6616 73.3828 95.1203 73.3828H97.5512C97.9869 73.3828 98.3577 73.4197 98.6558 73.4898C98.954 73.5636 99.2215 73.6817 99.4585 73.8478C99.6955 74.0138 99.9172 74.2463 100.124 74.5378C100.33 74.833 100.544 75.1946 100.762 75.6301L105.108 83.5046C105.36 83.9806 105.608 84.4493 105.857 84.9105C106.105 85.3718 106.342 85.833 106.572 86.2906C106.801 86.7518 107.026 87.202 107.244 87.6485C107.462 88.0913 107.676 88.5378 107.883 88.9806H107.898C107.864 88.2057 107.837 87.3939 107.821 86.5489C107.806 85.7039 107.795 84.8994 107.795 84.1356V74.0286C107.795 73.9179 107.829 73.8183 107.898 73.7297C107.967 73.6411 108.081 73.5636 108.242 73.4972C108.402 73.4308 108.617 73.3828 108.88 73.357C109.144 73.3312 109.484 73.3164 109.897 73.3164C110.287 73.3164 110.616 73.3312 110.879 73.357C111.143 73.3865 111.346 73.4308 111.491 73.4972C111.636 73.5636 111.735 73.6411 111.793 73.7297C111.85 73.8183 111.881 73.9179 111.881 74.0286V93.3939H111.885Z" fill="white"/>
<path d="M138.086 83.9041C138.086 85.69 137.857 87.2878 137.398 88.6974C136.94 90.107 136.255 91.3026 135.346 92.2841C134.436 93.2657 133.312 94.0148 131.975 94.5314C130.637 95.048 129.085 95.3063 127.327 95.3063C125.591 95.3063 124.074 95.0886 122.782 94.6494C121.49 94.2103 120.412 93.5424 119.549 92.6421C118.685 91.7417 118.039 90.6015 117.607 89.214C117.175 87.8266 116.961 86.1845 116.961 84.2878C116.961 82.5461 117.19 80.9779 117.649 79.583C118.108 78.1919 118.792 77.0037 119.701 76.0295C120.611 75.0517 121.731 74.3026 123.073 73.7823C124.41 73.262 125.966 73 127.736 73C129.425 73 130.916 73.2177 132.212 73.6494C133.503 74.0812 134.585 74.7491 135.453 75.6458C136.32 76.5461 136.978 77.679 137.417 79.0517C137.865 80.4207 138.086 82.0406 138.086 83.9041ZM133.328 84.1365C133.328 83.0037 133.236 81.9742 133.052 81.048C132.869 80.1218 132.556 79.3284 132.112 78.6679C131.669 78.0074 131.08 77.4982 130.342 77.1365C129.605 76.7749 128.687 76.5941 127.583 76.5941C126.467 76.5941 125.538 76.797 124.789 77.203C124.04 77.6089 123.436 78.1476 122.977 78.8266C122.515 79.5018 122.194 80.2952 122.002 81.1993C121.811 82.1033 121.72 83.0627 121.72 84.0701C121.72 85.2472 121.811 86.3026 121.995 87.2398C122.178 88.1771 122.488 88.9779 122.927 89.6458C123.367 90.3137 123.952 90.8192 124.686 91.1697C125.423 91.5203 126.348 91.6937 127.464 91.6937C128.58 91.6937 129.509 91.4945 130.258 91.0959C131.008 90.6974 131.608 90.1513 132.07 89.4649C132.529 88.7786 132.854 87.9742 133.045 87.059C133.236 86.1439 133.328 85.1697 133.328 84.1365Z" fill="white"/>
<path d="M155.434 93.0931C155.434 93.4252 155.418 93.7056 155.392 93.9344C155.361 94.1632 155.319 94.3514 155.262 94.499C155.204 94.6502 155.132 94.7573 155.048 94.8237C154.96 94.8901 154.86 94.9233 154.746 94.9233H144.521C144.143 94.9233 143.822 94.8163 143.566 94.5986C143.306 94.3809 143.176 94.0303 143.176 93.5432V73.9824C143.176 73.8717 143.214 73.772 143.287 73.6835C143.359 73.5949 143.485 73.5211 143.657 73.4658C143.829 73.4104 144.063 73.3661 144.357 73.3329C144.651 73.2997 145.014 73.2812 145.45 73.2812C145.897 73.2812 146.268 73.296 146.555 73.3329C146.841 73.3698 147.071 73.4104 147.243 73.4658C147.415 73.5211 147.537 73.5949 147.613 73.6835C147.686 73.772 147.724 73.8717 147.724 73.9824V91.3145H154.742C154.856 91.3145 154.956 91.344 155.044 91.4067C155.128 91.4694 155.2 91.5691 155.258 91.7056C155.315 91.8458 155.357 92.0266 155.388 92.2554C155.418 92.4805 155.434 92.761 155.434 93.0931Z" fill="white"/>
<path d="M178.828 83.9041C178.828 85.69 178.599 87.2878 178.14 88.6974C177.682 90.107 176.998 91.3026 176.088 92.2841C175.178 93.2657 174.054 94.0148 172.717 94.5314C171.375 95.048 169.827 95.3063 168.069 95.3063C166.334 95.3063 164.82 95.0886 163.524 94.6494C162.232 94.2103 161.155 93.5424 160.291 92.6421C159.427 91.7417 158.781 90.6015 158.349 89.214C157.917 87.8266 157.703 86.1845 157.703 84.2878C157.703 82.5461 157.932 80.9779 158.391 79.583C158.85 78.1919 159.534 77.0037 160.444 76.0295C161.353 75.0517 162.477 74.3026 163.815 73.7823C165.153 73.262 166.708 73 168.482 73C170.171 73 171.662 73.2177 172.958 73.6494C174.249 74.0812 175.331 74.7491 176.199 75.6458C177.066 76.5461 177.72 77.679 178.163 79.0517C178.607 80.4207 178.828 82.0406 178.828 83.9041ZM174.07 84.1365C174.07 83.0037 173.978 81.9742 173.795 81.048C173.611 80.1218 173.298 79.3284 172.854 78.6679C172.411 78.0074 171.822 77.4982 171.088 77.1365C170.351 76.7749 169.433 76.5941 168.329 76.5941C167.213 76.5941 166.28 76.797 165.535 77.203C164.786 77.6089 164.182 78.1476 163.723 78.8266C163.264 79.5018 162.94 80.2952 162.748 81.1993C162.557 82.1033 162.466 83.0627 162.466 84.0701C162.466 85.2472 162.557 86.3026 162.741 87.2398C162.924 88.1771 163.234 88.9779 163.673 89.6458C164.109 90.31 164.698 90.8192 165.432 91.1697C166.165 91.5203 167.094 91.6937 168.207 91.6937C169.319 91.6937 170.251 91.4945 171.001 91.0959C171.75 90.6974 172.354 90.1513 172.812 89.4649C173.271 88.7786 173.596 87.9742 173.787 87.059C173.978 86.1439 174.07 85.1697 174.07 84.1365Z" fill="white"/>
<path d="M201.811 76.7278C201.811 77.0488 201.796 77.3256 201.769 77.5618C201.742 77.7942 201.7 77.9824 201.647 78.1189C201.597 78.2592 201.532 78.3551 201.456 78.4105C201.379 78.4658 201.291 78.4953 201.188 78.4953C201.039 78.4953 200.798 78.3957 200.466 78.1964C200.133 77.9972 199.69 77.7795 199.139 77.547C198.589 77.3145 197.928 77.0968 197.167 76.8975C196.403 76.6983 195.516 76.5987 194.503 76.5987C193.421 76.5987 192.447 76.7795 191.571 77.1411C190.696 77.5027 189.951 78.0119 189.328 78.6725C188.705 79.333 188.231 80.1263 187.894 81.0525C187.562 81.9787 187.394 83.0046 187.394 84.1226C187.394 85.3551 187.566 86.44 187.902 87.3772C188.242 88.3145 188.716 89.1005 189.324 89.7315C189.932 90.3625 190.666 90.8422 191.522 91.1632C192.378 91.4843 193.322 91.6466 194.358 91.6466C194.862 91.6466 195.363 91.5913 195.856 91.4806C196.349 91.3699 196.812 91.2038 197.236 90.9824V85.9861H193.012C192.806 85.9861 192.645 85.8606 192.531 85.6097C192.416 85.3588 192.359 84.9344 192.359 84.3367C192.359 84.0267 192.374 83.7647 192.401 83.5544C192.428 83.344 192.473 83.1743 192.531 83.0451C192.588 82.916 192.657 82.8237 192.737 82.761C192.817 82.702 192.909 82.6688 193.012 82.6688H200.55C200.733 82.6688 200.898 82.6983 201.043 82.761C201.188 82.8237 201.314 82.9123 201.421 83.0341C201.532 83.1558 201.612 83.3034 201.67 83.4769C201.727 83.6503 201.758 83.8459 201.758 84.0673V92.6392C201.758 92.9713 201.696 93.2629 201.578 93.5138C201.459 93.7647 201.211 93.9603 200.836 94.1042C200.462 94.2481 199.999 94.3994 199.449 94.5544C198.899 94.7093 198.325 94.8422 197.733 94.9529C197.14 95.0636 196.544 95.1485 195.94 95.2038C195.336 95.2592 194.729 95.2887 194.121 95.2887C192.34 95.2887 190.742 95.0415 189.335 94.547C187.929 94.0525 186.736 93.3367 185.758 92.3994C184.779 91.4621 184.034 90.3182 183.514 88.9713C182.998 87.6245 182.738 86.0931 182.738 84.3846C182.738 82.6208 183.013 81.0341 183.564 79.6319C184.118 78.2296 184.898 77.0341 185.911 76.0525C186.924 75.071 188.143 74.3182 189.576 73.7979C191.006 73.2776 192.603 73.0156 194.362 73.0156C195.329 73.0156 196.208 73.0784 196.999 73.2075C197.794 73.3367 198.486 73.4916 199.078 73.6725C199.671 73.857 200.16 74.0525 200.554 74.2629C200.943 74.4732 201.219 74.6577 201.371 74.8127C201.528 74.9677 201.639 75.1891 201.708 75.4695C201.777 75.7536 201.811 76.1743 201.811 76.7278Z" fill="white"/>
<path d="M212.236 94.3255C212.236 94.4362 212.198 94.5359 212.125 94.6244C212.049 94.713 211.926 94.7868 211.754 94.8421C211.582 94.8975 211.353 94.9418 211.066 94.975C210.78 95.0082 210.413 95.0266 209.962 95.0266C209.526 95.0266 209.159 95.0119 208.865 94.975C208.57 94.9381 208.337 94.8975 208.165 94.8421C207.993 94.7868 207.867 94.713 207.794 94.6244C207.718 94.5359 207.684 94.4362 207.684 94.3255V73.9824C207.684 73.8717 207.722 73.772 207.794 73.6835C207.867 73.5949 207.997 73.5211 208.173 73.4658C208.352 73.4104 208.586 73.3661 208.872 73.3329C209.159 73.2997 209.522 73.2812 209.958 73.2812C210.405 73.2812 210.772 73.296 211.062 73.3329C211.353 73.3698 211.578 73.4104 211.75 73.4658C211.922 73.5211 212.049 73.5949 212.121 73.6835C212.194 73.772 212.232 73.8717 212.232 73.9824V94.3255H212.236Z" fill="white"/>
<path d="M233.809 91.6622C233.809 91.939 233.801 92.1752 233.782 92.3707C233.767 92.5663 233.74 92.7324 233.706 92.8689C233.671 93.0091 233.626 93.1272 233.568 93.2268C233.511 93.3265 233.419 93.4408 233.293 93.5663C233.167 93.6955 232.922 93.8578 232.559 94.0571C232.196 94.2563 231.753 94.4482 231.233 94.6327C230.713 94.8172 230.113 94.9685 229.44 95.0903C228.768 95.2121 228.041 95.2748 227.258 95.2748C225.729 95.2748 224.349 95.046 223.118 94.5921C221.888 94.1383 220.84 93.4556 219.98 92.5515C219.116 91.6475 218.455 90.5183 217.997 89.1641C217.538 87.8098 217.309 86.2342 217.309 84.4372C217.309 82.6069 217.561 80.9796 218.069 79.5589C218.574 78.1383 219.281 76.9464 220.191 75.9796C221.1 75.0128 222.186 74.2822 223.459 73.7803C224.731 73.2785 226.13 73.0312 227.659 73.0312C228.282 73.0312 228.878 73.0829 229.452 73.1825C230.025 73.2822 230.556 73.4113 231.046 73.5737C231.535 73.736 231.974 73.9205 232.364 74.1309C232.754 74.3412 233.029 74.522 233.182 74.6733C233.339 74.8246 233.446 74.9464 233.503 75.0497C233.561 75.1493 233.606 75.2785 233.641 75.4335C233.675 75.5884 233.702 75.7729 233.717 75.9833C233.733 76.1936 233.744 76.4556 233.744 76.7656C233.744 77.0977 233.733 77.3818 233.71 77.6143C233.687 77.8467 233.645 78.0349 233.587 78.1789C233.53 78.3228 233.461 78.4298 233.381 78.4962C233.301 78.5626 233.209 78.5958 233.106 78.5958C232.934 78.5958 232.716 78.4999 232.452 78.3043C232.188 78.1087 231.844 77.8947 231.424 77.6549C231.004 77.415 230.503 77.201 229.926 77.0054C229.345 76.8098 228.653 76.7139 227.846 76.7139C226.96 76.7139 226.172 76.8873 225.477 77.2379C224.781 77.5884 224.189 78.0866 223.699 78.736C223.21 79.3855 222.839 80.1715 222.587 81.0903C222.335 82.0128 222.209 83.0497 222.209 84.2047C222.209 85.4704 222.342 86.5663 222.614 87.4925C222.885 88.4187 223.267 89.1825 223.768 89.7803C224.269 90.3781 224.873 90.8246 225.58 91.1198C226.287 91.415 227.082 91.5626 227.969 91.5626C228.775 91.5626 229.467 91.4704 230.056 91.2896C230.64 91.105 231.145 90.9058 231.565 90.6807C231.986 90.4593 232.33 90.26 232.601 90.0829C232.873 89.9058 233.083 89.8172 233.232 89.8172C233.347 89.8172 233.438 89.8394 233.507 89.8836C233.576 89.9279 233.633 90.0165 233.679 90.1493C233.725 90.2822 233.759 90.4704 233.782 90.7065C233.798 90.9464 233.809 91.2637 233.809 91.6622Z" fill="white"/>
<path d="M21.2715 116.015C21.3223 116.167 21.354 116.288 21.3667 116.377C21.3794 116.466 21.3625 116.534 21.3159 116.58C21.2694 116.622 21.1868 116.648 21.0684 116.656C20.9499 116.669 20.7869 116.675 20.5796 116.675C20.3638 116.675 20.1945 116.671 20.0718 116.663C19.9533 116.658 19.8623 116.648 19.7988 116.631C19.7354 116.61 19.6909 116.582 19.6655 116.548C19.6401 116.514 19.619 116.47 19.6021 116.415L19.0498 114.765H15.9648L15.4443 116.371C15.4274 116.43 15.4041 116.481 15.3745 116.523C15.3491 116.561 15.3047 116.593 15.2412 116.618C15.182 116.639 15.0952 116.654 14.981 116.663C14.8709 116.671 14.7249 116.675 14.543 116.675C14.3483 116.675 14.196 116.669 14.0859 116.656C13.9759 116.644 13.8997 116.614 13.8574 116.567C13.8151 116.517 13.8003 116.447 13.813 116.358C13.8257 116.269 13.8574 116.151 13.9082 116.002L16.4409 108.715C16.4663 108.643 16.4959 108.586 16.5298 108.544C16.5636 108.497 16.6165 108.464 16.6885 108.442C16.7646 108.417 16.8683 108.402 16.9995 108.398C17.1307 108.389 17.3042 108.385 17.52 108.385C17.7697 108.385 17.9686 108.389 18.1167 108.398C18.2648 108.402 18.3791 108.417 18.4595 108.442C18.5441 108.464 18.6034 108.497 18.6372 108.544C18.6753 108.59 18.707 108.654 18.7324 108.734L21.2715 116.015ZM17.501 109.991H17.4946L16.333 113.482H18.6626L17.501 109.991Z" fill="#FCFEFF"/>
<path d="M28.9014 113.578C28.9014 114.081 28.8273 114.532 28.6792 114.93C28.5311 115.327 28.3132 115.664 28.0254 115.939C27.7376 116.214 27.3822 116.424 26.959 116.567C26.5358 116.711 26.0492 116.783 25.499 116.783C24.9827 116.783 24.5194 116.72 24.1089 116.593C23.6984 116.462 23.3514 116.265 23.0679 116.002C22.7843 115.74 22.5664 115.414 22.4141 115.025C22.266 114.631 22.1919 114.172 22.1919 113.647V108.652C22.1919 108.61 22.2046 108.571 22.23 108.538C22.2554 108.504 22.2998 108.476 22.3633 108.455C22.431 108.434 22.5177 108.417 22.6235 108.404C22.7293 108.392 22.8647 108.385 23.0298 108.385C23.1906 108.385 23.3239 108.392 23.4297 108.404C23.5355 108.417 23.6201 108.434 23.6836 108.455C23.7471 108.476 23.7915 108.504 23.8169 108.538C23.8465 108.571 23.8613 108.61 23.8613 108.652V113.501C23.8613 113.827 23.9015 114.111 23.9819 114.352C24.0623 114.589 24.1766 114.786 24.3247 114.942C24.4771 115.099 24.6569 115.217 24.8643 115.298C25.0758 115.374 25.3107 115.412 25.5688 115.412C25.8312 115.412 26.0661 115.372 26.2734 115.292C26.4808 115.211 26.6564 115.095 26.8003 114.942C26.9442 114.786 27.0542 114.595 27.1304 114.371C27.2108 114.143 27.251 113.884 27.251 113.597V108.652C27.251 108.61 27.2637 108.571 27.2891 108.538C27.3145 108.504 27.3589 108.476 27.4224 108.455C27.4858 108.434 27.5705 108.417 27.6763 108.404C27.7863 108.392 27.9217 108.385 28.0825 108.385C28.2433 108.385 28.3745 108.392 28.4761 108.404C28.5819 108.417 28.6665 108.434 28.73 108.455C28.7935 108.476 28.8379 108.504 28.8633 108.538C28.8887 108.571 28.9014 108.61 28.9014 108.652V113.578Z" fill="#FCFEFF"/>
<path d="M36.1567 109.109C36.1567 109.232 36.1504 109.337 36.1377 109.426C36.1292 109.511 36.1144 109.581 36.0933 109.636C36.0721 109.687 36.0446 109.725 36.0107 109.75C35.9811 109.775 35.9473 109.788 35.9092 109.788H33.8525V116.409C33.8525 116.451 33.8377 116.489 33.8081 116.523C33.7827 116.557 33.7383 116.584 33.6748 116.605C33.6113 116.627 33.5246 116.644 33.4146 116.656C33.3088 116.669 33.1755 116.675 33.0146 116.675C32.8538 116.675 32.7184 116.669 32.6084 116.656C32.5026 116.644 32.418 116.627 32.3545 116.605C32.291 116.584 32.2445 116.557 32.2148 116.523C32.1895 116.489 32.1768 116.451 32.1768 116.409V109.788H30.1201C30.0778 109.788 30.0418 109.775 30.0122 109.75C29.9826 109.725 29.9572 109.687 29.936 109.636C29.9149 109.581 29.8979 109.511 29.8853 109.426C29.8768 109.337 29.8726 109.232 29.8726 109.109C29.8726 108.982 29.8768 108.874 29.8853 108.785C29.8979 108.696 29.9149 108.626 29.936 108.576C29.9572 108.521 29.9826 108.483 30.0122 108.461C30.0418 108.436 30.0778 108.423 30.1201 108.423H35.9092C35.9473 108.423 35.9811 108.436 36.0107 108.461C36.0446 108.483 36.0721 108.521 36.0933 108.576C36.1144 108.626 36.1292 108.696 36.1377 108.785C36.1504 108.874 36.1567 108.982 36.1567 109.109Z" fill="#FCFEFF"/>
<path d="M44.1611 112.435C44.1611 113.116 44.0765 113.726 43.9072 114.263C43.738 114.801 43.4862 115.258 43.1519 115.634C42.8175 116.007 42.4028 116.292 41.9077 116.491C41.4168 116.686 40.8477 116.783 40.2002 116.783C39.5612 116.783 39.0026 116.701 38.5244 116.536C38.0505 116.366 37.6548 116.11 37.3374 115.768C37.02 115.425 36.7809 114.989 36.6201 114.46C36.4635 113.931 36.3853 113.305 36.3853 112.581C36.3853 111.917 36.4699 111.32 36.6392 110.791C36.8084 110.258 37.0602 109.805 37.3945 109.433C37.7288 109.06 38.1414 108.775 38.6323 108.576C39.1274 108.377 39.7008 108.277 40.3525 108.277C40.9746 108.277 41.5226 108.36 41.9966 108.525C42.4748 108.69 42.8726 108.944 43.1899 109.287C43.5116 109.629 43.7528 110.063 43.9136 110.588C44.0786 111.108 44.1611 111.724 44.1611 112.435ZM42.4092 112.524C42.4092 112.092 42.3753 111.701 42.3076 111.35C42.2399 110.994 42.1235 110.692 41.9585 110.442C41.7977 110.188 41.5819 109.993 41.311 109.858C41.0402 109.718 40.7017 109.648 40.2954 109.648C39.8849 109.648 39.5422 109.727 39.2671 109.883C38.992 110.036 38.7699 110.241 38.6006 110.499C38.4313 110.757 38.3107 111.06 38.2388 111.407C38.1711 111.75 38.1372 112.113 38.1372 112.499C38.1372 112.947 38.1711 113.351 38.2388 113.711C38.3065 114.066 38.4207 114.371 38.5815 114.625C38.7423 114.879 38.9582 115.074 39.229 115.209C39.4998 115.34 39.8405 115.406 40.251 115.406C40.6615 115.406 41.0042 115.33 41.2793 115.177C41.5544 115.025 41.7765 114.818 41.9458 114.555C42.1151 114.293 42.2336 113.988 42.3013 113.641C42.3732 113.29 42.4092 112.917 42.4092 112.524Z" fill="#FCFEFF"/>
<path d="M50.1914 116.409C50.1914 116.451 50.1766 116.489 50.147 116.523C50.1216 116.557 50.0771 116.584 50.0137 116.605C49.9502 116.627 49.8656 116.644 49.7598 116.656C49.654 116.669 49.5186 116.675 49.3535 116.675C49.1927 116.675 49.0573 116.669 48.9473 116.656C48.8415 116.644 48.7568 116.627 48.6934 116.605C48.6299 116.584 48.5833 116.557 48.5537 116.523C48.5283 116.489 48.5156 116.451 48.5156 116.409V108.652C48.5156 108.61 48.5283 108.571 48.5537 108.538C48.5833 108.504 48.6299 108.476 48.6934 108.455C48.7611 108.434 48.8478 108.417 48.9536 108.404C49.0594 108.392 49.1927 108.385 49.3535 108.385C49.5186 108.385 49.654 108.392 49.7598 108.404C49.8656 108.417 49.9502 108.434 50.0137 108.455C50.0771 108.476 50.1216 108.504 50.147 108.538C50.1766 108.571 50.1914 108.61 50.1914 108.652V116.409Z" fill="#FCFEFF"/>
<path d="M58.8052 112.41C58.8052 113.163 58.7057 113.808 58.5068 114.346C58.3122 114.879 58.0308 115.315 57.6626 115.653C57.2944 115.992 56.8459 116.242 56.3169 116.402C55.7922 116.559 55.1659 116.637 54.438 116.637H52.4766C52.3369 116.637 52.2184 116.597 52.1211 116.517C52.028 116.432 51.9814 116.297 51.9814 116.11V108.95C51.9814 108.764 52.028 108.631 52.1211 108.55C52.2184 108.466 52.3369 108.423 52.4766 108.423H54.584C55.3161 108.423 55.936 108.51 56.4438 108.684C56.9559 108.853 57.3854 109.107 57.7324 109.445C58.0837 109.78 58.3503 110.194 58.5322 110.689C58.7142 111.185 58.8052 111.758 58.8052 112.41ZM57.0786 112.467C57.0786 112.077 57.0321 111.716 56.939 111.381C56.8501 111.047 56.7041 110.757 56.501 110.512C56.3021 110.266 56.0439 110.076 55.7266 109.94C55.4134 109.801 55.0008 109.731 54.4888 109.731H53.6445V115.317H54.5142C54.9712 115.317 55.3563 115.258 55.6694 115.139C55.9826 115.021 56.2428 114.843 56.4502 114.606C56.6618 114.365 56.8184 114.066 56.9199 113.711C57.0257 113.355 57.0786 112.941 57.0786 112.467Z" fill="#FCFEFF"/>
<path d="M68.3405 114.255C68.3405 114.694 68.2578 115.078 68.0926 115.406C67.9273 115.739 67.702 116.012 67.4166 116.233C67.1312 116.454 66.8007 116.621 66.4214 116.731C66.042 116.842 65.6364 116.897 65.2008 116.897C64.9078 116.897 64.6374 116.875 64.3858 116.827C64.1342 116.779 63.9126 116.724 63.7211 116.657C63.5295 116.591 63.368 116.521 63.2403 116.447C63.1126 116.373 63.0188 116.311 62.9624 116.255C62.9061 116.2 62.8648 116.119 62.8422 116.015C62.8197 115.908 62.8047 115.757 62.8047 115.561C62.8047 115.429 62.8084 115.318 62.8197 115.226C62.8272 115.137 62.8422 115.063 62.861 115.008C62.8798 114.953 62.9061 114.912 62.9399 114.89C62.9737 114.868 63.0112 114.853 63.0563 114.853C63.1164 114.853 63.2028 114.89 63.3154 114.96C63.4281 115.03 63.5708 115.108 63.7436 115.196C63.9164 115.281 64.1267 115.362 64.3708 115.432C64.6149 115.502 64.8928 115.539 65.212 115.539C65.4224 115.539 65.6101 115.514 65.7754 115.466C65.9406 115.418 66.0833 115.347 66.1998 115.255C66.3162 115.167 66.4026 115.052 66.4664 114.919C66.5265 114.787 66.5565 114.639 66.5565 114.473C66.5565 114.285 66.504 114.122 66.3988 113.986C66.2937 113.849 66.1585 113.731 65.9895 113.624C65.8205 113.517 65.6289 113.421 65.4148 113.329C65.2008 113.237 64.9792 113.141 64.7539 113.037C64.5248 112.934 64.3069 112.816 64.0929 112.687C63.8788 112.558 63.6873 112.399 63.5183 112.218C63.3493 112.037 63.214 111.82 63.1089 111.573C63.0037 111.325 62.9512 111.026 62.9512 110.676C62.9512 110.277 63.0263 109.927 63.1765 109.624C63.3267 109.322 63.5295 109.071 63.7849 108.871C64.0403 108.672 64.3407 108.525 64.69 108.425C65.0393 108.325 65.4073 108.277 65.7942 108.277C65.997 108.277 66.196 108.292 66.3988 108.322C66.6016 108.351 66.7894 108.392 66.9622 108.443C67.1349 108.495 67.2927 108.554 67.4279 108.617C67.5631 108.68 67.6532 108.735 67.6983 108.779C67.7433 108.823 67.7696 108.86 67.7884 108.89C67.8034 108.919 67.8184 108.96 67.826 109.008C67.8335 109.056 67.8447 109.119 67.8485 109.196C67.8522 109.27 67.856 109.366 67.856 109.477C67.856 109.602 67.8522 109.705 67.8447 109.79C67.8372 109.875 67.8259 109.945 67.8109 110.004C67.7959 110.06 67.7734 110.1 67.7471 110.126C67.717 110.152 67.6795 110.163 67.6307 110.163C67.5818 110.163 67.5067 110.133 67.4016 110.074C67.2964 110.015 67.1687 109.949 67.0147 109.879C66.8608 109.809 66.6842 109.742 66.4852 109.687C66.2824 109.628 66.0646 109.598 65.8242 109.598C65.6364 109.598 65.4712 109.621 65.3322 109.665C65.1933 109.709 65.0768 109.772 64.9829 109.853C64.8891 109.934 64.8177 110.026 64.7726 110.141C64.7276 110.252 64.705 110.37 64.705 110.495C64.705 110.68 64.7576 110.838 64.859 110.975C64.9604 111.111 65.0994 111.229 65.2721 111.336C65.4449 111.443 65.6402 111.539 65.858 111.632C66.0758 111.724 66.2974 111.82 66.5265 111.923C66.7518 112.026 66.9772 112.145 67.195 112.274C67.4128 112.406 67.6081 112.561 67.7771 112.742C67.9461 112.923 68.0851 113.141 68.1902 113.388C68.2954 113.635 68.3405 113.919 68.3405 114.255Z" fill="#FCFEFF"/>
<path d="M78.3656 112.499C78.3656 113.189 78.2792 113.809 78.1027 114.355C77.9262 114.901 77.6671 115.362 77.3215 115.742C76.976 116.122 76.5479 116.414 76.0409 116.613C75.5339 116.812 74.9442 116.912 74.2757 116.912C73.6147 116.912 73.0401 116.827 72.5481 116.657C72.0562 116.488 71.6468 116.229 71.3201 115.883C70.9933 115.536 70.7454 115.093 70.584 114.554C70.4187 114.019 70.3398 113.381 70.3398 112.646C70.3398 111.971 70.4262 111.366 70.6027 110.827C70.7755 110.288 71.0384 109.831 71.3839 109.451C71.7294 109.074 72.1576 108.783 72.6646 108.58C73.1716 108.377 73.765 108.277 74.4372 108.277C75.0794 108.277 75.6465 108.362 76.1385 108.528C76.6305 108.694 77.0399 108.953 77.3704 109.299C77.7008 109.646 77.9487 110.085 78.1177 110.617C78.2792 111.152 78.3656 111.775 78.3656 112.499ZM76.5554 112.587C76.5554 112.148 76.5216 111.75 76.4502 111.392C76.3789 111.034 76.2624 110.728 76.0934 110.469C75.9244 110.215 75.7029 110.015 75.4212 109.875C75.1395 109.735 74.7902 109.665 74.3734 109.665C73.949 109.665 73.596 109.742 73.3105 109.901C73.0251 110.056 72.796 110.266 72.6233 110.528C72.4505 110.79 72.3266 111.097 72.2515 111.447C72.1801 111.798 72.1425 112.167 72.1425 112.558C72.1425 113.012 72.1763 113.421 72.2477 113.787C72.3191 114.148 72.4355 114.458 72.6007 114.716C72.766 114.975 72.9913 115.17 73.2692 115.307C73.5471 115.443 73.9002 115.51 74.3246 115.51C74.7489 115.51 75.102 115.432 75.3874 115.277C75.6728 115.122 75.9019 114.912 76.0747 114.646C76.2474 114.381 76.3714 114.071 76.4465 113.716C76.5178 113.366 76.5554 112.99 76.5554 112.587Z" fill="#FCFEFF"/>
<path d="M85.0279 115.945C85.0279 116.074 85.0241 116.181 85.0128 116.27C85.0016 116.359 84.9866 116.432 84.964 116.488C84.9415 116.547 84.9152 116.587 84.8814 116.613C84.8476 116.639 84.81 116.65 84.765 116.65H80.878C80.7352 116.65 80.6113 116.609 80.5137 116.525C80.416 116.44 80.3672 116.303 80.3672 116.115V108.547C80.3672 108.502 80.3822 108.466 80.4085 108.432C80.4385 108.399 80.4836 108.37 80.5512 108.347C80.6151 108.325 80.7052 108.307 80.8179 108.296C80.9305 108.281 81.0695 108.277 81.2347 108.277C81.4037 108.277 81.5464 108.285 81.6553 108.296C81.7643 108.307 81.8506 108.325 81.9182 108.347C81.9821 108.37 82.0309 108.395 82.061 108.432C82.091 108.466 82.1023 108.506 82.1023 108.547V115.252H84.7687C84.8138 115.252 84.8513 115.263 84.8851 115.288C84.9189 115.311 84.9452 115.351 84.9678 115.403C84.9903 115.458 85.0053 115.528 85.0166 115.617C85.0241 115.709 85.0279 115.816 85.0279 115.945Z" fill="#FCFEFF"/>
<path d="M93.9527 113.55C93.9527 114.06 93.8775 114.517 93.7236 114.923C93.5696 115.325 93.3443 115.668 93.0476 115.945C92.7509 116.226 92.3828 116.436 91.9472 116.584C91.5115 116.731 91.0083 116.801 90.4412 116.801C89.9079 116.801 89.4309 116.735 89.0065 116.606C88.5822 116.477 88.2254 116.277 87.9324 116.012C87.6395 115.746 87.4142 115.414 87.2602 115.015C87.1062 114.617 87.0273 114.152 87.0273 113.621V108.55C87.0273 108.506 87.0424 108.469 87.0649 108.436C87.0912 108.403 87.14 108.373 87.2076 108.351C87.2752 108.329 87.3653 108.311 87.4742 108.299C87.5832 108.285 87.7221 108.281 87.8949 108.281C88.0601 108.281 88.1991 108.288 88.308 108.299C88.4169 108.311 88.5033 108.329 88.5709 108.351C88.6347 108.373 88.6836 108.399 88.7136 108.436C88.7436 108.469 88.7549 108.51 88.7549 108.55V113.469C88.7549 113.801 88.7962 114.085 88.8788 114.329C88.9615 114.573 89.0816 114.772 89.2356 114.93C89.3896 115.089 89.5774 115.207 89.7915 115.288C90.0093 115.37 90.2496 115.406 90.5163 115.406C90.7867 115.406 91.0308 115.366 91.2449 115.285C91.4589 115.204 91.6392 115.085 91.7894 114.927C91.9359 114.772 92.0523 114.576 92.1349 114.347C92.2176 114.119 92.2551 113.857 92.2551 113.565V108.547C92.2551 108.502 92.2702 108.466 92.2964 108.432C92.3227 108.399 92.3678 108.37 92.4354 108.347C92.503 108.325 92.5894 108.307 92.702 108.296C92.8147 108.281 92.9537 108.277 93.1189 108.277C93.2842 108.277 93.4194 108.285 93.5283 108.296C93.6372 108.307 93.7236 108.325 93.7874 108.347C93.8513 108.37 93.9001 108.395 93.9264 108.432C93.9527 108.466 93.9639 108.506 93.9639 108.547V113.55H93.9527Z" fill="#FCFEFF"/>
<path d="M102.458 108.971C102.458 109.097 102.455 109.204 102.443 109.288C102.432 109.377 102.417 109.447 102.394 109.502C102.372 109.558 102.346 109.595 102.312 109.621C102.278 109.646 102.244 109.657 102.203 109.657H100.077V116.373C100.077 116.418 100.062 116.454 100.036 116.488C100.01 116.521 99.9608 116.55 99.8932 116.573C99.8294 116.595 99.7392 116.609 99.6266 116.624C99.5139 116.639 99.3749 116.643 99.2097 116.643C99.0444 116.643 98.9055 116.635 98.7928 116.624C98.6839 116.609 98.5938 116.595 98.5262 116.573C98.4586 116.55 98.4135 116.525 98.3835 116.488C98.3572 116.454 98.3421 116.414 98.3421 116.373V109.657H96.2202C96.1752 109.657 96.1414 109.643 96.1076 109.621C96.0775 109.595 96.0512 109.554 96.0287 109.502C96.0061 109.451 95.9911 109.377 95.9799 109.288C95.9686 109.2 95.9648 109.093 95.9648 108.971C95.9648 108.842 95.9723 108.731 95.9799 108.643C95.9874 108.554 96.0061 108.48 96.0287 108.429C96.0512 108.377 96.0775 108.336 96.1076 108.314C96.1376 108.292 96.1752 108.277 96.2202 108.277H102.199C102.237 108.277 102.274 108.288 102.308 108.314C102.342 108.336 102.368 108.377 102.391 108.429C102.413 108.484 102.428 108.554 102.44 108.643C102.451 108.731 102.458 108.842 102.458 108.971Z" fill="#FCFEFF"/>
<path d="M106.192 116.418C106.192 116.462 106.177 116.499 106.151 116.532C106.121 116.565 106.076 116.595 106.008 116.617C105.941 116.639 105.854 116.654 105.745 116.668C105.636 116.683 105.497 116.687 105.325 116.687C105.159 116.687 105.02 116.68 104.908 116.668C104.795 116.657 104.709 116.639 104.641 116.617C104.573 116.595 104.528 116.569 104.498 116.532C104.468 116.499 104.457 116.458 104.457 116.418V108.547C104.457 108.502 104.472 108.466 104.498 108.432C104.528 108.399 104.573 108.37 104.641 108.347C104.709 108.325 104.799 108.307 104.908 108.296C105.017 108.281 105.156 108.277 105.321 108.277C105.494 108.277 105.633 108.285 105.741 108.296C105.85 108.307 105.937 108.325 106.004 108.347C106.068 108.37 106.117 108.395 106.147 108.432C106.177 108.466 106.188 108.506 106.188 108.547V116.418H106.192Z" fill="#FCFEFF"/>
<path d="M116.221 112.499C116.221 113.189 116.135 113.809 115.958 114.355C115.781 114.901 115.522 115.362 115.177 115.742C114.831 116.122 114.403 116.414 113.896 116.613C113.389 116.812 112.8 116.912 112.127 116.912C111.466 116.912 110.892 116.827 110.4 116.657C109.908 116.488 109.498 116.229 109.172 115.883C108.845 115.536 108.597 115.093 108.436 114.554C108.27 114.019 108.191 113.381 108.191 112.646C108.191 111.971 108.278 111.366 108.454 110.827C108.631 110.288 108.89 109.831 109.235 109.451C109.581 109.074 110.005 108.783 110.516 108.58C111.023 108.377 111.617 108.277 112.289 108.277C112.931 108.277 113.498 108.362 113.99 108.528C114.482 108.694 114.891 108.953 115.222 109.299C115.552 109.646 115.8 110.085 115.969 110.617C116.138 111.152 116.221 111.775 116.221 112.499ZM114.411 112.587C114.411 112.148 114.377 111.75 114.306 111.392C114.234 111.034 114.118 110.728 113.949 110.469C113.78 110.211 113.558 110.015 113.276 109.875C112.995 109.735 112.646 109.665 112.229 109.665C111.804 109.665 111.451 109.742 111.166 109.901C110.88 110.056 110.651 110.266 110.479 110.528C110.306 110.79 110.182 111.097 110.107 111.447C110.035 111.798 109.998 112.167 109.998 112.558C109.998 113.012 110.032 113.421 110.103 113.787C110.174 114.152 110.291 114.458 110.456 114.716C110.621 114.975 110.847 115.17 111.125 115.307C111.402 115.443 111.755 115.51 112.18 115.51C112.604 115.51 112.957 115.432 113.243 115.277C113.528 115.122 113.757 114.912 113.93 114.646C114.103 114.381 114.227 114.071 114.302 113.716C114.377 113.366 114.411 112.99 114.411 112.587Z" fill="#FCFEFF"/>
<path d="M125.227 116.041C125.227 116.141 125.208 116.229 125.174 116.307C125.14 116.384 125.092 116.447 125.032 116.499C124.971 116.55 124.904 116.587 124.821 116.613C124.739 116.635 124.66 116.65 124.573 116.65H123.841C123.687 116.65 123.556 116.635 123.443 116.606C123.33 116.576 123.229 116.521 123.135 116.44C123.041 116.362 122.951 116.252 122.865 116.119C122.778 115.982 122.681 115.809 122.568 115.595L120.457 111.698C120.333 111.466 120.209 111.215 120.082 110.949C119.954 110.683 119.841 110.421 119.74 110.167H119.725C119.74 110.477 119.755 110.783 119.762 111.089C119.77 111.395 119.777 111.713 119.777 112.037V116.399C119.777 116.443 119.766 116.48 119.74 116.513C119.717 116.547 119.676 116.576 119.616 116.602C119.556 116.624 119.477 116.643 119.376 116.657C119.274 116.672 119.147 116.676 118.989 116.676C118.835 116.676 118.707 116.668 118.609 116.657C118.512 116.646 118.429 116.628 118.373 116.602C118.317 116.58 118.275 116.55 118.256 116.513C118.234 116.48 118.223 116.44 118.223 116.399V108.908C118.223 108.705 118.283 108.554 118.403 108.454C118.523 108.355 118.67 108.303 118.846 108.303H119.77C119.935 108.303 120.074 108.318 120.191 108.344C120.303 108.373 120.405 108.418 120.495 108.484C120.585 108.547 120.668 108.639 120.746 108.75C120.825 108.864 120.904 109.004 120.987 109.17L122.639 112.218C122.737 112.403 122.831 112.584 122.925 112.761C123.019 112.938 123.109 113.119 123.195 113.296C123.281 113.473 123.368 113.65 123.45 113.82C123.533 113.993 123.616 114.163 123.695 114.336H123.702C123.687 114.037 123.68 113.724 123.672 113.395C123.665 113.071 123.661 112.757 123.661 112.462V108.554C123.661 108.51 123.676 108.473 123.702 108.44C123.728 108.406 123.773 108.377 123.834 108.347C123.894 108.322 123.976 108.303 124.074 108.292C124.175 108.281 124.303 108.277 124.461 108.277C124.607 108.277 124.735 108.281 124.833 108.292C124.934 108.303 125.009 108.322 125.065 108.347C125.122 108.373 125.159 108.403 125.182 108.44C125.204 108.473 125.216 108.514 125.216 108.554V116.041H125.227Z" fill="#FCFEFF"/>
<path d="M132.762 114.255C132.762 114.694 132.68 115.078 132.514 115.406C132.349 115.739 132.124 116.012 131.838 116.233C131.553 116.454 131.222 116.621 130.843 116.731C130.464 116.842 130.055 116.897 129.623 116.897C129.33 116.897 129.059 116.875 128.808 116.827C128.556 116.779 128.334 116.724 128.143 116.657C127.951 116.591 127.79 116.521 127.662 116.447C127.535 116.373 127.441 116.311 127.384 116.255C127.328 116.2 127.287 116.119 127.264 116.015C127.242 115.912 127.227 115.757 127.227 115.561C127.227 115.429 127.23 115.318 127.242 115.226C127.249 115.137 127.264 115.063 127.283 115.008C127.302 114.953 127.328 114.912 127.362 114.89C127.396 114.868 127.433 114.853 127.474 114.853C127.535 114.853 127.621 114.89 127.734 114.96C127.846 115.03 127.989 115.108 128.162 115.196C128.334 115.281 128.545 115.362 128.789 115.432C129.033 115.502 129.311 115.539 129.63 115.539C129.84 115.539 130.028 115.514 130.193 115.466C130.359 115.418 130.501 115.347 130.618 115.255C130.734 115.163 130.821 115.052 130.884 114.919C130.945 114.787 130.975 114.639 130.975 114.473C130.975 114.285 130.922 114.122 130.817 113.986C130.712 113.849 130.577 113.731 130.408 113.624C130.239 113.517 130.047 113.421 129.833 113.329C129.619 113.237 129.397 113.141 129.172 113.037C128.943 112.934 128.725 112.816 128.511 112.687C128.297 112.558 128.105 112.399 127.936 112.218C127.767 112.037 127.632 111.82 127.527 111.573C127.422 111.325 127.369 111.026 127.369 110.676C127.369 110.277 127.444 109.927 127.595 109.624C127.745 109.322 127.948 109.071 128.203 108.871C128.458 108.672 128.759 108.525 129.108 108.425C129.457 108.325 129.822 108.277 130.212 108.277C130.415 108.277 130.614 108.292 130.817 108.322C131.02 108.351 131.207 108.392 131.38 108.443C131.553 108.495 131.711 108.554 131.846 108.617C131.981 108.68 132.071 108.735 132.113 108.779C132.158 108.823 132.188 108.86 132.203 108.89C132.218 108.919 132.229 108.96 132.24 109.008C132.252 109.056 132.259 109.119 132.263 109.196C132.267 109.27 132.27 109.366 132.27 109.477C132.27 109.602 132.267 109.705 132.259 109.79C132.252 109.875 132.24 109.945 132.225 110.004C132.21 110.06 132.188 110.1 132.158 110.126C132.128 110.152 132.09 110.163 132.045 110.163C131.996 110.163 131.921 110.133 131.816 110.074C131.711 110.015 131.583 109.949 131.429 109.879C131.275 109.809 131.099 109.742 130.9 109.687C130.697 109.628 130.479 109.598 130.239 109.598C130.051 109.598 129.886 109.621 129.747 109.665C129.608 109.709 129.491 109.772 129.397 109.853C129.303 109.934 129.232 110.026 129.187 110.141C129.142 110.252 129.119 110.37 129.119 110.495C129.119 110.68 129.172 110.838 129.273 110.975C129.375 111.111 129.514 111.229 129.686 111.336C129.859 111.443 130.055 111.539 130.272 111.632C130.49 111.724 130.715 111.82 130.941 111.923C131.166 112.026 131.391 112.145 131.609 112.274C131.827 112.406 132.022 112.561 132.191 112.742C132.364 112.923 132.499 113.141 132.605 113.388C132.71 113.635 132.762 113.919 132.762 114.255Z" fill="#FCFEFF"/>
<path d="M11.48 53V6.92H43.096V15.048H20.184V23.816H30.936C31.3627 23.816 31.96 23.8373 32.728 23.88C33.496 23.9013 34.1787 23.944 34.776 24.008C37.4213 24.2853 39.6187 25.1067 41.368 26.472C43.1387 27.816 44.4613 29.5333 45.336 31.624C46.232 33.6933 46.68 35.9547 46.68 38.408C46.68 40.8613 46.2427 43.1333 45.368 45.224C44.4933 47.2933 43.1707 49.0107 41.4 50.376C39.6507 51.72 37.4427 52.5307 34.776 52.808C34.1787 52.872 33.496 52.9253 32.728 52.968C31.9813 52.9893 31.384 53 30.936 53H11.48ZM20.184 44.872H30.552C31 44.872 31.4907 44.8507 32.024 44.808C32.5573 44.7653 33.048 44.7013 33.496 44.616C35.2667 44.232 36.44 43.4107 37.016 42.152C37.6133 40.8933 37.912 39.6453 37.912 38.408C37.912 37.1493 37.6133 35.9013 37.016 34.664C36.44 33.4053 35.2667 32.584 33.496 32.2C33.048 32.0933 32.5573 32.0293 32.024 32.008C31.4907 31.9653 31 31.944 30.552 31.944H20.184V44.872ZM50.8925 53V45.768C51.8738 45.832 52.7058 45.7467 53.3885 45.512C54.0712 45.2773 54.6472 44.8507 55.1165 44.232C55.6072 43.592 56.0338 42.7173 56.3965 41.608C56.7592 40.4773 57.1005 39.0693 57.4205 37.384C57.9325 34.7173 58.3592 31.912 58.7005 28.968C59.0632 26.0027 59.3618 23.1013 59.5965 20.264C59.8312 17.4267 60.0125 14.8453 60.1405 12.52C60.2685 10.1733 60.3645 8.30666 60.4285 6.92H91.8525V53H83.1485V15.048H68.4285C68.3432 16.2427 68.2258 17.8 68.0765 19.72C67.9485 21.64 67.7672 23.7627 67.5325 26.088C67.2978 28.4133 67.0098 30.824 66.6685 33.32C66.3272 35.816 65.9112 38.2373 65.4205 40.584C64.9725 42.8667 64.4285 44.8933 63.7885 46.664C63.1485 48.4133 62.2952 49.8533 61.2285 50.984C60.1832 52.0933 58.8285 52.8293 57.1645 53.192C55.5005 53.5547 53.4098 53.4907 50.8925 53ZM125.418 53.96C120.81 53.96 116.832 52.9573 113.482 50.952C110.154 48.9467 107.584 46.1413 105.77 42.536C103.978 38.9307 103.082 34.7387 103.082 29.96C103.082 25.1813 103.978 20.9893 105.77 17.384C107.584 13.7787 110.154 10.9733 113.482 8.968C116.832 6.96267 120.81 5.96 125.418 5.96C130.026 5.96 133.994 6.96267 137.322 8.968C140.672 10.9733 143.243 13.7787 145.035 17.384C146.848 20.9893 147.755 25.1813 147.755 29.96C147.755 34.7387 146.848 38.9307 145.035 42.536C143.243 46.1413 140.672 48.9467 137.322 50.952C133.994 52.9573 130.026 53.96 125.418 53.96ZM125.418 45.768C128.341 45.8107 130.773 45.1813 132.715 43.88C134.656 42.5787 136.106 40.7333 137.067 38.344C138.048 35.9547 138.539 33.16 138.539 29.96C138.539 26.76 138.048 23.9867 137.067 21.64C136.106 19.2933 134.656 17.4693 132.715 16.168C130.773 14.8667 128.341 14.1947 125.418 14.152C122.496 14.1093 120.064 14.7387 118.122 16.04C116.181 17.3413 114.72 19.1867 113.738 21.576C112.778 23.9653 112.298 26.76 112.298 29.96C112.298 33.16 112.778 35.9333 113.738 38.28C114.72 40.6267 116.181 42.4507 118.122 43.752C120.064 45.0533 122.496 45.7253 125.418 45.768ZM158.942 53V6.92H189.022V15.048H167.646V53H158.942Z" fill="white"/>
<path fill-rule="evenodd" clip-rule="evenodd" d="M124.983 4C139.334 4 150.966 15.2329 150.966 29.088C150.966 42.9431 139.331 54.1726 124.983 54.1726C110.635 54.1726 99 42.9397 99 29.088C99 15.2329 110.635 4 124.983 4Z" fill="white"/>
<path fill-rule="evenodd" clip-rule="evenodd" d="M130.969 27.2152L134.31 29.0767L124.289 34.6612L120.949 32.7997C124.285 30.9382 127.629 29.0767 130.969 27.2152ZM114.265 29.0767L127.629 21.6274C125.401 20.3853 123.173 19.1466 120.949 17.9045L124.289 16.043L140.994 25.3538L137.653 27.2152L130.969 23.4889L117.605 30.9382L114.265 29.0767ZM120.945 21.6274L110.924 27.2152L107.584 25.3538L117.605 19.7693L120.945 21.6274ZM107.584 32.8199L124.289 42.1307L140.994 32.8199L137.643 30.9517L124.289 38.3942L110.935 30.9517L107.584 32.8199Z" fill="#071D49"/>
</svg>
