<svg width="60" height="60" viewBox="0 0 60 60" fill="none" xmlns="http://www.w3.org/2000/svg">
<path d="M52.9001 0.0764477L39.1811 0.240995C36.1694 0.277117 32.1618 1.99365 30.0582 4.14879L2.24859 32.6331C1.0598 33.8503 0.416812 35.4623 0.437325 37.1726C0.457839 38.8829 1.13975 40.4789 2.35695 41.6672L18.9985 57.9148C20.2157 59.1031 21.8281 59.7465 23.5379 59.726C25.2482 59.7055 26.8443 59.0236 28.033 57.8064L55.8422 29.3216C57.9463 27.1669 59.5662 23.1193 59.5301 20.1076L59.3655 6.38774C59.3228 2.86539 56.4224 0.0342 52.9001 0.0764477ZM49.7176 12.391C49.3981 12.7179 48.9525 12.9087 48.4952 12.9142C48.0374 12.9197 47.5883 12.7396 47.2614 12.4205C46.9332 12.1014 46.7428 11.6558 46.7374 11.1981C46.7319 10.7407 46.9115 10.2916 47.232 9.9643C47.5511 9.63746 47.9957 9.44709 48.4535 9.4416C48.9108 9.43611 49.3609 9.61575 49.6882 9.93484C50.015 10.2544 50.2058 10.6991 50.2113 11.1564C50.2168 11.6142 50.0367 12.0642 49.7176 12.391Z" fill="#27AE60"/>
</svg>
