<svg width="31" height="30" viewBox="0 0 31 30" fill="none" xmlns="http://www.w3.org/2000/svg">
<path d="M28.1156 8.08484L18.7406 2.92859C18.6022 2.85243 18.4468 2.8125 18.2888 2.8125C18.1308 2.8125 17.9753 2.85243 17.8369 2.92859L8.4619 8.08484C8.31491 8.16577 8.19233 8.28466 8.10697 8.42912C8.0216 8.57357 7.97656 8.73829 7.97656 8.90609C7.97656 9.07388 8.0216 9.2386 8.10697 9.38306C8.19233 9.52751 8.31491 9.64641 8.4619 9.72734L17.3513 14.6164V24.6655L14.505 23.0998L13.6013 24.7414L17.8369 27.0711C17.9753 27.1474 18.1307 27.1874 18.2888 27.1874C18.4468 27.1874 18.6023 27.1474 18.7406 27.0711L28.1156 21.9148C28.2627 21.8339 28.3853 21.7151 28.4707 21.5706C28.5562 21.4262 28.6012 21.2614 28.6013 21.0936V8.90609C28.6012 8.73826 28.5562 8.57353 28.4707 8.42907C28.3853 8.28461 28.2627 8.16573 28.1156 8.08484ZM18.2888 4.82046L25.7185 8.90609L18.2888 12.9917L10.8591 8.90609L18.2888 4.82046ZM26.7263 20.5395L19.2263 24.6645V14.6155L26.7263 10.4905V20.5395Z" fill="#071D49"/>
<path d="M9.85156 15H2.35156V13.125H9.85156V15Z" fill="#071D49"/>
<path d="M11.7266 22.5H4.22656V20.625H11.7266V22.5Z" fill="#071D49"/>
<path d="M13.6016 18.75H6.10156V16.875H13.6016V18.75Z" fill="#071D49"/>
</svg>
