<svg width="30" height="30" viewBox="0 0 30 30" fill="none" xmlns="http://www.w3.org/2000/svg">
<path d="M16.5193 14.3954H14.7045V11.7944C14.7045 11.4247 14.4046 11.125 14.0349 11.125C13.6649 11.125 13.3652 11.4247 13.3652 11.7944V15.0399C13.3652 15.4095 13.6649 15.7347 14.0349 15.7347H16.5193C16.8892 15.7347 17.1889 15.435 17.1889 15.065C17.1889 14.6952 16.8892 14.3954 16.5193 14.3954Z" fill="#FFC400" stroke="#FFC400" stroke-width="0.56"/>
<path d="M20.6786 7.96938L20.2875 3.36956C20.2875 3.36663 20.2868 3.37668 20.2866 3.37375C20.1571 2.02023 19.0153 0.990237 17.656 1.00007H10.4157C9.05608 0.990028 7.91392 2.02023 7.78481 3.37375C7.78481 3.37668 7.78397 3.37291 7.78397 3.37584L7.39286 7.97252C6.51897 8.59947 6.00042 9.60896 6 10.6846V19.3899C6.00042 20.4664 6.51876 21.4767 7.39286 22.1051L7.78397 26.7052C7.78397 26.7081 7.78439 26.7236 7.78481 26.7265C7.91183 28.0848 9.05127 29.1238 10.4157 29.1251H17.656C19.0204 29.1238 20.1598 28.0848 20.2868 26.7265C20.2868 26.7236 20.2875 26.7144 20.2877 26.7114L20.6788 22.1085C21.5529 21.4788 22.0712 20.4674 22.0714 19.3901V10.6848C22.0712 9.60812 21.5527 8.5978 20.6786 7.96938ZM9.11802 3.50035C9.18415 2.83531 9.7477 2.33162 10.4157 2.33936H17.656C18.3239 2.33162 18.8873 2.83531 18.9536 3.50035L19.2849 7.40353C19.0991 7.37403 18.9113 7.36001 18.7232 7.36168H9.34821C9.16009 7.36001 8.97238 7.37403 8.78655 7.40353L9.11802 3.50035ZM18.9536 26.5999C18.8896 27.2697 18.3288 27.7822 17.656 27.7858H10.4157C9.74268 27.7822 9.18185 27.2697 9.11802 26.5999L8.78655 22.7091C8.97175 22.7432 9.15988 22.7612 9.34821 22.7635H18.7232C18.9116 22.7612 19.0997 22.7432 19.2849 22.7091L18.9536 26.5999ZM20.7321 19.4153C20.7321 20.525 19.8327 21.4242 18.7232 21.4242H9.34821C8.23891 21.4242 7.33929 20.525 7.33929 19.4153V10.7099C7.33929 9.60059 8.23891 8.70097 9.34821 8.70097H18.7232C19.8327 8.70097 20.7321 9.60059 20.7321 10.7099V19.4153Z" fill="#FFC400" stroke="#FFC400" stroke-width="0.56"/>
<path d="M23.0095 13.4297C22.6395 13.4297 22.3398 13.7296 22.3398 14.0993V15.9743C22.3398 16.3439 22.6395 16.644 23.0095 16.644C23.3793 16.644 23.6791 16.3439 23.6791 15.9743V14.0993C23.6791 13.7296 23.3793 13.4297 23.0095 13.4297Z" fill="#FFC400" stroke="#FFC400" stroke-width="0.56"/>
</svg>
