<svg width="30" height="30" viewBox="0 0 30 30" fill="none" xmlns="http://www.w3.org/2000/svg">
<g clip-path="url(#clip0_1001_67547)">
<path d="M20.7534 14.8125L17.6521 6.9875L15.0371 11.5625L12.4221 6.9875L9.3209 14.815H8.42465V15.9913H13.0946V14.815H12.4034L13.0759 12.8713L15.0371 16.0838L16.9984 12.8713L17.6709 14.815H16.9796V15.9913H21.6684V14.815L20.7534 14.8125ZM27.4221 12.4225C27.423 10.7909 27.1022 9.17518 26.4782 7.66765C25.8542 6.16011 24.9392 4.79033 23.7855 3.63664C22.6318 2.48294 21.262 1.56793 19.7545 0.943935C18.247 0.319937 16.6312 -0.000819924 14.9996 1.57398e-06C8.14465 1.57398e-06 2.57715 5.56625 2.57715 12.4225C2.57715 15.86 3.9784 18.96 6.21965 21.2013C6.36 21.3428 6.53928 21.4395 6.7347 21.4789C6.93012 21.5183 7.13285 21.4987 7.31711 21.4226C7.50136 21.3465 7.65882 21.2173 7.76945 21.0515C7.88008 20.8856 7.93889 20.6906 7.9384 20.4913C7.93882 20.2188 7.83142 19.9573 7.63965 19.7638C5.69813 17.8143 4.61008 15.1738 4.61465 12.4225C4.61465 6.6875 9.26465 2.0175 14.9996 2.0175C20.7346 2.0175 25.4046 6.6875 25.4046 12.4225C25.4077 13.7895 25.1402 15.1436 24.6176 16.4068C24.095 17.67 23.3276 18.8172 22.3596 19.7825L13.5796 28.5613L14.9996 30L23.7984 21.2013C24.9513 20.0491 25.8649 18.6803 26.4868 17.1737C27.1087 15.6671 27.4266 14.0524 27.4221 12.4225Z" fill="#FFC400"/>
</g>
<defs>
<clipPath id="clip0_1001_67547">
<rect width="30" height="30" fill="white"/>
</clipPath>
</defs>
</svg>
