<svg width="25" height="24" viewBox="0 0 25 24" fill="none" xmlns="http://www.w3.org/2000/svg">
<path d="M3.12891 3H21.1289C21.3941 3 21.6485 3.10536 21.836 3.29289C22.0236 3.48043 22.1289 3.73478 22.1289 4V20C22.1289 20.2652 22.0236 20.5196 21.836 20.7071C21.6485 20.8946 21.3941 21 21.1289 21H3.12891C2.86369 21 2.60934 20.8946 2.4218 20.7071C2.23426 20.5196 2.12891 20.2652 2.12891 20V4C2.12891 3.73478 2.23426 3.48043 2.4218 3.29289C2.60934 3.10536 2.86369 3 3.12891 3ZM20.1289 12H4.12891V19H20.1289V12ZM20.1289 8V5H4.12891V8H20.1289Z" fill="#4E5159"/>
</svg>
