<svg width="29" height="30" viewBox="0 0 29 30" fill="none" xmlns="http://www.w3.org/2000/svg">
<path d="M4.26902 10.4727C4.74301 9.85106 5.48021 9.47325 6.2431 9.47325H22.2721L22.7718 7.47442C23.0617 6.31247 24.0611 5.50195 25.2198 5.50195H27.9043C28.3516 5.50195 28.7207 5.87976 28.7207 6.33992C28.7207 6.79899 28.3526 7.17788 27.9043 7.17788H25.2198C24.825 7.17788 24.4826 7.44805 24.3778 7.8533L21.1669 20.9841C20.8769 22.1461 19.8776 22.9566 18.7188 22.9566H8.21723C7.05953 22.9566 6.03237 22.1461 5.76916 20.9841L3.79508 12.6626C3.61104 11.9049 3.76835 11.0944 4.26907 10.4727L4.26902 10.4727ZM5.40001 12.2826L7.37409 20.6041C7.47896 21.0094 7.82134 21.2796 8.21615 21.2796H18.7188C19.1136 21.2796 19.456 21.0094 19.5608 20.6041L21.8506 11.1757H6.24192C5.97871 11.1757 5.71549 11.3108 5.55715 11.5271C5.39984 11.7424 5.3217 12.0126 5.39984 12.2828L5.40001 12.2826Z" fill="#071D49"/>
<path d="M17.9086 23.6816C19.39 23.6816 20.6113 24.9963 20.6113 26.5906C20.6113 28.1849 19.3899 29.4996 17.9086 29.4996C16.4273 29.5007 15.2059 28.186 15.2059 26.5914C15.2059 24.9969 16.4274 23.6816 17.9086 23.6816ZM17.9086 27.7382C18.5067 27.7382 18.9747 27.2344 18.9747 26.5907C18.9747 25.947 18.5067 25.4432 17.9086 25.4432C17.3106 25.4432 16.8425 25.947 16.8425 26.5907C16.8435 27.2071 17.337 27.7382 17.9086 27.7382Z" fill="#071D49"/>
<path d="M17.9086 23.6816C19.39 23.6816 20.6113 24.9963 20.6113 26.5906C20.6113 28.1849 19.3899 29.4996 17.9086 29.4996C16.4273 29.5007 15.2059 28.186 15.2059 26.5914C15.2059 24.9969 16.4274 23.6816 17.9086 23.6816ZM17.9086 27.7382C18.5067 27.7382 18.9747 27.2344 18.9747 26.5907C18.9747 25.947 18.5067 25.4432 17.9086 25.4432C17.3106 25.4432 16.8425 25.947 16.8425 26.5907C16.8435 27.2071 17.337 27.7382 17.9086 27.7382Z" fill="#071D49"/>
<path d="M9.12738 23.6816C10.6087 23.6816 11.8301 24.9964 11.8301 26.5907C11.8301 28.1851 10.6086 29.4999 9.12738 29.4999C7.64612 29.4999 6.42467 28.1851 6.42467 26.5907C6.45006 24.9973 7.64612 23.6816 9.12738 23.6816ZM9.12738 27.7384C9.72541 27.7384 10.1935 27.2346 10.1935 26.5909C10.1935 25.9472 9.72541 25.4433 9.12738 25.4433C8.52934 25.4433 8.06127 25.9472 8.06127 26.5909C8.06127 27.2072 8.55572 27.7384 9.12738 27.7384Z" fill="#071D49"/>
<path d="M7.2207 21.502L4.7207 11.002H22.7207L19.7207 21.502H7.2207Z" fill="#071D49"/>
<path d="M15.7812 8.5C15.7812 12.6421 12.4234 16 8.28125 16C4.13911 16 0.78125 12.6421 0.78125 8.5C0.78125 4.35786 4.13911 1 8.28125 1C12.4234 1 15.7812 4.35786 15.7812 8.5Z" fill="#FFCF00" stroke="white"/>
<path d="M5 8.43243L6.95148 10.6693C7.10632 10.8468 7.38021 10.8527 7.54261 10.6821L12 6" stroke="white" stroke-width="1.8" stroke-linecap="round"/>
</svg>
