<svg width="55" height="55" viewBox="0 0 55 55" fill="none" xmlns="http://www.w3.org/2000/svg">
<path d="M15.1102 49.281L14.8652 49.1499L14.5939 49.2102L1.98793 52.0121L4.78983 39.4061L4.85013 39.1348L4.71903 38.8898C2.76383 35.2325 1.74383 31.1483 1.75003 27.0011V27C1.75003 13.0544 13.0544 1.75 27 1.75C40.9456 1.75 52.25 13.0544 52.25 27C52.25 40.9456 40.9456 52.25 27 52.25H26.9989C22.8517 52.2562 18.7675 51.2362 15.1102 49.281ZM16.8541 46.0196L16.8549 46.0201C19.9764 47.6882 23.4624 48.5574 27.0016 48.55C31.2632 48.5497 35.4291 47.2858 38.9725 44.9181C42.5164 42.5502 45.2785 39.1846 46.9096 35.2468C48.5407 31.3091 48.9674 26.9761 48.1359 22.7958C47.3044 18.6155 45.252 14.7757 42.2382 11.7618C39.2243 8.748 35.3845 6.6956 31.2042 5.8641C27.0239 5.0326 22.6909 5.4593 18.7532 7.0904C14.8154 8.7215 11.4498 11.4836 9.08193 15.0275C6.71393 18.5713 5.45003 22.7378 5.45003 27C5.45003 30.5915 6.32533 34.0516 7.98293 37.1458L8.75903 38.5979L7.11633 45.9889L6.86063 47.1394L8.01113 46.8837L15.4016 45.2411L16.8541 46.0196Z" fill="white" stroke="#FFC600" stroke-width="1.5"/>
<path d="M46 27C46 37.4934 37.4934 46 27 46C16.5066 46 8 37.4934 8 27C8 16.5066 16.5066 8 27 8C37.4934 8 46 16.5066 46 27Z" fill="white"/>
<path fill-rule="evenodd" clip-rule="evenodd" d="M31.799 26.1369L34.1985 27.4926L27 31.5599L24.6005 30.2041C26.9975 28.8484 29.3995 27.4926 31.799 26.1369ZM19.799 27.4926L29.3995 22.0672C27.799 21.1626 26.1985 20.2604 24.6005 19.3557L27 18L39 24.7812L36.6005 26.1369L31.799 23.423L22.1985 28.8484L19.799 27.4926ZM24.598 22.0672L17.3995 26.1369L15 24.7812L22.1985 20.7139L24.598 22.0672ZM15 30.2188L27 37L39 30.2188L36.593 28.8582L27 34.2787L17.407 28.8582L15 30.2188Z" fill="#071D49"/>
</svg>
