<svg width="12" height="10" viewBox="0 0 12 10" fill="none" xmlns="http://www.w3.org/2000/svg">
<path fill-rule="evenodd" clip-rule="evenodd" d="M10.789 0.25641C10.9358 0.0854692 11.1046 0 11.2954 0C11.4862 0 11.655 0.0854692 11.8018 0.25641C11.9339 0.410257 12 0.602563 12 0.833333C12 1.0641 11.9339 1.25641 11.8018 1.41026L4.77798 9.64103C4.7633 9.65812 4.74862 9.67521 4.73394 9.69231C4.71927 9.7094 4.70459 9.7265 4.68991 9.74359C4.5578 9.91453 4.39266 10 4.1945 10C3.99633 10 3.83119 9.91453 3.69908 9.74359L0.198165 5.69231C0.0660544 5.53846 0 5.34616 0 5.11538C0 4.88461 0.0660544 4.69231 0.198165 4.53846C0.344955 4.36752 0.513761 4.28205 0.704587 4.28205C0.895414 4.28205 1.06422 4.36752 1.21101 4.53846L4.18349 8L10.789 0.25641Z" fill="white"/>
</svg>
