<svg width="41" height="41" viewBox="0 0 41 41" fill="none" xmlns="http://www.w3.org/2000/svg">
<path fill-rule="evenodd" clip-rule="evenodd" d="M20.4255 0C31.7072 0 40.8509 9.12122 40.8509 20.3717C40.8509 31.6222 31.7044 40.7407 20.4255 40.7407C9.14651 40.7407 0 31.6195 0 20.3717C0 9.12122 9.14651 0 20.4255 0Z" fill="#FFC600"/>
<path fill-rule="evenodd" clip-rule="evenodd" d="M25.6813 18.7009L28.3071 20.2125L20.4297 24.7471L17.8039 23.2356C20.4269 21.724 23.0555 20.2125 25.6813 18.7009ZM12.5495 20.2125L23.0555 14.1636C21.304 13.1549 19.5526 12.1491 17.8039 11.1405L20.4297 9.62891L33.5615 17.1894L30.9357 18.7009L25.6813 15.6751L15.1753 21.724L12.5495 20.2125ZM17.8011 14.1636L9.92367 18.7009L7.29785 17.1894L15.1753 12.6547L17.8011 14.1636ZM7.29785 23.252L20.4297 30.8124L33.5615 23.252L30.9275 21.735L20.4297 27.7784L9.93189 21.735L7.29785 23.252Z" fill="#071D49"/>
</svg>
