<svg width="42" height="42" viewBox="0 0 42 42" fill="none" xmlns="http://www.w3.org/2000/svg">
<g clip-path="url(#clip0_1001_67452)">
<path d="M38.0625 5.25H3.93753C1.76624 5.25 0 7.01624 0 9.18753V32.8125C0 34.9838 1.76624 36.75 3.93753 36.75H38.0625C40.2338 36.75 42 34.9838 42 32.8125V9.18753C42 7.01624 40.2338 5.25 38.0625 5.25V5.25ZM38.0625 7.87499C38.2408 7.87499 38.4105 7.91199 38.5655 7.9766L21 23.2008L3.43438 7.9766C3.58947 7.91207 3.75912 7.87499 3.93744 7.87499H38.0625ZM38.0625 34.125H3.93753C3.21336 34.125 2.62499 33.5367 2.62499 32.8124V10.7499L20.1399 25.9296C20.3874 26.1436 20.6937 26.25 21 26.25C21.3063 26.25 21.6127 26.1437 21.8601 25.9296L39.375 10.7499V32.8125C39.3749 33.5367 38.7867 34.125 38.0625 34.125V34.125Z" fill="#FFC600"/>
</g>
<defs>
<clipPath id="clip0_1001_67452">
<rect width="42" height="42" fill="white"/>
</clipPath>
</defs>
</svg>
