<svg width="25" height="24" viewBox="0 0 25 24" fill="none" xmlns="http://www.w3.org/2000/svg">
<rect width="24" height="24" transform="translate(0.5)" fill="white"/>
<path fill-rule="evenodd" clip-rule="evenodd" d="M23.54 12.2615C23.54 11.446 23.4668 10.6619 23.3309 9.90918H12.5V14.3576H18.6891C18.4225 15.7951 17.6123 17.013 16.3943 17.8285V20.714H20.1109C22.2855 18.7119 23.54 15.7637 23.54 12.2615Z" fill="#4285F4"/>
<path fill-rule="evenodd" clip-rule="evenodd" d="M12.4995 23.5001C15.6045 23.5001 18.2077 22.4703 20.1104 20.7139L16.3938 17.8285C15.364 18.5185 14.0467 18.9262 12.4995 18.9262C9.50425 18.9262 6.96902 16.9032 6.0647 14.1851H2.22266V17.1646C4.11493 20.923 8.00402 23.5001 12.4995 23.5001Z" fill="#34A853"/>
<path fill-rule="evenodd" clip-rule="evenodd" d="M6.06523 14.185C5.83523 13.495 5.70455 12.7579 5.70455 12C5.70455 11.242 5.83523 10.505 6.06523 9.81499V6.83545H2.22318C1.44432 8.38795 1 10.1443 1 12C1 13.8557 1.44432 15.612 2.22318 17.1645L6.06523 14.185Z" fill="#FBBC05"/>
<path fill-rule="evenodd" clip-rule="evenodd" d="M12.4995 5.07386C14.1879 5.07386 15.7038 5.65409 16.8956 6.79364L20.194 3.49523C18.2024 1.63955 15.5992 0.5 12.4995 0.5C8.00402 0.5 4.11493 3.07705 2.22266 6.83545L6.0647 9.815C6.96902 7.09682 9.50425 5.07386 12.4995 5.07386Z" fill="#EA4335"/>
</svg>
