<svg width="25" height="24" viewBox="0 0 25 24" fill="none" xmlns="http://www.w3.org/2000/svg">
<path d="M18.1289 8H20.1289C20.3941 8 20.6485 8.10536 20.836 8.29289C21.0236 8.48043 21.1289 8.73478 21.1289 9V21C21.1289 21.2652 21.0236 21.5196 20.836 21.7071C20.6485 21.8946 20.3941 22 20.1289 22H4.12891C3.86369 22 3.60934 21.8946 3.4218 21.7071C3.23426 21.5196 3.12891 21.2652 3.12891 21V9C3.12891 8.73478 3.23426 8.48043 3.4218 8.29289C3.60934 8.10536 3.86369 8 4.12891 8H6.12891V7C6.12891 5.4087 6.76105 3.88258 7.88627 2.75736C9.01148 1.63214 10.5376 1 12.1289 1C13.7202 1 15.2463 1.63214 16.3715 2.75736C17.4968 3.88258 18.1289 5.4087 18.1289 7V8ZM5.12891 10V20H19.1289V10H5.12891ZM11.1289 14H13.1289V16H11.1289V14ZM7.12891 14H9.12891V16H7.12891V14ZM15.1289 14H17.1289V16H15.1289V14ZM16.1289 8V7C16.1289 5.93913 15.7075 4.92172 14.9573 4.17157C14.2072 3.42143 13.1898 3 12.1289 3C11.068 3 10.0506 3.42143 9.30048 4.17157C8.55033 4.92172 8.12891 5.93913 8.12891 7V8H16.1289Z" fill="#4E5159"/>
</svg>
