<svg width="25" height="24" viewBox="0 0 25 24" fill="none" xmlns="http://www.w3.org/2000/svg">
<g clip-path="url(#clip0_1001_57112)">
<path d="M22.1289 20.007C22.1271 20.2696 22.022 20.521 21.8364 20.7068C21.6508 20.8926 21.3995 20.9979 21.1369 21H3.12091C2.85772 20.9997 2.6054 20.895 2.4194 20.7088C2.23339 20.5226 2.12891 20.2702 2.12891 20.007V19H20.1289V7.3L12.1289 14.5L2.12891 5.5V4C2.12891 3.73478 2.23426 3.48043 2.4218 3.29289C2.60934 3.10536 2.86369 3 3.12891 3H21.1289C21.3941 3 21.6485 3.10536 21.836 3.29289C22.0236 3.48043 22.1289 3.73478 22.1289 4V20.007ZM4.56291 5L12.1289 11.81L19.6949 5H4.56291ZM0.128906 15H8.12891V17H0.128906V15ZM0.128906 10H5.12891V12H0.128906V10Z" fill="#09121F"/>
</g>
<defs>
<clipPath id="clip0_1001_57112">
<rect width="24" height="24" fill="white" transform="translate(0.128906)"/>
</clipPath>
</defs>
</svg>
