<svg width="57" height="50" viewBox="0 0 57 50" fill="none" xmlns="http://www.w3.org/2000/svg">
<path d="M28.4999 38.9048C31.3314 38.9048 33.6267 38.3534 33.6267 37.6731C33.6267 36.9929 31.3314 36.4414 28.4999 36.4414C25.6684 36.4414 23.373 36.9929 23.373 37.6731C23.373 38.3534 25.6684 38.9048 28.4999 38.9048Z" stroke="#071D49" stroke-width="0.9777" stroke-miterlimit="10"/>
<path opacity="0.9091" d="M28.5004 39.8455C32.5052 39.8455 35.7518 38.9794 35.7518 37.911C35.7518 36.8426 32.5052 35.9766 28.5004 35.9766C24.4956 35.9766 21.249 36.8426 21.249 37.911C21.249 38.9794 24.4956 39.8455 28.5004 39.8455Z" stroke="#071D49" stroke-width="0.8976" stroke-miterlimit="10"/>
<path opacity="0.8182" d="M28.5 40.7853C33.6782 40.7853 37.8759 39.6039 37.8759 38.1465C37.8759 36.6892 33.6782 35.5078 28.5 35.5078C23.3218 35.5078 19.124 36.6892 19.124 38.1465C19.124 39.6039 23.3218 40.7853 28.5 40.7853Z" stroke="#071D49" stroke-width="0.8175" stroke-miterlimit="10"/>
<path opacity="0.7273" d="M28.5001 41.729C34.8525 41.729 40.0021 40.2322 40.0021 38.386C40.0021 36.5397 34.8525 35.043 28.5001 35.043C22.1477 35.043 16.998 36.5397 16.998 38.386C16.998 40.2322 22.1477 41.729 28.5001 41.729Z" stroke="#071D49" stroke-width="0.7374" stroke-miterlimit="10"/>
<path opacity="0.6364" d="M28.4996 42.6727C36.0254 42.6727 42.1262 40.8606 42.1262 38.6254C42.1262 36.3901 36.0254 34.5781 28.4996 34.5781C20.9739 34.5781 14.873 36.3901 14.873 38.6254C14.873 40.8606 20.9739 42.6727 28.4996 42.6727Z" stroke="#071D49" stroke-width="0.6574" stroke-miterlimit="10"/>
<path opacity="0.5455" d="M28.5002 43.6125C37.1993 43.6125 44.2513 41.4851 44.2513 38.8609C44.2513 36.2367 37.1993 34.1094 28.5002 34.1094C19.8011 34.1094 12.749 36.2367 12.749 38.8609C12.749 41.4851 19.8011 43.6125 28.5002 43.6125Z" stroke="#071D49" stroke-width="0.5773" stroke-miterlimit="10"/>
<path opacity="0.4545" d="M28.4997 44.5531C38.3722 44.5531 46.3754 42.1111 46.3754 39.0988C46.3754 36.0865 38.3722 33.6445 28.4997 33.6445C18.6272 33.6445 10.624 36.0865 10.624 39.0988C10.624 42.1111 18.6272 44.5531 28.4997 44.5531Z" stroke="#071D49" stroke-width="0.4972" stroke-miterlimit="10"/>
<path opacity="0.3636" d="M28.4998 45.4968C39.5465 45.4968 48.5016 42.7395 48.5016 39.3382C48.5016 35.937 39.5465 33.1797 28.4998 33.1797C17.4532 33.1797 8.49805 35.937 8.49805 39.3382C8.49805 42.7395 17.4532 45.4968 28.4998 45.4968Z" stroke="#071D49" stroke-width="0.4171" stroke-miterlimit="10"/>
<path opacity="0.2727" d="M28.4994 46.4366C40.7194 46.4366 50.6258 43.364 50.6258 39.5738C50.6258 35.7835 40.7194 32.7109 28.4994 32.7109C16.2794 32.7109 6.37305 35.7835 6.37305 39.5738C6.37305 43.364 16.2794 46.4366 28.4994 46.4366Z" stroke="#071D49" stroke-width="0.337" stroke-miterlimit="10"/>
<path opacity="0.1818" d="M28.4999 47.3803C41.8933 47.3803 52.7508 43.9924 52.7508 39.8132C52.7508 35.634 41.8933 32.2461 28.4999 32.2461C15.1065 32.2461 4.24902 35.634 4.24902 39.8132C4.24902 43.9924 15.1065 47.3803 28.4999 47.3803Z" stroke="#071D49" stroke-width="0.257" stroke-miterlimit="10"/>
<path opacity="0.0909" d="M28.4995 48.324C43.0662 48.324 54.8749 44.6208 54.8749 40.0526C54.8749 35.4845 43.0662 31.7812 28.4995 31.7812C13.9327 31.7812 2.12402 35.4845 2.12402 40.0526C2.12402 44.6208 13.9327 48.324 28.4995 48.324Z" stroke="#071D49" stroke-width="0.1769" stroke-miterlimit="10"/>
<path d="M40.5995 12.9762C40.5995 19.733 28.5005 37.5612 28.5005 37.5612C28.5005 37.5612 16.4014 19.733 16.4014 12.9762C16.4014 6.21953 21.8182 0.742188 28.5005 0.742188C35.1827 0.742188 40.5995 6.21953 40.5995 12.9762Z" fill="#071D49"/>
<path fill-rule="evenodd" clip-rule="evenodd" d="M31.7891 11.6129L33.4329 12.554L28.4999 15.3772L26.8561 14.4361C28.4999 13.495 30.1437 12.554 31.7891 11.6129ZM23.5669 12.554L30.1437 8.78809C29.0473 8.1607 27.9509 7.53331 26.8545 6.90593L28.4984 5.96484L36.7205 10.6718L35.0767 11.6129L31.7875 9.73071L25.2107 13.4966L23.5669 12.554ZM26.8561 8.78963L21.9231 11.6129L20.2793 10.6718L25.2123 7.84854L26.8561 8.78963ZM20.2793 14.4469L28.5015 19.1538L36.7236 14.4469L35.0752 13.5027L28.5015 17.2655L21.9278 13.5027L20.2793 14.4469Z" fill="white"/>
</svg>
