<svg width="231" height="196" viewBox="0 0 231 196" fill="none" xmlns="http://www.w3.org/2000/svg">
<path d="M115.1 154.125C126.535 154.125 135.805 151.897 135.805 149.15C135.805 146.403 126.535 144.176 115.1 144.176C103.665 144.176 94.3945 146.403 94.3945 149.15C94.3945 151.897 103.665 154.125 115.1 154.125Z" stroke="#071D49" stroke-width="0.9777" stroke-miterlimit="10"/>
<path opacity="0.9091" d="M115.1 157.926C131.274 157.926 144.385 154.428 144.385 150.113C144.385 145.799 131.274 142.301 115.1 142.301C98.926 142.301 85.8145 145.799 85.8145 150.113C85.8145 154.428 98.926 157.926 115.1 157.926Z" stroke="#071D49" stroke-width="0.8976" stroke-miterlimit="10"/>
<path opacity="0.8182" d="M115.1 161.727C136.013 161.727 152.965 156.956 152.965 151.071C152.965 145.185 136.013 140.414 115.1 140.414C94.1874 140.414 77.2344 145.185 77.2344 151.071C77.2344 156.956 94.1874 161.727 115.1 161.727Z" stroke="#071D49" stroke-width="0.8175" stroke-miterlimit="10"/>
<path opacity="0.7273" d="M115.099 165.533C140.754 165.533 161.551 159.489 161.551 152.032C161.551 144.576 140.754 138.531 115.099 138.531C89.4447 138.531 68.6475 144.576 68.6475 152.032C68.6475 159.489 89.4447 165.533 115.099 165.533Z" stroke="#071D49" stroke-width="0.7374" stroke-miterlimit="10"/>
<path opacity="0.6364" d="M115.1 169.339C145.493 169.339 170.132 162.021 170.132 152.994C170.132 143.966 145.493 136.648 115.1 136.648C84.7061 136.648 60.0674 143.966 60.0674 152.994C60.0674 162.021 84.7061 169.339 115.1 169.339Z" stroke="#071D49" stroke-width="0.6574" stroke-miterlimit="10"/>
<path opacity="0.5455" d="M115.1 173.149C150.232 173.149 178.712 164.557 178.712 153.959C178.712 143.361 150.232 134.77 115.1 134.77C79.9675 134.77 51.4873 143.361 51.4873 153.959C51.4873 164.557 79.9675 173.149 115.1 173.149Z" stroke="#071D49" stroke-width="0.5773" stroke-miterlimit="10"/>
<path opacity="0.4545" d="M115.1 176.95C154.971 176.95 187.292 167.088 187.292 154.922C187.292 142.757 154.971 132.895 115.1 132.895C75.229 132.895 42.9072 142.757 42.9072 154.922C42.9072 167.088 75.229 176.95 115.1 176.95Z" stroke="#071D49" stroke-width="0.4972" stroke-miterlimit="10"/>
<path opacity="0.3636" d="M115.1 180.755C159.713 180.755 195.879 169.62 195.879 155.884C195.879 142.147 159.713 131.012 115.1 131.012C70.4873 131.012 34.3213 142.147 34.3213 155.884C34.3213 169.62 70.4873 180.755 115.1 180.755Z" stroke="#071D49" stroke-width="0.4171" stroke-miterlimit="10"/>
<path opacity="0.2727" d="M115.099 184.557C164.451 184.557 204.459 172.148 204.459 156.841C204.459 141.534 164.451 129.125 115.099 129.125C65.7477 129.125 25.7402 141.534 25.7402 156.841C25.7402 172.148 65.7477 184.557 115.099 184.557Z" stroke="#071D49" stroke-width="0.337" stroke-miterlimit="10"/>
<path opacity="0.1818" d="M115.1 188.363C169.19 188.363 213.039 174.681 213.039 157.803C213.039 140.925 169.19 127.242 115.1 127.242C61.0091 127.242 17.1602 140.925 17.1602 157.803C17.1602 174.681 61.0091 188.363 115.1 188.363Z" stroke="#071D49" stroke-width="0.257" stroke-miterlimit="10"/>
<path opacity="0.0909" d="M115.1 192.169C173.929 192.169 221.619 177.213 221.619 158.764C221.619 140.315 173.929 125.359 115.1 125.359C56.2705 125.359 8.58008 140.315 8.58008 158.764C8.58008 177.213 56.2705 192.169 115.1 192.169Z" stroke="#071D49" stroke-width="0.1769" stroke-miterlimit="10"/>
<path d="M163.963 49.4083C163.963 76.6959 115.1 148.697 115.1 148.697C115.1 148.697 66.2363 76.6959 66.2363 49.4083C66.2363 22.1207 88.1127 0 115.1 0C142.086 0 163.963 22.1207 163.963 49.4083Z" fill="#071D49"/>
<path fill-rule="evenodd" clip-rule="evenodd" d="M128.383 43.8999L135.021 47.7005L115.099 59.1025L108.46 55.3018C115.099 51.5012 121.738 47.7005 128.383 43.8999ZM95.1768 47.7005L121.738 32.4918C117.31 29.958 112.882 27.4242 108.454 24.8905L115.093 21.0898L148.299 40.0993L141.66 43.8999L128.376 36.2986L101.815 51.5074L95.1768 47.7005ZM108.46 32.498L88.5381 43.8999L81.8994 40.0993L101.822 28.6973L108.46 32.498ZM81.8994 55.3453L115.105 74.3547L148.311 55.3453L141.654 51.5322L115.105 66.7286L88.5569 51.5322L81.8994 55.3453Z" fill="white"/>
</svg>
