<svg width="23" height="15" viewBox="0 0 23 15" fill="none" xmlns="http://www.w3.org/2000/svg">
<path fill-rule="evenodd" clip-rule="evenodd" d="M11.5001 12.4271C10.282 13.4782 8.70196 14.1128 6.97541 14.1128C3.123 14.1128 0 10.9535 0 7.05639C0 3.15925 3.123 0 6.97541 0C8.70196 0 10.282 0.634563 11.5001 1.68572C12.7181 0.634563 14.2982 0 16.0247 0C19.8771 0 23.0001 3.15925 23.0001 7.05639C23.0001 10.9535 19.8771 14.1128 16.0247 14.1128C14.2982 14.1128 12.7181 13.4782 11.5001 12.4271Z" fill="#ED0006"/>
<path fill-rule="evenodd" clip-rule="evenodd" d="M11.5 12.4271C12.9998 11.1328 13.9508 9.20693 13.9508 7.05639C13.9508 4.90584 12.9998 2.97999 11.5 1.68572C12.7181 0.634563 14.2981 0 16.0246 0C19.8771 0 23.0001 3.15925 23.0001 7.05639C23.0001 10.9535 19.8771 14.1128 16.0246 14.1128C14.2981 14.1128 12.7181 13.4782 11.5 12.4271Z" fill="#F9A000"/>
<path fill-rule="evenodd" clip-rule="evenodd" d="M11.4996 12.4288C12.9994 11.1346 13.9504 9.20871 13.9504 7.05817C13.9504 4.90762 12.9994 2.98177 11.4996 1.6875C9.99982 2.98177 9.04883 4.90762 9.04883 7.05817C9.04883 9.20871 9.99982 11.1346 11.4996 12.4288Z" fill="#FF5E00"/>
</svg>
