<svg width="23" height="30" viewBox="0 0 23 30" fill="none" xmlns="http://www.w3.org/2000/svg">
<path d="M15.3329 0.527344H2.47001C1.6581 0.527344 1 1.18545 1 1.99735V27.7231C1 28.535 1.6581 29.1931 2.47001 29.1931H21.0298C21.8417 29.1931 22.4998 28.535 22.4998 27.7231V7.72987" stroke="#071D49" stroke-linecap="round" stroke-linejoin="round"/>
<path fill-rule="evenodd" clip-rule="evenodd" d="M15.3328 0.527344V6.26091C15.3328 7.07281 15.9909 7.73092 16.8028 7.73092H22.4997L15.3328 0.527344Z" stroke="#143E94" stroke-linecap="round" stroke-linejoin="round"/>
<path d="M8.00781 15.543C8.00781 16.1393 7.8125 16.5964 7.42188 16.9141C7.03125 17.2318 6.47526 17.3906 5.75391 17.3906H5.16016V19.5273H4.22656V13.8164H5.87109C6.58464 13.8164 7.11849 13.9622 7.47266 14.2539C7.82943 14.5456 8.00781 14.9753 8.00781 15.543ZM5.16016 16.6055H5.65625C6.13542 16.6055 6.48698 16.5221 6.71094 16.3555C6.9349 16.1888 7.04688 15.9284 7.04688 15.5742C7.04688 15.2461 6.94661 15.0013 6.74609 14.8398C6.54557 14.6784 6.23307 14.5977 5.80859 14.5977H5.16016V16.6055ZM13.793 16.6172C13.793 17.5599 13.5312 18.2812 13.0078 18.7812C12.4844 19.2786 11.7305 19.5273 10.7461 19.5273H9.14844V13.8164H10.9141C11.8229 13.8164 12.5299 14.0612 13.0352 14.5508C13.5404 15.0404 13.793 15.7292 13.793 16.6172ZM12.8086 16.6484C12.8086 15.2812 12.1693 14.5977 10.8906 14.5977H10.082V18.7422H10.7461C12.1211 18.7422 12.8086 18.0443 12.8086 16.6484ZM15.9492 19.5273H15.0234V13.8164H18.2461V14.6055H15.9492V16.3906H18.1016V17.1836H15.9492V19.5273Z" fill="#FFCF00"/>
</svg>
