<svg width="31" height="31" viewBox="0 0 31 31" fill="none" xmlns="http://www.w3.org/2000/svg">
<path d="M3.44444 3.44444V27.5556H27.5556V3.44444H3.44444ZM3.44444 0H27.5556C28.4691 0 29.3452 0.362896 29.9911 1.00885C30.6371 1.65481 31 2.53092 31 3.44444V27.5556C31 28.4691 30.6371 29.3452 29.9911 29.9911C29.3452 30.6371 28.4691 31 27.5556 31H3.44444C2.53092 31 1.65481 30.6371 1.00885 29.9911C0.362896 29.3452 0 28.4691 0 27.5556V3.44444C0 2.53092 0.362896 1.65481 1.00885 1.00885C1.65481 0.362896 2.53092 0 3.44444 0ZM9.47222 12.0556C10.1574 12.0556 10.8144 11.7834 11.2989 11.2989C11.7834 10.8144 12.0556 10.1574 12.0556 9.47222C12.0556 8.78708 11.7834 8.13 11.2989 7.64553C10.8144 7.16106 10.1574 6.88889 9.47222 6.88889C8.78708 6.88889 8.13 7.16106 7.64553 7.64553C7.16106 8.13 6.88889 8.78708 6.88889 9.47222C6.88889 10.1574 7.16106 10.8144 7.64553 11.2989C8.13 11.7834 8.78708 12.0556 9.47222 12.0556ZM6.88889 18.9444L10.3333 15.5L13.7778 18.9444L18.9444 13.7778L24.1111 18.9444V24.1111H6.88889V18.9444Z" fill="white"/>
</svg>
