<svg width="23" height="31" viewBox="0 0 23 31" fill="none" xmlns="http://www.w3.org/2000/svg">
<path d="M15.3329 0.931641H2.47001C1.6581 0.931641 1 1.58974 1 2.40165V28.1274C1 28.9393 1.6581 29.5974 2.47001 29.5974H21.0298C21.8417 29.5974 22.4998 28.9393 22.4998 28.1274V8.13417" stroke="#071D49" stroke-linecap="round" stroke-linejoin="round"/>
<path fill-rule="evenodd" clip-rule="evenodd" d="M15.3328 0.931641V6.6652C15.3328 7.47711 15.9909 8.13522 16.8028 8.13522H22.4997L15.3328 0.931641Z" stroke="#143E94" stroke-linecap="round" stroke-linejoin="round"/>
<path d="M7.44926 17.4137C8.2409 17.4137 8.88265 16.7719 8.88265 15.9803C8.88265 15.1886 8.2409 14.5469 7.44926 14.5469C6.65762 14.5469 6.01587 15.1886 6.01587 15.9803C6.01587 16.7719 6.65762 17.4137 7.44926 17.4137Z" stroke="#FFCF00"/>
<path d="M8.5249 17.0547L11.7495 20.2803V26.0139" stroke="#FFCF00" stroke-linecap="round" stroke-linejoin="round"/>
<path d="M7.44926 22.4312C8.2409 22.4312 8.88265 21.7895 8.88265 20.9978C8.88265 20.2062 8.2409 19.5645 7.44926 19.5645C6.65762 19.5645 6.01587 20.2062 6.01587 20.9978C6.01587 21.7895 6.65762 22.4312 7.44926 22.4312Z" stroke="#FFCF00"/>
<path d="M8.5249 22.0723L10.3161 23.8645V26.0146" stroke="#FFCF00" stroke-linecap="round" stroke-linejoin="round"/>
<path d="M16.0496 22.4312C16.8412 22.4312 17.483 21.7895 17.483 20.9978C17.483 20.2062 16.8412 19.5645 16.0496 19.5645C15.258 19.5645 14.6162 20.2062 14.6162 20.9978C14.6162 21.7895 15.258 22.4312 16.0496 22.4312Z" stroke="#FFCF00"/>
<path d="M14.9749 19.923L11.7493 16.6984V10.9648" stroke="#FFCF00" stroke-linecap="round" stroke-linejoin="round"/>
<path d="M16.0496 17.4137C16.8412 17.4137 17.483 16.7719 17.483 15.9803C17.483 15.1886 16.8412 14.5469 16.0496 14.5469C15.258 14.5469 14.6162 15.1886 14.6162 15.9803C14.6162 16.7719 15.258 17.4137 16.0496 17.4137Z" stroke="#FFCF00"/>
<path d="M14.9749 14.9072L13.1826 13.1149V10.9648" stroke="#FFCF00" stroke-linecap="round" stroke-linejoin="round"/>
</svg>
