<svg width="33" height="33" viewBox="0 0 33 33" fill="none" xmlns="http://www.w3.org/2000/svg">
<path d="M16.5006 25.9811C15.5402 25.9811 14.5799 25.8522 13.6582 25.5944L12.9492 25.3946V20.6573C10.5773 19.3618 9.08203 16.8739 9.08203 14.1475C9.08203 12.5427 9.59121 11.0087 10.5516 9.71962C11.4797 8.47567 12.801 7.53466 14.277 7.07059L15.5338 6.67743V12.5362H17.4674V6.67743L18.7242 7.07059C20.1938 7.53466 21.5215 8.47567 22.4432 9.71962C23.4035 11.0087 23.9127 12.5362 23.9127 14.1475C23.9127 16.8739 22.4109 19.3682 20.0455 20.6573V25.3946L19.3365 25.5944C18.4213 25.8458 17.4609 25.9811 16.5006 25.9811ZM14.8893 23.8929C15.9463 24.0927 17.0549 24.0927 18.1184 23.8929V19.4198L18.6984 19.1684C20.6965 18.2919 21.992 16.3196 21.992 14.1411C21.992 12.9552 21.6182 11.8208 20.9092 10.8733C20.5031 10.3255 19.9875 9.85497 19.4139 9.49403V14.4634H13.6131V9.49403C13.0395 9.85497 12.5238 10.3255 12.1178 10.8733C11.4088 11.8272 11.035 12.9552 11.035 14.1411C11.035 16.3196 12.324 18.2919 14.3285 19.1684L14.9086 19.4198V23.8929H14.8893Z" fill="#FFCF00"/>
<path d="M20.5605 33H12.4395V30.3768C11.4404 30.0867 10.4801 29.6871 9.56484 29.1844L7.70859 31.0406L1.96582 25.2979L3.82207 23.4416C3.31934 22.5264 2.91973 21.566 2.62969 20.567H0V12.4395H2.62324C2.91328 11.4404 3.31289 10.4801 3.81562 9.56484L1.95938 7.70859L7.70215 1.96582L9.5584 3.82207C10.4736 3.31934 11.434 2.91973 12.433 2.62969V0H20.5541V2.62324C21.5531 2.91328 22.5135 3.31289 23.4287 3.81562L25.285 1.95938L31.0277 7.70215L29.1715 9.5584C29.6742 10.4736 30.0738 11.434 30.3639 12.433H33V20.5541H30.3768C30.0867 21.5531 29.6871 22.5135 29.1844 23.4287L31.0406 25.285L25.2979 31.0277L23.4416 29.1715C22.5264 29.6742 21.566 30.0738 20.567 30.3639V33H20.5605ZM14.373 31.0664H18.627V28.8621L19.3746 28.6881C20.683 28.3787 21.9334 27.8631 23.0871 27.1477L23.7381 26.7416L25.2979 28.3014L28.3078 25.2914L26.748 23.7316L27.1541 23.0807C27.8695 21.9334 28.3852 20.683 28.6945 19.3682L28.8686 18.6205H31.0664V14.3666H28.8621L28.6881 13.6189C28.3787 12.3105 27.8631 11.0602 27.1477 9.90645L26.7416 9.25547L28.3014 7.6957L25.2914 4.68574L23.7316 6.24551L23.0807 5.83945C21.9334 5.12402 20.683 4.6084 19.3682 4.29902L18.627 4.13789V1.93359H14.373V4.13789L13.6254 4.31191C12.317 4.62129 11.0666 5.13691 9.91289 5.85234L9.26191 6.2584L7.70215 4.69863L4.69219 7.70859L6.25195 9.26836L5.8459 9.91934C5.13047 11.0666 4.61484 12.317 4.30547 13.6318L4.13789 14.373H1.93359V18.627H4.13789L4.31191 19.3746C4.62129 20.683 5.13691 21.9334 5.85234 23.0871L6.2584 23.7381L4.69863 25.2979L7.70859 28.3078L9.26836 26.748L9.91934 27.1541C11.073 27.8695 12.317 28.3852 13.6318 28.6945L14.3795 28.8686V31.0664H14.373Z" fill="#FFC400"/>
</svg>
