<svg width="60" height="80" viewBox="0 0 60 80" fill="none" xmlns="http://www.w3.org/2000/svg">
<path d="M30.003 10.9091V0L15.4575 14.5455L30.003 29.0909V18.1818C42.003 18.1818 51.8213 28 51.8213 40C51.8213 43.6363 50.7303 47.2727 49.2756 50.1817L54.7303 55.6363C57.2756 50.909 59.094 45.8183 59.094 40C59.094 24 46.003 10.9091 30.003 10.9091ZM30.003 61.8183C18.003 61.8183 8.18485 52 8.18485 40C8.18485 36.3637 9.27575 32.7273 10.7303 29.8182L5.27575 24.3636C2.73029 29.0909 0.912109 34.1817 0.912109 40C0.912109 56 14.003 69.091 30.003 69.091V80L44.5483 65.4547L30.003 50.909V61.8183Z" fill="#FFC600"/>
</svg>
