<svg width="22" height="19" viewBox="0 0 22 19" fill="none" xmlns="http://www.w3.org/2000/svg">
<g clip-path="url(#clip0_4_2841)">
<rect width="21.5" height="17.6607" transform="translate(0 0.599609)" fill="white"/>
<path d="M20.5838 14.3317C20.8395 14.3735 21.0739 14.2272 21.1165 13.9764L21.5001 11.9908C21.5214 11.8654 21.5001 11.7609 21.4361 11.6564C21.3722 11.5519 21.2657 11.4892 21.1378 11.4683L20.3494 11.322C20.3068 10.904 20.2216 10.486 20.0937 10.0889L20.7543 9.65001C20.9674 9.50371 21.01 9.23201 20.8821 9.023L19.7315 7.35098C19.6676 7.24648 19.561 7.18378 19.4332 7.16288C19.3053 7.14198 19.1988 7.16288 19.0922 7.22558L18.4317 7.66449C18.1121 7.39278 17.7498 7.16288 17.3663 6.97478L17.5154 6.20147C17.558 5.95067 17.4089 5.72076 17.1532 5.67896L15.1289 5.30276C15.0011 5.28186 14.8945 5.30276 14.788 5.36546C14.6814 5.42816 14.6175 5.53266 14.5962 5.65806L14.447 6.43137C14.0209 6.47317 13.5947 6.55677 13.1899 6.68218L12.7211 6.03427C12.6571 5.92977 12.5506 5.86707 12.4228 5.84617C12.2949 5.82527 12.1884 5.84617 12.0818 5.90887L10.3772 7.03748C10.2706 7.10018 10.2067 7.20468 10.1854 7.33008C10.1641 7.45549 10.1854 7.55999 10.2493 7.66449L10.6968 8.3124C10.4198 8.6259 10.1854 8.9812 9.99362 9.35741L9.20522 9.21111C9.07737 9.19021 8.97083 9.21111 8.86428 9.27381C8.75774 9.33651 8.69382 9.44101 8.67251 9.56641L8.28896 11.5519C8.24635 11.8027 8.3955 12.0326 8.6512 12.0744L9.43961 12.2207C9.48222 12.6387 9.56746 13.0568 9.69531 13.4539L9.03475 13.8928C8.92821 13.9555 8.86428 14.06 8.84298 14.1854C8.82167 14.3108 8.84298 14.4153 8.9069 14.5198L10.0575 16.1918C10.1215 16.2963 10.228 16.359 10.3559 16.3799C10.4837 16.4008 10.5903 16.3799 10.6968 16.3172L11.3573 15.8783C11.677 16.15 12.0392 16.3799 12.4228 16.568L12.2736 17.3413C12.231 17.5921 12.3801 17.822 12.6358 17.8638L14.6601 18.24C14.6814 18.24 14.724 18.24 14.7454 18.24C14.9584 18.24 15.1502 18.0937 15.1928 17.8638L15.342 17.0905C15.7682 17.0487 16.1943 16.9651 16.5992 16.8397L17.0466 17.4876C17.1106 17.5921 17.2171 17.6548 17.345 17.6757C17.4728 17.6966 17.5794 17.6757 17.6859 17.613L19.3906 16.4844C19.6036 16.3381 19.6463 16.0664 19.5184 15.8574L19.0922 15.2304C19.3692 14.9169 19.6036 14.5616 19.7954 14.1854L20.5838 14.3317ZM19.0922 13.4957C18.8792 14.0182 18.5595 14.478 18.176 14.8751C18.0268 15.0214 18.0055 15.2722 18.1334 15.4394L18.5169 16.0037L17.5794 16.6307L17.1958 16.0664C17.0466 15.8992 16.8336 15.8365 16.6205 15.9201C16.0878 16.1291 15.5338 16.2545 14.9797 16.2545C14.7667 16.2545 14.5749 16.4008 14.5323 16.6098L14.4044 17.2786L13.2751 17.0696L13.4029 16.4008C13.4456 16.1918 13.339 15.9828 13.1259 15.8992C12.5932 15.6902 12.1244 15.3767 11.7196 15.0005C11.5704 14.8542 11.3147 14.8333 11.1443 14.9587L10.5689 15.3349L9.9297 14.4153L10.505 14.0391C10.6755 13.9137 10.7607 13.6838 10.6755 13.4957C10.4624 12.9732 10.3346 12.4297 10.3346 11.8863C10.3346 11.6773 10.1854 11.4892 9.97231 11.4474L9.29045 11.322L9.50353 10.2143L10.1854 10.3397C10.3985 10.3815 10.6116 10.277 10.6968 10.068C10.9099 9.54551 11.2295 9.08571 11.613 8.6886C11.7622 8.5423 11.7835 8.2915 11.6557 8.12429L11.2721 7.55999L12.2097 6.93298L12.5932 7.49729C12.7211 7.66449 12.9555 7.74809 13.1472 7.66449C13.6799 7.45549 14.234 7.33008 14.788 7.33008C15.0011 7.33008 15.1928 7.18378 15.2354 6.97478L15.3633 6.30597L16.4926 6.51497L16.3648 7.18378C16.3222 7.39278 16.4287 7.60179 16.6418 7.68539C17.1745 7.89439 17.6433 8.20789 18.0481 8.5841C18.1973 8.7304 18.453 8.7513 18.6235 8.6259L19.1988 8.24969L19.838 9.16931L19.2627 9.54551C19.0922 9.67091 19.007 9.90082 19.0922 10.0889C19.3053 10.6114 19.4332 11.1548 19.4332 11.6982C19.4332 11.9072 19.5823 12.0953 19.7954 12.1371L20.4773 12.2625L20.2642 13.3703L19.6036 13.224C19.3906 13.1822 19.1775 13.3076 19.0922 13.4957Z" fill="#FFCF00"/>
<path d="M15.5125 8.60478C14.6389 8.43758 13.7653 8.62568 13.0408 9.10638C12.3163 9.58709 11.8262 10.3186 11.6558 11.1755C11.4853 12.0324 11.6771 12.8893 12.1671 13.5999C12.6572 14.3105 13.403 14.7913 14.2767 14.9585C14.4897 15.0003 14.6815 15.0212 14.8946 15.0212C16.4501 15.0212 17.8351 13.9343 18.1334 12.3877C18.4744 10.6321 17.3024 8.93918 15.5125 8.60478ZM17.2172 12.2205C17.0893 12.8266 16.7484 13.37 16.2157 13.7044C15.683 14.0597 15.0651 14.1851 14.4258 14.0597C13.8079 13.9343 13.2539 13.5999 12.9129 13.0774C12.5507 12.5549 12.4228 11.9488 12.5507 11.3218C12.6785 10.7157 13.0195 10.1723 13.5522 9.83789C13.957 9.56619 14.4045 9.44079 14.8733 9.44079C15.0224 9.44079 15.1716 9.46169 15.3208 9.48259C16.6206 9.73339 17.4729 10.9456 17.2172 12.2205Z" fill="#FFCF00"/>
<path d="M0.23439 6.91122C0.255699 7.09932 0.426165 7.22472 0.617939 7.20382L1.21457 7.12022C1.34242 7.41283 1.49158 7.68453 1.70466 7.93533L1.34242 8.41604C1.27849 8.47874 1.25719 8.56234 1.27849 8.64594C1.2998 8.72954 1.34242 8.81314 1.40634 8.87584L2.64222 9.79545C2.79138 9.89996 3.00446 9.87906 3.13231 9.73275L3.49455 9.25205C3.79286 9.35655 4.11249 9.44015 4.43211 9.48195L4.51734 10.0672C4.53865 10.1508 4.58127 10.2344 4.64519 10.2971C4.70912 10.3389 4.77304 10.3598 4.85828 10.3598C4.87958 10.3598 4.90089 10.3598 4.90089 10.3598L6.43508 10.1508C6.62686 10.1299 6.75471 9.96266 6.7334 9.77455L6.64817 9.16845C6.94648 9.04305 7.22349 8.87584 7.47919 8.68774L7.96928 9.04305C8.11843 9.14755 8.33152 9.12665 8.45937 8.98034L9.39693 7.76813C9.50347 7.62183 9.48216 7.41283 9.333 7.28742L8.84291 6.93212C8.94945 6.63952 9.03469 6.32601 9.0773 6.01251L9.67393 5.92891C9.75917 5.90801 9.8444 5.86621 9.90833 5.80351C9.97225 5.7408 9.99356 5.6363 9.97225 5.5527L9.75917 4.04788C9.73786 3.85978 9.56739 3.73438 9.37562 3.75528L8.73637 3.83888C8.60852 3.54628 8.43806 3.27458 8.24628 3.02377L8.60852 2.56397C8.67245 2.50127 8.69376 2.39676 8.67245 2.31316C8.65114 2.22956 8.60852 2.14596 8.5446 2.08326L7.30872 1.16365C7.2448 1.10095 7.13826 1.08005 7.05302 1.10095C6.94648 1.12185 6.86125 1.16365 6.81863 1.22635L6.45639 1.68616C6.15808 1.58165 5.83845 1.49805 5.51883 1.45625L5.4336 0.871046C5.41229 0.682944 5.24182 0.557542 5.05005 0.578443L3.51586 0.787445C3.43062 0.808345 3.34539 0.850146 3.28147 0.912847C3.21754 1.01735 3.19623 1.12185 3.21754 1.20545L3.30277 1.79066C3.00446 1.91606 2.72745 2.06236 2.47175 2.27136L1.98167 1.91606C1.91774 1.85336 1.83251 1.83246 1.72597 1.85336C1.64073 1.85336 1.5555 1.91606 1.51288 1.97876L0.575322 3.19097C0.511397 3.25367 0.490089 3.35818 0.511397 3.44178C0.532706 3.52538 0.575322 3.60898 0.639247 3.67168L1.12934 4.02698C1.02279 4.31959 0.937562 4.63309 0.894945 4.9466L0.298315 5.0302C0.213082 5.0511 0.127849 5.0929 0.0639247 5.1556C0.0213082 5.2183 0 5.3228 0 5.4064L0.23439 6.91122ZM1.25719 5.5736C1.42765 5.5527 1.53419 5.4273 1.5555 5.2601C1.57681 4.84209 1.68335 4.44499 1.87512 4.04788C1.93905 3.90158 1.89643 3.73438 1.76858 3.62988L1.34242 3.31638L1.85382 2.64757L2.27998 2.96107C2.40783 3.06557 2.5996 3.04467 2.70614 2.94017C3.02577 2.66847 3.38801 2.43857 3.79286 2.31316C3.94202 2.25046 4.04856 2.10416 4.00595 1.93696L3.94202 1.43535L4.79435 1.30995L4.85828 1.81156C4.87958 1.97876 5.00743 2.08326 5.1779 2.10416C5.60406 2.12506 6.00892 2.22956 6.41378 2.41766C6.56293 2.48037 6.7334 2.43857 6.83994 2.31316L7.15956 1.89516L7.84143 2.39676L7.5218 2.81477C7.41526 2.94017 7.43657 3.12827 7.54311 3.23277C7.82012 3.54628 8.05451 3.90158 8.18236 4.29869C8.24628 4.44499 8.39544 4.54949 8.56591 4.50769L9.0773 4.44499L9.20515 5.281L8.69376 5.3437C8.52329 5.3646 8.41675 5.49 8.39544 5.6572C8.37413 6.07521 8.26759 6.47231 8.07582 6.86942C8.01189 7.01572 8.05451 7.18292 8.18236 7.28742L8.60852 7.60093L8.09713 8.29064L7.67096 7.97713C7.54311 7.87263 7.35134 7.89353 7.2448 7.99803C6.92517 8.26974 6.56293 8.49964 6.15808 8.62504C6.00892 8.68774 5.90238 8.83404 5.94499 9.00124L6.00892 9.50285L5.15659 9.62825L5.09267 9.12665C5.07136 8.95944 4.94351 8.85494 4.77304 8.83404C4.34688 8.81314 3.94202 8.70864 3.53717 8.52054C3.49455 8.49964 3.43062 8.47874 3.38801 8.47874C3.28147 8.47874 3.17493 8.52054 3.111 8.60414L2.79138 9.02215L2.08821 8.54144L2.40783 8.12343C2.51437 7.99803 2.49306 7.80993 2.38652 7.70543C2.10951 7.39193 1.87512 7.03662 1.74727 6.63952C1.68335 6.49321 1.53419 6.38871 1.36373 6.43051L0.852329 6.47231L0.72448 5.6363L1.25719 5.5736Z" fill="#FFCF00"/>
<path d="M4.96487 7.91579C5.07141 7.91579 5.19926 7.91579 5.32711 7.89489C6.66953 7.70679 7.6284 6.47368 7.43662 5.13606C7.24485 3.81935 5.98766 2.87883 4.62394 3.06694C3.28152 3.25504 2.32265 4.48815 2.51443 5.82577C2.7062 7.03798 3.7503 7.91579 4.96487 7.91579ZM4.70917 3.73574C4.7944 3.71484 4.87964 3.71484 4.96487 3.71484C5.83851 3.71484 6.6056 4.34185 6.73345 5.21966C6.88261 6.18107 6.20075 7.05888 5.22057 7.20519C4.24039 7.35149 3.34545 6.68268 3.19629 5.72127C3.06844 4.75986 3.7503 3.88205 4.70917 3.73574Z" fill="#FFCF00"/>
</g>
<defs>
<clipPath id="clip0_4_2841">
<rect width="21.5" height="17.6607" fill="white" transform="translate(0 0.599609)"/>
</clipPath>
</defs>
</svg>
