<svg width="105" height="65" viewBox="0 0 105 65" fill="none" xmlns="http://www.w3.org/2000/svg">
<path d="M72.3178 1.38281H30.596C28.6758 1.38281 27.1191 2.93076 27.1191 4.84026V39.4147C27.1191 41.3242 28.6758 42.8722 30.596 42.8722H72.3178C74.238 42.8722 75.7946 41.3242 75.7946 39.4147V4.84026C75.7946 2.93076 74.238 1.38281 72.3178 1.38281Z" stroke="#071D49" stroke-width="2"/>
<path fill-rule="evenodd" clip-rule="evenodd" d="M96.6558 56.7034H101.519C102.676 56.7034 103.609 55.7775 103.609 54.6353V41.4842C103.609 40.3456 103.022 38.695 102.298 37.8053L90.847 23.7397C90.1224 22.8497 88.6013 22.1289 87.4487 22.1289H75.7949V56.7034H82.7486C82.7486 52.8844 85.8618 49.7885 89.7022 49.7885C93.5426 49.7885 96.6558 52.8844 96.6558 56.7034Z" stroke="#071D49" stroke-width="2" stroke-linecap="round" stroke-linejoin="round"/>
<path fill-rule="evenodd" clip-rule="evenodd" d="M82.748 31.1213C82.748 29.9735 83.6868 29.043 84.8353 29.043H94.9706L103.609 39.3221V41.4601H84.8341C83.682 41.4601 82.748 40.5268 82.748 39.3817V31.1213Z" stroke="#071D49" stroke-width="2" stroke-linecap="round" stroke-linejoin="round"/>
<path fill-rule="evenodd" clip-rule="evenodd" d="M34.7681 56.7009H31.2902C28.9826 56.7009 27.1191 54.8431 27.1191 52.5515V42.8711H75.7946V56.7009H48.6754C48.6754 52.8819 45.5622 49.786 41.7218 49.786C37.8814 49.786 34.7681 52.8819 34.7681 56.7009Z" stroke="#071D49" stroke-width="2" stroke-linecap="round" stroke-linejoin="round"/>
<path d="M41.7212 63.6149C45.5616 63.6149 48.6749 60.519 48.6749 56.7C48.6749 52.8811 45.5616 49.7852 41.7212 49.7852C37.8808 49.7852 34.7676 52.8811 34.7676 56.7C34.7676 60.519 37.8808 63.6149 41.7212 63.6149Z" stroke="#FFC600" stroke-width="2" stroke-linecap="round" stroke-linejoin="round"/>
<path d="M89.7017 63.6149C93.5421 63.6149 96.6553 60.519 96.6553 56.7C96.6553 52.8811 93.5421 49.7852 89.7017 49.7852C85.8613 49.7852 82.748 52.8811 82.748 56.7C82.748 60.519 85.8613 63.6149 89.7017 63.6149Z" stroke="#FFC600" stroke-width="2" stroke-linecap="round" stroke-linejoin="round"/>
<path d="M7.99609 12.1016H22.9974" stroke="#FFC600" stroke-width="2" stroke-linecap="round"/>
<path d="M7.99609 29.3867H22.9974" stroke="#FFC600" stroke-width="2" stroke-linecap="round"/>
<path d="M1.62695 22.4727H22.9979" stroke="#FFC600" stroke-width="2" stroke-linecap="round"/>
</svg>
