<svg width="20" height="21" viewBox="0 0 20 21" fill="none" xmlns="http://www.w3.org/2000/svg">
<g clip-path="url(#clip0_1001_87679)">
<path d="M8.41196 8.69922H8.38562C8.32564 9.08404 8.24094 9.68266 8.18023 10.0159L7.9668 11.2139H8.78836L8.60053 10.0084C8.53907 9.65656 8.46241 9.08404 8.41196 8.69922Z" fill="#FFC400"/>
<path d="M7.05188 10.3239C7.05188 9.99362 6.92464 9.69141 6.58483 9.69141C6.01985 9.69141 5.71875 10.7128 5.71875 11.3064C5.71875 11.6762 5.86417 11.9678 6.19594 11.9678C6.7697 11.9684 7.05188 10.8795 7.05188 10.3239Z" fill="#FFC400"/>
<path d="M11.0346 6.67163C11.0221 6.51966 11.0053 6.29745 10.9929 6.12891H10.9842C10.9141 6.29733 10.8373 6.51162 10.762 6.67163L10.4863 7.26802H11.0878L11.0346 6.67163Z" fill="#FFC400"/>
<path d="M10.62 12.3086C10.0557 12.3086 9.75391 13.3407 9.75391 13.9342C9.75391 14.3136 9.90007 14.5957 10.2312 14.5957C10.8057 14.5957 11.0878 13.4963 11.0878 12.9417C11.0869 12.6106 10.9605 12.3086 10.62 12.3086Z" fill="#FFC400"/>
<path d="M19.5091 9.70854L18.8155 9.24669C18.1636 8.81166 17.9143 7.87979 18.2621 7.17681L18.6305 6.4298C18.9784 5.72657 18.621 5.1094 17.8381 5.05858L17.0094 5.00442C16.2265 4.9552 15.5446 4.27176 15.4942 3.48963L15.4401 2.65978C15.3904 1.87765 14.7728 1.5214 14.0696 1.86862L13.3234 2.23625C12.6203 2.5841 11.6884 2.33493 11.2535 1.68228L10.7924 0.990049C10.3569 0.33665 9.64486 0.33665 9.20922 0.990049L8.74811 1.68302C8.31248 2.33642 7.38135 2.58571 6.67751 2.237L5.93051 1.86862C5.22814 1.52078 4.61049 1.87778 4.56078 2.65978L4.50736 3.49112C4.45616 4.27398 3.77433 4.95669 2.99147 5.0059L2.15964 5.05858C1.37616 5.1094 1.02164 5.72657 1.36812 6.4298L1.73723 7.17644C2.08507 7.87917 1.83517 8.81179 1.18326 9.24681L0.488933 9.70854C-0.162978 10.1427 -0.162978 10.8552 0.488933 11.2895L1.18326 11.7521C1.83665 12.187 2.08594 13.119 1.73872 13.8227L1.36886 14.5697C1.02164 15.2721 1.37764 15.8897 2.15964 15.9409L2.99431 15.992C3.77631 16.0432 4.45827 16.7259 4.50872 17.508L4.56127 18.3375C4.61172 19.1211 5.22926 19.477 5.93174 19.129L6.6759 18.7621C7.38049 18.4136 8.31235 18.6626 8.74651 19.3161L9.2091 20.0097C9.64474 20.6631 10.3566 20.6631 10.7923 20.0097L11.2541 19.3161C11.6897 18.6626 12.621 18.4134 13.3241 18.7621L14.071 19.1305C14.7742 19.4784 15.391 19.1219 15.4407 18.339L15.4949 17.508C15.5461 16.7259 16.2279 16.0432 17.0108 15.992L17.8388 15.9409C18.6216 15.8897 18.9775 15.2721 18.6311 14.5697L18.262 13.8227C17.9142 13.1196 18.1633 12.1869 18.8154 11.7521L19.509 11.2895C20.161 10.8552 20.161 10.1426 19.5091 9.70854ZM4.64696 11.277C4.64696 10.0129 5.47422 8.88363 6.72054 8.88363C7.60566 8.88363 8.12168 9.49659 8.12168 10.3341C8.12168 11.725 7.23507 12.7761 6.08755 12.7761C5.24991 12.7753 4.64696 12.2214 4.64696 11.277ZM6.4574 15.4219H5.61988L10.3195 8.88363H11.1463L6.4574 15.4219ZM10.1149 15.4023C9.28824 15.4023 8.68517 14.8483 8.68517 13.9039C8.68517 12.6483 9.51181 11.5007 10.758 11.5007C11.6437 11.5007 12.1591 12.1132 12.1591 12.9508C12.1591 14.3417 11.2733 15.4023 10.1149 15.4023ZM13.4236 15.4219C12.9456 15.4219 12.6342 15.0814 12.6342 14.6246C12.6342 14.1093 13.0245 13.6518 13.5683 13.6518C14.0464 13.6518 14.3759 13.9924 14.3759 14.4689C14.3767 15.0235 13.9681 15.4219 13.4236 15.4219ZM14.289 13.165H13.2095L13.8417 8.75651H15.3502L14.289 13.165Z" fill="#FFC400"/>
</g>
<defs>
<clipPath id="clip0_1001_87679">
<rect width="20" height="20" fill="white" transform="translate(0 0.5)"/>
</clipPath>
</defs>
</svg>
