<svg width="25" height="24" viewBox="0 0 25 24" fill="none" xmlns="http://www.w3.org/2000/svg">
<path d="M12.957 14V16C11.3657 16 9.83961 16.6321 8.71439 17.7574C7.58917 18.8826 6.95703 20.4087 6.95703 22H4.95703C4.95703 19.8783 5.79989 17.8434 7.30018 16.3431C8.80047 14.8429 10.8353 14 12.957 14ZM12.957 13C9.64203 13 6.95703 10.315 6.95703 7C6.95703 3.685 9.64203 1 12.957 1C16.272 1 18.957 3.685 18.957 7C18.957 10.315 16.272 13 12.957 13ZM12.957 11C15.167 11 16.957 9.21 16.957 7C16.957 4.79 15.167 3 12.957 3C10.747 3 8.95703 4.79 8.95703 7C8.95703 9.21 10.747 11 12.957 11ZM15.552 18.812C15.4252 18.2784 15.4252 17.7226 15.552 17.189L14.56 16.616L15.56 14.884L16.552 15.457C16.9502 15.0799 17.4315 14.8017 17.957 14.645V13.5H19.957V14.645C20.489 14.803 20.969 15.085 21.362 15.457L22.354 14.884L23.354 16.616L22.362 17.189C22.4887 17.7222 22.4887 18.2778 22.362 18.811L23.354 19.384L22.354 21.116L21.362 20.543C20.9639 20.9201 20.4826 21.1983 19.957 21.355V22.5H17.957V21.355C17.4315 21.1983 16.9502 20.9201 16.552 20.543L15.56 21.116L14.56 19.384L15.552 18.812ZM18.957 19.5C19.3549 19.5 19.7364 19.342 20.0177 19.0607C20.299 18.7794 20.457 18.3978 20.457 18C20.457 17.6022 20.299 17.2206 20.0177 16.9393C19.7364 16.658 19.3549 16.5 18.957 16.5C18.5592 16.5 18.1777 16.658 17.8964 16.9393C17.6151 17.2206 17.457 17.6022 17.457 18C17.457 18.3978 17.6151 18.7794 17.8964 19.0607C18.1777 19.342 18.5592 19.5 18.957 19.5Z" fill="#09121F"/>
</svg>
