<svg width="52" height="16" viewBox="0 0 52 16" fill="none" xmlns="http://www.w3.org/2000/svg">
<path d="M8.86428 15.3183C8.36828 14.9823 8.01228 14.4623 7.80428 13.7543C7.59628 13.0463 7.48828 12.1063 7.48828 10.9303V9.33034C7.48828 8.14234 7.60828 7.19034 7.84828 6.47034C8.08828 5.75034 8.46428 5.22634 8.97228 4.89834C9.48028 4.57034 10.1483 4.40234 10.9763 4.40234C11.7923 4.40234 12.4443 4.57034 12.9363 4.90634C13.4283 5.24234 13.7883 5.76634 14.0163 6.47834C14.2443 7.19034 14.3563 8.14234 14.3563 9.32634V10.9263C14.3563 12.1023 14.2443 13.0463 14.0243 13.7583C13.8043 14.4703 13.4443 14.9943 12.9443 15.3223C12.4483 15.6503 11.7723 15.8183 10.9203 15.8183C10.0483 15.8223 9.36028 15.6543 8.86428 15.3183ZM11.6523 13.5903C11.7883 13.2303 11.8603 12.6423 11.8603 11.8303V8.39434C11.8603 7.60234 11.7923 7.02634 11.6523 6.65834C11.5163 6.29434 11.2723 6.11034 10.9243 6.11034C10.5883 6.11034 10.3523 6.29434 10.2123 6.65834C10.0763 7.02234 10.0043 7.60234 10.0043 8.39434V11.8303C10.0043 12.6463 10.0683 13.2343 10.2003 13.5903C10.3323 13.9503 10.5723 14.1303 10.9203 14.1303C11.2723 14.1303 11.5123 13.9503 11.6523 13.5903Z" fill="#FCFEFF"/>
<path d="M47.051 10.9582V11.5142C47.051 12.2222 47.0711 12.7502 47.1151 13.1062C47.1551 13.4582 47.243 13.7182 47.375 13.8782C47.507 14.0382 47.711 14.1222 47.987 14.1222C48.359 14.1222 48.615 13.9782 48.751 13.6902C48.887 13.4022 48.963 12.9222 48.975 12.2502L51.115 12.3742C51.127 12.4702 51.131 12.6022 51.131 12.7702C51.131 13.7902 50.851 14.5502 50.295 15.0542C49.739 15.5582 48.951 15.8102 47.931 15.8102C46.707 15.8102 45.851 15.4262 45.359 14.6582C44.867 13.8902 44.623 12.7062 44.623 11.0982V9.17416C44.623 7.51816 44.879 6.31416 45.387 5.55016C45.895 4.79016 46.767 4.41016 48.003 4.41016C48.855 4.41016 49.507 4.56616 49.963 4.87816C50.419 5.19016 50.739 5.67416 50.927 6.33416C51.111 6.99416 51.207 7.90616 51.207 9.06616V10.9542H47.051V10.9582ZM47.367 6.31816C47.243 6.47416 47.1591 6.73016 47.1151 7.08216C47.0711 7.43416 47.051 7.97416 47.051 8.69016V9.48216H48.867V8.69016C48.867 7.98216 48.843 7.44616 48.795 7.08216C48.747 6.71816 48.659 6.45816 48.535 6.31016C48.411 6.16216 48.215 6.08616 47.951 6.08616C47.687 6.08216 47.491 6.16216 47.367 6.31816Z" fill="#FCFEFF"/>
<path d="M2.824 10.7508L0 0.554781H2.464L3.452 5.17478C3.704 6.31478 3.888 7.28278 4.008 8.08678H4.08C4.164 7.51078 4.348 6.54678 4.636 5.19078L5.66 0.550781H8.124L5.268 10.7508V15.6428H2.824V10.7508Z" fill="#FCFEFF"/>
<path d="M22.3684 4.62109V15.6411H20.4284L20.2124 14.2931H20.1604C19.6324 15.3131 18.8404 15.8211 17.7884 15.8211C17.0564 15.8211 16.5164 15.5811 16.1684 15.1011C15.8204 14.6211 15.6484 13.8731 15.6484 12.8531V4.62109H18.1284V12.7131C18.1284 13.2051 18.1804 13.5571 18.2884 13.7651C18.3964 13.9731 18.5764 14.0811 18.8284 14.0811C19.0444 14.0811 19.2524 14.0171 19.4484 13.8851C19.6444 13.7531 19.7924 13.5851 19.8884 13.3811V4.62109H22.3684Z" fill="#FCFEFF"/>
<path d="M35.097 4.62109V15.6411H33.157L32.941 14.2931H32.889C32.361 15.3131 31.569 15.8211 30.517 15.8211C29.785 15.8211 29.245 15.5811 28.897 15.1011C28.549 14.6211 28.377 13.8731 28.377 12.8531V4.62109H30.857V12.7131C30.857 13.2051 30.909 13.5571 31.017 13.7651C31.125 13.9731 31.305 14.0811 31.557 14.0811C31.773 14.0811 31.981 14.0171 32.177 13.8851C32.373 13.7531 32.521 13.5851 32.617 13.3811V4.62109H35.097Z" fill="#FCFEFF"/>
<path d="M29.1119 2.55069H26.6479V15.6387H24.2199V2.55069H21.7559V0.554688H29.1079V2.55069H29.1119Z" fill="#FCFEFF"/>
<path d="M43.3078 6.384C43.1558 5.688 42.9158 5.184 42.5798 4.872C42.2438 4.56 41.7838 4.404 41.1958 4.404C40.7398 4.404 40.3158 4.532 39.9198 4.792C39.5238 5.048 39.2198 5.388 39.0038 5.808H38.9838V0H36.5918V15.644H38.6398L38.8918 14.6H38.9438C39.1358 14.972 39.4238 15.264 39.8078 15.48C40.1918 15.696 40.6158 15.804 41.0838 15.804C41.9238 15.804 42.5398 15.416 42.9358 14.644C43.3318 13.872 43.5278 12.664 43.5278 11.02V9.276C43.5318 8.044 43.4558 7.08 43.3078 6.384ZM41.0318 10.88C41.0318 11.684 40.9998 12.312 40.9318 12.768C40.8678 13.224 40.7558 13.548 40.5998 13.74C40.4438 13.932 40.2358 14.028 39.9718 14.028C39.7678 14.028 39.5798 13.98 39.4038 13.884C39.2318 13.788 39.0878 13.644 38.9798 13.452V7.192C39.0638 6.892 39.2078 6.648 39.4118 6.456C39.6158 6.264 39.8358 6.168 40.0758 6.168C40.3278 6.168 40.5238 6.268 40.6598 6.464C40.7958 6.66 40.8918 6.996 40.9478 7.46C40.9998 7.928 41.0278 8.592 41.0278 9.456V10.88H41.0318Z" fill="#FCFEFF"/>
</svg>
