<svg width="86" height="86" viewBox="0 0 86 86" fill="none" xmlns="http://www.w3.org/2000/svg">
<path d="M78.0444 28.6661C78.0444 28.6661 77.3277 23.7569 75.1777 21.6069C72.4902 18.7402 69.4444 18.7402 68.011 18.5611C58.0493 17.8444 42.9994 17.9161 42.9994 17.9161C42.9994 17.9161 28.021 17.8444 18.0235 18.5611C16.5902 18.7402 13.5802 18.7402 10.8568 21.6069C8.70685 23.7569 7.99018 28.6661 7.99018 28.6661C7.99018 28.6661 7.27352 34.5069 7.16602 40.2402V46.3319C7.27352 52.0652 7.99018 57.7986 7.99018 57.7986C7.99018 57.7986 8.70685 62.8152 10.8568 64.9652C13.5802 67.8319 17.1277 67.6886 18.7402 68.0111C24.366 68.5486 42.3902 68.6561 42.9994 68.6561C42.9994 68.6561 58.0494 68.6561 68.0827 67.9394C69.4444 67.7961 72.4902 67.7961 75.2494 64.9294C77.3994 62.7794 78.116 57.8344 78.116 57.8344C78.116 57.8344 78.8327 52.1011 78.8327 46.2961V40.2044C78.761 34.4711 78.0444 28.6661 78.0444 28.6661ZM35.761 53.7494V32.8227L54.9319 43.6802L35.7252 53.7494H35.761Z" fill="#ED1C24"/>
</svg>
