<svg width="56" height="56" viewBox="0 0 56 56" fill="none" xmlns="http://www.w3.org/2000/svg">
<path d="M51.5555 27.0967H45.5733C45.9813 26.4672 46.2221 25.7157 46.2221 24.9073C46.2221 24.4612 46.1492 24.0213 46.0061 23.6004L43.1421 15.194C40.0462 6.10671 31.6071 0 22.1422 0H4.4444C1.99379 0 0 2.02586 0 4.51609V24.3871C0 26.8773 1.99379 28.9032 4.4444 28.9032H25.1741C19.5119 31.3509 14.9564 36.1326 12.8577 42.2908L9.99465 50.6962C9.85069 51.118 9.77777 51.5579 9.77777 52.0042C9.77777 54.208 11.5413 56 13.7102 56H51.5555C54.0062 56 55.9999 53.974 55.9999 51.4839V31.6129C56 29.1227 54.0062 27.0967 51.5555 27.0967ZM4.4444 27.0967C2.97417 27.0967 1.77776 25.881 1.77776 24.3871V4.51609C1.77776 3.02214 2.97417 1.80644 4.4444 1.80644H22.1422C30.8498 1.80644 38.6133 7.42449 41.4612 15.7857L44.3261 24.1929C44.4043 24.4223 44.4443 24.6635 44.4443 24.9073C44.4443 26.115 43.4781 27.0967 42.2896 27.0967H33.8576H4.4444ZM54.2221 51.4839C54.2221 52.9779 53.0257 54.1936 51.5555 54.1936H13.7102C12.5217 54.1936 11.5555 53.2118 11.5555 52.0042C11.5555 51.7594 11.5955 51.5191 11.6747 51.2879L14.5387 42.8816C17.3867 34.5213 25.1502 28.9033 33.8577 28.9033H42.2897H51.5555C53.0257 28.9033 54.2221 30.119 54.2221 31.6129V51.4839Z" fill="white"/>
<path d="M51.5556 30.7109H42.6667C42.1752 30.7109 41.7778 31.1147 41.7778 31.6142V51.4852C41.7778 51.9846 42.1752 52.3884 42.6667 52.3884H51.5556C52.0471 52.3884 52.4445 51.9846 52.4445 51.4852V31.6142C52.4445 31.1146 52.0471 30.7109 51.5556 30.7109V30.7109ZM50.6667 50.5818H43.5556V32.5174H50.6667V50.5818Z" fill="white"/>
<path d="M33.778 44.2592C35.2482 44.2592 36.4446 43.0434 36.4446 41.5495C36.4446 40.0555 35.2482 38.8398 33.778 38.8398C32.3077 38.8398 31.1113 40.0555 31.1113 41.5495C31.1113 43.0434 32.3077 44.2592 33.778 44.2592ZM33.778 40.6463C34.2687 40.6463 34.6669 41.0509 34.6669 41.5495C34.6669 42.0481 34.2687 42.4527 33.778 42.4527C33.2873 42.4527 32.8891 42.0481 32.8891 41.5495C32.8891 41.0509 33.2874 40.6463 33.778 40.6463Z" fill="white"/>
<path d="M39.1114 30.7109H33.858C25.9077 30.7109 18.8189 35.8403 16.218 43.4744L13.5896 51.1897C13.4962 51.4661 13.5389 51.7715 13.706 52.009C13.8731 52.2466 14.1424 52.3884 14.4295 52.3884H39.1113C39.6028 52.3884 40.0001 51.9846 40.0001 51.4852V31.6142C40.0002 31.1146 39.6029 30.7109 39.1114 30.7109V30.7109ZM22.3852 37.1012C22.6288 37.0606 22.8714 37.0335 23.1114 37.0335C25.5621 37.0335 27.5558 39.0594 27.5558 41.5496C27.5558 44.0398 25.562 46.0657 23.1114 46.0657C20.8723 46.0657 18.9905 44.3369 18.7203 42.0978C19.6439 40.193 20.8918 38.5076 22.3852 37.1012ZM38.2225 50.5818H15.6785L17.7016 44.644C18.7763 46.5715 20.8118 47.8721 23.1113 47.8721C25.3762 47.8721 27.3558 46.632 28.4447 44.7893C29.5336 46.6319 31.5132 47.8721 33.7781 47.8721C35.5185 47.8721 37.0919 47.1405 38.2225 45.9654V50.5818ZM29.3336 41.5497C29.3336 39.0594 31.3274 37.0336 33.778 37.0336C36.2286 37.0336 38.2224 39.0595 38.2224 41.5497C38.2224 44.0399 36.2286 46.0658 33.778 46.0658C31.3274 46.0658 29.3336 44.0398 29.3336 41.5497ZM33.778 35.227C31.5131 35.227 29.5336 36.4671 28.4446 38.3097C27.5895 36.8609 26.1832 35.7897 24.5193 35.3959C27.2268 33.5677 30.4518 32.5173 33.858 32.5173H38.2225V37.1336C37.0918 35.9586 35.5185 35.227 33.778 35.227Z" fill="white"/>
<path d="M23.111 44.2592C24.5812 44.2592 25.7776 43.0434 25.7776 41.5495C25.7776 40.0555 24.5812 38.8398 23.111 38.8398C21.6407 38.8398 20.4443 40.0555 20.4443 41.5495C20.4443 43.0434 21.6407 44.2592 23.111 44.2592ZM23.111 40.6463C23.6017 40.6463 23.9999 41.0509 23.9999 41.5495C23.9999 42.0481 23.6017 42.4527 23.111 42.4527C22.6203 42.4527 22.2221 42.0481 22.2221 41.5495C22.2221 41.0509 22.6204 40.6463 23.111 40.6463Z" fill="white"/>
<path d="M0.888672 39.7422H9.77756V41.5486H0.888672V39.7422Z" fill="white"/>
<path d="M2.1333 48.0508L9.24442 42.6314L10.3106 44.0759L3.19945 49.4952L2.1333 48.0508Z" fill="white"/>
<path d="M2.12891 33.2461L3.195 31.8017L10.3058 37.2208L9.23972 38.6652L2.12891 33.2461Z" fill="white"/>
<path d="M43.8066 35.8672L45.0635 34.59L50.3958 40.0084L49.139 41.2855L43.8066 35.8672Z" fill="white"/>
<path d="M43.8057 43.0898L45.0625 41.8127L50.3949 47.231L49.138 48.5082L43.8057 43.0898Z" fill="white"/>
<path d="M13.3334 3.61328H4.44454C3.953 3.61328 3.55566 4.01703 3.55566 4.5165V24.3875C3.55566 24.887 3.953 25.2907 4.44454 25.2907H13.3334C13.825 25.2907 14.2223 24.887 14.2223 24.3875V4.5165C14.2223 4.01703 13.825 3.61328 13.3334 3.61328V3.61328ZM12.4446 23.4843H5.33352V5.41972H12.4447V23.4843H12.4446Z" fill="white"/>
<path d="M22.2223 11.7422C20.7521 11.7422 19.5557 12.9579 19.5557 14.4518C19.5557 15.9458 20.7521 17.1615 22.2223 17.1615C23.6925 17.1615 24.8889 15.9458 24.8889 14.4518C24.8889 12.9579 23.6925 11.7422 22.2223 11.7422ZM22.2223 15.3551C21.7316 15.3551 21.3334 14.9505 21.3334 14.4518C21.3334 13.9532 21.7316 13.5486 22.2223 13.5486C22.713 13.5486 23.1112 13.9532 23.1112 14.4518C23.1112 14.9505 22.713 15.3551 22.2223 15.3551V15.3551Z" fill="white"/>
<path d="M42.4107 24.0922L39.7822 16.3768C37.1814 8.74268 30.0925 3.61328 22.1422 3.61328H16.8889C16.3973 3.61328 16 4.01703 16 4.5165V24.3875C16 24.887 16.3973 25.2907 16.8889 25.2907H41.5706C41.8577 25.2907 42.128 25.1498 42.2942 24.9113C42.4605 24.6729 42.5041 24.3685 42.4107 24.0922ZM37.28 15.0002C37.0089 17.2393 35.1271 18.9681 32.8889 18.9681C30.4382 18.9681 28.4445 16.9421 28.4445 14.452C28.4445 11.7188 30.9023 9.54838 33.6169 10.0054C35.1094 11.4108 36.3565 13.0963 37.28 15.0002ZM17.7779 5.41972H22.1423C25.5486 5.41972 28.7726 6.47017 31.481 8.29918C29.8171 8.69212 28.4108 9.7642 27.5557 11.2121C26.4669 9.36955 24.4873 8.12947 22.2223 8.12947C20.4819 8.12947 18.9085 8.86107 17.7779 10.0362V5.41972H17.7779ZM26.6668 14.452C26.6668 16.9422 24.673 18.9681 22.2223 18.9681C19.7717 18.9681 17.7779 16.9421 17.7779 14.452C17.7779 11.9619 19.7717 9.9359 22.2223 9.9359C24.673 9.9359 26.6668 11.9618 26.6668 14.452ZM17.7779 23.4843V18.8679C18.9085 20.043 20.4818 20.7746 22.2223 20.7746C24.4872 20.7746 26.4667 19.5345 27.5556 17.6919C28.6445 19.5345 30.6241 20.7746 32.889 20.7746C35.1886 20.7746 37.2241 19.4731 38.2988 17.5456L40.3219 23.4843H17.7779Z" fill="white"/>
<path d="M30.2222 14.4518C30.2222 15.9458 31.4186 17.1615 32.8888 17.1615C34.359 17.1615 35.5554 15.9458 35.5554 14.4518C35.5554 12.9579 34.359 11.7422 32.8888 11.7422C31.4186 11.7422 30.2222 12.9579 30.2222 14.4518ZM33.7777 14.4518C33.7777 14.9505 33.3795 15.3551 32.8888 15.3551C32.3981 15.3551 31.9999 14.9505 31.9999 14.4518C31.9999 13.9532 32.3981 13.5486 32.8888 13.5486C33.3795 13.5486 33.7777 13.9532 33.7777 14.4518Z" fill="white"/>
<path d="M46.2222 12.6445H55.111V14.451H46.2222V12.6445Z" fill="white"/>
<path d="M45.689 16.9805L46.7551 15.536L53.8662 20.9554L52.8001 22.3998L45.689 16.9805Z" fill="white"/>
<path d="M45.6826 10.1094L52.7934 4.69024L53.8595 6.13463L46.7487 11.5538L45.6826 10.1094Z" fill="white"/>
<path d="M5.5918 12.9062L10.9241 7.48792L12.181 8.76507L6.84867 14.1834L5.5918 12.9062Z" fill="white"/>
<path d="M5.59082 20.1328L10.9231 14.7145L12.18 15.9916L6.8477 21.41L5.59082 20.1328Z" fill="white"/>
</svg>
