<svg width="56" height="56" viewBox="0 0 56 56" fill="none" xmlns="http://www.w3.org/2000/svg">
<g clip-path="url(#clip0_1076_84041)">
<path d="M34.3338 22.7991L25.9198 30.7463L21.8817 26.5919C21.434 26.131 20.6969 26.1206 20.2365 26.5682C19.7756 27.0163 19.7651 27.753 20.2128 28.2139L25.0559 33.1857C25.5059 33.6383 26.233 33.6538 26.7016 33.2203L35.9563 24.4913C36.181 24.2793 36.3123 23.9866 36.321 23.678C36.3296 23.3694 36.2152 23.0699 36.0028 22.8456C35.5524 22.3774 34.8098 22.3569 34.3338 22.7991V22.7991Z" fill="white"/>
<path d="M28.0905 10.5664C18.4744 10.5664 10.6553 18.3855 10.6553 28.0017C10.6553 37.6183 18.4744 45.4374 28.0905 45.4374C37.7072 45.4374 45.5263 37.6183 45.5263 28.0017C45.5263 18.3855 37.7072 10.5664 28.0905 10.5664V10.5664ZM28.0905 43.1033C19.7581 43.1033 12.9893 36.3227 12.9893 28.0017C12.9893 19.6806 19.7581 12.9005 28.0905 12.9005C36.4312 12.9005 43.1922 19.6615 43.1922 28.0017C43.1922 36.3418 36.4312 43.1033 28.0905 43.1033V43.1033Z" fill="white"/>
<path d="M52.0845 21.5843L52.4698 14.6637C52.4966 14.1991 52.2441 13.7629 51.8279 13.555L45.6659 10.4391L42.55 4.2771C42.338 3.86454 41.9045 3.61335 41.4413 3.63523L34.5089 4.00905L28.7321 0.192492C28.3428 -0.0641639 27.8381 -0.0641639 27.4483 0.192492L21.6715 4.00905L14.7514 3.62384C14.2864 3.59649 13.8506 3.84904 13.6427 4.26571L10.5264 10.4277L4.36482 13.5436C3.95181 13.7551 3.70108 14.1887 3.72296 14.6523L4.10771 21.5729L0.291613 27.3497C0.0349572 27.739 0.0349572 28.2436 0.291613 28.6334L4.09632 34.4216L3.7111 41.3422C3.68421 41.8067 3.93631 42.243 4.35297 42.4509L10.515 45.5668L13.6309 51.7288C13.8424 52.1418 14.2759 52.3925 14.7395 52.3707L21.6601 51.9854L27.4369 55.8015C27.824 56.0664 28.3336 56.0664 28.7207 55.8015L34.4975 51.9854L41.4181 52.3707C41.8826 52.3975 42.3184 52.145 42.5267 51.7288L45.6426 45.5668L51.8046 42.4509C52.2172 42.2389 52.4684 41.8058 52.4465 41.3422L52.0613 34.4216L55.8774 28.6448C56.134 28.2555 56.134 27.7504 55.8774 27.3611L52.0845 21.5843ZM49.9137 33.4647C49.7714 33.6735 49.7053 33.9247 49.7272 34.1768L50.0887 40.7236L44.2654 43.6644C44.0434 43.7756 43.8634 43.9562 43.7521 44.1782L40.8108 50.0015L34.2641 49.64C34.0133 49.6309 33.7658 49.6956 33.552 49.8264L28.0902 53.4328L22.6289 49.8264C22.4392 49.6983 22.2158 49.629 21.987 49.6281H21.9286L15.3814 49.9901L12.4406 44.1663C12.3294 43.9443 12.1493 43.7642 11.9268 43.653L6.09167 40.7236L6.45363 34.1768C6.46275 33.9261 6.39756 33.6785 6.26672 33.4647L2.66078 28.0029L6.26672 22.5411C6.40941 22.3328 6.47551 22.0812 6.45363 21.8295L6.09167 15.2823L11.9154 12.3415C12.1374 12.2302 12.3175 12.0502 12.4287 11.8282L15.3696 6.0044L21.9168 6.36636C22.1671 6.37502 22.4146 6.31029 22.6289 6.17945L28.0902 2.57351L33.552 6.17945C33.7608 6.32214 34.0124 6.38824 34.2641 6.36636L40.8108 6.0044L43.7521 11.8282C43.8634 12.0502 44.0434 12.2302 44.2654 12.3415L50.0887 15.2823L49.7272 21.8295C49.7181 22.0798 49.7833 22.3273 49.9137 22.5411L53.5201 28.0029L49.9137 33.4647Z" fill="white"/>
</g>
<defs>
<clipPath id="clip0_1076_84041">
<rect width="56" height="56" fill="white"/>
</clipPath>
</defs>
</svg>
