<svg width="56" height="56" viewBox="0 0 56 56" fill="none" xmlns="http://www.w3.org/2000/svg">
<path d="M35.0001 38.5H33.0005C32.4482 38.5 32.0005 38.9477 32.0005 39.5C32.0005 40.0523 32.4482 40.5 33.0005 40.5H35.0001C35.5524 40.5 36.0001 40.0523 36.0001 39.5C36.0001 38.9477 35.5524 38.5 35.0001 38.5Z" fill="white"/>
<path d="M49.5 20.5C49.3316 20.5 49.1653 20.5085 49 20.5211V8.5C49 4.64013 45.8598 1.5 42 1.5H14C10.1402 1.5 7 4.64013 7 8.5V20.5211C6.83475 20.5085 6.66838 20.5 6.5 20.5C2.91587 20.5 0 23.4159 0 27C0 29.242 1.13488 31.288 3 32.4769V45.6666C3 45.7114 3.004 45.7553 3.00975 45.7985C3.16475 48.4169 5.34325 50.5 8 50.5V51.5C8 53.1541 9.34575 54.5 11 54.5C12.6543 54.5 14 53.1541 14 51.5V50.5H42V51.5C42 53.1541 43.3457 54.5 45 54.5C46.6543 54.5 48 53.1541 48 51.5V50.5C50.6567 50.5 52.8352 48.4169 52.9902 45.7985C52.996 45.7553 53 45.7114 53 45.6666V32.4769C54.8651 31.2879 56 29.2419 56 27C56 23.4159 53.0841 20.5 49.5 20.5ZM9 8.5C9 5.743 11.243 3.5 14 3.5H42C44.757 3.5 47 5.743 47 8.5V21.0006C44.6534 21.9823 43 24.3014 43 27V31.5028C42.1637 30.8735 41.1248 30.5 40 30.5H16C14.8752 30.5 13.8363 30.8735 13 31.5028V27C13 24.3014 11.3466 21.9823 9 21.0006V8.5ZM12 51.5C12 52.0514 11.5514 52.5 11 52.5C10.4486 52.5 10 52.0514 10 51.5V50.5H12V51.5ZM46 51.5C46 52.0514 45.5514 52.5 45 52.5C44.4486 52.5 44 52.0514 44 51.5V50.5H46V51.5ZM51.5448 31.008C51.2104 31.179 51 31.5229 51 31.8984V45.5C51 47.1541 49.6543 48.5 48 48.5H8C6.34575 48.5 5 47.1541 5 45.5V31.8985C5 31.523 4.78962 31.1791 4.45525 31.0081C2.94075 30.2336 2 28.6979 2 27C2 24.5186 4.01863 22.5 6.5 22.5C8.98137 22.5 11 24.5186 11 27V35.5001V35.5003C11.0001 38.2571 13.243 40.4999 16 40.4999H28.9998C29.552 40.4999 29.9998 40.0521 29.9998 39.4999C29.9998 38.9476 29.552 38.4999 28.9998 38.4999H16C14.3459 38.4999 13 37.1541 13 35.5C13 33.8459 14.3459 32.5 16 32.5H40C41.6541 32.5 43 33.8459 43 35.5C43 37.1541 41.6541 38.4999 40 38.4999H39C38.4477 38.4999 38 38.9476 38 39.4999C38 40.0521 38.4477 40.4999 39 40.4999H40C42.7569 40.4999 44.9999 38.2571 45 35.5003V35.5001V27C45 24.5186 47.0186 22.5 49.5 22.5C51.9814 22.5 54 24.5186 54 27C54 28.6979 53.0593 30.2336 51.5448 31.008Z" fill="white"/>
</svg>
