<svg width="56" height="56" viewBox="0 0 56 56" fill="none" xmlns="http://www.w3.org/2000/svg">
<g clip-path="url(#clip0_1076_84028)">
<path d="M55.892 30.5854C55.3892 25.5281 53.1298 20.7602 49.5298 17.1601C46.4533 14.0837 42.6877 12.1067 38.7254 11.2276V8.44857C40.3437 8.04595 41.5466 6.58107 41.5466 4.8399C41.5466 2.78931 39.8784 1.12109 37.8278 1.12109H29.9527C27.9021 1.12109 26.2339 2.78931 26.2339 4.8399C26.2339 6.58096 27.4368 8.04584 29.055 8.44857V11.2354C25.1049 12.1182 21.3518 14.0924 18.284 17.1602C17.6126 17.8316 16.9935 18.5358 16.4269 19.2678C16.3994 19.2657 16.3719 19.2636 16.3439 19.2636H8.54965C7.94567 19.2636 7.45588 19.7533 7.45588 20.3574C7.45588 20.9615 7.94567 21.4512 8.54965 21.4512H14.9386C14.1366 22.7938 13.49 24.2037 12.9978 25.6552H1.09377C0.489789 25.6552 0 26.1448 0 26.7489C0 27.353 0.489789 27.8427 1.09377 27.8427H12.3797C12.0645 29.2264 11.8836 30.6346 11.8369 32.0468H7.00011C6.39613 32.0468 5.90634 32.5365 5.90634 33.1406C5.90634 33.7447 6.39613 34.2343 7.00011 34.2343H11.8717C11.9641 35.6501 12.1917 37.0585 12.5547 38.4385H5.46884C4.86486 38.4385 4.37507 38.9281 4.37507 39.5322C4.37507 40.1363 4.86486 40.626 5.46884 40.626H13.2527C14.3257 43.4644 16.0026 46.1248 18.284 48.4062C21.8875 52.0097 26.6602 54.2696 31.7229 54.7698C32.4454 54.8411 33.1685 54.8765 33.8906 54.8765C38.1587 54.8765 42.3725 53.6413 45.9481 51.3129C46.4543 50.9832 46.5974 50.3056 46.2678 49.7994C45.9381 49.2932 45.2605 49.15 44.7543 49.4797C36.9277 54.5763 26.4458 53.4744 19.8308 46.8594C12.0692 39.0978 12.0692 26.4688 19.8308 18.7071C27.5922 10.9456 40.2212 10.9456 47.9829 18.7071C54.5892 25.3135 55.6971 35.7864 50.6174 43.6092C50.2884 44.1159 50.4324 44.7934 50.9389 45.1222C51.4458 45.4513 52.123 45.3072 52.4519 44.8006C55.166 40.6207 56.3877 35.5725 55.892 30.5854ZM28.4214 4.84001C28.4214 3.99562 29.1083 3.30874 29.9527 3.30874H37.8278C38.6722 3.30874 39.3591 3.99562 39.3591 4.84001C39.3591 5.6844 38.6722 6.37128 37.8278 6.37128H37.6316H30.1488H29.9527C29.1083 6.37128 28.4214 5.68429 28.4214 4.84001ZM31.2426 10.8593V8.55882H36.5378V10.8554C34.7795 10.6463 33.0006 10.6476 31.2426 10.8593Z" fill="white"/>
<path d="M48.7568 46.5391C48.4681 46.5391 48.187 46.6561 47.9837 46.8595C47.7791 47.063 47.6631 47.3452 47.6631 47.6328C47.6631 47.9205 47.7791 48.2027 47.9837 48.4061C48.187 48.6106 48.4682 48.7266 48.7568 48.7266C49.0445 48.7266 49.3256 48.6106 49.5301 48.4061C49.7336 48.2027 49.8506 47.9205 49.8506 47.6328C49.8506 47.3452 49.7337 47.063 49.5301 46.8595C49.3256 46.6561 49.0444 46.5391 48.7568 46.5391Z" fill="white"/>
<path d="M33.907 15.8164C24.5511 15.8164 16.9395 23.4279 16.9395 32.7839C16.9395 42.1399 24.5511 49.7514 33.907 49.7514C43.2628 49.7514 50.8745 42.1399 50.8745 32.7839C50.8745 23.4279 43.2628 15.8164 33.907 15.8164ZM33.907 47.5639C25.7572 47.5639 19.127 40.9336 19.127 32.7839C19.127 24.6342 25.7572 18.0039 33.907 18.0039C42.0567 18.0039 48.6869 24.6342 48.6869 32.7839C48.6869 40.9336 42.0567 47.5639 33.907 47.5639Z" fill="white"/>
<path d="M40.8256 24.3164L35.4082 29.7338C34.9551 29.5097 34.4456 29.3832 33.9069 29.3832C33.3681 29.3832 32.8586 29.5097 32.4056 29.7338L29.981 27.3092C29.5538 26.8821 28.8614 26.8821 28.4341 27.3092C28.007 27.7363 28.007 28.4289 28.4341 28.856L30.8587 31.2806C30.6345 31.7336 30.5081 32.2432 30.5081 32.7819C30.5081 34.6559 32.0327 36.1806 33.9069 36.1806C35.781 36.1806 37.3056 34.6559 37.3056 32.7819C37.3056 32.2432 37.1791 31.7336 36.9551 31.2806L42.2135 26.0222L42.3724 25.8632C42.7995 25.4361 42.7995 24.7435 42.3724 24.3164C41.9453 23.8893 41.2529 23.8893 40.8256 24.3164ZM33.9069 33.9932C33.239 33.9932 32.6956 33.4498 32.6956 32.782C32.6956 32.1141 33.239 31.5707 33.9069 31.5707C34.5747 31.5707 35.1181 32.1141 35.1181 32.782C35.1181 33.4498 34.5747 33.9932 33.9069 33.9932Z" fill="white"/>
<path d="M45.6013 31.7031H44.5879C43.9839 31.7031 43.4941 32.1928 43.4941 32.7969C43.4941 33.401 43.9839 33.8906 44.5879 33.8906H45.6013C46.2052 33.8906 46.695 33.401 46.695 32.7969C46.695 32.1928 46.2052 31.7031 45.6013 31.7031Z" fill="white"/>
<path d="M23.2257 31.6758H22.2124C21.6084 31.6758 21.1187 32.1655 21.1187 32.7695C21.1187 33.3736 21.6084 33.8633 22.2124 33.8633H23.2257C23.8296 33.8633 24.3194 33.3736 24.3194 32.7695C24.3194 32.1655 23.8296 31.6758 23.2257 31.6758Z" fill="white"/>
<path d="M33.9204 23.1968C34.5244 23.1968 35.0142 22.7072 35.0142 22.1031V21.0898C35.0142 20.4858 34.5244 19.9961 33.9204 19.9961C33.3164 19.9961 32.8267 20.4858 32.8267 21.0898V22.1031C32.8267 22.7072 33.3164 23.1968 33.9204 23.1968Z" fill="white"/>
<path d="M33.8936 42.3711C33.2896 42.3711 32.7998 42.8608 32.7998 43.4648V44.4781C32.7998 45.0822 33.2896 45.5718 33.8936 45.5718C34.4975 45.5718 34.9873 45.0822 34.9873 44.4781V43.4648C34.9873 42.8608 34.4975 42.3711 33.8936 42.3711Z" fill="white"/>
<path d="M1.09375 38.4375C0.806094 38.4375 0.523906 38.5545 0.320469 38.758C0.117031 38.9614 0 39.2436 0 39.5312C0 39.82 0.116922 40.1011 0.320469 40.3045C0.524016 40.508 0.806094 40.625 1.09375 40.625C1.38141 40.625 1.66359 40.508 1.86692 40.3045C2.07036 40.1011 2.1875 39.8189 2.1875 39.5312C2.1875 39.2436 2.07047 38.9614 1.86692 38.758C1.66359 38.5545 1.38141 38.4375 1.09375 38.4375Z" fill="white"/>
</g>
<defs>
<clipPath id="clip0_1076_84028">
<rect width="56" height="56" fill="white"/>
</clipPath>
</defs>
</svg>
