<svg width="56" height="56" viewBox="0 0 56 56" fill="none" xmlns="http://www.w3.org/2000/svg">
<path d="M55.125 22.75V3.5C55.125 2.05275 53.9473 0.875 52.5 0.875H19.25C17.8027 0.875 16.625 2.05275 16.625 3.5V7.90562C16.3214 7.8855 16.0335 7.875 15.75 7.875C7.54775 7.875 0.875 14.5478 0.875 22.75C0.875 29.7447 5.73387 35.6116 12.25 37.1919V40.25C12.25 40.7199 12.3839 41.1548 12.6009 41.5371C11.8668 42.0026 11.375 42.8181 11.375 43.75V50.75C11.375 53.1624 13.3376 55.125 15.75 55.125C18.1624 55.125 20.125 53.1624 20.125 50.75V43.75C20.125 42.8181 19.6333 42.0026 18.8991 41.5371C19.1161 41.1548 19.25 40.7199 19.25 40.25V37.1919C22.7972 36.3291 25.8703 34.1924 27.9239 31.2603L28.5722 32.5203C28.2555 33.1406 27.986 33.7934 27.7681 34.4706L25.375 35.2371V41.7637L27.7672 42.5302C27.9851 43.2084 28.2546 43.8611 28.5714 44.4806L27.4234 46.711L32.0381 51.3258L34.2685 50.1778C34.8889 50.4945 35.5416 50.764 36.2189 50.9819L36.9871 53.375H43.5137L44.2802 50.9827C44.9575 50.7649 45.6111 50.4954 46.2306 50.1786L48.461 51.3266L53.0749 46.7119L51.9278 44.4815C52.2445 43.862 52.514 43.2084 52.7319 42.5311L55.125 41.7629V35.2363L52.7327 34.4698C52.5149 33.7934 52.2454 33.1389 51.9286 32.5194L53.0758 30.289L48.4619 25.6742L46.2315 26.8222C45.6102 26.5046 44.9575 26.236 44.2811 26.0181L44.0737 25.375H52.5C53.9473 25.375 55.125 24.1973 55.125 22.75V22.75ZM19.25 25.375H24.9952C23.8402 29.4866 20.1084 32.375 15.75 32.375C10.4431 32.375 6.125 28.0569 6.125 22.75C6.125 17.4431 10.4431 13.125 15.75 13.125C16.03 13.125 16.3223 13.1443 16.625 13.1749V22.75C16.625 24.1973 17.8027 25.375 19.25 25.375ZM18.375 50.75C18.375 52.1973 17.1973 53.375 15.75 53.375C14.3027 53.375 13.125 52.1973 13.125 50.75V43.75C13.125 43.267 13.517 42.875 14 42.875H14.875H16.625H17.5C17.983 42.875 18.375 43.267 18.375 43.75V50.75ZM17.5 40.25C17.5 40.733 17.108 41.125 16.625 41.125H14.875C14.392 41.125 14 40.733 14 40.25V37.513C14.5749 37.5804 15.1568 37.625 15.75 37.625C16.3424 37.625 16.9243 37.5778 17.5 37.5095V40.25ZM15.75 35.875C8.51288 35.875 2.625 29.9871 2.625 22.75C2.625 15.5129 8.51288 9.625 15.75 9.625C16.0274 9.625 16.3188 9.639 16.625 9.66263V11.4144C16.3257 11.3899 16.0344 11.375 15.75 11.375C9.478 11.375 4.375 16.478 4.375 22.75C4.375 29.022 9.478 34.125 15.75 34.125C21.0674 34.125 25.5964 30.4859 26.7995 25.375H28.5906C27.363 31.4248 22.0132 35.875 15.75 35.875V35.875ZM30.3642 25.375H36.4254L36.2198 26.0172C35.5434 26.2351 34.8898 26.5037 34.2694 26.8214L32.039 25.6734L29.6013 28.1111C29.9399 27.2379 30.1954 26.3235 30.3642 25.375V25.375ZM42.896 27.4365L43.3484 27.5643C44.2129 27.8084 45.0363 28.1479 45.7958 28.5731L46.2052 28.8024L48.1259 27.8145L50.9355 30.6241L49.9476 32.5439L50.1769 32.9542C50.6021 33.7129 50.9416 34.5371 51.1858 35.4016L51.3135 35.854L53.375 36.5129V40.4863L51.3135 41.146L51.1858 41.5984C50.9408 42.4646 50.6013 43.288 50.1778 44.0458L49.9476 44.4552L50.9355 46.3759L48.1259 49.1864L46.2061 48.1976L45.7958 48.4269C45.0371 48.8513 44.2138 49.1916 43.3484 49.4366L42.896 49.5644L42.2371 51.625H38.2637L37.604 49.5635L37.1516 49.4358C36.2854 49.1908 35.462 48.8513 34.7042 48.4278L34.2948 48.1976L32.3741 49.1864L29.5636 46.3759L30.5524 44.4552L30.3222 44.0458C29.8987 43.2889 29.5592 42.4655 29.3134 41.5984L29.1856 41.146L27.125 40.4871V36.5137L29.1865 35.854L29.3142 35.4016C29.5592 34.5354 29.8987 33.712 30.3222 32.9542L30.5524 32.5448L29.5636 30.6241L32.3741 27.8145L34.2948 28.8024L34.7042 28.5731C35.4637 28.1479 36.2871 27.8075 37.1516 27.5643L37.604 27.4365L38.2629 25.375H42.2363L42.896 27.4365ZM36.9871 23.625H19.25C18.767 23.625 18.375 23.2321 18.375 22.75V3.5C18.375 3.01788 18.767 2.625 19.25 2.625H52.5C52.983 2.625 53.375 3.01788 53.375 3.5V22.75C53.375 23.2321 52.983 23.625 52.5 23.625H43.5129H36.9871Z" fill="white"/>
<path d="M47.25 4.375C44.8376 4.375 42.875 6.33763 42.875 8.75C42.875 9.24 42.9748 9.70375 43.1235 10.1439L39.2333 12.4136C38.5989 11.7731 37.7204 11.375 36.75 11.375C35.9065 11.375 35.1426 11.6865 34.538 12.1852L30.3739 9.15688C30.5314 8.75875 30.625 8.32825 30.625 7.875C30.625 5.94475 29.0553 4.375 27.125 4.375C25.1947 4.375 23.625 5.94475 23.625 7.875C23.625 9.04662 24.2086 10.08 25.095 10.7153L22.8191 16.632C22.7955 16.6311 22.7736 16.625 22.75 16.625C21.3027 16.625 20.125 17.8027 20.125 19.25C20.125 20.6973 21.3027 21.875 22.75 21.875C24.1973 21.875 25.375 20.6973 25.375 19.25C25.375 18.4537 25.0119 17.7485 24.4501 17.2664L26.7321 11.3348C26.8625 11.3505 26.9903 11.375 27.125 11.375C27.9685 11.375 28.7315 11.0635 29.337 10.5648L33.5011 13.5931C33.3436 13.9912 33.25 14.4217 33.25 14.875C33.25 16.8053 34.8197 18.375 36.75 18.375C38.6803 18.375 40.25 16.8053 40.25 14.875C40.25 14.546 40.1896 14.2336 40.1047 13.9309L44.0046 11.6559C44.8061 12.5501 45.9576 13.125 47.25 13.125C49.6624 13.125 51.625 11.1624 51.625 8.75C51.625 6.33763 49.6624 4.375 47.25 4.375V4.375ZM22.75 20.125C22.267 20.125 21.875 19.7321 21.875 19.25C21.875 18.7679 22.267 18.375 22.75 18.375C23.233 18.375 23.625 18.7679 23.625 19.25C23.625 19.7321 23.233 20.125 22.75 20.125ZM27.125 9.625C26.1599 9.625 25.375 8.84013 25.375 7.875C25.375 6.90987 26.1599 6.125 27.125 6.125C28.0901 6.125 28.875 6.90987 28.875 7.875C28.875 8.84013 28.0901 9.625 27.125 9.625ZM36.75 16.625C35.7849 16.625 35 15.8401 35 14.875C35 13.9099 35.7849 13.125 36.75 13.125C37.7151 13.125 38.5 13.9099 38.5 14.875C38.5 15.8401 37.7151 16.625 36.75 16.625ZM47.25 11.375C45.8027 11.375 44.625 10.1973 44.625 8.75C44.625 7.30275 45.8027 6.125 47.25 6.125C48.6973 6.125 49.875 7.30275 49.875 8.75C49.875 10.1973 48.6973 11.375 47.25 11.375Z" fill="white"/>
<path d="M42.875 20.125H44.625V21.875H42.875V20.125Z" fill="white"/>
<path d="M46.375 20.125H48.125V21.875H46.375V20.125Z" fill="white"/>
<path d="M49.875 20.125H51.625V21.875H49.875V20.125Z" fill="white"/>
<path d="M42.875 16.625H51.625V18.375H42.875V16.625Z" fill="white"/>
<path d="M9.625 22.75H7.875C7.875 27.0917 11.4074 30.625 15.75 30.625V28.875C12.3734 28.875 9.625 26.1275 9.625 22.75Z" fill="white"/>
<path d="M46.375 38.5H44.625C44.625 40.9124 42.6624 42.875 40.25 42.875V44.625C43.6266 44.625 46.375 41.8766 46.375 38.5Z" fill="white"/>
<path d="M30.625 38.5C30.625 43.8069 34.9431 48.125 40.25 48.125C45.5569 48.125 49.875 43.8069 49.875 38.5C49.875 33.1931 45.5569 28.875 40.25 28.875C34.9431 28.875 30.625 33.1931 30.625 38.5ZM40.25 30.625C44.5926 30.625 48.125 34.1574 48.125 38.5C48.125 42.8426 44.5926 46.375 40.25 46.375C35.9074 46.375 32.375 42.8426 32.375 38.5C32.375 34.1574 35.9074 30.625 40.25 30.625Z" fill="white"/>
</svg>
