<svg width="56" height="56" viewBox="0 0 56 56" fill="none" xmlns="http://www.w3.org/2000/svg">
<path d="M37.3334 30.8008C34.245 30.8008 31.7334 33.3124 31.7334 36.4008C31.7334 39.4892 34.245 42.0008 37.3334 42.0008C40.4218 42.0008 42.9334 39.4892 42.9334 36.4008C42.9334 33.3124 40.4218 30.8008 37.3334 30.8008ZM37.3334 40.1341C35.2744 40.1341 33.6001 38.4597 33.6001 36.4008C33.6001 34.3418 35.2745 32.6675 37.3334 32.6675C39.3924 32.6675 41.0667 34.3419 41.0667 36.4008C41.0668 38.4598 39.3924 40.1341 37.3334 40.1341Z" fill="white"/>
<path d="M39.2001 40.1328V43.9894L37.8505 43.0897C37.5369 42.8797 37.1291 42.8797 36.8154 43.0897L35.4667 43.9894V40.1328H33.6001V45.7328C33.6001 46.0772 33.7895 46.3937 34.0938 46.556C34.3962 46.7184 34.7658 46.6997 35.0514 46.5093L37.3334 44.988L39.6154 46.5093C39.7713 46.6128 39.9524 46.6661 40.1334 46.6661C40.2845 46.6661 40.4358 46.6297 40.574 46.556C40.8773 46.3935 41.0668 46.0771 41.0668 45.7328V40.1328H39.2001Z" fill="white"/>
<path d="M33.6001 9.33203H21.4668V11.1987H33.6001V9.33203Z" fill="white"/>
<path d="M42.9336 14.9336H13.0669V16.8003H42.9336V14.9336Z" fill="white"/>
<path d="M33.6002 20.5312H13.0669V22.398H33.6002V20.5312Z" fill="white"/>
<path d="M42.9335 20.5312H37.3335V22.398H42.9335V20.5312Z" fill="white"/>
<path d="M42.9336 26.1328H13.0669V27.9995H42.9336V26.1328Z" fill="white"/>
<path d="M24.2669 31.7344H13.0669V33.6011H24.2669V31.7344Z" fill="white"/>
<path d="M17.7336 36.3984H13.0669V38.2651H17.7336V36.3984Z" fill="white"/>
<path d="M24.2668 36.3984H21.4668V38.2651H24.2668V36.3984Z" fill="white"/>
<path d="M51.3332 0C48.7601 0 46.6665 2.09344 46.6665 4.6667V6.53341C46.6665 7.04856 47.0837 7.4667 47.5998 7.4667H55.0665C55.5826 7.4667 55.9998 7.04856 55.9998 6.53341V4.6667C55.9999 2.09344 53.9065 0 51.3332 0ZM54.1332 5.6H48.5332V4.6667C48.5332 3.12298 49.7895 1.8667 51.3332 1.8667C52.8769 1.8667 54.1332 3.12298 54.1332 4.6667V5.6V5.6Z" fill="white"/>
<path d="M51.3334 0H12.1334C9.56023 0 7.4668 2.09344 7.4668 4.6667V49.4667H9.3335V4.6667C9.3335 3.12298 10.5898 1.8667 12.1335 1.8667H47.6021C47.015 2.64698 46.6669 3.6167 46.6669 4.6667V51.3334C46.6669 52.8771 45.4106 54.1334 43.8669 54.1334H8.40009V56H43.8668C46.44 56 48.5335 53.9066 48.5335 51.3333V4.6667C48.5335 3.12298 49.7898 1.8667 51.3335 1.8667C51.8496 1.8667 52.2668 1.44856 52.2668 0.933406C52.2668 0.41825 51.8495 0 51.3334 0Z" fill="white"/>
<path d="M43.8667 54.1313C42.323 54.1313 41.0667 52.875 41.0667 51.3313V49.4645C41.0667 48.9484 40.6495 48.5312 40.1334 48.5312H0.933297C0.418141 48.5312 0 48.9484 0 49.4645V51.3313C0 53.9045 2.09344 55.998 4.6667 55.998H43.8667C44.3828 55.998 44.8 55.5808 44.8 55.0647C44.8 54.5485 44.3828 54.1313 43.8667 54.1313ZM4.6667 54.1313C3.12298 54.1313 1.8667 52.875 1.8667 51.3313V50.398H39.2V51.3313C39.2 52.3813 39.5481 53.351 40.1352 54.1313H4.6667V54.1313Z" fill="white"/>
</svg>
