<svg width="47" height="47" viewBox="0 0 47 47" fill="none" xmlns="http://www.w3.org/2000/svg">
<g clip-path="url(#clip0_1069_80443)">
<path d="M29.285 47H17.715V43.2611C16.2936 42.8444 14.9238 42.275 13.6214 41.5596L10.9733 44.2077L2.79263 36.0263L5.4404 33.3782C4.72503 32.0762 4.1556 30.7064 3.73929 29.285H0V17.715H3.73893C4.1556 16.2936 4.72503 14.9238 5.4404 13.6214L2.79263 10.9737L10.9737 2.79263L13.6218 5.4404C14.9238 4.72503 16.2936 4.1556 17.715 3.73929V0H29.285V3.73893C30.7064 4.1556 32.0762 4.72503 33.3786 5.4404L36.0267 2.79227L44.2077 10.9733L41.5596 13.6214C42.275 14.9238 42.8444 16.2936 43.2611 17.715H47V29.285H43.2611C42.8444 30.7064 42.275 32.0762 41.5596 33.3786L44.2077 36.0267L36.0267 44.2077L33.3786 41.5596C32.0762 42.275 30.7064 42.8444 29.285 43.2611V47ZM20.4689 44.2461H26.5311V41.1107L27.5921 40.8607C29.4593 40.4207 31.2364 39.6821 32.8751 38.6651L33.8028 38.0896L36.0263 40.3132L40.3128 36.0267L38.0892 33.8028L38.6651 32.8751C39.6821 31.2368 40.4207 29.4593 40.8604 27.5921L41.1107 26.5311H44.2461V20.4689H41.1107L40.8607 19.4079C40.4207 17.5407 39.6821 15.7632 38.6651 14.1249L38.0896 13.1972L40.3132 10.9733L36.0267 6.68683L33.8028 8.91039L32.8751 8.33487C31.2368 7.31793 29.4593 6.57925 27.5921 6.13927L26.5311 5.88934V2.75391H20.4689V5.88934L19.4079 6.13927C17.5407 6.57925 15.7632 7.31793 14.1249 8.33487L13.1972 8.91039L10.9733 6.68683L6.68683 10.9733L8.91039 13.1972L8.33487 14.1249C7.31793 15.7632 6.57925 17.5407 6.13927 19.4079L5.88934 20.4689H2.75391V26.5311H5.88934L6.13927 27.5921C6.57925 29.4593 7.31793 31.2364 8.33487 32.8751L8.91039 33.8028L6.68683 36.0263L10.9733 40.3128L13.1972 38.0892L14.1249 38.6651C15.7632 39.6821 17.5407 40.4207 19.4079 40.8604L20.4689 41.1107V44.2461Z" fill="white"/>
<path d="M23.5 37.8203C15.6037 37.8203 9.17969 31.3963 9.17969 23.5C9.17969 15.6037 15.6037 9.17969 23.5 9.17969C31.3963 9.17969 37.8203 15.6037 37.8203 23.5C37.8203 31.3963 31.3963 37.8203 23.5 37.8203ZM23.5 11.9336C17.1223 11.9336 11.9336 17.1223 11.9336 23.5C11.9336 29.8777 17.1223 35.0664 23.5 35.0664C29.8777 35.0664 35.0664 29.8777 35.0664 23.5C35.0664 17.1223 29.8777 11.9336 23.5 11.9336Z" fill="white"/>
<path d="M30.4719 24.8762H22.123V16.5273H24.877V22.1223H30.4719V24.8762Z" fill="white"/>
</g>
<defs>
<clipPath id="clip0_1069_80443">
<rect width="47" height="47" fill="white"/>
</clipPath>
</defs>
</svg>
