<svg width="47" height="47" viewBox="0 0 47 47" fill="none" xmlns="http://www.w3.org/2000/svg">
<path d="M47 3.48828H0V37.6521H28.9135V43.5813L34.0523 41.0712L39.1912 43.5813V37.6521H47V3.48828ZM34.0523 32.1422C31.4706 32.1422 29.3707 30.042 29.3707 27.4605C29.3707 24.8791 31.4706 22.7789 34.0523 22.7789C36.6338 22.7789 38.734 24.8791 38.734 27.4605C38.734 30.042 36.6338 32.1422 34.0523 32.1422ZM34.0523 38.0064L31.6674 39.1711V34.5013C32.4165 34.7559 33.2179 34.8961 34.0523 34.8961C34.8864 34.8961 35.6878 34.7559 36.4373 34.5013V39.1711L34.0523 38.0064ZM44.2461 34.8982H39.1912V32.8267C40.6047 31.4723 41.4879 29.5683 41.4879 27.4605C41.4879 23.3605 38.1524 20.025 34.0523 20.025C29.9523 20.025 26.6168 23.3605 26.6168 27.4605C26.6168 29.5683 27.4996 31.4727 28.9135 32.8267V34.8982H2.75391V6.24219H44.2461V34.8982Z" fill="white"/>
<path d="M5.51172 14.5117H41.4896V17.2656H5.51172V14.5117Z" fill="white"/>
<path d="M9.64453 9H37.3543V11.7539H9.64453V9Z" fill="white"/>
<path d="M5.51172 29.3867H18.9072V32.1406H5.51172V29.3867Z" fill="white"/>
<path d="M5.51172 23.875H18.9072V26.6289H5.51172V23.875Z" fill="white"/>
</svg>
