<svg width="47" height="47" viewBox="0 0 47 47" fill="none" xmlns="http://www.w3.org/2000/svg">
<g clip-path="url(#clip0_1069_80456)">
<path d="M35.181 11.2031H29.6699V13.957H32.4271V16.8637H29.6699V19.6176H37.9381V16.8637H35.181V11.2031Z" fill="white"/>
<path d="M32.4258 5.69141H35.1818V8.44531H32.4258V5.69141Z" fill="white"/>
<path d="M33.8036 0C26.5269 0 20.6074 5.91982 20.6074 13.1962C20.6074 20.4725 26.5269 26.3923 33.8036 26.3923C41.0799 26.3923 46.9997 20.4725 46.9997 13.1962C46.9997 5.91982 41.0799 0 33.8036 0V0ZM33.8036 23.6384C28.0458 23.6384 23.3613 18.9543 23.3613 13.1962C23.3613 7.43806 28.0458 2.75391 33.8036 2.75391C39.5613 2.75391 44.2458 7.43806 44.2458 13.1962C44.2458 18.9543 39.5613 23.6384 33.8036 23.6384V23.6384Z" fill="white"/>
<path d="M23.5219 33.4744L13.5239 23.4768L17.4217 19.579L8.07741 10.2344L1.63728 16.6745C0.581261 17.7302 0 19.1337 0 20.6268C0 22.1199 0.581261 23.5234 1.63728 24.5791L22.4192 45.3614C23.4749 46.417 24.8784 46.9983 26.3715 46.9983C27.8647 46.9983 29.2681 46.417 30.3238 45.3614L36.7639 38.9213L27.4193 29.5766L23.5219 33.4744ZM28.3764 43.4139C27.841 43.9493 27.1288 44.2444 26.3715 44.2444C25.6142 44.2444 24.9021 43.9493 24.3667 43.4139L3.58438 22.632C3.04902 22.0963 2.75391 21.3841 2.75391 20.6268C2.75391 19.8695 3.04902 19.1573 3.58438 18.622L8.07741 14.1289L13.5271 19.579L9.62935 23.4768L23.5219 37.369L27.4193 33.4712L32.8694 38.9213L28.3764 43.4139Z" fill="white"/>
</g>
<defs>
<clipPath id="clip0_1069_80456">
<rect width="47" height="47" fill="white"/>
</clipPath>
</defs>
</svg>
