<svg width="47" height="47" viewBox="0 0 47 47" fill="none" xmlns="http://www.w3.org/2000/svg">
<path d="M42.8942 15.1522L28.1454 0.403404C27.8872 0.145225 27.5369 0 27.1719 0H8.73576C5.94349 0 3.67188 2.27161 3.67188 5.06425V41.9361C3.67188 44.7284 5.94349 47 8.73576 47H38.2334C41.0257 47 43.2973 44.7284 43.2973 41.9361V16.1258C43.2973 15.7604 43.1524 15.4104 42.8942 15.1522V15.1522ZM28.5488 4.70136L38.5963 14.7488H30.8588C29.5851 14.7488 28.5488 13.7125 28.5488 12.4385V4.70136ZM38.2334 44.2461H8.73576C7.46208 44.2461 6.42578 43.2098 6.42578 41.9361V5.06425C6.42578 3.79021 7.46208 2.75391 8.73576 2.75391H25.7949V12.4385C25.7949 15.2308 28.0665 17.5027 30.8588 17.5027H40.5434V41.9361C40.5434 43.2098 39.5071 44.2461 38.2334 44.2461Z" fill="white"/>
<path d="M21.0301 22.8863C20.7967 22.4198 20.3201 22.125 19.7984 22.125C19.277 22.125 18.8001 22.4198 18.5667 22.8863L11.1924 37.6351C10.8525 38.315 11.1282 39.1422 11.8085 39.4821C12.0061 39.5811 12.2162 39.6281 12.4231 39.6281C12.9283 39.6281 13.4146 39.3491 13.6559 38.8665L15.8561 34.4656H23.7406L25.9412 38.8665C26.2812 39.5467 27.1084 39.8224 27.7886 39.4821C28.4689 39.1422 28.7446 38.315 28.4043 37.6351L21.0301 22.8863ZM17.2331 31.7117L19.7984 26.5807L22.364 31.7117H17.2331Z" fill="white"/>
<path d="M34.5465 25.8123H32.2358V23.502C32.2358 22.7414 31.6194 22.125 30.8588 22.125C30.0986 22.125 29.4819 22.7414 29.4819 23.502V25.8123H27.1719C26.4113 25.8123 25.7949 26.4287 25.7949 27.1892C25.7949 27.9494 26.4113 28.5662 27.1719 28.5662H29.4819V30.8765C29.4819 31.6367 30.0986 32.2535 30.8588 32.2535C31.6194 32.2535 32.2358 31.6367 32.2358 30.8765V28.5662H34.5465C35.3067 28.5662 35.9234 27.9494 35.9234 27.1892C35.9234 26.4287 35.3067 25.8123 34.5465 25.8123V25.8123Z" fill="white"/>
</svg>
