<svg width="47" height="47" viewBox="0 0 47 47" fill="none" xmlns="http://www.w3.org/2000/svg">
<g clip-path="url(#clip0_1069_80449)">
<path d="M43.3318 23.0202L42.2112 13.3471C46.5913 10.1729 48.4072 4.84615 45.7838 2.22276C44.6636 1.10255 42.913 0.737159 40.9813 1.22017C39.2701 1.64796 37.5152 2.69609 36.04 4.1713C36.0221 4.18959 36.0049 4.20823 35.9869 4.22616L23.0371 2.72586L0 25.7633L20.2943 46.0576L43.3318 23.0202ZM41.6497 3.89376C42.6196 3.65136 43.4161 3.75248 43.8349 4.1713C44.8547 5.19111 43.9206 8.01889 41.8318 10.0739L41.5109 7.30387L39.2565 5.04947C40.0432 4.49259 40.8708 4.08847 41.6497 3.89376ZM24.0437 5.6171L34.0442 6.77568C33.6235 7.51831 33.3065 8.28065 33.1097 9.03619L32.1426 8.06909L30.1941 10.0176L36.04 15.8639L37.9889 13.9151L36.04 11.9665C35.6212 11.5477 35.5201 10.7513 35.7625 9.78132C35.9787 8.91642 36.4527 7.99199 37.1075 7.13032L37.4837 7.17407L38.8839 8.57433L40.4409 22.014L20.2943 42.1602L3.89743 25.7633L24.0437 5.6171Z" fill="white"/>
<path d="M15.2119 20.3906C12.9327 20.3906 11.0781 22.2452 11.0781 24.5247C11.0781 26.8039 12.9327 28.6584 15.2119 28.6584C17.4914 28.6584 19.3459 26.8039 19.3459 24.5247C19.3459 22.2452 17.4914 20.3906 15.2119 20.3906V20.3906ZM15.2119 25.9024C14.452 25.9024 13.8342 25.2842 13.8342 24.5247C13.8342 23.7649 14.452 23.1467 15.2119 23.1467C15.9717 23.1467 16.5899 23.7649 16.5899 24.5247C16.5899 25.2842 15.9721 25.9024 15.2119 25.9024Z" fill="white"/>
<path d="M28.9931 28.6584C31.2726 28.6584 33.1272 26.8039 33.1272 24.5247C33.1272 22.2452 31.2726 20.3906 28.9931 20.3906C26.7136 20.3906 24.8594 22.2452 24.8594 24.5247C24.8594 26.8039 26.7136 28.6584 28.9931 28.6584V28.6584ZM28.9931 23.1467C29.753 23.1467 30.3712 23.7649 30.3712 24.5247C30.3712 25.2842 29.753 25.9024 28.9931 25.9024C28.2333 25.9024 27.6151 25.2842 27.6151 24.5247C27.6151 23.7649 28.2333 23.1467 28.9931 23.1467V23.1467Z" fill="white"/>
<path d="M22.1213 16.0312L24.8397 16.4841L22.0836 33.0198L19.3652 32.5665L22.1213 16.0312Z" fill="white"/>
</g>
<defs>
<clipPath id="clip0_1069_80449">
<rect width="47" height="47" fill="white"/>
</clipPath>
</defs>
</svg>
