<svg width="47" height="47" viewBox="0 0 47 47" fill="none" xmlns="http://www.w3.org/2000/svg">
<path d="M43.6445 23.6063C43.4254 23.0072 42.7623 22.6999 42.1664 22.9197L31.3697 26.8744L40.0971 18.1538C40.3132 17.9388 40.4339 17.645 40.4339 17.3387C40.4339 17.0337 40.3131 16.7403 40.0971 16.5235L33.346 9.76855C32.8959 9.31838 32.1666 9.31838 31.7164 9.76855L23.1567 18.3223L27.9574 6.93438C28.0759 6.65267 28.0775 6.33525 27.9634 6.0524C27.8479 5.76955 27.6251 5.54375 27.3429 5.42552L18.5439 1.71535C17.9567 1.46508 17.2808 1.74395 17.0339 2.32942L12.2928 13.5763V1.60167C12.2928 0.965402 11.7766 0.449219 11.1403 0.449219H1.15245C0.516183 0.449219 0 0.965402 0 1.60167V45.3947C0 46.031 0.516183 46.5472 1.15245 46.5472H11.1403C11.2811 46.5472 11.4147 46.5179 11.5391 46.4722C11.6638 46.5172 11.7935 46.5472 11.9286 46.5472C12.061 46.5472 12.1945 46.5247 12.3251 46.4766L46.2435 34.0504C46.8407 33.8313 47.1483 33.1695 46.9291 32.5722L43.6445 23.6063ZM6.81268 44.2423H2.3049V42.3412V41.0911V40.2357V37.2698V2.75412H9.98789V19.0436V22.01V24.977V31.483V33.111V34.7077V34.7407V41.8805V43.0794V43.4464V43.5108V44.2424H9.7796H9.08898H6.81268V44.2423ZM25.3862 7.10127L18.835 22.6414L17.648 25.4565L16.4607 28.2716L14.4341 33.0786L13.2099 35.9815L12.2928 38.1596V36.3177V33.8636V32.4374V30.8077V29.1796V19.5102L18.7104 4.28787L25.3862 7.10127ZM16.1689 34.8973L17.393 31.9946L20.7832 23.9522L32.5298 12.2134L37.6521 17.338L26.2222 28.7609L22.3447 32.6353L13.3215 41.6523L16.1689 34.8973ZM15.3022 42.9315L27.4915 30.7505L41.8769 25.4806L44.3686 32.2827L15.3022 42.9315Z" fill="white"/>
<path d="M6.1454 39.5039C6.09475 39.5039 6.04709 39.5151 5.998 39.5183C5.56619 39.5573 5.18432 39.7562 4.91072 40.0613C4.73031 40.2625 4.59714 40.5071 4.53112 40.7787C4.5011 40.9048 4.48047 41.0338 4.48047 41.1688C4.48047 41.5349 4.60197 41.8696 4.80159 42.1442C5.10421 42.5597 5.59123 42.8329 6.1454 42.8329C6.22593 42.8329 6.3029 42.821 6.38059 42.8089C6.71295 42.7616 7.01258 42.6175 7.2509 42.4037C7.366 42.3001 7.46759 42.1831 7.55053 42.051C7.68712 41.8348 7.77035 41.5843 7.79397 41.3157C7.79852 41.2662 7.80863 41.2181 7.80863 41.1678C7.81033 40.2489 7.06494 39.5039 6.1454 39.5039Z" fill="white"/>
</svg>
