<svg width="47" height="47" viewBox="0 0 47 47" fill="none" xmlns="http://www.w3.org/2000/svg">
<path d="M44.5565 17.8233V11.0265C44.5534 8.35405 42.3876 6.1882 39.7151 6.18509H38.4403V5.42069C38.4293 3.25173 36.6679 1.5 34.4993 1.5C32.3306 1.5 30.5696 3.25173 30.5579 5.42069V6.18509H16.319V5.42069C16.3079 3.25173 14.5466 1.5 12.3779 1.5C10.2093 1.5 8.44827 3.25173 8.43654 5.42069V6.18509H7.16139C4.48927 6.1882 2.32342 8.35405 2.32031 11.0265V40.7211C2.32342 43.3935 4.48927 45.5594 7.16139 45.5625H39.7151C42.3876 45.5594 44.5534 43.3935 44.5565 40.7211V18.5221C44.6332 18.2954 44.6332 18.05 44.5565 17.8233ZM34.4993 3.68345C35.458 3.68483 36.2348 4.46131 36.2358 5.42069V7.74184C36.2286 8.69536 35.4528 9.46459 34.4986 9.46459C33.5447 9.46459 32.7693 8.69536 32.7617 7.74184V5.42069C32.7627 4.46131 33.5399 3.68449 34.4993 3.68345ZM10.6404 5.42069C10.6479 4.46649 11.4234 3.69726 12.3772 3.69726C13.3315 3.69726 14.1065 4.46649 14.1145 5.42069V7.74184C14.1065 8.69536 13.3315 9.46459 12.3772 9.46459C11.4234 9.46459 10.6479 8.69536 10.6404 7.74184V5.42069ZM7.16139 8.38925H8.49037C8.80718 10.2894 10.4509 11.6822 12.3772 11.6822C14.3039 11.6822 15.9477 10.2894 16.2645 8.38925H30.612C30.9288 10.2894 32.5729 11.6822 34.4993 11.6822C36.4256 11.6822 38.0697 10.2894 38.3861 8.38925H39.7151C41.1711 8.39098 42.3507 9.57053 42.3524 11.0265V17.0703H4.52447V11.0269C4.52585 9.57088 5.7061 8.39098 7.16139 8.38925ZM39.7151 43.3583H7.16139C5.7061 43.3566 4.5262 42.1771 4.52447 40.7211V19.2744H42.3524V40.7211C42.3507 42.1771 41.1711 43.3566 39.7151 43.3583Z" fill="white"/>
<path d="M30.1528 29.1046L26.1903 28.54L24.4227 25.0286C24.2356 24.6565 23.855 24.4219 23.4381 24.4219C23.0219 24.4219 22.6413 24.6565 22.4542 25.0286L20.6859 28.54L16.7242 29.1046C16.3062 29.1639 15.9591 29.4569 15.83 29.8586C15.7013 30.2603 15.8128 30.7006 16.1182 30.9923L18.9718 33.7196L18.2996 37.5644C18.2274 37.9768 18.3948 38.3943 18.7323 38.6421C19.0695 38.8903 19.5181 38.9255 19.8901 38.7339L23.4388 36.9052L26.9875 38.7339C27.3592 38.9255 27.8078 38.8899 28.1446 38.6418C28.4814 38.3943 28.6495 37.9768 28.5777 37.5647L27.9051 33.7199L30.7591 30.9926C31.0642 30.7013 31.176 30.2606 31.0469 29.8593C30.9178 29.4576 30.5707 29.1643 30.1528 29.1049V29.1046ZM25.9563 32.5321C25.6902 32.7861 25.5688 33.1564 25.6323 33.5187L26.024 35.7574L23.9433 34.6852C23.6269 34.522 23.2507 34.522 22.9336 34.6852L20.853 35.7574L21.2443 33.5187C21.3081 33.1564 21.1863 32.7861 20.9203 32.5321L19.2817 30.9667L21.567 30.6413C21.9242 30.5906 22.2337 30.368 22.3959 30.046L23.4381 27.9754L24.481 30.046C24.6432 30.368 24.9528 30.5906 25.3096 30.6413L27.5952 30.9667L25.9563 32.5321Z" fill="white"/>
</svg>
