<svg width="47" height="47" viewBox="0 0 47 47" fill="none" xmlns="http://www.w3.org/2000/svg">
<g clip-path="url(#clip0_1069_80420)">
<path d="M45.212 10.8582L24.4577 0.342224L24.4492 0.33791C23.525 -0.122176 22.427 -0.111895 21.5115 0.365449C21.4394 0.395925 1.80078 10.8191 1.73459 10.8617C0.664609 11.4218 7.08213e-10 12.5195 7.76556e-10 13.7277L1.88201e-09 33.2695C1.95035e-09 34.4776 0.664609 35.5752 1.73459 36.1355L21.5026 46.6271L21.5115 46.6318C21.9784 46.8753 22.4929 46.9972 23.0075 46.9972C23.5018 46.9972 23.9963 46.8847 24.4492 46.6593L45.212 36.139C46.3151 35.5874 47 34.4792 47 33.2456L47 13.7516C47 12.518 46.315 11.4098 45.212 10.8582ZM22.7874 2.80486C22.9222 2.73564 23.0833 2.73427 23.2193 2.801L42.6462 12.6443L35.0853 16.4085L16.0927 6.35795L22.7874 2.80486ZM21.6112 43.5683L3.02104 33.7017L3.01213 33.697C2.85231 33.6135 2.7529 33.4499 2.7529 33.2696L2.7529 14.97L21.6112 24.8036L21.6112 43.5683ZM23.0022 22.4241L4.24762 12.6446L13.1541 7.91767L32.0528 17.9185L23.0022 22.4241ZM44.247 33.2457C44.247 33.4297 44.1446 33.5951 43.9797 33.6772L24.3642 43.6161L24.3642 24.8213L33.3957 20.325L33.3957 25.0393C33.3957 25.7994 34.012 26.4157 34.7722 26.4157C35.5324 26.4157 36.1487 25.7994 36.1487 25.0393L36.1487 18.9545L44.247 14.9228L44.247 33.2457Z" fill="white"/>
<path d="M16.6411 27.0279C16.2564 26.3721 15.413 26.1525 14.7573 26.5371L10.4945 29.038L9.59943 27.4163C9.23206 26.7508 8.3946 26.509 7.72916 26.8764C7.06363 27.2438 6.82184 28.0811 7.18921 28.7467L8.76711 31.6055C8.77078 31.6122 8.775 31.6183 8.77877 31.6249C8.78097 31.6289 8.78271 31.6329 8.78501 31.6369C8.79024 31.6459 8.79612 31.6542 8.80153 31.663C8.8097 31.6764 8.81796 31.6897 8.82659 31.7026C8.83531 31.7157 8.84431 31.7285 8.8534 31.7412C8.86258 31.754 8.87176 31.7669 8.8813 31.7793C8.89076 31.7916 8.90058 31.8036 8.91031 31.8155C8.92023 31.8275 8.93005 31.8396 8.94024 31.8511C8.95052 31.8628 8.96108 31.874 8.97172 31.8852C8.9821 31.8962 8.99247 31.9073 9.00321 31.918C9.01441 31.9291 9.02598 31.9397 9.03745 31.9504C9.04819 31.9603 9.05884 31.9703 9.06976 31.9798C9.08197 31.9905 9.09464 32.0006 9.10722 32.0108C9.11805 32.0195 9.12879 32.0284 9.1399 32.0368C9.15311 32.0468 9.16661 32.0563 9.1801 32.0658C9.19121 32.0736 9.20213 32.0815 9.21342 32.0889C9.22738 32.0981 9.2417 32.1067 9.25602 32.1154C9.26731 32.1223 9.27851 32.1294 9.28998 32.1359C9.30467 32.1442 9.31973 32.152 9.33469 32.1598C9.34616 32.1657 9.35755 32.172 9.3692 32.1777C9.38444 32.1851 9.40005 32.1918 9.41556 32.1987C9.4274 32.2039 9.43906 32.2094 9.45099 32.2143C9.46642 32.2206 9.48221 32.2261 9.49781 32.2319C9.5102 32.2364 9.52241 32.2413 9.5349 32.2455C9.55041 32.2507 9.5662 32.2551 9.58181 32.2597C9.59466 32.2636 9.60742 32.2677 9.62045 32.2711C9.63587 32.2751 9.65148 32.2784 9.66699 32.2819C9.68049 32.2851 9.69398 32.2885 9.70757 32.2912C9.72235 32.2941 9.73731 32.2962 9.75218 32.2986C9.76678 32.301 9.78119 32.3038 9.79588 32.3057C9.80992 32.3075 9.82397 32.3085 9.8381 32.3099C9.85371 32.3115 9.86931 32.3134 9.88492 32.3144C9.89731 32.3153 9.9097 32.3152 9.9221 32.3156C9.93935 32.3163 9.95652 32.3174 9.97378 32.3174C10.0029 32.3174 10.032 32.3164 10.0611 32.3145C10.0685 32.3141 10.0759 32.3131 10.0834 32.3124C10.1048 32.3107 10.1262 32.3089 10.1476 32.3062C10.1586 32.3048 10.1695 32.3027 10.1804 32.301C10.1982 32.2983 10.2159 32.2957 10.2337 32.2923C10.2463 32.2898 10.259 32.2867 10.2717 32.2839C10.2875 32.2803 10.3034 32.2769 10.3192 32.2728C10.3329 32.2692 10.3464 32.265 10.36 32.261C10.3747 32.2567 10.3894 32.2525 10.4041 32.2476C10.4181 32.243 10.4318 32.2378 10.4457 32.2327C10.4599 32.2275 10.4742 32.2224 10.4883 32.2166C10.5022 32.211 10.5158 32.2048 10.5296 32.1988C10.5436 32.1925 10.5576 32.1863 10.5715 32.1796C10.5849 32.1731 10.5981 32.1662 10.6113 32.1592C10.6201 32.1546 10.6291 32.1505 10.6378 32.1456C10.6415 32.1436 10.6448 32.141 10.6486 32.139C10.6555 32.1352 10.6624 32.1319 10.6692 32.1278L16.1509 28.9119C16.806 28.527 17.0258 27.6836 16.6411 27.0279Z" fill="white"/>
</g>
<defs>
<clipPath id="clip0_1069_80420">
<rect width="47" height="47" fill="white"/>
</clipPath>
</defs>
</svg>
