<svg width="30" height="30" viewBox="0 0 30 30" fill="none" xmlns="http://www.w3.org/2000/svg">
<path d="M26.6654 0.332031H3.33203C1.67518 0.332031 0.332031 1.67518 0.332031 3.33203V26.6654C0.332031 28.3222 1.67518 29.6654 3.33203 29.6654H26.6654C28.3222 29.6654 29.6654 28.3222 29.6654 26.6654V3.33203C29.6654 1.67518 28.3222 0.332031 26.6654 0.332031Z" fill="#FFC600"/>
<path d="M4.17057 17.4479C4.17057 17.6621 4.09462 17.8391 3.94271 17.9789C3.7908 18.1186 3.58496 18.2075 3.3252 18.2455V18.2591C3.63054 18.2895 3.86448 18.3738 4.02702 18.5121C4.19108 18.6503 4.27311 18.8303 4.27311 19.0521C4.27311 19.3589 4.14854 19.6013 3.89942 19.779C3.6518 19.9567 3.30848 20.0456 2.86946 20.0456C2.38032 20.0456 1.98763 19.9856 1.6914 19.8655V19.2731C1.8342 19.3415 2.0013 19.3954 2.19271 19.4349C2.38564 19.4729 2.56565 19.4919 2.73275 19.4919C3.2933 19.4919 3.57357 19.3285 3.57357 19.0019C3.57357 18.8546 3.48318 18.7414 3.30241 18.6625C3.12316 18.5835 2.85732 18.5439 2.50488 18.5439H2.19271V17.9925H2.47298C2.82541 17.9925 3.08214 17.9591 3.24316 17.8923C3.40419 17.8254 3.4847 17.7145 3.4847 17.5596C3.4847 17.4457 3.43381 17.3553 3.33203 17.2884C3.23177 17.2201 3.08062 17.1859 2.87858 17.1859C2.56565 17.1859 2.26334 17.2763 1.97168 17.457L1.66406 16.9853C1.85395 16.8593 2.05523 16.7673 2.2679 16.7097C2.48058 16.6504 2.7168 16.6208 2.97656 16.6208C3.33963 16.6208 3.62902 16.6967 3.84472 16.8486C4.06196 17.0005 4.17057 17.2003 4.17057 17.4479ZM6.93458 20L6.69304 19.207H5.47852L5.23698 20H4.47591L5.65169 16.6549H6.5153L7.69564 20H6.93458ZM6.52442 18.6146C6.30111 17.8961 6.17502 17.4897 6.14616 17.3955C6.11882 17.3013 6.09907 17.2269 6.08692 17.1722C6.03678 17.3667 5.89323 17.8475 5.65625 18.6146H6.52442ZM12.3532 18.3297C12.3532 18.8812 12.2164 19.305 11.943 19.6013C11.6696 19.8975 11.2776 20.0456 10.7672 20.0456C10.2568 20.0456 9.86491 19.8975 9.59144 19.6013C9.31804 19.305 9.18131 18.8797 9.18131 18.3252C9.18131 17.7707 9.31804 17.3477 9.59144 17.056C9.86644 16.7628 10.2598 16.6162 10.7718 16.6162C11.2838 16.6162 11.6749 16.7635 11.9453 17.0583C12.2172 17.353 12.3532 17.7768 12.3532 18.3297ZM9.92184 18.3297C9.92184 18.7019 9.99251 18.9822 10.1338 19.1706C10.275 19.3589 10.4862 19.4531 10.7672 19.4531C11.3308 19.4531 11.6126 19.0787 11.6126 18.3297C11.6126 17.5793 11.3324 17.2041 10.7718 17.2041C10.4908 17.2041 10.2788 17.2991 10.136 17.4889C9.99324 17.6773 9.92184 17.9576 9.92184 18.3297ZM15.68 20H14.9759V17.2565H13.75V20H13.0436V16.6686H15.68V20ZM19.1572 20H18.4531V17.2565H17.6374L17.6009 17.5619C17.5067 18.3381 17.4232 18.8835 17.3502 19.1979C17.2788 19.5109 17.174 19.7311 17.0358 19.8587C16.8976 19.9863 16.7107 20.0486 16.4752 20.0456C16.3476 20.0456 16.2352 20.0289 16.138 19.9955V19.4167C16.2261 19.4471 16.3089 19.4623 16.3864 19.4623C16.4669 19.4623 16.5307 19.4258 16.5778 19.3529C16.6249 19.2784 16.669 19.1417 16.71 18.9427C16.7525 18.7422 16.8079 18.4148 16.8763 17.9606C16.9462 17.5049 17.0054 17.0742 17.054 16.6686H19.1572V20ZM22.0374 20L21.7959 19.207H20.5814L20.3398 20H19.5788L20.7546 16.6549H21.6182L22.7985 20H22.0374ZM21.6273 18.6146C21.404 17.8961 21.2779 17.4897 21.249 17.3955C21.2217 17.3013 21.2019 17.2269 21.1898 17.1722C21.1396 17.3667 20.9961 17.8475 20.7591 18.6146H21.6273ZM24.5052 20H23.7988V17.2565H22.8942V16.6686H25.4098V17.2565H24.5052V20ZM28.5498 16.6686L27.5198 19.0247C27.3907 19.3209 27.2692 19.5337 27.1552 19.6627C27.0428 19.7919 26.9092 19.8883 26.7542 19.9521C26.5993 20.0144 26.4109 20.0456 26.1891 20.0456C25.9992 20.0456 25.8222 20.0228 25.6582 19.9772V19.3711C25.7919 19.4258 25.9582 19.4531 26.1572 19.4531C26.2833 19.4531 26.3851 19.4243 26.4626 19.3665C26.54 19.3073 26.6046 19.2055 26.6562 19.0612L25.5032 16.6686H26.2506L27.071 18.5257H27.0938L27.1348 18.4118L27.8229 16.6686H28.5498ZM4.96452 26.6667H4.04785L2.66764 24.737V26.6667H1.86035V22.8594H2.66764V24.7031L4.03223 22.8594H4.8916L3.50358 24.6875L4.96452 26.6667ZM7.77444 26.6667L7.49838 25.7604H6.11035L5.83431 26.6667H4.96452L6.30827 22.8437H7.29524L8.64418 26.6667H7.77444ZM7.30564 25.0833C7.05044 24.2621 6.90638 23.7977 6.87338 23.6901C6.84211 23.5825 6.81958 23.4974 6.80564 23.4349C6.74838 23.6571 6.58431 24.2066 6.31348 25.0833H7.30564ZM9.93324 24.6511H10.1989C10.4472 24.6511 10.6329 24.6024 10.7562 24.5052C10.8794 24.4063 10.9411 24.263 10.9411 24.0755C10.9411 23.8863 10.889 23.7465 10.7848 23.6563C10.6824 23.566 10.5209 23.5208 10.3004 23.5208H9.93324V24.6511ZM11.7562 24.0469C11.7562 24.4566 11.6277 24.7699 11.3708 24.987C11.1156 25.204 10.7518 25.3125 10.2796 25.3125H9.93324V26.6667H9.12598V22.8594H10.3421C10.8039 22.8594 11.1546 22.9592 11.3942 23.1589C11.6355 23.3568 11.7562 23.6528 11.7562 24.0469ZM13.9437 26.6667H13.1364V23.5313H12.1025V22.8594H14.9775V23.5313H13.9437V26.6667ZM18.6676 26.6667H17.751L16.3708 24.737V26.6667H15.5635V22.8594H16.3708V24.7031L17.7354 22.8594H18.5947L17.2067 24.6875L18.6676 26.6667ZM22.6025 24.7578C22.6025 25.388 22.4463 25.8724 22.1338 26.2109C21.8213 26.5495 21.3734 26.7187 20.79 26.7187C20.2067 26.7187 19.7588 26.5495 19.4463 26.2109C19.1338 25.8724 18.9775 25.3863 18.9775 24.7526C18.9775 24.1189 19.1338 23.6354 19.4463 23.3021C19.7605 22.967 20.2102 22.7995 20.7952 22.7995C21.3803 22.7995 21.8274 22.9679 22.1364 23.3047C22.4472 23.6415 22.6025 24.1259 22.6025 24.7578ZM19.8239 24.7578C19.8239 25.1831 19.9046 25.5035 20.0661 25.7187C20.2275 25.934 20.4688 26.0417 20.79 26.0417C21.4341 26.0417 21.7562 25.6137 21.7562 24.7578C21.7562 23.9002 21.4358 23.4713 20.7952 23.4713C20.474 23.4713 20.2319 23.5799 20.0687 23.7969C19.9055 24.0121 19.8239 24.3325 19.8239 24.7578ZM28.3108 24.7578C28.3108 25.3828 28.1642 25.8663 27.8708 26.2083C27.5791 26.5486 27.1598 26.7187 26.613 26.7187C26.1112 26.7187 25.7162 26.5747 25.428 26.2865C25.1398 25.9965 24.9732 25.5755 24.928 25.0235H24.1989V26.6667H23.3916V22.8594H24.1989V24.3515H24.9437C25.0027 23.8498 25.1746 23.4661 25.4593 23.2005C25.7458 22.9331 26.132 22.7995 26.6182 22.7995C27.1668 22.7995 27.586 22.9696 27.876 23.3099C28.1659 23.6502 28.3108 24.1328 28.3108 24.7578ZM25.7562 24.7578C25.7562 25.1814 25.8291 25.5017 25.9749 25.7187C26.1208 25.934 26.3334 26.0417 26.613 26.0417C27.1894 26.0417 27.4775 25.6137 27.4775 24.7578C27.4775 24.3342 27.4055 24.0139 27.2614 23.7969C27.119 23.5799 26.9064 23.4713 26.6234 23.4713C26.3386 23.4713 26.1225 23.5799 25.9749 23.7969C25.8291 24.0139 25.7562 24.3342 25.7562 24.7578Z" fill="white"/>
<path d="M13.2904 7.33203C14.0846 7.33203 14.7118 7.55557 15.1719 8.00263C15.632 8.44963 15.862 9.0725 15.862 9.8711C15.862 10.5959 15.7057 11.2296 15.3932 11.7721C15.0851 12.3147 14.6337 12.7335 14.039 13.0286C13.4444 13.3194 12.7283 13.4648 11.8906 13.4648C11.3828 13.4648 10.9076 13.4149 10.4648 13.3151C10.0265 13.2153 9.67489 13.0894 9.41016 12.9375V11.1862C10.1654 11.6159 10.9292 11.8307 11.7018 11.8307C12.3702 11.8307 12.8932 11.6766 13.2708 11.3685C13.6484 11.0603 13.8372 10.6393 13.8372 10.1054C13.8372 9.6975 13.7114 9.3915 13.4596 9.1875C13.2122 8.9835 12.852 8.8815 12.3789 8.8815C11.9362 8.8815 11.474 8.9531 10.9922 9.09637L10.3151 8.58857L11.6628 3.81641H16.5781L16.22 5.52213H13.0364L12.4636 7.4297C12.776 7.36457 13.0516 7.33203 13.2904 7.33203ZM18.6016 8.3581C18.4375 8.3581 18.293 8.52603 18.168 8.86197C18.0456 9.1953 17.9844 9.55597 17.9844 9.94403C17.9844 10.194 18.0573 10.319 18.2031 10.319C18.3724 10.319 18.5182 10.1484 18.6406 9.8073C18.763 9.46617 18.8242 9.1081 18.8242 8.7331C18.8242 8.4831 18.75 8.3581 18.6016 8.3581ZM19.7852 8.78383C19.7852 9.21617 19.7122 9.61977 19.5664 9.99477C19.4206 10.3698 19.224 10.6524 18.9766 10.8424C18.7292 11.0326 18.4466 11.1276 18.1289 11.1276C17.7669 11.1276 17.4922 11.0195 17.3047 10.8034C17.1198 10.5846 17.0274 10.276 17.0274 9.87763C17.0274 9.4375 17.099 9.03257 17.2422 8.66277C17.388 8.29037 17.582 8.01043 17.8242 7.8229C18.0664 7.63543 18.3476 7.54163 18.668 7.54163C19.0248 7.54163 19.2995 7.64583 19.4922 7.85417C19.6875 8.0625 19.7852 8.37237 19.7852 8.78383ZM22.6484 7.6237L18.418 13.3346H17.4805L21.7305 7.6237H22.6484ZM21.9531 10.6393C21.8516 10.6393 21.7539 10.7122 21.6602 10.8581C21.5664 11.0039 21.4896 11.2044 21.4297 11.4596C21.3698 11.7148 21.3398 11.9688 21.3398 12.2214C21.3398 12.474 21.4114 12.6002 21.5547 12.6002C21.6614 12.6002 21.7617 12.5286 21.8555 12.3854C21.9492 12.2422 22.026 12.0416 22.086 11.7838C22.1484 11.5234 22.1797 11.2669 22.1797 11.0143C22.1797 10.7643 22.1042 10.6393 21.9531 10.6393ZM23.1367 11.03C23.1367 11.4648 23.0664 11.8737 22.9258 12.2565C22.7852 12.6367 22.5924 12.9232 22.3476 13.1159C22.1028 13.3086 21.8229 13.405 21.5078 13.405C21.1328 13.405 20.8502 13.3034 20.6602 13.1002C20.4726 12.8945 20.3789 12.6042 20.3789 12.2292C20.3789 11.7682 20.4479 11.349 20.586 10.9714C20.724 10.5912 20.9167 10.3047 21.164 10.112C21.4114 9.9193 21.6966 9.8229 22.0195 9.8229C22.3763 9.8229 22.651 9.92577 22.8438 10.1315C23.039 10.3346 23.1367 10.6341 23.1367 11.03Z" fill="white"/>
<path d="M6.44531 8.87434L6.66963 7.81641H8.88703L8.66276 8.87434H6.44531Z" fill="white"/>
</svg>
