<svg width="30" height="30" viewBox="0 0 30 30" fill="none" xmlns="http://www.w3.org/2000/svg">
<g clip-path="url(#clip0_1010_80816)">
<path d="M26.6654 0.332031H3.33203C1.67518 0.332031 0.332031 1.67518 0.332031 3.33203V26.6654C0.332031 28.3222 1.67518 29.6654 3.33203 29.6654H26.6654C28.3222 29.6654 29.6654 28.3222 29.6654 26.6654V3.33203C29.6654 1.67518 28.3222 0.332031 26.6654 0.332031Z" fill="#E0E0E0" fill-opacity="0.6" stroke="#E5E5E5"/>
<path d="M12.1209 9.26379C13.5648 8.26032 15.3775 7.81879 17.1119 8.06839C18.9815 8.31925 20.7323 9.35725 21.8616 10.8867C23.0869 12.5211 23.5985 14.6931 23.2007 16.7103C22.8773 18.4932 21.8768 20.1455 20.4342 21.2219C19.0687 22.2651 17.3254 22.7885 15.6201 22.6426C13.3248 22.5031 11.1773 21.1247 10 19.1344C12.0401 17.9249 14.0802 16.7115 16.1317 15.5225C14.8267 13.4171 13.4549 11.3513 12.1209 9.26379Z" fill="#FFCF00"/>
<path d="M7.0251 12.5416C7.52104 10.9646 8.57144 9.59384 9.9181 8.66797C11.2927 10.7595 12.6114 12.8872 14.0013 14.9671C11.8968 16.1973 9.79217 17.4275 7.69397 18.668C6.61818 16.8485 6.37656 14.5558 7.0251 12.5416Z" fill="#F2994A"/>
<path d="M19.2031 23.335H17.557L18.2933 19.9538C18.3722 19.5814 18.4795 19.2203 18.6149 18.8704C18.3948 19.0623 18.21 19.2076 18.0605 19.3063L17.2015 19.8353L16.5625 18.7689L19.1862 17.1481H20.5022L19.2031 23.335ZM25.5623 19.1752C25.5623 20.0158 25.4424 20.7634 25.2026 21.418C24.9628 22.0697 24.6314 22.5662 24.2082 22.9076C23.785 23.2489 23.2941 23.4196 22.7355 23.4196C22.143 23.4196 21.6945 23.2419 21.3898 22.8864C21.0851 22.5309 20.9328 22.0245 20.9328 21.3672C20.9328 20.535 21.0527 19.7831 21.2925 19.1116C21.5323 18.4374 21.8638 17.9254 22.287 17.5755C22.7101 17.2257 23.201 17.0508 23.7596 17.0508C24.1404 17.0508 24.4649 17.1396 24.7329 17.3174C25.0037 17.4923 25.2097 17.7378 25.3508 18.0537C25.4918 18.3697 25.5623 18.7435 25.5623 19.1752ZM23.5692 18.388C23.414 18.388 23.2588 18.5446 23.1036 18.8578C22.9485 19.1709 22.823 19.5687 22.727 20.0511C22.6311 20.5336 22.5832 20.9835 22.5832 21.401C22.5832 21.638 22.6043 21.8115 22.6466 21.9216C22.689 22.0316 22.7736 22.0866 22.9006 22.0866C23.0642 22.0866 23.2208 21.954 23.3703 21.6888C23.5226 21.4208 23.651 21.0456 23.7554 20.5632C23.8626 20.0808 23.9162 19.6068 23.9162 19.1413C23.9162 18.9015 23.8894 18.7167 23.8358 18.5869C23.785 18.4543 23.6961 18.388 23.5692 18.388Z" fill="#071D49"/>
</g>
<defs>
<clipPath id="clip0_1010_80816">
<rect width="30" height="30" fill="white"/>
</clipPath>
</defs>
</svg>
