<svg width="30" height="30" viewBox="0 0 30 30" fill="none" xmlns="http://www.w3.org/2000/svg">
<g clip-path="url(#clip0_1010_80803)">
<path d="M26.6654 0.332031H3.33203C1.67518 0.332031 0.332031 1.67518 0.332031 3.33203V26.6654C0.332031 28.3222 1.67518 29.6654 3.33203 29.6654H26.6654C28.3222 29.6654 29.6654 28.3222 29.6654 26.6654V3.33203C29.6654 1.67518 28.3222 0.332031 26.6654 0.332031Z" fill="#E0E0E0" fill-opacity="0.6" stroke="#E5E5E5"/>
<path d="M23.4073 7.0051C23.1562 6.9185 23.0778 6.8673 23.0778 6.7737C23.0778 6.6695 23.165 6.60765 23.32 6.60765C23.4464 6.60765 23.5729 6.64298 23.6673 6.6801L23.7083 6.22789C23.5925 6.1961 23.4518 6.17137 23.2986 6.17137C22.7928 6.17137 22.4669 6.45752 22.4669 6.83377C22.4633 7.07397 22.6254 7.30183 23.0475 7.4431C23.2862 7.52263 23.3485 7.57203 23.3485 7.6745C23.3485 7.7787 23.2684 7.8441 23.076 7.8441C22.889 7.8441 22.6468 7.76103 22.5292 7.69043L22.417 8.14257C22.572 8.22557 22.8088 8.2839 23.0778 8.2839C23.6638 8.2839 23.963 8.00657 23.963 7.62857C23.9594 7.33183 23.7973 7.13757 23.4073 7.0051ZM24.9443 7.77164C24.752 7.77164 24.6932 7.66037 24.6932 7.41484V5.66797L24.0716 5.80928V6.2173H23.8347L23.792 6.68183H24.0734V7.5085C24.0734 7.79464 24.1322 7.9889 24.2497 8.10903C24.3494 8.21323 24.5204 8.2839 24.7252 8.2839C24.9052 8.2839 25.0548 8.2627 25.1384 8.2291L25.1349 7.75223C25.0868 7.76103 25.0245 7.7699 24.9443 7.77164ZM24.743 6.68183H25.1331V6.2173H24.743V6.68183ZM17.6884 7.2665C17.6759 6.95564 17.6652 6.58116 17.6652 6.20493H17.6527C17.569 6.53523 17.455 6.90264 17.35 7.20464L17.0187 8.21323H16.5414L16.251 7.2117C16.162 6.9079 16.0694 6.54053 16.0053 6.20316H15.9982C15.9821 6.55113 15.9696 6.9503 15.95 7.27357L15.902 8.25384H15.332L15.5048 5.66974H16.3223L16.5877 6.5317C16.6714 6.83024 16.7569 7.15344 16.8174 7.4555H16.8299C16.9065 7.15697 16.9991 6.8143 17.0882 6.52817L17.3784 5.66974H18.1799L18.3295 8.25384H17.7293L17.6884 7.2665ZM21.0528 7.43077C21.0741 7.69217 21.3324 7.81583 21.6298 7.81583C21.8471 7.81583 22.0216 7.78757 22.1944 7.73277L22.2781 8.16024C22.0697 8.24324 21.815 8.2839 21.539 8.2839C20.8462 8.2839 20.449 7.88644 20.449 7.25237C20.449 6.73837 20.7714 6.17137 21.4802 6.17137C22.141 6.17137 22.3903 6.6801 22.3903 7.1817C22.3903 7.28944 22.3778 7.38484 22.369 7.43077H21.0528ZM21.8008 6.99977C21.8008 6.8461 21.7331 6.58999 21.441 6.58999C21.1738 6.58999 21.0652 6.83023 21.0492 6.99977H21.8008Z" fill="#0862AF"/>
<path d="M25.5657 5.6732L25.9967 6.45038L25.5657 7.23108H25.1293L25.5603 6.45038L25.1293 5.6732H25.5657C25.5657 5.67143 25.5657 5.67143 25.5657 5.6732ZM20.2421 9.02035H18.4931V8.58941H20.2421V9.02035ZM19.0061 7.43068C19.0275 7.69208 19.2857 7.81575 19.5831 7.81575C19.8005 7.81575 19.975 7.78748 20.1477 7.73275L20.2315 8.16015C20.0231 8.24321 19.7684 8.28381 19.4923 8.28381C18.7995 8.28381 18.4023 7.88641 18.4023 7.25228C18.4023 6.73828 18.7247 6.17131 19.4335 6.17131C20.0943 6.17131 20.3437 6.68001 20.3437 7.18161C20.3437 7.28941 20.3312 7.38475 20.3223 7.43068H19.0061ZM19.7541 6.99968C19.7541 6.84601 19.6865 6.58992 19.3944 6.58992C19.1272 6.58992 19.0186 6.83015 19.0007 6.99968H19.7541Z" fill="#ED1C24"/>
<path d="M7.95312 2.94626C8.80732 2.63129 9.67219 2.34701 10.5143 2C10.3822 2.43776 10.2835 2.94493 9.87639 3.21853C9.30646 3.6296 8.59112 3.74705 7.95312 4.02065C7.95446 3.66297 7.95446 3.30395 7.95312 2.94626Z" fill="#0101EF"/>
<path d="M7.95312 4.27998C8.63779 4.03308 9.31853 3.77282 10.0045 3.53125C9.91373 3.84222 9.87106 4.18923 9.64546 4.44148C9.21573 4.94864 8.53906 5.09412 7.95446 5.3477C7.95446 4.99135 7.95446 4.63634 7.95312 4.27998Z" fill="#0101EF"/>
<path d="M8.06312 5.89063C8.63165 5.89063 9.20152 5.89062 9.77012 5.89329C9.76345 7.57093 9.78345 9.2486 9.76212 10.9263C9.76212 11.5922 9.29898 12.1901 8.69038 12.4264C8.07512 12.708 7.38645 12.6666 6.72845 12.6653C6.72711 12.2475 6.72578 11.8285 6.72711 11.4107C7.28898 11.4614 8.02572 11.1918 8.05645 10.5419C8.06978 8.99233 8.05505 7.44146 8.06312 5.89063Z" fill="#0101EF"/>
<path d="M1.63672 19.3884H1.90524C2.13495 18.9289 2.31634 18.4703 2.44941 18.0125C2.58249 17.5531 2.6815 17.058 2.74645 16.5273H4.77106V19.3884H5.23444V21.0138H4.52393V20.0015H2.34723V21.0138H1.63672V19.3884ZM3.33102 17.1404C3.28033 17.5032 3.19557 17.8873 3.07675 18.2929C2.95953 18.6985 2.82725 19.0636 2.67991 19.3884H4.03678V17.1404H3.33102ZM8.92484 18.2597C8.92484 18.8347 8.78224 19.2767 8.49711 19.5856C8.21197 19.8945 7.80324 20.049 7.27091 20.049C6.73864 20.049 6.32991 19.8945 6.04476 19.5856C5.7596 19.2767 5.61703 18.8331 5.61703 18.2549C5.61703 17.6767 5.7596 17.2355 6.04476 16.9313C6.3315 16.6255 6.74177 16.4727 7.27571 16.4727C7.80957 16.4727 8.21751 16.6263 8.49951 16.9337C8.78304 17.241 8.92484 17.683 8.92484 18.2597ZM6.38932 18.2597C6.38932 18.6477 6.46299 18.9401 6.61032 19.1365C6.75764 19.3329 6.97784 19.4311 7.27091 19.4311C7.85864 19.4311 8.15251 19.0407 8.15251 18.2597C8.15251 17.4771 7.86024 17.0857 7.27571 17.0857C6.98257 17.0857 6.76164 17.1847 6.61269 17.3828C6.46378 17.5792 6.38932 17.8715 6.38932 18.2597ZM11.1205 17.0905C10.8433 17.0905 10.6286 17.1951 10.4766 17.4042C10.3245 17.6117 10.2484 17.9016 10.2484 18.2739C10.2484 19.0486 10.5391 19.4359 11.1205 19.4359C11.3645 19.4359 11.66 19.3749 12.0069 19.2529V19.8708C11.7218 19.9896 11.4033 20.049 11.0516 20.049C10.5462 20.049 10.1597 19.8961 9.89197 19.5903C9.62424 19.283 9.49037 18.8426 9.49037 18.2691C9.49037 17.9079 9.55617 17.5919 9.68764 17.321C9.81911 17.0485 10.0076 16.8402 10.2532 16.696C10.5003 16.5503 10.7894 16.4774 11.1205 16.4774C11.458 16.4774 11.797 16.559 12.1376 16.7222L11.9 17.321C11.77 17.2592 11.6394 17.2053 11.5079 17.1594C11.3764 17.1135 11.2473 17.0905 11.1205 17.0905ZM14.0886 20.0015H13.3519V17.1404H12.4085V16.5273H15.0319V17.1404H14.0886V20.0015ZM17.6934 20.0015L17.4415 19.1745H16.1749L15.923 20.0015H15.1294L16.3555 16.5131H17.2562L18.4871 20.0015H17.6934ZM17.2656 18.5567C17.0328 17.8073 16.9013 17.3836 16.8712 17.2853C16.8427 17.1871 16.8221 17.1095 16.8094 17.0525C16.7571 17.2553 16.6074 17.7567 16.3603 18.5567H17.2656ZM18.9267 16.5273H20.0079C20.5006 16.5273 20.8578 16.5978 21.0796 16.7388C21.303 16.8782 21.4147 17.1008 21.4147 17.4065C21.4147 17.6141 21.3656 17.7844 21.2674 17.9175C21.1707 18.0505 21.0416 18.1305 20.88 18.1575V18.1812C21.1002 18.2303 21.2586 18.3222 21.3552 18.4569C21.4535 18.5915 21.5026 18.7705 21.5026 18.9939C21.5026 19.3107 21.3878 19.5579 21.158 19.7353C20.9299 19.9127 20.6194 20.0015 20.2265 20.0015H18.9267V16.5273ZM19.6634 17.9032H20.0911C20.2907 17.9032 20.4348 17.8723 20.5236 17.8105C20.6138 17.7487 20.659 17.6465 20.659 17.504C20.659 17.3709 20.6099 17.2759 20.5117 17.2188C20.415 17.1602 20.2614 17.1309 20.0507 17.1309H19.6634V17.9032ZM19.6634 18.4877V19.3931H20.1434C20.3461 19.3931 20.4958 19.3543 20.5925 19.2767C20.6891 19.1991 20.7374 19.0803 20.7374 18.9203C20.7374 18.6319 20.5315 18.4877 20.1196 18.4877H19.6634ZM25.029 20.0015H24.1926L22.9331 18.2406V20.0015H22.1965V16.5273H22.9331V18.2097L24.1783 16.5273H24.9625L23.6959 18.1955L25.029 20.0015ZM27.593 20.0015L27.3412 19.1745H26.0746L25.8227 20.0015H25.029L26.2552 16.5131H27.1558L28.3868 20.0015H27.593ZM27.1653 18.5567C26.9324 17.8073 26.801 17.3836 26.7708 17.2853C26.7424 17.1871 26.7218 17.1095 26.7091 17.0525C26.6568 17.2553 26.5071 17.7567 26.26 18.5567H27.1653ZM5.34479 24.0535C5.34479 24.3289 5.24713 24.5565 5.05182 24.7362C4.85651 24.9159 4.59186 25.0301 4.25787 25.0789V25.0965C4.65045 25.1356 4.95123 25.244 5.16022 25.4217C5.37116 25.5995 5.47663 25.8309 5.47663 26.1161C5.47663 26.5106 5.31647 26.8221 4.99616 27.0506C4.6778 27.2791 4.23639 27.3934 3.67194 27.3934C3.04303 27.3934 2.53815 27.3163 2.15729 27.1619V26.4002C2.34089 26.4881 2.55573 26.5575 2.80182 26.6083C3.04987 26.6571 3.28131 26.6815 3.49616 26.6815C4.21686 26.6815 4.57721 26.4715 4.57721 26.0516C4.57721 25.8621 4.461 25.7167 4.22858 25.6151C3.99811 25.5135 3.65631 25.4627 3.20319 25.4627H2.80182V24.7537H3.16217C3.6153 24.7537 3.94537 24.7108 4.15241 24.6249C4.35944 24.5389 4.46295 24.3963 4.46295 24.1971C4.46295 24.0506 4.39753 23.9344 4.26667 23.8485C4.13776 23.7606 3.94342 23.7167 3.68366 23.7167C3.28131 23.7167 2.89264 23.8329 2.51764 24.0653L2.12213 23.4588C2.36627 23.2967 2.62507 23.1785 2.8985 23.1043C3.17194 23.0281 3.47565 22.9901 3.80963 22.9901C4.27643 22.9901 4.6485 23.0877 4.92585 23.2831C5.20514 23.4783 5.34479 23.7352 5.34479 24.0535ZM8.89851 27.3348L8.58797 26.3153H7.02644L6.71591 27.3348H5.73737L7.24911 23.034H8.35944L9.87704 27.3348H8.89851ZM8.37117 25.5535C8.08404 24.6297 7.92191 24.1073 7.88484 23.9862C7.84964 23.8651 7.82431 23.7694 7.80864 23.6991C7.74417 23.9491 7.55964 24.5672 7.25497 25.5535H8.37117ZM13.917 27.3348H13.0118V24.8563L13.0206 24.4491L13.0352 24.0037C12.8848 24.1541 12.7803 24.2528 12.7218 24.2997L12.2296 24.6951L11.793 24.1502L13.1729 23.0516H13.917V27.3348ZM19.671 23.0516V23.8016H17.8721V27.3348H16.9639V23.0516H19.671ZM21.2413 25.0672H21.5401C21.8194 25.0672 22.0284 25.0125 22.167 24.9031C22.3057 24.7918 22.375 24.6307 22.375 24.4197C22.375 24.2069 22.3164 24.0497 22.1993 23.9481C22.084 23.8465 21.9024 23.7957 21.6544 23.7957H21.2413V25.0672ZM23.292 24.3875C23.292 24.8485 23.1475 25.201 22.8584 25.4451C22.5714 25.6893 22.1622 25.8113 21.6309 25.8113H21.2413V27.3348H20.333V23.0516H21.7012C22.2208 23.0516 22.6153 23.1639 22.8848 23.3885C23.1563 23.6112 23.292 23.9442 23.292 24.3875ZM27.6104 27.3348H26.7052V25.4862H25.0088V27.3348H24.1006V23.0516H25.0088V24.7303H26.7052V23.0516H27.6104V27.3348Z" fill="#071D49"/>
</g>
<defs>
<clipPath id="clip0_1010_80803">
<rect width="30" height="30" fill="white"/>
</clipPath>
</defs>
</svg>
