<svg width="30" height="30" viewBox="0 0 30 30" fill="none" xmlns="http://www.w3.org/2000/svg">
<g clip-path="url(#clip0_1010_80812)">
<path d="M26.6654 0.332031H3.33203C1.67518 0.332031 0.332031 1.67518 0.332031 3.33203V26.6654C0.332031 28.3222 1.67518 29.6654 3.33203 29.6654H26.6654C28.3222 29.6654 29.6654 28.3222 29.6654 26.6654V3.33203C29.6654 1.67518 28.3222 0.332031 26.6654 0.332031Z" fill="#E0E0E0" fill-opacity="0.6" stroke="#E5E5E5"/>
<path d="M13.5957 23.334H7.70703L8.01756 21.834L10.8477 19.2793C11.8164 18.416 12.3008 17.7109 12.3008 17.1641C12.3008 16.9727 12.25 16.8301 12.1484 16.7363C12.0469 16.6387 11.918 16.5899 11.7617 16.5899C11.293 16.5899 10.7442 16.877 10.1152 17.4512L9.02543 15.9395C9.93943 15.0762 10.9961 14.6445 12.1953 14.6445C12.9102 14.6445 13.4864 14.8399 13.9238 15.2305C14.3614 15.6172 14.5801 16.1426 14.5801 16.8067C14.5801 17.4004 14.4102 17.9571 14.0703 18.4766C13.7305 18.9961 13.1484 19.6113 12.3242 20.3223L11.123 21.3535V21.4239H13.9942L13.5957 23.334ZM18.8398 17.7207C19.5469 17.7207 20.1192 17.9512 20.5566 18.4121C20.998 18.8691 21.2188 19.4863 21.2188 20.2637C21.2188 21.2832 20.9043 22.0703 20.2754 22.625C19.6465 23.1758 18.7364 23.4512 17.545 23.4512C17.041 23.4512 16.5625 23.4082 16.1094 23.3223C15.6602 23.2363 15.3301 23.1172 15.1192 22.9649V21.0664C15.4278 21.2422 15.7812 21.3809 16.1797 21.4825C16.5782 21.5801 16.9375 21.6289 17.2578 21.6289C18.3398 21.6289 18.8809 21.2539 18.8809 20.5039C18.8809 20.2071 18.7812 19.9668 18.582 19.7832C18.3867 19.5996 18.1211 19.5078 17.7852 19.5078C17.5782 19.5078 17.3614 19.5273 17.1348 19.5664C16.9082 19.6055 16.7285 19.6485 16.5957 19.6953L15.8809 19.1563L17.1406 14.7676H21.9043L21.5059 16.6602H18.7461L18.4004 17.7441C18.5371 17.7285 18.6836 17.7207 18.8398 17.7207Z" fill="#FFC600"/>
<path d="M7.39582 11.3343H6.42188L4.9554 9.28406V11.3343H4.09766V7.28906H4.9554V9.24806L6.40528 7.28906H7.31835L5.84359 9.23146L7.39582 11.3343ZM8.76268 9.19273H9.04495C9.30868 9.19273 9.50608 9.14106 9.63702 9.0378C9.76802 8.93266 9.83348 8.78046 9.83348 8.58126C9.83348 8.3802 9.77815 8.23166 9.66748 8.13573C9.55862 8.03986 9.38708 7.99186 9.15282 7.99186H8.76268V9.19273ZM10.6995 8.5508C10.6995 8.98613 10.563 9.31906 10.29 9.54966C10.0189 9.78026 9.63242 9.89553 9.13068 9.89553H8.76268V11.3343H7.90495V7.28906H9.19708C9.68775 7.28906 10.0604 7.39513 10.3149 7.60726C10.5713 7.8176 10.6995 8.13206 10.6995 8.5508ZM13.7929 11.3343H11.4632V7.28906H13.7929V7.99186H12.3209V8.88006H13.6906V9.58286H12.3209V10.626H13.7929V11.3343ZM14.1582 10.6205H14.4709C14.7383 10.0855 14.9495 9.55153 15.1045 9.0184C15.2594 8.48346 15.3747 7.907 15.4503 7.28906H17.8077V10.6205H18.3473V12.5131H17.52V11.3343H14.9855V12.5131H14.1582V10.6205ZM16.131 8.00293C16.072 8.4254 15.9733 8.87266 15.835 9.34493C15.6985 9.81713 15.5444 10.2423 15.3729 10.6205H16.9528V8.00293H16.131ZM18.9727 7.28906H19.7446V9.24253L19.7335 9.76546L19.7059 10.3604H19.7225L21.5901 7.28906H22.6167V11.3343H21.853V9.39193C21.853 9.13186 21.8696 8.74633 21.9028 8.2354H21.8807L20.0047 11.3343H18.9727V7.28906ZM25.1982 11.3343H24.3405V8.00293H23.242V7.28906H26.2967V8.00293H25.1982V11.3343Z" fill="#071D49"/>
</g>
<defs>
<clipPath id="clip0_1010_80812">
<rect width="30" height="30" fill="white"/>
</clipPath>
</defs>
</svg>
