<svg width="50" height="33" viewBox="0 0 50 33" fill="none" xmlns="http://www.w3.org/2000/svg">
<rect y="0.944336" width="50" height="32" rx="3" fill="#0F3560"/>
<path d="M29.3644 24.8097H20.6152V9.08594H29.3644V24.8097Z" fill="#FF5F00"/>
<path d="M21.1757 16.9463C21.1757 13.7566 22.6692 10.9154 24.9948 9.08438C23.2941 7.74545 21.1478 6.94629 18.8151 6.94629C13.2929 6.94629 8.81641 11.4234 8.81641 16.9463C8.81641 22.4692 13.2929 26.9463 18.8151 26.9463C21.1478 26.9463 23.2941 26.1471 24.9948 24.8082C22.6692 22.9772 21.1757 20.1359 21.1757 16.9463Z" fill="#EB001B"/>
<path d="M41.1634 16.9463C41.1634 22.4692 36.687 26.9463 31.1647 26.9463C28.832 26.9463 26.6857 26.1471 24.9844 24.8082C27.3107 22.9772 28.8041 20.1359 28.8041 16.9463C28.8041 13.7566 27.3107 10.9154 24.9844 9.08438C26.6857 7.74545 28.832 6.94629 31.1647 6.94629C36.687 6.94629 41.1634 11.4234 41.1634 16.9463Z" fill="#F79E1B"/>
<path d="M16.3408 17.0094C16.3408 16.5726 16.627 16.2138 17.0948 16.2138C17.5417 16.2138 17.8434 16.5571 17.8434 17.0094C17.8434 17.4617 17.5417 17.8051 17.0948 17.8051C16.627 17.8051 16.3408 17.4462 16.3408 17.0094ZM18.3528 17.0094V15.7669H17.8125V16.0686C17.6411 15.8448 17.381 15.7044 17.0275 15.7044C16.3307 15.7044 15.7844 16.2507 15.7844 17.0094C15.7844 17.7688 16.3307 18.3145 17.0275 18.3145C17.381 18.3145 17.6411 18.174 17.8125 17.9503V18.252H18.3528V17.0094ZM36.6126 17.0094C36.6126 16.5726 36.8988 16.2138 37.3666 16.2138C37.8141 16.2138 38.1152 16.5571 38.1152 17.0094C38.1152 17.4617 37.8141 17.8051 37.3666 17.8051C36.8988 17.8051 36.6126 17.4462 36.6126 17.0094ZM38.6252 17.0094V14.7689H38.0843V16.0686C37.9129 15.8448 37.6528 15.7044 37.2993 15.7044C36.6025 15.7044 36.0562 16.2507 36.0562 17.0094C36.0562 17.7688 36.6025 18.3145 37.2993 18.3145C37.6528 18.3145 37.9129 18.174 38.0843 17.9503V18.252H38.6252V17.0094ZM25.0601 16.1882C25.4082 16.1882 25.632 16.4066 25.6891 16.791H24.3995C24.4573 16.4322 24.6751 16.1882 25.0601 16.1882ZM25.0708 15.7044C24.3424 15.7044 23.833 16.2346 23.833 17.0094C23.833 17.7997 24.3632 18.3145 25.1071 18.3145C25.4814 18.3145 25.8242 18.221 26.1259 17.9663L25.8611 17.5658C25.6528 17.7319 25.3874 17.8259 25.138 17.8259C24.7899 17.8259 24.4727 17.6646 24.3948 17.2171H26.2401C26.2455 17.1499 26.2509 17.082 26.2509 17.0094C26.2455 16.2346 25.767 15.7044 25.0708 15.7044ZM31.5954 17.0094C31.5954 16.5726 31.8816 16.2138 32.3494 16.2138C32.7963 16.2138 33.098 16.5571 33.098 17.0094C33.098 17.4617 32.7963 17.8051 32.3494 17.8051C31.8816 17.8051 31.5954 17.4462 31.5954 17.0094ZM33.6074 17.0094V15.7669H33.067V16.0686C32.8951 15.8448 32.6356 15.7044 32.2821 15.7044C31.5853 15.7044 31.039 16.2507 31.039 17.0094C31.039 17.7688 31.5853 18.3145 32.2821 18.3145C32.6356 18.3145 32.8951 18.174 33.067 17.9503V18.252H33.6074V17.0094ZM28.5437 17.0094C28.5437 17.7634 29.0686 18.3145 29.8696 18.3145C30.2439 18.3145 30.4933 18.2311 30.7634 18.0181L30.504 17.5813C30.3011 17.7271 30.088 17.8051 29.8535 17.8051C29.4221 17.7997 29.1049 17.4879 29.1049 17.0094C29.1049 16.531 29.4221 16.2191 29.8535 16.2138C30.088 16.2138 30.3011 16.2917 30.504 16.4375L30.7634 16.0007C30.4933 15.7877 30.2439 15.7044 29.8696 15.7044C29.0686 15.7044 28.5437 16.2554 28.5437 17.0094ZM35.5105 15.7044C35.1987 15.7044 34.9957 15.8502 34.8553 16.0686V15.7669H34.3197V18.252H34.8606V16.8589C34.8606 16.4477 35.0374 16.2191 35.3909 16.2191C35.5004 16.2191 35.6146 16.2346 35.7289 16.2816L35.8955 15.7722C35.7759 15.7252 35.62 15.7044 35.5105 15.7044ZM21.0254 15.9644C20.7653 15.793 20.4071 15.7044 20.0119 15.7044C19.3823 15.7044 18.9771 16.0061 18.9771 16.5C18.9771 16.9053 19.2788 17.1552 19.8346 17.2332L20.0899 17.2695C20.3862 17.3111 20.5261 17.3891 20.5261 17.5295C20.5261 17.7217 20.3285 17.8312 19.9595 17.8312C19.5852 17.8312 19.3151 17.7116 19.133 17.5712L18.8783 17.9919C19.1746 18.2103 19.5489 18.3145 19.9542 18.3145C20.6719 18.3145 21.0878 17.9764 21.0878 17.5033C21.0878 17.0665 20.7605 16.838 20.2196 16.7601L19.9649 16.7232C19.731 16.6922 19.5436 16.6458 19.5436 16.4792C19.5436 16.2971 19.7203 16.1882 20.0167 16.1882C20.3339 16.1882 20.6409 16.3078 20.7915 16.4012L21.0254 15.9644ZM27.9975 15.7044C27.6856 15.7044 27.4827 15.8502 27.3428 16.0686V15.7669H26.8073V18.252H27.3476V16.8589C27.3476 16.4477 27.5244 16.2191 27.8778 16.2191C27.9873 16.2191 28.1016 16.2346 28.2158 16.2816L28.3825 15.7722C28.2629 15.7252 28.1069 15.7044 27.9975 15.7044ZM23.3861 15.7669H22.5024V15.0129H21.9561V15.7669H21.452V16.2608H21.9561V17.3944C21.9561 17.9711 22.1798 18.3145 22.819 18.3145C23.0534 18.3145 23.3236 18.2419 23.495 18.1222L23.3391 17.6593C23.1778 17.7527 23.0011 17.7997 22.8606 17.7997C22.5904 17.7997 22.5024 17.6331 22.5024 17.3837V16.2608H23.3861V15.7669ZM15.3065 18.252V16.6922C15.3065 16.1049 14.9322 15.7097 14.3288 15.7044C14.0116 15.699 13.6843 15.7978 13.4552 16.1465C13.2838 15.871 13.0136 15.7044 12.634 15.7044C12.3686 15.7044 12.1091 15.7823 11.9062 16.0733V15.7669H11.3652V18.252H11.9109V16.8743C11.9109 16.4429 12.1502 16.2138 12.5197 16.2138C12.8786 16.2138 13.0601 16.4477 13.0601 16.869V18.252H13.6063V16.8743C13.6063 16.4429 13.8557 16.2138 14.2145 16.2138C14.5835 16.2138 14.7602 16.4477 14.7602 16.869V18.252H15.3065Z" fill="white"/>
</svg>
