<svg width="50" height="33" viewBox="0 0 50 33" fill="none" xmlns="http://www.w3.org/2000/svg">
<rect y="0.944336" width="50" height="32" rx="3" fill="#082069"/>
<path d="M14.8735 21.8447H12.8008C12.659 21.8447 12.5384 21.9478 12.5162 22.0878L11.678 27.4027C11.6613 27.5076 11.7425 27.6021 11.8489 27.6021H12.8384C12.9802 27.6021 13.1009 27.4991 13.123 27.3588L13.3491 25.9253C13.3709 25.7849 13.4918 25.6819 13.6334 25.6819H14.2895C15.6548 25.6819 16.4428 25.0212 16.6486 23.7119C16.7413 23.1391 16.6525 22.6891 16.3843 22.3739C16.0897 22.0278 15.5672 21.8447 14.8735 21.8447ZM15.1126 23.7859C14.9993 24.5296 14.431 24.5296 13.8816 24.5296H13.5688L13.7882 23.1407C13.8013 23.0567 13.874 22.9949 13.9589 22.9949H14.1022C14.4765 22.9949 14.8296 22.9949 15.012 23.2082C15.1208 23.3355 15.1542 23.5246 15.1126 23.7859Z" fill="white"/>
<path d="M21.0695 23.7613H20.077C19.9924 23.7613 19.9194 23.8231 19.9064 23.9071L19.8624 24.1847L19.793 24.0841C19.5781 23.7722 19.099 23.668 18.6207 23.668C17.5239 23.668 16.5871 24.4987 16.4047 25.664C16.3098 26.2453 16.4447 26.8011 16.7744 27.1887C17.0769 27.5451 17.5097 27.6936 18.0246 27.6936C18.9083 27.6936 19.3984 27.1254 19.3984 27.1254L19.3542 27.4012C19.3375 27.5066 19.4187 27.6012 19.5245 27.6012H20.4185C20.5607 27.6012 20.6807 27.4982 20.7031 27.3578L21.2396 23.9607C21.2565 23.8562 21.1756 23.7613 21.0695 23.7613ZM19.686 25.6931C19.5903 26.2601 19.1402 26.6408 18.5662 26.6408C18.278 26.6408 18.0476 26.5483 17.8997 26.3732C17.753 26.1992 17.6973 25.9516 17.744 25.6758C17.8334 25.1136 18.291 24.7205 18.8562 24.7205C19.1381 24.7205 19.3672 24.8142 19.5181 24.9909C19.6694 25.1694 19.7294 25.4185 19.686 25.6931Z" fill="white"/>
<path d="M26.3549 23.7617H25.3575C25.2623 23.7617 25.1729 23.809 25.119 23.8881L23.7433 25.9144L23.1602 23.9672C23.1236 23.8454 23.0111 23.7617 22.8838 23.7617H21.9037C21.7846 23.7617 21.7019 23.8781 21.7397 23.9902L22.8384 27.2143L21.8055 28.6724C21.7243 28.7872 21.8061 28.9451 21.9464 28.9451H22.9426C23.0372 28.9451 23.1257 28.899 23.1793 28.8215L26.4967 24.033C26.5761 23.9184 26.4946 23.7617 26.3549 23.7617Z" fill="white"/>
<path d="M29.6587 21.8438H27.5857C27.4442 21.8438 27.3235 21.9468 27.3014 22.0868L26.4631 27.4017C26.4464 27.5066 26.5277 27.6012 26.6334 27.6012H27.6972C27.796 27.6012 27.8806 27.529 27.896 27.4308L28.1339 25.9243C28.1558 25.784 28.2767 25.6809 28.4182 25.6809H29.0741C30.4397 25.6809 31.2274 25.0202 31.4335 23.711C31.5265 23.1382 31.4371 22.6881 31.1689 22.3729C30.8746 22.0268 30.3524 21.8438 29.6587 21.8438ZM29.8978 23.7849C29.7848 24.5286 29.2165 24.5286 28.6667 24.5286H28.3543L28.574 23.1397C28.587 23.0557 28.6592 22.9939 28.7443 22.9939H28.8877C29.2617 22.9939 29.615 22.9939 29.7975 23.2073C29.9063 23.3345 29.9393 23.5237 29.8978 23.7849Z" fill="white"/>
<path d="M35.8534 23.7613H34.8615C34.7763 23.7613 34.7039 23.8231 34.6911 23.9071L34.6472 24.1847L34.5775 24.0841C34.3626 23.7722 33.8838 23.668 33.4055 23.668C32.3087 23.668 31.3722 24.4987 31.1898 25.664C31.0952 26.2453 31.2295 26.8011 31.5592 27.1887C31.8623 27.5451 32.2945 27.6936 32.8094 27.6936C33.6931 27.6936 34.1832 27.1254 34.1832 27.1254L34.1389 27.4012C34.1223 27.5066 34.2035 27.6012 34.3099 27.6012H35.2036C35.3452 27.6012 35.4658 27.4982 35.4879 27.3578L36.0246 23.9607C36.041 23.8562 35.9598 23.7613 35.8534 23.7613ZM34.4699 25.6931C34.3747 26.2601 33.9241 26.6408 33.35 26.6408C33.0624 26.6408 32.8315 26.5483 32.6836 26.3732C32.5369 26.1992 32.4817 25.9516 32.5278 25.6758C32.6178 25.1136 33.0749 24.7205 33.6401 24.7205C33.9219 24.7205 34.1511 24.8142 34.302 24.9909C34.4538 25.1694 34.5138 25.4185 34.4699 25.6931Z" fill="white"/>
<path d="M37.0248 21.9898L36.1741 27.402C36.1574 27.5069 36.2386 27.6015 36.3444 27.6015H37.1996C37.3418 27.6015 37.4624 27.4984 37.4842 27.3581L38.3231 22.0435C38.3398 21.9386 38.2586 21.8438 38.1528 21.8438H37.1951C37.1105 21.8441 37.0378 21.9059 37.0248 21.9898Z" fill="white"/>
<path opacity="0.68" d="M30.116 8.36815C30.2805 7.31976 30.1149 6.60656 29.5479 5.96034C28.9237 5.24905 27.7959 4.94434 26.3531 4.94434H22.1647C21.8699 4.94434 21.6187 5.15887 21.5728 5.45028L19.8287 16.5096C19.7943 16.7278 19.963 16.9251 20.1838 16.9251H22.7695L22.591 18.0568C22.561 18.2477 22.7084 18.4203 22.9016 18.4203H25.0812C25.3391 18.4203 25.5587 18.2326 25.5989 17.9777L25.6204 17.8668L26.0309 15.2633L26.0574 15.1194C26.0976 14.8647 26.3172 14.6768 26.5751 14.6768H26.9011C29.0126 14.6768 30.6659 13.819 31.1489 11.3382C31.3508 10.3016 31.2464 9.43631 30.7126 8.82798C30.5513 8.64432 30.3503 8.49224 30.116 8.36815Z" fill="white"/>
<path opacity="0.7" d="M30.116 8.36815C30.2805 7.31976 30.1149 6.60656 29.5479 5.96034C28.9237 5.24905 27.7959 4.94434 26.3531 4.94434H22.1647C21.8699 4.94434 21.6187 5.15887 21.5728 5.45028L19.8287 16.5096C19.7943 16.7278 19.963 16.9251 20.1838 16.9251H22.7695L23.419 12.8063L23.3988 12.9355C23.4448 12.6442 23.6936 12.4295 23.9886 12.4295H25.2176C27.6312 12.4295 29.5212 11.449 30.0732 8.61316C30.0897 8.52943 30.1035 8.44804 30.116 8.36815Z" fill="white"/>
<path d="M24.1168 8.38202C24.1444 8.20687 24.257 8.0633 24.4083 7.99083C24.4771 7.95788 24.5541 7.93949 24.6347 7.93949H27.9178C28.3068 7.93949 28.6695 7.96502 29.0009 8.01841C29.0956 8.03365 29.1879 8.05122 29.2775 8.07112C29.367 8.09103 29.454 8.11312 29.5382 8.13783C29.5803 8.15005 29.6216 8.16309 29.6624 8.17654C29.8252 8.23062 29.9769 8.29431 30.1163 8.36829C30.2808 7.3199 30.1152 6.60669 29.5482 5.96047C28.9237 5.24905 27.7959 4.94434 26.3531 4.94434H22.1647C21.8699 4.94434 21.6187 5.15887 21.5728 5.45028L19.8287 16.5096C19.7943 16.7278 19.963 16.9251 20.1838 16.9251H22.7695L23.419 12.8063L24.1168 8.38202Z" fill="white"/>
</svg>
