<svg width="50" height="33" viewBox="0 0 50 33" fill="none" xmlns="http://www.w3.org/2000/svg">
<rect y="0.944336" width="50" height="32" rx="3" fill="#74B027"/>
<path d="M7.86328 23.7646H9.99493C10.4551 23.7646 10.8025 23.8764 11.0373 24.0905C11.272 24.3139 11.3847 24.6211 11.3847 25.0214C11.3847 25.4403 11.2627 25.7662 11.0091 25.9989C10.7556 26.2316 10.3706 26.3527 9.85407 26.3527H9.14978V27.8794H7.86328V23.7646ZM9.14978 25.5148H9.45967C9.70383 25.5148 9.88225 25.4683 9.97615 25.3845C10.0794 25.3007 10.1264 25.189 10.1264 25.0587C10.1264 24.9283 10.0794 24.8166 9.99493 24.7328C9.91042 24.6397 9.74139 24.6025 9.50662 24.6025H9.14039V25.5148H9.14978Z" fill="white"/>
<path d="M11.9961 24.9006H13.076V25.3847C13.1793 25.1706 13.2826 25.031 13.3953 24.9472C13.508 24.8634 13.6394 24.8262 13.8085 24.8262C13.9775 24.8262 14.1653 24.882 14.3625 24.9844L14.0057 25.7944C13.8742 25.7385 13.7615 25.7106 13.6864 25.7106C13.5361 25.7106 13.4141 25.7757 13.3389 25.8968C13.2169 26.0736 13.1605 26.3995 13.1605 26.8742V27.8704H11.9961V24.9006Z" fill="white"/>
<path d="M14.5977 23.7646H15.7527V24.5466H14.5977V23.7646ZM14.5977 24.9004H15.7527V27.8794H14.5977V24.9004Z" fill="white"/>
<path d="M16.1445 24.9014H17.3465L17.9287 26.7912L18.5297 24.9014H19.6942L18.417 27.8804H17.3935L16.1445 24.9014Z" fill="white"/>
<path d="M21.0738 25.8683L19.9751 25.7473C20.0127 25.5518 20.0784 25.4028 20.1536 25.3004C20.2287 25.1887 20.3414 25.0956 20.4916 25.0118C20.5949 24.956 20.7452 24.9094 20.9236 24.8815C21.1114 24.8536 21.3086 24.835 21.5246 24.835C21.872 24.835 22.1443 24.8536 22.3603 24.8908C22.5669 24.9281 22.7453 25.0118 22.8862 25.1329C22.9801 25.2166 23.0646 25.3377 23.121 25.4866C23.1773 25.6449 23.2055 25.7845 23.2055 25.9242V27.2368C23.2055 27.3764 23.2149 27.4881 23.2337 27.5626C23.2524 27.6464 23.29 27.7395 23.3557 27.8698H22.2758C22.2289 27.7954 22.2007 27.7302 22.1913 27.693C22.1819 27.6557 22.1631 27.5906 22.1537 27.5068C22.0035 27.6464 21.8532 27.7581 21.703 27.814C21.4964 27.8978 21.2616 27.935 20.9893 27.935C20.6325 27.935 20.3602 27.8512 20.1723 27.6836C19.9845 27.5161 19.8906 27.3206 19.8906 27.0785C19.8906 26.8551 19.9564 26.6689 20.0878 26.52C20.2193 26.371 20.4728 26.2686 20.8297 26.1941C21.2616 26.1104 21.5434 26.0452 21.6748 26.0173C21.8063 25.98 21.9378 25.9335 22.0786 25.8776C22.0786 25.738 22.0504 25.6356 21.9941 25.5797C21.9378 25.5239 21.8345 25.4959 21.6842 25.4959C21.4964 25.4959 21.3555 25.5239 21.2616 25.589C21.1865 25.6449 21.1208 25.738 21.0738 25.8683ZM22.0786 26.4641C21.919 26.52 21.7593 26.5665 21.5809 26.6131C21.3462 26.6782 21.1959 26.7341 21.1396 26.7992C21.0738 26.8644 21.0457 26.9296 21.0457 27.0134C21.0457 27.1065 21.0738 27.1809 21.1396 27.2368C21.2053 27.2926 21.2992 27.3206 21.4213 27.3206C21.5527 27.3206 21.6654 27.2926 21.7781 27.2275C21.8908 27.1623 21.9659 27.0878 22.0129 27.0041C22.0598 26.911 22.0786 26.7992 22.0786 26.6596V26.4641Z" fill="white"/>
<path d="M25.187 23.7646V24.9004H25.8255V25.7382H25.187V26.7902C25.187 26.9205 25.1964 27.0043 25.2245 27.0416C25.2621 27.1067 25.3278 27.1347 25.4217 27.1347C25.5063 27.1347 25.6283 27.1067 25.7786 27.0602L25.8631 27.8515C25.5814 27.9167 25.3091 27.9446 25.0649 27.9446C24.7738 27.9446 24.5672 27.9073 24.4264 27.8329C24.2949 27.7584 24.1916 27.6467 24.1259 27.4977C24.0601 27.3488 24.0319 27.1067 24.0319 26.7716V25.7382H23.6094V24.9004H24.0319V24.3511L25.187 23.7646Z" fill="white"/>
<path d="M26.4469 23.7646H28.8509C29.2547 23.7646 29.5552 23.8671 29.7712 24.0626C29.9871 24.258 30.0904 24.5001 30.0904 24.7887C30.0904 25.0307 30.0153 25.2448 29.8651 25.4124C29.7618 25.5241 29.6115 25.6172 29.4143 25.6917C29.7148 25.7662 29.9308 25.8872 30.0716 26.0548C30.2125 26.2316 30.2782 26.4458 30.2782 26.7064C30.2782 26.9205 30.2313 27.116 30.128 27.2836C30.0247 27.4512 29.8932 27.5908 29.7148 27.6839C29.6115 27.7491 29.4425 27.7863 29.2265 27.8142C28.9354 27.8515 28.7476 27.8701 28.6537 27.8701H26.4375V23.7646H26.4469ZM27.7428 25.3752H28.2968C28.494 25.3752 28.6349 25.3379 28.71 25.2728C28.7851 25.2076 28.8321 25.1052 28.8321 24.9749C28.8321 24.8539 28.7945 24.7608 28.71 24.6956C28.6349 24.6304 28.494 24.5932 28.2968 24.5932H27.7334V25.3752H27.7428ZM27.7428 26.995H28.4001C28.6255 26.995 28.7758 26.9578 28.8697 26.874C28.9636 26.7995 29.0011 26.6878 29.0011 26.5575C29.0011 26.4365 28.9542 26.334 28.8697 26.2689C28.7758 26.1944 28.6255 26.1572 28.4001 26.1572H27.7522V26.995H27.7428Z" fill="white"/>
<path d="M31.9309 25.8688L30.8322 25.7571C30.8697 25.5616 30.9355 25.4126 31.0106 25.3102C31.0857 25.1985 31.1984 25.1054 31.3487 25.0216C31.452 24.9657 31.6022 24.9192 31.7806 24.8913C31.9684 24.8633 32.1656 24.8447 32.3816 24.8447C32.7291 24.8447 33.0014 24.8633 33.2174 24.9006C33.424 24.9378 33.6024 25.0216 33.7433 25.1426C33.8372 25.2264 33.9217 25.3474 33.978 25.4964C34.0344 25.6546 34.0625 25.7943 34.0625 25.9339V27.2466C34.0625 27.3862 34.0719 27.4979 34.0907 27.5724C34.1095 27.6562 34.147 27.7493 34.2128 27.8796H33.1235C33.0765 27.8051 33.0484 27.74 33.039 27.7027C33.0296 27.6655 33.0108 27.6003 33.0014 27.5165C32.8512 27.6562 32.7009 27.7679 32.5507 27.8237C32.3441 27.9075 32.1093 27.9448 31.837 27.9448C31.4801 27.9448 31.2078 27.861 31.02 27.6934C30.8322 27.5258 30.7383 27.3303 30.7383 27.0883C30.7383 26.8649 30.804 26.6787 30.9355 26.5297C31.0669 26.3808 31.3205 26.2784 31.6773 26.2039C32.1093 26.1201 32.391 26.055 32.5225 26.027C32.6539 25.9898 32.7854 25.9432 32.9263 25.8874C32.9263 25.7477 32.8981 25.6453 32.8418 25.5895C32.7854 25.5336 32.6821 25.5057 32.5319 25.5057C32.3441 25.5057 32.2032 25.5336 32.1093 25.5988C32.0342 25.6453 31.9778 25.7384 31.9309 25.8688ZM32.9357 26.4646C32.776 26.5204 32.6164 26.567 32.438 26.6135C32.2032 26.6787 32.053 26.7345 31.9966 26.7997C31.9309 26.8649 31.9027 26.93 31.9027 27.0138C31.9027 27.1069 31.9309 27.1814 31.9966 27.2372C32.0623 27.2931 32.1563 27.321 32.2783 27.321C32.4098 27.321 32.5225 27.2931 32.6352 27.2279C32.7479 27.1628 32.823 27.0883 32.8699 27.0045C32.9169 26.9114 32.9357 26.7997 32.9357 26.6601V26.4646Z" fill="white"/>
<path d="M34.75 24.8997H35.8205V25.3838C35.9802 25.1883 36.1398 25.0393 36.3088 24.9555C36.4685 24.8717 36.6751 24.8252 36.9098 24.8252C37.2291 24.8252 37.4827 24.9183 37.6611 25.1045C37.8395 25.2907 37.9334 25.5793 37.9334 25.9796V27.8787H36.7784V26.2402C36.7784 26.054 36.7408 25.9237 36.6751 25.8399C36.6093 25.7654 36.506 25.7189 36.384 25.7189C36.2431 25.7189 36.1304 25.7748 36.0459 25.8772C35.9614 25.9796 35.9144 26.1658 35.9144 26.445V27.8787H34.7594V24.8997H34.75Z" fill="white"/>
<path d="M38.6172 23.7646H39.8004V25.8872L40.6549 24.9004H42.0729L40.993 25.9431L42.1386 27.8794H40.8427L40.2324 26.6878L39.8004 27.1067V27.8794H38.6172V23.7646Z" fill="white"/>
<path fill-rule="evenodd" clip-rule="evenodd" d="M18.0508 20.7175L23.9189 20.7232L23.925 14.9471L18.0567 14.9414L18.0508 20.7175Z" fill="white"/>
<path opacity="0.75" fill-rule="evenodd" clip-rule="evenodd" d="M18.0739 5.94434L18.0664 13.1346L19.6176 13.1361C23.7004 13.1403 25.7686 15.181 25.7642 19.2006L25.7626 20.7271L33.0656 20.7343L33.0812 5.95941L18.0739 5.94434ZM29.9753 9.0108L29.9663 17.6771L28.769 17.676C28.2569 13.3898 25.5241 10.6942 21.1719 10.1816L21.1729 9.00204L29.9753 9.0108Z" fill="white"/>
</svg>
