<svg width="50" height="33" viewBox="0 0 50 33" fill="none" xmlns="http://www.w3.org/2000/svg">
<rect y="0.944336" width="50" height="32" rx="3" fill="#00579F"/>
<path d="M22.465 22.4789H19.3867L21.3121 11.4434H24.3902L22.465 22.4789Z" fill="white"/>
<path d="M33.6246 11.714C33.0174 11.4907 32.0544 11.2441 30.8636 11.2441C27.8237 11.2441 25.6831 12.7468 25.6699 14.8951C25.6447 16.4801 27.2026 17.3604 28.3678 17.8889C29.5587 18.429 29.9636 18.7815 29.9636 19.2628C29.9514 20.0021 29.0012 20.3429 28.1149 20.3429C26.886 20.3429 26.2275 20.1672 25.2267 19.7559L24.8214 19.5796L24.3906 22.0568C25.1126 22.3617 26.4427 22.6323 27.8237 22.6441C31.0537 22.6441 33.1565 21.1648 33.1814 18.8754C33.1937 17.6192 32.371 16.6566 30.5975 15.87C29.5208 15.3651 28.8615 15.0246 28.8615 14.5079C28.8741 14.0383 29.4192 13.5572 30.6345 13.5572C31.6352 13.5337 32.3705 13.7566 32.9275 13.9798L33.2059 14.0969L33.6246 11.714V11.714Z" fill="white"/>
<path d="M37.7157 18.5694C37.9692 17.9354 38.9447 15.4817 38.9447 15.4817C38.9319 15.5053 39.1977 14.8361 39.3497 14.4252L39.5648 15.3761C39.5648 15.3761 40.1478 18.0176 40.2743 18.5694C39.7932 18.5694 38.3237 18.5694 37.7157 18.5694ZM41.5154 11.4434H39.1344C38.4001 11.4434 37.8423 11.6428 37.5255 12.359L32.9531 22.4787H36.1831C36.1831 22.4787 36.7148 21.1167 36.8291 20.8233C37.1834 20.8233 40.3255 20.8233 40.7813 20.8233C40.8697 21.2108 41.1486 22.4787 41.1486 22.4787H43.9988L41.5154 11.4434V11.4434Z" fill="white"/>
<path d="M16.8187 11.4434L13.8041 18.9685L13.4747 17.4423C12.9173 15.6813 11.1694 13.768 9.21875 12.8166L11.98 22.4672H15.2352L20.0737 11.4434H16.8187V11.4434Z" fill="white"/>
<path d="M11.0033 11.4443H6.05067L6 11.6673C9.86336 12.5831 12.422 14.7905 13.4732 17.4438L12.3966 12.372C12.2193 11.6672 11.6746 11.4676 11.0033 11.4443Z" fill="#FAA61A"/>
</svg>
