<svg width="25" height="26" viewBox="0 0 25 26" fill="none" xmlns="http://www.w3.org/2000/svg">
<g clip-path="url(#clip0_589_81845)">
<path d="M12.5364 0.5C16.8097 0.5 20.2862 3.80575 20.2862 7.86925C20.2862 10.6242 18.6923 13.0342 16.3754 14.2745C21.0831 15.7208 24.5595 19.6465 24.9939 24.5362C25.1387 25.7755 22.6759 25.8448 22.6041 24.6739C22.0967 19.7842 17.6787 16.0654 12.5365 16.0654C7.32139 16.0654 2.97628 19.7842 2.46887 24.6739C2.32406 25.8448 -0.138669 25.7755 0.00614141 24.5362C0.513478 19.715 3.98975 15.7207 8.62458 14.2745C6.30666 13.0352 4.7138 10.624 4.7138 7.86925C4.7138 3.80575 8.26308 0.5 12.5364 0.5ZM12.5364 2.8418C9.56737 2.8418 7.17647 5.11425 7.17647 7.86905C7.17647 10.6923 9.56627 12.9658 12.5364 12.9658C15.4337 12.9658 17.8233 10.6933 17.8233 7.86905C17.8233 5.11405 15.4335 2.8418 12.5364 2.8418Z" fill="#F1F2F3"/>
</g>
<defs>
<clipPath id="clip0_589_81845">
<rect width="25" height="25" fill="white" transform="translate(0 0.5)"/>
</clipPath>
</defs>
</svg>
