<svg width="25" height="26" viewBox="0 0 25 26" fill="none" xmlns="http://www.w3.org/2000/svg">
<path d="M0.548316 5.6778C1.02231 5.03029 1.75951 4.63674 2.5224 4.63674H18.5514L19.0511 2.55464C19.341 1.34428 20.3404 0.5 21.4991 0.5H24.1836C24.6309 0.5 25 0.893547 25 1.37287C25 1.85107 24.6319 2.24574 24.1836 2.24574H21.4991C21.1043 2.24574 20.7619 2.52717 20.6571 2.94931L17.4462 16.6272C17.1562 17.8376 16.1569 18.6818 14.9981 18.6818H4.49653C3.33882 18.6818 2.31167 17.8376 2.04846 16.6272L0.07438 7.95898C-0.109662 7.16967 0.0476494 6.32539 0.548371 5.67788L0.548316 5.6778ZM1.67931 7.56313L3.65339 16.2313C3.75826 16.6535 4.10063 16.9349 4.49545 16.9349H14.9981C15.3929 16.9349 15.7353 16.6535 15.8401 16.2313L18.1299 6.41013H2.52121C2.258 6.41013 1.99479 6.55084 1.83644 6.7762C1.67913 7.00047 1.60099 7.2819 1.67913 7.56333L1.67931 7.56313Z" fill="white"/>
<path d="M14.1899 19.4397C15.6712 19.4397 16.8926 20.8092 16.8926 22.4699C16.8926 24.1306 15.6711 25.5001 14.1899 25.5001C12.7085 25.5012 11.4872 24.1318 11.4872 22.4708C11.4872 20.8098 12.7086 19.4395 14.1899 19.4395V19.4397ZM14.1899 23.6653C14.7879 23.6653 15.256 23.1405 15.256 22.47C15.256 21.7995 14.7879 21.2747 14.1899 21.2747C13.5918 21.2747 13.1238 21.7995 13.1238 22.47C13.1248 23.112 13.6182 23.6653 14.1899 23.6653Z" fill="white"/>
<path d="M5.40472 19.4395C6.88609 19.4395 8.10742 20.8089 8.10742 22.4698C8.10742 24.1306 6.88598 25.5001 5.40472 25.5001C3.92346 25.5001 2.70202 24.1306 2.70202 22.4698C2.7274 20.81 3.92346 19.4395 5.40472 19.4395ZM5.40472 23.6652C6.00276 23.6652 6.47083 23.1404 6.47083 22.4699C6.47083 21.7993 6.00276 21.2745 5.40472 21.2745C4.80668 21.2745 4.33861 21.7993 4.33861 22.4699C4.33861 23.1119 4.83307 23.6652 5.40472 23.6652Z" fill="white"/>
</svg>
