<svg width="25" height="25" viewBox="0 0 25 25" fill="none" xmlns="http://www.w3.org/2000/svg">
<path d="M12.4998 1.38867C10.3022 1.38867 8.154 2.04033 6.32679 3.26123C4.49957 4.48214 3.07543 6.21745 2.23446 8.24774C1.39349 10.278 1.17345 12.5121 1.60217 14.6675C2.0309 16.8228 3.08913 18.8026 4.64305 20.3565C6.19696 21.9104 8.17677 22.9687 10.3321 23.3974C12.4875 23.8261 14.7215 23.6061 16.7518 22.7651C18.7821 21.9241 20.5174 20.5 21.7383 18.6728C22.9592 16.8456 23.6109 14.6974 23.6109 12.4998C23.6109 9.55293 22.4403 6.72678 20.3565 4.64304C18.2728 2.5593 15.4466 1.38867 12.4998 1.38867V1.38867ZM12.4998 22.222C10.5769 22.222 8.69722 21.6518 7.09841 20.5835C5.4996 19.5152 4.25348 17.9968 3.51763 16.2203C2.78177 14.4438 2.58924 12.489 2.96438 10.6031C3.33951 8.71715 4.26546 6.98481 5.62514 5.62513C6.98482 4.26546 8.71715 3.3395 10.6031 2.96437C12.489 2.58924 14.4438 2.78177 16.2203 3.51762C17.9968 4.25347 19.5152 5.49959 20.5835 7.09841C21.6518 8.69722 22.222 10.5769 22.222 12.4998C22.222 15.0783 21.1977 17.5512 19.3744 19.3744C17.5512 21.1977 15.0783 22.222 12.4998 22.222Z" fill="#FCFEFF"/>
<path d="M13.1389 12.7784V7.46593C13.1389 7.28175 13.0657 7.10512 12.9355 6.97488C12.8053 6.84465 12.6286 6.77148 12.4444 6.77148C12.2603 6.77148 12.0836 6.84465 11.9534 6.97488C11.8232 7.10512 11.75 7.28175 11.75 7.46593V13.5215L15.8472 16.2993C15.9227 16.356 16.009 16.3968 16.1007 16.4191C16.1925 16.4414 16.2878 16.4447 16.381 16.4289C16.4741 16.4131 16.563 16.3785 16.6422 16.3271C16.7215 16.2758 16.7894 16.2088 16.8419 16.1303C16.8944 16.0518 16.9304 15.9634 16.9475 15.8705C16.9647 15.7777 16.9627 15.6823 16.9418 15.5902C16.9208 15.4981 16.8813 15.4113 16.8257 15.335C16.77 15.2587 16.6994 15.1945 16.6181 15.1465L13.1389 12.7784Z" fill="#FCFEFF"/>
<path d="M5.55585 12.4587C5.5495 11.2094 5.8823 9.98182 6.51879 8.90682C7.15527 7.83182 8.07156 6.9497 9.16997 6.35452C10.2684 5.75934 11.5077 5.47342 12.7559 5.52723C14.004 5.58104 15.2141 5.97257 16.2572 6.66007L16.8475 5.71563C15.8567 5.0666 14.7344 4.64507 13.5614 4.48132C12.3883 4.31757 11.1935 4.41566 10.0628 4.76855C8.93215 5.12143 7.89367 5.72036 7.02198 6.52229C6.15029 7.32423 5.46703 8.30927 5.02129 9.40665C4.57554 10.504 4.37837 11.6865 4.44394 12.8692C4.50951 14.0518 4.8362 15.2052 5.40053 16.2466C5.96486 17.288 6.75283 18.1915 7.70783 18.8921C8.66283 19.5928 9.76115 20.0732 10.9239 20.299L11.1114 19.2365C9.5475 18.9172 8.1413 18.069 7.12946 16.8346C6.11762 15.6001 5.56191 14.0548 5.55585 12.4587V12.4587Z" fill="#FCFEFF"/>
</svg>
