<svg width="16" height="16" viewBox="0 0 16 16" fill="none" xmlns="http://www.w3.org/2000/svg">
<path fill-rule="evenodd" clip-rule="evenodd" d="M13.7158 2.28421C13.9053 2.47369 14 2.71052 14 2.99474C14 3.27895 13.9053 3.51579 13.7158 3.70526L9.42105 8L13.7158 12.2947C13.9053 12.4842 14 12.7211 14 13.0053C14 13.2895 13.9053 13.5263 13.7158 13.7158C13.5263 13.9053 13.2895 14 13.0053 14C12.7211 14 12.4842 13.9053 12.2947 13.7158L8 9.42105L3.70526 13.7158C3.51579 13.9053 3.27895 14 2.99474 14C2.71052 14 2.47369 13.9053 2.28421 13.7158C2.09474 13.5263 2 13.2895 2 13.0053C2 12.7211 2.09474 12.4842 2.28421 12.2947L6.57895 8L2.28421 3.70526C2.09474 3.51579 2 3.27895 2 2.99474C2 2.71052 2.09474 2.47369 2.28421 2.28421C2.47369 2.09474 2.71052 2 2.99474 2C3.27895 2 3.51579 2.09474 3.70526 2.28421L8 6.57895L12.2947 2.28421C12.4842 2.09474 12.7211 2 13.0053 2C13.2895 2 13.5263 2.09474 13.7158 2.28421Z" fill="#1E85DA"/>
</svg>
