<svg width="16" height="16" viewBox="0 0 16 16" fill="none" xmlns="http://www.w3.org/2000/svg">
<path d="M4.96826 15.118L1.00001 16L1.88201 12.0317C1.30116 10.9453 0.998154 9.73198 1.00001 8.5C1.00001 4.35775 4.35776 1 8.5 1C12.6423 1 16 4.35775 16 8.5C16 12.6422 12.6423 16 8.5 16C7.26802 16.0018 6.05472 15.6988 4.96826 15.118ZM5.18576 13.5332L5.67551 13.7957C6.54442 14.2601 7.5148 14.502 8.5 14.5C9.68669 14.5 10.8467 14.1481 11.8334 13.4888C12.8201 12.8295 13.5892 11.8925 14.0433 10.7961C14.4974 9.69974 14.6162 8.49334 14.3847 7.32945C14.1532 6.16557 13.5818 5.09647 12.7426 4.25736C11.9035 3.41824 10.8344 2.8468 9.67055 2.61529C8.50666 2.38378 7.30026 2.5026 6.20391 2.95672C5.10755 3.41085 4.17048 4.17988 3.51119 5.16658C2.8519 6.15327 2.50001 7.31331 2.50001 8.5C2.50001 9.50049 2.74376 10.4635 3.20501 11.3245L3.46676 11.8142L2.97551 14.0245L5.18576 13.5332Z" fill="#828282"/>
</svg>
