<svg width="25" height="25" viewBox="0 0 25 25" fill="none" xmlns="http://www.w3.org/2000/svg">
<path d="M13.5413 2.0835V3.41475L18.7496 5.15225L22.5329 3.89183L23.1923 5.86683L20.034 6.91995L23.259 15.7866C22.1215 16.971 20.5204 17.7085 18.7496 17.7085C16.9777 17.7085 15.3777 16.971 14.2402 15.7866L17.4632 6.91995L13.5413 5.61162V19.7918H17.7079V21.8752H7.29128V19.7918H11.4579V5.61162L7.53294 6.91995L10.7579 15.7866C9.62148 16.971 8.02044 17.7085 6.24961 17.7085C4.47773 17.7085 2.87773 16.971 1.74023 15.7866L4.96315 6.91995L1.8069 5.86787L2.46628 3.89079L6.24961 5.1512L11.4579 3.41475V2.0835H13.5413ZM18.7496 9.48245L16.71 15.0929C17.3215 15.4377 18.0194 15.6252 18.7496 15.6252C19.4788 15.6252 20.1767 15.4377 20.7892 15.0939L18.7496 9.48141V9.48245ZM6.24961 9.48245L4.21003 15.0929C4.82148 15.4377 5.5194 15.6252 6.24961 15.6252C6.97878 15.6252 7.67669 15.4377 8.28919 15.0939L6.24961 9.48141V9.48245Z" fill="#FFC400"/>
</svg>
