<svg width="12" height="12" viewBox="0 0 12 12" fill="none" xmlns="http://www.w3.org/2000/svg">
<path fill-rule="evenodd" clip-rule="evenodd" d="M11.7158 0.284211C11.9053 0.473685 12 0.710525 12 0.994737C12 1.27895 11.9053 1.51579 11.7158 1.70526L7.42105 6L11.7158 10.2947C11.9053 10.4842 12 10.7211 12 11.0053C12 11.2895 11.9053 11.5263 11.7158 11.7158C11.5263 11.9053 11.2895 12 11.0053 12C10.7211 12 10.4842 11.9053 10.2947 11.7158L6 7.42105L1.70526 11.7158C1.51579 11.9053 1.27895 12 0.994737 12C0.710525 12 0.473685 11.9053 0.284211 11.7158C0.0947359 11.5263 0 11.2895 0 11.0053C0 10.7211 0.0947359 10.4842 0.284211 10.2947L4.57895 6L0.284211 1.70526C0.0947359 1.51579 0 1.27895 0 0.994737C0 0.710525 0.0947359 0.473685 0.284211 0.284211C0.473685 0.0947359 0.710525 0 0.994737 0C1.27895 0 1.51579 0.0947359 1.70526 0.284211L6 4.57895L10.2947 0.284211C10.4842 0.0947359 10.7211 0 11.0053 0C11.2895 0 11.5263 0.0947359 11.7158 0.284211Z" fill="#1E85DA"/>
</svg>
