<svg width="23" height="23" viewBox="0 0 23 23" fill="none" xmlns="http://www.w3.org/2000/svg">
<path d="M2.875 11.5H11.5V12.9375H2.875V11.5Z" fill="#1E85DA"/>
<path d="M1.4375 7.90625H8.625V9.34375H1.4375V7.90625Z" fill="#1E85DA"/>
<path d="M21.5053 11.9356L19.349 6.90431C19.2937 6.77499 19.2016 6.66478 19.0842 6.58734C18.9667 6.50991 18.8292 6.46867 18.6885 6.46875H16.5323V5.03125C16.5323 4.84063 16.4565 4.65781 16.3217 4.52302C16.1869 4.38823 16.0041 4.3125 15.8135 4.3125H4.3135V5.75H15.0948V14.7746C14.7672 14.9648 14.4806 15.2179 14.2514 15.5194C14.0222 15.8209 13.855 16.1648 13.7593 16.5312H9.24269C9.06775 15.8537 8.65171 15.2632 8.07256 14.8705C7.49341 14.4778 6.7909 14.3097 6.09672 14.3979C5.40254 14.4861 4.76435 14.8244 4.30177 15.3495C3.83919 15.8745 3.58398 16.5502 3.58398 17.25C3.58398 17.9498 3.83919 18.6255 4.30177 19.1505C4.76435 19.6756 5.40254 20.0139 6.09672 20.1021C6.7909 20.1903 7.49341 20.0222 8.07256 19.6295C8.65171 19.2368 9.06775 18.6463 9.24269 17.9687H13.7593C13.9157 18.5856 14.2732 19.1327 14.7755 19.5235C15.2777 19.9143 15.8959 20.1265 16.5323 20.1265C17.1686 20.1265 17.7868 19.9143 18.289 19.5235C18.7913 19.1327 19.1488 18.5856 19.3052 17.9687H20.8448C21.0354 17.9687 21.2182 17.893 21.353 17.7582C21.4878 17.6234 21.5635 17.4406 21.5635 17.25V12.2187C21.5635 12.1214 21.5437 12.025 21.5053 11.9356ZM6.46975 18.6875C6.18544 18.6875 5.90752 18.6032 5.67112 18.4452C5.43473 18.2873 5.25048 18.0628 5.14168 17.8001C5.03288 17.5374 5.00441 17.2484 5.05987 16.9696C5.11534 16.6907 5.25225 16.4346 5.45329 16.2335C5.65433 16.0325 5.91046 15.8956 6.18931 15.8401C6.46816 15.7847 6.75719 15.8131 7.01986 15.9219C7.28253 16.0307 7.50704 16.215 7.66499 16.4514C7.82295 16.6878 7.90725 16.9657 7.90725 17.25C7.90687 17.6311 7.7553 17.9965 7.4858 18.266C7.2163 18.5355 6.85089 18.6871 6.46975 18.6875ZM16.5323 7.90625H18.2141L19.7551 11.5H16.5323V7.90625ZM16.5323 18.6875C16.2479 18.6875 15.97 18.6032 15.7336 18.4452C15.4972 18.2873 15.313 18.0628 15.2042 17.8001C15.0954 17.5374 15.0669 17.2484 15.1224 16.9696C15.1778 16.6907 15.3147 16.4346 15.5158 16.2335C15.7168 16.0325 15.973 15.8956 16.2518 15.8401C16.5307 15.7847 16.8197 15.8131 17.0824 15.9219C17.345 16.0307 17.5695 16.215 17.7275 16.4514C17.8854 16.6878 17.9698 16.9657 17.9698 17.25C17.9694 17.6311 17.8178 17.9965 17.5483 18.266C17.2788 18.5355 16.9134 18.6871 16.5323 18.6875ZM20.126 16.5312H19.3052C19.1469 15.9156 18.7887 15.3699 18.2869 14.9797C17.7851 14.5894 17.1679 14.3768 16.5323 14.375V12.9375H20.126V16.5312Z" fill="#1E85DA"/>
</svg>
