<svg width="11" height="10" viewBox="0 0 11 10" fill="none" xmlns="http://www.w3.org/2000/svg">
<path d="M9.74998 5.97179L9.99718 5.93448L9.99998 5.95303V5.97179H9.74998ZM9.33331 3.21137L9.08611 3.24869L9.08331 3.23013V3.21137H9.33331ZM3.72915 2.69054L3.82531 2.92132L3.82264 2.9224L3.72915 2.69054ZM3.08331 2.95096H2.83331V2.7822L2.98982 2.7191L3.08331 2.95096ZM3.86109 6.92318L4.03787 6.7464L3.86109 6.92318ZM5.68748 9.5829L5.79752 9.80738L5.78245 9.81476L5.76654 9.82007L5.68748 9.5829ZM8.70831 7.12457H7.70137V6.62457H8.70831V7.12457ZM9.99998 5.98915C9.99998 6.66853 9.38857 7.12457 8.70831 7.12457V6.62457C9.19472 6.62457 9.49998 6.31672 9.49998 5.98915H9.99998ZM9.99998 5.97179V5.98915H9.49998V5.97179H9.99998ZM9.58051 3.17406L9.99718 5.93448L9.50278 6.0091L9.08611 3.24869L9.58051 3.17406ZM8.29165 2.11068C8.94059 2.11068 9.58331 2.55804 9.58331 3.21137H9.08331C9.08331 2.9272 8.76771 2.61068 8.29165 2.61068V2.11068ZM5.37498 2.11068H8.29165V2.61068H5.37498V2.11068ZM3.63299 2.45977C4.1627 2.23906 4.77866 2.11068 5.37498 2.11068V2.61068C4.8463 2.61068 4.29559 2.72535 3.8253 2.92131L3.63299 2.45977ZM2.98982 2.7191L3.63565 2.45868L3.82264 2.9224L3.1768 3.18282L2.98982 2.7191ZM2.83331 5.04546V2.95096H3.33331V5.04546H2.83331ZM3.68431 7.09995C3.13943 6.55507 2.83331 5.81604 2.83331 5.04546H3.33331C3.33331 5.68343 3.58675 6.29528 4.03787 6.7464L3.68431 7.09995ZM4.49998 9.06915C4.49998 8.33056 4.20658 7.62222 3.68431 7.09995L4.03787 6.7464C4.6539 7.36243 4.99998 8.19795 4.99998 9.06915H4.49998ZM4.49998 9.13151V9.06915H4.99998V9.13151H4.49998ZM5.37498 9.90234C4.954 9.90234 4.49998 9.61025 4.49998 9.13151H4.99998C4.99998 9.24305 5.1293 9.40234 5.37498 9.40234V9.90234ZM5.76654 9.82007C5.67077 9.85199 5.52703 9.90234 5.37498 9.90234V9.40234C5.43126 9.40234 5.49586 9.38325 5.60842 9.34573L5.76654 9.82007ZM7.08331 7.74262C7.08331 8.09968 6.95718 8.5159 6.7422 8.88599C6.52647 9.25737 6.20713 9.60659 5.79752 9.80738L5.57744 9.35842C5.87616 9.21199 6.12974 8.94489 6.30985 8.63484C6.4907 8.32351 6.58331 7.9932 6.58331 7.74262H7.08331ZM7.70137 7.12457C7.36003 7.12457 7.08331 7.40128 7.08331 7.74262H6.58331C6.58331 7.12514 7.08388 6.62457 7.70137 6.62457V7.12457ZM2.45833 6.77734H1.20833V6.27734H2.45833V6.77734ZM2.91667 6.35373C2.91667 6.47793 2.86446 6.59246 2.76942 6.67166C2.67843 6.74749 2.56545 6.77734 2.45833 6.77734V6.27734C2.47621 6.27734 2.46741 6.27248 2.44933 6.28755C2.44011 6.29523 2.43107 6.30625 2.4247 6.32004C2.41836 6.33379 2.41667 6.34594 2.41667 6.35373H2.91667ZM2.91667 2.53429V6.35373H2.41667V2.53429H2.91667ZM2.45833 2.11068C2.56545 2.11068 2.67843 2.14054 2.76942 2.21637C2.86446 2.29556 2.91667 2.41009 2.91667 2.53429H2.41667C2.41667 2.54208 2.41836 2.55424 2.4247 2.56798C2.43107 2.58177 2.44011 2.59279 2.44933 2.60048C2.46741 2.61554 2.47621 2.61068 2.45833 2.61068V2.11068ZM1.20833 2.11068H2.45833V2.61068H1.20833V2.11068ZM0.75 2.53429C0.75 2.41009 0.802209 2.29556 0.897246 2.21637C0.988241 2.14054 1.10121 2.11068 1.20833 2.11068V2.61068C1.19045 2.61068 1.19926 2.61554 1.21734 2.60048C1.22656 2.59279 1.2356 2.58177 1.24196 2.56798C1.24831 2.55424 1.25 2.54208 1.25 2.53429H0.75ZM0.75 6.35373V2.53429H1.25V6.35373H0.75ZM1.20833 6.77734C1.10121 6.77734 0.988241 6.74749 0.897246 6.67166C0.802209 6.59246 0.75 6.47793 0.75 6.35373H1.25C1.25 6.34594 1.24831 6.33379 1.24196 6.32004C1.2356 6.30625 1.22656 6.29523 1.21734 6.28755C1.19926 6.27248 1.19045 6.27734 1.20833 6.27734V6.77734Z" fill="url(#paint0_linear_4_3145)"/>
<defs>
<linearGradient id="paint0_linear_4_3145" x1="1" y1="6.00651" x2="9.75" y2="6.00651" gradientUnits="userSpaceOnUse">
<stop stop-color="#4481EB"/>
<stop offset="1" stop-color="#04BEFE"/>
</linearGradient>
</defs>
</svg>
