<svg width="15" height="15" viewBox="0 0 15 15" fill="none" xmlns="http://www.w3.org/2000/svg">
<path d="M7.5 15C3.35775 15 0 11.6422 0 7.5C0 3.35775 3.35775 0 7.5 0C11.6422 0 15 3.35775 15 7.5C15 11.6422 11.6422 15 7.5 15ZM7.5 13.5C9.0913 13.5 10.6174 12.8679 11.7426 11.7426C12.8679 10.6174 13.5 9.0913 13.5 7.5C13.5 5.9087 12.8679 4.38258 11.7426 3.25736C10.6174 2.13214 9.0913 1.5 7.5 1.5C5.9087 1.5 4.38258 2.13214 3.25736 3.25736C2.13214 4.38258 1.5 5.9087 1.5 7.5C1.5 9.0913 2.13214 10.6174 3.25736 11.7426C4.38258 12.8679 5.9087 13.5 7.5 13.5ZM4.875 9H9C9.09946 9 9.19484 8.96049 9.26517 8.89017C9.33549 8.81984 9.375 8.72446 9.375 8.625C9.375 8.52554 9.33549 8.43016 9.26517 8.35983C9.19484 8.28951 9.09946 8.25 9 8.25H6C5.50272 8.25 5.02581 8.05246 4.67417 7.70083C4.32254 7.34919 4.125 6.87228 4.125 6.375C4.125 5.87772 4.32254 5.40081 4.67417 5.04917C5.02581 4.69754 5.50272 4.5 6 4.5H6.75V3H8.25V4.5H10.125V6H6C5.90054 6 5.80516 6.03951 5.73483 6.10983C5.66451 6.18016 5.625 6.27554 5.625 6.375C5.625 6.47446 5.66451 6.56984 5.73483 6.64017C5.80516 6.71049 5.90054 6.75 6 6.75H9C9.49728 6.75 9.97419 6.94754 10.3258 7.29917C10.6775 7.65081 10.875 8.12772 10.875 8.625C10.875 9.12228 10.6775 9.59919 10.3258 9.95083C9.97419 10.3025 9.49728 10.5 9 10.5H8.25V12H6.75V10.5H4.875V9Z" fill="#071D49"/>
</svg>
