<svg width="23" height="22" viewBox="0 0 23 22" fill="none" xmlns="http://www.w3.org/2000/svg">
<path fill-rule="evenodd" clip-rule="evenodd" d="M21.6173 22H13.4341C12.967 22 12.5879 21.6098 12.5879 21.1289C12.5879 20.6481 12.967 20.2578 13.4341 20.2578H21.6173C22.0844 20.2578 22.4635 20.6481 22.4635 21.1289C22.4635 21.6098 22.0844 22 21.6173 22" fill="#828282"/>
<mask id="mask0_1001_56936" style="mask-type:alpha" maskUnits="userSpaceOnUse" x="0" y="0" width="20" height="22">
<path fill-rule="evenodd" clip-rule="evenodd" d="M0.462891 0H19.847V21.9978H0.462891V0Z" fill="white"/>
</mask>
<g mask="url(#mask0_1001_56936)">
<path fill-rule="evenodd" clip-rule="evenodd" d="M12.9987 2.34035L2.37616 16.0167C2.18323 16.2653 2.11215 16.5859 2.18323 16.8937L2.95158 20.2445L6.38035 20.2004C6.70642 20.1969 7.00766 20.0471 7.20736 19.7915C10.837 15.1166 17.7566 6.20342 17.9529 5.94209C18.1379 5.63313 18.2101 5.19642 18.1131 4.77596C18.0138 4.34506 17.7532 3.97919 17.3775 3.74573C17.2974 3.68882 15.3963 2.16961 15.3376 2.12199C14.6223 1.53196 13.5786 1.63417 12.9987 2.34035V2.34035ZM2.28308 21.998C1.89157 21.998 1.55084 21.7215 1.45945 21.3278L0.535409 17.2963C0.344733 16.4612 0.53428 15.5994 1.05441 14.9304L11.6826 1.24585C11.6871 1.2412 11.6905 1.2354 11.695 1.23075C12.8605 -0.203673 14.9681 -0.415062 16.3897 0.759191C16.4461 0.804488 18.3337 2.31441 18.3337 2.31441C19.0197 2.73486 19.5556 3.48634 19.7587 4.37603C19.9606 5.25643 19.814 6.1647 19.3435 6.93244C19.3085 6.98935 19.278 7.03813 8.52799 20.8829C8.01012 21.5473 7.23388 21.9341 6.40009 21.9445L2.29436 21.998H2.28308Z" fill="#828282"/>
</g>
<path fill-rule="evenodd" clip-rule="evenodd" d="M16.5071 10.0861C16.3266 10.0861 16.1461 10.0269 15.9915 9.90612L9.84027 5.04185C9.4702 4.74916 9.40025 4.20327 9.68457 3.81998C9.97002 3.43901 10.5003 3.36816 10.8715 3.66086L17.0239 8.52396C17.394 8.81665 17.4639 9.36371 17.1785 9.74583C17.0126 9.96884 16.761 10.0861 16.5071 10.0861" fill="#828282"/>
</svg>
