<svg width="15" height="17" viewBox="0 0 15 17" fill="none" xmlns="http://www.w3.org/2000/svg">
<path d="M1.66667 10.8333H3.33333V15H13.3333V1.66667H3.33333V5.83333H1.66667V0.833333C1.66667 0.61232 1.75446 0.400358 1.91074 0.244078C2.06702 0.0877973 2.27899 0 2.5 0H14.1667C14.3877 0 14.5996 0.0877973 14.7559 0.244078C14.9122 0.400358 15 0.61232 15 0.833333V15.8333C15 16.0543 14.9122 16.2663 14.7559 16.4226C14.5996 16.5789 14.3877 16.6667 14.1667 16.6667H2.5C2.27899 16.6667 2.06702 16.5789 1.91074 16.4226C1.75446 16.2663 1.66667 16.0543 1.66667 15.8333V10.8333ZM6.66667 7.5V5L10.8333 8.33333L6.66667 11.6667V9.16667H0V7.5H6.66667Z" fill="#18191F"/>
</svg>
