<svg width="25" height="25" viewBox="0 0 25 25" fill="none" xmlns="http://www.w3.org/2000/svg">
<path d="M12.6245 22C12.4297 22 12.2349 21.9353 12.0727 21.8058L11.6026 21.4302C7.28453 17.9883 4.67853 15.9102 3.16152 13.1376C1.70711 10.4882 1.88182 8.39557 2.28282 7.10738C2.77181 5.54183 3.87175 4.28192 5.38274 3.5594C6.15962 3.18905 7.00437 3 7.8906 3C9.76487 3 11.4971 3.82227 12.6247 5.17802C13.7523 3.82227 15.4833 3 17.3589 3C18.2451 3 19.0886 3.18776 19.8655 3.5581C21.3764 4.28066 22.4776 5.53931 22.9666 7.10609C23.3689 8.39321 23.5424 10.4857 22.0879 13.1363C20.5694 15.9087 17.9598 17.9897 13.6366 21.4366L13.1778 21.8056C13.0143 21.9351 12.8194 22 12.6245 22ZM7.8904 4.85943C7.2669 4.85943 6.6786 4.98892 6.14057 5.24532C5.09218 5.74644 4.33165 6.60886 3.9998 7.67584C3.58119 9.01607 3.83513 10.5894 4.7314 12.2236C6.06137 14.6541 8.39712 16.5254 12.6231 19.896C16.8494 16.5267 19.1851 14.6531 20.5148 12.2249C21.4124 10.5895 21.665 9.01617 21.2477 7.67584C20.9145 6.61015 20.1541 5.74644 19.1057 5.24532C18.5689 4.98893 17.9806 4.85943 17.3571 4.85943C15.6638 4.85943 14.0901 5.82802 13.4413 7.26923C13.2942 7.59813 12.9737 7.8079 12.623 7.8079C12.271 7.8079 11.9529 7.59813 11.8046 7.26923C11.1572 5.82799 9.58366 4.85943 7.8904 4.85943Z" fill="#FFC400" stroke="#FFC400" stroke-width="0.1"/>
</svg>
