<svg width="17" height="17" viewBox="0 0 17 17" fill="none" xmlns="http://www.w3.org/2000/svg">
<path d="M9.01253 8.28586V0.477826C9.01253 0.212367 8.79396 0 8.52075 0C8.24753 0 8.02896 0.212367 8.02896 0.477826V8.28586C6.88875 8.50885 6.02539 9.48928 6.02539 10.6644C6.02539 11.8395 6.88875 12.8199 8.02896 13.0429V16.5186C8.02896 16.7841 8.24753 16.9965 8.52075 16.9965C8.79396 16.9965 9.01253 16.7841 9.01253 16.5186V13.0429C10.1527 12.8199 11.0161 11.8395 11.0161 10.6644C11.0161 9.49282 10.1564 8.50885 9.01253 8.28586ZM8.52075 12.1332C7.68653 12.1332 7.00896 11.4749 7.00896 10.6644C7.00896 9.85384 7.68653 9.1955 8.52075 9.1955C9.35496 9.1955 10.0325 9.85384 10.0325 10.6644C10.0325 11.4749 9.35496 12.1332 8.52075 12.1332Z" fill="#FCFEFF"/>
<path d="M2.98714 4.2792V0.477826C2.98714 0.212367 2.76857 0 2.49535 0C2.22214 0 2.00357 0.212367 2.00357 0.477826V4.2792C0.863356 4.50219 0 5.48262 0 6.65771C0 7.83281 0.863356 8.81324 2.00357 9.03623V16.5186C2.00357 16.7841 2.22214 16.9965 2.49535 16.9965C2.76857 16.9965 2.98714 16.7841 2.98714 16.5186V9.03269C4.12735 8.8097 4.99071 7.82927 4.99071 6.65417C4.99071 5.47908 4.12735 4.50219 2.98714 4.2792ZM2.49535 8.12659C1.66114 8.12659 0.98357 7.46825 0.98357 6.65771C0.98357 5.84718 1.66114 5.18884 2.49535 5.18884C3.32957 5.18884 4.00714 5.84718 4.00714 6.65771C4.00714 7.46825 3.32592 8.12659 2.49535 8.12659Z" fill="#FCFEFF"/>
<path d="M14.9969 4.2792V0.477826C14.9969 0.212367 14.7783 0 14.5051 0C14.2319 0 14.0133 0.212367 14.0133 0.477826V4.2792C12.8731 4.50219 12.0098 5.48262 12.0098 6.65771C12.0098 7.83281 12.8731 8.81324 14.0133 9.03623V16.5222C14.0133 16.7876 14.2319 17 14.5051 17C14.7783 17 14.9969 16.7876 14.9969 16.5222V9.03269C16.1371 8.8097 17.0005 7.82927 17.0005 6.65417C17.0005 5.47908 16.1408 4.50219 14.9969 4.2792ZM14.5051 8.12659C13.6709 8.12659 12.9933 7.46825 12.9933 6.65771C12.9933 5.84718 13.6709 5.18884 14.5051 5.18884C15.3393 5.18884 16.0169 5.84718 16.0169 6.65771C16.0169 7.46825 15.3393 8.12659 14.5051 8.12659Z" fill="#FCFEFF"/>
</svg>
