<svg width="20" height="21" viewBox="0 0 20 21" fill="none" xmlns="http://www.w3.org/2000/svg">
<g clip-path="url(#clip0_4_8780)">
<path d="M17.4576 7.47227V8.30848V10.4016V13.1409V15.9186V18.1258C17.4576 18.469 17.4592 18.813 17.4576 19.1562V19.1716C17.4592 19.037 17.4559 19.2737 17.4559 19.2158C17.4559 19.2712 17.4803 19.1392 17.4576 19.1886C17.4494 19.2039 17.4454 19.2269 17.4429 19.2439C17.4348 19.295 17.4836 19.1801 17.4511 19.2184C17.4413 19.2312 17.4307 19.2507 17.425 19.2652C17.4047 19.3121 17.4803 19.2141 17.4397 19.2439C17.4275 19.2542 17.4112 19.2695 17.4031 19.2823C17.3828 19.3095 17.4746 19.2295 17.4015 19.2823C17.3974 19.284 17.3933 19.2865 17.3893 19.2891C17.3584 19.3061 17.3584 19.3061 17.3893 19.2908C17.3974 19.2865 17.4055 19.284 17.4137 19.2806C17.4015 19.2848 17.3893 19.2891 17.3747 19.2933C17.2771 19.3189 17.4494 19.2976 17.3462 19.3001H17.3299H17.3096H17.0267H15.6352H13.4527H10.8313H8.12613H5.69172H3.87744C3.60108 19.3001 3.32635 19.3018 3.04996 19.3001H3.03371H3.00526C2.93048 19.3001 3.02558 19.2959 3.03127 19.3044C3.02964 19.3001 2.98656 19.2916 2.97843 19.2891C2.90121 19.2703 3.00444 19.2933 3.00119 19.2993C2.99957 19.301 2.96055 19.2754 2.95486 19.272C2.88333 19.2363 3.00119 19.3299 2.95486 19.2703C2.95649 19.2746 2.91828 19.232 2.91828 19.2295C2.92804 19.2167 2.96299 19.3078 2.93454 19.2482C2.93617 19.2525 2.90853 19.2014 2.90853 19.1997C2.92316 19.1911 2.93292 19.2891 2.91828 19.2235C2.91828 19.2278 2.90365 19.1681 2.90365 19.1681C2.91585 19.1664 2.90772 19.2635 2.90772 19.1954V19.1656V19.1443V18.7952V17.0725V14.4923V11.6481V9.17863V7.65606V7.44998C2.84106 7.57346 2.7736 7.69523 2.70613 7.81785C3.20034 7.43721 3.69374 7.05316 4.18794 6.67252C4.51551 6.42132 4.83984 6.1701 5.16741 5.91891C5.78353 5.44374 6.4013 4.96943 7.01662 4.49256C7.73354 3.93905 8.45371 3.38555 9.17074 2.83204C9.56739 2.52719 9.97789 2.23425 10.364 1.91236C10.3705 1.9081 10.3762 1.90384 10.3819 1.89958H9.97138C10.303 2.15505 10.6314 2.4088 10.963 2.66427C11.6686 3.20756 12.3733 3.75 13.078 4.29499C13.7283 4.79741 14.3786 5.29812 15.0289 5.80052C15.2825 5.99637 15.5369 6.19223 15.7913 6.38808C16.3969 6.85642 17.0024 7.32479 17.6105 7.79313C17.6267 7.8059 17.6446 7.81868 17.6608 7.83401C17.8332 7.966 18.1226 7.86977 18.2176 7.68073C18.3298 7.45933 18.2567 7.23963 18.0713 7.09741C17.5121 6.66737 16.9537 6.23565 16.3953 5.80306C16.1311 5.59869 15.8685 5.39602 15.6052 5.1942C14.9915 4.72158 14.3778 4.24727 13.7616 3.77382C13.0398 3.21861 12.3188 2.66254 11.598 2.1048C11.1997 1.79825 10.8079 1.47296 10.399 1.18087C10.3925 1.17661 10.3868 1.17235 10.3811 1.16809C10.2755 1.0872 10.0763 1.0872 9.97064 1.16809C9.48944 1.53851 9.00986 1.90893 8.52785 2.27937C7.63372 2.96913 6.73958 3.65717 5.84706 4.34694C5.34309 4.73695 4.8375 5.1261 4.33356 5.51356C3.70361 5.99895 3.07527 6.48432 2.44776 6.96971C2.39737 7.00803 2.34779 7.04635 2.29739 7.08723C2.1714 7.18515 2.10068 7.29585 2.09418 7.46787C2.09255 7.51896 2.09418 7.57006 2.09418 7.62115V8.38753V11.2385V14.8082V17.8566C2.09418 18.2926 2.08442 18.732 2.09418 19.168C2.10637 19.7113 2.51522 20.1388 3.03301 20.149H3.11429H3.6467H5.87219H9.0707H12.4829H15.4188H17.1437C17.381 20.149 17.6086 20.1473 17.8224 20.0042C18.1069 19.8169 18.2695 19.4976 18.2711 19.1467V18.9832V16.9097V13.5375V10.0888V7.78548V7.46189C18.2711 7.23879 18.0841 7.0259 17.8647 7.03612C17.6419 7.05741 17.4574 7.23368 17.4574 7.47211L17.4576 7.47227Z" fill="#FFC600"/>
<path d="M17.6594 7.84109C18.0942 8.17746 18.5275 8.5121 18.9615 8.84762C19.0249 8.89616 19.0875 8.94555 19.1509 8.99409C19.3232 9.12608 19.6126 9.02985 19.7077 8.84081C19.8199 8.61941 19.7443 8.39972 19.5614 8.2575C19.1265 7.92113 18.6933 7.58648 18.2592 7.25096C18.1958 7.20242 18.1332 7.15304 18.0698 7.1045C17.8975 6.97251 17.6081 7.06873 17.513 7.25778C17.4017 7.48087 17.4773 7.70057 17.6594 7.84109V7.84109Z" fill="#FFC600"/>
<path d="M1.19033 8.99496C1.84466 8.49085 2.49737 7.98588 3.15091 7.48347C3.34436 7.33445 3.53945 7.18542 3.73209 7.03385C3.90279 6.90186 4.00683 6.65916 3.8784 6.45053C3.76867 6.27341 3.50449 6.15674 3.3216 6.29726C2.63069 6.82947 1.93816 7.36339 1.24722 7.8956C1.09116 8.01653 0.934281 8.13575 0.779839 8.25752C0.609143 8.38951 0.505101 8.63221 0.633528 8.84084C0.743261 9.01881 1.00825 9.13548 1.19033 8.99497V8.99496Z" fill="#FFC600"/>
<path d="M12.2032 11.9964V12.7645V14.6107V16.8434V18.7764C12.2032 19.0898 12.191 19.4065 12.2032 19.7199V19.7352L12.6096 19.3095H10.9693H8.35444H7.75294L8.15935 19.7352V17.9342V14.4328V12.0843V12.0119V12.0017V11.9719C8.15935 11.9038 8.16911 11.9991 8.15285 11.9991C8.15123 11.9991 8.17073 11.9225 8.17317 11.9183C8.19105 11.8348 8.1309 11.9906 8.17317 11.9183C8.1748 11.914 8.21219 11.8484 8.21381 11.8484C8.22844 11.8586 8.15285 11.9165 8.19918 11.8723C8.20325 11.868 8.25445 11.8144 8.25608 11.8169C8.26584 11.8322 8.17317 11.868 8.24795 11.8271C8.25446 11.8254 8.30485 11.7931 8.30485 11.7948C8.2886 11.8016 8.27234 11.8101 8.25608 11.8161C8.27234 11.8093 8.28859 11.8033 8.30648 11.799C8.31298 11.7973 8.35931 11.7863 8.35931 11.7863C8.29591 11.7948 8.28616 11.7948 8.3333 11.7931H8.36175H8.43084H9.63221H11.2969H11.8456H11.9838H12.0041H12.0187C12.1065 11.7948 12.0065 11.7973 12.0065 11.7888C12.0065 11.7871 12.0797 11.8075 12.0837 11.8101C12.1569 11.8288 12.0146 11.7633 12.0837 11.8101C12.0878 11.8118 12.1504 11.851 12.1504 11.8527C12.1463 11.8595 12.0756 11.7777 12.1276 11.8374C12.1317 11.8416 12.1829 11.8953 12.1805 11.897C12.174 11.9012 12.1252 11.805 12.1642 11.8757C12.1658 11.8799 12.2048 11.9455 12.2032 11.9481C12.1853 11.9549 12.1772 11.8586 12.191 11.9225C12.1927 11.9268 12.2114 12.0034 12.2114 12.0034C12.2097 11.9847 12.2073 11.9651 12.2032 11.9455V11.9966C12.2073 12.2197 12.3861 12.4326 12.6096 12.4224C12.825 12.4121 13.0226 12.235 13.0161 11.9966C13.0039 11.4107 12.5625 10.9449 12.0016 10.9339C11.9082 10.9322 11.8122 10.9339 11.7188 10.9339H10.1906H8.65839C8.55841 10.9339 8.45925 10.9322 8.35927 10.9339C7.81629 10.9441 7.38792 11.375 7.34484 11.9387C7.33021 12.1277 7.34322 12.3219 7.34322 12.5109V13.8521V17.4371C7.34322 18.1907 7.33346 18.9443 7.34322 19.6953V19.7293C7.34322 19.9593 7.53017 20.1551 7.74963 20.1551H9.38994H12.0048H12.6063C12.8257 20.1551 13.0127 19.9593 13.0127 19.7293V18.9613V17.1151V14.8824V12.9494C13.0127 12.636 13.0208 12.3209 13.0127 12.0058V11.9905C13.0127 11.7674 12.8257 11.5545 12.6063 11.5648C12.39 11.5809 12.2031 11.7581 12.2031 11.9965L12.2032 11.9964Z" fill="#FFC600"/>
</g>
<defs>
<clipPath id="clip0_4_8780">
<rect width="20" height="20" fill="white" transform="translate(0 0.5)"/>
</clipPath>
</defs>
</svg>
