<svg width="25" height="25" viewBox="0 0 25 25" fill="none" xmlns="http://www.w3.org/2000/svg">
<path d="M20.226 2H5.02404C3.30769 2 2 3.30769 2 5.02404V20.226C2 21.9423 3.30769 23.25 5.02404 23.25H20.226C21.9423 23.25 23.25 21.9423 23.25 20.226V5.02404C23.25 3.30769 21.9423 2 20.226 2ZM12.625 19C16.1394 19 19 16.2212 19 12.8702C19 12.2981 18.9183 11.6442 18.7548 11.1538H20.5529V19.8173C20.5529 20.226 20.226 20.6346 19.7356 20.6346H5.51443C5.10577 20.6346 4.69712 20.3077 4.69712 19.8173V11.0721H6.57693C6.41347 11.6442 6.33173 12.2163 6.33173 12.7885C6.25 16.2212 9.11058 19 12.625 19ZM12.625 16.5481C10.3365 16.5481 8.53846 14.75 8.53846 12.5433C8.53846 10.3365 10.3365 8.53846 12.625 8.53846C14.9135 8.53846 16.7115 10.3365 16.7115 12.5433C16.7115 14.8317 14.9135 16.5481 12.625 16.5481ZM20.4712 7.80288C20.4712 8.29327 20.0625 8.70192 19.5721 8.70192H17.2837C16.7933 8.70192 16.3846 8.29327 16.3846 7.80288V5.59615C16.3846 5.10577 16.7933 4.69711 17.2837 4.69711H19.5721C20.0625 4.69711 20.4712 5.10577 20.4712 5.59615V7.80288Z" fill="white"/>
</svg>
