<svg width="11" height="10" viewBox="0 0 11 10" fill="none" xmlns="http://www.w3.org/2000/svg">
<path d="M9.74998 5.25065L9.99803 5.28185L9.99998 5.26631V5.25065H9.74998ZM9.33331 8.56315L9.08527 8.53195L9.08331 8.54749V8.56315H9.33331ZM3.72915 9.18815L3.84096 8.96453L3.83804 8.96311L3.72915 9.18815ZM3.08331 8.87565H2.83331V9.03241L2.97442 9.10069L3.08331 8.87565ZM3.86109 4.10898L3.66904 3.94894L3.86109 4.10898ZM5.68748 0.917318L5.81424 0.701834L5.79791 0.692232L5.78033 0.685199L5.68748 0.917318ZM8.70831 3.91732H7.83331V4.41732H8.70831V3.91732ZM9.99998 5.22982C9.99998 4.49084 9.43296 3.91732 8.70831 3.91732V4.41732C9.15034 4.41732 9.49998 4.76046 9.49998 5.22982H9.99998ZM9.99998 5.25065V5.22982H9.49998V5.25065H9.99998ZM9.58136 8.59435L9.99803 5.28185L9.50194 5.21945L9.08527 8.53195L9.58136 8.59435ZM8.29165 9.83398C8.98563 9.83398 9.58331 9.27022 9.58331 8.56315H9.08331C9.08331 8.98108 8.72267 9.33398 8.29165 9.33398V9.83398ZM5.37498 9.83398H8.29165V9.33398H5.37498V9.83398ZM3.61734 9.41176C4.15002 9.6781 4.77146 9.83398 5.37498 9.83398V9.33398C4.8535 9.33398 4.30827 9.1982 3.84095 8.96454L3.61734 9.41176ZM2.97442 9.10069L3.62026 9.41319L3.83804 8.96311L3.1922 8.65061L2.97442 9.10069ZM2.83331 6.25725V8.87565H3.33331V6.25725H2.83331ZM3.66904 3.94894C3.12904 4.59694 2.83331 5.41374 2.83331 6.25725H3.33331C3.33331 5.53071 3.58803 4.82717 4.05315 4.26903L3.66904 3.94894ZM4.49998 1.65383C4.49998 2.49251 4.20595 3.30465 3.66904 3.94894L4.05315 4.26903C4.66494 3.53488 4.99998 2.60948 4.99998 1.65383H4.49998ZM4.49998 1.45898V1.65383H4.99998V1.45898H4.49998ZM5.37498 0.583984C4.90902 0.583984 4.49998 0.96136 4.49998 1.45898H4.99998C4.99998 1.24828 5.17427 1.08398 5.37498 1.08398V0.583984ZM5.78033 0.685199C5.68685 0.647807 5.53623 0.583984 5.37498 0.583984V1.08398C5.42206 1.08398 5.47978 1.1035 5.59463 1.14944L5.78033 0.685199ZM7.08331 3.12565C7.08331 2.71705 6.96242 2.23203 6.75104 1.79537C6.5403 1.36001 6.22539 0.943691 5.81424 0.701834L5.56072 1.1328C5.8579 1.30761 6.11591 1.63087 6.301 2.01322C6.48546 2.39428 6.58331 2.80509 6.58331 3.12565H7.08331ZM7.08331 3.16732V3.12565H6.58331V3.16732H7.08331ZM7.83331 3.91732C7.4191 3.91732 7.08331 3.58153 7.08331 3.16732H6.58331C6.58331 3.85767 7.14296 4.41732 7.83331 4.41732V3.91732ZM2.45833 4.33398H1.20833V4.83398H2.45833V4.33398ZM2.91667 4.79232C2.91667 4.67301 2.8758 4.55415 2.78615 4.4645C2.6965 4.37485 2.57765 4.33398 2.45833 4.33398V4.83398C2.46176 4.83398 2.45968 4.83453 2.45388 4.83229C2.44785 4.82998 2.44002 4.82547 2.4326 4.81805C2.42518 4.81063 2.42068 4.80281 2.41836 4.79678C2.41612 4.79097 2.41667 4.78889 2.41667 4.79232H2.91667ZM2.91667 9.37565V4.79232H2.41667V9.37565H2.91667ZM2.45833 9.83398C2.57765 9.83398 2.6965 9.79312 2.78615 9.70347C2.8758 9.61382 2.91667 9.49496 2.91667 9.37565H2.41667C2.41667 9.37908 2.41612 9.377 2.41836 9.37119C2.42068 9.36516 2.42518 9.35734 2.4326 9.34992C2.44002 9.3425 2.44784 9.33799 2.45387 9.33567C2.45968 9.33344 2.46176 9.33398 2.45833 9.33398V9.83398ZM1.20833 9.83398H2.45833V9.33398H1.20833V9.83398ZM0.75 9.37565C0.75 9.49496 0.790862 9.61382 0.880515 9.70347C0.970168 9.79312 1.08902 9.83398 1.20833 9.83398V9.33398C1.2049 9.33398 1.20699 9.33344 1.21279 9.33567C1.21882 9.33799 1.22665 9.3425 1.23407 9.34992C1.24149 9.35734 1.24599 9.36516 1.24831 9.37119C1.25054 9.377 1.25 9.37908 1.25 9.37565H0.75ZM0.75 4.79232V9.37565H1.25V4.79232H0.75ZM1.20833 4.33398C1.08902 4.33398 0.970168 4.37485 0.880515 4.4645C0.790862 4.55415 0.75 4.67301 0.75 4.79232H1.25C1.25 4.78889 1.25054 4.79097 1.24831 4.79678C1.24599 4.80281 1.24149 4.81063 1.23407 4.81805C1.22665 4.82547 1.21882 4.82998 1.21279 4.83229C1.20699 4.83453 1.2049 4.83398 1.20833 4.83398V4.33398Z" fill="url(#paint0_linear_4_3151)"/>
<defs>
<linearGradient id="paint0_linear_4_3151" x1="1" y1="5.20898" x2="9.75" y2="5.20898" gradientUnits="userSpaceOnUse">
<stop stop-color="#4481EB"/>
<stop offset="1" stop-color="#04BEFE"/>
</linearGradient>
</defs>
</svg>
