<svg width="25" height="25" viewBox="0 0 25 25" fill="none" xmlns="http://www.w3.org/2000/svg">
<path d="M21.75 14.9305V21.8251H17.7141V15.3509C17.7141 13.7534 17.1256 12.6603 15.6962 12.6603C14.6031 12.6603 13.9305 13.417 13.6783 14.0897C13.5942 14.3419 13.5101 14.6783 13.5101 15.0987V21.8251H9.47421C9.47421 21.8251 9.55829 10.8946 9.47421 9.80157H13.5101V11.4832C14.0146 10.6424 15.0235 9.46525 17.1256 9.46525C19.7321 9.46525 21.75 11.2309 21.75 14.9305ZM5.27018 4C3.92489 4 3 4.92489 3 6.10202C3 7.27915 3.84081 8.20404 5.1861 8.20404C6.61547 8.20404 7.45628 7.27915 7.45628 6.10202C7.54036 4.84081 6.69955 4 5.27018 4ZM3.25224 21.8251H7.28812V9.80157H3.25224V21.8251Z" fill="white"/>
</svg>
