<svg width="25" height="25" viewBox="0 0 25 25" fill="none" xmlns="http://www.w3.org/2000/svg">
<path d="M24.9771 20.6844C24.9907 20.6405 25 20.5941 25 20.5454V4.45402C25 4.40496 24.9907 4.35831 24.9768 4.31409C24.9748 4.30803 24.9736 4.30198 24.9713 4.29592C24.9527 4.24412 24.9255 4.19748 24.8912 4.15659C24.8889 4.15387 24.8886 4.15053 24.8863 4.14781C24.8849 4.14629 24.8831 4.14569 24.8817 4.14417C24.8451 4.10359 24.8019 4.07087 24.7535 4.04634C24.7497 4.04452 24.7468 4.0421 24.7431 4.04028C24.6972 4.01878 24.6474 4.00666 24.5949 4.00303C24.5896 4.00273 24.5847 4.00151 24.5795 4.00151C24.5746 4.00121 24.5702 4 24.5653 4H0.4353C0.430369 4 0.425729 4.00121 0.420799 4.00151C0.416159 4.00182 0.411519 4.00273 0.406879 4.00303C0.353808 4.00666 0.303057 4.01908 0.256656 4.04089C0.253756 4.0421 0.251435 4.04422 0.248535 4.04543C0.199234 4.06997 0.155443 4.10328 0.118613 4.14448C0.117163 4.14599 0.115422 4.14629 0.113972 4.14781C0.111652 4.15023 0.111362 4.15356 0.109042 4.15629C0.0748216 4.19718 0.047271 4.24412 0.0287106 4.29592C0.0263906 4.30198 0.0252305 4.30803 0.0232005 4.31439C0.00928018 4.35862 0 4.40526 0 4.45433V20.546C0 20.5956 0.00957015 20.6429 0.0237805 20.6877C0.0258105 20.6938 0.0269706 20.6995 0.0290006 20.7056C0.047851 20.7577 0.0756916 20.8046 0.110202 20.8455C0.112232 20.848 0.112812 20.851 0.114842 20.8534C0.116583 20.8555 0.118903 20.8567 0.120933 20.8589C0.135143 20.8743 0.150803 20.8879 0.167044 20.9013C0.174294 20.907 0.180674 20.914 0.188214 20.9194C0.207354 20.9334 0.227945 20.9446 0.249115 20.9549C0.254336 20.9573 0.258976 20.9612 0.264196 20.9634C0.316687 20.9867 0.374398 21 0.435009 21H24.5647C24.6253 21 24.683 20.987 24.7355 20.9634C24.7436 20.9597 24.7512 20.9543 24.759 20.95C24.777 20.9406 24.795 20.9309 24.8115 20.9191C24.8202 20.9128 24.828 20.9046 24.8364 20.8976C24.8512 20.8852 24.8657 20.8728 24.8785 20.8586C24.8808 20.8561 24.8834 20.8543 24.8857 20.8519C24.8881 20.8492 24.8886 20.8455 24.891 20.8428C24.9249 20.8022 24.9521 20.7556 24.9707 20.7041C24.9736 20.6974 24.9751 20.6911 24.9771 20.6844ZM0.870309 5.48444L8.1921 12.4693L0.870309 19.5098V5.48444ZM15.877 12.127C15.8468 12.1476 15.8149 12.1649 15.7897 12.1939C15.7801 12.2048 15.7769 12.2191 15.7685 12.2306L12.5001 15.3485L1.55646 4.90835H23.4438L15.877 12.127ZM8.83707 13.0844L12.2067 16.2989C12.2899 16.3783 12.3949 16.418 12.5001 16.418C12.6054 16.418 12.7104 16.3783 12.7933 16.2989L16.1212 13.1244L23.4418 20.0913H1.55008L8.83707 13.0844ZM16.7664 12.5089L24.13 5.48444V19.5171L16.7664 12.5089Z" fill="#FCFEFF"/>
</svg>
