<svg width="15" height="16" viewBox="0 0 15 16" fill="none" xmlns="http://www.w3.org/2000/svg">
<g clip-path="url(#clip0_589_81835)">
<path d="M7.49789 10.8844C8.29126 10.8844 8.97021 10.6019 9.53509 10.0372C10.0999 9.47259 10.3823 8.79329 10.3823 7.99998V3.38469C10.3823 2.59138 10.1001 1.91237 9.53509 1.34743C8.97021 0.782613 8.29126 0.5 7.49789 0.5C6.70461 0.5 6.02556 0.782613 5.46065 1.34743C4.8957 1.91227 4.61328 2.59138 4.61328 3.38469V7.99998C4.61328 8.79326 4.89583 9.47259 5.46065 10.0372C6.02546 10.6019 6.70461 10.8844 7.49789 10.8844Z" fill="#7E8389"/>
<path d="M12.5198 6.43938C12.406 6.32518 12.2705 6.26807 12.1142 6.26807C11.9581 6.26807 11.8229 6.32518 11.7086 6.43938C11.5945 6.55355 11.5374 6.68875 11.5374 6.84495V7.99886C11.5374 9.11069 11.1422 10.0617 10.3519 10.8519C9.5619 11.6422 8.61082 12.0373 7.49896 12.0373C6.38714 12.0373 5.43615 11.6422 4.64584 10.8519C3.85563 10.0619 3.46055 9.11072 3.46055 7.99886V6.84495C3.46055 6.68875 3.40343 6.55355 3.2893 6.43938C3.1751 6.32518 3.04003 6.26807 2.88367 6.26807C2.72732 6.26807 2.59209 6.32518 2.47796 6.43938C2.36373 6.55355 2.30664 6.68875 2.30664 6.84495V7.99886C2.30664 9.327 2.74993 10.4824 3.63626 11.4649C4.52261 12.4474 5.61786 13.0107 6.92203 13.1549V14.3449H4.61436C4.45811 14.3449 4.32291 14.4021 4.20874 14.5163C4.09454 14.6304 4.03743 14.7657 4.03743 14.9219C4.03743 15.0779 4.09454 15.2134 4.20874 15.3275C4.32291 15.4416 4.45811 15.4989 4.61436 15.4989H10.3834C10.5396 15.4989 10.675 15.4417 10.789 15.3275C10.9034 15.2135 10.9605 15.078 10.9605 14.9219C10.9605 14.7657 10.9034 14.6304 10.789 14.5163C10.675 14.4021 10.5397 14.3449 10.3834 14.3449H8.07603V13.1549C9.37998 13.0107 10.4751 12.4474 11.3616 11.4649C12.248 10.4824 12.6914 9.327 12.6914 7.99886V6.84495C12.6914 6.68878 12.6342 6.55368 12.5198 6.43938Z" fill="#7E8389"/>
</g>
<defs>
<clipPath id="clip0_589_81835">
<rect width="15" height="15" fill="white" transform="translate(0 0.5)"/>
</clipPath>
</defs>
</svg>
