<svg width="27" height="26" viewBox="0 0 27 26" fill="none" xmlns="http://www.w3.org/2000/svg">
<g clip-path="url(#clip0_430_57039)">
<path d="M25.4493 6.33557C24.9563 5.7333 24.1896 5.36725 23.3962 5.36725H6.72608L6.20642 3.43062C5.90486 2.30482 4.86553 1.51953 3.66042 1.51953H0.86856C0.403423 1.51953 0.0195312 1.88558 0.0195312 2.33142C0.0195312 2.77621 0.402328 3.1433 0.86856 3.1433H3.66042C4.07103 3.1433 4.42711 3.40507 4.53617 3.79771L7.87551 16.52C8.17706 17.6458 9.2164 18.431 10.4215 18.431H21.3431C22.5472 18.431 23.6154 17.6458 23.8891 16.52L25.9422 8.45737C26.1336 7.7232 25.97 6.93791 25.4492 6.33565L25.4493 6.33557ZM24.2731 8.08918L22.22 16.1518C22.1109 16.5444 21.7549 16.8062 21.3443 16.8062H10.4215C10.0109 16.8062 9.65484 16.5444 9.54578 16.1518L7.16447 7.01673H23.3975C23.6712 7.01673 23.9449 7.14761 24.1096 7.35723C24.2732 7.56583 24.3545 7.8276 24.2732 8.08936L24.2731 8.08918Z" fill="white"/>
<path d="M10.9967 19.4758C9.43664 19.4758 8.15039 20.7059 8.15039 22.1977C8.15039 23.6894 9.43675 24.9195 10.9967 24.9195C12.5568 24.9205 13.8431 23.6904 13.8431 22.1985C13.8431 20.7065 12.5567 19.4756 10.9967 19.4756V19.4758ZM10.9967 23.2714C10.3669 23.2714 9.87396 22.8 9.87396 22.1978C9.87396 21.5955 10.3669 21.1241 10.9967 21.1241C11.6265 21.1241 12.1195 21.5955 12.1195 22.1978C12.1184 22.7745 11.5988 23.2714 10.9967 23.2714Z" fill="white"/>
<path d="M20.4127 19.4756C18.8527 19.4756 17.5664 20.7057 17.5664 22.1974C17.5664 23.6891 18.8528 24.9192 20.4127 24.9192C21.9727 24.9192 23.2591 23.6891 23.2591 22.1974C23.2324 20.7066 21.9727 19.4756 20.4127 19.4756ZM20.4127 23.2712C19.7829 23.2712 19.29 22.7998 19.29 22.1975C19.29 21.5952 19.7829 21.1239 20.4127 21.1239C21.0426 21.1239 21.5355 21.5952 21.5355 22.1975C21.5355 22.7742 21.0148 23.2712 20.4127 23.2712Z" fill="white"/>
</g>
<defs>
<clipPath id="clip0_430_57039">
<rect width="26" height="26" fill="white" transform="translate(0.0195312)"/>
</clipPath>
</defs>
</svg>
