<svg width="18" height="18" viewBox="0 0 18 18" fill="none" xmlns="http://www.w3.org/2000/svg">
<path d="M17.0738 12.5807H4.4931C4.25477 12.5807 4.0262 12.486 3.85768 12.3175C3.68915 12.149 3.59448 11.9204 3.59448 11.6821C3.59448 11.4437 3.68915 11.2152 3.85768 11.0466C4.0262 10.8781 4.25477 10.7834 4.4931 10.7834H13.8747C14.4756 10.7835 15.0592 10.5828 15.533 10.2132C16.0067 9.84363 16.3435 9.32637 16.4897 8.74357L17.9724 2.91153C18.006 2.7789 18.009 2.64034 17.9809 2.5064C17.9529 2.37247 17.8947 2.24671 17.8106 2.13872C17.7232 2.02794 17.611 1.93931 17.483 1.87998C17.355 1.82066 17.2148 1.79231 17.0738 1.79724H4.27743C4.09203 1.27285 3.74898 0.818641 3.2953 0.496881C2.84162 0.175122 2.29952 0.00156316 1.74332 0H0.89862C0.660291 0 0.431723 0.0946757 0.2632 0.2632C0.0946757 0.431723 0 0.660291 0 0.89862C0 1.13695 0.0946757 1.36552 0.2632 1.53404C0.431723 1.70256 0.660291 1.79724 0.89862 1.79724H1.74332C1.9486 1.79126 2.14973 1.85577 2.31323 1.98003C2.47673 2.10429 2.59274 2.28081 2.64194 2.48019L2.69586 2.91153L4.25047 8.9862C3.53548 9.01837 2.86256 9.33326 2.37974 9.86158C1.89692 10.3899 1.64375 11.0884 1.67593 11.8034C1.7081 12.5184 2.02298 13.1913 2.55131 13.6741C3.07963 14.1569 3.77811 14.4101 4.4931 14.3779H4.65485C4.50706 14.7851 4.45957 15.2219 4.5164 15.6514C4.57323 16.0808 4.73271 16.4902 4.98133 16.8449C5.22996 17.1997 5.5604 17.4893 5.94469 17.6892C6.32897 17.8891 6.75577 17.9935 7.18896 17.9935C7.62214 17.9935 8.04895 17.8891 8.43323 17.6892C8.81751 17.4893 9.14796 17.1997 9.39658 16.8449C9.6452 16.4902 9.80468 16.0808 9.86152 15.6514C9.91835 15.2219 9.87086 14.7851 9.72306 14.3779H11.8438C11.696 14.7851 11.6485 15.2219 11.7054 15.6514C11.7622 16.0808 11.9217 16.4902 12.1703 16.8449C12.4189 17.1997 12.7494 17.4893 13.1336 17.6892C13.5179 17.8891 13.9447 17.9935 14.3779 17.9935C14.8111 17.9935 15.2379 17.8891 15.6222 17.6892C16.0065 17.4893 16.3369 17.1997 16.5855 16.8449C16.8342 16.4902 16.9936 16.0808 17.0505 15.6514C17.1073 15.2219 17.0598 14.7851 16.912 14.3779H17.0738C17.3121 14.3779 17.5407 14.2832 17.7092 14.1147C17.8777 13.9462 17.9724 13.7176 17.9724 13.4793C17.9724 13.241 17.8777 13.0124 17.7092 12.8439C17.5407 12.6754 17.3121 12.5807 17.0738 12.5807ZM15.9235 3.59448L14.7463 8.30325C14.6971 8.50263 14.5811 8.67914 14.4176 8.80341C14.2541 8.92767 14.053 8.99218 13.8477 8.9862H6.09264L4.74471 3.59448H15.9235ZM7.18896 16.1752C7.01123 16.1752 6.83749 16.1225 6.68971 16.0237C6.54193 15.925 6.42676 15.7846 6.35874 15.6204C6.29073 15.4562 6.27293 15.2755 6.3076 15.1012C6.34228 14.9269 6.42786 14.7668 6.55354 14.6411C6.67921 14.5154 6.83933 14.4299 7.01365 14.3952C7.18796 14.3605 7.36864 14.3783 7.53284 14.4463C7.69705 14.5143 7.83739 14.6295 7.93613 14.7773C8.03487 14.9251 8.08758 15.0988 8.08758 15.2765C8.08758 15.5149 7.9929 15.7434 7.82438 15.912C7.65585 16.0805 7.42729 16.1752 7.18896 16.1752ZM14.3779 16.1752C14.2002 16.1752 14.0264 16.1225 13.8787 16.0237C13.7309 15.925 13.6157 15.7846 13.5477 15.6204C13.4797 15.4562 13.4619 15.2755 13.4966 15.1012C13.5312 14.9269 13.6168 14.7668 13.7425 14.6411C13.8682 14.5154 14.0283 14.4299 14.2026 14.3952C14.3769 14.3605 14.5576 14.3783 14.7218 14.4463C14.886 14.5143 15.0263 14.6295 15.1251 14.7773C15.2238 14.9251 15.2765 15.0988 15.2765 15.2765C15.2765 15.5149 15.1819 15.7434 15.0133 15.912C14.8448 16.0805 14.6162 16.1752 14.3779 16.1752Z" fill="#FFC600"/>
</svg>
