<svg width="24" height="24" viewBox="0 0 24 24" fill="none" xmlns="http://www.w3.org/2000/svg">
<path fill-rule="evenodd" clip-rule="evenodd" d="M4.58579 2.58579C4.96086 2.21071 5.46957 2 6 2H18C18.5304 2 19.0391 2.21071 19.4142 2.58579C19.7893 2.96086 20 3.46957 20 4V9C21.1046 9 22 9.89543 22 11V20C22 21.1046 21.1046 22 20 22H4C2.89543 22 2 21.1046 2 20V11C2 9.89543 2.89543 9 4 9V4C4 3.46957 4.21071 2.96086 4.58579 2.58579ZM4 11V20H9V17C9 16.4477 9.44772 16 10 16H17.5C18.0523 16 18.5 16.4477 18.5 17V20H20V11H4ZM18 9H6V4H18V9ZM16.5 20V18H11V20H16.5ZM5 13C5 12.4477 5.44772 12 6 12H7.5C8.05228 12 8.5 12.4477 8.5 13C8.5 13.5523 8.05228 14 7.5 14H6C5.44772 14 5 13.5523 5 13Z" fill="#1E85DA"/>
</svg>
