<svg width="19" height="18" viewBox="0 0 19 18" fill="none" xmlns="http://www.w3.org/2000/svg">
<path d="M9.79297 16.5C5.65072 16.5 2.29297 13.1422 2.29297 9C2.29297 4.85775 5.65072 1.5 9.79297 1.5C13.9352 1.5 17.293 4.85775 17.293 9C17.293 13.1422 13.9352 16.5 9.79297 16.5ZM9.79297 15C11.3843 15 12.9104 14.3679 14.0356 13.2426C15.1608 12.1174 15.793 10.5913 15.793 9C15.793 7.4087 15.1608 5.88258 14.0356 4.75736C12.9104 3.63214 11.3843 3 9.79297 3C8.20167 3 6.67555 3.63214 5.55033 4.75736C4.42511 5.88258 3.79297 7.4087 3.79297 9C3.79297 10.5913 4.42511 12.1174 5.55033 13.2426C6.67555 14.3679 8.20167 15 9.79297 15ZM9.04297 11.25H10.543V12.75H9.04297V11.25ZM10.543 10.0162V10.5H9.04297V9.375C9.04297 9.17609 9.12199 8.98532 9.26264 8.84467C9.40329 8.70402 9.59406 8.625 9.79297 8.625C10.006 8.62499 10.2147 8.56447 10.3947 8.4505C10.5747 8.33652 10.7187 8.17377 10.8098 7.98119C10.9009 7.7886 10.9355 7.5741 10.9095 7.36263C10.8835 7.15117 10.7979 6.95144 10.6628 6.78668C10.5278 6.62193 10.3487 6.49892 10.1464 6.43198C9.94412 6.36503 9.727 6.3569 9.52029 6.40853C9.31358 6.46016 9.12578 6.56942 8.97874 6.72361C8.83171 6.8778 8.73148 7.07057 8.68972 7.2795L7.21822 6.98475C7.30944 6.52881 7.5201 6.10528 7.82866 5.75744C8.13722 5.4096 8.53261 5.14994 8.97441 5.00499C9.41621 4.86004 9.88858 4.83501 10.3432 4.93246C10.7979 5.02991 11.2185 5.24634 11.5621 5.55962C11.9057 5.8729 12.1599 6.2718 12.2988 6.71555C12.4377 7.15929 12.4563 7.63196 12.3526 8.08523C12.249 8.5385 12.0268 8.95612 11.7089 9.2954C11.3909 9.63467 10.9886 9.88343 10.543 10.0162Z" fill="#1E85DA"/>
</svg>
