<svg width="25" height="24" viewBox="0 0 25 24" fill="none" xmlns="http://www.w3.org/2000/svg">
<path d="M12.7273 3.27273V0L8.36363 4.36364L12.7273 8.72727V5.45455C16.3273 5.45455 19.2728 8.4 19.2728 12C19.2728 13.0909 18.9455 14.1818 18.5091 15.0545L20.1455 16.6909C20.9091 15.2727 21.4546 13.7455 21.4546 12C21.4546 7.2 17.5273 3.27273 12.7273 3.27273ZM12.7273 18.5455C9.12727 18.5455 6.18182 15.6 6.18182 12C6.18182 10.9091 6.50909 9.81818 6.94545 8.94545L5.30909 7.30909C4.54545 8.72727 4 10.2545 4 12C4 16.8 7.92727 20.7273 12.7273 20.7273V24L17.0909 19.6364L12.7273 15.2727V18.5455Z" fill="#FCFEFF"/>
</svg>
