<svg width="15" height="16" viewBox="0 0 15 16" fill="none" xmlns="http://www.w3.org/2000/svg">
<g clip-path="url(#clip0_589_81841)">
<path d="M14.502 14.1582L11.0508 10.707C11.9063 9.66406 12.4219 8.32813 12.4219 6.87207C12.4219 3.53223 9.71191 0.822266 6.37207 0.822266C3.0293 0.822266 0.322266 3.53223 0.322266 6.87207C0.322266 10.2119 3.0293 12.9219 6.37207 12.9219C7.82813 12.9219 9.16113 12.4092 10.2041 11.5537L13.6553 15.002C13.8896 15.2363 14.2676 15.2363 14.502 15.002C14.7363 14.7705 14.7363 14.3896 14.502 14.1582ZM6.37207 11.7178C3.69727 11.7178 1.52344 9.54395 1.52344 6.87207C1.52344 4.2002 3.69727 2.02344 6.37207 2.02344C9.04395 2.02344 11.2207 4.2002 11.2207 6.87207C11.2207 9.54395 9.04395 11.7178 6.37207 11.7178Z" fill="#7E8389"/>
</g>
<defs>
<clipPath id="clip0_589_81841">
<rect width="15" height="15" fill="white" transform="translate(0 0.5)"/>
</clipPath>
</defs>
</svg>
