<svg width="20" height="20" viewBox="0 0 20 20" fill="none" xmlns="http://www.w3.org/2000/svg">
<path d="M0.540428 9.68246C-0.206023 10.0741 -0.175056 10.6476 0.607525 10.9573L2.92623 11.8747C3.70946 12.1857 4.89462 12.016 5.55849 11.4979L15.6275 3.5573C16.2895 3.03665 16.3604 3.11343 15.7856 3.72891L7.82559 12.2489C7.24882 12.8625 7.41914 13.616 8.20494 13.9199L8.47656 14.0257C9.26236 14.3296 10.543 14.8399 11.3237 15.1573L13.8953 16.2044C14.6766 16.5218 15.5114 16.1476 15.7333 15.3347L19.6527 0.928264C19.874 0.115361 19.4443 -0.229801 18.6978 0.161167L0.540428 9.68246Z" fill="white"/>
<path d="M6.90348 19.1145C6.85767 19.2519 8.48928 16.7519 8.48928 16.7519C8.95057 16.0474 8.68864 15.2067 7.90928 14.888L6.12993 14.1596C5.35057 13.8409 4.97703 14.2151 5.29961 14.9938C5.29961 14.9938 6.95057 18.9732 6.90348 19.1145Z" fill="white"/>
</svg>
