<svg width="18" height="18" viewBox="0 0 18 18" fill="none" xmlns="http://www.w3.org/2000/svg">
<path d="M11.7487 14.1927C11.3877 14.1927 11.0226 14.1498 10.6585 14.0637C8.02289 13.4414 4.26206 9.91542 3.59835 7.44439C3.33019 6.44734 3.4562 5.4442 3.9616 4.54453C4.18177 4.15288 4.57456 3.89022 5.03982 3.82357C5.50046 3.75909 5.95557 3.898 6.28606 4.20785L7.36428 5.21875C7.78893 5.61689 7.9117 6.22532 7.67029 6.7325C7.54383 6.99907 7.38228 7.22497 7.19027 7.40456C7.05872 7.52832 7.03242 7.73258 7.11226 8.01171C7.40258 9.0278 8.96916 10.497 10.0534 10.7697C10.3516 10.8445 10.5694 10.8199 10.701 10.6961C10.893 10.5161 11.1344 10.3646 11.4183 10.246C11.9592 10.0188 12.6081 10.1348 13.0328 10.5325L14.111 11.5434C14.4415 11.8533 14.591 12.2795 14.5209 12.7123C14.4503 13.1481 14.1701 13.5168 13.7519 13.7228C13.1205 14.0352 12.4419 14.1927 11.7487 14.1927ZM5.25953 4.50044C5.22307 4.50044 5.1866 4.50304 5.14968 4.50823C4.9189 4.54112 4.72411 4.67182 4.61427 4.86698C4.18916 5.62429 4.08809 6.43479 4.31378 7.27564C4.91474 9.51336 8.4513 12.8295 10.838 13.3926C11.7349 13.6046 12.5993 13.5094 13.4071 13.1108C13.6153 13.0078 13.7546 12.8252 13.7897 12.6088C13.8243 12.3964 13.7505 12.1865 13.5876 12.0337L12.5093 11.0228C12.2998 10.8268 11.9818 10.7688 11.7173 10.8787C11.5161 10.9631 11.3494 11.0661 11.2216 11.186C10.9936 11.3997 10.5726 11.617 9.86084 11.4387C8.50802 11.099 6.76007 9.45976 6.39731 8.1914C6.20668 7.52454 6.43885 7.12901 6.66686 6.91561C6.79471 6.79575 6.90457 6.63952 6.99411 6.45128C7.11181 6.20374 7.04996 5.90558 6.8404 5.70868L5.76357 4.69735C5.62695 4.5697 5.44784 4.50044 5.25953 4.50044Z" fill="#FFC600"/>
<path fill-rule="evenodd" clip-rule="evenodd" d="M9 17C13.4183 17 17 13.4183 17 9C17 4.58172 13.4183 1 9 1C4.58172 1 1 4.58172 1 9C1 13.4183 4.58172 17 9 17ZM9 18C13.9706 18 18 13.9706 18 9C18 4.02944 13.9706 0 9 0C4.02944 0 0 4.02944 0 9C0 13.9706 4.02944 18 9 18Z" fill="#FFCF00"/>
</svg>
