<svg width="16" height="16" viewBox="0 0 16 16" fill="none" xmlns="http://www.w3.org/2000/svg">
<path d="M11.4593 15.4994C10.9705 15.4994 10.4761 15.4375 9.98298 15.3131C6.41397 14.4143 1.32119 9.32155 0.422414 5.75254C0.0592725 4.31245 0.229907 2.86357 0.914315 1.56413C1.21246 0.998466 1.74436 0.619083 2.3744 0.522822C2.99818 0.429691 3.61447 0.630329 4.06202 1.07786L5.52211 2.53795C6.09715 3.11299 6.2634 3.99178 5.9365 4.72432C5.76524 5.10933 5.54648 5.43561 5.28646 5.695C5.10832 5.87376 5.0727 6.16877 5.18083 6.57193C5.57397 8.03952 7.69538 10.1616 9.16362 10.5554C9.56739 10.6635 9.86242 10.6279 10.0406 10.4491C10.3006 10.1891 10.6275 9.97033 11.0119 9.79907C11.7444 9.47092 12.6232 9.63844 13.1982 10.2128L14.6583 11.6729C15.1058 12.1205 15.3084 12.7361 15.2134 13.3612C15.1177 13.9906 14.7383 14.5231 14.172 14.8206C13.317 15.2719 12.3981 15.4994 11.4593 15.4994ZM2.67192 1.50046C2.62255 1.50046 2.57317 1.50421 2.52316 1.51171C2.21065 1.55922 1.94687 1.74798 1.79813 2.02987C1.22246 3.12368 1.08559 4.29433 1.39122 5.5088C2.20502 8.74083 6.99412 13.5305 10.2261 14.3437C11.4406 14.65 12.6112 14.5125 13.7051 13.9368C13.987 13.7881 14.1757 13.5243 14.2232 13.2118C14.2701 12.9049 14.1701 12.6017 13.9495 12.3811L12.4894 10.921C12.2056 10.6379 11.775 10.5541 11.4168 10.7129C11.1443 10.8348 10.9187 10.9835 10.7455 11.1567C10.4368 11.4654 9.86673 11.7792 8.90287 11.5217C7.07092 11.031 4.7039 8.66342 4.21267 6.83147C3.95453 5.86829 4.26892 5.29701 4.57768 4.9888C4.75082 4.81567 4.89958 4.59002 5.02083 4.31814C5.18022 3.96061 5.09646 3.52996 4.81269 3.24558L3.35448 1.78487C3.16947 1.60049 2.92693 1.50046 2.67192 1.50046Z" fill="#FFC600"/>
</svg>
