<svg width="25" height="25" viewBox="0 0 25 25" fill="none" xmlns="http://www.w3.org/2000/svg">
<path d="M23.1414 11.1414C23.1414 10.6566 23.0606 10.0909 23.0606 9.44444C22.9798 8.79798 22.899 8.15151 22.8182 7.58586C22.6566 6.93939 22.4141 6.45455 21.9293 6.05051C21.5253 5.64647 20.9596 5.40404 20.3939 5.32323C18.5354 5.0808 15.7879 5 12.0707 5C8.35355 5 5.52525 5.0808 3.74747 5.32323C3.18181 5.40404 2.61616 5.64647 2.21212 6.05051C1.80808 6.45455 1.48484 6.93939 1.32323 7.58586C1.16161 8.15151 1.08081 8.71717 1.08081 9.44444C1 10.0909 1 10.6566 1 11.1414C1 11.6263 1 12.1919 1 13C1 13.8081 1 14.4545 1 14.8586C1 15.3434 1.08081 15.9091 1.08081 16.5556C1.16162 17.202 1.24242 17.8485 1.32323 18.4141C1.48484 19.0606 1.72727 19.5455 2.21212 19.9495C2.61616 20.3535 3.18181 20.596 3.74747 20.6768C5.60606 20.9192 8.35355 21 12.0707 21C15.7879 21 18.6162 20.9192 20.3939 20.6768C20.9596 20.596 21.5253 20.3535 21.9293 19.9495C22.3333 19.5455 22.6566 19.0606 22.8182 18.4141C22.9798 17.8485 23.0606 17.2828 23.0606 16.5556C23.1414 15.9091 23.1414 15.3434 23.1414 14.8586C23.1414 14.3737 23.1414 13.8081 23.1414 13C23.1414 12.1919 23.1414 11.5454 23.1414 11.1414ZM16.3535 13.6465L9.9697 17.6061C9.88889 17.6869 9.72728 17.7677 9.56566 17.7677C9.40405 17.7677 9.32324 17.7677 9.16162 17.6869C8.9192 17.5253 8.75758 17.2828 8.75758 16.9596V8.95959C8.75758 8.63636 8.9192 8.39394 9.16162 8.23232C9.40405 8.07071 9.72728 8.07071 9.9697 8.23232L16.3535 12.1919C16.596 12.3535 16.7576 12.596 16.7576 12.8384C16.7576 13.0808 16.596 13.4848 16.3535 13.6465Z" fill="white"/>
</svg>
