<svg width="50" height="50" viewBox="0 0 50 50" fill="none" xmlns="http://www.w3.org/2000/svg">
<path opacity="0.2" d="M48.9034 12.184C47.9554 11.0258 46.481 10.3218 44.9552 10.3218H12.8972L11.8979 6.59753C11.3179 4.43254 9.31923 2.92236 7.00172 2.92236H1.63275C0.738253 2.92236 0 3.62631 0 4.48368C0 5.33905 0.736147 6.045 1.63275 6.045H7.00172C7.79135 6.045 8.47612 6.5484 8.68584 7.30348L15.1077 31.7693C15.6876 33.9343 17.6863 35.4445 20.0038 35.4445H41.0069C43.3224 35.4445 45.3767 33.9343 45.9031 31.7693L49.8512 16.2644C50.2193 14.8525 49.9047 13.3423 48.9033 12.1841L48.9034 12.184ZM46.6414 15.5563L42.6932 31.0613C42.4835 31.8164 41.7987 32.3198 41.0091 32.3198H20.0038C19.2142 32.3198 18.5294 31.8164 18.3197 31.0613L13.7403 13.4939H44.9576C45.484 13.4939 46.0104 13.7456 46.3271 14.1487C46.6417 14.5499 46.798 15.0533 46.6417 15.5566L46.6414 15.5563Z" fill="url(#paint0_linear_4_8436)"/>
<path opacity="0.2" d="M21.1114 37.4536C18.1112 37.4536 15.6377 39.8192 15.6377 42.6879C15.6377 45.5566 18.1115 47.9222 21.1114 47.9222C24.1116 47.9241 26.5851 45.5586 26.5851 42.6894C26.5851 39.8202 24.1114 37.4531 21.1114 37.4531V37.4536ZM21.1114 44.7528C19.9002 44.7528 18.9523 43.8463 18.9523 42.6881C18.9523 41.5299 19.9002 40.6234 21.1114 40.6234C22.3226 40.6234 23.2706 41.5299 23.2706 42.6881C23.2685 43.7971 22.2692 44.7528 21.1114 44.7528Z" fill="url(#paint1_linear_4_8436)"/>
<path opacity="0.2" d="M39.2188 37.4536C36.2187 37.4536 33.7451 39.8192 33.7451 42.6879C33.7451 45.5566 36.2189 47.9222 39.2188 47.9222C42.2188 47.9222 44.6926 45.5566 44.6926 42.6879C44.6412 39.8209 42.2188 37.4536 39.2188 37.4536ZM39.2188 44.7528C38.0077 44.7528 37.0597 43.8463 37.0597 42.6881C37.0597 41.5299 38.0077 40.6234 39.2188 40.6234C40.43 40.6234 41.378 41.5299 41.378 42.6881C41.378 43.7971 40.3766 44.7528 39.2188 44.7528Z" fill="url(#paint2_linear_4_8436)"/>
<defs>
<linearGradient id="paint0_linear_4_8436" x1="0" y1="19.1834" x2="50" y2="19.1834" gradientUnits="userSpaceOnUse">
<stop stop-color="#4481EB"/>
<stop offset="1" stop-color="#04BEFE"/>
</linearGradient>
<linearGradient id="paint1_linear_4_8436" x1="15.6377" y1="42.6876" x2="26.5851" y2="42.6876" gradientUnits="userSpaceOnUse">
<stop stop-color="#4481EB"/>
<stop offset="1" stop-color="#04BEFE"/>
</linearGradient>
<linearGradient id="paint2_linear_4_8436" x1="33.7451" y1="42.6879" x2="44.6926" y2="42.6879" gradientUnits="userSpaceOnUse">
<stop stop-color="#4481EB"/>
<stop offset="1" stop-color="#04BEFE"/>
</linearGradient>
</defs>
</svg>
