<svg width="51" height="50" viewBox="0 0 51 50" fill="none" xmlns="http://www.w3.org/2000/svg">
<path opacity="0.2" d="M25.5001 6.25C22.8543 6.25 20.5001 7.91667 19.6251 10.4167H6.75012V14.5833H10.8126L4.66679 29.1667C3.68762 33.3333 6.75012 35.4167 11.9585 35.4167C17.1668 35.4167 20.4168 33.3333 19.2501 29.1667L13.1043 14.5833H19.6043C20.2918 16.3542 21.646 17.7083 23.4168 18.3958V41.6667H4.66679V45.8333H46.3335V41.6667H27.5835V18.375C29.3543 17.7083 30.7085 16.3542 31.3751 14.5833H37.896L31.7501 29.1667C30.771 33.3333 33.8335 35.4167 39.0418 35.4167C44.2501 35.4167 47.5001 33.3333 46.3335 29.1667L40.1876 14.5833H44.2501V10.4167H31.396C30.5001 7.91667 28.146 6.25 25.5001 6.25ZM25.5001 10.4167C26.0527 10.4167 26.5826 10.6362 26.9733 11.0269C27.364 11.4176 27.5835 11.9475 27.5835 12.5C27.5835 13.0525 27.364 13.5824 26.9733 13.9731C26.5826 14.3638 26.0527 14.5833 25.5001 14.5833C24.9476 14.5833 24.4177 14.3638 24.027 13.9731C23.6363 13.5824 23.4168 13.0525 23.4168 12.5C23.4168 11.9475 23.6363 11.4176 24.027 11.0269C24.4177 10.6362 24.9476 10.4167 25.5001 10.4167ZM11.9585 21.3542L15.0835 29.1667H8.83346L11.9585 21.3542ZM39.0418 21.3542L42.1668 29.1667H35.9168L39.0418 21.3542Z" fill="url(#paint0_linear_4_8426)"/>
<defs>
<linearGradient id="paint0_linear_4_8426" x1="4.48535" y1="26.0417" x2="46.5706" y2="26.0417" gradientUnits="userSpaceOnUse">
<stop stop-color="#4481EB"/>
<stop offset="1" stop-color="#04BEFE"/>
</linearGradient>
</defs>
</svg>
