<svg width="62" height="57" viewBox="0 0 62 57" fill="none" xmlns="http://www.w3.org/2000/svg">
<path opacity="0.2" d="M31.0703 56.1313C30.5189 56.1313 29.9674 55.9434 29.5085 55.5677L28.1779 54.4781C15.9567 44.4909 8.58097 38.4608 4.28742 30.4157C0.171033 22.7281 0.665511 16.6559 1.80047 12.9181C3.18444 8.3754 6.29757 4.71958 10.5741 2.62307C12.7729 1.54845 15.1637 0.999893 17.672 0.999893C22.9767 0.999893 27.8794 3.38584 31.0709 7.31974C34.2623 3.38584 39.1614 0.999893 44.4698 0.999893C46.978 0.999893 49.3654 1.54471 51.5641 2.61932C55.8407 4.71593 58.9573 8.36809 60.3413 12.9143C61.4798 16.6491 61.9708 22.7207 57.8543 30.4119C53.5564 38.4564 46.1705 44.4948 33.9347 54.4964L32.6361 55.5673C32.1736 55.943 31.6218 56.1313 31.0703 56.1313ZM17.6715 6.39531C15.9068 6.39531 14.2417 6.77104 12.7189 7.51504C9.75172 8.96911 7.59921 11.4715 6.65999 14.5675C5.47521 18.4564 6.19391 23.0216 8.73062 27.7636C12.4948 34.8161 19.1056 40.2459 31.0663 50.0263C43.028 40.2498 49.6386 34.8132 53.402 27.7674C55.9424 23.0219 56.6575 18.4567 55.4762 14.5675C54.5334 11.4753 52.381 8.96911 49.4137 7.51504C47.8945 6.77108 46.2294 6.39531 44.4648 6.39531C39.6724 6.39531 35.2183 9.20583 33.3821 13.3877C32.9658 14.3421 32.0586 14.9508 31.0659 14.9508C30.0696 14.9508 29.1696 14.3421 28.7497 13.3877C26.9174 9.20574 22.4639 6.39531 17.6715 6.39531Z" fill="url(#paint0_linear_1468_59830)" stroke="url(#paint1_linear_1468_59830)"/>
<defs>
<linearGradient id="paint0_linear_1468_59830" x1="1" y1="28.5656" x2="61.1433" y2="28.5656" gradientUnits="userSpaceOnUse">
<stop stop-color="#4481EB"/>
<stop offset="1" stop-color="#04BEFE"/>
</linearGradient>
<linearGradient id="paint1_linear_1468_59830" x1="1" y1="28.5656" x2="61.1433" y2="28.5656" gradientUnits="userSpaceOnUse">
<stop stop-color="#4481EB"/>
<stop offset="1" stop-color="#04BEFE"/>
</linearGradient>
</defs>
</svg>
