<svg width="52" height="52" viewBox="0 0 52 52" fill="none" xmlns="http://www.w3.org/2000/svg">
<path fill-rule="evenodd" clip-rule="evenodd" d="M26 52C40.3594 52 52 40.3594 52 26C52 11.6406 40.3594 0 26 0C11.6406 0 0 11.6406 0 26C0 40.3594 11.6406 52 26 52Z" fill="#FFC400"/>
<path fill-rule="evenodd" clip-rule="evenodd" d="M38.5708 14.5876C38.9596 14.1959 39.4066 14 39.9119 14C40.4173 14 40.8643 14.1959 41.253 14.5876C41.6029 14.9402 41.7778 15.3809 41.7778 15.9097C41.7778 16.4386 41.6029 16.8793 41.253 17.2318L22.6528 36.094C22.6139 36.1332 22.5751 36.1724 22.5362 36.2115C22.4973 36.2507 22.4584 36.2899 22.4196 36.3291C22.0697 36.7208 21.6324 36.9167 21.1076 36.9167C20.5829 36.9167 20.1456 36.7208 19.7957 36.3291L10.5248 27.0449C10.1749 26.6923 10 26.2516 10 25.7228C10 25.1939 10.1749 24.7532 10.5248 24.4006C10.9135 24.0089 11.3605 23.813 11.8659 23.813C12.3712 23.813 12.8182 24.0089 13.2069 24.4006L21.0785 32.3333L38.5708 14.5876Z" fill="white"/>
</svg>
