<svg width="518" height="164" viewBox="0 0 518 164" fill="none" xmlns="http://www.w3.org/2000/svg">
<path fill-rule="evenodd" clip-rule="evenodd" d="M415.351 140.355C416.927 140.355 418.425 140.601 419.844 141.086C421.102 141.517 422.181 142.107 423.079 142.858L423.407 143.143L422.033 145.551C420.166 143.915 417.769 143.014 415.288 143.017C413.581 143.017 412.262 143.344 411.324 144C410.879 144.291 410.516 144.692 410.27 145.163C410.023 145.635 409.902 146.162 409.918 146.693C409.918 147.452 410.161 148.087 410.652 148.595C411.144 149.1 411.749 149.494 412.476 149.783L412.999 149.979L413.61 150.19L414.307 150.415L415.087 150.653L415.51 150.78C417.064 151.224 418.325 151.653 419.281 152.063C420.241 152.476 421.057 153.076 421.726 153.87C422.4 154.663 422.733 155.689 422.733 156.957C422.733 158.967 421.951 160.543 420.386 161.691C418.819 162.845 416.673 163.421 413.945 163.421C410.555 163.421 407.727 162.577 405.459 160.893L405.124 160.633L406.498 158.226C407.647 159.112 408.824 159.758 410.029 160.157C411.231 160.559 412.568 160.76 414.041 160.76C415.766 160.76 417.088 160.453 418.005 159.842C418.919 159.229 419.379 158.361 419.379 157.242C419.379 156.546 419.141 155.972 418.676 155.515C418.183 155.045 417.601 154.679 416.964 154.438L416.731 154.348L416.197 154.155L415.576 153.944L414.868 153.716L414.075 153.473C412.753 153.105 411.455 152.655 410.19 152.124C409.206 151.698 408.336 151.047 407.647 150.225C406.944 149.391 406.596 148.288 406.596 146.915C406.596 145.603 406.95 144.455 407.666 143.461C408.38 142.469 409.394 141.702 410.716 141.165C412.037 140.628 413.581 140.355 415.351 140.355ZM157.483 140.355C159.124 140.355 160.628 140.588 161.991 141.054C163.202 141.466 164.264 142.064 165.173 142.845L165.506 143.143L164.1 145.551C163.205 144.752 162.177 144.114 161.064 143.667C159.937 143.259 158.746 143.06 157.549 143.08C155.054 143.08 153.117 143.942 151.732 145.662C150.344 147.384 149.652 149.767 149.652 152.806C149.652 155.34 150.254 157.29 151.459 158.652C152.662 160.014 154.372 160.694 156.587 160.694C158.714 160.694 160.762 159.967 162.739 158.507L163.109 158.226L164.1 160.633C163.12 161.567 161.947 162.275 160.665 162.707C159.309 163.183 157.845 163.421 156.269 163.421C154.245 163.421 152.482 162.993 150.978 162.138C149.476 161.283 148.264 159.998 147.495 158.448C146.676 156.84 146.264 154.951 146.264 152.775C146.264 150.262 146.723 148.071 147.638 146.201C148.555 144.334 149.855 142.892 151.539 141.876C153.222 140.863 155.202 140.355 157.485 140.355H157.483ZM283.349 140.355C286.515 140.355 289.092 141.202 291.079 142.884L291.37 143.143L289.995 145.551C289.08 144.764 288.045 144.128 286.93 143.667C285.847 143.262 284.698 143.063 283.542 143.08C280.899 143.08 278.848 143.948 277.386 145.68C275.927 147.41 275.198 149.817 275.198 152.901C275.198 155.438 275.822 157.385 277.067 158.747C278.314 160.11 280.175 160.792 282.646 160.792C284.089 160.789 285.525 160.577 286.909 160.165L287.44 159.998L287.921 153.695H282.582L282.804 151.193H291.116L290.286 161.805C289.123 162.345 287.898 162.738 286.639 162.977C285.212 163.273 283.785 163.421 282.357 163.421C278.991 163.421 276.393 162.495 274.561 160.649C272.727 158.8 271.81 156.24 271.81 152.965C271.81 150.41 272.28 148.182 273.216 146.281C274.088 144.451 275.484 142.923 277.228 141.892C278.964 140.869 281.004 140.358 283.349 140.358V140.355ZM135.174 140.355C136.752 140.355 138.248 140.601 139.664 141.086C140.925 141.517 142.003 142.107 142.899 142.858L143.23 143.143L141.855 145.551C139.989 143.914 137.592 143.014 135.111 143.017C133.403 143.017 132.085 143.344 131.146 144C130.701 144.291 130.338 144.692 130.092 145.163C129.846 145.635 129.725 146.162 129.74 146.693C129.74 147.452 129.984 148.087 130.475 148.595C130.964 149.1 131.572 149.494 132.299 149.783L132.822 149.979L133.432 150.19L134.13 150.415L134.91 150.653L135.333 150.78C136.615 151.13 137.874 151.559 139.104 152.063C140.063 152.476 140.88 153.076 141.551 153.87C142.223 154.663 142.556 155.689 142.556 156.957C142.556 158.967 141.773 160.543 140.209 161.691C138.642 162.845 136.496 163.421 133.768 163.421C130.377 163.421 127.549 162.577 125.285 160.893L124.946 160.633L126.321 158.226C127.47 159.112 128.646 159.758 129.851 160.157C131.057 160.559 132.394 160.76 133.863 160.76C135.589 160.76 136.911 160.453 137.828 159.842C138.742 159.229 139.202 158.361 139.202 157.242C139.202 156.546 138.964 155.972 138.499 155.515C138.006 155.046 137.425 154.679 136.789 154.438L136.554 154.348L136.02 154.155L135.399 153.944L134.691 153.716L133.898 153.473C132.576 153.105 131.278 152.654 130.013 152.124C129.029 151.698 128.158 151.047 127.47 150.225C126.77 149.391 126.416 148.288 126.416 146.915C126.416 145.603 126.772 144.455 127.486 143.461C128.2 142.469 129.217 141.702 130.539 141.165C131.86 140.628 133.403 140.355 135.174 140.355ZM439.449 140.609L446.194 159.3L455.845 140.609H458.53L456.741 163.167H453.768L454.984 147.77L447.023 163.165H444.756L439.195 147.738L437.98 163.167H435.006L436.766 140.609H439.449ZM395.247 140.609L395.023 143.27H383.518L382.942 150.367H393.809L393.585 153.028H382.749L382.141 160.506H393.648L393.424 163.167H378.692L380.45 140.609H395.247ZM244.261 140.609L242.469 163.167H239.179L240.936 140.609H244.261ZM516.99 140.609L516.766 143.27H505.259L504.685 150.367H515.55L515.328 153.028H504.492L503.884 160.506H515.391L515.167 163.167H500.433L502.19 140.609H516.99ZM488.255 140.609L486.687 160.443H497.748L497.523 163.167H483.172L484.933 140.609H488.255ZM364.212 140.609C367.643 140.609 370.301 141.525 372.188 143.35C374.073 145.178 375.016 147.728 375.016 151.002C375.016 154.846 373.983 157.835 371.916 159.969C369.934 162.011 367.172 163.075 363.625 163.162L363.158 163.167H354.592L356.35 140.609H364.212ZM219.489 140.609L231.155 157.591L232.497 140.609H235.629L233.84 163.167H231.316L219.65 146.154L218.276 163.167H215.208L216.965 140.609H219.489ZM195.519 140.609L207.184 157.591L208.527 140.609H211.658L209.869 163.167H207.343L195.677 146.154L194.303 163.167H191.237L192.995 140.609H195.519ZM179.857 140.609L188.232 163.167H184.971L182.989 157.591H171.482L168.638 163.167H165.186L177.106 140.609H179.854H179.857ZM308.247 140.609L314.992 159.3L324.643 140.609H327.328L325.539 163.167H322.566L323.782 147.77L315.821 163.165H313.554L307.991 147.738L306.775 163.167H303.804L305.562 140.609H308.247ZM343.212 140.609L351.587 163.167H348.329L346.346 157.591H334.839L331.996 163.167H328.544L340.463 140.609H343.212ZM473.011 140.609C475.352 140.609 477.17 141.16 478.46 142.257C479.747 143.355 480.392 144.813 480.392 146.63C480.392 148.804 479.679 150.492 478.251 151.682C476.906 152.806 475.064 153.401 472.72 153.468L472.276 153.473H466.171L465.404 163.167H462.111L463.869 140.609H473.011ZM431.46 140.609L429.67 163.167H426.38L428.138 140.609H431.46ZM252.06 140.609L263.725 157.591L265.068 140.609H268.2L266.408 163.167H263.884L252.218 146.154L250.844 163.167H247.776L249.533 140.609H252.06ZM363.892 143.334H359.481L358.107 160.443H362.933C365.832 160.443 368.01 159.639 369.471 158.036C370.928 156.43 371.66 154.076 371.66 150.971C371.66 148.458 371.01 146.556 369.709 145.268C368.483 144.051 366.683 143.408 364.318 143.342L363.895 143.334H363.892ZM178.258 144.254L172.793 154.994H182.061L178.261 144.254H178.258ZM341.613 144.254L336.148 154.994H345.416L341.613 144.254ZM472.691 143.239H467.001L466.393 150.875H472.049C473.714 150.875 474.987 150.526 475.87 149.83C476.756 149.132 477.197 148.108 477.197 146.757C477.197 145.638 476.824 144.773 476.076 144.157C475.389 143.593 474.374 143.289 473.032 143.244L472.688 143.239H472.691Z" fill="#F59C00"/>
<path fill-rule="evenodd" clip-rule="evenodd" d="M96.9664 85.0174L100.209 88.345L52.4607 134.045C50.7402 135.693 48.8691 134.979 47.7062 134.212L47.4525 134.032L47.2252 133.86L47.0244 133.696L46.7891 133.485L46.5619 133.263L96.9664 85.0148V85.0174ZM90.4756 78.349L93.7184 81.6819L43.3138 129.922L40.071 126.594L90.4756 78.3463V78.349ZM83.9821 71.6832L87.2222 75.0161L36.8229 123.259L33.5749 119.926L83.9821 71.6832ZM61.2641 80.6873L64.5148 84.0149L30.4008 116.667L27.1501 113.334L61.2641 80.6873ZM369.13 52.6724L369.839 52.6909H370.227C386.972 52.6909 400.549 66.1495 400.549 82.7505C400.549 83.2346 400.554 83.679 400.565 84.1022L400.578 84.5201V110.845H386.84V83.1103C386.848 82.8484 386.861 82.5971 386.861 82.3484C386.861 77.6903 385.318 73.7623 382.215 70.551C379.113 67.3345 375.37 65.7315 370.983 65.7315C366.015 65.7315 361.886 67.3266 358.615 70.5193C355.343 73.7173 353.699 77.73 353.699 82.5495C353.699 87.205 355.337 91.1992 358.593 94.5321C361.844 97.8676 365.766 99.5314 370.354 99.5314C375.04 99.5314 378.943 97.8888 382.115 94.6114C382.67 94.0348 383.169 93.429 383.624 92.8021L383.96 92.3286V108.98C382.474 109.861 380.901 110.586 379.266 111.144C376.367 112.122 373.076 112.609 369.427 112.609C365.66 112.609 362.079 111.958 358.686 110.633C355.549 109.431 352.657 107.666 350.152 105.425L349.618 104.935C346.533 102.16 344.085 98.7505 342.44 94.9394C340.755 91.1044 339.891 86.9586 339.903 82.769C339.903 78.2061 340.841 73.9077 342.705 69.8633C344.565 65.8216 347.28 62.2324 350.662 59.3435C353.191 57.1412 356.12 55.4465 359.289 54.3521C362.456 53.2556 365.782 52.6899 369.133 52.6777L369.13 52.6724ZM216.87 52.6883C221.741 52.4899 226.517 53.3972 231.194 55.426C234.049 56.6466 236.659 58.3724 238.901 60.5206C241.2 62.7108 243.341 65.5041 245.326 68.9057L245.564 69.3448L245.876 69.9426L245.994 70.1781L246.436 71.006L246.602 71.3049L246.674 71.4266L206.804 94.249C209.272 97.5872 212.327 99.579 215.969 100.23C219.624 100.865 223.374 100.079 227.267 97.8544C229.855 96.3731 231.842 94.503 233.309 92.2625C235.37 89.1254 236.234 83.0124 235.346 79.9784L235.249 79.6742L245.249 96.836C242.651 101.819 239.366 105.322 233.864 108.475C230.151 110.591 226.369 111.895 222.494 112.39C218.617 112.863 214.708 112.548 210.757 111.424C207.001 110.349 203.486 108.56 200.405 106.155C197.32 103.783 194.725 100.832 192.765 97.4682C190.761 94.0427 189.472 90.4717 188.898 86.7526C188.33 83.0494 188.496 79.3065 189.414 75.5636C190.337 71.5821 192.041 67.8238 194.427 64.5068C196.722 61.3101 199.675 58.6437 203.088 56.6877C207.287 54.2483 212.019 52.8751 216.87 52.6883ZM517.627 35.4365V80.7825L517.606 81.629C517.601 81.7771 517.598 81.9279 517.598 82.0786L517.593 82.5548C517.593 98.968 504.307 112.305 487.813 112.569L487.015 112.577L486.222 112.601C482.866 112.584 479.536 112.016 476.364 110.919C473.205 109.821 470.286 108.126 467.765 105.927C464.371 103.059 461.656 99.4723 459.815 95.4261C457.951 91.3901 456.995 86.9933 457.016 82.5468C457.016 78.2881 457.862 74.2463 459.553 70.3791C461.087 66.7831 463.351 63.545 466.2 60.8697L466.713 60.4015C469.334 57.938 472.406 56.0034 475.759 54.7039C479.186 53.384 482.828 52.7139 486.5 52.7279C490.147 52.7279 493.427 53.2226 496.331 54.1934C497.727 54.6695 499.064 55.2726 500.367 55.9973L501.017 56.3677V72.9793C500.471 72.1724 499.856 71.414 499.18 70.7124C496.011 67.4297 492.095 65.7871 487.435 65.7871C482.847 65.7871 478.912 67.4535 475.683 70.7864C472.432 74.1246 470.793 78.1003 470.793 82.7426C470.793 87.5779 472.437 91.5642 475.693 94.7675C478.968 97.9549 483.083 99.5552 488.07 99.5552C492.441 99.5552 496.178 97.9443 499.275 94.7331C502.389 91.5219 503.924 87.6123 503.924 82.9621L503.9 82.1924V35.4392H517.63L517.627 35.4365ZM139.754 35.4577L171.257 83.6128V35.4603H185.854V110.847H172.024L140.227 61.2453V110.847H125.626V35.4603H139.754V35.4577ZM257.948 53.7569L267.246 86.7103L277.429 53.7569H287.366L297.07 86.7103L306.352 53.7569H320.827L300.752 110.845H292.028L281.974 76.2778L272.161 110.845H263.44L243.566 53.7569H257.948ZM336.856 35.4577V110.845H323.872V35.4577H336.856ZM428.756 52.6565L429.374 52.6618L429.71 52.6724L430.429 52.7041C433.669 52.8761 438.524 53.5797 442.573 55.6164C445.649 57.1692 448.21 59.4863 450.269 62.597C451.588 64.6523 452.531 67.0092 453.107 69.649C453.181 69.9929 453.25 70.3553 453.316 70.7415L453.438 71.5377C453.596 72.6381 453.718 73.8839 453.805 75.2779L453.863 76.3519C453.882 76.7169 453.897 77.0925 453.911 77.4787L453.945 78.6611L453.956 79.2721L453.969 80.5365V110.842H440.583V86.1257L440.575 84.8005L440.554 83.5202L440.514 82.2903C440.3 76.6561 439.563 72.5719 438.101 70.2283C436.344 67.4059 433.304 65.8532 428.983 65.8453C424.66 65.8532 421.62 67.4059 419.855 70.231C418.134 72.9899 417.08 78.1665 417.019 85.4565V110.847H403.63L403.633 80.5418L403.646 79.2774L403.673 78.0686L403.691 77.484L403.736 76.3572L403.794 75.2832C403.836 74.5875 403.889 73.9263 403.953 73.302L404.048 72.3947C404.172 71.3684 404.32 70.4558 404.497 69.6543C405.013 67.1524 405.975 64.7637 407.336 62.6023C409.381 59.4916 411.955 57.1744 415.029 55.6217C419.083 53.585 423.883 52.8814 427.094 52.7094L427.807 52.6777L428.455 52.6618H428.756V52.6565ZM54.7732 74.0215L58.016 77.3517L23.8994 110.001L20.6619 106.676L54.7732 74.0215ZM48.2771 67.3557L51.5225 70.6886L17.4085 103.338L14.1657 100.013L48.2744 67.3583L48.2771 67.3557ZM41.7809 60.6899L45.0264 64.0228L10.915 96.6614L7.67221 93.3391L41.7783 60.6846L41.7809 60.6899ZM35.2927 54.0241L38.5329 57.3517L4.4215 90.0088L1.17871 86.6759L35.2927 54.0214V54.0241ZM219.563 64.856C216.233 64.4724 212.792 65.2898 209.235 67.3239C206.238 69.0049 203.9 71.6531 202.601 74.8362C201.308 77.8766 201.032 81.2545 201.816 84.4646L201.941 84.9619L228.93 69.5221C226.017 66.7896 222.896 65.2448 219.563 64.856ZM18.0956 63.9064L1.8685 47.2551L49.543 1.6393L49.7201 1.49381L49.8601 1.39065L50.0293 1.27691L50.2275 1.15788L50.4548 1.03884L50.7085 0.925102C51.6811 0.523038 53.1531 0.337876 54.7811 1.60755L55.0058 1.79007L100.978 48.9797L66.859 81.629L36.3155 50.2838L34.4021 48.3079L18.0956 63.909V63.9064Z" fill="white"/>
</svg>
