<?xml version="1.0" encoding="utf-8"?>
<!-- Generator: Adobe Illustrator 23.0.1, SVG Export Plug-In . SVG Version: 6.00 Build 0)  -->
<svg version="1.1" id="Слой_1" xmlns="http://www.w3.org/2000/svg" xmlns:xlink="http://www.w3.org/1999/xlink" x="0px" y="0px"
	 viewBox="0 0 22 23" style="enable-background:new 0 0 22 23;" xml:space="preserve">
<style type="text/css">
	.st0{fill:none;stroke:#000E38;stroke-width:0.5;stroke-miterlimit:10;}
	.st1{fill:none;}
	.st2{fill:#000E38;}
	.st3{fill:#FFC400;}
	.st4{fill:#FFFFFF;stroke:#000E38;stroke-width:0.5;stroke-miterlimit:10;}
</style>
<g>
	<path class="st0" d="M1.7,21.9c0,0.1,0,0.1,0,0.2c0,0.2,0.3,0.4,0.6,0.4s0.6-0.2,0.6-0.4c0-0.1,0-0.2-0.1-0.2"/>
	<path class="st0" d="M19.3,21.9c0,0.1-0.1,0.1-0.1,0.2c0,0.2,0.3,0.4,0.6,0.4c0.3,0,0.6-0.2,0.6-0.4c0-0.1,0-0.1-0.1-0.2"/>
	<g>
		<path class="st1" d="M21.8,15.6H0.2v6.2h21.6V15.6z"/>
		<path class="st2" d="M21.8,21.6c-0.2,0-0.4,0-0.6,0c-0.5,0-1,0-1.6,0c-0.8,0-1.6,0-2.3,0c-0.9,0-1.9,0-2.8,0c-1,0-2.1,0-3.1,0
			c-1,0-2.1,0-3.1,0c-1,0-2,0-2.9,0c-0.8,0-1.6,0-2.5,0c-0.6,0-1.2,0-1.8,0c-0.3,0-0.6,0-0.8,0c0,0,0,0,0,0c0.1,0.1,0.1,0.1,0.2,0.2
			c0-0.7,0-1.4,0-2.1c0-1.1,0-2.2,0-3.4c0-0.3,0-0.5,0-0.8c-0.1,0.1-0.1,0.1-0.2,0.2c0.2,0,0.4,0,0.6,0c0.5,0,1,0,1.6,0
			c0.8,0,1.6,0,2.3,0c0.9,0,1.9,0,2.8,0c1,0,2.1,0,3.1,0c1,0,2.1,0,3.1,0c1,0,2,0,2.9,0c0.8,0,1.6,0,2.5,0c0.6,0,1.2,0,1.8,0
			c0.3,0,0.6,0,0.8,0c0,0,0,0,0,0c-0.1-0.1-0.1-0.1-0.2-0.2c0,0.7,0,1.4,0,2.1c0,1.1,0,2.2,0,3.4c0,0.3,0,0.5,0,0.8
			c0,0.3,0.4,0.3,0.4,0c0-0.7,0-1.4,0-2.1c0-1.1,0-2.2,0-3.4c0-0.3,0-0.5,0-0.8c0-0.1-0.1-0.2-0.2-0.2c-0.2,0-0.4,0-0.6,0
			c-0.5,0-1,0-1.6,0c-0.8,0-1.6,0-2.3,0c-0.9,0-1.9,0-2.8,0c-1,0-2.1,0-3.1,0c-1,0-2.1,0-3.1,0c-1,0-2,0-2.9,0c-0.8,0-1.6,0-2.5,0
			c-0.6,0-1.2,0-1.8,0c-0.3,0-0.6,0-0.8,0c0,0,0,0,0,0c-0.1,0-0.2,0.1-0.2,0.2c0,0.7,0,1.4,0,2.1c0,1.1,0,2.2,0,3.4
			c0,0.3,0,0.5,0,0.8c0,0.1,0.1,0.2,0.2,0.2c0.2,0,0.4,0,0.6,0c0.5,0,1,0,1.6,0c0.8,0,1.6,0,2.3,0c0.9,0,1.9,0,2.8,0
			c1,0,2.1,0,3.1,0c1,0,2.1,0,3.1,0c1,0,2,0,2.9,0c0.8,0,1.6,0,2.5,0c0.6,0,1.2,0,1.8,0c0.3,0,0.6,0,0.8,0c0,0,0,0,0,0
			C22.1,22.1,22.1,21.6,21.8,21.6z"/>
		<path class="st1" d="M2.3,13.5l-2.1,2.1h21.6l-1.6-2.1h-5.4H2.3z"/>
		<path class="st2" d="M2.1,13.3c-0.6,0.6-1.2,1.2-1.8,1.9c-0.1,0.1-0.2,0.2-0.3,0.3c-0.1,0.1,0,0.4,0.1,0.4c0.2,0,0.4,0,0.6,0
			c0.5,0,1,0,1.6,0c0.8,0,1.6,0,2.3,0c0.9,0,1.9,0,2.8,0c1,0,2.1,0,3.1,0c1,0,2.1,0,3.1,0c1,0,2,0,2.9,0c0.8,0,1.6,0,2.5,0
			c0.6,0,1.2,0,1.8,0c0.3,0,0.6,0,0.8,0c0,0,0,0,0,0c0.2,0,0.3-0.2,0.1-0.4c-0.5-0.6-0.9-1.2-1.4-1.8c-0.1-0.1-0.1-0.2-0.2-0.3
			c-0.1-0.1-0.1-0.1-0.2-0.1c-0.3,0-0.5,0-0.8,0c-0.9,0-1.9,0-2.8,0c-0.6,0-1.2,0-1.7,0c-0.3,0-0.6,0-0.8,0c-0.7,0-1.4,0-2.2,0
			c-1,0-1.9,0-2.9,0c-1,0-2,0-2.9,0c-0.8,0-1.6,0-2.4,0c-0.4,0-0.8,0-1.2,0c0,0,0,0-0.1,0c-0.3,0-0.3,0.4,0,0.4c0.2,0,0.4,0,0.7,0
			c0.6,0,1.1,0,1.7,0c0.8,0,1.6,0,2.4,0c0.9,0,1.7,0,2.6,0c0.8,0,1.6,0,2.4,0c0.6,0,1.2,0,1.8,0c0.3,0,0.6,0,0.9,0c0.3,0,0.7,0,1,0
			c0.8,0,1.7,0,2.5,0c0.6,0,1.2,0,1.8,0c0,0,0.1,0,0.1,0c0,0-0.1,0-0.1-0.1c0.5,0.6,1,1.2,1.4,1.9c0.1,0.1,0.1,0.2,0.2,0.3
			c0-0.1,0.1-0.2,0.1-0.4c-0.2,0-0.4,0-0.6,0c-0.5,0-1,0-1.6,0c-0.8,0-1.6,0-2.3,0c-0.9,0-1.9,0-2.8,0c-1,0-2.1,0-3.1,0
			c-1,0-2.1,0-3.1,0c-1,0-2,0-2.9,0c-0.8,0-1.6,0-2.5,0c-0.6,0-1.2,0-1.8,0c-0.3,0-0.6,0-0.8,0c0,0,0,0,0,0c0,0.1,0.1,0.2,0.1,0.4
			c0.6-0.6,1.2-1.2,1.8-1.9c0.1-0.1,0.2-0.2,0.3-0.3C2.6,13.4,2.3,13.1,2.1,13.3z"/>
		<path class="st0" d="M7.2,13.5c0,0.5,1.7,0.9,3.8,0.9c2.1,0,3.8-0.4,3.8-0.9"/>
		<path class="st0" d="M14.6,13.5v-1.4H7.4v1.4"/>
		<path class="st0" d="M19.8,17.1H2.5v3.3h17.3V17.1z"/>
		<path class="st0" d="M14.3,10.1H7.7v2h6.7V10.1z"/>
		<path class="st3" d="M11.2,19.4c-0.3,0-0.5-0.1-0.6-0.3c-0.1-0.2-0.1-0.6,0.1-0.7c0.2-0.2,0.5-0.2,0.7-0.1
			c0.3,0.1,0.4,0.3,0.4,0.6C11.7,19.1,11.5,19.4,11.2,19.4c-0.3,0-0.3,0.4,0,0.4c0.5,0,0.9-0.3,1-0.8c0.1-0.4-0.1-0.9-0.5-1.2
			c-0.3-0.2-0.8-0.2-1.2,0c-0.4,0.3-0.6,0.7-0.4,1.2c0.1,0.2,0.2,0.5,0.4,0.6c0.2,0.1,0.4,0.2,0.6,0.2
			C11.4,19.8,11.4,19.4,11.2,19.4z"/>
		<path class="st4" d="M7.4,13.5H2.3H7.4z"/>
		<path class="st3" d="M18.3,3.7h-0.7v3.9h0.7V3.7z"/>
		<path class="st2" d="M18.7,3.7h-0.4v3.9h0.4V3.7z"/>
		<path class="st3" d="M10.9,18.6c0,0.1,0,0.3,0,0.4c0,0.3,0.4,0.3,0.4,0c0-0.1,0-0.3,0-0.4C11.3,18.3,10.9,18.3,10.9,18.6z"/>
		<path class="st1" d="M17.8,0.7H4.4v9.4h13.4V0.7z"/>
		<path class="st2" d="M17.8,9.9c-0.4,0-0.9,0-1.3,0c-1.1,0-2.1,0-3.2,0c-1.3,0-2.6,0-3.9,0c-1.1,0-2.2,0-3.3,0c-0.4,0-0.7,0-1.1,0
			c-0.2,0-0.4,0-0.5,0c0,0,0,0,0,0C4.4,10,4.5,10,4.6,10.1c0-0.3,0-0.6,0-0.9c0-0.7,0-1.5,0-2.3c0-0.9,0-1.8,0-2.7
			c0-0.8,0-1.6,0-2.3c0-0.3,0-0.5,0-0.8c0-0.1,0-0.2,0-0.4c0,0,0,0,0,0C4.5,0.7,4.4,0.8,4.4,0.9c0.4,0,0.9,0,1.3,0
			c1.1,0,2.1,0,3.2,0c1.3,0,2.6,0,3.9,0c1.1,0,2.2,0,3.3,0c0.4,0,0.7,0,1.1,0c0.2,0,0.4,0,0.5,0c0,0,0,0,0,0
			c-0.1-0.1-0.1-0.1-0.2-0.2c0,0.3,0,0.6,0,0.9c0,0.7,0,1.5,0,2.3c0,0.9,0,1.8,0,2.7c0,0.8,0,1.6,0,2.3c0,0.4,0,0.8,0,1.1
			c0,0,0,0,0,0c0,0.3,0.4,0.3,0.4,0c0-0.3,0-0.6,0-0.9c0-0.7,0-1.5,0-2.3c0-0.9,0-1.8,0-2.7c0-0.8,0-1.6,0-2.3c0-0.4,0-0.8,0-1.1
			c0,0,0,0,0,0c0-0.1-0.1-0.2-0.2-0.2c-0.4,0-0.9,0-1.3,0c-1.1,0-2.1,0-3.2,0c-1.3,0-2.6,0-3.9,0c-1.1,0-2.2,0-3.3,0
			c-0.5,0-1.1,0-1.6,0c0,0,0,0,0,0c-0.1,0-0.2,0.1-0.2,0.2c0,0.3,0,0.6,0,0.9c0,0.7,0,1.5,0,2.3c0,0.9,0,1.8,0,2.7
			c0,0.8,0,1.6,0,2.3c0,0.4,0,0.8,0,1.1c0,0,0,0,0,0c0,0.1,0.1,0.2,0.2,0.2c0.4,0,0.9,0,1.3,0c1.1,0,2.1,0,3.2,0c1.3,0,2.6,0,3.9,0
			c1.1,0,2.2,0,3.3,0c0.5,0,1.1,0,1.6,0c0,0,0,0,0,0C18,10.3,18,9.9,17.8,9.9z"/>
		<path class="st3" d="M13.6,5.7c-0.3,0-0.6,0-0.9,0c0.1,0.1,0.1,0.1,0.2,0.2c0-0.3,0-0.6,0-0.9c-0.1,0.1-0.1,0.1-0.2,0.2
			c0.3,0,0.6,0,0.9,0c-0.1-0.1-0.1-0.1-0.2-0.2c0,0.3,0,0.6,0,0.9c0,0.3,0.4,0.3,0.4,0c0-0.3,0-0.6,0-0.9c0-0.1-0.1-0.2-0.2-0.2
			c-0.3,0-0.6,0-0.9,0c-0.1,0-0.2,0.1-0.2,0.2c0,0.3,0,0.6,0,0.9c0,0.1,0.1,0.2,0.2,0.2c0.3,0,0.6,0,0.9,0
			C13.9,6.2,13.9,5.7,13.6,5.7z"/>
		<path class="st3" d="M11.5,5.7c-0.3,0-0.6,0-0.9,0c0.1,0.1,0.1,0.1,0.2,0.2c0-0.3,0-0.6,0-0.9c-0.1,0.1-0.1,0.1-0.2,0.2
			c0.3,0,0.6,0,0.9,0c-0.1-0.1-0.1-0.1-0.2-0.2c0,0.3,0,0.6,0,0.9c0,0.3,0.4,0.3,0.4,0c0-0.3,0-0.6,0-0.9c0-0.1-0.1-0.2-0.2-0.2
			c-0.3,0-0.6,0-0.9,0c-0.1,0-0.2,0.1-0.2,0.2c0,0.3,0,0.6,0,0.9c0,0.1,0.1,0.2,0.2,0.2c0.3,0,0.6,0,0.9,0
			C11.7,6.1,11.7,5.7,11.5,5.7z"/>
		<path class="st3" d="M9.3,5.7c-0.3,0-0.6,0-0.9,0c0.1,0.1,0.1,0.1,0.2,0.2c0-0.3,0-0.6,0-0.9C8.5,5.1,8.4,5.1,8.4,5.2
			c0.3,0,0.6,0,0.9,0C9.2,5.1,9.2,5.1,9.1,5c0,0.3,0,0.6,0,0.9c0,0.3,0.4,0.3,0.4,0c0-0.3,0-0.6,0-0.9c0-0.1-0.1-0.2-0.2-0.2
			c-0.3,0-0.6,0-0.9,0C8.2,4.8,8.1,4.9,8.1,5c0,0.3,0,0.6,0,0.9c0,0.1,0.1,0.2,0.2,0.2c0.3,0,0.6,0,0.9,0C9.6,6.1,9.6,5.7,9.3,5.7z"
			/>
		<path class="st3" d="M13.6,3.9c-0.3,0-0.6,0-0.9,0c0.1,0.1,0.1,0.1,0.2,0.2c0-0.3,0-0.6,0-0.9c-0.1,0.1-0.1,0.1-0.2,0.2
			c0.3,0,0.6,0,0.9,0c-0.1-0.1-0.1-0.1-0.2-0.2c0,0.3,0,0.6,0,0.9c0,0.3,0.4,0.3,0.4,0c0-0.3,0-0.6,0-0.9c0-0.1-0.1-0.2-0.2-0.2
			c-0.3,0-0.6,0-0.9,0c-0.1,0-0.2,0.1-0.2,0.2c0,0.3,0,0.6,0,0.9c0,0.1,0.1,0.2,0.2,0.2c0.3,0,0.6,0,0.9,0
			C13.9,4.3,13.9,3.9,13.6,3.9z"/>
		<path class="st3" d="M11.5,7.6c-0.3,0-0.6,0-0.9,0c0.1,0.1,0.1,0.1,0.2,0.2c0-0.3,0-0.6,0-0.9c-0.1,0.1-0.1,0.1-0.2,0.2
			c0.3,0,0.6,0,0.9,0c-0.1-0.1-0.1-0.1-0.2-0.2c0,0.3,0,0.6,0,0.9c0,0.3,0.4,0.3,0.4,0c0-0.3,0-0.6,0-0.9c0-0.1-0.1-0.2-0.2-0.2
			c-0.3,0-0.6,0-0.9,0c-0.1,0-0.2,0.1-0.2,0.2c0,0.3,0,0.6,0,0.9c0,0.1,0.1,0.2,0.2,0.2c0.3,0,0.6,0,0.9,0C11.7,8,11.7,7.6,11.5,7.6
			z"/>
		<path class="st3" d="M9.3,7.6c-0.3,0-0.6,0-0.9,0c0.1,0.1,0.1,0.1,0.2,0.2c0-0.3,0-0.6,0-0.9C8.5,6.9,8.4,7,8.4,7.1
			c0.3,0,0.6,0,0.9,0C9.2,7,9.2,6.9,9.1,6.9c0,0.3,0,0.6,0,0.9c0,0.3,0.4,0.3,0.4,0c0-0.3,0-0.6,0-0.9c0-0.1-0.1-0.2-0.2-0.2
			c-0.3,0-0.6,0-0.9,0c-0.1,0-0.2,0.1-0.2,0.2c0,0.3,0,0.6,0,0.9C8.1,7.9,8.2,8,8.4,8C8.7,8,9,8,9.3,8C9.6,8,9.6,7.6,9.3,7.6z"/>
		<path class="st3" d="M11.5,3.8c-0.3,0-0.6,0-0.9,0C10.6,3.9,10.7,4,10.7,4c0-0.3,0-0.6,0-0.9c-0.1,0.1-0.1,0.1-0.2,0.2
			c0.3,0,0.6,0,0.9,0c-0.1-0.1-0.1-0.1-0.2-0.2c0,0.3,0,0.6,0,0.9c0,0.3,0.4,0.3,0.4,0c0-0.3,0-0.6,0-0.9c0-0.1-0.1-0.2-0.2-0.2
			c-0.3,0-0.6,0-0.9,0c-0.1,0-0.2,0.1-0.2,0.2c0,0.3,0,0.6,0,0.9c0,0.1,0.1,0.2,0.2,0.2c0.3,0,0.6,0,0.9,0
			C11.7,4.2,11.7,3.8,11.5,3.8z"/>
		<path class="st3" d="M13.6,7.5c-0.3,0-0.6,0-0.9,0c0.1,0.1,0.1,0.1,0.2,0.2c0-0.3,0-0.6,0-0.9C12.8,6.9,12.8,7,12.7,7
			c0.3,0,0.6,0,0.9,0c-0.1-0.1-0.1-0.1-0.2-0.2c0,0.3,0,0.6,0,0.9c0,0.3,0.4,0.3,0.4,0c0-0.3,0-0.6,0-0.9c0-0.1-0.1-0.2-0.2-0.2
			c-0.3,0-0.6,0-0.9,0c-0.1,0-0.2,0.1-0.2,0.2c0,0.3,0,0.6,0,0.9c0,0.1,0.1,0.2,0.2,0.2c0.3,0,0.6,0,0.9,0C13.9,8,13.9,7.5,13.6,7.5
			z"/>
		<path class="st3" d="M9.3,3.8c-0.3,0-0.6,0-0.9,0C8.4,3.9,8.5,4,8.6,4c0-0.3,0-0.6,0-0.9C8.5,3.2,8.4,3.3,8.4,3.3
			c0.3,0,0.6,0,0.9,0C9.2,3.3,9.2,3.2,9.1,3.1c0,0.3,0,0.6,0,0.9c0,0.3,0.4,0.3,0.4,0c0-0.3,0-0.6,0-0.9c0-0.1-0.1-0.2-0.2-0.2
			c-0.3,0-0.6,0-0.9,0C8.2,2.9,8.1,3,8.1,3.1c0,0.3,0,0.6,0,0.9c0,0.1,0.1,0.2,0.2,0.2c0.3,0,0.6,0,0.9,0C9.6,4.2,9.6,3.8,9.3,3.8z"
			/>
	</g>
</g>
</svg>
