<svg width="23" height="23" viewBox="0 0 23 23" fill="none" xmlns="http://www.w3.org/2000/svg">
<g clip-path="url(#clip0_589_80556)">
<mask id="path-1-inside-1_589_80556" fill="white">
<path d="M21.9813 2.34639C21.3106 1.2075 20.073 0.500018 18.7513 0.500018H13.0401C12.8621 0.500018 9.99951 0.82198 9.99951 1C9.99951 1.17802 12.8621 1.14455 13.0401 1.14455H18.7513C19.8457 1.14455 20.8706 1.73039 21.4259 2.67342C21.9979 3.6449 21.9979 4.85194 21.4258 5.82342C20.8705 6.76649 19.8457 7.35233 18.7513 7.35233H10.4191L7.95805 1.14455H11.2745C11.4525 1.14455 12.9995 0.67802 12.9995 0.5C12.9995 0.32198 11.4525 0.500018 11.2745 0.500018H7.49141H7.48901H5.62511C5.23323 0.500018 4.86783 0.693549 4.64766 1.01771C4.42748 1.34186 4.38224 1.75286 4.5267 2.11715L6.56187 7.25067C6.74157 7.70399 7.17276 7.99686 7.66032 7.99686H10.1992L10.2003 7.99695L10.2021 7.99686H10.7632L11.6478 9.29821C11.8058 9.53067 11.8893 9.80215 11.8893 10.0833V11.152C11.8893 11.5666 12.2267 11.904 12.6413 11.904H14.3446L15.3205 14.7911C15.5345 15.424 15.643 16.0838 15.643 16.7519V18.2324C15.643 18.8485 16.1172 19.3558 16.7198 19.4091V20.0661C16.7198 20.4807 17.0572 20.818 17.4718 20.818H17.9522V22.1778C17.9522 22.3558 18.0964 22.5 18.2744 22.5C18.4524 22.5 18.5967 22.3558 18.5967 22.1778V20.818H19.0771C19.4917 20.818 19.8291 20.4806 19.8291 20.066V19.4125C20.4538 19.3822 20.9529 18.8645 20.9529 18.2323V16.7518C20.9529 16.0133 20.833 15.2842 20.5965 14.5847L19.4204 11.1053C19.3634 10.9367 18.1679 8.44315 17.9995 8.5C17.8309 8.55702 18.7528 11.1431 18.8098 11.3117L19.9859 14.7911C20.1999 15.424 20.3083 16.0837 20.3083 16.7518V18.2323C20.3083 18.5285 20.0674 18.7694 19.7712 18.7694H16.8247C16.5285 18.7694 16.2875 18.5285 16.2875 18.2323V16.7518C16.2875 16.0134 16.1677 15.2843 15.9312 14.5847L13.7043 7.99682H17.6892L18.3278 9.8859C18.3848 10.0545 19.3311 12.0568 19.4995 12C19.6682 11.943 18.9954 9.84813 18.9384 9.67952L18.3696 7.99682H18.7513C20.073 7.99682 21.3107 7.2893 21.9813 6.15041C22.6721 4.97723 22.6721 3.5196 21.9813 2.34639ZM19.077 20.1735H17.4717C17.4125 20.1735 17.3643 20.1253 17.3643 20.0661V19.414H19.1845V20.0661C19.1845 20.1253 19.1363 20.1735 19.077 20.1735ZM7.16094 7.01314L5.12577 1.87966C5.05917 1.71161 5.07919 1.52942 5.18077 1.37989C5.28235 1.23036 5.4443 1.14455 5.62507 1.14455H7.26475L9.72579 7.35233H7.66028C7.43865 7.35233 7.24267 7.21917 7.16094 7.01314ZM14.1267 11.2594H12.6413C12.582 11.2594 12.5338 11.2113 12.5338 11.152V10.0833C12.5338 9.67239 12.4118 9.27565 12.1808 8.9359L11.5425 7.99686H13.0238L14.1267 11.2594Z"/>
</mask>
<path d="M21.9813 2.34639C21.3106 1.2075 20.073 0.500018 18.7513 0.500018H13.0401C12.8621 0.500018 9.99951 0.82198 9.99951 1C9.99951 1.17802 12.8621 1.14455 13.0401 1.14455H18.7513C19.8457 1.14455 20.8706 1.73039 21.4259 2.67342C21.9979 3.6449 21.9979 4.85194 21.4258 5.82342C20.8705 6.76649 19.8457 7.35233 18.7513 7.35233H10.4191L7.95805 1.14455H11.2745C11.4525 1.14455 12.9995 0.67802 12.9995 0.5C12.9995 0.32198 11.4525 0.500018 11.2745 0.500018H7.49141H7.48901H5.62511C5.23323 0.500018 4.86783 0.693549 4.64766 1.01771C4.42748 1.34186 4.38224 1.75286 4.5267 2.11715L6.56187 7.25067C6.74157 7.70399 7.17276 7.99686 7.66032 7.99686H10.1992L10.2003 7.99695L10.2021 7.99686H10.7632L11.6478 9.29821C11.8058 9.53067 11.8893 9.80215 11.8893 10.0833V11.152C11.8893 11.5666 12.2267 11.904 12.6413 11.904H14.3446L15.3205 14.7911C15.5345 15.424 15.643 16.0838 15.643 16.7519V18.2324C15.643 18.8485 16.1172 19.3558 16.7198 19.4091V20.0661C16.7198 20.4807 17.0572 20.818 17.4718 20.818H17.9522V22.1778C17.9522 22.3558 18.0964 22.5 18.2744 22.5C18.4524 22.5 18.5967 22.3558 18.5967 22.1778V20.818H19.0771C19.4917 20.818 19.8291 20.4806 19.8291 20.066V19.4125C20.4538 19.3822 20.9529 18.8645 20.9529 18.2323V16.7518C20.9529 16.0133 20.833 15.2842 20.5965 14.5847L19.4204 11.1053C19.3634 10.9367 18.1679 8.44315 17.9995 8.5C17.8309 8.55702 18.7528 11.1431 18.8098 11.3117L19.9859 14.7911C20.1999 15.424 20.3083 16.0837 20.3083 16.7518V18.2323C20.3083 18.5285 20.0674 18.7694 19.7712 18.7694H16.8247C16.5285 18.7694 16.2875 18.5285 16.2875 18.2323V16.7518C16.2875 16.0134 16.1677 15.2843 15.9312 14.5847L13.7043 7.99682H17.6892L18.3278 9.8859C18.3848 10.0545 19.3311 12.0568 19.4995 12C19.6682 11.943 18.9954 9.84813 18.9384 9.67952L18.3696 7.99682H18.7513C20.073 7.99682 21.3107 7.2893 21.9813 6.15041C22.6721 4.97723 22.6721 3.5196 21.9813 2.34639ZM19.077 20.1735H17.4717C17.4125 20.1735 17.3643 20.1253 17.3643 20.0661V19.414H19.1845V20.0661C19.1845 20.1253 19.1363 20.1735 19.077 20.1735ZM7.16094 7.01314L5.12577 1.87966C5.05917 1.71161 5.07919 1.52942 5.18077 1.37989C5.28235 1.23036 5.4443 1.14455 5.62507 1.14455H7.26475L9.72579 7.35233H7.66028C7.43865 7.35233 7.24267 7.21917 7.16094 7.01314ZM14.1267 11.2594H12.6413C12.582 11.2594 12.5338 11.2113 12.5338 11.152V10.0833C12.5338 9.67239 12.4118 9.27565 12.1808 8.9359L11.5425 7.99686H13.0238L14.1267 11.2594Z" stroke="#000E38" mask="url(#path-1-inside-1_589_80556)"/>
<mask id="path-2-inside-2_589_80556" fill="white">
<path d="M2.19141 17.8594C2.01339 17.8594 1.86914 18.0037 1.86914 18.1817V20.4329C1.86914 20.8475 2.20649 21.1848 2.62109 21.1848H11.5437C11.9583 21.1848 12.2956 20.8475 12.2956 20.4329V15.0024C12.2956 14.5878 11.9583 14.2505 11.5437 14.2505H2.62109C2.20649 14.2505 1.86914 14.5878 1.86914 15.0024V16.5011C1.86914 16.6791 2.01339 16.8233 2.19141 16.8233C2.36943 16.8233 2.51367 16.6791 2.51367 16.5011V15.0024C2.51367 14.9432 2.56184 14.895 2.62109 14.895H11.5437C11.6029 14.895 11.6511 14.9432 11.6511 15.0024V20.4329C11.6511 20.4921 11.6029 20.5403 11.5437 20.5403H2.62109C2.56184 20.5403 2.51367 20.4921 2.51367 20.4329V18.1817C2.51367 18.0037 2.36938 17.8594 2.19141 17.8594Z"/>
</mask>
<path d="M2.19141 17.8594C2.01339 17.8594 1.86914 18.0037 1.86914 18.1817V20.4329C1.86914 20.8475 2.20649 21.1848 2.62109 21.1848H11.5437C11.9583 21.1848 12.2956 20.8475 12.2956 20.4329V15.0024C12.2956 14.5878 11.9583 14.2505 11.5437 14.2505H2.62109C2.20649 14.2505 1.86914 14.5878 1.86914 15.0024V16.5011C1.86914 16.6791 2.01339 16.8233 2.19141 16.8233C2.36943 16.8233 2.51367 16.6791 2.51367 16.5011V15.0024C2.51367 14.9432 2.56184 14.895 2.62109 14.895H11.5437C11.6029 14.895 11.6511 14.9432 11.6511 15.0024V20.4329C11.6511 20.4921 11.6029 20.5403 11.5437 20.5403H2.62109C2.56184 20.5403 2.51367 20.4921 2.51367 20.4329V18.1817C2.51367 18.0037 2.36938 17.8594 2.19141 17.8594Z" stroke="#FFC400" mask="url(#path-2-inside-2_589_80556)"/>
<mask id="path-3-inside-3_589_80556" fill="white">
<path d="M4.2168 19.2591V16.1753C4.2168 15.9973 4.07255 15.853 3.89453 15.853C3.71651 15.853 3.57227 15.9973 3.57227 16.1753V19.2591C3.57227 19.4371 3.71651 19.5813 3.89453 19.5813C4.07255 19.5813 4.2168 19.4371 4.2168 19.2591Z"/>
</mask>
<path d="M4.2168 19.2591V16.1753C4.2168 15.9973 4.07255 15.853 3.89453 15.853C3.71651 15.853 3.57227 15.9973 3.57227 16.1753V19.2591C3.57227 19.4371 3.71651 19.5813 3.89453 19.5813C4.07255 19.5813 4.2168 19.4371 4.2168 19.2591Z" stroke="#FFC400" mask="url(#path-3-inside-3_589_80556)"/>
<mask id="path-4-inside-4_589_80556" fill="white">
<path d="M5.16602 19.2592C5.16602 19.4372 5.31026 19.5814 5.48828 19.5814C5.6663 19.5814 5.81055 19.4372 5.81055 19.2592V17.7173C5.81055 17.5393 5.6663 17.395 5.48828 17.395C5.31026 17.395 5.16602 17.5393 5.16602 17.7173V19.2592Z"/>
</mask>
<path d="M5.16602 19.2592C5.16602 19.4372 5.31026 19.5814 5.48828 19.5814C5.6663 19.5814 5.81055 19.4372 5.81055 19.2592V17.7173C5.81055 17.5393 5.6663 17.395 5.48828 17.395C5.31026 17.395 5.16602 17.5393 5.16602 17.7173V19.2592Z" stroke="#FFC400" mask="url(#path-4-inside-4_589_80556)"/>
<mask id="path-5-inside-5_589_80556" fill="white">
<path d="M10.5957 19.2591V16.1753C10.5957 15.9973 10.4515 15.853 10.2734 15.853C10.0954 15.853 9.95117 15.9973 9.95117 16.1753V19.2591C9.95117 19.4371 10.0954 19.5813 10.2734 19.5813C10.4515 19.5813 10.5957 19.4371 10.5957 19.2591Z"/>
</mask>
<path d="M10.5957 19.2591V16.1753C10.5957 15.9973 10.4515 15.853 10.2734 15.853C10.0954 15.853 9.95117 15.9973 9.95117 16.1753V19.2591C9.95117 19.4371 10.0954 19.5813 10.2734 19.5813C10.4515 19.5813 10.5957 19.4371 10.5957 19.2591Z" stroke="#FFC400" mask="url(#path-5-inside-5_589_80556)"/>
<mask id="path-6-inside-6_589_80556" fill="white">
<path d="M0.822266 15.3854C1.00029 15.3854 1.14453 15.2411 1.14453 15.0631V13.687C1.14453 13.6278 1.1927 13.5796 1.25195 13.5796H2.68874C2.86676 13.5796 3.01101 13.4353 3.01101 13.2573C3.01101 13.0793 2.86676 12.9351 2.68874 12.9351H1.25195C0.837348 12.9351 0.5 13.2724 0.5 13.687V15.0631C0.5 15.2411 0.644246 15.3854 0.822266 15.3854Z"/>
</mask>
<path d="M0.822266 15.3854C1.00029 15.3854 1.14453 15.2411 1.14453 15.0631V13.687C1.14453 13.6278 1.1927 13.5796 1.25195 13.5796H2.68874C2.86676 13.5796 3.01101 13.4353 3.01101 13.2573C3.01101 13.0793 2.86676 12.9351 2.68874 12.9351H1.25195C0.837348 12.9351 0.5 13.2724 0.5 13.687V15.0631C0.5 15.2411 0.644246 15.3854 0.822266 15.3854Z" stroke="#FFC400" mask="url(#path-6-inside-6_589_80556)"/>
<mask id="path-7-inside-7_589_80556" fill="white">
<path d="M2.68874 21.8556H1.25195C1.1927 21.8556 1.14453 21.8074 1.14453 21.7481V20.3721C1.14453 20.1941 1.00029 20.0498 0.822266 20.0498C0.644246 20.0498 0.5 20.1941 0.5 20.3721V21.7481C0.5 22.1627 0.837348 22.5001 1.25195 22.5001H2.68874C2.86676 22.5001 3.01101 22.3559 3.01101 22.1778C3.01101 21.9998 2.86672 21.8556 2.68874 21.8556Z"/>
</mask>
<path d="M2.68874 21.8556H1.25195C1.1927 21.8556 1.14453 21.8074 1.14453 21.7481V20.3721C1.14453 20.1941 1.00029 20.0498 0.822266 20.0498C0.644246 20.0498 0.5 20.1941 0.5 20.3721V21.7481C0.5 22.1627 0.837348 22.5001 1.25195 22.5001H2.68874C2.86676 22.5001 3.01101 22.3559 3.01101 22.1778C3.01101 21.9998 2.86672 21.8556 2.68874 21.8556Z" stroke="#FFC400" mask="url(#path-7-inside-7_589_80556)"/>
<mask id="path-8-inside-8_589_80556" fill="white">
<path d="M12.9153 12.9351H11.4785C11.3005 12.9351 11.1562 13.0793 11.1562 13.2573C11.1562 13.4353 11.3005 13.5796 11.4785 13.5796H12.9153C12.9745 13.5796 13.0227 13.6278 13.0227 13.687V15.0631C13.0227 15.2411 13.167 15.3854 13.345 15.3854C13.523 15.3854 13.6672 15.2411 13.6672 15.0631V13.687C13.6672 13.2724 13.3299 12.9351 12.9153 12.9351Z"/>
</mask>
<path d="M12.9153 12.9351H11.4785C11.3005 12.9351 11.1562 13.0793 11.1562 13.2573C11.1562 13.4353 11.3005 13.5796 11.4785 13.5796H12.9153C12.9745 13.5796 13.0227 13.6278 13.0227 13.687V15.0631C13.0227 15.2411 13.167 15.3854 13.345 15.3854C13.523 15.3854 13.6672 15.2411 13.6672 15.0631V13.687C13.6672 13.2724 13.3299 12.9351 12.9153 12.9351Z" stroke="#FFC400" mask="url(#path-8-inside-8_589_80556)"/>
<mask id="path-9-inside-9_589_80556" fill="white">
<path d="M13.345 20.0498C13.167 20.0498 13.0227 20.1941 13.0227 20.3721V21.7481C13.0227 21.8074 12.9745 21.8556 12.9153 21.8556H11.4785C11.3005 21.8556 11.1562 21.9998 11.1562 22.1778C11.1562 22.3559 11.3005 22.5001 11.4785 22.5001H12.9153C13.3299 22.5001 13.6672 22.1627 13.6672 21.7481V20.3721C13.6672 20.1941 13.523 20.0498 13.345 20.0498Z"/>
</mask>
<path d="M13.345 20.0498C13.167 20.0498 13.0227 20.1941 13.0227 20.3721V21.7481C13.0227 21.8074 12.9745 21.8556 12.9153 21.8556H11.4785C11.3005 21.8556 11.1562 21.9998 11.1562 22.1778C11.1562 22.3559 11.3005 22.5001 11.4785 22.5001H12.9153C13.3299 22.5001 13.6672 22.1627 13.6672 21.7481V20.3721C13.6672 20.1941 13.523 20.0498 13.345 20.0498Z" stroke="#FFC400" mask="url(#path-9-inside-9_589_80556)"/>
<mask id="path-10-inside-10_589_80556" fill="white">
<path d="M5.48828 16.8233C5.6663 16.8233 5.81055 16.6791 5.81055 16.5011V16.1758C5.81055 15.9978 5.6663 15.8535 5.48828 15.8535C5.31026 15.8535 5.16602 15.9978 5.16602 16.1758V16.5011C5.16602 16.6791 5.31026 16.8233 5.48828 16.8233Z"/>
</mask>
<path d="M5.48828 16.8233C5.6663 16.8233 5.81055 16.6791 5.81055 16.5011V16.1758C5.81055 15.9978 5.6663 15.8535 5.48828 15.8535C5.31026 15.8535 5.16602 15.9978 5.16602 16.1758V16.5011C5.16602 16.6791 5.31026 16.8233 5.48828 16.8233Z" stroke="#FFC400" mask="url(#path-10-inside-10_589_80556)"/>
<mask id="path-11-inside-11_589_80556" fill="white">
<path d="M6.76172 19.2592C6.76172 19.4372 6.90596 19.5814 7.08398 19.5814C7.262 19.5814 7.40625 19.4372 7.40625 19.2592V17.7173C7.40625 17.5393 7.262 17.395 7.08398 17.395C6.90596 17.395 6.76172 17.5393 6.76172 17.7173V19.2592Z"/>
</mask>
<path d="M6.76172 19.2592C6.76172 19.4372 6.90596 19.5814 7.08398 19.5814C7.262 19.5814 7.40625 19.4372 7.40625 19.2592V17.7173C7.40625 17.5393 7.262 17.395 7.08398 17.395C6.90596 17.395 6.76172 17.5393 6.76172 17.7173V19.2592Z" stroke="#FFC400" mask="url(#path-11-inside-11_589_80556)"/>
<mask id="path-12-inside-12_589_80556" fill="white">
<path d="M7.08398 16.8233C7.262 16.8233 7.40625 16.6791 7.40625 16.5011V16.1758C7.40625 15.9978 7.262 15.8535 7.08398 15.8535C6.90596 15.8535 6.76172 15.9978 6.76172 16.1758V16.5011C6.76172 16.6791 6.90596 16.8233 7.08398 16.8233Z"/>
</mask>
<path d="M7.08398 16.8233C7.262 16.8233 7.40625 16.6791 7.40625 16.5011V16.1758C7.40625 15.9978 7.262 15.8535 7.08398 15.8535C6.90596 15.8535 6.76172 15.9978 6.76172 16.1758V16.5011C6.76172 16.6791 6.90596 16.8233 7.08398 16.8233Z" stroke="#FFC400" mask="url(#path-12-inside-12_589_80556)"/>
<mask id="path-13-inside-13_589_80556" fill="white">
<path d="M8.35547 19.2592C8.35547 19.4372 8.49971 19.5814 8.67773 19.5814C8.85575 19.5814 9 19.4372 9 19.2592V17.7173C9 17.5393 8.85575 17.395 8.67773 17.395C8.49971 17.395 8.35547 17.5393 8.35547 17.7173V19.2592Z"/>
</mask>
<path d="M8.35547 19.2592C8.35547 19.4372 8.49971 19.5814 8.67773 19.5814C8.85575 19.5814 9 19.4372 9 19.2592V17.7173C9 17.5393 8.85575 17.395 8.67773 17.395C8.49971 17.395 8.35547 17.5393 8.35547 17.7173V19.2592Z" stroke="#FFC400" mask="url(#path-13-inside-13_589_80556)"/>
<mask id="path-14-inside-14_589_80556" fill="white">
<path d="M8.67773 16.8233C8.85575 16.8233 9 16.6791 9 16.5011V16.1758C9 15.9978 8.85575 15.8535 8.67773 15.8535C8.49971 15.8535 8.35547 15.9978 8.35547 16.1758V16.5011C8.35547 16.6791 8.49976 16.8233 8.67773 16.8233Z"/>
</mask>
<path d="M8.67773 16.8233C8.85575 16.8233 9 16.6791 9 16.5011V16.1758C9 15.9978 8.85575 15.8535 8.67773 15.8535C8.49971 15.8535 8.35547 15.9978 8.35547 16.1758V16.5011C8.35547 16.6791 8.49976 16.8233 8.67773 16.8233Z" stroke="#FFC400" mask="url(#path-14-inside-14_589_80556)"/>
<mask id="path-15-inside-15_589_80556" fill="white">
<path d="M2.07334 7.47997C1.97643 7.47997 1.89844 7.32326 1.89844 7.12981V2.93037C1.89844 2.73728 1.97643 2.58057 2.07334 2.58057C2.17043 2.58057 2.24825 2.73728 2.24825 2.93037V7.13016C2.24825 7.32361 2.17043 7.47997 2.07334 7.47997Z"/>
</mask>
<path d="M2.07334 7.47997C1.97643 7.47997 1.89844 7.32326 1.89844 7.12981V2.93037C1.89844 2.73728 1.97643 2.58057 2.07334 2.58057C2.17043 2.58057 2.24825 2.73728 2.24825 2.93037V7.13016C2.24825 7.32361 2.17043 7.47997 2.07334 7.47997Z" fill="#FFC400" stroke="#FFC400" stroke-width="2" mask="url(#path-15-inside-15_589_80556)"/>
<mask id="path-16-inside-16_589_80556" fill="white">
<path d="M0.674991 8.5C0.577774 8.5 0.5 8.34329 0.5 8.14984V1.84981C0.5 1.65671 0.577774 1.5 0.674991 1.5C0.771859 1.5 0.849808 1.65671 0.849808 1.84981V8.14984C0.849808 8.34329 0.771683 8.5 0.674991 8.5Z"/>
</mask>
<path d="M0.674991 8.5C0.577774 8.5 0.5 8.34329 0.5 8.14984V1.84981C0.5 1.65671 0.577774 1.5 0.674991 1.5C0.771859 1.5 0.849808 1.65671 0.849808 1.84981V8.14984C0.849808 8.34329 0.771683 8.5 0.674991 8.5Z" fill="#FFC400" stroke="#FFC400" stroke-width="2" mask="url(#path-16-inside-16_589_80556)"/>
</g>
<defs>
<clipPath id="clip0_589_80556">
<rect width="22" height="22" fill="white" transform="translate(0.5 0.5)"/>
</clipPath>
</defs>
</svg>
