<svg width="23" height="23" viewBox="0 0 23 23" fill="none" xmlns="http://www.w3.org/2000/svg">
<g clip-path="url(#clip0_592_67494)">
<mask id="path-1-inside-1_592_67494" fill="white">
<path d="M22.4713 14.4015C22.4794 14.4372 22.4819 14.474 22.4787 14.5105C22.4922 14.6064 22.4993 14.7031 22.5 14.8V15.5334C22.4987 16.7478 21.5145 17.732 20.3 17.7334H12.9667V18.8334H14.8C15.2647 18.8348 15.6781 19.1285 15.8325 19.5667H19.9333C20.5408 19.5667 21.0333 20.0592 21.0333 20.6667C21.0333 21.2743 20.5408 21.7667 19.9333 21.7667H15.8325C15.6781 22.205 15.2646 22.4987 14.8 22.5001H8.2C7.73538 22.4986 7.32193 22.205 7.16759 21.7667H3.06665C2.45912 21.7667 1.96665 21.2742 1.96665 20.6667C1.96665 20.0592 2.45916 19.5667 3.06665 19.5667H7.16755C7.32193 19.1285 7.73538 18.8348 8.2 18.8334H10.0333V17.7334H2.7C1.48553 17.732 0.501332 16.7478 0.5 15.5334V14.8C0.500816 14.6806 0.511344 14.5614 0.531539 14.4437C0.531625 14.4296 0.53257 14.4155 0.534375 14.4015L0.542668 14.3711C0.561617 14.2777 0.586711 14.1857 0.617777 14.0955L3.84297 2.2628L3.84834 2.24509C4.06177 1.22721 4.95998 0.49867 6 0.5H17C18.0274 0.498756 18.9183 1.2101 19.1445 2.21231C19.152 2.22859 19.1581 2.24548 19.1627 2.2628L22.4713 14.4015Z"/>
</mask>
<path d="M4.53906 2.49754L4.35389 2.42196L4.3493 2.43321L4.3461 2.44494L4.53906 2.49754ZM4.5602 2.42573L4.75673 2.46284L4.75678 2.46258L4.5602 2.42573ZM6 1.23335L5.99956 1.43335H6V1.23335ZM17 1.23335V1.43335L17.0004 1.43335L17 1.23335ZM18.4398 2.42573L18.2432 2.46257L18.2433 2.46277L18.4398 2.42573ZM18.4738 2.52383L18.6668 2.47124L18.6611 2.45039L18.6511 2.43124L18.4738 2.52383ZM21.2843 12.8353L21.194 13.0138L21.5957 13.217L21.4773 12.7827L21.2843 12.8353ZM20.3 12.6L20.3001 12.4H20.3V12.6ZM2.7 12.6V12.4H2.69982L2.7 12.6ZM1.72229 12.8321L1.52933 12.7795L1.41145 13.212L1.81205 13.0109L1.72229 12.8321ZM14.8 19.5667L14.8002 19.3667H14.8L14.8 19.5667ZM15.1667 19.9333H15.3667V19.9332L15.1667 19.9333ZM15.1667 21.4L15.3667 21.4002V21.4H15.1667ZM14.8 21.7667V21.9667H14.8002L14.8 21.7667ZM8.2 21.7667L8.19979 21.9667H8.2V21.7667ZM7.83335 21.4H7.63335L7.63335 21.4002L7.83335 21.4ZM7.83335 19.9334L7.63335 19.9332V19.9334H7.83335ZM8.2 19.5667L8.2 19.3667H8.19983L8.2 19.5667ZM10.7667 18.8334H10.5667V19.0334H10.7667V18.8334ZM10.7667 17.7334V17.5334H10.5667V17.7334H10.7667ZM12.2333 17.7334H12.4333V17.5334H12.2333V17.7334ZM12.2333 18.8334V19.0334H12.4333V18.8334H12.2333ZM18.8333 17H18.6333V17.2H18.8333V17ZM18.1 17V17.2H18.3V17H18.1ZM17.3667 17H17.1667V17.2H17.3667V17ZM16.6334 17V17.2H16.8334V17H16.6334ZM15.9 17H15.7V17.2H15.9V17ZM15.1667 17V17.2H15.3667V17H15.1667ZM14.4333 17H14.2333V17.2H14.4333V17ZM4.72423 2.57312C4.73886 2.53727 4.74966 2.5003 4.75673 2.46284L4.36368 2.38863C4.36147 2.40032 4.35817 2.41148 4.35389 2.42196L4.72423 2.57312ZM4.75678 2.46258C4.86883 1.8648 5.39138 1.43201 5.99956 1.43335L6.00044 1.03335C5.19941 1.03159 4.5112 1.60161 4.36363 2.38889L4.75678 2.46258ZM6 1.43335H17V1.03335H6V1.43335ZM17.0004 1.43335C17.6086 1.43201 18.1312 1.86481 18.2432 2.46257L18.6364 2.3889C18.4889 1.6016 17.8006 1.03159 16.9996 1.03335L17.0004 1.43335ZM18.2433 2.46277C18.2534 2.51639 18.2713 2.56815 18.2966 2.61642L18.6511 2.43124C18.6441 2.41781 18.6391 2.40348 18.6363 2.3887L18.2433 2.46277ZM18.2809 2.57643L21.0914 12.8879L21.4773 12.7827L18.6668 2.47124L18.2809 2.57643ZM21.3746 12.6569C21.0415 12.4883 20.6735 12.4003 20.3001 12.4L20.2998 12.8C20.6105 12.8003 20.9168 12.8735 21.194 13.0138L21.3746 12.6569ZM20.3 12.4H2.7V12.8H20.3V12.4ZM2.69982 12.4C2.3292 12.4003 1.96375 12.4871 1.63253 12.6534L1.81205 13.0109C2.08763 12.8725 2.39173 12.8003 2.70018 12.8L2.69982 12.4ZM1.91525 12.8847L4.73202 2.55013L4.3461 2.44494L1.52933 12.7795L1.91525 12.8847ZM14.7998 19.7667C14.8919 19.7668 14.9666 19.8415 14.9667 19.9335L15.3667 19.9332C15.3664 19.6204 15.1129 19.367 14.8002 19.3667L14.7998 19.7667ZM14.9667 19.9333V21.4H15.3667V19.9333H14.9667ZM14.9667 21.3998C14.9666 21.492 14.8919 21.5666 14.7998 21.5667L14.8002 21.9667C15.1129 21.9664 15.3663 21.7129 15.3667 21.4002L14.9667 21.3998ZM14.8 21.5667H8.2V21.9667H14.8V21.5667ZM8.20021 21.5667C8.10804 21.5666 8.03343 21.4919 8.03335 21.3999L7.63335 21.4002C7.63361 21.713 7.88711 21.9664 8.19979 21.9667L8.20021 21.5667ZM8.03335 21.4V19.9334H7.63335V21.4H8.03335ZM8.03335 19.9336C8.03345 19.8414 8.10811 19.7668 8.20017 19.7667L8.19983 19.3667C7.88704 19.367 7.63368 19.6205 7.63335 19.9332L8.03335 19.9336ZM8.2 19.7667L14.8 19.7667L14.8 19.3667L8.2 19.3667L8.2 19.7667ZM10.9667 18.8334V17.7334H10.5667V18.8334H10.9667ZM10.7667 17.9334H12.2333V17.5334H10.7667V17.9334ZM12.0333 17.7334V18.8334H12.4333V17.7334H12.0333ZM12.2333 18.6334H10.7667V19.0334H12.2333V18.6334ZM20.3 16.8H18.8333V17.2H20.3V16.8ZM19.0333 17V15.1667H18.6333V17H19.0333ZM19.0333 15.1667C19.0333 14.8537 18.7797 14.6 18.4667 14.6V15C18.5587 15 18.6333 15.0746 18.6333 15.1667H19.0333ZM18.4667 14.6C18.1537 14.6 17.9 14.8538 17.9 15.1667H18.3C18.3 15.0746 18.3747 15 18.4667 15V14.6ZM17.9 15.1667V17H18.3V15.1667H17.9ZM18.1 16.8H17.3667V17.2H18.1V16.8ZM17.5667 17V15.1667H17.1667V17H17.5667ZM17.5667 15.1667C17.5667 14.8537 17.313 14.6 17 14.6V15C17.0921 15 17.1667 15.0746 17.1667 15.1667H17.5667ZM17 14.6C16.6871 14.6 16.4334 14.8538 16.4334 15.1667H16.8334C16.8334 15.0746 16.908 15 17 15V14.6ZM16.4334 15.1667V17H16.8334V15.1667H16.4334ZM16.6334 16.8H15.9V17.2H16.6334V16.8ZM16.1 17V15.1667H15.7V17H16.1ZM16.1 15.1667C16.1 14.8537 15.8463 14.6 15.5333 14.6V15C15.6254 15 15.7 15.0746 15.7 15.1667H16.1ZM15.5333 14.6C15.2204 14.6 14.9667 14.8538 14.9667 15.1667H15.3667C15.3667 15.0746 15.4413 15 15.5333 15V14.6ZM14.9667 15.1667V17H15.3667V15.1667H14.9667ZM15.1667 16.8H14.4333V17.2H15.1667V16.8ZM14.6333 17V15.1667H14.2333V17H14.6333ZM14.6333 15.1667C14.6333 14.8537 14.3797 14.6 14.0667 14.6V15C14.1587 15 14.2333 15.0746 14.2333 15.1667H14.6333ZM14.0667 14.6C13.7537 14.6 13.5 14.8538 13.5 15.1667H13.9C13.9 15.0746 13.9747 15 14.0667 15V14.6ZM13.5 15.1667V17H13.9V15.1667H13.5ZM22.4787 14.5105L22.0802 14.4757L22.0762 14.5211L22.0826 14.5662L22.4787 14.5105ZM22.4713 14.4015L22.8616 14.3138L22.8596 14.305L22.8573 14.2963L22.4713 14.4015ZM19.1627 2.2628L18.7761 2.36543L18.7768 2.36799L19.1627 2.2628ZM19.1445 2.21231L18.7543 2.30035L18.7636 2.34159L18.7813 2.37998L19.1445 2.21231ZM17 0.5V0.9L17.0005 0.9L17 0.5ZM6 0.5L5.99949 0.9H6V0.5ZM3.84834 2.24509L4.23111 2.36123L4.23622 2.34439L4.23983 2.32718L3.84834 2.24509ZM3.84297 2.2628L3.46004 2.14662L3.45705 2.15761L3.84297 2.2628ZM0.617777 14.0955L0.995952 14.2258L1.00024 14.2134L1.0037 14.2007L0.617777 14.0955ZM0.542668 14.3711L0.928511 14.4766L0.93203 14.4638L0.934684 14.4507L0.542668 14.3711ZM0.534375 14.4015L0.148532 14.296L0.141205 14.3228L0.137654 14.3504L0.534375 14.4015ZM0.531539 14.4437L0.925781 14.5113L0.931331 14.4789L0.931532 14.4461L0.531539 14.4437ZM0.5 14.8L0.1 14.7973V14.8H0.5ZM0.5 15.5334H0.0999998L0.1 15.5338L0.5 15.5334ZM2.7 17.7334L2.69956 18.1334H2.7V17.7334ZM10.0333 17.7334H10.4333V17.3334H10.0333V17.7334ZM10.0333 18.8334V19.2334H10.4333V18.8334H10.0333ZM8.2 18.8334V18.4334L8.19878 18.4334L8.2 18.8334ZM7.16755 19.5667V19.9667H7.45073L7.54482 19.6996L7.16755 19.5667ZM7.16759 21.7667L7.54488 21.6338L7.4508 21.3667H7.16759V21.7667ZM8.2 22.5001L8.19874 22.9001H8.2V22.5001ZM14.8 22.5001V22.9001L14.8012 22.9001L14.8 22.5001ZM15.8325 21.7667V21.3667H15.5493L15.4552 21.6338L15.8325 21.7667ZM15.8325 19.5667L15.4552 19.6996L15.5492 19.9667H15.8325V19.5667ZM14.8 18.8334L14.8013 18.4334H14.8V18.8334ZM12.9667 18.8334H12.5667V19.2334H12.9667V18.8334ZM12.9667 17.7334V17.3334H12.5667V17.7334H12.9667ZM20.3 17.7334V18.1334H20.3004L20.3 17.7334ZM22.5 15.5334L22.9 15.5338V15.5334H22.5ZM22.5 14.8H22.9L22.9 14.797L22.5 14.8ZM22.8772 14.5452C22.8839 14.4675 22.8786 14.3895 22.8616 14.3138L22.0811 14.4892C22.0801 14.485 22.0798 14.4804 22.0802 14.4757L22.8772 14.5452ZM22.8573 14.2963L19.5487 2.15761L18.7768 2.36799L22.0854 14.5067L22.8573 14.2963ZM19.5494 2.16017C19.5386 2.11972 19.5245 2.08111 19.5076 2.04464L18.7813 2.37998C18.7795 2.37608 18.7777 2.37124 18.7761 2.36542L19.5494 2.16017ZM19.5347 2.12426C19.2673 0.939462 18.2141 0.0985294 16.9995 0.1L17.0005 0.9C17.8408 0.898982 18.5694 1.48075 18.7543 2.30035L19.5347 2.12426ZM17 0.1H6V0.9H17V0.1ZM6.00051 0.1C4.77101 0.0984277 3.70916 0.959704 3.45685 2.16301L4.23983 2.32718C4.41438 1.49471 5.14896 0.898912 5.99949 0.9L6.00051 0.1ZM3.46557 2.12896L3.4602 2.14667L4.22574 2.37893L4.23111 2.36123L3.46557 2.12896ZM3.45705 2.15761L0.231856 13.9903L1.0037 14.2007L4.22889 2.36799L3.45705 2.15761ZM0.239603 13.9652C0.202818 14.0719 0.173098 14.181 0.150652 14.2916L0.934684 14.4507C0.950137 14.3745 0.970604 14.2994 0.995952 14.2258L0.239603 13.9652ZM0.156825 14.2657L0.148532 14.296L0.920218 14.507L0.928511 14.4766L0.156825 14.2657ZM0.137654 14.3504C0.133767 14.3805 0.131732 14.4109 0.131546 14.4412L0.931532 14.4461C0.931518 14.4483 0.931374 14.4504 0.931096 14.4526L0.137654 14.3504ZM0.137297 14.3761C0.113414 14.5153 0.100974 14.6561 0.100009 14.7973L0.899991 14.8028C0.900659 14.705 0.909274 14.6075 0.925781 14.5113L0.137297 14.3761ZM0.1 14.8V15.5334H0.9V14.8H0.1ZM0.1 15.5338C0.101574 16.9689 1.26452 18.1318 2.69956 18.1334L2.70044 17.3334C1.70654 17.3323 0.90109 16.5268 0.9 15.5329L0.1 15.5338ZM2.7 18.1334H10.0333V17.3334H2.7V18.1334ZM9.63335 17.7334V18.8334H10.4333V17.7334H9.63335ZM10.0333 18.4334H8.2V19.2334H10.0333V18.4334ZM8.19878 18.4334C7.5649 18.4353 7.00088 18.836 6.79027 19.4338L7.54482 19.6996C7.64299 19.421 7.90586 19.2343 8.20122 19.2334L8.19878 18.4334ZM7.16755 19.1667H3.06665V19.9667H7.16755V19.1667ZM3.06665 19.1667C2.23825 19.1667 1.56665 19.8383 1.56665 20.6667H2.36665C2.36665 20.2801 2.68007 19.9667 3.06665 19.9667V19.1667ZM1.56665 20.6667C1.56665 21.4951 2.23819 22.1667 3.06665 22.1667V21.3667C2.68004 21.3667 2.36665 21.0533 2.36665 20.6667H1.56665ZM3.06665 22.1667H7.16759V21.3667H3.06665V22.1667ZM6.79031 21.8996C7.00088 22.4975 7.56492 22.8981 8.19874 22.9001L8.20126 22.1001C7.90583 22.0991 7.64299 21.9124 7.54488 21.6338L6.79031 21.8996ZM8.2 22.9001H14.8V22.1001H8.2V22.9001ZM14.8012 22.9001C15.4351 22.8981 15.9991 22.4975 16.2097 21.8996L15.4552 21.6338C15.357 21.9125 15.0941 22.0992 14.7988 22.1001L14.8012 22.9001ZM15.8325 22.1667H19.9333V21.3667H15.8325V22.1667ZM19.9333 22.1667C20.7617 22.1667 21.4333 21.4952 21.4333 20.6667H20.6333C20.6333 21.0533 20.3199 21.3667 19.9333 21.3667V22.1667ZM21.4333 20.6667C21.4333 19.8383 20.7617 19.1667 19.9333 19.1667V19.9667C20.3199 19.9667 20.6333 20.2801 20.6333 20.6667H21.4333ZM19.9333 19.1667H15.8325V19.9667H19.9333V19.1667ZM16.2097 19.4338C15.9992 18.836 15.4351 18.4354 14.8013 18.4334L14.7987 19.2334C15.0942 19.2343 15.3571 19.421 15.4552 19.6996L16.2097 19.4338ZM14.8 18.4334H12.9667V19.2334H14.8V18.4334ZM13.3667 18.8334V17.7334H12.5667V18.8334H13.3667ZM12.9667 18.1334H20.3V17.3334H12.9667V18.1334ZM20.3004 18.1334C21.7355 18.1318 22.8984 16.9689 22.9 15.5338L22.1 15.5329C22.0989 16.5268 21.2935 17.3323 20.2996 17.3334L20.3004 18.1334ZM22.9 15.5334V14.8H22.1V15.5334H22.9ZM22.9 14.797C22.8991 14.6826 22.8908 14.5683 22.8748 14.4548L22.0826 14.5662C22.0936 14.6445 22.0994 14.7236 22.1 14.803L22.9 14.797Z" fill="#000E38" mask="url(#path-1-inside-1_592_67494)"/>
<mask id="path-3-inside-2_592_67494" fill="white">
<path d="M3.79922 14.0664C3.19173 14.0664 2.69922 14.5589 2.69922 15.1664C2.69922 15.7739 3.19168 16.2664 3.79922 16.2664C4.40676 16.2664 4.89922 15.7739 4.89922 15.1664C4.89858 14.5592 4.40646 14.0671 3.79922 14.0664ZM3.79922 15.5331C3.59671 15.5331 3.43257 15.369 3.43257 15.1664C3.43257 14.9639 3.59671 14.7998 3.79922 14.7998C4.00173 14.7998 4.16587 14.964 4.16587 15.1664C4.1657 15.3688 4.00165 15.5329 3.79922 15.5331Z"/>
</mask>
<path d="M3.79922 14.0664C3.19173 14.0664 2.69922 14.5589 2.69922 15.1664C2.69922 15.7739 3.19168 16.2664 3.79922 16.2664C4.40676 16.2664 4.89922 15.7739 4.89922 15.1664C4.89858 14.5592 4.40646 14.0671 3.79922 14.0664ZM3.79922 15.5331C3.59671 15.5331 3.43257 15.369 3.43257 15.1664C3.43257 14.9639 3.59671 14.7998 3.79922 14.7998C4.00173 14.7998 4.16587 14.964 4.16587 15.1664C4.1657 15.3688 4.00165 15.5329 3.79922 15.5331Z" stroke="#FFC400" stroke-width="0.6" mask="url(#path-3-inside-2_592_67494)"/>
<mask id="path-4-inside-3_592_67494" fill="white">
<path d="M10.9138 11.838C11.3021 11.876 11.6932 11.8762 12.0815 11.8383C14.8856 11.5767 17 9.46088 17 6.91657C17 4.37226 14.8856 2.25644 12.0862 1.99523C11.6979 1.95678 11.3068 1.95669 10.9185 1.99485C8.11441 2.25644 6 4.37231 6 6.91657C6 9.46084 8.11441 11.5767 10.9138 11.838ZM13.105 10.885C13.4887 10.3884 13.7943 9.83626 14.0112 9.24745H15.4728C14.8746 10.0279 14.0464 10.6007 13.105 10.885ZM15.9122 8.51411H14.2367C14.3338 8.11016 14.3933 7.69813 14.4145 7.28322H16.2473C16.2055 7.70943 16.0922 8.12554 15.9122 8.51411ZM15.9123 5.31904C16.0922 5.70765 16.2055 6.12376 16.2473 6.54992H14.4145C14.3933 6.13501 14.3338 5.72299 14.2367 5.31904H15.9123V5.31904ZM15.4731 4.58573H14.0113C13.7942 3.99659 13.4883 3.44405 13.1043 2.94733C14.0462 3.23149 14.8749 3.80465 15.4731 4.58573ZM11.8667 2.71376L11.8895 2.71552C12.4676 3.23308 12.9245 3.87159 13.2279 4.58573H11.8667V2.71376ZM11.8667 5.31904H13.4793C13.5894 5.72114 13.6572 6.13368 13.6814 6.54992H11.8667V5.31904V5.31904ZM11.8667 7.28327H13.6814C13.6572 7.69951 13.5894 8.11205 13.4793 8.51415H11.8667V7.28327ZM11.8667 9.24745H13.2279C12.9245 9.96155 12.4676 10.6001 11.8896 11.1176L11.8667 11.1194V9.24745V9.24745ZM7.52685 9.24745H8.98873C9.20581 9.8366 9.51166 10.3891 9.89568 10.8859C8.9538 10.6017 8.12511 10.0285 7.52685 9.24745ZM11.1333 11.1193L11.1104 11.1175C10.5324 10.6 10.0755 9.96151 9.77218 9.24745H11.1334V11.1193H11.1333ZM11.1333 8.51411H9.52073C9.41056 8.11201 9.34284 7.69946 9.31865 7.28322H11.1333V8.51411ZM11.1333 6.54992H9.31865C9.34284 6.13368 9.41056 5.72114 9.52073 5.31904H11.1333V6.54992ZM11.1104 2.71552L11.1333 2.71376V4.58569H9.7721C10.0755 3.87159 10.5324 3.23308 11.1104 2.71552ZM9.89499 2.94824C9.51128 3.44474 9.20568 3.99693 8.98878 4.58573H7.5272C8.12536 3.80525 8.95363 3.23247 9.89499 2.94824ZM7.0878 5.31904H8.76328C8.66617 5.72299 8.60666 6.13501 8.58547 6.54992H6.75264C6.79449 6.12376 6.9078 5.70765 7.0878 5.31904ZM6.75264 7.28327H8.58547C8.60666 7.69817 8.66617 8.1102 8.76328 8.51415H7.08771C6.90776 8.12554 6.79449 7.70943 6.75264 7.28327Z"/>
</mask>
<path d="M10.9138 11.838C11.3021 11.876 11.6932 11.8762 12.0815 11.8383C14.8856 11.5767 17 9.46088 17 6.91657C17 4.37226 14.8856 2.25644 12.0862 1.99523C11.6979 1.95678 11.3068 1.95669 10.9185 1.99485C8.11441 2.25644 6 4.37231 6 6.91657C6 9.46084 8.11441 11.5767 10.9138 11.838ZM13.105 10.885C13.4887 10.3884 13.7943 9.83626 14.0112 9.24745H15.4728C14.8746 10.0279 14.0464 10.6007 13.105 10.885ZM15.9122 8.51411H14.2367C14.3338 8.11016 14.3933 7.69813 14.4145 7.28322H16.2473C16.2055 7.70943 16.0922 8.12554 15.9122 8.51411ZM15.9123 5.31904C16.0922 5.70765 16.2055 6.12376 16.2473 6.54992H14.4145C14.3933 6.13501 14.3338 5.72299 14.2367 5.31904H15.9123V5.31904ZM15.4731 4.58573H14.0113C13.7942 3.99659 13.4883 3.44405 13.1043 2.94733C14.0462 3.23149 14.8749 3.80465 15.4731 4.58573ZM11.8667 2.71376L11.8895 2.71552C12.4676 3.23308 12.9245 3.87159 13.2279 4.58573H11.8667V2.71376ZM11.8667 5.31904H13.4793C13.5894 5.72114 13.6572 6.13368 13.6814 6.54992H11.8667V5.31904V5.31904ZM11.8667 7.28327H13.6814C13.6572 7.69951 13.5894 8.11205 13.4793 8.51415H11.8667V7.28327ZM11.8667 9.24745H13.2279C12.9245 9.96155 12.4676 10.6001 11.8896 11.1176L11.8667 11.1194V9.24745V9.24745ZM7.52685 9.24745H8.98873C9.20581 9.8366 9.51166 10.3891 9.89568 10.8859C8.9538 10.6017 8.12511 10.0285 7.52685 9.24745ZM11.1333 11.1193L11.1104 11.1175C10.5324 10.6 10.0755 9.96151 9.77218 9.24745H11.1334V11.1193H11.1333ZM11.1333 8.51411H9.52073C9.41056 8.11201 9.34284 7.69946 9.31865 7.28322H11.1333V8.51411ZM11.1333 6.54992H9.31865C9.34284 6.13368 9.41056 5.72114 9.52073 5.31904H11.1333V6.54992ZM11.1104 2.71552L11.1333 2.71376V4.58569H9.7721C10.0755 3.87159 10.5324 3.23308 11.1104 2.71552ZM9.89499 2.94824C9.51128 3.44474 9.20568 3.99693 8.98878 4.58573H7.5272C8.12536 3.80525 8.95363 3.23247 9.89499 2.94824ZM7.0878 5.31904H8.76328C8.66617 5.72299 8.60666 6.13501 8.58547 6.54992H6.75264C6.79449 6.12376 6.9078 5.70765 7.0878 5.31904ZM6.75264 7.28327H8.58547C8.60666 7.69817 8.66617 8.1102 8.76328 8.51415H7.08771C6.90776 8.12554 6.79449 7.70943 6.75264 7.28327Z" stroke="#FFC400" stroke-width="0.6" mask="url(#path-4-inside-3_592_67494)"/>
</g>
<defs>
<clipPath id="clip0_592_67494">
<rect width="22" height="22" fill="white" transform="translate(0.5 0.5)"/>
</clipPath>
</defs>
</svg>
