<svg width="25" height="25" viewBox="0 0 25 25" fill="none" xmlns="http://www.w3.org/2000/svg">
<mask id="path-1-inside-1_592_66539" fill="white">
<path d="M21.511 9.88415L25 6.39553L18.6041 0L15.1158 3.48903L14.5345 2.90773C14.374 2.74725 14.1138 2.74725 13.9532 2.90773L4.06951 12.7911C3.58785 13.2727 3.58775 14.0536 4.06936 14.5352L5.23211 15.698L4.36016 16.5699C3.87835 17.0514 3.87814 17.8323 4.35959 18.3141L4.65081 18.6053L0 23.2561L1.7439 25L6.39512 20.3496L6.68577 20.6403C7.16738 21.1219 7.94827 21.122 8.42992 20.6404L9.30203 19.7683L10.4646 20.9309C10.9462 21.4126 11.7271 21.4127 12.2088 20.9311L22.0923 11.0472C22.2528 10.8866 22.2528 10.6264 22.0923 10.4659L21.511 9.88415Z"/>
</mask>
<path d="M9.30203 19.4369L9.12494 19.6134L9.55203 20.042V19.4369H9.30203ZM21.6768 9.82322L15.1768 3.32322L14.8232 3.67678L21.3232 10.1768L21.6768 9.82322ZM5.39931 15.8744L9.12494 19.6134L9.47912 19.2605L5.7535 15.5215L5.39931 15.8744ZM9.55203 19.4369V19.3707H9.05203V19.4369H9.55203ZM21.511 9.88415L21.1574 9.53058L20.804 9.884L21.1573 10.2376L21.511 9.88415ZM25 6.39553L25.3535 6.7491L25.7071 6.39554L25.3535 6.04197L25 6.39553ZM18.6041 0L18.9576 -0.353565L18.604 -0.707137L18.2505 -0.353512L18.6041 0ZM15.1158 3.48903L14.7623 3.84259L15.1159 4.19618L15.4694 3.84254L15.1158 3.48903ZM14.5345 2.90773L14.8881 2.55418L14.888 2.55412L14.5345 2.90773ZM13.9532 2.90773L13.5998 2.55412L13.5997 2.55417L13.9532 2.90773ZM4.06951 12.7911L4.42304 13.1446L4.42306 13.1446L4.06951 12.7911ZM4.06936 14.5352L3.71578 14.8888L3.7158 14.8888L4.06936 14.5352ZM5.23211 15.698L5.58566 16.0515L5.93922 15.698L5.58566 15.3444L5.23211 15.698ZM4.36016 16.5699L4.7136 16.9236L4.71371 16.9235L4.36016 16.5699ZM4.35959 18.3141L4.00593 18.6675L4.00604 18.6676L4.35959 18.3141ZM4.65081 18.6053L5.00436 18.9588L5.35792 18.6053L5.00436 18.2517L4.65081 18.6053ZM0 23.2561L-0.353553 22.9025L-0.707107 23.2561L-0.353554 23.6097L0 23.2561ZM1.7439 25L1.39035 25.3536L1.74387 25.7071L2.09742 25.3536L1.7439 25ZM6.39512 20.3496L6.74867 19.996L6.39515 19.6425L6.0416 19.996L6.39512 20.3496ZM6.68577 20.6403L7.03934 20.2867L7.03932 20.2867L6.68577 20.6403ZM8.42992 20.6404L8.78346 20.994L8.78348 20.994L8.42992 20.6404ZM9.30203 19.7683L9.65558 19.4147L9.30203 19.0612L8.94848 19.4147L9.30203 19.7683ZM10.4646 20.9309L10.8182 20.5774L10.8182 20.5773L10.4646 20.9309ZM12.2088 20.9311L12.5623 21.2846L12.5623 21.2846L12.2088 20.9311ZM22.0923 11.0472L22.4458 11.4007L22.4459 11.4007L22.0923 11.0472ZM22.0923 10.4659L21.7386 10.8193L21.7387 10.8194L22.0923 10.4659ZM21.8645 10.2377L25.3535 6.7491L24.6465 6.04196L21.1574 9.53058L21.8645 10.2377ZM25.3535 6.04197L18.9576 -0.353565L18.2505 0.353565L24.6465 6.7491L25.3535 6.04197ZM18.2505 -0.353512L14.7623 3.13552L15.4694 3.84254L18.9577 0.353512L18.2505 -0.353512ZM15.4694 3.13548L14.8881 2.55418L14.181 3.26129L14.7623 3.84259L15.4694 3.13548ZM14.888 2.55412C14.5323 2.19845 13.9555 2.19845 13.5998 2.55412L14.3067 3.26134C14.272 3.29604 14.2158 3.29604 14.1811 3.26134L14.888 2.55412ZM13.5997 2.55417L3.71596 12.4375L4.42306 13.1446L14.3068 3.26129L13.5997 2.55417ZM3.71598 12.4375C3.03908 13.1143 3.03889 14.2118 3.71578 14.8888L4.42293 14.1817C4.1366 13.8953 4.13663 13.431 4.42304 13.1446L3.71598 12.4375ZM3.7158 14.8888L4.87856 16.0515L5.58566 15.3444L4.42291 14.1817L3.7158 14.8888ZM4.87856 15.3444L4.00661 16.2164L4.71371 16.9235L5.58566 16.0515L4.87856 15.3444ZM4.00672 16.2163C3.32957 16.893 3.32928 17.9904 4.00593 18.6675L4.71326 17.9606C4.427 17.6742 4.42712 17.2099 4.7136 16.9236L4.00672 16.2163ZM4.00604 18.6676L4.29726 18.9588L5.00436 18.2517L4.71315 17.9605L4.00604 18.6676ZM4.29726 18.2517L-0.353553 22.9025L0.353553 23.6097L5.00436 18.9588L4.29726 18.2517ZM-0.353554 23.6097L1.39035 25.3536L2.09745 24.6464L0.353554 22.9025L-0.353554 23.6097ZM2.09742 25.3536L6.74864 20.7032L6.0416 19.996L1.39038 24.6464L2.09742 25.3536ZM6.04157 20.7032L6.33222 20.9938L7.03932 20.2867L6.74867 19.996L6.04157 20.7032ZM6.3322 20.9938C7.00902 21.6707 8.1065 21.6709 8.78346 20.994L8.07639 20.2868C7.79004 20.5732 7.32573 20.5731 7.03934 20.2867L6.3322 20.9938ZM8.78348 20.994L9.65558 20.1219L8.94848 19.4147L8.07637 20.2869L8.78348 20.994ZM8.94848 20.1219L10.1111 21.2845L10.8182 20.5773L9.65558 19.4147L8.94848 20.1219ZM10.1111 21.2844C10.7879 21.9613 11.8854 21.9615 12.5623 21.2846L11.8552 20.5775C11.5689 20.8638 11.1046 20.8638 10.8182 20.5774L10.1111 21.2844ZM12.5623 21.2846L22.4458 11.4007L21.7387 10.6936L11.8552 20.5775L12.5623 21.2846ZM22.4459 11.4007C22.8015 11.0449 22.8015 10.4682 22.4459 10.1124L21.7387 10.8194C21.704 10.7846 21.704 10.7284 21.7387 10.6937L22.4459 11.4007ZM22.4459 10.1124L21.8646 9.53072L21.1573 10.2376L21.7386 10.8193L22.4459 10.1124Z" fill="#000E38" mask="url(#path-1-inside-1_592_66539)"/>
<path d="M5 18.5C6.2 19.7 6.5 20 6.5 20" stroke="#000E38" stroke-width="0.4"/>
<mask id="path-4-inside-2_592_66539" fill="white">
<path d="M18.3127 2.03564L16.5684 3.77996L18.3127 5.52386L20.057 3.77996L18.3127 2.03564ZM17.7314 3.77996L18.3127 3.19824L18.8944 3.77996L18.3127 4.36126L17.7314 3.77996Z"/>
</mask>
<path d="M18.3127 2.03564L16.5684 3.77996L18.3127 5.52386L20.057 3.77996L18.3127 2.03564ZM17.7314 3.77996L18.3127 3.19824L18.8944 3.77996L18.3127 4.36126L17.7314 3.77996Z" fill="#071D49" stroke="#000E38" mask="url(#path-4-inside-2_592_66539)"/>
<mask id="path-5-inside-3_592_66539" fill="white">
<path d="M22.9648 6.68621L21.2205 4.94189L19.4766 6.68621L21.2205 8.43052L22.9648 6.68621ZM21.2205 6.1045L21.8018 6.68621L21.2205 7.26751L20.6392 6.68621L21.2205 6.1045Z"/>
</mask>
<path d="M22.9648 6.68621L21.2205 4.94189L19.4766 6.68621L21.2205 8.43052L22.9648 6.68621ZM21.2205 6.1045L21.8018 6.68621L21.2205 7.26751L20.6392 6.68621L21.2205 6.1045Z" fill="#071D49" stroke="#000E38" mask="url(#path-5-inside-3_592_66539)"/>
<mask id="path-6-inside-4_592_66539" fill="white">
<path d="M10.7337 12.0494V13.684L15.1148 9.30286L14.3983 8.58672L17.1494 7.84961L16.4123 10.6003L15.6961 9.88416L12.1372 13.4431H13.8581L14.8114 12.4881L14.5331 12.2098L15.6965 11.0472L16.8591 12.2098L15.6961 13.3724L15.3932 13.0694L14.1968 14.2653H11.315L9.88026 15.6984C9.91762 15.8379 9.91762 15.9847 9.88026 16.1241C9.76269 16.5627 9.31181 16.823 8.87321 16.7054C8.43462 16.5879 8.17434 16.137 8.29191 15.6984C8.40949 15.2598 8.86037 14.9995 9.29896 15.1171L9.9115 14.5045V11.709L11.1941 10.4268C11.1631 10.3383 11.1473 10.2452 11.1476 10.1514C11.1492 9.69731 11.5186 9.3305 11.9727 9.33205C12.4268 9.33359 12.7936 9.70301 12.7921 10.1571C12.7905 10.6112 12.4211 10.9781 11.967 10.9765C11.918 10.976 11.8692 10.9712 11.8211 10.9621L10.7337 12.0494Z"/>
</mask>
<path d="M10.7337 12.0494V13.684L15.1148 9.30286L14.3983 8.58672L17.1494 7.84961L16.4123 10.6003L15.6961 9.88416L12.1372 13.4431H13.8581L14.8114 12.4881L14.5331 12.2098L15.6965 11.0472L16.8591 12.2098L15.6961 13.3724L15.3932 13.0694L14.1968 14.2653H11.315L9.88026 15.6984C9.91762 15.8379 9.91762 15.9847 9.88026 16.1241C9.76269 16.5627 9.31181 16.823 8.87321 16.7054C8.43462 16.5879 8.17434 16.137 8.29191 15.6984C8.40949 15.2598 8.86037 14.9995 9.29896 15.1171L9.9115 14.5045V11.709L11.1941 10.4268C11.1631 10.3383 11.1473 10.2452 11.1476 10.1514C11.1492 9.69731 11.5186 9.3305 11.9727 9.33205C12.4268 9.33359 12.7936 9.70301 12.7921 10.1571C12.7905 10.6112 12.4211 10.9781 11.967 10.9765C11.918 10.976 11.8692 10.9712 11.8211 10.9621L10.7337 12.0494Z" fill="#FFC400" stroke="#FFC400" stroke-width="0.4" mask="url(#path-6-inside-4_592_66539)"/>
</svg>
