<?xml version="1.0" encoding="utf-8"?>
<!-- Generator: Adobe Illustrator 23.0.1, SVG Export Plug-In . SVG Version: 6.00 Build 0)  -->
<svg version="1.1" id="Слой_1" xmlns="http://www.w3.org/2000/svg" xmlns:xlink="http://www.w3.org/1999/xlink" x="0px" y="0px"
	 viewBox="0 0 23 19" style="enable-background:new 0 0 23 19;" xml:space="preserve">
<style type="text/css">
	.st0{fill:none;stroke:#071D49;stroke-width:0.5;stroke-miterlimit:10;}
	.st1{fill:none;stroke:#FFC400;stroke-width:0.5;stroke-miterlimit:10;}
	.st2{fill:#FFFFFF;stroke:#FFC400;stroke-width:0.5;stroke-miterlimit:10;}
	.st3{fill:none;}
</style>
<path class="st0" d="M9.7,16.5c-0.9,0.2-2.1,0.4-3.4,0.4c-2.8,0-5.1-0.7-5.6-1.6c-0.1-0.1-0.1-0.2-0.1-0.4V2.4c0,1.1,2.6,2,5.7,2
	s5.7-1,5.7-2v4.7"/>
<path class="st0" d="M12,2.3C12,3.2,9.4,4,6.2,4C3.1,4,0.5,3.2,0.5,2.3c0-1,2.6-1.8,5.7-1.8C9.4,0.5,12,1.3,12,2.3z"/>
<path class="st0" d="M6.2,3C8,3,9.4,2.7,9.4,2.3S8,1.6,6.3,1.6S3.2,1.9,3.2,2.3C3.1,2.7,4.5,3,6.2,3z"/>
<path class="st1" d="M13.4,7c-2.2,0-4.1,1-4.1,2.1c0,0.1,0,0.2,0.1,0.3c0.3,1,2,1.8,4,1.8s3.7-0.8,4-1.8c0-0.1,0.1-0.2,0.1-0.3
	C17.5,8,15.7,7,13.4,7z M15.1,9.5c-0.3,0.3-0.9,0.6-1.6,0.6c-0.7,0-1.4-0.2-1.6-0.6c-0.1-0.1-0.1-0.2-0.1-0.3c0-0.5,0.8-0.9,1.8-0.9
	s1.8,0.4,1.8,0.9C15.2,9.2,15.1,9.4,15.1,9.5z"/>
<path class="st1" d="M15.2,9.1c0,0.1,0,0.2-0.1,0.3c-0.3,0.3-0.9,0.6-1.6,0.6c-0.7,0-1.4-0.2-1.6-0.6c-0.1-0.1-0.1-0.2-0.1-0.3
	c0-0.5,0.8-0.9,1.8-0.9C14.4,8.2,15.2,8.6,15.2,9.1z"/>
<path class="st1" d="M17.5,9.5v6.4c0,0.2,0,0.4-0.1,0.5c-0.4,0.9-2,1.6-3.9,1.6s-3.5-0.7-3.9-1.6c-0.1-0.2-0.1-0.3-0.1-0.5V9.5h0.1
	c0.3,1,2,1.8,4,1.8C15.4,11.2,17.1,10.5,17.5,9.5L17.5,9.5z"/>
<path class="st2" d="M9.5,16.4H9.3v-0.5C9.3,16,9.4,16.2,9.5,16.4z"/>
<path class="st3" d="M17.7,9.4c0.5,0,1.1,0.1,1.5,0.4c0.2,0.2,0.4,0.5,0.6,0.7c0.6,0.7,1.6,0.9,2.4,0.7c-0.4,0.7-0.4,1.6-0.5,2.4
	c0,0.7,0,1.4,0.1,2c0.1,0.4,0.2,0.7,0.3,1.1c0.1,0.3,0.2,0.7,0.4,1c-0.9-0.6-2.1-0.4-3-1c-0.2-0.1-0.4-0.3-0.6-0.4s-0.5-0.2-0.7-0.2
	c-0.3,0-0.4,0.3-0.6,0.3c0.1-0.2,0.1-0.3,0.1-0.5c0,0,0,0.3,0,0.5"/>
<path class="st1" d="M17.7,9.4c0.5,0,1.1,0.1,1.5,0.4c0.2,0.2,0.4,0.5,0.6,0.7c0.6,0.7,1.6,0.9,2.4,0.7c-0.4,0.7-0.4,1.6-0.5,2.4
	c0,0.7,0,1.4,0.1,2c0.1,0.4,0.2,0.7,0.3,1.1c0.1,0.3,0.2,0.7,0.4,1c-0.9-0.6-2.1-0.4-3-1c-0.2-0.1-0.4-0.3-0.6-0.4s-0.5-0.2-0.7-0.2
	c-0.3,0-0.4,0.3-0.6,0.3c0.1-0.2,0.1-0.3,0.1-0.5c0,0,0,0.3,0,0.5"/>
<path class="st1" d="M13.4,11.3v0.8"/>
<path class="st1" d="M13.4,12.8v0.8"/>
<path class="st1" d="M13.4,14.1v0.8"/>
<path class="st1" d="M13.4,15.6v0.8"/>
<path class="st1" d="M13.4,17.1v0.8"/>
<path class="st0" d="M5.9,4.4v0.9"/>
<path class="st0" d="M5.9,6.1v1.8"/>
<path class="st0" d="M5.9,8.7v1.8"/>
<path class="st0" d="M5.9,11.3v3.3"/>
<path class="st0" d="M5.8,15.1v1.8"/>
</svg>
