<?xml version="1.0" encoding="utf-8"?>
<!-- Generator: Adobe Illustrator 23.0.1, SVG Export Plug-In . SVG Version: 6.00 Build 0)  -->
<svg version="1.1" id="Слой_1" xmlns="http://www.w3.org/2000/svg" xmlns:xlink="http://www.w3.org/1999/xlink" x="0px" y="0px"
	 viewBox="0 0 25 25" style="enable-background:new 0 0 25 25;" xml:space="preserve">
<style type="text/css">
	.st0{fill:none;stroke:#000E38;stroke-width:0.5;stroke-miterlimit:10;}
	.st1{fill:#FFC400;}
	.st2{fill:none;stroke:#FFC400;stroke-width:0.5;stroke-miterlimit:10;}
</style>
<path class="st0" d="M16.8,23.5H7.7c-0.9,0-1.6-0.7-1.6-1.5V3c0-0.8,0.7-1.5,1.6-1.5h9.1c0.9,0,1.6,0.7,1.6,1.5V22
	C18.4,22.8,17.7,23.5,16.8,23.5z"/>
<path class="st1" d="M16.3,2.7c0,0,0.1,0,0.1,0c0,0,0.1,0,0.1-0.1c0,0,0.1-0.1,0.1-0.1c0,0,0-0.1,0-0.1c0,0,0-0.1,0-0.1
	c0,0,0-0.1-0.1-0.1c0,0,0,0-0.1,0c-0.1,0-0.1,0-0.2,0c0,0-0.1,0-0.1,0c0,0-0.1,0-0.1,0.1c0,0-0.1,0.1-0.1,0.1c0,0,0,0.1,0,0.1
	c0,0,0,0.1,0,0.1c0,0,0,0.1,0.1,0.1c0,0,0,0,0.1,0C16.1,2.7,16.2,2.7,16.3,2.7z"/>
<path class="st0" d="M16.5,22.2H8c-0.4,0-0.7-0.3-0.7-0.7v-0.8h10v0.8C17.2,21.9,16.9,22.2,16.5,22.2z"/>
<path class="st0" d="M12.2,20.7H9.6v1.4h2.6V20.7z"/>
<path class="st0" d="M14.9,20.7h-2.6v1.4h2.6V20.7z"/>
<path class="st2" d="M12.2,13.9c1.8,0,3.3-1.3,3.3-3c0-1.6-1.5-3-3.3-3C10.4,8,9,9.3,9,10.9C9,12.6,10.4,13.9,12.2,13.9z"/>
<path class="st1" d="M12.2,11.1c0.8,0,1.5,0,2.3,0c0.3,0,0.3-0.4,0-0.4c-0.8,0-1.5,0-2.3,0C11.9,10.7,11.9,11.1,12.2,11.1z"/>
<path class="st1" d="M10.5,9.3c0.5,0.5,0.9,1,1.4,1.5c0.1,0.1,0.1,0.1,0.2,0.2c0.1,0.1,0.3,0.1,0.3,0c0.1-0.1,0.1-0.2,0-0.3
	c-0.5-0.5-0.9-1-1.4-1.5c-0.1-0.1-0.1-0.1-0.2-0.2c-0.1-0.1-0.3-0.1-0.3,0C10.4,9.1,10.4,9.2,10.5,9.3z"/>
<path class="st1" d="M18.3,6c0,0.4,0,0.8,0,1.2c0,0.4,0.7,0.4,0.7,0c0-0.4,0-0.8,0-1.2C18.9,5.6,18.3,5.6,18.3,6z"/>
<path class="st1" d="M18.3,8c0,0.4,0,0.8,0,1.2c0,0.4,0.7,0.4,0.7,0c0-0.4,0-0.8,0-1.2C18.9,7.6,18.3,7.6,18.3,8z"/>
<path class="st1" d="M18.3,11.8c0,0.4,0,0.7,0,1.1c0,0.4,0.7,0.4,0.7,0c0-0.4,0-0.7,0-1.1C18.9,11.4,18.3,11.4,18.3,11.8z"/>
<path class="st0" d="M18.4,3.3H6.1v15.7h12.3V3.3z"/>
</svg>
