<svg width="22" height="23" viewBox="0 0 22 23" fill="none" xmlns="http://www.w3.org/2000/svg">
<mask id="path-1-inside-1_589_78760" fill="white">
<path d="M7.53685 3.23927C10.8142 0.896568 11.0272 0.759613 11.4946 0.60103C11.6661 0.550571 11.8732 0.500113 11.956 0.500113C12.0448 0.492905 13.1096 0.838903 14.3224 1.25698C15.541 1.67507 17.5939 2.38869 18.8954 2.8356C20.2087 3.28973 21.3209 3.71502 21.4096 3.7871C21.6285 3.98893 21.8178 4.35655 21.9243 4.78905C22.0012 5.10622 22.0071 5.75496 21.9953 9.07799L21.9953 9.08387C21.9775 12.9849 21.9775 12.9995 21.8415 13.4102C21.6048 14.131 21.3682 14.3545 19.4337 15.7457C16.2273 18.0451 13.8314 19.7463 12.5121 20.6617C10.2108 22.262 9.66065 22.5071 8.40057 22.4998L7.66108 22.4926L4.05239 21.2312C0.644832 20.0346 0.437776 19.9553 0.289879 19.7391C0.0295794 19.357 0 19.1047 0 17.0071V15.0465L0.526514 14.4121C0.999786 13.8427 1.08261 13.6985 1.40798 12.884C1.82801 11.8388 2.05281 11.0891 2.37227 9.66186C2.65624 8.3932 2.86921 7.77329 3.28332 7.01642C3.90449 5.87751 4.13521 5.67567 7.53685 3.23927Z"/>
</mask>
<path d="M21.1848 3.9601L21.0547 4.17366L21.0497 4.17043L21.1848 3.9601ZM21.6817 4.8323L21.9248 4.77364L21.9248 4.77391L21.6817 4.8323ZM21.7705 9.2582H22.0205V9.38702L21.9156 9.46179L21.7705 9.2582ZM20.5163 10.152L20.6614 10.3556L20.6608 10.3561L20.5163 10.152ZM17.9547 11.9469L17.8085 11.7441L17.8104 11.7427L17.9547 11.9469ZM15.4405 13.7201L15.5841 13.9248L15.5839 13.9249L15.4405 13.7201ZM4.25944 16.9062L4.34131 16.67L4.34169 16.6701L4.25944 16.9062ZM9.02173 18.074L9.15513 18.2854L9.15289 18.2868L9.02173 18.074ZM11.2994 13.0353L11.5429 13.0917L11.5429 13.0918L11.2994 13.0353ZM12.8375 9.35191L13.0334 9.50717L13.033 9.50775L12.8375 9.35191ZM16.3574 6.56229L16.5029 6.76561L16.5027 6.76578L16.3574 6.56229ZM19.6881 4.21239L19.5548 4.00089L19.5561 4.00005L19.6881 4.21239ZM21.3149 3.7466C21.4651 3.83812 21.593 4.01001 21.6884 4.17821C21.7888 4.35509 21.8746 4.56599 21.9248 4.77364L21.4387 4.89096C21.4001 4.73099 21.3321 4.56346 21.2536 4.42498C21.17 4.27781 21.0938 4.19741 21.0547 4.1736L21.3149 3.7466ZM21.9248 4.77391C21.9664 4.94696 21.9891 5.16576 22.0026 5.53134C22.0161 5.89877 22.0205 6.4293 22.0205 7.23267H21.5205C21.5205 6.42858 21.516 5.9067 21.5029 5.5497C21.4897 5.19084 21.4681 5.01318 21.4387 4.89069L21.9248 4.77391ZM22.0205 7.23267V9.2582H21.5205V7.23267H22.0205ZM21.9156 9.46179L20.6614 10.3556L20.3712 9.94844L21.6254 9.05461L21.9156 9.46179ZM20.6608 10.3561C19.9693 10.8457 19.2275 11.3664 19.0118 11.5124L18.7316 11.0983C18.9419 10.956 19.679 10.4387 20.3718 9.94801L20.6608 10.3561ZM19.0118 11.5124C18.8015 11.6548 18.3959 11.9413 18.099 12.1511L17.8104 11.7427C18.1052 11.5344 18.516 11.2443 18.7316 11.0983L19.0118 11.5124ZM18.101 12.1497C17.8094 12.3599 16.6719 13.1612 15.5841 13.9248L15.2968 13.5155C16.3861 12.7509 17.5203 11.952 17.8085 11.7441L18.101 12.1497ZM15.5839 13.9249C12.9783 15.7504 11.5076 16.7156 10.6253 17.2871C9.72923 17.8676 9.47031 18.0249 9.24448 18.2507L8.89093 17.8972C9.1651 17.623 9.48958 17.4271 10.3534 16.8675C11.231 16.299 12.6967 15.3372 15.297 13.5154L15.5839 13.9249ZM0.348084 15.286L4.34131 16.67L4.17757 17.1424L0.184346 15.7584L0.348084 15.286ZM4.34169 16.6701C6.5126 17.4264 7.55806 17.7915 8.12868 17.9311C8.41351 18.0008 8.54575 18.0048 8.62579 17.9909C8.70186 17.9776 8.7507 17.9473 8.89058 17.8611L9.15289 18.2868C9.03543 18.3592 8.90088 18.4505 8.71147 18.4835C8.52604 18.5157 8.31072 18.4904 8.00987 18.4168C7.40915 18.2699 6.33079 17.8925 4.1772 17.1423L4.34169 16.6701ZM8.88835 17.8625C9.24005 17.6406 9.62762 17.1152 10.0104 16.2681C10.3881 15.4319 10.7445 14.3208 11.0558 12.9789L11.5429 13.0918C11.2271 14.453 10.8617 15.5981 10.466 16.4739C10.0753 17.3388 9.63756 17.9811 9.15512 18.2854L8.88835 17.8625ZM11.0558 12.979C11.2926 11.9547 11.4798 11.2681 11.7135 10.7081C11.9499 10.1414 12.2305 9.71225 12.642 9.19606L13.033 9.50775C12.6399 10.0007 12.3881 10.3898 12.1749 10.9006C11.9589 11.4183 11.7794 12.0689 11.5429 13.0917L11.0558 12.979ZM12.6415 9.19664C12.8976 8.87348 13.0411 8.69589 13.5037 8.3289C13.953 7.97245 14.7158 7.42691 16.2122 6.35881L16.5027 6.76578C14.9997 7.83854 14.251 8.37425 13.8144 8.72061C13.3911 9.05643 13.2743 9.20321 13.0334 9.50717L12.6415 9.19664ZM16.212 6.35897C17.87 5.17271 19.3752 4.11407 19.5548 4.00089L19.8214 4.42389C19.6579 4.52695 18.1696 5.57314 16.5029 6.76561L16.212 6.35897ZM19.5561 4.00005C19.8733 3.80294 20.1967 3.67312 20.4952 3.62339C20.79 3.57428 21.0865 3.59977 21.3199 3.74977L21.0497 4.17043C20.9578 4.11139 20.8017 4.07921 20.5774 4.11659C20.3567 4.15336 20.0944 4.25421 19.82 4.42473L19.5561 4.00005ZM11.4946 0.60103L11.3339 0.127546L11.3436 0.124245L11.3535 0.121347L11.4946 0.60103ZM7.53685 3.23927L7.2457 2.83278L7.24609 2.8325L7.53685 3.23927ZM3.28332 7.01642L3.72228 7.25583L3.72196 7.25641L3.28332 7.01642ZM2.37227 9.66186L2.8602 9.77108L2.37227 9.66186ZM1.40798 12.884L0.943656 12.6985L0.944042 12.6975L1.40798 12.884ZM0.526514 14.4121L0.14178 14.0928L0.14198 14.0926L0.526514 14.4121ZM0 15.0465H-0.5V14.866L-0.384735 14.7271L0 15.0465ZM0.289879 19.7391L-0.122831 20.0213L-0.123327 20.0206L0.289879 19.7391ZM4.05239 21.2312L3.8874 21.7032L3.88672 21.7029L4.05239 21.2312ZM7.66108 22.4926L7.65621 22.9926L7.57384 22.9918L7.49609 22.9646L7.66108 22.4926ZM8.40057 22.4998L8.39771 22.9998L8.39569 22.9998L8.40057 22.4998ZM12.5121 20.6617L12.2267 20.2512L12.2271 20.2509L12.5121 20.6617ZM19.4337 15.7457L19.7256 16.1516L19.7251 16.152L19.4337 15.7457ZM21.8415 13.4102L21.3664 13.2542L21.3668 13.253L21.8415 13.4102ZM21.9953 9.08387L21.4953 9.0816V9.08144L21.9953 9.08387ZM21.9953 9.07799L22.4953 9.07977L22.4953 9.08042L21.9953 9.07799ZM21.9243 4.78905L22.4098 4.66952L22.4102 4.67123L21.9243 4.78905ZM21.4096 3.7871L21.7249 3.39901L21.737 3.40889L21.7486 3.41951L21.4096 3.7871ZM18.8954 2.8356L19.0577 2.36271L19.0588 2.36306L18.8954 2.8356ZM14.3224 1.25698L14.1601 1.72993L14.1594 1.72968L14.3224 1.25698ZM11.956 0.500113L11.9965 0.99847L11.9763 1.00011H11.956V0.500113ZM11.6552 1.07451C11.4774 1.13487 11.3474 1.18405 10.8465 1.51737C10.3339 1.85845 9.46974 2.47223 7.8276 3.64603L7.24609 2.8325C8.88135 1.66361 9.7624 1.03756 10.2925 0.684837C10.8342 0.324366 11.0444 0.225769 11.3339 0.127546L11.6552 1.07451ZM7.82799 3.64576C6.11697 4.87127 5.23538 5.51268 4.69926 5.9884C4.19616 6.43481 4.01607 6.71716 3.72228 7.25583L2.84436 6.77701C3.17174 6.17677 3.41759 5.78874 4.03555 5.24041C4.62049 4.72137 5.55508 4.04367 7.2457 2.83278L7.82799 3.64576ZM3.72196 7.25641C3.3387 7.95689 3.13862 8.52717 2.8602 9.77108L1.88435 9.55265C2.17385 8.25923 2.39972 7.58969 2.84468 6.77642L3.72196 7.25641ZM2.8602 9.77108C2.53644 11.2175 2.30442 11.9942 1.87192 13.0704L0.944042 12.6975C1.35161 11.6833 1.56919 10.9607 1.88435 9.55265L2.8602 9.77108ZM1.87231 13.0695C1.71086 13.4736 1.59679 13.7453 1.45586 13.9897C1.31219 14.2389 1.14887 14.4456 0.911048 14.7317L0.14198 14.0926C0.377426 13.8093 0.492157 13.6591 0.589559 13.4902C0.689699 13.3165 0.779734 13.1089 0.943657 12.6985L1.87231 13.0695ZM0.911249 14.7315L0.384735 15.3658L-0.384735 14.7271L0.14178 14.0928L0.911249 14.7315ZM0.5 15.0465V17.0071H-0.5V15.0465H0.5ZM0.5 17.0071C0.5 18.0662 0.508046 18.6228 0.544487 18.9632C0.561999 19.1268 0.58409 19.2175 0.605591 19.2777C0.625542 19.3335 0.651541 19.3819 0.703084 19.4575L-0.123327 20.0206C-0.201933 19.9052 -0.277244 19.7788 -0.336049 19.6143C-0.393302 19.4542 -0.427412 19.2791 -0.449832 19.0697C-0.493256 18.664 -0.5 18.0457 -0.5 17.0071H0.5ZM0.702588 19.4568C0.708387 19.4653 0.705648 19.4604 0.699005 19.4541C0.69371 19.449 0.696635 19.4534 0.719801 19.4674C0.774713 19.5006 0.887222 19.5554 1.1328 19.6526C1.61734 19.8444 2.50852 20.1591 4.21805 20.7594L3.88672 21.7029C2.18869 21.1067 1.27258 20.7834 0.764724 20.5824C0.277557 20.3896 0.0475555 20.2705 -0.122831 20.0213L0.702588 19.4568ZM4.21738 20.7592L7.82607 22.0206L7.49609 22.9646L3.8874 21.7032L4.21738 20.7592ZM7.66595 21.9927L8.40544 21.9999L8.39569 22.9998L7.65621 22.9926L7.66595 21.9927ZM8.40343 21.9999C8.98539 22.0032 9.36252 21.9502 9.86189 21.7271C10.3946 21.489 11.0697 21.0558 12.2267 20.2512L12.7976 21.0722C11.6533 21.8679 10.9026 22.3574 10.2699 22.6401C9.60382 22.9377 9.07582 23.0037 8.39771 22.9998L8.40343 21.9999ZM12.2271 20.2509C13.5428 19.3379 15.936 17.6388 19.1423 15.3394L19.7251 16.152C16.5186 18.4515 14.1199 20.1546 12.7972 21.0725L12.2271 20.2509ZM19.1418 15.3397C20.1198 14.6364 20.6281 14.2561 20.9266 13.9672C21.188 13.7142 21.2683 13.5532 21.3664 13.2542L22.3165 13.5661C22.178 13.988 22.0216 14.2991 21.622 14.6858C21.2594 15.0367 20.6821 15.4638 19.7256 16.1516L19.1418 15.3397ZM21.3668 13.253C21.3997 13.1537 21.4142 13.1078 21.4268 13.0297C21.4411 12.9414 21.4536 12.8044 21.463 12.5382C21.4819 12.0056 21.4864 11.0377 21.4953 9.0816L22.4952 9.08614C22.4864 11.0311 22.482 12.021 22.4624 12.5736C22.4526 12.85 22.4385 13.0375 22.414 13.1893C22.3878 13.3514 22.3513 13.4613 22.3161 13.5674L21.3668 13.253ZM21.4953 9.08144L21.4953 9.07556L22.4953 9.08042L22.4952 9.0863L21.4953 9.08144ZM21.4953 9.07621C21.5012 7.41281 21.5026 6.42543 21.4931 5.81411C21.4834 5.18726 21.4615 5.00216 21.4384 4.90688L22.4102 4.67123C22.464 4.89311 22.4835 5.19097 22.493 5.79854C22.5027 6.42164 22.5012 7.42014 22.4953 9.07977L21.4953 9.07621ZM21.4388 4.90859C21.345 4.5277 21.1903 4.26496 21.0707 4.15468L21.7486 3.41951C22.0667 3.7129 22.2906 4.1854 22.4098 4.66952L21.4388 4.90859ZM21.0944 4.17519C21.1401 4.21231 21.1734 4.22293 21.118 4.19697C21.086 4.18199 21.0376 4.16085 20.972 4.13353C20.8416 4.07928 20.6586 4.00725 20.4342 3.92206C19.9864 3.75203 19.3848 3.53388 18.732 3.30815L19.0588 2.36306C19.7193 2.59145 20.3304 2.81301 20.7892 2.98717C21.0181 3.07408 21.2119 3.15027 21.3561 3.21023C21.4276 3.24001 21.491 3.26747 21.542 3.29131C21.5695 3.30419 21.657 3.34387 21.7249 3.39901L21.0944 4.17519ZM18.733 3.3085C17.4169 2.85659 15.3903 2.15194 14.1601 1.72993L14.4846 0.784042C15.6918 1.19819 17.7708 1.92078 19.0577 2.36271L18.733 3.3085ZM14.1594 1.72968C13.5549 1.5213 12.9891 1.3315 12.5647 1.19508C12.3519 1.1267 12.178 1.0728 12.0538 1.03686C11.991 1.01871 11.9458 1.00659 11.9168 0.99963C11.9019 0.99605 11.8969 0.995205 11.8988 0.995535C11.8998 0.995703 11.907 0.996962 11.9184 0.998079C11.9259 0.998814 11.9561 1.00176 11.9965 0.99847L11.9155 0.00175476C11.9909 -0.00437164 12.0567 0.00799942 12.069 0.010128C12.0969 0.0149384 12.125 0.0211964 12.15 0.0272045C12.201 0.0394211 12.2631 0.0564137 12.3315 0.0762196C12.4698 0.116198 12.6545 0.173574 12.8707 0.24305C13.3041 0.382351 13.877 0.574585 14.4853 0.784285L14.1594 1.72968ZM11.956 1.00011C11.9764 1.00011 11.9797 0.997999 11.9538 1.00223C11.9332 1.0056 11.9046 1.01123 11.869 1.0193C11.7979 1.0354 11.7137 1.05776 11.6357 1.08071L11.3535 0.121347C11.447 0.0938435 11.5521 0.0657444 11.6481 0.0439949C11.7272 0.0261002 11.8511 0.000112534 11.956 0.000112534V1.00011Z" fill="#000E38" mask="url(#path-1-inside-1_589_78760)"/>
<mask id="path-3-inside-2_589_78760" fill="white">
<path d="M9.06883 3.3627C7.44196 4.52324 6.56641 5.1864 6.56641 5.25848C6.56641 5.33308 7.11199 5.55243 9 6.21243C9.30123 6.31773 9.63664 6.43425 10.0095 6.56319L13.4525 7.75977L15.9668 5.9649C17.3511 4.97736 18.4928 4.11957 18.5047 4.06911C18.5165 4.01145 18.4455 3.93937 18.3272 3.88891C17.9604 3.74474 11.6482 1.57504 11.6067 1.57504C11.5831 1.58225 10.4413 2.38237 9.06883 3.3627Z"/>
</mask>
<path d="M13.8844 3.5357L13.836 3.6777L13.8356 3.67756L13.8844 3.5357ZM16.8034 4.60263L16.8048 4.75262L16.8034 4.60263ZM9.35871 4.60253L9.21896 4.54802L9.21915 4.54755L9.35871 4.60253ZM11.2695 2.72837L11.2775 2.8782L11.2742 2.8783L11.2695 2.72837ZM17.1144 4.6674L17.0545 4.80507L17.0487 4.80224L17.1144 4.6674ZM16.0377 5.56123L16.1248 5.68342L16.1245 5.6836L16.0377 5.56123ZM15.2687 5.58286L15.3887 5.67278L15.3882 5.67344L15.2687 5.58286ZM13.9327 3.3937C14.5908 3.61764 15.3218 3.8794 15.8882 4.08788C16.1714 4.19211 16.414 4.28321 16.5861 4.34974C16.672 4.38293 16.7412 4.41036 16.7894 4.43038C16.8132 4.44026 16.8336 4.44907 16.8489 4.45625C16.856 4.45959 16.8652 4.46406 16.8739 4.46908C16.8776 4.47122 16.8862 4.47628 16.8955 4.48372C16.8999 4.48718 16.9095 4.49509 16.9193 4.50716C16.9253 4.5145 16.9534 4.54899 16.9534 4.60263H16.6534C16.6534 4.65593 16.6813 4.69002 16.6869 4.69688C16.6964 4.70847 16.7054 4.71583 16.709 4.71867C16.7168 4.72488 16.7231 4.72843 16.7237 4.72879C16.7262 4.73025 16.7262 4.73008 16.7213 4.72774C16.7124 4.72356 16.697 4.71685 16.6743 4.70743C16.6296 4.68885 16.5631 4.66248 16.4779 4.62956C16.3079 4.56384 16.067 4.47335 15.7846 4.36942C15.2198 4.16157 14.4913 3.90067 13.836 3.6777L13.9327 3.3937ZM8.90912 6.33176C8.87279 6.30409 8.85466 6.26852 8.84539 6.24452C8.83563 6.21926 8.83062 6.19361 8.82779 6.17133C8.82212 6.12674 8.82275 6.07517 8.82657 6.02209C8.8343 5.91457 8.85709 5.77604 8.89082 5.62148C8.95854 5.31121 9.07417 4.91924 9.21896 4.54802L9.49845 4.65704C9.35928 5.01386 9.24823 5.39079 9.18392 5.68545C9.15164 5.83334 9.13208 5.95628 9.1258 6.04361C9.12261 6.08795 9.12332 6.11717 9.12539 6.1335C9.12643 6.14168 9.12721 6.14153 9.12523 6.13641C9.12374 6.13255 9.11538 6.11175 9.09088 6.09309L8.90912 6.33176ZM9.21915 4.54755C9.4388 3.98997 9.75289 3.5083 10.107 3.161C10.4588 2.81601 10.8639 2.59086 11.2649 2.57844L11.2742 2.8783C10.9771 2.8875 10.6397 3.05881 10.3171 3.37519C9.99685 3.68925 9.70456 4.13384 9.49827 4.65751L9.21915 4.54755ZM11.2616 2.57858C11.301 2.57649 11.3516 2.58565 11.3948 2.59463C11.4442 2.60493 11.5065 2.62021 11.5794 2.63963C11.7256 2.67854 11.9205 2.73573 12.1531 2.80761C12.6188 2.95148 13.24 3.15565 13.9331 3.39384L13.8356 3.67756C13.1444 3.44001 12.5263 3.2369 12.0646 3.09424C11.8336 3.02286 11.6429 2.96697 11.5022 2.92952C11.4318 2.91076 11.3754 2.89703 11.3336 2.88833C11.2854 2.8783 11.2721 2.87845 11.2775 2.87816L11.2616 2.57858ZM17.1743 4.52986C17.1973 4.53988 17.2271 4.55833 17.2499 4.59163C17.2738 4.62667 17.2811 4.66524 17.279 4.69884C17.2755 4.75526 17.2458 4.79884 17.2296 4.82055C17.192 4.87116 17.1276 4.9309 17.0448 4.99985C16.8741 5.14187 16.5797 5.35946 16.1248 5.68342L15.9507 5.43905C16.4068 5.11426 16.6922 4.90295 16.8528 4.76926C16.9356 4.70035 16.9748 4.66053 16.9889 4.64153C16.9986 4.62844 16.9818 4.64471 16.9796 4.68026C16.9782 4.70343 16.9832 4.73318 17.0022 4.76088C17.0199 4.78684 17.0419 4.79944 17.0546 4.80495L17.1743 4.52986ZM16.1245 5.6836C15.7989 5.91445 15.4982 6.12563 15.2765 6.27922C15.1657 6.35595 15.0742 6.41865 15.0089 6.46233C14.9765 6.48407 14.9496 6.50172 14.9298 6.5142C14.9201 6.5203 14.9106 6.52616 14.9022 6.53087C14.8983 6.53308 14.8923 6.53634 14.8856 6.53946C14.8824 6.54096 14.8766 6.54356 14.8694 6.54608C14.8661 6.54721 14.8458 6.5546 14.8191 6.5546V6.2546C14.7929 6.2546 14.7734 6.26181 14.7712 6.26258C14.765 6.26472 14.7606 6.26677 14.7589 6.26753C14.7554 6.26918 14.7536 6.27023 14.7549 6.26953C14.7568 6.26843 14.7616 6.26563 14.7699 6.26037C14.7861 6.25016 14.8102 6.23436 14.842 6.21307C14.9053 6.17071 14.9953 6.10906 15.1056 6.03262C15.3261 5.87985 15.6259 5.66934 15.951 5.43886L16.1245 5.6836ZM14.8191 6.5546C14.7727 6.5546 14.7202 6.53469 14.6858 6.48608C14.6581 6.44687 14.6549 6.40624 14.6547 6.38668C14.6541 6.34646 14.6659 6.30699 14.675 6.2803C14.6956 6.22039 14.7324 6.14397 14.7769 6.06245C14.8672 5.89693 15.0029 5.68526 15.1491 5.49228L15.3882 5.67344C15.2505 5.85529 15.123 6.05449 15.0402 6.20613C14.9982 6.2832 14.971 6.34194 14.9589 6.37753C14.9516 6.3986 14.9548 6.39697 14.9547 6.38266C14.9546 6.37605 14.9538 6.34539 14.9308 6.3129C14.9012 6.27102 14.8559 6.2546 14.8191 6.2546V6.5546ZM15.1486 5.49294C15.3828 5.18024 15.6622 4.9234 15.9475 4.74325C16.231 4.56428 16.53 4.45503 16.8021 4.45264L16.8048 4.75262C16.6066 4.75437 16.3621 4.83628 16.1077 4.99692C15.8552 5.15638 15.6024 5.38758 15.3887 5.67278L15.1486 5.49294ZM16.8021 4.45264C16.9349 4.45147 17.0637 4.47581 17.1802 4.53257L17.0487 4.80224C16.9809 4.76918 16.8994 4.75179 16.8048 4.75262L16.8021 4.45264ZM9.06883 3.3627L9.2432 3.60682L9.24305 3.60693L9.06883 3.3627ZM9 6.21243L9.099 5.92923L9 6.21243ZM10.0095 6.56319L10.1075 6.27966L10.1079 6.27981L10.0095 6.56319ZM13.4525 7.75977L13.6268 8.00393L13.5006 8.09406L13.354 8.04314L13.4525 7.75977ZM15.9668 5.9649L15.7925 5.72073L15.7925 5.72067L15.9668 5.9649ZM18.5047 4.06911L18.7987 4.12944L18.7968 4.13761L18.5047 4.06911ZM18.3272 3.88891L18.437 3.60959L18.4449 3.61295L18.3272 3.88891ZM11.6067 1.57504L11.5193 1.28806L11.5621 1.27504H11.6067V1.57504ZM9.24305 3.60693C8.43034 4.18668 7.80749 4.64064 7.38869 4.9579C7.17873 5.11695 7.02331 5.23919 6.92176 5.32462C6.87022 5.36799 6.83769 5.39758 6.82004 5.41536C6.81055 5.42491 6.81148 5.42496 6.81683 5.41781C6.8194 5.41437 6.82803 5.40265 6.83716 5.38443C6.84372 5.37134 6.86641 5.32469 6.86641 5.25848H6.26641C6.26641 5.18777 6.2908 5.13547 6.30077 5.11557C6.31332 5.09054 6.32706 5.07086 6.33644 5.05832C6.35541 5.03297 6.37675 5.01024 6.39437 4.9925C6.43095 4.95568 6.47954 4.91257 6.5355 4.86549C6.64896 4.77004 6.8141 4.64045 7.02639 4.47963C7.45209 4.15715 8.08045 3.69926 8.89461 3.11847L9.24305 3.60693ZM6.86641 5.25848C6.86641 5.17149 6.82767 5.11355 6.81186 5.09274C6.79435 5.06969 6.77884 5.05788 6.77736 5.05674C6.77391 5.05407 6.78313 5.06134 6.81807 5.07926C6.88482 5.1135 7.00048 5.16408 7.18513 5.2368C7.55141 5.38105 8.15467 5.59912 9.099 5.92923L8.901 6.49562C7.95732 6.16574 7.34379 5.94414 6.96527 5.79506C6.77752 5.72112 6.63879 5.66163 6.54424 5.61313C6.49853 5.58969 6.45037 5.56243 6.40971 5.53091C6.38963 5.51533 6.36055 5.49052 6.33413 5.45574C6.3094 5.4232 6.26641 5.3548 6.26641 5.25848H6.86641ZM9.099 5.92923C9.39984 6.0344 9.73492 6.1508 10.1075 6.27967L9.9114 6.84671C9.53836 6.71769 9.20263 6.60106 8.901 6.49562L9.099 5.92923ZM10.1079 6.27981L13.551 7.47639L13.354 8.04314L9.91097 6.84656L10.1079 6.27981ZM13.2782 7.5156L15.7925 5.72073L16.1411 6.20907L13.6268 8.00393L13.2782 7.5156ZM15.7925 5.72067C16.4832 5.22796 17.1129 4.76799 17.5707 4.42541C17.7998 4.25393 17.9845 4.1129 18.1119 4.01232C18.176 3.9617 18.223 3.92331 18.2532 3.89731C18.2688 3.88384 18.2761 3.87696 18.2779 3.87511C18.2793 3.87379 18.2746 3.87828 18.2676 3.88683C18.2642 3.89107 18.2567 3.90043 18.2485 3.91374C18.2426 3.92323 18.2234 3.95469 18.2126 4.00062L18.7968 4.13761C18.7856 4.18512 18.7655 4.21855 18.7581 4.2304C18.7484 4.24607 18.739 4.25818 18.733 4.26555C18.7209 4.28037 18.709 4.29265 18.7009 4.30063C18.6841 4.31738 18.6643 4.33506 18.6449 4.35181C18.6049 4.38623 18.55 4.43085 18.4838 4.48317C18.3504 4.58848 18.1609 4.73308 17.9301 4.9058C17.468 5.25161 16.8346 5.7143 16.141 6.20912L15.7925 5.72067ZM18.2108 4.00882C18.1988 4.06732 18.2113 4.11543 18.2237 4.14384C18.2354 4.17062 18.2485 4.18431 18.251 4.18682C18.2553 4.19116 18.2447 4.17988 18.2095 4.16486L18.4449 3.61295C18.528 3.64839 18.6121 3.69838 18.6785 3.7658C18.7357 3.82391 18.8345 3.95398 18.7986 4.12941L18.2108 4.00882ZM18.2175 4.16811C18.042 4.09916 16.3825 3.52411 14.7474 2.96159C13.933 2.68143 13.1289 2.40581 12.5259 2.20027C12.2244 2.09748 11.9734 2.01232 11.7967 1.95291C11.7083 1.92317 11.6391 1.90008 11.5916 1.88452C11.5677 1.87668 11.5504 1.87111 11.5393 1.86765C11.5366 1.86681 11.5345 1.86618 11.533 1.86572C11.5314 1.86523 11.5308 1.86507 11.531 1.86513C11.5312 1.86517 11.5318 1.86535 11.5328 1.86561C11.5337 1.86585 11.5355 1.86635 11.5381 1.86698C11.5402 1.86749 11.5454 1.86873 11.5523 1.87002C11.5536 1.87026 11.5769 1.87504 11.6067 1.87504V1.27504C11.6369 1.27504 11.6607 1.27989 11.6627 1.28026C11.6703 1.28168 11.6764 1.28312 11.6796 1.2839C11.6863 1.28552 11.6921 1.28714 11.6954 1.2881C11.7027 1.29017 11.7106 1.2926 11.718 1.29489C11.7332 1.29965 11.7538 1.30628 11.7784 1.31436C11.8282 1.33066 11.8991 1.35433 11.988 1.3842C12.1659 1.44401 12.4177 1.52948 12.7195 1.63235C13.3232 1.83814 14.1278 2.11395 14.9426 2.39423C16.5656 2.95261 18.2456 3.53449 18.4369 3.6097L18.2175 4.16811ZM11.6942 1.86202C11.7154 1.85554 11.731 1.84808 11.735 1.84622C11.7413 1.84321 11.7461 1.84064 11.7484 1.83935C11.7532 1.83673 11.7564 1.83479 11.7568 1.83458C11.7578 1.83393 11.7569 1.83447 11.7529 1.8371C11.7453 1.84204 11.733 1.85023 11.7154 1.86214C11.6806 1.88571 11.6297 1.92065 11.5641 1.96613C11.4331 2.05691 11.2459 2.18779 11.0162 2.34934C10.5569 2.67236 9.92889 3.11705 9.2432 3.60682L8.89446 3.11858C9.58125 2.62802 10.2104 2.18248 10.671 1.85856C10.9013 1.69664 11.0897 1.56487 11.2223 1.47296C11.2885 1.4271 11.3415 1.39069 11.379 1.36529C11.3976 1.35272 11.4136 1.34202 11.426 1.33397C11.4319 1.33011 11.4389 1.32562 11.4458 1.32146C11.449 1.3195 11.4546 1.31618 11.4612 1.31257C11.4645 1.31078 11.4701 1.30781 11.477 1.30449C11.4816 1.30232 11.4977 1.29465 11.5193 1.28806L11.6942 1.86202Z" fill="#FFC400" mask="url(#path-3-inside-2_589_78760)"/>
<mask id="path-5-inside-3_589_78760" fill="white">
<path d="M3.61851 8.88267C3.44695 9.06288 2.97368 10.1585 2.91452 10.519C2.89677 10.6199 2.91452 10.7785 2.95001 10.865C3.00326 10.9875 2.99143 11.0812 2.87902 11.3551C2.62464 11.9678 2.41758 12.8256 2.35251 13.5032C2.26969 14.4042 2.31701 14.6565 2.62464 15.0169C2.84353 15.2692 3.00326 15.3557 3.99121 15.7522C6.38715 16.7109 7.06156 16.8767 7.54075 16.6028C7.84837 16.4226 8.01402 16.0766 8.21516 15.1539C8.31573 14.7142 8.48137 14.0654 8.58786 13.7122C8.75942 13.1572 8.80675 13.0707 8.93098 13.0491C9.37467 12.9914 9.49891 12.8689 9.73554 12.2417C10.0846 11.3479 10.0964 10.9442 9.7947 10.6992C9.61131 10.5622 4.21602 8.70967 3.97938 8.70967C3.86698 8.70967 3.725 8.78175 3.61851 8.88267Z"/>
</mask>
<path d="M9.3865 11.7804L9.25344 11.7112L9.2541 11.7099L9.3865 11.7804ZM7.09114 10.3676L7.0422 10.5094L7.04154 10.5091L7.09114 10.3676ZM4.28701 9.39446L4.23769 9.53613L4.23656 9.53572L4.28701 9.39446ZM3.47653 10.1513L3.34568 10.078L3.34589 10.0776L3.47653 10.1513ZM8.88405 13.095C8.85475 13.0593 8.84861 13.0199 8.84682 13.0081C8.84405 12.9899 8.84358 12.972 8.84382 12.957C8.84429 12.9263 8.84806 12.8903 8.85382 12.8519C8.86549 12.7742 8.88759 12.6724 8.92005 12.5555C8.98504 12.3213 9.09413 12.0173 9.25345 11.7112L9.51956 11.8497C9.37125 12.1346 9.26935 12.4187 9.20912 12.6357C9.17896 12.7443 9.1599 12.8339 9.15049 12.8965C9.14572 12.9283 9.14397 12.9497 9.14378 12.9616C9.14368 12.9679 9.1441 12.9675 9.1434 12.9629C9.14303 12.9605 9.14197 12.9543 9.1391 12.9459C9.13654 12.9383 9.13021 12.9221 9.11595 12.9047L8.88405 13.095ZM9.2541 11.7099C9.32388 11.5788 9.38453 11.4556 9.42588 11.3644C9.44674 11.3184 9.4617 11.2827 9.47043 11.2591C9.47255 11.2533 9.4741 11.2489 9.47517 11.2455C9.47631 11.242 9.47661 11.2408 9.47649 11.2413C9.47642 11.2416 9.47608 11.2429 9.47569 11.2452C9.47533 11.2472 9.47466 11.2514 9.47429 11.2572C9.47397 11.2623 9.47356 11.2732 9.47579 11.2871C9.47774 11.2993 9.48387 11.3282 9.50719 11.3566L9.73909 11.1662C9.76314 11.1956 9.76978 11.2258 9.77202 11.2397C9.77453 11.2554 9.77418 11.2685 9.77369 11.2762C9.77272 11.2916 9.76979 11.3048 9.76789 11.3126C9.76381 11.3293 9.75775 11.347 9.75181 11.3631C9.73947 11.3965 9.72116 11.4396 9.69912 11.4882C9.65469 11.5862 9.59111 11.7153 9.51891 11.8509L9.2541 11.7099ZM9.50719 11.3566C9.52059 11.3729 9.53432 11.3823 9.53698 11.3841C9.54201 11.3876 9.5461 11.39 9.54799 11.3911C9.55191 11.3933 9.55467 11.3946 9.55482 11.3946C9.55554 11.395 9.55452 11.3945 9.55059 11.3928C9.54322 11.3898 9.53124 11.3851 9.5141 11.3786C9.48016 11.3656 9.43007 11.3471 9.36515 11.3236C9.23553 11.2765 9.04911 11.21 8.81965 11.1289C8.36084 10.9669 7.73115 10.7472 7.0422 10.5094L7.14008 10.2258C7.82953 10.4638 8.45992 10.6837 8.91956 10.8461C9.14932 10.9272 9.33671 10.9941 9.46757 11.0416C9.53289 11.0653 9.58472 11.0844 9.62087 11.0982C9.63877 11.105 9.65388 11.1109 9.6652 11.1156C9.67063 11.1178 9.67686 11.1205 9.68268 11.1232C9.68537 11.1245 9.69015 11.1268 9.69553 11.1298C9.69816 11.1313 9.70285 11.1341 9.70833 11.1379C9.71145 11.14 9.7255 11.1497 9.73909 11.1662L9.50719 11.3566ZM7.04154 10.5091C5.66293 10.0261 4.40468 9.59426 4.23769 9.53612L4.33632 9.2528C4.50062 9.31 5.76254 9.74313 7.14074 10.226L7.04154 10.5091ZM4.23656 9.53572C4.18799 9.51838 4.15872 9.50694 4.12637 9.49585C4.09631 9.48554 4.07954 9.48137 4.06895 9.47995C4.0607 9.47885 4.06141 9.48015 4.06508 9.47891C4.06793 9.47795 4.06372 9.47831 4.0512 9.49011C4.02126 9.51832 3.97798 9.5779 3.90348 9.70324C3.83106 9.82507 3.7384 9.99246 3.60717 10.225L3.34589 10.0776C3.47496 9.84887 3.57087 9.67567 3.6456 9.54994C3.71826 9.42772 3.78073 9.33277 3.84544 9.27178C3.88025 9.23898 3.92059 9.21107 3.96902 9.19471C4.01826 9.17806 4.06555 9.17683 4.1087 9.1826C4.1495 9.18805 4.18893 9.20016 4.22367 9.21206C4.25611 9.22319 4.30024 9.23991 4.33746 9.2532L4.23656 9.53572ZM3.60738 10.2247C3.50926 10.3997 3.37181 10.5159 3.2552 10.5828C3.19748 10.6159 3.14016 10.6396 3.09034 10.6513C3.06697 10.6567 3.03555 10.6619 3.00266 10.6587C2.98404 10.6569 2.88381 10.6436 2.85532 10.5394L3.14468 10.4603C3.13258 10.416 3.10274 10.3887 3.07827 10.3752C3.05665 10.3632 3.0382 10.3608 3.0315 10.3601C3.01788 10.3588 3.01306 10.3612 3.02197 10.3592C3.03673 10.3557 3.06674 10.345 3.10596 10.3225C3.18326 10.2782 3.27815 10.1985 3.34568 10.078L3.60738 10.2247ZM3.61851 8.88267L3.40123 8.67582L3.40655 8.67023L3.41215 8.66492L3.61851 8.88267ZM2.91452 10.519L3.21058 10.5676L3.20998 10.5709L2.91452 10.519ZM2.95001 10.865L2.67481 10.9845L2.67247 10.9788L2.95001 10.865ZM2.87902 11.3551L3.15657 11.469L3.15609 11.4702L2.87902 11.3551ZM2.35251 13.5032L2.05377 13.4757L2.05388 13.4745L2.35251 13.5032ZM2.62464 15.0169L2.39803 15.2135L2.39646 15.2117L2.62464 15.0169ZM3.99121 15.7522L3.87976 16.0307L3.87948 16.0306L3.99121 15.7522ZM7.54075 16.6028L7.69239 16.8616L7.68963 16.8632L7.54075 16.6028ZM8.21516 15.1539L7.92203 15.09L7.92271 15.087L8.21516 15.1539ZM8.58786 13.7122L8.30062 13.6256L8.30124 13.6236L8.58786 13.7122ZM8.93098 13.0491L8.87949 12.7532L8.89231 12.7516L8.93098 13.0491ZM9.73554 12.2417L9.45484 12.1358L9.45609 12.1326L9.73554 12.2417ZM9.7947 10.6992L9.97436 10.4586L9.98385 10.4663L9.7947 10.6992ZM3.83579 9.08953C3.83678 9.08848 3.82391 9.10331 3.79695 9.14714C3.77253 9.18682 3.74339 9.23898 3.7107 9.30193C3.64546 9.42758 3.57144 9.58587 3.49987 9.75196C3.35146 10.0964 3.23336 10.4286 3.21056 10.5675L2.61848 10.4704C2.65483 10.2489 2.80295 9.8531 2.94886 9.51451C3.02444 9.33911 3.10461 9.16717 3.17821 9.02543C3.24486 8.89706 3.32443 8.75648 3.40123 8.67582L3.83579 9.08953ZM3.20998 10.5709C3.20757 10.5847 3.20575 10.6195 3.21064 10.6659C3.21289 10.6871 3.21614 10.7069 3.21981 10.7233C3.22162 10.7314 3.22337 10.738 3.22489 10.7431C3.22564 10.7456 3.22628 10.7475 3.22677 10.7489C3.22701 10.7496 3.2272 10.7502 3.22734 10.7505C3.22741 10.7507 3.22746 10.7508 3.2275 10.7509C3.22754 10.751 3.22756 10.7511 3.22756 10.7511L2.67247 10.9788C2.64005 10.8998 2.6223 10.8079 2.61396 10.7288C2.60554 10.6491 2.60372 10.5542 2.61905 10.467L3.20998 10.5709ZM3.22516 10.7454C3.27099 10.8509 3.29276 10.9608 3.27366 11.0954C3.25753 11.2091 3.21288 11.3318 3.15656 11.469L2.60148 11.2412C2.65756 11.1046 2.67504 11.0434 2.67961 11.0111C2.68123 10.9997 2.68027 10.9976 2.68062 11C2.68089 11.0017 2.68083 10.9982 2.67486 10.9845L3.22516 10.7454ZM3.15609 11.4702C2.91395 12.0534 2.71357 12.8818 2.65114 13.5319L2.05388 13.4745C2.1216 12.7694 2.33533 11.8823 2.60195 11.2401L3.15609 11.4702ZM2.65125 13.5307C2.60967 13.9831 2.60558 14.2337 2.63737 14.4094C2.66509 14.5626 2.72173 14.6686 2.85282 14.8222L2.39646 15.2117C2.21992 15.0049 2.09909 14.8045 2.04695 14.5162C1.99887 14.2504 2.01253 13.9244 2.05377 13.4757L2.65125 13.5307ZM2.85124 14.8203C3.01396 15.0079 3.09929 15.071 4.10294 15.4738L3.87948 16.0306C2.90722 15.6404 2.6731 15.5306 2.39804 15.2135L2.85124 14.8203ZM4.10266 15.4737C5.30379 15.9543 6.05149 16.2269 6.55494 16.348C7.05255 16.4678 7.24957 16.4237 7.39187 16.3423L7.68963 16.8632C7.35274 17.0558 6.97296 17.0657 6.41458 16.9314C5.86204 16.7984 5.07457 16.5088 3.87976 16.0307L4.10266 15.4737ZM7.38911 16.3439C7.56871 16.2387 7.71737 16.0289 7.92204 15.09L8.50827 15.2178C8.31067 16.1242 8.12804 16.6064 7.69238 16.8616L7.38911 16.3439ZM7.92271 15.087C8.02413 14.6436 8.19147 13.9877 8.30063 13.6256L8.87509 13.7988C8.77127 14.1432 8.60733 14.7848 8.50761 15.2208L7.92271 15.087ZM8.30124 13.6236C8.38461 13.3539 8.44716 13.1648 8.51109 13.042C8.5452 12.9766 8.59124 12.9063 8.66079 12.8502C8.73627 12.7894 8.81486 12.7648 8.87953 12.7535L8.98243 13.3446C8.98175 13.3447 8.98935 13.3435 9.00099 13.3388C9.0136 13.3336 9.02627 13.3263 9.03737 13.3173C9.05775 13.3009 9.05794 13.291 9.04324 13.3192C9.00956 13.3839 8.96267 13.5155 8.87448 13.8008L8.30124 13.6236ZM8.89231 12.7516C9.09432 12.7253 9.15399 12.6917 9.19865 12.6469C9.26302 12.5825 9.33447 12.4549 9.45486 12.1358L10.0162 12.3477C9.89998 12.6557 9.79099 12.9029 9.62316 13.071C9.43562 13.2587 9.21133 13.3152 8.96965 13.3466L8.89231 12.7516ZM9.45609 12.1326C9.62897 11.6899 9.70244 11.4056 9.70935 11.2162C9.71533 11.0523 9.67252 10.9864 9.60555 10.932L9.98385 10.4663C10.2186 10.657 10.3207 10.9155 10.309 11.2381C10.2981 11.5353 10.1911 11.8998 10.015 12.3509L9.45609 12.1326ZM9.61519 10.9395C9.63528 10.9545 9.64858 10.9595 9.63222 10.9516C9.62269 10.947 9.60718 10.94 9.58447 10.9304C9.53942 10.9112 9.47559 10.8857 9.39404 10.8543C9.23151 10.7917 9.00715 10.709 8.74024 10.6128C8.2069 10.4205 7.50948 10.1767 6.80975 9.93685C6.10998 9.69704 5.40933 9.46176 4.86949 9.28663C4.59931 9.19898 4.37102 9.12692 4.20384 9.077C4.11994 9.05195 4.05382 9.03319 4.00651 9.02094C3.98265 9.01477 3.96629 9.01096 3.95623 9.0089C3.9387 9.00532 3.95312 9.00967 3.97938 9.00967V8.40967C4.02043 8.40967 4.05972 8.41765 4.07649 8.42108C4.10074 8.42604 4.12813 8.43265 4.15683 8.44008C4.21464 8.45504 4.28887 8.47621 4.37551 8.50208C4.54939 8.554 4.78287 8.62775 5.05464 8.71591C5.5987 8.89241 6.3027 9.12883 7.00427 9.36926C7.70585 9.60971 8.40643 9.85466 8.94369 10.0483C9.21208 10.145 9.44116 10.2295 9.60971 10.2944C9.6937 10.3268 9.76482 10.3551 9.81907 10.3781C9.84601 10.3896 9.87123 10.4008 9.89289 10.4112C9.90772 10.4184 9.94266 10.4352 9.97421 10.4588L9.61519 10.9395ZM3.97938 9.00967C3.98292 9.00967 3.96511 9.00999 3.92816 9.028C3.89383 9.04474 3.85679 9.07017 3.82487 9.10042L3.41215 8.66492C3.54902 8.5352 3.76124 8.40967 3.97938 8.40967V9.00967Z" fill="#FFC400" mask="url(#path-5-inside-3_589_78760)"/>
<mask id="path-7-inside-4_589_78760" fill="white">
<path d="M3.13672 13.3813C3.13672 13.129 3.42068 12.0406 3.68098 11.3197C3.81113 10.9593 3.9472 10.6566 3.97678 10.6566C4.01227 10.6566 4.47963 10.8224 5.02389 11.0242L6.01776 11.3918L5.73379 12.1919C5.57407 12.6389 5.39067 13.2732 5.31968 13.612C5.24278 13.9508 5.1777 14.2391 5.16587 14.2535C5.14812 14.2896 4.92923 14.2175 3.89395 13.821C3.23137 13.5687 3.13672 13.5183 3.13672 13.3813Z"/>
</mask>
<path d="M3.13672 13.3813C3.13672 13.129 3.42068 12.0406 3.68098 11.3197C3.81113 10.9593 3.9472 10.6566 3.97678 10.6566C4.01227 10.6566 4.47963 10.8224 5.02389 11.0242L6.01776 11.3918L5.73379 12.1919C5.57407 12.6389 5.39067 13.2732 5.31968 13.612C5.24278 13.9508 5.1777 14.2391 5.16587 14.2535C5.14812 14.2896 4.92923 14.2175 3.89395 13.821C3.23137 13.5687 3.13672 13.5183 3.13672 13.3813Z" stroke="#FFC400" stroke-width="0.6" mask="url(#path-7-inside-4_589_78760)"/>
<mask id="path-8-inside-5_589_78760" fill="white">
<path d="M1.18164 17.7213C1.18164 18.5647 1.25263 18.8674 1.47152 19.0116C1.62533 19.1125 7.1981 21.0371 7.33417 21.0371C7.39924 21.0371 7.50573 20.9722 7.5708 20.8929C7.67729 20.7632 7.68912 20.6551 7.68912 19.9559V19.1702L7.47023 19.0981C7.17444 18.9972 1.41828 17.0077 1.28813 16.9572C1.19347 16.9212 1.18164 16.9933 1.18164 17.7213Z"/>
</mask>
<path d="M1.18164 17.7213C1.18164 18.5647 1.25263 18.8674 1.47152 19.0116C1.62533 19.1125 7.1981 21.0371 7.33417 21.0371C7.39924 21.0371 7.50573 20.9722 7.5708 20.8929C7.67729 20.7632 7.68912 20.6551 7.68912 19.9559V19.1702L7.47023 19.0981C7.17444 18.9972 1.41828 17.0077 1.28813 16.9572C1.19347 16.9212 1.18164 16.9933 1.18164 17.7213Z" stroke="#000E38" stroke-width="0.6" mask="url(#path-8-inside-5_589_78760)"/>
<path d="M6.5 11.5C8.1 11.9 8.5 12 8.5 12" stroke="#FFC400" stroke-width="0.3"/>
<path d="M6 13C7.6 13.4 8 13.5 8 13.5" stroke="#FFC400" stroke-width="0.3"/>
<path d="M5.5 14.5L7.5 15" stroke="#FFC400" stroke-width="0.3"/>
</svg>
