<svg width="22" height="25" viewBox="0 0 22 25" fill="none" xmlns="http://www.w3.org/2000/svg">
<mask id="path-1-inside-1_589_79502" fill="white">
<path d="M6.65861 0.809884C6.36378 0.870583 6.00826 0.98331 5.86952 1.06135C5.49665 1.24345 5.0891 1.74638 4.98505 2.12792C4.79428 2.79561 4.71624 2.76092 6.36378 2.76092H7.8379V1.72037V0.679815L7.51706 0.688486C7.33497 0.688486 6.94476 0.749185 6.65861 0.809884Z"/>
</mask>
<path d="M6.65861 0.809884C6.36378 0.870583 6.00826 0.98331 5.86952 1.06135C5.49665 1.24345 5.0891 1.74638 4.98505 2.12792C4.79428 2.79561 4.71624 2.76092 6.36378 2.76092H7.8379V1.72037V0.679815L7.51706 0.688486C7.33497 0.688486 6.94476 0.749185 6.65861 0.809884Z" fill="#FFC400" stroke="#FFC400" stroke-width="0.8" mask="url(#path-1-inside-1_589_79502)"/>
<mask id="path-2-inside-2_589_79502" fill="white">
<path d="M8.35719 2.1106V3.54136H6.62293C5.66909 3.54136 4.88867 3.56738 4.88867 3.60206C4.88867 3.64542 4.93203 3.81884 4.98406 3.99227L5.07077 4.32178H7.01314C8.85145 4.32178 8.96418 4.31311 9.05089 4.15702C9.10292 4.05297 9.1376 3.30724 9.1376 2.33605V0.679838H8.74739H8.35719V2.1106Z"/>
</mask>
<path d="M8.35719 2.1106V3.54136H6.62293C5.66909 3.54136 4.88867 3.56738 4.88867 3.60206C4.88867 3.64542 4.93203 3.81884 4.98406 3.99227L5.07077 4.32178H7.01314C8.85145 4.32178 8.96418 4.31311 9.05089 4.15702C9.10292 4.05297 9.1376 3.30724 9.1376 2.33605V0.679838H8.74739H8.35719V2.1106Z" stroke="#FFC400" stroke-width="0.8" mask="url(#path-2-inside-2_589_79502)"/>
<mask id="path-3-inside-3_589_79502" fill="white">
<path d="M9.44347 2.7255C9.44347 5.05807 9.65158 4.85863 7.1976 4.85863C5.81887 4.85863 5.28125 4.88465 5.28125 4.95402C5.28125 5.06675 5.81887 5.88185 6.07901 6.168C6.28712 6.40212 6.67733 6.45415 8.61969 6.48016C10.1632 6.49751 10.5967 6.56688 11.2905 6.89639C11.698 7.08715 12.3397 7.72016 12.5391 8.11904C12.5998 8.23176 13.2762 9.94868 14.0392 11.9257C14.811 13.9028 15.496 15.611 15.5654 15.7151C15.7301 15.9839 15.7215 16.2874 15.496 16.9291L15.3139 17.484L15.4874 17.7181C15.5827 17.8482 15.7822 18.0216 15.9209 18.1084C16.1811 18.2558 16.1984 18.2558 17.3083 17.8742C19.0426 17.2759 20.2392 16.6863 20.9329 16.0706C21.4532 15.6197 21.3405 15.0474 20.4647 13.764C19.9964 13.0617 17.3343 8.3098 17.1956 7.91093C17.0308 7.45135 17.0482 7.18254 17.239 6.74897C17.4731 6.24604 17.95 5.9859 19.2073 5.71709C20.7942 5.37024 21.2277 5.0494 21.3058 4.18227C21.4012 3.01165 20.7855 1.71963 19.9791 1.39012C19.8143 1.32075 19.0426 1.26005 17.9413 1.22537C14.7156 1.12131 10.3626 0.999912 9.90305 0.999912H9.44347V2.7255Z"/>
</mask>
<path d="M19.2699 2.09249L19.27 1.89249L19.3305 1.89255L19.3808 1.92608L19.2699 2.09249ZM14.6914 2.90759L14.8329 2.76617L14.6914 2.90759ZM19.3808 1.92608C19.4745 1.98854 19.5482 2.07083 19.5962 2.17687C19.6429 2.28001 19.6606 2.39495 19.6606 2.51739H19.2606C19.2606 2.43172 19.248 2.37756 19.2319 2.34196C19.217 2.30927 19.1953 2.28317 19.1589 2.25891L19.3808 1.92608ZM19.6606 2.51739C19.6606 2.64546 19.6576 2.8039 19.5766 2.93655C19.4873 3.08267 19.3348 3.15432 19.1515 3.19586C18.9685 3.23734 18.7148 3.2576 18.3695 3.26846C18.0211 3.27941 17.5654 3.28102 16.972 3.28102V2.88102C17.5666 2.88102 18.0159 2.87938 18.3569 2.86865C18.701 2.85783 18.9209 2.83799 19.0631 2.80576C19.205 2.7736 19.2292 2.73794 19.2352 2.72797C19.2496 2.70454 19.2606 2.65812 19.2606 2.51739H19.6606ZM16.972 3.28102C15.9792 3.28102 15.4403 3.27901 15.1305 3.25552C14.9758 3.24379 14.8605 3.22575 14.7682 3.19208C14.6657 3.15465 14.6032 3.10225 14.55 3.04902L14.8329 2.76617C14.862 2.79532 14.8765 2.80578 14.9054 2.81632C14.9445 2.8306 15.0151 2.84562 15.1607 2.85666C15.4514 2.8787 15.9704 2.88102 16.972 2.88102V3.28102ZM14.55 3.04902C14.4812 2.98015 14.4252 2.89089 14.3863 2.80373C14.348 2.71791 14.318 2.61558 14.318 2.51739H14.718C14.718 2.5406 14.727 2.58567 14.7516 2.64076C14.7756 2.69451 14.8063 2.73965 14.8329 2.76617L14.55 3.04902ZM14.318 2.51739C14.318 2.46106 14.3168 2.34561 14.3471 2.23736C14.3784 2.12517 14.4587 1.97397 14.6481 1.93193L14.7348 2.32243C14.7341 2.32257 14.736 2.32218 14.739 2.32033C14.742 2.31853 14.7436 2.31675 14.744 2.3163C14.7442 2.31606 14.7428 2.31774 14.7404 2.32263C14.738 2.32758 14.7351 2.33487 14.7323 2.34503C14.7192 2.39191 14.718 2.45232 14.718 2.51739H14.318ZM19.4606 4.01993C17.8857 4.01993 15.6952 4.00212 13.8984 3.97672C13.0001 3.96401 12.1995 3.94941 11.6231 3.93416C11.3352 3.92654 11.102 3.91874 10.9401 3.91087C10.8597 3.90696 10.7944 3.90292 10.7481 3.89865C10.7258 3.8966 10.703 3.89407 10.6836 3.89061C10.6754 3.88914 10.6586 3.88595 10.6403 3.87952C10.6325 3.87676 10.6117 3.86916 10.5892 3.85342C10.5748 3.8434 10.5026 3.79076 10.5026 3.68801H10.9026C10.9026 3.58621 10.8312 3.53452 10.8182 3.52545C10.797 3.51066 10.7782 3.50401 10.7731 3.5022C10.7655 3.49954 10.7599 3.49816 10.7578 3.49766C10.7565 3.49735 10.7555 3.49714 10.7549 3.49703C10.7544 3.49691 10.754 3.49685 10.754 3.49685C10.754 3.49685 10.7542 3.49688 10.7546 3.49694C10.755 3.49701 10.7556 3.4971 10.7564 3.49721C10.7579 3.49744 10.7601 3.49772 10.7628 3.49806C10.7684 3.49873 10.7756 3.4995 10.7848 3.50034C10.8222 3.50378 10.8805 3.5075 10.9596 3.51134C11.1169 3.51899 11.3465 3.5267 11.6337 3.5343C12.2077 3.54948 13.0064 3.56406 13.9041 3.57675C15.6994 3.60214 17.8879 3.61994 19.4606 3.61994V4.01993ZM14.6481 1.93193C14.6792 1.92503 14.7261 1.92246 14.7615 1.92069C14.8056 1.91849 14.8636 1.91651 14.9327 1.9147C15.0712 1.91109 15.2587 1.90806 15.4777 1.90553C15.9159 1.90047 16.4834 1.89733 17.045 1.8954C17.6067 1.89347 18.163 1.89274 18.5788 1.8925C18.7867 1.89238 18.9595 1.89238 19.0803 1.89241C19.1407 1.89242 19.1881 1.89244 19.2205 1.89246C19.2366 1.89247 19.249 1.89248 19.2574 1.89248C19.2616 1.89249 19.2647 1.89249 19.2668 1.89249C19.2679 1.89249 19.2687 1.89249 19.2692 1.89249C19.2695 1.89249 19.2697 1.89249 19.2698 1.89249C19.2699 1.89249 19.27 1.89249 19.27 1.89249C19.27 1.89249 19.27 1.89249 19.2699 2.09249C19.2697 2.29249 19.2697 2.29249 19.2697 2.29249C19.2696 2.29249 19.2696 2.29249 19.2695 2.29249C19.2694 2.29249 19.2692 2.29249 19.2689 2.29249C19.2684 2.29249 19.2676 2.29249 19.2665 2.29249C19.2644 2.29249 19.2613 2.29249 19.2571 2.29249C19.2488 2.29248 19.2364 2.29247 19.2202 2.29246C19.188 2.29244 19.1406 2.29242 19.0802 2.29241C18.9595 2.29238 18.7868 2.29238 18.579 2.2925C18.1634 2.29274 17.6076 2.29347 17.0464 2.2954C16.4851 2.29733 15.9188 2.30046 15.4823 2.3055C15.2639 2.30803 15.0788 2.31103 14.9432 2.31457C14.8753 2.31634 14.8209 2.31823 14.7814 2.3202C14.7332 2.3226 14.7254 2.32451 14.7348 2.32243L14.6481 1.93193ZM6.07901 6.168L6.375 5.89891L6.37797 5.90225L6.07901 6.168ZM8.61969 6.48016L8.6152 6.88014L8.61434 6.88013L8.61969 6.48016ZM11.2905 6.89639L11.1209 7.25867L11.1188 7.2577L11.2905 6.89639ZM12.5391 8.11904L12.1868 8.30876L12.1813 8.29792L12.5391 8.11904ZM14.0392 11.9257L13.6666 12.0712L13.6661 12.0698L14.0392 11.9257ZM15.5654 15.7151L15.8982 15.4932L15.9024 15.4995L15.9064 15.5061L15.5654 15.7151ZM15.496 16.9291L15.1159 16.8043L15.1186 16.7965L15.496 16.9291ZM15.3139 17.484L14.9925 17.7221L14.8694 17.5559L14.9339 17.3593L15.3139 17.484ZM15.4874 17.7181L15.8088 17.4801L15.8099 17.4816L15.4874 17.7181ZM15.9209 18.1084L15.7237 18.4564L15.7162 18.4521L15.7089 18.4476L15.9209 18.1084ZM17.3083 17.8742L17.4388 18.2524L17.4384 18.2525L17.3083 17.8742ZM20.9329 16.0706L20.6674 15.7714L20.6709 15.7683L20.9329 16.0706ZM20.4647 13.764L20.1343 13.9895L20.1319 13.9859L20.4647 13.764ZM17.1956 7.91093L17.5721 7.77594L17.5734 7.77952L17.1956 7.91093ZM17.239 6.74897L16.8727 6.58784L16.8763 6.58016L17.239 6.74897ZM19.2073 5.71709L19.2928 6.10787L19.291 6.10825L19.2073 5.71709ZM21.3058 4.18227L21.7045 4.21476L21.7042 4.21813L21.3058 4.18227ZM19.9791 1.39012L19.8278 1.76042L19.8239 1.75878L19.9791 1.39012ZM17.9413 1.22537L17.9287 1.62517L17.9284 1.62516L17.9413 1.22537ZM9.44347 0.999912H9.04347V0.599913H9.44347V0.999912ZM9.84347 2.7255C9.84347 3.28788 9.85671 3.7418 9.8369 4.06716C9.81774 4.38182 9.76524 4.72053 9.51611 4.95694C9.2731 5.18754 8.93098 5.23502 8.60556 5.25276C8.26563 5.27129 7.79224 5.25863 7.1976 5.25863V4.45863C7.82995 4.45863 8.25079 4.47091 8.56202 4.45394C8.88776 4.43618 8.95373 4.38774 8.96544 4.37663C8.97103 4.37132 9.01987 4.32253 9.03838 4.01855C9.05624 3.72527 9.04347 3.32941 9.04347 2.7255H9.84347ZM7.1976 5.25863C6.50819 5.25863 6.03799 5.26519 5.74217 5.27982C5.59155 5.28728 5.50098 5.2962 5.45364 5.30422C5.4262 5.30888 5.43658 5.30951 5.46275 5.29845C5.4749 5.29332 5.51662 5.27506 5.56098 5.23353C5.60974 5.18789 5.68125 5.09336 5.68125 4.95402H4.88125C4.88125 4.806 4.95696 4.70314 5.01426 4.6495C5.06717 4.59997 5.1218 4.57404 5.15134 4.56155C5.2123 4.53579 5.27545 4.52302 5.31995 4.51547C5.4165 4.49911 5.54651 4.48852 5.70264 4.4808C6.02031 4.46509 6.50828 4.45863 7.1976 4.45863V5.25863ZM5.68125 4.95402C5.68125 4.92056 5.6766 4.89548 5.67418 4.884C5.67145 4.87106 5.66866 4.86219 5.66753 4.85873C5.66541 4.85225 5.66506 4.85257 5.66933 4.86201C5.67766 4.88043 5.69332 4.91117 5.71787 4.95478C5.76621 5.04064 5.83616 5.15369 5.91671 5.27607C6.08128 5.52614 6.26678 5.77991 6.37498 5.89893L5.78303 6.43707C5.6311 6.26994 5.41771 5.97307 5.24844 5.71587C5.16207 5.58463 5.08135 5.45487 5.02077 5.34726C4.99085 5.29413 4.96247 5.24046 4.94039 5.19161C4.92945 5.16741 4.9173 5.13839 4.90717 5.10744C4.89974 5.08471 4.88125 5.02604 4.88125 4.95402H5.68125ZM6.37797 5.90225C6.38313 5.90806 6.41022 5.96316 6.74833 6.00518C7.08863 6.04746 7.64855 6.06712 8.62505 6.0802L8.61434 6.88013C7.64848 6.86719 7.0421 6.84783 6.64968 6.79907C6.25507 6.75004 5.98299 6.66206 5.78004 6.43374L6.37797 5.90225ZM8.62419 6.08019C9.39517 6.08885 9.91577 6.11035 10.3356 6.17602C10.7701 6.244 11.0892 6.35794 11.4621 6.53508L11.1188 7.2577C10.798 7.10532 10.5534 7.01983 10.2119 6.96641C9.85564 6.91068 9.38771 6.88882 8.6152 6.88014L8.62419 6.08019ZM11.46 6.53411C11.7246 6.65794 12.0251 6.90079 12.273 7.14422C12.5213 7.38795 12.768 7.68241 12.8969 7.94015L12.1813 8.29792C12.1108 8.15679 11.9369 7.9353 11.7126 7.71512C11.488 7.49464 11.2639 7.3256 11.1209 7.25866L11.46 6.53411ZM12.8913 7.9294C12.92 7.98277 12.985 8.14124 13.0627 8.3336C13.1472 8.54282 13.2617 8.83097 13.3979 9.17662C13.6704 9.86814 14.0306 10.7925 14.4124 11.7817L13.6661 12.0698C13.2848 11.0819 12.9253 10.1593 12.6536 9.4699C12.5178 9.1251 12.4042 8.83932 12.3209 8.63313C12.2792 8.52989 12.2456 8.44767 12.2207 8.38838C12.1917 8.319 12.183 8.30147 12.1869 8.30868L12.8913 7.9294ZM14.4119 11.7803C14.7974 12.768 15.1611 13.688 15.4368 14.3735C15.5748 14.7165 15.6902 14.9996 15.7752 15.2028C15.8178 15.3046 15.852 15.3845 15.8771 15.4411C15.9102 15.5156 15.9131 15.5155 15.8982 15.4932L15.2326 15.937C15.2004 15.8887 15.1667 15.8124 15.146 15.7658C15.1174 15.7014 15.0806 15.6153 15.0372 15.5115C14.9501 15.3033 14.8331 15.0163 14.6946 14.672C14.4175 13.9832 14.0528 13.0605 13.6666 12.0712L14.4119 11.7803ZM15.9064 15.5061C16.1744 15.9433 16.103 16.4082 15.8734 17.0617L15.1186 16.7965C15.34 16.1665 15.2859 16.0245 15.2244 15.9241L15.9064 15.5061ZM15.8761 17.0538L15.694 17.6087L14.9339 17.3593L15.116 16.8044L15.8761 17.0538ZM15.6354 17.2459L15.8088 17.4801L15.1659 17.9562L14.9925 17.7221L15.6354 17.2459ZM15.8099 17.4816C15.869 17.5621 16.0271 17.703 16.1329 17.7692L15.7089 18.4476C15.5373 18.3403 15.2965 18.1343 15.1648 17.9547L15.8099 17.4816ZM16.1181 17.7603C16.1909 17.8016 16.1966 17.8017 16.1941 17.801C16.1788 17.797 16.1797 17.8035 16.2302 17.7951C16.3638 17.7728 16.6036 17.6935 17.1783 17.496L17.4384 18.2525C16.9031 18.4365 16.5793 18.5479 16.3617 18.5842C16.2367 18.605 16.115 18.6078 15.9886 18.5742C15.8751 18.544 15.781 18.4888 15.7237 18.4564L16.1181 17.7603ZM17.1779 17.4961C18.9034 16.9008 20.0361 16.3317 20.6674 15.7714L21.1984 16.3698C20.4424 17.0408 19.1817 17.651 17.4388 18.2524L17.1779 17.4961ZM20.6709 15.7683C20.7638 15.6879 20.8057 15.622 20.8257 15.5661C20.8452 15.5114 20.8554 15.4334 20.8302 15.3086C20.7752 15.0357 20.5719 14.6308 20.1343 13.9895L20.7951 13.5386C21.2333 14.1807 21.5242 14.7035 21.6144 15.1504C21.6619 15.3855 21.6575 15.6153 21.5792 15.8348C21.5013 16.0532 21.3622 16.2279 21.1949 16.3729L20.6709 15.7683ZM20.1319 13.9859C19.8868 13.6184 19.095 12.2377 18.3575 10.9189C17.9862 10.2551 17.6247 9.59982 17.347 9.08484C17.2083 8.82755 17.0896 8.60376 17.0008 8.43079C16.9187 8.27076 16.8464 8.12459 16.8178 8.04233L17.5734 7.77952C17.5726 7.77709 17.5744 7.78252 17.5819 7.79961C17.5888 7.8152 17.5983 7.83585 17.6108 7.86196C17.6358 7.91416 17.6699 7.98236 17.7126 8.0655C17.7977 8.23148 17.9135 8.44986 18.0511 8.70512C18.3262 9.21525 18.6856 9.86666 19.0557 10.5284C19.8009 11.8609 20.5742 13.2073 20.7975 13.5422L20.1319 13.9859ZM16.8191 8.04591C16.7271 7.78933 16.6737 7.55278 16.6843 7.30324C16.6949 7.05447 16.7676 6.82704 16.8728 6.58788L17.6051 6.91007C17.5195 7.10447 17.4882 7.22823 17.4836 7.33715C17.479 7.4453 17.4994 7.57294 17.5721 7.77594L16.8191 8.04591ZM16.8763 6.58016C17.2013 5.88199 17.8722 5.5935 19.1237 5.32593L19.291 6.10825C18.0278 6.3783 17.7448 6.61009 17.6016 6.91779L16.8763 6.58016ZM19.1219 5.32632C19.9176 5.1524 20.3451 4.99861 20.5859 4.82215C20.7824 4.67812 20.8752 4.50428 20.9074 4.14642L21.7042 4.21813C21.6583 4.72739 21.4953 5.14754 21.0588 5.46742C20.6666 5.75488 20.0839 5.93493 19.2927 6.10787L19.1219 5.32632ZM20.9071 4.14979C20.9486 3.64107 20.8348 3.09554 20.6194 2.64257C20.3997 2.18062 20.1036 1.87311 19.8278 1.7604L20.1304 1.01984C20.661 1.23664 21.0759 1.73989 21.3418 2.29898C21.612 2.86706 21.7584 3.55285 21.7045 4.21476L20.9071 4.14979ZM19.8239 1.75878C19.8368 1.76423 19.8067 1.7526 19.6899 1.73603C19.5884 1.72163 19.451 1.70722 19.2794 1.69345C18.9371 1.66599 18.4759 1.6424 17.9287 1.62517L17.9539 0.825565C18.508 0.843016 18.9833 0.867123 19.3434 0.896019C19.523 0.910433 19.6782 0.926373 19.8022 0.943954C19.9108 0.95936 20.039 0.981331 20.1343 1.02147L19.8239 1.75878ZM17.9284 1.62516C14.6984 1.52096 10.3543 1.39991 9.90305 1.39991V0.599913C10.3709 0.599913 14.7329 0.721659 17.9542 0.825575L17.9284 1.62516ZM9.90305 1.39991H9.44347V0.599913H9.90305V1.39991ZM9.84347 0.999912V2.7255H9.04347V0.999912H9.84347Z" fill="#000E38" mask="url(#path-3-inside-3_589_79502)"/>
<mask id="path-5-inside-4_589_79502" fill="white">
<path d="M1.33394 3.15089L0.683594 3.359H4.43826L8.19293 3.36768L8.16691 3.16824L8.1409 2.97747L5.06259 2.96013C2.06233 2.95145 1.96694 2.96013 1.33394 3.15089Z"/>
</mask>
<path d="M1.33394 3.15089L0.683594 3.359H4.43826L8.19293 3.36768L8.16691 3.16824L8.1409 2.97747L5.06259 2.96013C2.06233 2.95145 1.96694 2.96013 1.33394 3.15089Z" stroke="#FFC400" stroke-width="0.8" mask="url(#path-5-inside-4_589_79502)"/>
<mask id="path-6-inside-5_589_79502" fill="white">
<path d="M10.1258 6.55C10.3946 7.40845 10.4553 8.1195 10.4726 10.348C10.49 12.5072 10.5073 12.7413 10.6981 13.4263C10.9149 14.2414 10.9582 15.1519 10.8368 16.522C10.7588 17.3024 10.7675 17.3111 10.9842 17.5365C11.2877 17.84 11.4525 17.8227 13.4122 17.3891L15.0424 17.0249L15.2072 16.548C15.4326 15.915 15.4239 15.8023 15.1291 15.1519C14.9991 14.8484 14.288 13.0708 13.5596 11.2065C12.7098 9.02999 12.1375 7.68594 11.9554 7.4258C11.6606 7.02692 10.9235 6.58468 10.3252 6.44594C10.1171 6.40259 10.0824 6.41993 10.1258 6.55Z"/>
</mask>
<path d="M10.1258 6.55C10.3946 7.40845 10.4553 8.1195 10.4726 10.348C10.49 12.5072 10.5073 12.7413 10.6981 13.4263C10.9149 14.2414 10.9582 15.1519 10.8368 16.522C10.7588 17.3024 10.7675 17.3111 10.9842 17.5365C11.2877 17.84 11.4525 17.8227 13.4122 17.3891L15.0424 17.0249L15.2072 16.548C15.4326 15.915 15.4239 15.8023 15.1291 15.1519C14.9991 14.8484 14.288 13.0708 13.5596 11.2065C12.7098 9.02999 12.1375 7.68594 11.9554 7.4258C11.6606 7.02692 10.9235 6.58468 10.3252 6.44594C10.1171 6.40259 10.0824 6.41993 10.1258 6.55Z" stroke="#000E38" stroke-width="0.8" mask="url(#path-6-inside-5_589_79502)"/>
<mask id="path-7-inside-6_589_79502" fill="white">
<path d="M2.9297 10.2963C2.36607 10.8339 1.84579 11.3629 1.78509 11.4843C1.68971 11.6577 1.70705 11.8225 1.89782 12.5769C2.02789 13.0711 2.19264 13.5394 2.27069 13.6174C2.34873 13.6955 2.70425 13.8429 3.05977 13.9383C3.4153 14.0336 3.71879 14.129 3.73613 14.1464C3.75348 14.1637 3.72746 14.2938 3.67543 14.4238C3.47599 14.9441 3.84886 15.0915 4.08298 14.5973C4.24774 14.2504 4.26508 14.2504 4.82872 14.4238C5.17557 14.5279 5.25361 14.5279 5.28829 14.4325C5.33165 14.3198 5.24494 13.9209 5.1062 13.5827C5.07151 13.4873 5.1062 13.4266 5.22759 13.3833C5.33165 13.3573 5.40969 13.2706 5.40969 13.1925C5.40969 13.0885 5.34899 13.0711 5.15822 13.1058C4.9241 13.1578 4.89809 13.1318 4.73333 12.7503C4.49921 12.1953 4.38648 11.7531 4.31711 11.0681L4.25641 10.4784L4.53389 10.4264C4.6813 10.3917 4.8027 10.3223 4.8027 10.2616C4.8027 10.0882 4.70732 10.0535 4.49921 10.1316C4.2911 10.2096 4.19571 10.1142 4.19571 9.79338C4.19571 9.71533 4.14368 9.57659 4.07431 9.48121C3.97026 9.3338 3.88355 9.3945 2.9297 10.2963Z"/>
</mask>
<path d="M2.9297 10.2963C2.36607 10.8339 1.84579 11.3629 1.78509 11.4843C1.68971 11.6577 1.70705 11.8225 1.89782 12.5769C2.02789 13.0711 2.19264 13.5394 2.27069 13.6174C2.34873 13.6955 2.70425 13.8429 3.05977 13.9383C3.4153 14.0336 3.71879 14.129 3.73613 14.1464C3.75348 14.1637 3.72746 14.2938 3.67543 14.4238C3.47599 14.9441 3.84886 15.0915 4.08298 14.5973C4.24774 14.2504 4.26508 14.2504 4.82872 14.4238C5.17557 14.5279 5.25361 14.5279 5.28829 14.4325C5.33165 14.3198 5.24494 13.9209 5.1062 13.5827C5.07151 13.4873 5.1062 13.4266 5.22759 13.3833C5.33165 13.3573 5.40969 13.2706 5.40969 13.1925C5.40969 13.0885 5.34899 13.0711 5.15822 13.1058C4.9241 13.1578 4.89809 13.1318 4.73333 12.7503C4.49921 12.1953 4.38648 11.7531 4.31711 11.0681L4.25641 10.4784L4.53389 10.4264C4.6813 10.3917 4.8027 10.3223 4.8027 10.2616C4.8027 10.0882 4.70732 10.0535 4.49921 10.1316C4.2911 10.2096 4.19571 10.1142 4.19571 9.79338C4.19571 9.71533 4.14368 9.57659 4.07431 9.48121C3.97026 9.3338 3.88355 9.3945 2.9297 10.2963Z" stroke="#FFC400" stroke-width="0.8" mask="url(#path-7-inside-6_589_79502)"/>
<mask id="path-8-inside-7_589_79502" fill="white">
<path d="M4.24834 14.6925C4.21365 14.7706 4.31771 14.944 4.54316 15.1521C5.12414 15.7071 5.02008 16.0539 3.89281 17.3806C3.48526 17.8575 3.06037 18.4212 2.93897 18.638C2.66149 19.1582 2.57478 20.0167 2.71352 20.9792C2.97366 22.7395 3.91016 23.728 5.71378 24.1442C6.69364 24.3784 9.04356 24.3784 9.78929 24.1442C11.0553 23.754 11.671 23.2858 12.8156 21.855C13.3272 21.222 13.9081 20.589 14.1076 20.4416C14.5238 20.1294 18.2525 18.2478 18.6167 18.161C18.8161 18.1177 18.8421 18.083 18.7641 17.9356C18.6427 17.7015 18.5126 17.7535 16.1107 18.9588C13.7694 20.1381 13.622 20.2508 12.4427 21.751C11.6276 22.7828 11.2287 23.1384 10.4743 23.5026C9.60719 23.9101 8.84412 24.0315 7.4914 23.9708C6.84972 23.9448 6.08665 23.8667 5.8005 23.8061C4.6212 23.5459 3.76275 22.9216 3.36387 22.0718C3.10373 21.4908 2.94764 20.4763 3.00834 19.7305C3.06904 19.0022 3.25981 18.6553 4.19631 17.5714C5.19351 16.4008 5.41896 15.8458 5.11547 15.2562C5.00274 15.0481 4.46512 14.5538 4.34372 14.5538C4.31771 14.5538 4.27435 14.6145 4.24834 14.6925Z"/>
</mask>
<path d="M4.24834 14.6925C4.21365 14.7706 4.31771 14.944 4.54316 15.1521C5.12414 15.7071 5.02008 16.0539 3.89281 17.3806C3.48526 17.8575 3.06037 18.4212 2.93897 18.638C2.66149 19.1582 2.57478 20.0167 2.71352 20.9792C2.97366 22.7395 3.91016 23.728 5.71378 24.1442C6.69364 24.3784 9.04356 24.3784 9.78929 24.1442C11.0553 23.754 11.671 23.2858 12.8156 21.855C13.3272 21.222 13.9081 20.589 14.1076 20.4416C14.5238 20.1294 18.2525 18.2478 18.6167 18.161C18.8161 18.1177 18.8421 18.083 18.7641 17.9356C18.6427 17.7015 18.5126 17.7535 16.1107 18.9588C13.7694 20.1381 13.622 20.2508 12.4427 21.751C11.6276 22.7828 11.2287 23.1384 10.4743 23.5026C9.60719 23.9101 8.84412 24.0315 7.4914 23.9708C6.84972 23.9448 6.08665 23.8667 5.8005 23.8061C4.6212 23.5459 3.76275 22.9216 3.36387 22.0718C3.10373 21.4908 2.94764 20.4763 3.00834 19.7305C3.06904 19.0022 3.25981 18.6553 4.19631 17.5714C5.19351 16.4008 5.41896 15.8458 5.11547 15.2562C5.00274 15.0481 4.46512 14.5538 4.34372 14.5538C4.31771 14.5538 4.27435 14.6145 4.24834 14.6925Z" stroke="#000E38" stroke-width="0.8" mask="url(#path-8-inside-7_589_79502)"/>
<mask id="path-9-inside-8_589_79502" fill="white">
<path d="M18.8759 17.0856L18.5117 17.2677L18.8586 17.7706C19.2141 18.2996 19.4309 18.4383 19.7084 18.2909C20.0119 18.1261 20.0119 17.8747 19.7084 17.3631C19.5523 17.1029 19.3788 16.8948 19.3268 16.9035C19.2835 16.9035 19.0754 16.9902 18.8759 17.0856Z"/>
</mask>
<path d="M18.8759 17.0856L18.5117 17.2677L18.8586 17.7706C19.2141 18.2996 19.4309 18.4383 19.7084 18.2909C20.0119 18.1261 20.0119 17.8747 19.7084 17.3631C19.5523 17.1029 19.3788 16.8948 19.3268 16.9035C19.2835 16.9035 19.0754 16.9902 18.8759 17.0856Z" stroke="#000E38" stroke-width="0.8" mask="url(#path-9-inside-8_589_79502)"/>
</svg>
