<?xml version="1.0" encoding="utf-8"?>
<!-- Generator: Adobe Illustrator 23.0.1, SVG Export Plug-In . SVG Version: 6.00 Build 0)  -->
<svg version="1.1" id="Слой_1" xmlns="http://www.w3.org/2000/svg" xmlns:xlink="http://www.w3.org/1999/xlink" x="0px" y="0px"
	 viewBox="0 0 21 25" style="enable-background:new 0 0 21 25;" xml:space="preserve">
<style type="text/css">
	.st0{clip-path:url(#SVGID_2_);}
	.st1{clip-path:url(#SVGID_4_);}
	.st2{fill-rule:evenodd;clip-rule:evenodd;fill:#FFFFFF;filter:url(#Adobe_OpacityMaskFilter);}
	.st3{mask:url(#path-1-inside-1_0_1_1_);fill:none;stroke:#000E38;}
	.st4{fill:#FFC400;}
</style>
<g>
	<defs>
		<polyline id="SVGID_1_" points="-224,-667 1696,-667 1696,200 -224,200 		"/>
	</defs>
	<clipPath id="SVGID_2_">
		<use xlink:href="#SVGID_1_"  style="overflow:visible;"/>
	</clipPath>
	<g class="st0">
		<g>
			<defs>
				<polyline id="SVGID_3_" points="-23,138 -23,-477 327,-477 				"/>
			</defs>
			<clipPath id="SVGID_4_">
				<use xlink:href="#SVGID_3_"  style="overflow:visible;"/>
			</clipPath>
			<g class="st1">
				<defs>
					<filter id="Adobe_OpacityMaskFilter" filterUnits="userSpaceOnUse" x="-0.1" y="0" width="21.2" height="25">
						<feColorMatrix  type="matrix" values="1 0 0 0 0  0 1 0 0 0  0 0 1 0 0  0 0 0 1 0"/>
					</filter>
				</defs>
				<mask maskUnits="userSpaceOnUse" x="-0.1" y="0" width="21.2" height="25" id="path-1-inside-1_0_1_1_">
					<path class="st2" d="M3.3,3.9L1.1,3l0.9,2.3l2.3,1.2L3.3,3.9z M2.5,21.4c-0.1,0-0.1-0.1-0.1-0.2c0-0.1,0.1-0.1,0.2-0.1l1.4,0.8
						c0.1,0,0.1,0.1,0.1,0.2c0,0.1-0.1,0.1-0.2,0.1L2.5,21.4z M2.5,20.2c-0.1,0-0.1-0.1-0.1-0.2c0-0.1,0.1-0.1,0.2-0.1l1.4,0.8
						c0.1,0,0.1,0.1,0.1,0.2c0,0.1-0.1,0.1-0.2,0.1L2.5,20.2z M2.4,12.9l0-2.5L4,11v2.7L2.4,12.9z M4.9,7.7L5,24l13-3L17.8,8L9,9.2
						L6.6,9.5c-0.1,0-0.2,0-0.2-0.1L4.9,7.7z M4.6,24.4l-3-2.3c-0.1-0.1-0.1-0.1-0.1-0.2l0-16.4L0.4,2.7c0-0.1,0-0.1,0-0.2
						c0-0.1,0.2-0.2,0.3-0.1l0.4,0.2l0-0.1l0,0c0-0.2,0-0.3,0-0.4c0.1-0.1,0.2-0.2,0.3-0.3c0,0,0,0,0.1,0l11.6-1.1c0,0,0,0,0,0
						c0.1,0,0.2,0,0.3,0.1c0.1,0.1,0.1,0.1,0.2,0.3l0.3,2.4l1.4-2.7c0.1-0.1,0.2-0.2,0.3-0.1l4,1.1c0.1,0,0.2,0.2,0.2,0.3l0,0
						l-1.4,3.4l2.2,1.9c0.1,0.1,0.1,0.2,0,0.3c0,0.1-0.1,0.1-0.2,0.1L18.2,8l0.2,13.2c0,0.1-0.1,0.2-0.2,0.2L4.8,24.5
						C4.7,24.5,4.6,24.5,4.6,24.4z M2,5.9l0,15.9l2.5,1.9L4.4,7.2L2,5.9z M3.6,3.5c0.1,0,0.1,0.1,0.1,0.2C3.9,4.1,4,4.5,4.2,5
						l9.2-1.2L13.1,1L1.6,2.1c0,0,0,0.1,0,0.1l0.1,0.5L3.6,3.5z M6.6,9L18,7.5h0l1.8-0.2l-1.9-1.6L5.1,7.3L6.6,9z M13.5,5V4.2
						L4.3,5.4l0.4,1.3l0,0l0,0.1l8.7-1.1V5z M13.9,5.6l2.9-0.3l-2.9-1V5.6z M14.1,3.8l3.7,1.3L19.1,2l-3.5-1L14.1,3.8z"/>
				</mask>
				<path class="st3" d="M3.3,3.9L1.1,3l0.9,2.3l2.3,1.2L3.3,3.9z M2.5,21.4c-0.1,0-0.1-0.1-0.1-0.2c0-0.1,0.1-0.1,0.2-0.1l1.4,0.8
					c0.1,0,0.1,0.1,0.1,0.2c0,0.1-0.1,0.1-0.2,0.1L2.5,21.4z M2.5,20.2c-0.1,0-0.1-0.1-0.1-0.2c0-0.1,0.1-0.1,0.2-0.1l1.4,0.8
					c0.1,0,0.1,0.1,0.1,0.2c0,0.1-0.1,0.1-0.2,0.1L2.5,20.2z M2.4,12.9l0-2.5L4,11v2.7L2.4,12.9z M4.9,7.7L5,24l13-3L17.8,8L9,9.2
					L6.6,9.5c-0.1,0-0.2,0-0.2-0.1L4.9,7.7z M4.6,24.4l-3-2.3c-0.1-0.1-0.1-0.1-0.1-0.2l0-16.4L0.4,2.7c0-0.1,0-0.1,0-0.2
					c0-0.1,0.2-0.2,0.3-0.1l0.4,0.2l0-0.1l0,0c0-0.2,0-0.3,0-0.4c0.1-0.1,0.2-0.2,0.3-0.3c0,0,0,0,0.1,0l11.6-1.1c0,0,0,0,0,0
					c0.1,0,0.2,0,0.3,0.1c0.1,0.1,0.1,0.1,0.2,0.3l0.3,2.4l1.4-2.7c0.1-0.1,0.2-0.2,0.3-0.1l4,1.1c0.1,0,0.2,0.2,0.2,0.3l0,0
					l-1.4,3.4l2.2,1.9c0.1,0.1,0.1,0.2,0,0.3c0,0.1-0.1,0.1-0.2,0.1L18.2,8l0.2,13.2c0,0.1-0.1,0.2-0.2,0.2L4.8,24.5
					C4.7,24.5,4.6,24.5,4.6,24.4z M2,5.9l0,15.9l2.5,1.9L4.4,7.2L2,5.9z M3.6,3.5c0.1,0,0.1,0.1,0.1,0.2C3.9,4.1,4,4.5,4.2,5
					l9.2-1.2L13.1,1L1.6,2.1c0,0,0,0.1,0,0.1l0.1,0.5L3.6,3.5z M6.6,9L18,7.5h0l1.8-0.2l-1.9-1.6L5.1,7.3L6.6,9z M13.5,5V4.2
					L4.3,5.4l0.4,1.3l0,0l0,0.1l8.7-1.1V5z M13.9,5.6l2.9-0.3l-2.9-1V5.6z M14.1,3.8l3.7,1.3L19.1,2l-3.5-1L14.1,3.8z"/>
				<path class="st4" d="M16,12.4C16,12.4,16,12.4,16,12.4C15.9,12.4,15.9,12.3,16,12.4c-0.1-0.1-0.1-0.1-0.1-0.1
					c-0.1-0.2-0.2-0.3-0.4-0.5c0,0,0,0,0-0.1c0,0-0.1-0.1-0.1-0.1c0,0,0,0,0,0c-0.1-0.1-0.2-0.2-0.3-0.3c0,0,0,0,0,0
					c0,0-0.1-0.1-0.1-0.1c0,0,0,0-0.1-0.1c-0.2-0.1-0.3-0.2-0.5-0.4c0,0,0,0,0,0c0,0-0.1,0-0.1-0.1c0,0,0,0,0,0
					c-0.7-0.4-1.5-0.6-2.4-0.6C9.2,10,7,12.2,7,14.8c0,0.9,0.2,1.7,0.6,2.4c0,0,0,0,0,0c0,0,0,0.1,0.1,0.1c0,0,0,0,0,0
					c0.1,0.2,0.2,0.3,0.4,0.5c0,0,0,0,0.1,0.1c0,0,0.1,0.1,0.1,0.1c0,0,0,0,0,0c0.1,0.1,0.2,0.2,0.2,0.2c0,0,0,0,0,0
					c0,0,0.1,0.1,0.1,0.1c0,0,0,0,0.1,0.1c0.2,0.1,0.3,0.3,0.5,0.4c0,0,0,0,0,0c0,0,0.1,0,0.1,0.1c0,0,0,0,0,0
					c0.7,0.4,1.5,0.6,2.4,0.6c2.6,0,4.8-2.2,4.8-4.8C16.6,13.9,16.4,13.1,16,12.4z M14.2,11.1C14.2,11.1,14.2,11.1,14.2,11.1
					c0.1,0.1,0.1,0.1,0.2,0.1c0.1,0.1,0.2,0.1,0.2,0.2c0,0,0,0,0.1,0.1c0.2,0.1,0.3,0.3,0.5,0.5c0,0,0,0,0.1,0.1
					c0.1,0.1,0.1,0.1,0.2,0.2c0,0,0.1,0.1,0.1,0.1c0,0,0,0,0,0l-1.9,0.9c0,0,0,0,0,0c-0.1-0.1-0.1-0.1-0.2-0.2c0,0,0,0,0,0
					L14.2,11.1z M13.7,14.8c0,1-0.8,1.9-1.9,1.9c-0.4,0-0.8-0.1-1.1-0.4c-0.1-0.1-0.1-0.1-0.2-0.2c0,0,0,0,0,0
					c-0.1-0.1-0.1-0.1-0.2-0.2c-0.2-0.3-0.4-0.7-0.4-1.1c0-1,0.8-1.9,1.9-1.9c0.4,0,0.8,0.1,1.1,0.4c0.1,0.1,0.1,0.1,0.2,0.2
					c0,0,0,0,0,0c0.1,0.1,0.1,0.1,0.2,0.2C13.5,14,13.7,14.4,13.7,14.8z M7.9,16.8c-0.3-0.6-0.5-1.3-0.5-2c0-2.4,2-4.4,4.4-4.4
					c0.7,0,1.4,0.2,2,0.5L13,12.8c-0.3-0.2-0.7-0.3-1.2-0.3c-1.3,0-2.3,1-2.3,2.3c0,0.4,0.1,0.8,0.3,1.2L7.9,16.8z M9.4,18.5
					C9.4,18.5,9.4,18.5,9.4,18.5c-0.1-0.1-0.1-0.1-0.2-0.1c-0.1-0.1-0.2-0.1-0.2-0.2c0,0,0,0-0.1-0.1c-0.2-0.1-0.3-0.3-0.5-0.5
					c0,0,0,0-0.1-0.1c-0.1-0.1-0.1-0.2-0.2-0.2c0,0-0.1-0.1-0.1-0.1c0,0,0,0,0,0l1.9-0.9c0,0,0,0,0,0c0.1,0.1,0.1,0.1,0.2,0.2
					c0,0,0,0,0,0L9.4,18.5z M11.8,19.2c-0.7,0-1.4-0.2-2-0.5l0.9-1.9c0.3,0.2,0.7,0.3,1.2,0.3c1.3,0,2.3-1,2.3-2.3
					c0-0.4-0.1-0.8-0.3-1.2l1.9-0.9c0.3,0.6,0.5,1.3,0.5,2C16.2,17.2,14.2,19.2,11.8,19.2z"/>
				<path class="st4" d="M11.8,13.8c-0.6,0-1,0.5-1,1c0,0.6,0.5,1,1,1c0.6,0,1-0.5,1-1C12.8,14.2,12.4,13.8,11.8,13.8z M11.8,15.4
					c-0.3,0-0.6-0.3-0.6-0.6c0-0.3,0.3-0.6,0.6-0.6c0.3,0,0.6,0.3,0.6,0.6C12.4,15.1,12.1,15.4,11.8,15.4z"/>
			</g>
		</g>
	</g>
</g>
</svg>
