<?xml version="1.0" encoding="utf-8"?>
<!-- Generator: Adobe Illustrator 23.0.1, SVG Export Plug-In . SVG Version: 6.00 Build 0)  -->
<svg version="1.1" id="Слой_1" xmlns="http://www.w3.org/2000/svg" xmlns:xlink="http://www.w3.org/1999/xlink" x="0px" y="0px"
	 viewBox="0 0 23 25" style="enable-background:new 0 0 23 25;" xml:space="preserve">
<style type="text/css">
	.st0{fill-rule:evenodd;clip-rule:evenodd;fill:none;stroke:#071D49;stroke-width:0.5;stroke-linejoin:bevel;}
	.st1{fill-rule:evenodd;clip-rule:evenodd;fill:none;stroke:#071D49;stroke-width:0.5;}
	.st2{fill:none;stroke:#071D49;stroke-width:0.5;}
	.st3{fill-rule:evenodd;clip-rule:evenodd;fill:none;stroke:#FFC600;stroke-width:0.5;}
	.st4{fill:none;stroke:#FFC600;stroke-width:0.4;}
</style>
<g>
	<path class="st0" d="M11.8,3.9L10,3.4C6.7,4.9,3.7,7.1,0.8,9.9l12,3c3.2-3.2,6.2-4.7,9.7-6.4l-4.8-1.2"/>
	<path class="st1" d="M0.7,9.8L0.5,21.1l12,3.5c0,0,0.4-11.9,0.3-11.9C12.8,12.7,0.6,9.9,0.7,9.8z"/>
	<path class="st0" d="M12.7,13c1-1.5,9-6.6,9.7-6.4l-0.4,11.1l-9.5,6.9L12.7,13z"/>
	<path class="st2" d="M16.7,7.8"/>
	<path class="st2" d="M16.7,7.8L17.2,8c-1.9,1.1-3.9,2-5,3.7C11.4,11.4,4,9.4,3.5,9.1C5.8,8.4,9.1,6.9,10.1,6l0.4,0.1"/>
	<path class="st3" d="M10.4,6.2L14,0.3l5.2,1.3L16.6,8L10.4,6.2z"/>
	<path class="st4" d="M0.9,18.5L12.1,22L12,24L0.9,20.7C0.8,20.6,0.9,18.8,0.9,18.5z"/>
	<path class="st4" d="M0.9,17.8c0.2,0.1,11.2,3.6,11.2,3.5c0-0.1,0.1-2.1,0.1-2.2L1,15.7L0.9,17.8z"/>
	<path class="st4" d="M14.3,1.6l2.2,0.6"/>
	<path class="st4" d="M14,2.4L16.2,3"/>
	<path class="st4" d="M13.3,3.4L15.5,4"/>
	<path class="st4" d="M12.8,4.3L15,5"/>
	<path class="st4" d="M12.3,5.5l2.2,0.6"/>
	<path class="st4" d="M17.9,2.4l-1.8,4.7"/>
</g>
</svg>
