<?xml version="1.0" encoding="utf-8"?>
<!-- Generator: Adobe Illustrator 23.0.1, SVG Export Plug-In . SVG Version: 6.00 Build 0)  -->
<svg version="1.1" id="Слой_1" xmlns="http://www.w3.org/2000/svg" xmlns:xlink="http://www.w3.org/1999/xlink" x="0px" y="0px"
	 viewBox="0 0 44 45" style="enable-background:new 0 0 44 45;" xml:space="preserve">
<style type="text/css">
	.st0{fill:#FFC400;}
	.st1{fill:none;}
	.st2{fill:#000E38;}
	.st3{fill:#FCBA00;}
</style>
<g>
	<g>
		<g>
			<path class="st0" d="M0.8,39c0.7,0,1.3,0,2,0c0.5,0,0.5-0.8,0-0.8c-0.7,0-1.3,0-2,0C0.3,38.2,0.3,39,0.8,39z"/>
			<path class="st1" d="M27.2,0.9v3.2h12.7c0.2,0,0.4,0.2,0.4,0.4v37.8l1-0.3c0.7-0.2,1.3-0.7,1.7-1.3c0.3-0.5,0.5-1.2,0.5-1.8V2.7
				V1.9c-0.4-0.6-1-1-1.7-1L27.2,0.9L27.2,0.9z"/>
			<path class="st2" d="M26.8,0.9c0,1.1,0,2.1,0,3.2c0,0.2,0.2,0.4,0.4,0.4c1.3,0,2.6,0,4,0c2.2,0,4.4,0,6.7,0c0.6,0,1.3,0,1.9,0
				c0.1,0,0.1,0,0.2,0c0,0,0,0,0,0c0,0,0,0.1,0,0.1c0,0.9,0,1.8,0,2.7c0,1.8,0,3.6,0,5.4c0,2.3,0,4.6,0,7c0,2.5,0,5,0,7.5
				c0,2.3,0,4.6,0,6.9c0,1.8,0,3.6,0,5.3c0,0.9,0,1.8,0,2.6c0,0,0,0.1,0,0.1c0,0.3,0.3,0.5,0.5,0.4c0.5-0.2,1.1-0.3,1.6-0.5
				c0.9-0.5,1.7-1.4,1.9-2.5c0.1-0.4,0.1-0.9,0.1-1.3c0-1.4,0-2.7,0-4.1c0-2.3,0-4.6,0-6.9c0-2.7,0-5.5,0-8.2c0-2.6,0-5.3,0-7.9
				c0-2,0-4,0-6c0-0.9,0-1.7,0-2.6c0-0.1,0-0.2,0-0.3c0-0.1,0-0.3,0-0.4c0-0.2-0.1-0.4-0.2-0.5c-0.5-0.6-1.2-0.9-1.9-0.9
				c-0.5,0-1,0-1.5,0c-2.4,0-4.7,0-7.1,0c-1.9,0-3.8,0-5.8,0c-0.1,0-0.2,0-0.3,0c-0.5,0-0.5,0.8,0,0.8c0.5,0,1.1,0,1.6,0
				c1.3,0,2.6,0,3.8,0c1.5,0,3,0,4.5,0c1.2,0,2.4,0,3.6,0c0.6,0,1.5-0.1,2,0.3c0.2,0.1,0.4,0.3,0.5,0.5c0-0.1,0-0.1-0.1-0.2
				c0,0.5,0,1,0,1.5c0,0.9,0,1.8,0,2.8c0,1.4,0,2.9,0,4.3c0,1.8,0,3.5,0,5.3c0,1.9,0,3.8,0,5.8c0,1.9,0,3.8,0,5.7c0,1.7,0,3.4,0,5.1
				c0,1.3,0,2.6,0,3.9c0,0.7,0,1.5,0,2.2c0,0.1,0,0.2,0,0.3c0,1.3-0.9,2.4-2,2.8c-0.3,0.1-0.6,0.2-0.9,0.3c0.2,0.1,0.3,0.3,0.5,0.4
				c0-0.6,0-1.2,0-1.9c0-1.6,0-3.2,0-4.8c0-2.2,0-4.5,0-6.7c0-2.5,0-5,0-7.5c0-2.4,0-4.8,0-7.2c0-2,0-3.9,0-5.8c0-1.1,0-2.2,0-3.4
				c0-0.3,0-0.6-0.1-0.9c-0.3-0.5-1.1-0.4-1.6-0.4c-2,0-4.1,0-6.1,0c-1.8,0-3.6,0-5.4,0c-0.1,0-0.2,0-0.3,0c0.1,0.1,0.3,0.3,0.4,0.4
				c0-1.1,0-2.1,0-3.2C27.6,0.4,26.8,0.4,26.8,0.9z"/>
			<path class="st2" d="M40.3,41.9c-0.4,0-0.8,0-1.2,0c-1.1,0-2.2,0-3.3,0c-1.6,0-3.2,0-4.7,0c-1.9,0-3.7,0-5.6,0
				c-1.9,0-3.9,0-5.8,0c-1.8,0-3.6,0-5.5,0c-1.5,0-3,0-4.5,0c-1,0-1.9,0-2.9,0c-0.8,0-1.6,0-2.4-0.3c-1.2-0.4-2.2-1.3-2.8-2.4
				C1.2,38.7,1,38,0.9,37.3c-0.1-0.5-0.1-0.9-0.1-1.4c0-0.4,0-0.7,0-1.1c-0.1,0.1-0.3,0.3-0.4,0.4c0.4,0,0.7,0,1.1,0
				c1,0,1.9,0,2.9,0c1.4,0,2.9,0,4.3,0c1.7,0,3.5,0,5.2,0c1.9,0,3.8,0,5.7,0c1.9,0,3.9,0,5.8,0c1.8,0,3.6,0,5.4,0c1.5,0,3,0,4.6,0
				c1.1,0,2.2,0,3.3,0c0.5,0,1,0,1.6,0c0,0,0,0,0.1,0c-0.1-0.1-0.3-0.3-0.4-0.4c0,2.2,0,4.4,0,6.6c0,0.3,0,0.6,0,0.9
				c0,0.5,0.8,0.5,0.8,0c0-2.2,0-4.4,0-6.6c0-0.3,0-0.6,0-0.9c0-0.2-0.2-0.4-0.4-0.4c-0.4,0-0.7,0-1.1,0c-1,0-1.9,0-2.9,0
				c-1.4,0-2.9,0-4.3,0c-1.7,0-3.5,0-5.2,0c-1.9,0-3.8,0-5.7,0c-1.9,0-3.9,0-5.8,0c-1.8,0-3.6,0-5.4,0c-1.5,0-3,0-4.6,0
				c-1.1,0-2.2,0-3.3,0c-0.5,0-1,0-1.6,0c0,0,0,0-0.1,0c-0.2,0-0.4,0.2-0.4,0.4c0,0.9,0,1.8,0.1,2.7C0.3,38.9,1,40.2,2,41.2
				c1,1,2.3,1.5,3.7,1.6c0.2,0,0.4,0,0.5,0c0.8,0,1.5,0,2.3,0c1.4,0,2.7,0,4.1,0c1.8,0,3.5,0,5.3,0c2,0,3.9,0,5.9,0
				c1.9,0,3.8,0,5.7,0c1.7,0,3.4,0,5.1,0c1.3,0,2.5,0,3.8,0c0.6,0,1.2,0,1.8,0c0,0,0.1,0,0.1,0C40.8,42.8,40.8,41.9,40.3,41.9z"/>
			<path class="st2" d="M11.1,42.3c0,0.6,0,1.2,0,1.7c0.1-0.1,0.3-0.3,0.4-0.4c-1.2,0-2.4,0-3.5,0c-0.2,0-0.3,0-0.5,0
				c0.1,0.1,0.3,0.3,0.4,0.4c0-0.6,0-1.2,0-1.7c-0.1,0.1-0.3,0.3-0.4,0.4c1.2,0,2.4,0,3.5,0c0.2,0,0.3,0,0.5,0c0.5,0,0.5-0.8,0-0.8
				c-1.2,0-2.4,0-3.5,0c-0.2,0-0.3,0-0.5,0c-0.2,0-0.4,0.2-0.4,0.4c0,0.6,0,1.2,0,1.7c0,0.2,0.2,0.4,0.4,0.4c1.2,0,2.4,0,3.5,0
				c0.2,0,0.3,0,0.5,0c0.2,0,0.4-0.2,0.4-0.4c0-0.6,0-1.2,0-1.7C11.9,41.8,11.1,41.8,11.1,42.3z"/>
			<path class="st2" d="M37,42.3c0,0.6,0,1.2,0,1.7c0.1-0.1,0.3-0.3,0.4-0.4c-1.2,0-2.4,0-3.5,0c-0.2,0-0.3,0-0.5,0
				c0.1,0.1,0.3,0.3,0.4,0.4c0-0.6,0-1.2,0-1.7c-0.1,0.1-0.3,0.3-0.4,0.4c1.2,0,2.4,0,3.5,0c0.2,0,0.3,0,0.5,0c0.5,0,0.5-0.8,0-0.8
				c-1.2,0-2.4,0-3.5,0c-0.2,0-0.3,0-0.5,0c-0.2,0-0.4,0.2-0.4,0.4c0,0.6,0,1.2,0,1.7c0,0.2,0.2,0.4,0.4,0.4c1.2,0,2.4,0,3.5,0
				c0.2,0,0.3,0,0.5,0c0.2,0,0.4-0.2,0.4-0.4c0-0.6,0-1.2,0-1.7C37.8,41.8,37,41.8,37,42.3z"/>
			<path class="st1" d="M26.7,16.8H15.3c-0.3,0-0.5-0.3-0.5-0.6V1.5c0-0.3,0.2-0.6,0.5-0.6h11.4c0.3,0,0.5,0.3,0.5,0.6v14.7
				C27.2,16.5,27,16.8,26.7,16.8z"/>
			<path class="st2" d="M26.7,16.3c-1.6,0-3.1,0-4.7,0c-2.1,0-4.2,0-6.3,0c-0.1,0-0.3,0-0.4,0c-0.2,0-0.1-0.2-0.1-0.3
				c0-0.7,0-1.4,0-2.1c0-2.5,0-5,0-7.5c0-1.1,0-2.2,0-3.3c0-0.5,0-1.1,0-1.6c0-0.2,0.1-0.2,0.2-0.2c0.3,0,0.5,0,0.8,0c1,0,2,0,3,0
				c2.2,0,4.5,0,6.7,0c0.3,0,0.5,0,0.8,0c0.1,0,0.2,0,0.3,0.2c0,0.2,0,0.3,0,0.5c0,0.3,0,0.7,0,1c0,2.4,0,4.8,0,7.3
				c0,1.9,0,3.8,0,5.7C26.8,16.1,26.9,16.3,26.7,16.3c-0.5,0-0.5,0.9,0,0.8c0.6,0,0.9-0.5,0.9-1.1c0-0.2,0-0.5,0-0.7c0-1,0-2,0-2.9
				c0-2.6,0-5.2,0-7.8c0-0.9,0-1.7,0-2.6c0-0.2,0-0.3,0-0.5c0-0.6-0.4-1-1-1c-1.8,0-3.7,0-5.6,0c-1.9,0-3.8,0-5.7,0
				c-0.6,0-1,0.4-1,1c0,0.1,0,0.3,0,0.4c0,0.8,0,1.7,0,2.5c0,2.6,0,5.2,0,7.8c0,1,0,2,0,3c0,0.6-0.1,1.5,0.5,1.8
				c0.2,0.1,0.5,0.1,0.7,0.1c0.3,0,0.7,0,1,0c1.1,0,2.2,0,3.3,0c2.1,0,4.3,0,6.4,0c0.1,0,0.3,0,0.4,0C27.2,17.2,27.2,16.3,26.7,16.3
				z"/>
			<path class="st1" d="M19,5.7h-2c-0.3,0-0.5-0.3-0.5-0.6v-2c0-0.3,0.2-0.6,0.5-0.6h2c0.3,0,0.5,0.3,0.5,0.6v2
				C19.5,5.5,19.3,5.7,19,5.7z"/>
			<path class="st0" d="M19,5.3c-0.6,0-1.3,0-1.9,0c-0.1,0-0.2,0-0.2,0c-0.1-0.1-0.1-0.2-0.1-0.2c0-0.4,0-0.8,0-1.2
				c0-0.2,0-0.3,0-0.5c0-0.1,0-0.2,0.1-0.2c0.1,0,0.1,0,0.2,0c0.2,0,0.3,0,0.5,0c0.4,0,0.8,0,1.2,0c0.2,0,0.4,0,0.4,0.2
				c0,0.4,0,0.8,0,1.3c0,0.2,0,0.4,0,0.6C19.1,5.2,19.1,5.3,19,5.3c-0.5,0-0.5,0.9,0,0.8c0.4,0,0.8-0.3,0.9-0.7c0-0.2,0-0.3,0-0.5
				c0-0.5,0-1,0-1.5c0-0.1,0-0.3,0-0.4c0-0.4-0.3-0.8-0.7-0.8c-0.3-0.1-0.7,0-1.1,0c-0.4,0-0.8,0-1.2,0c-0.6,0-0.9,0.5-0.9,1.1
				c0,0.5,0,0.9,0,1.4c0,0.5,0,1,0.5,1.3c0.4,0.2,0.9,0.1,1.3,0.1c0.4,0,0.8,0,1.2,0C19.5,6.2,19.5,5.3,19,5.3z"/>
			<path class="st1" d="M19,8.8h-2c-0.3,0-0.5-0.3-0.5-0.6v-2c0-0.3,0.2-0.6,0.5-0.6h2c0.3,0,0.5,0.3,0.5,0.6v2
				C19.5,8.6,19.3,8.8,19,8.8z"/>
			<path class="st0" d="M19,8.4c-0.6,0-1.3,0-1.9,0c-0.1,0-0.2,0-0.2,0c-0.1-0.1-0.1-0.2-0.1-0.2c0-0.4,0-0.8,0-1.2
				c0-0.2,0-0.3,0-0.5c0-0.1,0-0.2,0.1-0.2c0.1,0,0.1,0,0.2,0c0.2,0,0.3,0,0.5,0c0.4,0,0.8,0,1.2,0c0.2,0,0.4,0,0.4,0.2
				c0,0.4,0,0.8,0,1.3c0,0.2,0,0.4,0,0.6C19.1,8.3,19.1,8.4,19,8.4c-0.5,0-0.5,0.9,0,0.8c0.4,0,0.8-0.3,0.9-0.7c0-0.2,0-0.3,0-0.5
				c0-0.5,0-1,0-1.5c0-0.1,0-0.3,0-0.4c0-0.4-0.3-0.8-0.7-0.8c-0.3-0.1-0.7,0-1.1,0c-0.4,0-0.8,0-1.2,0c-0.6,0-0.9,0.5-0.9,1.1
				c0,0.5,0,0.9,0,1.4c0,0.5,0,1,0.5,1.3c0.4,0.2,0.9,0.1,1.3,0.1c0.4,0,0.8,0,1.2,0C19.5,9.3,19.5,8.4,19,8.4z"/>
			<path class="st1" d="M22.1,5.7h-2c-0.3,0-0.5-0.3-0.5-0.6v-2c0-0.3,0.2-0.6,0.5-0.6h2c0.3,0,0.5,0.3,0.5,0.6v2
				C22.7,5.5,22.4,5.7,22.1,5.7z"/>
			<path class="st0" d="M22.1,5.3c-0.6,0-1.3,0-1.9,0c-0.1,0-0.2,0-0.2,0c-0.1-0.1-0.1-0.2-0.1-0.2c0-0.4,0-0.8,0-1.2
				c0-0.2,0-0.3,0-0.5c0-0.1,0-0.2,0.1-0.2c0.1,0,0.1,0,0.2,0c0.2,0,0.3,0,0.5,0c0.4,0,0.8,0,1.2,0c0.2,0,0.4,0,0.4,0.2
				c0,0.4,0,0.8,0,1.3c0,0.2,0,0.4,0,0.6C22.3,5.2,22.2,5.3,22.1,5.3c-0.5,0-0.5,0.9,0,0.8c0.4,0,0.8-0.3,0.9-0.7c0-0.2,0-0.3,0-0.5
				c0-0.5,0-1,0-1.5c0-0.1,0-0.3,0-0.4c0-0.4-0.3-0.8-0.7-0.8c-0.3-0.1-0.7,0-1.1,0c-0.4,0-0.8,0-1.2,0c-0.6,0-0.9,0.5-0.9,1.1
				c0,0.5,0,0.9,0,1.4c0,0.5,0,1,0.5,1.3c0.4,0.2,0.9,0.1,1.3,0.1c0.4,0,0.8,0,1.2,0C22.6,6.2,22.6,5.3,22.1,5.3z"/>
			<path class="st1" d="M22.1,8.8h-2c-0.3,0-0.5-0.3-0.5-0.6v-2c0-0.3,0.2-0.6,0.5-0.6h2c0.3,0,0.5,0.3,0.5,0.6v2
				C22.7,8.6,22.4,8.8,22.1,8.8z"/>
			<path class="st0" d="M22.1,8.4c-0.6,0-1.3,0-1.9,0c-0.1,0-0.2,0-0.2,0c-0.1-0.1-0.1-0.2-0.1-0.2c0-0.4,0-0.8,0-1.2
				c0-0.2,0-0.3,0-0.5c0-0.1,0-0.2,0.1-0.2c0.1,0,0.1,0,0.2,0c0.2,0,0.3,0,0.5,0c0.4,0,0.8,0,1.2,0c0.2,0,0.4,0,0.4,0.2
				c0,0.4,0,0.8,0,1.3c0,0.2,0,0.4,0,0.6C22.3,8.3,22.2,8.4,22.1,8.4c-0.5,0-0.5,0.9,0,0.8c0.4,0,0.8-0.3,0.9-0.7c0-0.2,0-0.3,0-0.5
				c0-0.5,0-1,0-1.5c0-0.1,0-0.3,0-0.4c0-0.4-0.3-0.8-0.7-0.8c-0.3-0.1-0.7,0-1.1,0c-0.4,0-0.8,0-1.2,0c-0.6,0-0.9,0.5-0.9,1.1
				c0,0.5,0,0.9,0,1.4c0,0.5,0,1,0.5,1.3c0.4,0.2,0.9,0.1,1.3,0.1c0.4,0,0.8,0,1.2,0C22.6,9.3,22.6,8.4,22.1,8.4z"/>
			<path class="st1" d="M25.2,5.7h-2c-0.3,0-0.5-0.3-0.5-0.6v-2c0-0.3,0.2-0.6,0.5-0.6h2c0.3,0,0.5,0.3,0.5,0.6v2
				C25.8,5.5,25.5,5.7,25.2,5.7z"/>
			<path class="st0" d="M25.2,5.3c-0.6,0-1.3,0-1.9,0c-0.1,0-0.2,0-0.2,0C23,5.3,23,5.1,23,5.1c0-0.4,0-0.8,0-1.2c0-0.2,0-0.3,0-0.5
				c0-0.1,0-0.2,0.1-0.2c0.1,0,0.1,0,0.2,0c0.2,0,0.3,0,0.5,0c0.4,0,0.8,0,1.2,0c0.2,0,0.4,0,0.4,0.2c0,0.4,0,0.8,0,1.3
				c0,0.2,0,0.4,0,0.6C25.4,5.2,25.4,5.3,25.2,5.3c-0.5,0-0.5,0.9,0,0.8c0.4,0,0.8-0.3,0.9-0.7c0-0.2,0-0.3,0-0.5c0-0.5,0-1,0-1.5
				c0-0.1,0-0.3,0-0.4c0-0.4-0.3-0.8-0.7-0.8c-0.3-0.1-0.7,0-1.1,0c-0.4,0-0.8,0-1.2,0c-0.6,0-0.9,0.5-0.9,1.1c0,0.5,0,0.9,0,1.4
				c0,0.5,0,1,0.5,1.3c0.4,0.2,0.9,0.1,1.3,0.1c0.4,0,0.8,0,1.2,0C25.7,6.2,25.7,5.3,25.2,5.3z"/>
			<path class="st1" d="M25.2,8.8h-2c-0.3,0-0.5-0.3-0.5-0.6v-2c0-0.3,0.2-0.6,0.5-0.6h2c0.3,0,0.5,0.3,0.5,0.6v2
				C25.8,8.6,25.5,8.8,25.2,8.8z"/>
			<path class="st0" d="M25.2,8.4c-0.6,0-1.3,0-1.9,0c-0.1,0-0.2,0-0.2,0C23,8.4,23,8.3,23,8.2c0-0.4,0-0.8,0-1.2c0-0.2,0-0.3,0-0.5
				c0-0.1,0-0.2,0.1-0.2c0.1,0,0.1,0,0.2,0c0.2,0,0.3,0,0.5,0c0.4,0,0.8,0,1.2,0c0.2,0,0.4,0,0.4,0.2c0,0.4,0,0.8,0,1.3
				c0,0.2,0,0.4,0,0.6C25.4,8.3,25.4,8.4,25.2,8.4c-0.5,0-0.5,0.9,0,0.8c0.4,0,0.8-0.3,0.9-0.7c0-0.2,0-0.3,0-0.5c0-0.5,0-1,0-1.5
				c0-0.1,0-0.3,0-0.4c0-0.4-0.3-0.8-0.7-0.8c-0.3-0.1-0.7,0-1.1,0c-0.4,0-0.8,0-1.2,0c-0.6,0-0.9,0.5-0.9,1.1c0,0.5,0,0.9,0,1.4
				c0,0.5,0,1,0.5,1.3c0.4,0.2,0.9,0.1,1.3,0.1c0.4,0,0.8,0,1.2,0C25.7,9.3,25.7,8.4,25.2,8.4z"/>
			<path class="st1" d="M19,11.9h-2c-0.3,0-0.5-0.3-0.5-0.6v-2c0-0.3,0.2-0.6,0.5-0.6h2c0.3,0,0.5,0.3,0.5,0.6v2
				C19.5,11.7,19.3,11.9,19,11.9z"/>
			<path class="st0" d="M19,11.5c-0.6,0-1.3,0-1.9,0c-0.1,0-0.2,0-0.2,0c-0.1-0.1-0.1-0.2-0.1-0.2c0-0.4,0-0.8,0-1.2
				c0-0.2,0-0.3,0-0.5c0-0.1,0-0.2,0.1-0.2c0.1,0,0.1,0,0.2,0c0.2,0,0.3,0,0.5,0c0.4,0,0.8,0,1.2,0c0.2,0,0.4,0,0.4,0.2
				c0,0.4,0,0.8,0,1.3c0,0.2,0,0.4,0,0.6C19.1,11.4,19.1,11.5,19,11.5c-0.5,0-0.5,0.9,0,0.8c0.4,0,0.8-0.3,0.9-0.7
				c0-0.2,0-0.3,0-0.5c0-0.5,0-1,0-1.5c0-0.1,0-0.3,0-0.4c0-0.4-0.3-0.8-0.7-0.8c-0.3-0.1-0.7,0-1.1,0c-0.4,0-0.8,0-1.2,0
				c-0.6,0-0.9,0.5-0.9,1.1c0,0.5,0,0.9,0,1.4c0,0.5,0,1,0.5,1.3c0.4,0.2,0.9,0.1,1.3,0.1c0.4,0,0.8,0,1.2,0
				C19.5,12.4,19.5,11.5,19,11.5z"/>
			<path class="st1" d="M22.1,11.9h-2c-0.3,0-0.5-0.3-0.5-0.6v-2c0-0.3,0.2-0.6,0.5-0.6h2c0.3,0,0.5,0.3,0.5,0.6v2
				C22.6,11.7,22.4,11.9,22.1,11.9z"/>
			<path class="st0" d="M22.1,11.5c-0.6,0-1.3,0-1.9,0c-0.1,0-0.2,0-0.2,0c-0.1-0.1-0.1-0.2-0.1-0.2c0-0.4,0-0.8,0-1.2
				c0-0.2,0-0.3,0-0.5c0-0.1,0-0.2,0.1-0.2c0.1,0,0.1,0,0.2,0c0.2,0,0.3,0,0.5,0c0.4,0,0.8,0,1.2,0c0.2,0,0.4,0,0.4,0.2
				c0,0.4,0,0.8,0,1.3c0,0.2,0,0.4,0,0.6C22.2,11.4,22.2,11.5,22.1,11.5c-0.5,0-0.5,0.9,0,0.8c0.4,0,0.8-0.3,0.9-0.7
				c0-0.2,0-0.3,0-0.5c0-0.5,0-1,0-1.5c0-0.1,0-0.3,0-0.4c0-0.4-0.3-0.8-0.7-0.8c-0.3-0.1-0.7,0-1.1,0c-0.4,0-0.8,0-1.2,0
				c-0.6,0-0.9,0.5-0.9,1.1c0,0.5,0,0.9,0,1.4c0,0.5,0,1,0.5,1.3c0.4,0.2,0.9,0.1,1.3,0.1c0.4,0,0.8,0,1.2,0
				C22.6,12.4,22.6,11.5,22.1,11.5z"/>
			<path class="st1" d="M25.2,11.9h-2c-0.3,0-0.5-0.3-0.5-0.6v-2c0-0.3,0.2-0.6,0.5-0.6h2c0.3,0,0.5,0.3,0.5,0.6v2
				C25.7,11.7,25.5,11.9,25.2,11.9z"/>
			<path class="st0" d="M25.2,11.5c-0.6,0-1.3,0-1.9,0c-0.1,0-0.2,0-0.2,0C23,11.5,23,11.4,23,11.3c0-0.4,0-0.8,0-1.2
				c0-0.2,0-0.3,0-0.5c0-0.1,0-0.2,0.1-0.2c0.1,0,0.1,0,0.2,0c0.2,0,0.3,0,0.5,0c0.4,0,0.8,0,1.2,0c0.2,0,0.4,0,0.4,0.2
				c0,0.4,0,0.8,0,1.3c0,0.2,0,0.4,0,0.6C25.3,11.4,25.3,11.5,25.2,11.5c-0.5,0-0.5,0.9,0,0.8c0.4,0,0.8-0.3,0.9-0.7
				c0-0.2,0-0.3,0-0.5c0-0.5,0-1,0-1.5c0-0.1,0-0.3,0-0.4c0-0.4-0.3-0.8-0.7-0.8c-0.3-0.1-0.7,0-1.1,0c-0.4,0-0.8,0-1.2,0
				c-0.6,0-0.9,0.5-0.9,1.1c0,0.5,0,0.9,0,1.4c0,0.5,0,1,0.5,1.3c0.4,0.2,0.9,0.1,1.3,0.1c0.4,0,0.8,0,1.2,0
				C25.7,12.4,25.7,11.5,25.2,11.5z"/>
			<path class="st1" d="M19,15.1h-2c-0.3,0-0.5-0.3-0.5-0.6v-2c0-0.3,0.2-0.6,0.5-0.6h2c0.3,0,0.5,0.3,0.5,0.6v2
				C19.6,14.8,19.3,15.1,19,15.1z"/>
			<path class="st0" d="M19,14.6c-0.6,0-1.3,0-1.9,0c-0.1,0-0.2,0-0.2,0c-0.1-0.1-0.1-0.2-0.1-0.2c0-0.4,0-0.8,0-1.2
				c0-0.2,0-0.3,0-0.5c0-0.1,0-0.2,0.1-0.2c0.1,0,0.1,0,0.2,0c0.2,0,0.3,0,0.5,0c0.4,0,0.8,0,1.2,0c0.2,0,0.4,0,0.4,0.2
				c0,0.4,0,0.8,0,1.3c0,0.2,0,0.4,0,0.6C19.2,14.5,19.2,14.6,19,14.6c-0.5,0-0.5,0.9,0,0.8c0.4,0,0.8-0.3,0.9-0.7
				c0-0.2,0-0.3,0-0.5c0-0.5,0-1,0-1.5c0-0.1,0-0.3,0-0.4c0-0.4-0.3-0.8-0.7-0.8c-0.3-0.1-0.7,0-1.1,0c-0.4,0-0.8,0-1.2,0
				c-0.6,0-0.9,0.5-0.9,1.1c0,0.5,0,0.9,0,1.4c0,0.5,0,1,0.5,1.3c0.4,0.2,0.9,0.1,1.3,0.1c0.4,0,0.8,0,1.2,0
				C19.5,15.5,19.5,14.6,19,14.6z"/>
			<path class="st1" d="M22.1,15.1h-2c-0.3,0-0.5-0.3-0.5-0.6v-2c0-0.3,0.2-0.6,0.5-0.6h2c0.3,0,0.5,0.3,0.5,0.6v2
				C22.7,14.8,22.4,15.1,22.1,15.1z"/>
			<path class="st0" d="M22.1,14.6c-0.6,0-1.3,0-1.9,0c-0.1,0-0.2,0-0.2,0c-0.1-0.1-0.1-0.2-0.1-0.2c0-0.4,0-0.8,0-1.2
				c0-0.2,0-0.3,0-0.5c0-0.1,0-0.2,0.1-0.2c0.1,0,0.1,0,0.2,0c0.2,0,0.3,0,0.5,0c0.4,0,0.8,0,1.2,0c0.2,0,0.4,0,0.4,0.2
				c0,0.4,0,0.8,0,1.3c0,0.2,0,0.4,0,0.6C22.3,14.5,22.3,14.6,22.1,14.6c-0.5,0-0.5,0.9,0,0.8c0.4,0,0.8-0.3,0.9-0.7
				c0-0.2,0-0.3,0-0.5c0-0.5,0-1,0-1.5c0-0.1,0-0.3,0-0.4c0-0.4-0.3-0.8-0.7-0.8c-0.3-0.1-0.7,0-1.1,0c-0.4,0-0.8,0-1.2,0
				c-0.6,0-0.9,0.5-0.9,1.1c0,0.5,0,0.9,0,1.4c0,0.5,0,1,0.5,1.3c0.4,0.2,0.9,0.1,1.3,0.1c0.4,0,0.8,0,1.2,0
				C22.7,15.5,22.7,14.6,22.1,14.6z"/>
			<path class="st1" d="M25.2,15.1h-2c-0.3,0-0.5-0.3-0.5-0.6v-2c0-0.3,0.2-0.6,0.5-0.6h2c0.3,0,0.5,0.3,0.5,0.6v2
				C25.8,14.8,25.5,15.1,25.2,15.1z"/>
			<path class="st0" d="M25.2,14.6c-0.6,0-1.3,0-1.9,0c-0.1,0-0.2,0-0.2,0C23,14.6,23,14.5,23,14.4c0-0.4,0-0.8,0-1.2
				c0-0.2,0-0.3,0-0.5c0-0.1,0-0.2,0.1-0.2c0.1,0,0.1,0,0.2,0c0.2,0,0.3,0,0.5,0c0.4,0,0.8,0,1.2,0c0.2,0,0.4,0,0.4,0.2
				c0,0.4,0,0.8,0,1.3c0,0.2,0,0.4,0,0.6C25.4,14.5,25.4,14.6,25.2,14.6c-0.5,0-0.5,0.9,0,0.8c0.4,0,0.8-0.3,0.9-0.7
				c0-0.2,0-0.3,0-0.5c0-0.5,0-1,0-1.5c0-0.1,0-0.3,0-0.4c0-0.4-0.3-0.8-0.7-0.8c-0.3-0.1-0.7,0-1.1,0c-0.4,0-0.8,0-1.2,0
				c-0.6,0-0.9,0.5-0.9,1.1c0,0.5,0,0.9,0,1.4c0,0.5,0,1,0.5,1.3c0.4,0.2,0.9,0.1,1.3,0.1c0.4,0,0.8,0,1.2,0
				C25.7,15.5,25.7,14.6,25.2,14.6z"/>
			<path class="st3" d="M5,39c1.9,0,3.8,0,5.7,0c0.3,0,0.5,0,0.8,0c0.5,0,0.5-0.8,0-0.8c-1.9,0-3.8,0-5.7,0c-0.3,0-0.5,0-0.8,0
				C4.5,38.2,4.5,39,5,39z"/>
			<path class="st3" d="M13.8,39c1.1,0,2.2,0,3.3,0c0.5,0,0.5-0.8,0-0.8c-1.1,0-2.2,0-3.3,0C13.3,38.2,13.3,39,13.8,39z"/>
		</g>
	</g>
</g>
</svg>
