<?xml version="1.0" encoding="utf-8"?>
<!-- Generator: Adobe Illustrator 23.0.1, SVG Export Plug-In . SVG Version: 6.00 Build 0)  -->
<svg version="1.1" id="Слой_1" xmlns="http://www.w3.org/2000/svg" xmlns:xlink="http://www.w3.org/1999/xlink" x="0px" y="0px"
	 viewBox="0 0 23 23" style="enable-background:new 0 0 23 23;" xml:space="preserve">
<style type="text/css">
	.st0{fill:none;}
	.st1{fill:#071D49;}
	.st2{fill:#FFC400;}
	.st3{fill:#FFFFFF;}
</style>
<g>
	<path class="st0" d="M2.7,12l11.9-7.6l0,5.3L2.7,17.3L2.7,12z"/>
	<path class="st1" d="M7,14.2c-1,0.6-2,1.3-3,1.9c-0.3,0.2-0.7,0.4-1,0.6c-0.2,0.1-0.3,0.2-0.5,0.3c0,0,0,0,0,0
		c0.1,0.1,0.2,0.1,0.3,0.2c0-0.6,0-1.2,0-1.8c0-0.9,0-1.9,0-2.8c0-0.2,0-0.4,0-0.7c0-0.3-0.4-0.3-0.4,0c0,0.6,0,1.2,0,1.8
		c0,0.9,0,1.9,0,2.8c0,0.2,0,0.4,0,0.7c0,0.2,0.2,0.3,0.3,0.2c0.2-0.1,0.4-0.2,0.6-0.4c0.5-0.3,1-0.6,1.5-0.9
		c0.7-0.4,1.4-0.9,2.1-1.3"/>
	<path class="st0" d="M2.7,17.3l11.9-7.6l4.5,2.9L7.2,20.1L2.7,17.3z"/>
	<path class="st1" d="M17,14.1c0.4-0.2,0.7-0.4,0.8-0.5c0.5-0.3,1-0.6,1.4-0.9c0,0,0,0,0,0c0.1-0.1,0.1-0.3,0-0.4
		c-0.5-0.3-1-0.6-1.5-1c-0.8-0.5-1.6-1-2.4-1.5l-0.3,0.3c0.4,0.2,0.7,0.5,1.1,0.7c0.8,0.5,1.6,1,2.4,1.5c0.2,0.1,0.4,0.2,0.6,0.4
		c0-0.1,0-0.2,0-0.4c-0.4,0.3-0.8,0.5-1.2,0.8c-0.2,0.1-0.7,0.4-1.2,0.8"/>
	<path class="st1" d="M10.9,17.5c-0.8,0.5-1.5,1-2.3,1.5c-0.3,0.2-0.7,0.4-1,0.6c-0.2,0.1-0.3,0.2-0.5,0.3c0,0,0,0,0,0
		c0.1,0,0.1,0,0.2,0c-0.5-0.3-1-0.6-1.5-1c-0.8-0.5-1.6-1-2.4-1.5c-0.2-0.1-0.4-0.2-0.6-0.4c-0.2-0.1-0.4,0.2-0.2,0.4
		c0.5,0.3,1,0.6,1.5,1c0.8,0.5,1.6,1,2.4,1.5c0.2,0.1,0.4,0.2,0.6,0.4c0.1,0,0.1,0,0.2,0c0.4-0.3,0.8-0.5,1.2-0.8
		c0.9-0.6,1.8-1.2,2.8-1.8"/>
	<path class="st1" d="M6.5,14.6c-0.8,0.5-1.6,1.1-2.5,1.6c-0.5,0.3-1,0.6-1.4,0.9c0,0,0,0,0,0c-0.2,0.1,0,0.5,0.2,0.4
		C3.2,17.2,3.6,17,4,16.7c1-0.6,1.9-1.2,2.8-1.8"/>
	<path class="st0" d="M8.6,21l11.9-7.6l0,1.3L8.6,22.3L8.6,21z"/>
	<path class="st1" d="M19.4,15.6c0.2-0.1,0.3-0.2,0.5-0.3c0.2-0.1,0.4-0.3,0.7-0.4c0.1-0.1,0.2-0.1,0.2-0.2c0-0.3,0-0.6,0-1
		c0-0.1,0-0.2,0-0.3c0-0.2-0.2-0.3-0.3-0.2c-0.4,0.3-0.8,0.5-1.2,0.8c-0.4,0.3-0.8,0.5-1.2,0.8l0.4,0.2c0.2-0.2,0.5-0.3,0.7-0.5
		c0.3-0.2,0.7-0.4,1-0.6c0.2-0.1,0.3-0.2,0.5-0.3c0,0,0,0,0,0c-0.1-0.1-0.2-0.1-0.3-0.2c0,0.4,0,0.8,0,1.3c0-0.1,0.1-0.1,0.1-0.2
		c-0.4,0.3-0.8,0.5-1.2,0.8c-0.1,0-0.1,0.1-0.2,0.1L19.4,15.6z"/>
	<path class="st1" d="M13.3,19c-0.1,0.1-0.3,0.2-0.4,0.2c-1,0.6-2,1.3-3,1.9c-0.3,0.2-0.7,0.4-1,0.6c-0.2,0.1-0.3,0.2-0.5,0.3
		c0,0,0,0,0,0c0.1,0.1,0.2,0.1,0.3,0.2c0-0.4,0-0.8,0-1.3c0-0.3-0.4-0.3-0.4,0c0,0.4,0,0.8,0,1.3c0,0.2,0.2,0.3,0.3,0.2
		s0.3-0.2,0.4-0.2c0.3-0.2,0.7-0.4,1-0.6c0.5-0.3,1-0.6,1.5-0.9c0.6-0.4,1.2-0.8,1.8-1.1c0.1-0.1,0.3-0.2,0.4-0.2"/>
	<path class="st1" d="M12.3,18.3c-0.8,0.5-1.6,1-2.4,1.5c-0.5,0.3-1,0.6-1.4,0.9c0,0,0,0,0,0c-0.2,0.1,0,0.5,0.2,0.4
		c0.4-0.3,0.8-0.5,1.2-0.8c0.5-0.3,1.6-1,2.9-1.8"/>
	<path class="st0" d="M8.6,21l11.9-7.6l0,1.3L8.6,22.3L8.6,21z"/>
	<path class="st0" d="M7.2,20.1l11.9-7.6l1.4,0.9L8.6,21L7.2,20.1z"/>
	<path class="st1" d="M12.2,18.3c-1.2,0.7-2.1,1.3-2.4,1.5c-0.3,0.2-0.7,0.4-1,0.6c-0.2,0.1-0.3,0.2-0.5,0.3c0,0,0,0,0,0
		c0.1,0,0.1,0,0.2,0c-0.5-0.3-0.9-0.6-1.4-0.9C7,19.8,6.8,20.1,7,20.3c0.5,0.3,0.9,0.6,1.4,0.9c0.1,0,0.1,0,0.2,0
		c0.4-0.3,0.8-0.5,1.2-0.8c0.3-0.2,1.5-0.9,2.9-1.8"/>
	<path class="st1" d="M18.3,14.9c0.4-0.3,0.7-0.4,0.7-0.5c0.5-0.3,1-0.6,1.4-0.9c0,0,0,0,0,0c0.1-0.1,0.1-0.3,0-0.4
		c-0.5-0.3-0.9-0.6-1.4-0.9c-0.1,0-0.1,0-0.2,0c-0.4,0.3-0.8,0.5-1.2,0.8c-0.4,0.3-0.8,0.5-1.2,0.8l0.4,0.3c0.3-0.2,0.5-0.3,0.8-0.5
		c0.3-0.2,0.7-0.4,1-0.6c0.2-0.1,0.3-0.2,0.5-0.3c0,0,0,0,0,0c-0.1,0-0.1,0-0.2,0c0.5,0.3,0.9,0.6,1.4,0.9c0-0.1,0-0.2,0-0.4
		c-0.4,0.3-0.8,0.5-1.2,0.8c-0.1,0.1-0.5,0.3-1.2,0.7L18.3,14.9z"/>
	<path class="st1" d="M10.9,17.4c-0.8,0.5-1.6,1-2.4,1.5c-0.5,0.3-1,0.6-1.4,0.9c0,0,0,0,0,0c-0.2,0.1,0,0.5,0.2,0.4
		C7.6,20,8,19.8,8.4,19.5c1-0.6,1.9-1.2,2.8-1.8"/>
	<path class="st0" d="M2.7,12l0,5.3l4.5,2.9L8.6,21l0,1.3l-1.4-0.9l-6.5-4.1l0-1.3l0-5.1L2.7,12z"/>
	<path class="st1" d="M2.5,12c0,0.6,0,1.2,0,1.8c0,0.9,0,1.9,0,2.8c0,0.2,0,0.4,0,0.7c0,0.1,0,0.1,0.1,0.2c0.8,0.5,1.6,1,2.3,1.5
		c0.7,0.5,1.5,0.9,2.2,1.4c0.4,0.3,0.9,0.6,1.3,0.9c0-0.1-0.1-0.1-0.1-0.2c0,0.4,0,0.8,0,1.3c0.1-0.1,0.2-0.1,0.3-0.2
		c-0.5-0.3-0.9-0.6-1.4-0.9c-0.4-0.2-0.7-0.5-1.1-0.7c-0.7-0.5-1.4-0.9-2.1-1.4c-0.7-0.5-1.4-0.9-2.1-1.4c-0.2-0.2-0.5-0.3-0.7-0.5
		c-0.1-0.1-0.2-0.2-0.4-0.2c0,0,0,0,0,0c0,0.1,0.1,0.1,0.1,0.2c0-0.7,0-1.3,0-2c0-1.2,0-2.3,0-3.5c0-0.3,0-0.6,0-0.9
		c-0.1,0.1-0.2,0.1-0.3,0.2c0.6,0.3,1.2,0.7,1.7,1c0.1,0,0.2,0.1,0.2,0.1c0.2,0.1,0.4-0.2,0.2-0.4c-0.6-0.3-1.2-0.7-1.7-1
		c-0.1,0-0.2-0.1-0.2-0.1c-0.1-0.1-0.3,0-0.3,0.2c0,0.8,0,1.6,0,2.5c0,0.9,0,1.8,0,2.7c0,0.4,0,0.9,0,1.3c0,0.1,0,0.1,0.1,0.2
		c0.3,0.2,0.6,0.4,0.9,0.6c0.7,0.4,1.4,0.9,2.1,1.3c0.7,0.5,1.5,0.9,2.2,1.4C6.2,21,6.6,21.3,7,21.6c0.4,0.3,0.9,0.6,1.3,0.8
		c0,0,0,0,0.1,0c0.1,0.1,0.3,0,0.3-0.2c0-0.4,0-0.8,0-1.3c0-0.1,0-0.1-0.1-0.2C8,20.4,7.4,20,6.8,19.6c-1-0.7-2.1-1.3-3.1-2
		c-0.3-0.2-0.6-0.4-0.9-0.6c0,0.1,0.1,0.1,0.1,0.2c0-0.6,0-1.2,0-1.8c0-0.9,0-1.9,0-2.8c0-0.2,0-0.4,0-0.7C2.9,11.7,2.5,11.7,2.5,12
		z"/>
	<path class="st0" d="M16.7,14.9c1.4,0.9,1.5,2.2,0.4,2.9c-1.2,0.7-3.2,0.6-4.6-0.2c-1.4-0.9-1.5-2.2-0.4-2.9
		C13.3,13.9,15.4,14,16.7,14.9z M13.6,17.2l0.2,0.1l0.6,0.2l0.3-0.4L14.2,17l-0.6-0.4l0-0.1l0.1-0.1l0.1,0l1.5,0.4l0.4-0.1l0.5-0.3
		l0-0.5L16,15.7l0.2-0.1l-0.5-0.3l-0.2,0.1l-0.2-0.1l-0.6-0.2l-0.3,0.4l0.6,0.2l0.6,0.4v0.1l-0.1,0.1l-0.1,0l-1.5-0.4L13.4,16
		L13,16.2l0,0.5l0.2,0.1l-0.2,0.1l0.5,0.3L13.6,17.2z"/>
	<path class="st2" d="M16.7,15c0.4,0.3,0.9,0.7,1,1.2c0.1,0.4,0,0.9-0.3,1.2C17,17.8,16.5,18,16,18.1c-0.5,0.1-1.1,0.1-1.6,0
		c-0.6-0.1-1.1-0.3-1.6-0.5c-0.5-0.3-0.9-0.6-1.1-1.2c-0.2-0.4-0.1-0.9,0.2-1.2c0.3-0.4,0.8-0.6,1.3-0.7c1.1-0.3,2.3-0.1,3.2,0.4
		C16.4,14.9,16.6,14.9,16.7,15c0.1,0.1,0.3-0.2,0.1-0.2c-1-0.7-2.3-0.9-3.5-0.7c-0.9,0.2-2.2,0.8-2,2.1c0.1,0.6,0.5,1.1,1,1.4
		c0.5,0.4,1.1,0.6,1.7,0.8c0.6,0.1,1.2,0.2,1.8,0.1c0.5-0.1,1.1-0.2,1.6-0.6c0.4-0.3,0.7-0.8,0.7-1.3c0-0.6-0.4-1.1-0.8-1.4
		c-0.1-0.1-0.3-0.2-0.4-0.3C16.7,14.7,16.5,14.9,16.7,15z"/>
	<path class="st2" d="M13.6,17.4c0.1,0.1,0.2,0.1,0.4,0.2c0.2,0.1,0.3,0.1,0.5,0.2c0,0,0.1,0,0.1,0c0.1-0.1,0.2-0.3,0.3-0.4
		c0.1-0.1,0-0.2-0.1-0.2c-0.1,0-0.2-0.1-0.3-0.1c-0.1,0-0.1,0-0.2-0.1c0,0,0,0-0.1,0c0,0,0,0,0,0c-0.2-0.1-0.4-0.2-0.6-0.4
		c0,0,0,0.1,0.1,0.1c0,0,0-0.1,0-0.1c0,0,0,0.1-0.1,0.1c0,0,0.1,0,0.1,0c-0.1,0,0,0,0,0c0,0,0,0,0.1,0c0,0,0,0-0.1,0c0,0,0,0,0,0
		c0.1,0,0.2,0,0.3,0.1c0.3,0.1,0.6,0.1,0.9,0.2c0.1,0,0.2,0.1,0.3,0.1c0.1,0,0.1,0,0.2,0c0.1,0,0.2,0,0.3-0.1
		c0.1-0.1,0.2-0.1,0.3-0.2c0,0,0.1,0,0.1-0.1c0.1-0.1,0.1-0.1,0.1-0.2c0-0.2,0-0.3,0-0.5c0,0,0-0.1-0.1-0.1c-0.1,0-0.2-0.1-0.2-0.1
		c0,0.1,0,0.2,0,0.2c0.1,0,0.2-0.1,0.2-0.1c0.1-0.1,0.1-0.2,0-0.2c-0.2-0.1-0.3-0.2-0.5-0.3c0,0-0.1,0-0.1,0c-0.1,0-0.2,0.1-0.2,0.1
		c0,0,0.1,0,0.1,0c-0.1-0.1-0.2-0.1-0.4-0.2c-0.2-0.1-0.3-0.1-0.5-0.2c0,0-0.1,0-0.1,0c-0.1,0.1-0.2,0.3-0.3,0.4
		c-0.1,0.1,0,0.2,0.1,0.2c0.1,0,0.2,0.1,0.3,0.1c0.1,0,0.1,0,0.2,0.1c0,0,0,0,0.1,0c0,0,0,0,0,0c0.2,0.1,0.4,0.2,0.6,0.4
		c0,0,0-0.1-0.1-0.1c0,0,0,0.1,0,0.1c0,0,0-0.1,0.1-0.1c0,0-0.1,0-0.1,0c0.1,0,0,0,0,0c0,0,0,0-0.1,0c0,0,0,0,0.1,0c0,0,0,0,0,0
		c-0.1,0-0.2,0-0.3-0.1c-0.3-0.1-0.6-0.1-0.9-0.2c-0.1,0-0.2-0.1-0.3-0.1c-0.1,0-0.1,0-0.2,0c-0.1,0-0.2,0-0.3,0.1
		c-0.1,0.1-0.2,0.1-0.3,0.2c0,0-0.1,0-0.1,0.1c-0.1,0.1-0.1,0.1-0.1,0.2c0,0.2,0,0.3,0,0.5c0,0,0,0.1,0.1,0.1c0.1,0,0.2,0.1,0.2,0.1
		c0-0.1,0-0.2,0-0.2c-0.1,0-0.2,0.1-0.2,0.1c-0.1,0.1-0.1,0.2,0,0.2c0.2,0.1,0.3,0.2,0.5,0.3c0,0,0.1,0,0.1,0c0.1,0,0.2-0.1,0.2-0.1
		c0.1-0.1,0-0.3-0.1-0.2c-0.1,0-0.2,0.1-0.2,0.1c0,0,0.1,0,0.1,0c-0.2-0.1-0.3-0.2-0.5-0.3c0,0.1,0,0.2,0,0.2c0.1,0,0.2-0.1,0.2-0.1
		c0.1-0.1,0.1-0.2,0-0.2c-0.1,0-0.2-0.1-0.2-0.1c0,0,0,0.1,0.1,0.1c0-0.2,0-0.4,0-0.5c0,0,0,0.1-0.1,0.1c0.1-0.1,0.2-0.1,0.3-0.2
		c0,0,0.1-0.1,0.1-0.1c0,0,0,0,0,0c0,0,0,0,0,0c0.1,0,0.2,0,0.4-0.1c0.1,0-0.1,0,0,0c0,0,0.1,0,0.1,0c0.5,0.1,0.9,0.2,1.4,0.4
		c0.1,0,0.2,0,0.3,0c0.1,0,0.1-0.1,0.2-0.1c0-0.1,0-0.2,0-0.2c0,0,0-0.1-0.1-0.1c-0.2-0.1-0.4-0.3-0.6-0.4c-0.1,0-0.2-0.1-0.3-0.1
		c-0.1,0-0.2-0.1-0.3-0.1c0,0.1,0,0.2,0.1,0.2c0.1-0.1,0.2-0.3,0.3-0.4c0,0-0.1,0-0.1,0c0.2,0,0.3,0.1,0.5,0.1c0.1,0,0.1,0,0.2,0.1
		c-0.1,0,0,0,0,0c0,0,0,0,0.1,0c0,0,0.1,0,0.1,0.1c0,0,0.1,0,0.1,0c0.1,0,0.2-0.1,0.2-0.1c0,0-0.1,0-0.1,0c0.2,0.1,0.3,0.2,0.5,0.3
		c0-0.1,0-0.2,0-0.2c-0.1,0-0.2,0.1-0.2,0.1c-0.1,0.1-0.1,0.2,0,0.2c0.1,0,0.2,0.1,0.2,0.1c0,0,0-0.1-0.1-0.1c0,0.2,0,0.4,0,0.5
		c0,0,0-0.1,0.1-0.1c-0.1,0.1-0.2,0.1-0.3,0.2c0,0-0.1,0.1-0.1,0.1c0,0,0,0,0,0c0,0,0,0,0,0c-0.1,0-0.2,0-0.4,0.1c-0.1,0,0.1,0,0,0
		c0,0-0.1,0-0.1,0c-0.5-0.1-0.9-0.2-1.4-0.3c-0.1,0-0.2,0-0.2,0c-0.1,0-0.1,0.1-0.2,0.1c0,0.1,0,0.2,0,0.2c0,0,0,0.1,0.1,0.1
		c0.2,0.1,0.4,0.3,0.6,0.4c0.1,0,0.2,0.1,0.3,0.1c0.1,0,0.2,0.1,0.3,0.1c0-0.1,0-0.2-0.1-0.2c-0.1,0.1-0.2,0.3-0.3,0.4
		c0,0,0.1,0,0.1,0c-0.2,0-0.3-0.1-0.5-0.1c-0.1,0-0.1,0-0.2-0.1c0.1,0,0,0,0,0c0,0,0,0-0.1,0c0,0-0.1,0-0.1-0.1
		C13.6,17,13.4,17.3,13.6,17.4z"/>
	<path class="st0" d="M22.4,17.6l-5.6,3.6l-9.8-6.3l5.6-3.6L22.4,17.6z M15.8,19.9c0.6-0.4,1.5-0.4,2-0.1l2.6-1.6
		c-0.5-0.3-0.5-0.9,0.1-1.3l-6.9-4.4c-0.6,0.4-1.5,0.4-2,0.1c0,0,0,0-0.1,0l-2.6,1.6c0,0,0.1,0,0.1,0c0.5,0.3,0.5,0.9-0.1,1.3
		L15.8,19.9z"/>
	<path class="st2" d="M12.6,11.5c0.3,0.2,0.6,0.4,0.8,0.5c0.8,0.5,1.6,1,2.3,1.5c0.9,0.6,1.9,1.2,2.8,1.8c0.8,0.5,1.6,1,2.4,1.6
		c0.4,0.3,0.8,0.5,1.2,0.8c0,0,0,0,0,0c0.1,0.1,0.3-0.2,0.1-0.2c-0.3-0.2-0.7-0.4-1-0.6c-0.8-0.5-1.6-1-2.3-1.5
		c-0.9-0.6-1.9-1.2-2.8-1.8c-0.8-0.5-1.6-1-2.4-1.6c-0.3-0.2-0.7-0.4-1-0.7"/>
	<path class="st2" d="M7.1,14.6c-0.1,0-0.2,0.1-0.2,0.1c-0.1,0.1-0.1,0.2,0,0.2c0.3,0.2,0.7,0.4,1,0.6c0.8,0.5,1.6,1,2.3,1.5
		c0.9,0.6,1.9,1.2,2.8,1.8c0.8,0.5,1.6,1,2.4,1.6c0.4,0.3,0.8,0.5,1.2,0.8c0,0,0,0,0,0c0,0,0.1,0,0.1,0c0.6-0.4,1.3-0.8,1.9-1.2
		c1-0.6,2-1.3,3-1.9c0.2-0.1,0.5-0.3,0.7-0.4c0.1-0.1,0-0.3-0.1-0.2c-0.6,0.4-1.3,0.8-1.9,1.2c-1,0.6-2,1.3-3,1.9
		c-0.2,0.1-0.5,0.3-0.7,0.4c0,0,0.1,0,0.1,0c-0.3-0.2-0.7-0.4-1-0.6c-0.8-0.5-1.6-1-2.3-1.5c-0.9-0.6-1.9-1.2-2.8-1.8
		c-0.8-0.5-1.6-1-2.4-1.6c-0.3-0.2-0.5-0.3-0.8-0.5c-0.1-0.1-0.2-0.2-0.4-0.2c0,0,0,0,0,0c0,0.1,0,0.2,0,0.2
		c0.1-0.1,0.2-0.1,0.3-0.2"/>
	<path class="st2" d="M15.9,20.1c0.5-0.3,1.1-0.4,1.6-0.2c0.1,0,0.2,0.2,0.4,0.1c0,0,0,0,0,0c0.1,0,0.1-0.1,0.2-0.1
		c0.6-0.4,1.2-0.8,1.8-1.1c0.2-0.1,0.3-0.2,0.5-0.3c0.1-0.1,0.1-0.2,0-0.2c-0.2-0.1-0.3-0.3-0.3-0.5c0-0.2,0.2-0.4,0.4-0.5
		c0.1-0.1,0.1-0.2,0-0.2c-0.3-0.2-0.6-0.4-0.8-0.5c-0.7-0.4-1.3-0.8-2-1.3c-0.7-0.5-1.5-0.9-2.2-1.4c-0.5-0.3-1.1-0.7-1.6-1
		c-0.1-0.1-0.2-0.1-0.3-0.2c-0.1,0-0.1,0-0.2,0c-0.1,0.1-0.3,0.1-0.5,0.2c-0.3,0.1-0.6,0.1-1,0c-0.1,0-0.3-0.1-0.4-0.2
		c0,0-0.1,0-0.1,0c-0.7,0.5-1.5,0.9-2.2,1.4C9.1,14,9,14,8.9,14.1c-0.1,0-0.1,0.2,0,0.2c0.2,0.1,0.4,0.3,0.4,0.5
		c0,0.3-0.2,0.4-0.4,0.6c-0.1,0.1-0.1,0.2,0,0.2c0.2,0.1,0.5,0.3,0.7,0.4c0.6,0.4,1.1,0.7,1.7,1.1c0.7,0.4,1.3,0.8,2,1.3
		c0.6,0.4,1.2,0.7,1.7,1.1c0.3,0.2,0.6,0.4,0.8,0.5c0,0,0,0,0,0c0.1,0.1,0.3-0.2,0.1-0.2c-0.2-0.1-0.5-0.3-0.7-0.4
		c-0.6-0.4-1.1-0.7-1.7-1.1c-0.7-0.4-1.3-0.8-2-1.3c-0.6-0.4-1.2-0.7-1.7-1.1c-0.2-0.1-0.4-0.2-0.6-0.4c-0.1-0.1-0.2-0.1-0.3-0.2
		c0,0,0,0,0,0c0,0.1,0,0.2,0,0.2c0.3-0.2,0.5-0.4,0.5-0.8c0-0.3-0.2-0.6-0.5-0.7c0,0.1,0,0.2,0,0.2c0.7-0.5,1.5-0.9,2.2-1.4
		c0.1-0.1,0.2-0.1,0.3-0.2c0,0-0.1,0-0.1,0c0.3,0.2,0.7,0.3,1.1,0.3c0.4,0,0.8-0.1,1.1-0.3c0,0-0.1,0-0.1,0c0.2,0.1,0.5,0.3,0.7,0.4
		c0.6,0.4,1.1,0.7,1.7,1.1c0.7,0.4,1.3,0.8,2,1.3c0.6,0.4,1.2,0.7,1.7,1.1c0.2,0.1,0.4,0.2,0.6,0.4c0.1,0.1,0.2,0.1,0.3,0.2
		c0,0,0,0,0,0c0-0.1,0-0.2,0-0.2c-0.3,0.2-0.5,0.4-0.5,0.8c0,0.3,0.2,0.6,0.4,0.7c0-0.1,0-0.2,0-0.2c-0.7,0.5-1.5,0.9-2.2,1.4
		c-0.1,0.1-0.2,0.1-0.3,0.2c0,0,0.1,0,0.1,0c-0.6-0.4-1.5-0.3-2.1,0.1C15.6,19.9,15.7,20.1,15.9,20.1z"/>
	<path class="st0" d="M14.5,17.6l0.3-0.4L14.2,17l-0.6-0.4v-0.1l0.1-0.1l0.1,0l1.5,0.4l0.4-0.1l0.5-0.3l0-0.5L16,15.7l0.2-0.2
		l-0.5-0.3l-0.2,0.1l-0.2-0.1l-0.6-0.2l-0.3,0.4l0.6,0.2l0.6,0.4l0,0.1l-0.1,0.1l-0.1,0l-1.5-0.4L13.4,16L13,16.3l0,0.5l0.2,0.1
		l-0.2,0.2l0.5,0.3l0.2-0.1l0.2,0.1L14.5,17.6z"/>
	<path class="st2" d="M14.6,17.7c0.1-0.1,0.2-0.3,0.3-0.4c0.1-0.1,0-0.2-0.1-0.2c-0.1,0-0.2-0.1-0.3-0.1c-0.1,0-0.1,0-0.2-0.1
		c0,0,0,0-0.1,0c0,0,0,0,0,0c-0.2-0.1-0.4-0.2-0.6-0.4c0,0,0,0.1,0.1,0.1c0,0,0-0.1,0-0.1c0,0,0,0.1-0.1,0.1c0,0,0.1,0,0.1,0
		c-0.1,0,0,0,0,0c0,0,0,0,0.1,0c0,0,0,0-0.1,0c0,0,0,0,0,0c0.1,0,0.2,0,0.3,0.1c0.3,0.1,0.6,0.1,0.9,0.2c0.1,0,0.2,0.1,0.3,0.1
		c0.1,0,0.1,0,0.2,0c0.1,0,0.2,0,0.3-0.1c0.1-0.1,0.2-0.1,0.3-0.2c0,0,0.1,0,0.1-0.1c0.1-0.1,0.1-0.1,0.1-0.2c0-0.2,0-0.3,0-0.5
		c0,0,0-0.1-0.1-0.1c-0.1,0-0.2-0.1-0.2-0.1c0,0.1,0,0.2,0,0.2c0.1,0,0.2-0.1,0.2-0.1c0.1-0.1,0.1-0.2,0-0.2
		c-0.2-0.1-0.3-0.2-0.5-0.3c0,0-0.1,0-0.1,0c-0.1,0-0.2,0.1-0.2,0.1c0,0,0.1,0,0.1,0c-0.1-0.1-0.2-0.1-0.4-0.2
		c-0.2-0.1-0.3-0.1-0.5-0.2c0,0-0.1,0-0.1,0c-0.1,0.1-0.2,0.3-0.3,0.4c-0.1,0.1,0,0.2,0.1,0.2c0.1,0,0.2,0.1,0.3,0.1
		c0.1,0,0.1,0,0.2,0.1c0,0,0,0,0.1,0c0,0,0,0,0,0c0.2,0.1,0.4,0.2,0.6,0.4c0,0,0-0.1-0.1-0.1c0,0,0,0.1,0,0.1c0,0,0-0.1,0.1-0.1
		c0,0-0.1,0-0.1,0c0.1,0,0,0,0,0c0,0,0,0-0.1,0c0,0,0,0,0.1,0c0,0,0,0,0,0c-0.1,0-0.2,0-0.3-0.1c-0.3-0.1-0.6-0.1-0.9-0.2
		c-0.1,0-0.2-0.1-0.3-0.1c-0.1,0-0.1,0-0.2,0c-0.1,0-0.2,0-0.3,0.1c-0.1,0.1-0.2,0.1-0.3,0.2c0,0-0.1,0-0.1,0.1
		c-0.1,0.1-0.1,0.1-0.1,0.2c0,0.2,0,0.3,0,0.5c0,0,0,0.1,0.1,0.1c0.1,0,0.2,0.1,0.2,0.1c0-0.1,0-0.2,0-0.2c-0.1,0-0.2,0.1-0.2,0.1
		c-0.1,0.1-0.1,0.2,0,0.2c0.2,0.1,0.3,0.2,0.5,0.3c0,0,0.1,0,0.1,0c0.1,0,0.2-0.1,0.2-0.1c0,0-0.1,0-0.1,0c0.1,0.1,0.2,0.1,0.4,0.2
		c0.2,0.1,0.3,0.1,0.5,0.2c0.2,0,0.2-0.2,0.1-0.3c-0.2,0-0.3-0.1-0.5-0.1c-0.1,0-0.1,0-0.2-0.1c0.1,0,0,0,0,0c0,0,0,0-0.1,0
		c0,0-0.1,0-0.1-0.1c0,0-0.1,0-0.1,0c-0.1,0-0.2,0.1-0.2,0.1c0,0,0.1,0,0.1,0c-0.2-0.1-0.3-0.2-0.5-0.3c0,0.1,0,0.2,0,0.2
		c0.1,0,0.2-0.1,0.2-0.1c0.1-0.1,0.1-0.2,0-0.2c-0.1,0-0.2-0.1-0.2-0.1c0,0,0,0.1,0.1,0.1c0-0.2,0-0.4,0-0.5c0,0,0,0.1-0.1,0.1
		c0.1-0.1,0.2-0.1,0.3-0.2c0,0,0.1-0.1,0.1-0.1c0,0,0,0,0,0c0,0,0,0,0,0c0.1,0,0.2,0,0.4-0.1c0.1,0-0.1,0,0,0c0,0,0.1,0,0.1,0
		c0.5,0.1,0.9,0.2,1.4,0.3c0.1,0,0.2,0,0.2,0c0.1,0,0.1-0.1,0.2-0.1c0-0.1,0-0.2,0-0.2c0,0,0-0.1-0.1-0.1c-0.2-0.1-0.4-0.3-0.6-0.4
		c-0.1,0-0.2-0.1-0.3-0.1c-0.1,0-0.2-0.1-0.3-0.1c0,0.1,0,0.2,0.1,0.2c0.1-0.1,0.2-0.3,0.3-0.4c0,0-0.1,0-0.1,0
		c0.2,0,0.3,0.1,0.5,0.1c0.1,0,0.1,0,0.2,0.1c-0.1,0,0,0,0,0c0,0,0,0,0.1,0c0,0,0.1,0,0.1,0.1c0,0,0.1,0,0.1,0
		c0.1,0,0.2-0.1,0.2-0.1c0,0-0.1,0-0.1,0c0.2,0.1,0.3,0.2,0.5,0.3c0-0.1,0-0.2,0-0.2c-0.1,0-0.2,0.1-0.2,0.1c-0.1,0.1-0.1,0.2,0,0.2
		c0.1,0,0.2,0.1,0.2,0.1c0,0,0-0.1-0.1-0.1c0,0.2,0,0.4,0,0.5c0,0,0-0.1,0.1-0.1c-0.1,0.1-0.2,0.1-0.3,0.2c0,0-0.1,0.1-0.1,0.1
		c0,0,0,0,0,0c0,0,0,0,0,0c-0.1,0-0.2,0-0.4,0.1c-0.1,0,0.1,0,0,0c0,0-0.1,0-0.1,0c-0.5-0.1-0.9-0.2-1.4-0.4c-0.1,0-0.2,0-0.3,0
		c-0.1,0-0.1,0.1-0.2,0.1c0,0.1,0,0.2,0,0.2c0,0,0,0.1,0.1,0.1c0.2,0.1,0.4,0.3,0.6,0.4c0.1,0,0.2,0.1,0.3,0.1
		c0.1,0,0.2,0.1,0.3,0.1c0-0.1,0-0.2-0.1-0.2c-0.1,0.1-0.2,0.3-0.3,0.4C14.3,17.6,14.5,17.8,14.6,17.7z"/>
	<path class="st0" d="M9,14.3C9,14.2,9,14.2,9,14.3l2.5-1.7c0,0,0,0,0.1,0c0.5,0.3,1.4,0.3,2-0.1l6.9,4.4c-0.6,0.4-0.6,0.9-0.1,1.3
		l-2.6,1.6c-0.5-0.3-1.4-0.3-2,0.1l-6.9-4.4C9.5,15.2,9.5,14.6,9,14.3z M17.1,17.8c1.2-0.7,1-2-0.4-2.9s-3.4-1-4.6-0.2
		c-1.2,0.7-1,2,0.4,2.9C13.9,18.4,15.9,18.5,17.1,17.8z"/>
	<path class="st2" d="M9.1,14.1C9.1,14.1,9,14.1,9.1,14.1C9,14.2,9,14.3,9,14.3c0.7-0.5,1.5-0.9,2.2-1.4c0.1-0.1,0.2-0.1,0.3-0.2
		c0,0-0.1,0-0.1,0c0.3,0.2,0.7,0.3,1.1,0.3c0.4,0,0.8-0.1,1.1-0.3c0,0-0.1,0-0.1,0c0.2,0.1,0.5,0.3,0.7,0.4c0.6,0.4,1.1,0.7,1.7,1.1
		c0.7,0.4,1.3,0.8,2,1.3c0.6,0.4,1.2,0.7,1.7,1.1c0.2,0.1,0.4,0.2,0.6,0.4c0.1,0.1,0.2,0.1,0.3,0.2c0,0,0,0,0,0c0-0.1,0-0.2,0-0.2
		c-0.3,0.2-0.5,0.4-0.5,0.8c0,0.3,0.2,0.6,0.4,0.7c0-0.1,0-0.2,0-0.2c-0.7,0.5-1.5,0.9-2.2,1.4c-0.1,0.1-0.2,0.1-0.3,0.2
		c0,0,0.1,0,0.1,0c-0.6-0.4-1.5-0.3-2.1,0.1c0,0,0.1,0,0.1,0c-0.2-0.1-0.5-0.3-0.7-0.4c-0.6-0.4-1.1-0.7-1.6-1.1
		c-0.7-0.4-1.3-0.8-2-1.3c-0.6-0.4-1.2-0.7-1.7-1.1c-0.2-0.1-0.4-0.2-0.6-0.4c-0.1-0.1-0.2-0.1-0.3-0.2c0,0,0,0,0,0
		c0,0.1,0,0.2,0,0.2c0.3-0.2,0.5-0.4,0.5-0.8C9.5,14.5,9.3,14.3,9.1,14.1C8.9,14,8.8,14.3,9,14.4c0.2,0.1,0.3,0.3,0.3,0.5
		c0,0.2-0.2,0.4-0.4,0.5c-0.1,0.1-0.1,0.2,0,0.2c0.5,0.3,1,0.6,1.4,0.9c1,0.6,1.9,1.2,2.9,1.8c0.8,0.5,1.5,1,2.3,1.5
		c0.1,0.1,0.2,0.1,0.2,0.2c0,0,0,0,0,0c0.1,0.1,0.2-0.1,0.4-0.1c0.4-0.2,0.9-0.2,1.3-0.1c0.1,0,0.2,0.1,0.3,0.1c0.1,0,0.1,0.1,0.2,0
		c0,0,0.1,0,0.1-0.1c0.8-0.5,1.6-1,2.4-1.5c0,0,0,0,0.1,0c0.1-0.1,0.1-0.2,0-0.2c-0.2-0.1-0.3-0.3-0.3-0.5c0-0.2,0.2-0.4,0.4-0.5
		c0.1-0.1,0.1-0.2,0-0.2c-0.3-0.2-0.6-0.4-0.8-0.5c-0.7-0.4-1.3-0.8-2-1.3c-0.7-0.5-1.5-0.9-2.2-1.4c-0.5-0.3-1.1-0.7-1.6-1
		c-0.1-0.1-0.2-0.1-0.3-0.2c-0.1,0-0.1,0-0.2,0c-0.1,0.1-0.3,0.1-0.5,0.2c-0.3,0.1-0.6,0.1-1,0c-0.1,0-0.3-0.1-0.4-0.2
		c0,0-0.1,0-0.1,0c-0.7,0.5-1.5,0.9-2.2,1.4C9.1,14,9,14,8.9,14.1c-0.1,0-0.1,0.2,0,0.2c0,0,0.1,0,0.1,0C9.1,14.5,9.2,14.2,9.1,14.1
		z"/>
	<path class="st2" d="M17.2,17.9c0.4-0.3,0.8-0.7,0.8-1.3c0-0.6-0.3-1.1-0.6-1.4c-0.5-0.5-1-0.8-1.6-0.9c-0.6-0.2-1.2-0.3-1.8-0.2
		c-0.6,0-1.1,0.1-1.6,0.4c-0.4,0.2-0.9,0.6-1,1.2c-0.1,0.5,0.1,1.1,0.4,1.4c0.4,0.5,1,0.8,1.6,1c0.6,0.2,1.2,0.3,1.8,0.3
		c0.6,0,1.2-0.1,1.7-0.3C16.9,18,17.1,18,17.2,17.9c0.1-0.1,0-0.3-0.1-0.2c-0.9,0.6-2.1,0.6-3.1,0.3c-0.6-0.1-1.1-0.4-1.6-0.7
		C12,17,11.6,16.6,11.5,16c-0.1-0.5,0.2-0.9,0.5-1.1c0.4-0.3,0.9-0.5,1.4-0.5c1.1-0.2,2.3,0.1,3.2,0.7c0.4,0.3,0.9,0.7,1,1.2
		c0.1,0.4-0.1,0.9-0.4,1.2c-0.1,0.1-0.2,0.2-0.3,0.2C16.9,17.8,17,18,17.2,17.9z"/>
	<path class="st3" d="M16.7,21.2l0,0.3l5.6-3.6v-0.3L16.7,21.2z"/>
	<path class="st2" d="M16.6,21.2c0,0.1,0,0.2,0,0.3c0,0.1,0.1,0.2,0.2,0.1c0.6-0.4,1.3-0.8,1.9-1.2c1-0.6,2-1.3,3-1.9
		c0.2-0.1,0.5-0.3,0.7-0.4c0,0,0.1-0.1,0.1-0.1c0-0.1,0-0.2,0-0.3c0-0.1-0.1-0.2-0.2-0.1c-0.6,0.4-1.3,0.8-1.9,1.2
		c-1,0.6-2,1.3-3,1.9c-0.2,0.1-0.5,0.3-0.7,0.4c-0.1,0.1,0,0.3,0.1,0.2c0.6-0.4,1.3-0.8,1.9-1.2c1-0.6,2-1.3,3-1.9
		c0.2-0.1,0.5-0.3,0.7-0.4c-0.1,0-0.1-0.1-0.2-0.1c0,0.1,0,0.2,0,0.3c0,0,0-0.1,0.1-0.1c-0.6,0.4-1.3,0.8-1.9,1.2
		c-1,0.6-2,1.3-3,1.9c-0.2,0.1-0.5,0.3-0.7,0.4c0.1,0,0.1,0.1,0.2,0.1c0-0.1,0-0.2,0-0.3C16.9,21,16.6,21,16.6,21.2z"/>
	<path class="st3" d="M6.9,14.9l0,0.3l9.8,6.3l0-0.3L6.9,14.9z"/>
	<path class="st2" d="M6.8,14.9c0,0.1,0,0.4,0.1,0.4c0,0,0.1,0.1,0.1,0.1c0.2,0.1,0.4,0.3,0.6,0.4c0.8,0.5,1.5,1,2.3,1.5
		c1,0.6,1.9,1.2,2.9,1.9c0.9,0.5,1.7,1.1,2.6,1.6c0.4,0.3,0.8,0.6,1.3,0.8c0,0,0,0,0,0c0.1,0.1,0.2,0,0.2-0.1c0-0.1,0-0.4-0.1-0.4
		c0,0-0.1-0.1-0.1-0.1c-0.2-0.1-0.4-0.3-0.6-0.4c-0.8-0.5-1.5-1-2.3-1.5c-1-0.6-1.9-1.2-2.9-1.9c-0.9-0.5-1.7-1.1-2.6-1.6
		C7.8,15.3,7.4,15,7,14.8c0,0,0,0,0,0c-0.1-0.1-0.3,0.2-0.1,0.2c0.3,0.2,0.7,0.4,1,0.6c0.8,0.5,1.6,1,2.3,1.5
		c0.9,0.6,1.9,1.2,2.8,1.8c0.8,0.5,1.6,1,2.4,1.6c0.3,0.2,0.5,0.3,0.8,0.5c0.1,0.1,0.2,0.2,0.4,0.2c0,0,0,0,0,0c0,0,0-0.1-0.1-0.1
		c0,0.1,0,0.2,0,0.3c0.1,0,0.1-0.1,0.2-0.1c-0.3-0.2-0.7-0.4-1-0.6c-0.8-0.5-1.6-1-2.3-1.5c-0.9-0.6-1.9-1.2-2.8-1.8
		c-0.8-0.5-1.6-1-2.4-1.6c-0.3-0.2-0.5-0.3-0.8-0.5c-0.1-0.1-0.2-0.2-0.4-0.2c0,0,0,0,0,0c0,0,0,0.1,0.1,0.1c0-0.1,0-0.2,0-0.3
		C7,14.7,6.8,14.7,6.8,14.9z"/>
	<path class="st0" d="M1.7,8.6L13.6,1c0.6-0.4,1.4-0.3,2.3,0.3L4,8.8C3.1,8.3,2.3,8.2,1.7,8.6z"/>
	<path class="st1" d="M1.8,8.8C1.9,8.7,2,8.6,2.1,8.5c0.3-0.2,0.7-0.4,1-0.6c0.5-0.3,1-0.6,1.4-0.9c0.6-0.4,1.2-0.7,1.7-1.1
		c0.6-0.4,1.2-0.8,1.9-1.2C8.7,4.3,9.3,3.9,10,3.5c0.5-0.3,1.1-0.7,1.6-1c0.4-0.3,0.8-0.5,1.3-0.8c0.2-0.2,0.5-0.3,0.7-0.5
		c0,0,0.1,0,0.1-0.1c0.4-0.2,0.8-0.3,1.3-0.1c0.3,0.1,0.6,0.2,0.9,0.4c0-0.1,0-0.2,0-0.4c-0.4,0.3-0.8,0.5-1.2,0.8
		c-1,0.6-1.9,1.2-2.8,1.8c-1.1,0.7-2.3,1.5-3.4,2.2c-1,0.6-2,1.3-3,1.9C5,7.9,4.7,8.1,4.4,8.3C4.2,8.4,4,8.5,3.9,8.6c0,0,0,0,0,0
		c0.1,0,0.1,0,0.2,0C3.3,8.2,2.4,7.9,1.6,8.4C1.3,8.5,1.5,8.9,1.8,8.8c0.5-0.3,1-0.3,1.5-0.1c0.2,0.1,0.3,0.1,0.4,0.2
		C3.8,8.9,3.9,9.1,4.1,9c0,0,0,0,0,0c0.2-0.1,0.4-0.2,0.6-0.4C5,8.4,5.4,8.1,5.8,7.9c0.5-0.3,1-0.7,1.5-1c0.6-0.4,1.2-0.8,1.8-1.1
		C9.7,5.4,10.4,5,11,4.6c0.6-0.4,1.2-0.8,1.8-1.1c0.5-0.3,1-0.7,1.5-1c0.4-0.2,0.7-0.5,1.1-0.7c0.2-0.1,0.4-0.2,0.5-0.3c0,0,0,0,0,0
		c0.1-0.1,0.1-0.3,0-0.4c-0.8-0.5-1.7-0.7-2.5-0.2c-0.2,0.1-0.4,0.2-0.5,0.3c-0.4,0.2-0.7,0.5-1.1,0.7c-0.5,0.3-1,0.7-1.5,1
		C9.7,3.2,9.1,3.6,8.5,4C7.8,4.4,7.2,4.8,6.6,5.2C6,5.6,5.4,5.9,4.8,6.3c-0.5,0.3-1,0.7-1.5,1C2.9,7.6,2.5,7.8,2.1,8
		C1.9,8.1,1.8,8.3,1.6,8.4c0,0,0,0,0,0C1.3,8.5,1.5,8.9,1.8,8.8z"/>
	<path class="st0" d="M4,8.8l11.9-7.6c0.3,0.2,0.6,0.4,0.9,0.7L4.9,9.6C4.6,9.3,4.3,9,4,8.8z"/>
	<path class="st1" d="M4.1,9c0.4-0.3,0.8-0.5,1.2-0.8c1-0.6,1.9-1.2,2.8-1.8c1.1-0.7,2.3-1.5,3.4-2.2c1-0.6,2-1.3,3-1.9
		c0.3-0.2,0.7-0.4,1-0.6c0.2-0.1,0.3-0.2,0.5-0.3c0,0,0,0,0,0c-0.1,0-0.1,0-0.2,0c0.3,0.2,0.6,0.4,0.9,0.7c0-0.1,0-0.2,0-0.3
		c-0.4,0.3-0.8,0.5-1.2,0.8c-1,0.6-1.9,1.2-2.8,1.8c-1.1,0.7-2.3,1.5-3.4,2.2c-1,0.6-2,1.3-3,1.9c-0.3,0.2-0.7,0.4-1,0.6
		C5.1,9.2,4.9,9.2,4.8,9.4c0,0,0,0,0,0c0.1,0,0.2,0,0.2,0C4.7,9.1,4.4,8.9,4.1,8.6C3.9,8.5,3.7,8.9,3.9,9c0.3,0.2,0.6,0.4,0.9,0.7
		c0.1,0.1,0.2,0.1,0.2,0C5.4,9.5,5.8,9.2,6.2,9c1-0.6,1.9-1.2,2.8-1.8c1.1-0.7,2.3-1.5,3.4-2.2c1-0.6,2-1.3,3-1.9
		c0.5-0.3,1-0.6,1.4-0.9c0,0,0,0,0,0C17,2,17,1.9,16.9,1.8C16.6,1.5,16.3,1.2,16,1c-0.1,0-0.1,0-0.2,0c-0.4,0.3-0.8,0.5-1.2,0.8
		c-1,0.6-1.9,1.2-2.8,1.8c-1.1,0.7-2.3,1.5-3.4,2.2c-1,0.6-2,1.3-3,1.9C4.9,8,4.4,8.3,3.9,8.6c0,0,0,0,0,0C3.7,8.8,3.9,9.1,4.1,9z"
		/>
	<path class="st0" d="M4.9,9.6l11.9-7.6c0.3,0.3,0.6,0.6,0.8,1L5.7,10.5C5.4,10.2,5.2,9.8,4.9,9.6z"/>
	<path class="st1" d="M5,9.7C5.4,9.5,5.8,9.2,6.2,9c1-0.6,1.9-1.2,2.8-1.8c1.1-0.7,2.3-1.5,3.4-2.2c1-0.6,2-1.3,3-1.9
		c0.3-0.2,0.7-0.4,1-0.6c0.2-0.1,0.3-0.2,0.5-0.3c0,0,0,0,0,0c-0.1,0-0.2,0-0.2,0c0.3,0.3,0.6,0.6,0.8,1c0-0.1,0-0.2,0-0.3
		c-0.4,0.3-0.8,0.5-1.2,0.8c-1,0.6-1.9,1.2-2.8,1.8C12.3,6,11.2,6.7,10,7.5C9,8.1,8,8.8,7,9.4c-0.3,0.2-0.7,0.4-1,0.6
		c-0.2,0.1-0.3,0.2-0.5,0.3c0,0,0,0,0,0c0.1,0,0.2,0,0.2,0C5.6,10,5.3,9.7,5,9.4C4.8,9.2,4.5,9.5,4.7,9.7c0.3,0.3,0.6,0.6,0.8,1
		c0.1,0.1,0.2,0.1,0.2,0c0.4-0.3,0.8-0.5,1.2-0.8c1-0.6,1.9-1.2,2.8-1.8c1.1-0.7,2.3-1.5,3.4-2.2c1-0.6,2-1.3,3-1.9
		c0.5-0.3,1-0.6,1.4-0.9c0,0,0,0,0,0c0.1-0.1,0.1-0.2,0-0.3c-0.2-0.3-0.5-0.7-0.8-1c-0.1-0.1-0.2-0.1-0.2,0
		c-0.4,0.3-0.8,0.5-1.2,0.8c-0.9,0.6-1.9,1.2-2.8,1.8c-1.1,0.7-2.3,1.5-3.4,2.2c-1,0.6-2,1.3-3,1.9C5.8,8.7,5.3,9,4.8,9.4
		c0,0,0,0,0,0C4.6,9.5,4.8,9.9,5,9.7z"/>
	<path class="st0" d="M5.7,10.5l11.9-7.6c0.3,0.4,0.5,0.8,0.7,1.2L6.4,11.7C6.2,11.3,5.9,10.9,5.7,10.5z"/>
	<path class="st1" d="M5.8,10.7c0.4-0.3,0.8-0.5,1.2-0.8c1-0.6,1.9-1.2,2.8-1.8c1.1-0.7,2.3-1.5,3.4-2.2c1-0.6,2-1.3,3-1.9
		c0.3-0.2,0.7-0.4,1-0.6c0.2-0.1,0.3-0.2,0.5-0.3c0,0,0,0,0,0c-0.1,0-0.2,0-0.2,0c0.2,0.4,0.5,0.7,0.7,1.1c0-0.1,0-0.2,0.1-0.3
		c-0.4,0.3-0.8,0.5-1.2,0.8c-1,0.6-1.9,1.2-2.8,1.8c-1.1,0.7-2.3,1.5-3.4,2.2c-1,0.6-2,1.3-3,1.9c-0.3,0.2-0.7,0.4-1,0.6
		c-0.2,0.1-0.3,0.2-0.5,0.3c0,0,0,0,0,0c0.1,0,0.2,0.1,0.3,0.1c-0.2-0.4-0.5-0.8-0.7-1.2c-0.1-0.1-0.2-0.1-0.3,0
		c-0.1,0.1-0.1,0.2,0,0.3C5.8,11,6,11.4,6.2,11.8c0,0.1,0.2,0.1,0.3,0.1c0.4-0.3,0.8-0.5,1.2-0.8c1-0.6,1.9-1.2,2.8-1.8
		c1.1-0.7,2.3-1.5,3.4-2.2c1-0.6,2-1.3,3-1.9c0.5-0.3,1-0.6,1.4-0.9c0,0,0,0,0,0c0.1-0.1,0.1-0.2,0.1-0.3c-0.2-0.4-0.5-0.8-0.7-1.2
		c-0.1-0.1-0.2-0.1-0.2,0c-0.4,0.3-0.8,0.5-1.2,0.8c-1,0.6-1.9,1.2-2.8,1.8C12.3,6,11.2,6.7,10,7.5C9,8.1,8,8.7,7,9.4
		c-0.5,0.3-1,0.6-1.4,0.9c0,0,0,0,0,0C5.4,10.5,5.6,10.8,5.8,10.7z"/>
	<path class="st0" d="M6.4,11.7l11.9-7.6c0.5,1,0.8,2.2,0.8,3.2L7.2,14.9C7.2,13.8,6.9,12.7,6.4,11.7z"/>
	<path class="st1" d="M6.5,11.9c0.4-0.3,0.8-0.5,1.2-0.8c1-0.6,1.9-1.2,2.8-1.8c1.1-0.7,2.3-1.5,3.4-2.2c1-0.6,2-1.3,3-1.9
		c0.3-0.2,0.7-0.4,1-0.6c0.2-0.1,0.3-0.2,0.5-0.3c0,0,0,0,0,0c-0.1,0-0.2-0.1-0.3-0.1c0.5,0.9,0.8,2,0.8,3.1C19,7.2,19,7.1,19,7.1
		c-0.4,0.3-0.8,0.5-1.2,0.8C16.9,8.4,16,9,15,9.6c-1.1,0.7-2.3,1.5-3.4,2.2c-1,0.6-2,1.3-3,1.9c-0.3,0.2-0.7,0.4-1,0.6
		c-0.2,0.1-0.3,0.2-0.5,0.3c0,0,0,0,0,0c0.1,0.1,0.2,0.1,0.3,0.2c0-1.2-0.4-2.3-0.9-3.3c-0.1-0.2-0.5,0-0.3,0.2
		c0.5,0.9,0.8,2,0.8,3.1c0,0.2,0.2,0.3,0.3,0.2c0.4-0.3,0.8-0.5,1.2-0.8c1-0.6,1.9-1.2,2.8-1.8c1.1-0.7,2.3-1.5,3.4-2.2
		c1-0.6,2-1.3,3-1.9c0.5-0.3,1-0.6,1.4-0.9c0,0,0,0,0,0c0.1,0,0.1-0.1,0.1-0.2C19.3,6.1,19,5,18.5,4c0-0.1-0.2-0.1-0.3-0.1
		c-0.4,0.3-0.8,0.5-1.2,0.8c-1,0.6-1.9,1.2-2.8,1.8c-1.1,0.7-2.3,1.5-3.4,2.2c-1,0.6-2,1.3-3,1.9c-0.5,0.3-1,0.6-1.4,0.9
		c0,0,0,0,0,0C6.1,11.6,6.3,12,6.5,11.9z"/>
	<path class="st0" d="M0.7,10.9c0-2.3,1.5-3.2,3.3-2c1.8,1.1,3.2,3.8,3.2,6L2.7,12L0.7,10.9z"/>
	<path class="st1" d="M0.9,10.9C0.9,10.2,1,9.4,1.5,9c0.2-0.2,0.4-0.3,0.7-0.4c0.3-0.1,0.6,0,0.8,0c0.7,0.2,1.4,0.7,1.9,1.3
		c0.6,0.6,1.1,1.4,1.4,2.2C6.7,12.9,7,13.9,7,14.9c0.1-0.1,0.2-0.1,0.3-0.2c-0.3-0.2-0.6-0.4-0.9-0.5c-0.6-0.4-1.2-0.8-1.8-1.1
		c-0.5-0.3-1-0.7-1.5-1c-0.2-0.1-0.4-0.3-0.7-0.4c-0.5-0.3-1.1-0.6-1.6-0.9c0,0,0,0,0,0c-0.2-0.1-0.4,0.2-0.2,0.4
		c0.5,0.3,1,0.5,1.4,0.8c0.3,0.1,0.5,0.3,0.8,0.4c0.5,0.3,1,0.6,1.4,0.9c0.6,0.4,1.2,0.8,1.8,1.2c0.3,0.2,0.7,0.5,1,0.7c0,0,0,0,0,0
		c0.1,0.1,0.3,0,0.3-0.2c0-0.9-0.3-1.9-0.6-2.7c-0.4-0.9-0.9-1.7-1.5-2.4c-0.6-0.6-1.3-1.2-2-1.5C2.7,8,1.9,8.1,1.4,8.5
		C0.7,9,0.5,10,0.5,10.9C0.5,11.1,0.9,11.1,0.9,10.9z"/>
</g>
</svg>
