<svg width="24" height="23" viewBox="0 0 24 23" fill="none" xmlns="http://www.w3.org/2000/svg">
<path d="M17.9018 1.33406C17.9018 1.33406 17.4662 1.45135 13.8721 2.97613C10.2781 4.5009 7.77311 8.84064 7.6642 9.89625C7.55529 10.9519 7.11965 18.9276 7.11965 18.9276L8.51561 18.5627M17.9018 1.33406C18.6642 0.982194 19.6444 4.73548 19.6444 4.73548C19.6444 4.73548 13.7632 7.19858 12.0206 8.48877C10.2781 9.77896 8.94935 13.3915 8.86222 13.7668C8.77509 14.1422 8.62452 17.1576 8.51561 18.5627M17.9018 1.33406C17.9018 1.33406 14.3078 -0.54258 8.86222 1.33406C3.41668 3.21071 2.32757 7.31587 2.32757 7.31587C2.32757 7.31587 1.34737 17.1682 1.6741 17.1682M8.51561 18.5627C8.51561 18.5627 13.8522 16.4515 13.7433 16.4515" stroke="#000E38" stroke-width="0.4"/>
<path d="M19.623 13.2848C19.623 13.5194 20.0587 5.66098 19.623 4.72266" stroke="#000E38" stroke-width="0.4"/>
<path d="M1.67383 17.1685C1.67383 17.403 4.61442 19.2797 7.11937 18.9278" stroke="#000E38" stroke-width="0.4"/>
<path d="M1.67335 17.1683C1.67335 17.1683 -0.722687 8.7234 3.52484 5.0874" stroke="#000E38" stroke-width="0.4"/>
<path d="M8.86133 1.33398L14.4158 2.74147" stroke="#000E38" stroke-width="0.4"/>
<path d="M1.89062 12.4764L7.44508 13.6493M2.653 12.5937C2.653 12.5937 2.54409 6.96376 3.95993 6.26001C5.37577 5.55627 7.55399 6.37731 7.88072 6.96376C8.20746 7.5502 6.24706 13.2974 6.24706 13.2974L2.653 12.5937Z" stroke="#000E38" stroke-width="0.4"/>
<path d="M6.24772 8.84074C6.24772 8.72345 4.0695 8.37158 3.96059 8.37158C3.85168 8.37158 3.85168 9.3099 3.96059 9.3099C4.0695 9.3099 5.92098 9.77907 6.0299 9.77907C6.13881 9.77907 6.24772 8.95803 6.24772 8.84074Z" stroke="#000E38" stroke-width="0.4"/>
<path d="M8.11689 4.61829C8.11689 4.72199 8.0516 4.84309 7.88935 4.94793C7.72913 5.05146 7.49578 5.12203 7.22778 5.12203C6.95978 5.12203 6.72643 5.05146 6.56621 4.94793C6.40396 4.84309 6.33867 4.72199 6.33867 4.61829C6.33867 4.51459 6.40396 4.39349 6.56621 4.28865C6.72643 4.18512 6.95978 4.11455 7.22778 4.11455C7.49578 4.11455 7.72913 4.18512 7.88935 4.28865C8.0516 4.39349 8.11689 4.51459 8.11689 4.61829Z" stroke="#FFC400" stroke-width="0.4"/>
<path d="M3.52539 6.72949L7.88183 7.55052" stroke="#000E38" stroke-width="0.4"/>
<path d="M3.74176 6.72949C3.74176 6.72949 3.63285 7.08136 3.74177 7.55052C3.85068 8.01969 6.57345 8.72343 7.118 8.25427C7.66255 7.7851 7.66256 7.55052 7.66256 7.55052" stroke="#000E38" stroke-width="0.4"/>
<path d="M17.6641 13.7537C17.6641 13.7537 19.7334 11.7598 19.7334 11.1733" stroke="#000E38" stroke-width="0.4"/>
<path d="M19.6243 13.1675C19.7332 13.6366 18.5352 14.3404 18.5352 14.3404" stroke="#000E38" stroke-width="0.4"/>
<path d="M5.68359 18.9143C8.06705 19.1908 10.2095 18.6146 14.1786 16.9204" stroke="#000E38" stroke-width="0.4"/>
<path d="M22.3457 19.1494L22.9002 19.5287C22.9618 19.5704 22.9991 19.6434 22.9991 19.7218C22.9991 19.8002 22.9618 19.8731 22.9002 19.9149L19.1396 22.4651C19.1051 22.4885 19.0659 22.5002 19.0267 22.5002C18.9875 22.5002 18.9482 22.4885 18.9137 22.4651L13.7318 18.951C13.6702 18.9092 13.6328 18.8363 13.6328 18.7579C13.6328 18.6795 13.6702 18.6066 13.7318 18.5648L14.1774 18.0938" stroke="#000E38" stroke-width="0.4"/>
<path d="M22.2368 17.8592L22.9002 18.3573C22.9618 18.3991 22.9991 18.472 22.9991 18.5505C22.9991 18.6289 22.9618 18.7018 22.9002 18.7436L19.1396 21.2938C19.1051 21.3172 19.0659 21.3289 19.0267 21.3289C18.9875 21.3289 18.9482 21.3172 18.9137 21.2938L13.7318 17.7797C13.6702 17.7379 13.6328 17.665 13.6328 17.5866C13.6328 17.5082 13.6702 17.4352 13.7318 17.3935L14.2863 16.9209" stroke="#000E38" stroke-width="0.4"/>
<mask id="path-16-inside-1_589_79148" fill="white">
<path d="M13.7318 16.6083L18.9137 20.1224C18.9482 20.1458 18.9875 20.1575 19.0267 20.1575C19.0659 20.1575 19.1051 20.1458 19.1396 20.1224L22.9002 17.5721C22.9618 17.5304 22.9991 17.4574 22.9991 17.379C22.9991 17.3006 22.9618 17.2277 22.9002 17.1859L17.7182 13.6718C17.6492 13.625 17.5614 13.625 17.4924 13.6718L13.7318 16.222C13.6702 16.2638 13.6328 16.3367 13.6328 16.4152C13.6328 16.4936 13.6702 16.5665 13.7318 16.6083Z"/>
</mask>
<path d="M13.7318 16.6083L18.9137 20.1224C18.9482 20.1458 18.9875 20.1575 19.0267 20.1575C19.0659 20.1575 19.1051 20.1458 19.1396 20.1224L22.9002 17.5721C22.9618 17.5304 22.9991 17.4574 22.9991 17.379C22.9991 17.3006 22.9618 17.2277 22.9002 17.1859L17.7182 13.6718C17.6492 13.625 17.5614 13.625 17.4924 13.6718L13.7318 16.222C13.6702 16.2638 13.6328 16.3367 13.6328 16.4152C13.6328 16.4936 13.6702 16.5665 13.7318 16.6083Z" stroke="#000E38" stroke-width="0.8" mask="url(#path-16-inside-1_589_79148)"/>
<mask id="path-17-inside-2_589_79148" fill="white">
<path d="M18.9994 16.9551L19.7375 17.4556C19.7726 17.4794 19.8117 17.4908 19.8502 17.4908C19.9206 17.4908 19.9895 17.453 20.0297 17.3841C20.0921 17.2775 20.0624 17.1365 19.9634 17.0694L19.2252 16.5688C19.1262 16.5017 18.9954 16.5337 18.933 16.6403C18.8707 16.747 18.9004 16.8879 18.9994 16.9551Z"/>
</mask>
<path d="M18.9994 16.9551L19.7375 17.4556C19.7726 17.4794 19.8117 17.4908 19.8502 17.4908C19.9206 17.4908 19.9895 17.453 20.0297 17.3841C20.0921 17.2775 20.0624 17.1365 19.9634 17.0694L19.2252 16.5688C19.1262 16.5017 18.9954 16.5337 18.933 16.6403C18.8707 16.747 18.9004 16.8879 18.9994 16.9551Z" fill="#FFC400" stroke="#FFC400" stroke-width="0.8" mask="url(#path-17-inside-2_589_79148)"/>
<mask id="path-18-inside-3_589_79148" fill="white">
<path d="M17.6635 16.0503L18.4016 16.5508C18.4366 16.5746 18.4757 16.586 18.5143 16.586C18.5847 16.586 18.6535 16.5482 18.6938 16.4793C18.7562 16.3727 18.7264 16.2318 18.6274 16.1646L17.8893 15.6641C17.7903 15.5969 17.6594 15.6289 17.5971 15.7355C17.5347 15.8422 17.5644 15.9831 17.6635 16.0503Z"/>
</mask>
<path d="M17.6635 16.0503L18.4016 16.5508C18.4366 16.5746 18.4757 16.586 18.5143 16.586C18.5847 16.586 18.6535 16.5482 18.6938 16.4793C18.7562 16.3727 18.7264 16.2318 18.6274 16.1646L17.8893 15.6641C17.7903 15.5969 17.6594 15.6289 17.5971 15.7355C17.5347 15.8422 17.5644 15.9831 17.6635 16.0503Z" fill="#FFC400" stroke="#FFC400" stroke-width="0.8" mask="url(#path-18-inside-3_589_79148)"/>
<mask id="path-19-inside-4_589_79148" fill="white">
<path d="M18.9679 17.744L16.8952 16.3384C16.7961 16.2712 16.6653 16.3032 16.6029 16.4099C16.5406 16.5165 16.5703 16.6574 16.6693 16.7246L18.742 18.1302C18.7771 18.154 18.8162 18.1653 18.8548 18.1653C18.9251 18.1653 18.994 18.1276 19.0343 18.0587C19.0966 17.952 19.0669 17.8111 18.9679 17.744Z"/>
</mask>
<path d="M18.9679 17.744L16.8952 16.3384C16.7961 16.2712 16.6653 16.3032 16.6029 16.4099C16.5406 16.5165 16.5703 16.6574 16.6693 16.7246L18.742 18.1302C18.7771 18.154 18.8162 18.1653 18.8548 18.1653C18.9251 18.1653 18.994 18.1276 19.0343 18.0587C19.0966 17.952 19.0669 17.8111 18.9679 17.744Z" fill="#FFC400" stroke="#FFC400" stroke-width="0.8" mask="url(#path-19-inside-4_589_79148)"/>
</svg>
