<svg width="49" height="49" viewBox="0 0 49 49" fill="none" xmlns="http://www.w3.org/2000/svg">
<path d="M49 0H0V49H49V0Z" fill="white"/>
<path d="M27.0623 42.1398C26.9561 42.08 26.8529 42.0157 26.7437 41.9618C26.0855 41.6359 25.7459 41.0245 25.9239 40.3952C26.1034 39.7584 26.5537 39.3771 27.2164 39.3547C27.9164 39.3308 28.3816 39.712 28.6015 40.3713C28.796 40.9558 28.5043 41.5702 27.891 41.926C27.7654 41.9992 27.6382 42.0695 27.511 42.1412C27.3615 42.1398 27.2119 42.1398 27.0623 42.1398Z" fill="#005BAA"/>
<path d="M28.2586 6.85999C28.3633 6.92275 28.465 6.99003 28.5713 7.04687C29.0529 7.30696 29.3611 7.68818 29.2279 8.25026C29.0918 8.8243 28.661 9.13525 28.0791 9.13373C27.5555 9.13226 27.0858 8.94538 26.9437 8.36389C26.7972 7.76144 26.9692 7.28751 27.5795 7.03041C27.6648 6.99454 27.7336 6.9183 27.8099 6.85999C27.9595 6.85999 28.109 6.85999 28.2586 6.85999Z" fill="#005BAA"/>
<path d="M9.24431 27.6782C9.25931 26.424 10.3079 25.4149 11.5599 25.4538C12.8194 25.4926 13.874 26.551 13.8471 27.7499C13.8202 28.9683 12.7237 29.9998 11.4896 29.9714C10.1972 29.9415 9.22937 28.9533 9.24431 27.6782Z" fill="#005BAA"/>
<path d="M12.9528 30.1643C14.2213 30.1688 15.0979 31.0537 15.0859 32.3199C15.0754 33.4964 14.136 34.4382 12.9588 34.4547C11.7696 34.4696 10.7838 33.4905 10.7793 32.2901C10.7733 31.0567 11.6918 30.1598 12.9528 30.1643Z" fill="#005BAA"/>
<path d="M8.82036 22.5014C8.82781 21.307 9.75077 20.3712 10.9415 20.3518C12.1411 20.3323 13.1225 21.316 13.1195 22.5328C13.1165 23.7691 12.186 24.6526 10.9071 24.6332C9.66399 24.6167 8.81286 23.7467 8.82036 22.5014Z" fill="#005BAA"/>
<path d="M14.1734 17.882C14.1614 18.9613 13.2893 19.8269 12.2168 19.8239C11.1786 19.8209 10.2467 18.9045 10.2288 17.87C10.2108 16.8221 11.2041 15.8638 12.2661 15.9042C13.3746 15.9446 14.1838 16.7847 14.1734 17.882Z" fill="#005BAA"/>
<path d="M16.1831 34.0882C17.3051 34.0927 18.0979 34.8999 18.0814 36.0196C18.0665 37.0796 17.2407 37.9047 16.1861 37.9152C15.1196 37.9257 14.231 37.0496 14.2266 35.9868C14.2221 34.9045 15.0687 34.0838 16.1831 34.0882Z" fill="#005BAA"/>
<path d="M16.7314 14.1356C16.7224 15.1925 15.8982 15.9639 14.7972 15.9475C13.7112 15.931 12.8691 15.1058 12.887 14.0788C12.905 13.0458 13.7591 12.261 14.8541 12.27C15.958 12.2789 16.7404 13.0578 16.7314 14.1356Z" fill="#005BAA"/>
<path d="M21.5136 38.7913C21.518 39.8571 20.7671 40.6151 19.7035 40.618C18.6594 40.621 17.8307 39.8287 17.8262 38.8182C17.8202 37.833 18.6684 36.9794 19.6751 36.9555C20.6639 36.9331 21.509 37.7777 21.5136 38.7913Z" fill="#005BAA"/>
<path d="M16.1622 24.8362C17.1585 24.8392 18.0096 25.6973 18.0096 26.6959C18.0096 27.7274 17.1988 28.5467 16.1787 28.5481C15.1076 28.5496 14.3657 27.7962 14.3672 26.7109C14.3687 25.648 15.151 24.8318 16.1622 24.8362Z" fill="#005BAA"/>
<path d="M25.2654 40.1143C25.2504 41.0292 24.5653 41.678 23.6289 41.6645C22.7359 41.6511 21.9999 40.9185 22.0119 40.056C22.0238 39.2009 22.7867 38.4459 23.6468 38.44C24.5653 38.4355 25.2804 39.174 25.2654 40.1143Z" fill="#005BAA"/>
<path d="M17.379 12.6929C16.5159 12.6511 15.8232 11.8558 15.8891 10.9798C15.9579 10.0799 16.7193 9.38323 17.572 9.4385C18.4216 9.49382 19.1247 10.3131 19.0618 11.1741C18.996 12.089 18.278 12.7363 17.379 12.6929Z" fill="#005BAA"/>
<path d="M20.7644 33.5993C20.7704 34.4365 20.1661 35.0628 19.3374 35.0793C18.4967 35.0957 17.8041 34.4185 17.8146 33.5919C17.8265 32.7876 18.4847 32.1552 19.3059 32.1567C20.1541 32.1582 20.7584 32.7562 20.7644 33.5993Z" fill="#005BAA"/>
<path d="M24.3797 9.83498C23.551 9.82449 22.9033 9.2041 22.9347 8.45215C22.9661 7.7047 23.6692 7.07236 24.444 7.09627C25.2742 7.1217 25.8591 7.71367 25.8456 8.51198C25.8322 9.31773 25.2458 9.84693 24.3797 9.83498Z" fill="#005BAA"/>
<path d="M16.725 20.3143C15.8963 20.3247 15.286 19.7537 15.2755 18.9599C15.265 18.1601 15.8664 17.5262 16.6547 17.5098C17.4595 17.4933 18.0683 18.0824 18.0847 18.8926C18.1012 19.7372 17.5597 20.3038 16.725 20.3143Z" fill="#005BAA"/>
<path d="M20.8714 8.07101C21.7404 8.07846 22.2805 8.60918 22.27 9.4433C22.261 10.2267 21.6268 10.8202 20.8175 10.8037C19.9993 10.7887 19.3964 10.1818 19.4084 9.38803C19.4234 8.57179 19.9873 8.06199 20.8714 8.07101Z" fill="#005BAA"/>
<path d="M21.8112 25.8123C21.8112 26.633 21.2503 27.1712 20.3932 27.1742C19.533 27.1772 18.9736 26.642 18.9766 25.8183C18.9796 25.032 19.6108 24.4041 20.3916 24.4116C21.2009 24.4191 21.8112 25.023 21.8112 25.8123Z" fill="#005BAA"/>
<path d="M21.6271 18.9658C21.6286 19.6744 21.0527 20.2873 20.3885 20.2858C19.7124 20.2843 19.1694 19.6893 19.1739 18.9538C19.1784 18.2108 19.7124 17.6398 20.399 17.6428C21.0796 17.6458 21.6241 18.2333 21.6271 18.9658Z" fill="#005BAA"/>
<path d="M24.7719 18.8943C24.7749 19.5386 24.1736 20.1335 23.5304 20.1246C22.9155 20.1156 22.3426 19.5565 22.3172 18.9406C22.2918 18.2993 22.8737 17.6834 23.5199 17.6685C24.1586 17.652 24.7675 18.25 24.7719 18.8943Z" fill="#005BAA"/>
<path d="M34.3405 38.1754C34.9508 38.1769 35.5462 38.7614 35.5477 39.3609C35.5492 39.9887 35.0077 40.5 34.3375 40.5015C33.636 40.5029 33.1543 40.0396 33.1543 39.3609C33.1543 38.7255 33.7078 38.1724 34.3405 38.1754Z" fill="#005BAA"/>
<path d="M32.2543 40.2849C32.2513 40.9113 31.6679 41.4688 31.0367 41.4509C30.3845 41.4315 29.9118 40.9591 29.8968 40.3118C29.8819 39.6092 30.3441 39.1338 31.0456 39.1293C31.7128 39.1263 32.2558 39.6451 32.2543 40.2849Z" fill="#005BAA"/>
<path d="M31.0769 7.35192C31.6947 7.32948 32.2482 7.82879 32.2721 8.43125C32.2975 9.06511 31.8338 9.53899 31.1652 9.56589C30.4845 9.59132 29.9714 9.17272 29.9341 8.55684C29.8922 7.91101 30.3993 7.37584 31.0769 7.35192Z" fill="#005BAA"/>
<path d="M23.0587 25.2608C23.0512 24.6165 23.5583 24.0813 24.1626 24.0948C24.7326 24.1082 25.2217 24.6299 25.2277 25.2324C25.2337 25.8633 24.7057 26.4179 24.1148 26.3999C23.5329 26.3835 23.0662 25.8797 23.0587 25.2608Z" fill="#005BAA"/>
<path d="M23.4483 31.7622C23.4424 32.3631 22.9368 32.8519 22.3429 32.8295C21.7984 32.8086 21.2868 32.3033 21.2719 31.7711C21.2554 31.2135 21.7924 30.6753 22.3713 30.6664C22.9697 30.6589 23.4528 31.1507 23.4483 31.7622Z" fill="#005BAA"/>
<path d="M28.0035 25.3877C27.3603 25.3832 26.9414 24.993 26.9414 24.3981C26.9414 23.8434 27.4216 23.3606 27.987 23.3456C28.5764 23.3307 29.1239 23.8539 29.1075 24.416C29.091 24.9766 28.6198 25.3907 28.0035 25.3877Z" fill="#005BAA"/>
<path d="M37.9553 37.7104C37.9658 38.2725 37.5484 38.691 36.9725 38.6716C36.3847 38.6522 36.0541 38.3442 36.0451 37.7447C36.0361 37.1498 36.3458 36.8224 36.9366 36.785C37.517 36.7476 37.9448 37.1483 37.9553 37.7104Z" fill="#005BAA"/>
<path d="M25.5918 18.9839C25.6755 18.4861 25.8835 18.0929 26.4759 18.0929C27.0533 18.0929 27.3255 18.4218 27.3389 18.9809C27.3524 19.543 26.95 20.0124 26.4594 19.9556C25.9179 19.8913 25.6531 19.5295 25.5918 18.9839Z" fill="#005BAA"/>
<path d="M25.9377 29.7589C26.3999 29.8008 26.729 30.1117 26.7095 30.6589C26.6901 31.2045 26.346 31.5065 25.7821 31.4975C25.1972 31.4885 24.9055 31.1253 24.9205 30.5991C24.9339 30.0639 25.266 29.7455 25.9377 29.7589Z" fill="#005BAA"/>
<path d="M32.1308 23.5716C32.0934 24.0739 31.857 24.4536 31.2841 24.4552C30.7023 24.4581 30.3776 24.0067 30.4599 23.5417C30.5183 23.2054 30.9371 22.7495 31.2647 22.6822C31.7658 22.579 32.1054 22.9782 32.1308 23.5716Z" fill="#005BAA"/>
<path d="M29.0146 19.2692C28.4238 19.2617 28.1276 18.9702 28.1231 18.3977C28.1186 17.8714 28.3729 17.5471 28.9084 17.5097C29.4873 17.4708 29.8104 17.8221 29.8404 18.3453C29.8673 18.8715 29.5801 19.2333 29.0146 19.2692Z" fill="#005BAA"/>
<path d="M34.6129 10.2715C33.7827 10.2954 33.4626 9.97401 33.4551 9.43883C33.4492 8.90066 33.8216 8.48509 34.3347 8.58677C34.6743 8.654 35.123 9.06511 35.1948 9.39252C35.301 9.87983 34.936 10.2551 34.6129 10.2715Z" fill="#005BAA"/>
<path d="M34.3766 22.0827C34.9061 22.3503 34.9196 23.1082 34.4215 23.4296C34.3482 23.4775 34.2749 23.5104 34.1971 23.5238C33.7154 23.6075 33.3564 23.1934 33.4372 22.7465C33.488 22.458 33.8904 22.0633 34.1686 22.0334C34.233 22.0259 34.3018 22.0454 34.3766 22.0827Z" fill="#005BAA"/>
<path d="M29.0739 29.2716C29.6034 29.5392 29.6168 30.2971 29.1187 30.6185C29.0454 30.6664 28.9721 30.6993 28.8943 30.7127C28.4127 30.7964 28.0537 30.3823 28.1344 29.9353C28.1853 29.6468 28.5877 29.2522 28.8659 29.2223C28.9302 29.2163 28.999 29.2342 29.0739 29.2716Z" fill="#005BAA"/>
<path d="M32.2116 17.4094C32.1772 17.9446 31.8137 18.0552 31.5444 18.1031C31.1301 18.1778 30.7531 17.8638 30.8518 17.3855C30.8563 17.3615 30.8638 17.3391 30.8713 17.3152C31.0358 16.8323 31.682 16.7232 32.0321 17.094C32.1443 17.2166 32.216 17.3317 32.2116 17.4094Z" fill="#005BAA"/>
<path d="M36.0268 10.6857C36.2856 10.1954 37.02 10.2193 37.2534 10.7216C37.2878 10.7963 37.3043 10.8636 37.2953 10.9294C37.2609 11.1835 36.8495 11.5647 36.6057 11.5632C36.3768 11.5602 35.9909 11.1402 35.973 10.8831C35.97 10.8188 35.9894 10.7545 36.0268 10.6857Z" fill="#005BAA"/>
<path d="M38.803 35.452C39.2473 35.7196 39.1935 36.4117 38.7028 36.5822C38.646 36.6016 38.5936 36.6106 38.5428 36.6031C38.4889 36.5956 38.438 36.5732 38.3872 36.5403C38.0282 36.3056 38.0312 35.7734 38.3722 35.5148C38.4515 35.455 38.5353 35.4117 38.6206 35.3997C38.6759 35.3922 38.7357 35.4132 38.803 35.452Z" fill="#005BAA"/>
<path d="M33.5925 29.2058C34.0802 29.4211 34.0607 30.1341 33.576 30.3554C33.5132 30.3838 33.4549 30.3973 33.3995 30.3898C33.1646 30.3569 32.8505 30.191 32.8191 29.7485C32.8057 29.5511 32.9762 29.1954 33.4399 29.1759C33.4893 29.1744 33.5386 29.1834 33.5925 29.2058Z" fill="#005BAA"/>
<path d="M31.4967 29.1284C31.9844 29.3437 31.965 30.0567 31.4803 30.278C31.4175 30.3064 31.3592 30.3199 31.3038 30.3124C31.0689 30.2795 30.7548 30.1136 30.7234 29.6711C30.71 29.4737 30.8805 29.1179 31.3442 29.0985C31.3936 29.0955 31.4429 29.1045 31.4967 29.1284Z" fill="#005BAA"/>
<path d="M33.9577 16.4754C33.7229 16.8716 33.1275 16.8805 32.8822 16.4904C32.8403 16.4246 32.8223 16.3648 32.8268 16.308C32.8508 15.9103 33.1993 15.7549 33.4042 15.7564C33.6196 15.7579 33.9757 15.9149 34.0086 16.2946C34.013 16.3499 33.9981 16.4081 33.9577 16.4754Z" fill="#005BAA"/>
<path d="M38.1357 12.4959C38.363 12.0998 38.951 12.0759 39.1978 12.4616C39.2397 12.5274 39.2516 12.5871 39.2576 12.6439C39.2965 13.0102 39.0676 13.1956 38.7071 13.2135C38.3511 13.2314 38.1506 13.0805 38.0848 12.6888C38.0743 12.632 38.0938 12.5692 38.1357 12.4959Z" fill="#005BAA"/>
<path d="M35.1426 15.0358C35.3655 14.7159 35.9758 14.6112 36.1089 15.2256C36.1568 15.4454 35.9264 15.7204 35.5375 15.7234C35.2368 15.7264 35.0902 15.3901 35.0843 15.1972C35.0813 15.1449 35.1037 15.0926 35.1426 15.0358Z" fill="#005BAA"/>
<path d="M39.6973 13.8938C39.9202 13.5739 40.5305 13.4692 40.6636 14.0836C40.7115 14.3034 40.4812 14.5785 40.0922 14.5815C39.7915 14.5845 39.6449 14.2481 39.6389 14.0553C39.6359 14.0029 39.6584 13.9506 39.6973 13.8938Z" fill="#005BAA"/>
<path d="M36.1465 21.8166C36.3694 21.4967 36.9797 21.392 37.1128 22.0064C37.1607 22.2262 36.9304 22.5013 36.5414 22.5042C36.2407 22.5072 36.0941 22.1709 36.0882 21.978C36.0852 21.9257 36.1076 21.8719 36.1465 21.8166Z" fill="#005BAA"/>
<path d="M35.2129 29.4182C35.4358 29.0983 36.0461 28.9937 36.1792 29.6081C36.2271 29.8278 35.9967 30.1029 35.6078 30.1059C35.3071 30.1088 35.1605 29.7725 35.1546 29.5796C35.1516 29.5273 35.174 29.4735 35.2129 29.4182Z" fill="#005BAA"/>
</svg>
