<svg width="49" height="49" viewBox="0 0 49 49" fill="none" xmlns="http://www.w3.org/2000/svg">
<path d="M18.1207 34.79L9.31055 34.7801L9.32045 25.97L18.1305 25.9799L18.1207 34.79Z" fill="black"/>
<path d="M10.4801 43.0395H9.31055V38.71H13.518V43.0395H12.3491V39.5505H10.4801V43.0395ZM14.0845 39.8133V44.1H15.161V42.6332C15.5217 43.0428 16.1096 43.0741 16.2519 43.0741C17.2787 43.0741 17.9086 42.3884 17.9086 41.3903C17.9086 40.3518 17.2857 39.6957 16.2727 39.6957C16.0179 39.6957 15.5217 39.7389 15.112 40.1901H15.0896L15.0975 39.8133H14.0845ZM15.1121 41.3788C15.1121 40.5004 15.6283 40.3283 15.9535 40.3283C16.2727 40.3283 16.7897 40.5004 16.7897 41.3788C16.7897 41.9228 16.5708 42.4429 15.9535 42.4429C15.3236 42.4429 15.112 41.9228 15.112 41.3788H15.1121ZM20.5788 42.5787C20.1822 42.9694 19.7994 43.0741 19.375 43.0741C18.2138 43.0741 18.1702 42.1585 18.1702 41.7814V39.8133H19.2471V41.6329C19.2471 42.2571 19.4534 42.4431 19.8495 42.4431C20.5298 42.4431 20.5788 41.8052 20.5788 41.576V39.8133H21.6544V42.9557H20.5788V42.5787ZM23.1984 41.6329H23.8573C24.3671 41.6329 24.4739 41.7923 24.4739 42.003C24.4739 42.1398 24.403 42.3246 23.8717 42.3246H23.1987V41.6329H23.1984ZM22.1229 39.8133V42.956H24.2607C25.0404 42.956 25.5784 42.7952 25.5784 42.1537C25.5784 41.6574 25.316 41.4404 24.721 41.3298V41.3108C25.1102 41.2556 25.4506 41.0005 25.4506 40.5743C25.4506 39.8135 24.6004 39.8135 24.2684 39.8135H22.1229V39.8133ZM23.1984 40.4444H23.7792C24.0845 40.4444 24.3459 40.4937 24.3459 40.7538C24.3459 41.0382 23.9354 41.0449 23.7586 41.0449H23.1984V40.4442V40.4444ZM26.9388 40.8282C26.9388 40.3641 27.4045 40.3283 27.5965 40.3283C27.7173 40.3283 28.1639 40.3343 28.177 40.7425V40.8282C28.1562 41.1383 27.8732 41.0747 27.0798 41.181C26.4274 41.2734 25.7419 41.4472 25.7419 42.1645C25.7419 42.4246 25.8472 43.0741 26.9948 43.0741C27.4341 43.0741 27.9152 42.956 28.1987 42.6461H28.2201L28.3119 42.9557H29.4441V42.9012C29.2395 42.8571 29.2264 42.6461 29.2329 42.3073L29.2542 40.8714C29.2609 40.5066 29.2264 39.6957 27.6033 39.6957C27.2148 39.6957 25.9608 39.7328 25.9114 40.8282H26.9388ZM28.1849 41.6571C28.1849 42.2883 27.6609 42.4431 27.3975 42.4431C27.201 42.4431 26.8462 42.3747 26.8462 42.0773C26.8462 41.7248 27.2496 41.6574 27.4766 41.6269C27.8942 41.564 27.8592 41.582 28.1849 41.4587V41.6571ZM29.3743 40.4442V39.813H32.8305V40.4442H31.6411V42.956H30.5638V40.4442H29.3743Z" fill="#74B027"/>
<path d="M9.31055 35.28H21.0705V23.52H9.31055V35.28Z" fill="#363636"/>
<path d="M33.4082 11.4674V28.7136H30.9904C29.9417 20.1862 24.4045 14.8292 15.5909 13.813V11.4674H33.4092H33.4082ZM9.31055 5.39001V19.6962H12.4517C20.7151 19.6962 24.909 23.752 24.909 31.7513V34.79H39.6905V5.39001H9.31055Z" fill="#74B027"/>
<path d="M36.2948 41.8806V42.63H33.4668C33.4974 42.3467 33.5893 42.0787 33.7424 41.8261C33.8955 41.5715 34.198 41.2346 34.6497 40.8155C35.0134 40.4767 35.2364 40.247 35.3187 40.1264C35.4297 39.9599 35.4852 39.7952 35.4852 39.6326C35.4852 39.4526 35.4364 39.3149 35.3387 39.2192C35.243 39.1215 35.11 39.0727 34.9397 39.0727C34.7712 39.0727 34.6373 39.1235 34.5377 39.2249C34.4382 39.3263 34.3808 39.4948 34.3655 39.7302L33.5616 39.6498C33.6094 39.2057 33.7597 38.887 34.0123 38.6937C34.265 38.5004 34.5808 38.4037 34.9598 38.4037C35.3752 38.4037 35.7015 38.5157 35.9388 38.7396C36.1762 38.9636 36.2948 39.2421 36.2948 39.5751C36.2948 39.7646 36.2604 39.9455 36.1915 40.1178C36.1245 40.2881 36.0173 40.4671 35.8699 40.6547C35.7723 40.7791 35.5962 40.9581 35.3416 41.1916C35.0871 41.4251 34.9253 41.5801 34.8564 41.6567C34.7894 41.7332 34.7349 41.8079 34.6928 41.8806H36.2948ZM38.4252 42.63V41.783H36.7025V41.0767L38.5285 38.4037H39.2061V41.0739H39.7287V41.783H39.2061V42.63H38.4252ZM38.4252 41.0739V39.6355L37.4576 41.0739H38.4252Z" fill="#363636"/>
</svg>
