<svg width="49" height="49" viewBox="0 0 49 49" fill="none" xmlns="http://www.w3.org/2000/svg">
<g clip-path="url(#clip0_603_89886)">
<path d="M18.9219 12.2876C27.7419 11.8352 31.5865 4.59832 36.4111 3.2414C41.6126 1.73371 46.0603 6.55832 47.4173 11.0814C51.865 25.9322 41.3111 44.9291 24.8773 44.326C37.5419 39.9537 47.1157 25.4045 42.3665 11.8352C41.1603 8.51832 38.8234 6.40755 35.6573 8.06602C30.3803 10.7799 25.1788 14.0214 18.9219 12.2876Z" fill="#82AF10"/>
<path d="M47.2672 12.363C46.5133 8.51837 43.121 4.74914 39.3518 4.14606C38.8995 4.07068 37.3918 3.91991 36.5626 4.07068C34.9041 4.4476 33.3964 5.4276 31.2856 7.08606C30.0795 7.99068 28.9487 8.97068 27.5918 9.87529C28.798 9.27221 29.8533 8.66914 30.9087 8.06606C32.9441 6.85991 34.9795 5.27683 36.8641 5.05068C37.4672 4.97529 38.0703 4.97529 38.598 5.05068C42.518 5.65375 45.1564 9.49837 45.9103 13.6445C47.3426 21.4091 45.9856 31.5861 38.8995 37.4661C36.638 39.3507 34.5272 41.0845 31.8887 42.2153C30.5318 42.8938 29.401 43.1953 27.9687 43.5722C33.6226 42.5922 39.5026 39.1999 42.9703 34.2245C48.6995 25.9322 48.1718 16.8861 47.2672 12.363Z" fill="#F3F7E7"/>
<path d="M29.7776 12.6644C27.6669 14.3983 25.1792 15.906 22.4653 16.509C18.47 17.2629 15.6053 15.3783 12.2884 13.569C4.67457 9.49828 5.35303 21.8614 6.33303 26.0075C7.91611 32.7167 11.4592 39.8783 17.3392 43.7229C23.4453 47.7183 30.23 46.0598 36.3361 43.1198C30.7576 48.4721 22.9176 50.8091 15.6807 47.266C7.4638 43.346 2.41303 33.9983 0.905336 25.329C-0.150048 19.0721 0.754567 7.99059 9.57457 8.51828C13.7207 8.81982 15.8315 12.5137 19.45 13.8706C22.8423 15.1521 26.5361 13.8706 29.7776 12.6644Z" fill="#2C3F20"/>
<path d="M22.9926 47.6431C20.5803 47.5677 18.6203 46.9646 16.4341 45.9093C7.68949 41.6877 3.61872 31.8123 2.41257 23.6708C1.80949 18.9969 2.63872 12.8908 5.72949 9.80002C4.97564 10.1769 3.61872 11.76 3.16641 12.8154C1.2818 17.1877 1.20641 20.7308 1.96026 25.1785C3.2418 33.0185 7.76488 42.4416 16.208 46.5877C18.3941 47.6431 20.5803 48.3216 22.9172 48.3216C26.6864 48.3216 29.928 47.4169 33.0941 45.2308C32.868 45.3062 32.6418 45.3816 32.4156 45.4569C29.551 46.8892 26.0833 47.7939 22.9926 47.6431Z" fill="#EAEFDA"/>
<path d="M28.7229 0.979876C28.7229 0.904491 28.6475 0.150645 28.6475 0.150645C28.2706 0.150645 27.969 0.0752602 27.5921 0.0752602C25.9337 -0.075509 24.1998 -0.075509 22.5414 0.226029C20.9583 0.452183 19.2998 0.979876 17.9429 1.95988C16.586 2.93988 15.8321 4.52295 15.9075 6.18141C15.9829 7.83988 16.8121 9.34757 17.8675 10.6291C17.4906 9.34757 17.1137 7.99065 17.189 6.55834C17.2644 5.35218 17.8675 4.2968 18.9229 3.61834C20.0537 2.86449 21.4106 2.56295 22.6921 2.3368C24.049 2.11064 25.406 2.03526 26.6875 2.03526C26.5367 2.78911 25.8583 3.3168 25.2552 3.76911C24.5767 4.2968 23.7475 4.74911 22.9937 5.2768C21.6367 6.2568 20.2798 7.53834 20.0537 9.27218C21.109 7.31218 23.1444 6.48295 25.1044 5.65372C26.0844 5.20141 27.0644 4.67372 27.7429 3.91988C28.4967 3.16603 28.7983 2.03526 28.7229 0.979876Z" fill="#82AF10"/>
<path d="M17.1888 9.19678C16.6611 8.29216 16.2842 7.31216 16.2088 6.18139C16.1334 4.6737 16.8119 3.24139 18.0934 2.26139C19.2242 1.43216 20.6565 0.829084 22.5411 0.527545C23.4457 0.376776 24.5011 0.301392 25.5565 0.301392C26.1596 0.301392 26.838 0.301392 27.5165 0.376776C27.7426 0.376776 27.9688 0.452161 28.2703 0.452161H28.4211C28.4211 0.60293 28.4211 0.829084 28.4211 0.904469C28.4211 0.979853 28.4211 1.05524 28.4211 1.05524C28.4965 2.11062 28.195 3.09062 27.5165 3.84447C26.838 4.59831 25.7826 5.12601 24.9534 5.57831C24.8026 5.6537 24.5765 5.72908 24.4257 5.80447C23.2196 6.40755 21.938 6.93524 20.958 7.83985C21.4103 7.08601 22.1642 6.40755 23.1442 5.6537C23.4457 5.42755 23.8226 5.20139 24.1242 4.97524C24.5011 4.6737 24.9534 4.44755 25.3303 4.14601C26.0088 3.6937 26.6873 3.09062 26.838 2.26139L26.9134 1.88447H26.5365C24.9534 1.88447 23.6719 2.03524 22.4657 2.18601C21.2596 2.33678 19.8273 2.7137 18.6211 3.46755C17.4903 4.22139 16.8873 5.27678 16.7365 6.6337C16.8873 7.46293 16.9626 8.29216 17.1888 9.19678Z" fill="#82AF10"/>
</g>
<defs>
<clipPath id="clip0_603_89886">
<rect width="49" height="49" fill="white"/>
</clipPath>
</defs>
</svg>
