<svg width="49" height="49" viewBox="0 0 49 49" fill="none" xmlns="http://www.w3.org/2000/svg">
<path d="M49 0H0V49H49V0Z" fill="white"/>
<path fill-rule="evenodd" clip-rule="evenodd" d="M25.9773 7.48303C35.3987 7.48303 43.0351 15.2185 43.0351 24.5408C43.0351 33.9623 35.2996 41.5986 25.9773 41.5986C16.5558 41.6978 8.82031 34.0615 8.82031 24.5408C8.82031 15.2185 16.5558 7.48303 25.9773 7.48303Z" fill="#D43B43"/>
<path fill-rule="evenodd" clip-rule="evenodd" d="M38.9678 18.5906H39.1661C39.0669 19.0864 38.8686 19.3839 38.5711 19.6815C38.1744 19.8798 37.7777 19.979 37.0835 19.979H36.4884C34.3066 19.8798 33.8107 22.1608 34.0091 23.9459C34.2074 25.0368 34.6041 26.1277 35.1992 26.9211C35.7942 27.5162 36.5876 27.9128 37.381 27.3178C37.976 26.8219 38.1744 25.6319 38.1744 25.0368C38.1744 23.8468 37.7777 22.0616 36.2901 22.0616C35.8934 22.0616 35.4967 22.26 35.1 22.6566C34.9017 22.9542 34.8025 23.5492 34.8025 24.2434H34.505C34.3066 22.855 35.0008 21.6649 36.4884 21.5658C38.2735 21.5658 39.3644 22.9542 39.3644 24.7393C39.3644 26.5244 38.2735 28.2104 36.4884 28.2104C35.4967 28.2104 34.8025 27.9128 34.2074 27.1195C33.6124 26.4252 33.4141 25.3343 33.4141 23.9459C33.4141 22.1608 33.7116 21.0699 34.2074 20.2765C34.8025 19.4831 35.4967 19.0864 36.5876 19.0864H37.4801C38.0752 19.1856 38.4719 19.0864 38.6702 18.9872C38.7694 18.8881 38.9678 18.7889 38.9678 18.5906Z" fill="white"/>
<path fill-rule="evenodd" clip-rule="evenodd" d="M26.4732 21.566L28.655 26.4256L30.6384 21.9627L30.8368 21.566H32.5227V21.7644H32.3244C32.126 21.7644 31.8285 21.9627 31.8285 22.2603V25.9297V27.4173C31.8285 27.7148 32.0269 27.9132 32.3244 27.9132H32.5227V28.0123H31.4318H30.2417V27.814H30.4401C30.6384 27.814 30.9359 27.6156 30.9359 27.3181V25.8305V22.5578L28.4566 28.0123H28.3575L25.9773 22.4586V27.3181C25.9773 27.6156 26.1756 27.814 26.374 27.814H26.4732V28.0123H25.3822H24.7872V27.814H24.9856C25.1839 27.814 25.4814 27.6156 25.4814 27.3181V22.2603C25.4814 21.9627 25.3822 21.7644 24.9856 21.7644C24.688 21.7644 24.3905 22.0619 24.1922 22.4586L21.9112 27.5165C21.7129 27.9132 21.4153 28.1115 21.0186 28.1115L20.5227 28.0123L20.4236 27.3181C20.6219 27.5165 20.8203 27.6156 20.9194 27.6156C21.217 27.7148 21.4153 27.6156 21.5145 27.4173L21.812 26.8222L19.7294 22.5578C19.531 22.1611 19.3327 21.8636 19.0352 21.8636V21.6652H20.2252H21.1178V21.8636H20.9194C20.7211 21.8636 20.7211 22.1611 20.8203 22.3594L22.407 25.7313L23.8946 22.5578C24.093 22.2603 23.8946 21.9627 23.6963 21.9627V21.7644H26.4732V21.566Z" fill="white"/>
<path fill-rule="evenodd" clip-rule="evenodd" d="M17.0522 25.9294V22.26V22.0617H14.0771V22.3592V26.0286V27.5162C14.0771 27.8137 14.2754 28.012 14.4737 28.012H14.6721H13.5812H12.4902V27.8137H12.5894C12.7878 27.8137 12.9861 27.6154 12.9861 27.3179V25.8303V22.1608C12.9861 21.8633 12.7878 21.665 12.5894 21.665H12.4902V21.4666H13.5812H13.7795H14.7712H16.4572H17.2506H17.5481H18.639V21.665H18.5398C18.3415 21.665 18.1431 21.8633 18.1431 22.1608V25.8303V27.3179C18.1431 27.6154 18.3415 27.8137 18.5398 27.8137H18.7382V28.012H17.6473H16.4572V27.8137H16.6555C16.8539 27.8137 17.0522 27.6154 17.0522 27.3179V25.9294Z" fill="white"/>
</svg>
