<svg width="440" height="275" viewBox="0 0 440 275" fill="none" xmlns="http://www.w3.org/2000/svg">
<path fill-rule="evenodd" clip-rule="evenodd" d="M220.209 0.230469C266.023 0.230469 303.155 36.3325 303.155 80.8623C303.155 125.392 266.012 161.483 220.209 161.483C174.407 161.483 137.264 125.381 137.264 80.8623C137.264 36.3325 174.407 0.230469 220.209 0.230469Z" fill="#FFC600"/>
<path fill-rule="evenodd" clip-rule="evenodd" d="M241.125 75.6418L251.766 81.5504L219.842 99.2761L209.201 93.3676C219.831 87.459 230.484 81.5504 241.125 75.6418ZM187.907 81.5504L230.484 57.9054C223.386 53.9628 216.288 50.0309 209.201 46.0883L219.842 40.1797L273.06 69.7333L262.418 75.6418L241.125 63.814L198.549 87.459L187.907 81.5504ZM209.19 57.9054L177.266 75.6418L166.625 69.7333L198.549 52.0075L209.19 57.9054ZM166.625 93.4317L219.842 122.985L273.06 93.4317L262.385 87.5017L219.842 111.125L177.3 87.5017L166.625 93.4317Z" fill="#071D49"/>
<path d="M33.7172 195.601C33.7172 196.24 33.687 196.79 33.6342 197.238C33.5738 197.693 33.4908 198.053 33.3776 198.331C33.2643 198.61 33.1209 198.808 32.9549 198.941C32.7813 199.073 32.6001 199.139 32.3888 199.139H21.3535V233.675C21.3535 233.895 21.278 234.093 21.1346 234.27C20.9836 234.446 20.7421 234.592 20.4024 234.703C20.0628 234.813 19.6023 234.901 19.0211 234.967C18.4399 235.033 17.7229 235.07 16.8548 235.07C15.9944 235.07 15.2697 235.04 14.6961 234.967C14.1149 234.901 13.6545 234.813 13.3148 234.703C12.9751 234.592 12.7336 234.446 12.5826 234.27C12.4317 234.093 12.3637 233.895 12.3637 233.675V199.139H1.32847C1.10203 199.139 0.905772 199.073 0.747263 198.941C0.588754 198.808 0.452882 198.603 0.339661 198.331C0.22644 198.053 0.143414 197.693 0.0830292 197.238C0.0226447 196.783 0 196.24 0 195.601C0 194.941 0.0301927 194.376 0.0830292 193.913C0.135866 193.451 0.22644 193.084 0.339661 192.805C0.452882 192.526 0.588754 192.328 0.747263 192.211C0.905772 192.086 1.10203 192.027 1.32847 192.027H32.3888C32.5926 192.027 32.7813 192.086 32.9549 192.211C33.1285 192.336 33.2643 192.534 33.3776 192.805C33.4908 193.084 33.5738 193.451 33.6342 193.913C33.6946 194.376 33.7172 194.941 33.7172 195.601Z" fill="#071D49"/>
<path d="M67.5614 231.458C67.5614 232.097 67.5312 232.633 67.4784 233.066C67.418 233.498 67.335 233.843 67.2218 234.108C67.1085 234.372 66.9651 234.563 66.7991 234.687C66.6255 234.812 66.4443 234.871 66.2329 234.871H44.0944C43.3472 234.871 42.7131 234.658 42.2074 234.225C41.7017 233.792 41.4375 233.095 41.4375 232.126V194.772C41.4375 193.803 41.6941 193.098 42.2074 192.665C42.7207 192.232 43.3472 192.02 44.0944 192.02H66.0971C66.3009 192.02 66.482 192.078 66.6405 192.188C66.799 192.298 66.9349 192.489 67.0481 192.768C67.1614 193.047 67.2444 193.399 67.3048 193.825C67.3576 194.258 67.3878 194.801 67.3878 195.461C67.3878 196.078 67.3576 196.606 67.3048 197.032C67.2444 197.465 67.1614 197.81 67.0481 198.074C66.9349 198.338 66.799 198.536 66.6405 198.654C66.482 198.779 66.3009 198.837 66.0971 198.837H50.3669V209.31H63.6817C63.8855 209.31 64.0742 209.368 64.2478 209.493C64.4214 209.618 64.5573 209.801 64.6705 210.058C64.7837 210.315 64.8667 210.653 64.9271 211.086C64.98 211.519 65.0102 212.04 65.0102 212.656C65.0102 213.295 64.98 213.823 64.9271 214.249C64.8667 214.667 64.7837 215.005 64.6705 215.262C64.5573 215.518 64.4139 215.695 64.2478 215.805C64.0742 215.915 63.893 215.973 63.6817 215.973H50.3669V228.06H66.2329C66.4367 228.06 66.6255 228.119 66.7991 228.244C66.9727 228.369 67.1085 228.559 67.2218 228.824C67.335 229.088 67.418 229.433 67.4784 229.866C67.5312 230.284 67.5614 230.82 67.5614 231.458Z" fill="#071D49"/>
<path d="M107.43 228.378C107.43 228.928 107.415 229.398 107.377 229.787C107.347 230.176 107.294 230.506 107.226 230.778C107.158 231.057 107.067 231.291 106.954 231.49C106.841 231.688 106.66 231.915 106.411 232.165C106.162 232.422 105.679 232.745 104.962 233.141C104.244 233.537 103.369 233.919 102.342 234.286C101.308 234.653 100.131 234.953 98.8023 235.196C97.4739 235.438 96.0397 235.563 94.4924 235.563C91.4731 235.563 88.7483 235.108 86.3178 234.205C83.8873 233.302 81.8192 231.945 80.1208 230.147C78.415 228.349 77.1092 226.103 76.2034 223.41C75.2976 220.716 74.8447 217.583 74.8447 214.009C74.8447 210.368 75.3429 207.132 76.3468 204.307C77.3432 201.481 78.7395 199.111 80.536 197.188C82.3324 195.265 84.4836 193.812 86.9896 192.814C89.4955 191.823 92.2657 191.324 95.2849 191.324C96.5077 191.324 97.6927 191.427 98.825 191.625C99.9572 191.823 101.006 192.08 101.972 192.403C102.939 192.726 103.807 193.093 104.577 193.511C105.346 193.929 105.89 194.289 106.192 194.59C106.501 194.891 106.705 195.133 106.818 195.339C106.932 195.537 107.022 195.794 107.09 196.102C107.158 196.41 107.211 196.777 107.241 197.195C107.271 197.614 107.294 198.135 107.294 198.751C107.294 199.412 107.271 199.977 107.226 200.439C107.181 200.901 107.098 201.276 106.984 201.562C106.871 201.848 106.735 202.061 106.577 202.193C106.418 202.325 106.237 202.391 106.033 202.391C105.694 202.391 105.263 202.2 104.743 201.811C104.222 201.422 103.543 200.997 102.72 200.52C101.889 200.043 100.901 199.617 99.7609 199.228C98.6136 198.839 97.2474 198.648 95.6548 198.648C93.9036 198.648 92.3487 198.993 90.975 199.69C89.6012 200.388 88.4313 201.378 87.4651 202.67C86.4989 203.962 85.7668 205.525 85.2686 207.352C84.7705 209.187 84.5214 211.249 84.5214 213.546C84.5214 216.063 84.7855 218.243 85.3214 220.085C85.8574 221.927 86.6122 223.446 87.601 224.635C88.5898 225.824 89.7824 226.712 91.1788 227.299C92.5752 227.886 94.1451 228.18 95.8963 228.18C97.4889 228.18 98.8551 227.996 100.018 227.637C101.172 227.27 102.169 226.873 102.999 226.426C103.829 225.985 104.509 225.589 105.045 225.237C105.58 224.885 105.988 224.709 106.29 224.709C106.516 224.709 106.698 224.753 106.833 224.841C106.969 224.929 107.083 225.105 107.173 225.369C107.264 225.633 107.332 226.007 107.377 226.477C107.407 226.954 107.43 227.585 107.43 228.378Z" fill="#071D49"/>
<path d="M150.772 233.674C150.772 233.894 150.696 234.092 150.553 234.268C150.402 234.444 150.161 234.591 149.821 234.701C149.481 234.811 149.028 234.899 148.462 234.965C147.896 235.031 147.179 235.068 146.319 235.068C145.435 235.068 144.703 235.039 144.122 234.965C143.541 234.899 143.088 234.811 142.763 234.701C142.431 234.591 142.197 234.444 142.046 234.268C141.895 234.092 141.827 233.894 141.827 233.674V216.354H125.335V233.674C125.335 233.894 125.267 234.092 125.131 234.268C124.995 234.444 124.754 234.591 124.414 234.701C124.074 234.811 123.621 234.899 123.055 234.965C122.489 235.031 121.765 235.068 120.874 235.068C120.013 235.068 119.289 235.039 118.715 234.965C118.134 234.899 117.674 234.811 117.334 234.701C116.994 234.591 116.745 234.444 116.602 234.268C116.451 234.092 116.383 233.894 116.383 233.674V193.215C116.383 192.995 116.458 192.796 116.602 192.62C116.745 192.444 116.994 192.297 117.334 192.187C117.674 192.077 118.134 191.989 118.715 191.923C119.296 191.857 120.013 191.82 120.874 191.82C121.757 191.82 122.489 191.85 123.055 191.923C123.621 191.996 124.074 192.077 124.414 192.187C124.754 192.297 124.995 192.444 125.131 192.62C125.267 192.796 125.335 192.995 125.335 193.215V208.942H141.82V193.215C141.82 192.995 141.895 192.796 142.039 192.62C142.182 192.444 142.424 192.297 142.756 192.187C143.088 192.077 143.541 191.989 144.114 191.923C144.696 191.857 145.428 191.82 146.311 191.82C147.171 191.82 147.889 191.85 148.455 191.923C149.021 191.996 149.474 192.077 149.813 192.187C150.153 192.297 150.394 192.444 150.545 192.62C150.696 192.796 150.764 192.995 150.764 193.215V233.674H150.772Z" fill="#071D49"/>
<path d="M199.226 231.825C199.226 232.331 199.136 232.786 198.955 233.183C198.773 233.579 198.532 233.909 198.222 234.174C197.913 234.438 197.551 234.629 197.135 234.753C196.713 234.871 196.29 234.937 195.86 234.937H192.048C191.255 234.937 190.569 234.863 189.987 234.702C189.406 234.548 188.878 234.269 188.387 233.858C187.897 233.447 187.429 232.897 186.976 232.199C186.523 231.502 186.01 230.607 185.443 229.499L174.476 209.464C173.842 208.275 173.193 206.983 172.536 205.603C171.879 204.224 171.283 202.881 170.762 201.582H170.694C170.785 203.174 170.853 204.752 170.898 206.33C170.943 207.908 170.966 209.537 170.966 211.21V233.623C170.966 233.843 170.906 234.041 170.777 234.218C170.649 234.394 170.438 234.54 170.128 234.665C169.819 234.79 169.404 234.878 168.883 234.944C168.362 235.01 167.69 235.047 166.875 235.047C166.082 235.047 165.426 235.017 164.897 234.944C164.377 234.878 163.969 234.783 163.675 234.665C163.38 234.54 163.176 234.394 163.063 234.218C162.95 234.041 162.89 233.843 162.89 233.623V195.138C162.89 194.104 163.199 193.326 163.826 192.805C164.452 192.283 165.214 192.027 166.12 192.027H170.921C171.781 192.027 172.513 192.1 173.102 192.239C173.691 192.386 174.219 192.621 174.687 192.951C175.155 193.282 175.593 193.744 176.001 194.324C176.408 194.911 176.831 195.63 177.261 196.496L185.843 212.157C186.342 213.104 186.832 214.036 187.323 214.953C187.814 215.87 188.281 216.788 188.734 217.698C189.187 218.615 189.633 219.511 190.063 220.399C190.493 221.279 190.916 222.167 191.323 223.048H191.354C191.286 221.507 191.233 219.892 191.203 218.212C191.172 216.531 191.15 214.931 191.15 213.412V193.311C191.15 193.091 191.218 192.893 191.354 192.716C191.489 192.54 191.716 192.386 192.033 192.254C192.35 192.122 192.773 192.027 193.293 191.975C193.814 191.924 194.486 191.895 195.301 191.895C196.071 191.895 196.72 191.924 197.241 191.975C197.762 192.034 198.162 192.122 198.449 192.254C198.736 192.386 198.932 192.54 199.045 192.716C199.158 192.893 199.219 193.091 199.219 193.311V231.825H199.226Z" fill="#071D49"/>
<path d="M250.974 212.952C250.974 216.504 250.521 219.681 249.615 222.485C248.71 225.288 247.359 227.666 245.562 229.618C243.766 231.57 241.547 233.06 238.905 234.088C236.263 235.115 233.198 235.629 229.726 235.629C226.299 235.629 223.303 235.196 220.752 234.322C218.2 233.449 216.072 232.121 214.366 230.33C212.66 228.539 211.384 226.272 210.531 223.512C209.679 220.753 209.256 217.487 209.256 213.715C209.256 210.251 209.709 207.132 210.615 204.358C211.52 201.591 212.871 199.228 214.668 197.291C216.464 195.346 218.676 193.856 221.325 192.821C223.967 191.787 227.039 191.266 230.534 191.266C233.87 191.266 236.814 191.699 239.373 192.557C241.924 193.416 244.06 194.744 245.773 196.528C247.487 198.318 248.785 200.571 249.653 203.301C250.536 206.024 250.974 209.246 250.974 212.952ZM241.577 213.414C241.577 211.161 241.396 209.114 241.033 207.272C240.671 205.43 240.052 203.852 239.176 202.538C238.301 201.224 237.138 200.212 235.682 199.492C234.225 198.773 232.413 198.414 230.232 198.414C228.028 198.414 226.194 198.817 224.714 199.625C223.235 200.432 222.042 201.503 221.137 202.854C220.223 204.197 219.589 205.774 219.212 207.572C218.834 209.37 218.653 211.279 218.653 213.282C218.653 215.623 218.834 217.722 219.197 219.586C219.559 221.45 220.17 223.043 221.038 224.371C221.906 225.699 223.061 226.705 224.511 227.402C225.967 228.099 227.794 228.444 229.998 228.444C232.202 228.444 234.036 228.048 235.516 227.255C236.995 226.463 238.18 225.376 239.093 224.011C239.999 222.646 240.641 221.047 241.018 219.226C241.396 217.406 241.577 215.469 241.577 213.414Z" fill="#071D49"/>
<path d="M285.228 231.222C285.228 231.883 285.198 232.441 285.145 232.896C285.085 233.351 285.002 233.725 284.888 234.019C284.775 234.319 284.632 234.532 284.466 234.664C284.292 234.796 284.096 234.862 283.87 234.862H263.678C262.931 234.862 262.297 234.65 261.791 234.217C261.278 233.784 261.021 233.086 261.021 232.118V193.215C261.021 192.995 261.097 192.796 261.24 192.62C261.384 192.444 261.633 192.297 261.973 192.187C262.312 192.077 262.773 191.989 263.354 191.923C263.935 191.857 264.652 191.82 265.513 191.82C266.396 191.82 267.128 191.85 267.694 191.923C268.26 191.996 268.713 192.077 269.053 192.187C269.392 192.297 269.634 192.444 269.785 192.62C269.928 192.796 270.004 192.995 270.004 193.215V227.685H283.862C284.088 227.685 284.285 227.744 284.458 227.869C284.624 227.993 284.768 228.191 284.881 228.463C284.994 228.742 285.077 229.102 285.138 229.557C285.198 230.004 285.228 230.562 285.228 231.222Z" fill="#071D49"/>
<path d="M331.428 212.952C331.428 216.504 330.975 219.681 330.069 222.485C329.164 225.288 327.813 227.666 326.016 229.618C324.22 231.57 322.001 233.06 319.359 234.088C316.709 235.115 313.652 235.629 310.18 235.629C306.753 235.629 303.764 235.196 301.206 234.322C298.654 233.449 296.526 232.121 294.82 230.33C293.114 228.539 291.839 226.272 290.986 223.512C290.133 220.753 289.71 217.487 289.71 213.715C289.71 210.251 290.163 207.132 291.069 204.358C291.974 201.591 293.325 199.228 295.122 197.291C296.918 195.346 299.137 193.856 301.779 192.821C304.421 191.787 307.493 191.266 310.995 191.266C314.332 191.266 317.275 191.699 319.834 192.557C322.386 193.416 324.522 194.744 326.235 196.528C327.948 198.318 329.239 200.571 330.115 203.301C330.99 206.024 331.428 209.246 331.428 212.952ZM322.031 213.414C322.031 211.161 321.85 209.114 321.487 207.272C321.125 205.43 320.506 203.852 319.63 202.538C318.755 201.224 317.592 200.212 316.143 199.492C314.686 198.773 312.875 198.414 310.694 198.414C308.49 198.414 306.648 198.817 305.176 199.625C303.697 200.432 302.504 201.503 301.598 202.854C300.692 204.197 300.051 205.774 299.673 207.572C299.296 209.37 299.115 211.279 299.115 213.282C299.115 215.623 299.296 217.722 299.658 219.586C300.021 221.45 300.632 223.043 301.5 224.371C302.361 225.692 303.523 226.705 304.972 227.402C306.421 228.099 308.256 228.444 310.452 228.444C312.649 228.444 314.49 228.048 315.97 227.255C317.449 226.463 318.642 225.376 319.547 224.011C320.453 222.646 321.095 221.047 321.472 219.226C321.85 217.406 322.031 215.469 322.031 213.414Z" fill="#071D49"/>
<path d="M376.812 198.68C376.812 199.318 376.782 199.869 376.729 200.338C376.676 200.801 376.593 201.175 376.488 201.446C376.39 201.725 376.261 201.916 376.11 202.026C375.959 202.136 375.786 202.195 375.582 202.195C375.288 202.195 374.812 201.997 374.155 201.601C373.499 201.204 372.623 200.771 371.536 200.309C370.449 199.847 369.143 199.414 367.641 199.017C366.132 198.621 364.381 198.423 362.38 198.423C360.244 198.423 358.32 198.782 356.591 199.502C354.863 200.221 353.391 201.234 352.16 202.547C350.93 203.861 349.994 205.439 349.33 207.281C348.673 209.123 348.341 211.163 348.341 213.387C348.341 215.838 348.681 217.996 349.345 219.86C350.017 221.724 350.953 223.287 352.153 224.542C353.353 225.797 354.802 226.751 356.493 227.389C358.184 228.028 360.048 228.351 362.094 228.351C363.09 228.351 364.079 228.24 365.052 228.02C366.026 227.8 366.939 227.47 367.777 227.03V217.093H359.437C359.029 217.093 358.712 216.843 358.486 216.344C358.259 215.845 358.146 215.001 358.146 213.812C358.146 213.196 358.176 212.675 358.229 212.257C358.282 211.838 358.372 211.501 358.486 211.244C358.599 210.987 358.735 210.803 358.893 210.679C359.052 210.561 359.233 210.495 359.437 210.495H374.321C374.684 210.495 375.008 210.554 375.295 210.679C375.582 210.803 375.831 210.98 376.042 211.222C376.261 211.464 376.42 211.758 376.533 212.102C376.646 212.447 376.707 212.836 376.707 213.277V230.325C376.707 230.985 376.586 231.565 376.352 232.064C376.118 232.563 375.627 232.952 374.888 233.238C374.148 233.524 373.234 233.825 372.148 234.134C371.061 234.442 369.928 234.706 368.758 234.926C367.589 235.146 366.411 235.315 365.218 235.425C364.026 235.535 362.826 235.594 361.626 235.594C358.108 235.594 354.953 235.102 352.175 234.119C349.398 233.135 347.043 231.712 345.11 229.848C343.178 227.984 341.706 225.709 340.68 223.03C339.661 220.351 339.147 217.306 339.147 213.908C339.147 210.4 339.691 207.244 340.778 204.455C341.872 201.667 343.412 199.289 345.412 197.337C347.413 195.385 349.82 193.887 352.651 192.853C355.474 191.818 358.629 191.297 362.101 191.297C364.011 191.297 365.747 191.422 367.309 191.678C368.879 191.935 370.245 192.244 371.415 192.603C372.585 192.97 373.552 193.359 374.329 193.777C375.099 194.196 375.642 194.563 375.944 194.871C376.254 195.179 376.473 195.619 376.608 196.177C376.744 196.742 376.812 197.579 376.812 198.68Z" fill="#071D49"/>
<path d="M397.407 233.674C397.407 233.894 397.331 234.092 397.188 234.268C397.037 234.444 396.795 234.591 396.456 234.701C396.116 234.811 395.663 234.899 395.097 234.965C394.531 235.031 393.806 235.068 392.916 235.068C392.055 235.068 391.331 235.039 390.749 234.965C390.168 234.892 389.708 234.811 389.368 234.701C389.028 234.591 388.779 234.444 388.636 234.268C388.485 234.092 388.417 233.894 388.417 233.674V193.215C388.417 192.995 388.493 192.796 388.636 192.62C388.779 192.444 389.036 192.297 389.383 192.187C389.738 192.077 390.198 191.989 390.764 191.923C391.331 191.857 392.048 191.82 392.908 191.82C393.791 191.82 394.516 191.85 395.089 191.923C395.663 191.996 396.108 192.077 396.448 192.187C396.788 192.297 397.037 192.444 397.18 192.62C397.324 192.796 397.399 192.995 397.399 193.215V233.674H397.407Z" fill="#071D49"/>
<path d="M440 228.378C440 228.928 439.985 229.398 439.947 229.787C439.917 230.176 439.864 230.506 439.796 230.778C439.728 231.057 439.638 231.291 439.524 231.49C439.411 231.688 439.23 231.915 438.981 232.165C438.732 232.422 438.249 232.745 437.532 233.141C436.815 233.537 435.939 233.919 434.913 234.286C433.886 234.653 432.701 234.953 431.373 235.196C430.044 235.438 428.61 235.563 427.063 235.563C424.043 235.563 421.319 235.108 418.888 234.205C416.458 233.302 414.389 231.945 412.691 230.147C410.985 228.349 409.679 226.103 408.774 223.41C407.868 220.716 407.415 217.583 407.415 214.009C407.415 210.368 407.913 207.132 408.917 204.307C409.913 201.481 411.31 199.111 413.106 197.188C414.903 195.265 417.046 193.812 419.56 192.814C422.073 191.816 424.836 191.324 427.855 191.324C429.085 191.324 430.263 191.427 431.395 191.625C432.527 191.823 433.577 192.08 434.543 192.403C435.509 192.726 436.377 193.093 437.147 193.511C437.917 193.929 438.46 194.289 438.762 194.59C439.072 194.891 439.283 195.133 439.396 195.339C439.509 195.537 439.6 195.794 439.668 196.102C439.736 196.41 439.789 196.777 439.819 197.195C439.849 197.614 439.872 198.135 439.872 198.751C439.872 199.412 439.849 199.977 439.804 200.439C439.758 200.901 439.675 201.276 439.562 201.562C439.449 201.848 439.313 202.061 439.155 202.193C438.996 202.325 438.815 202.391 438.611 202.391C438.271 202.391 437.841 202.2 437.32 201.811C436.8 201.422 436.12 200.997 435.29 200.52C434.46 200.043 433.471 199.617 432.331 199.228C431.184 198.839 429.818 198.648 428.225 198.648C426.474 198.648 424.919 198.993 423.545 199.69C422.171 200.388 421.002 201.378 420.035 202.67C419.069 203.962 418.337 205.525 417.839 207.352C417.341 209.187 417.092 211.249 417.092 213.546C417.092 216.063 417.356 218.243 417.892 220.085C418.428 221.927 419.182 223.446 420.171 224.635C421.16 225.824 422.353 226.712 423.749 227.299C425.145 227.886 426.715 228.18 428.467 228.18C430.059 228.18 431.425 227.996 432.588 227.637C433.743 227.27 434.739 226.873 435.569 226.426C436.4 225.985 437.079 225.589 437.615 225.237C438.151 224.885 438.566 224.709 438.86 224.709C439.087 224.709 439.268 224.753 439.404 224.841C439.54 224.929 439.653 225.105 439.743 225.369C439.834 225.633 439.902 226.007 439.947 226.477C439.977 226.954 440 227.585 440 228.378Z" fill="#071D49"/>
<path d="M209.383 268.069C209.383 268.955 209.214 269.73 208.877 270.393C208.539 271.064 208.079 271.615 207.496 272.062C206.913 272.509 206.238 272.844 205.463 273.068C204.688 273.291 203.86 273.403 202.97 273.403C202.372 273.403 201.82 273.358 201.306 273.261C200.792 273.165 200.339 273.053 199.948 272.919C199.557 272.785 199.227 272.643 198.966 272.494C198.705 272.345 198.513 272.218 198.398 272.107C198.283 271.995 198.199 271.831 198.153 271.622C198.107 271.406 198.076 271.101 198.076 270.706C198.076 270.438 198.084 270.214 198.107 270.028C198.122 269.849 198.153 269.7 198.191 269.589C198.23 269.477 198.283 269.395 198.352 269.35C198.421 269.306 198.498 269.276 198.59 269.276C198.713 269.276 198.889 269.35 199.119 269.492C199.35 269.633 199.641 269.79 199.994 269.969C200.347 270.14 200.776 270.304 201.275 270.445C201.774 270.587 202.341 270.661 202.993 270.661C203.423 270.661 203.806 270.609 204.144 270.512C204.481 270.416 204.773 270.274 205.011 270.088C205.248 269.909 205.425 269.678 205.555 269.41C205.678 269.142 205.739 268.844 205.739 268.508C205.739 268.128 205.632 267.801 205.417 267.525C205.202 267.249 204.926 267.011 204.581 266.795C204.236 266.579 203.845 266.385 203.407 266.199C202.97 266.013 202.518 265.819 202.057 265.61C201.589 265.402 201.145 265.163 200.707 264.903C200.27 264.642 199.879 264.322 199.534 263.956C199.188 263.591 198.912 263.152 198.698 262.653C198.483 262.154 198.375 261.55 198.375 260.842C198.375 260.038 198.529 259.33 198.836 258.719C199.142 258.108 199.557 257.602 200.078 257.199C200.6 256.797 201.214 256.499 201.927 256.298C202.64 256.097 203.392 256 204.182 256C204.596 256 205.003 256.03 205.417 256.089C205.831 256.149 206.215 256.231 206.568 256.335C206.921 256.44 207.243 256.559 207.519 256.685C207.795 256.812 207.979 256.924 208.071 257.013C208.163 257.103 208.217 257.177 208.255 257.237C208.286 257.296 208.317 257.378 208.332 257.475C208.347 257.572 208.371 257.699 208.378 257.855C208.386 258.004 208.394 258.198 208.394 258.421C208.394 258.675 208.386 258.883 208.371 259.054C208.355 259.226 208.332 259.367 208.301 259.487C208.271 259.598 208.225 259.68 208.171 259.732C208.11 259.785 208.033 259.807 207.933 259.807C207.834 259.807 207.68 259.747 207.465 259.628C207.251 259.509 206.99 259.375 206.675 259.233C206.361 259.092 206 258.958 205.594 258.846C205.179 258.727 204.735 258.667 204.244 258.667C203.86 258.667 203.523 258.712 203.239 258.801C202.955 258.891 202.717 259.017 202.525 259.181C202.334 259.345 202.188 259.531 202.096 259.762C202.004 259.986 201.958 260.224 201.958 260.477C201.958 260.85 202.065 261.17 202.272 261.446C202.479 261.722 202.763 261.96 203.116 262.176C203.469 262.392 203.868 262.586 204.313 262.772C204.758 262.958 205.21 263.152 205.678 263.36C206.138 263.569 206.599 263.807 207.043 264.068C207.488 264.336 207.887 264.649 208.232 265.014C208.578 265.379 208.861 265.819 209.076 266.318C209.291 266.817 209.383 267.391 209.383 268.069Z" fill="#071D49"/>
<path d="M229.861 264.523C229.861 265.916 229.685 267.167 229.324 268.27C228.964 269.373 228.435 270.304 227.729 271.071C227.023 271.838 226.149 272.427 225.113 272.829C224.078 273.232 222.873 273.433 221.508 273.433C220.158 273.433 218.984 273.261 217.979 272.919C216.974 272.576 216.138 272.055 215.471 271.354C214.803 270.654 214.297 269.76 213.967 268.672C213.63 267.592 213.469 266.303 213.469 264.821C213.469 263.457 213.645 262.236 214.006 261.148C214.359 260.06 214.896 259.136 215.601 258.369C216.307 257.609 217.181 257.021 218.217 256.611C219.253 256.201 220.465 256 221.838 256C223.149 256 224.308 256.171 225.313 256.507C226.317 256.842 227.154 257.363 227.829 258.064C228.504 258.764 229.01 259.65 229.355 260.723C229.685 261.803 229.861 263.062 229.861 264.523ZM226.164 264.701C226.164 263.815 226.095 263.01 225.949 262.288C225.804 261.565 225.566 260.947 225.221 260.425C224.875 259.911 224.423 259.509 223.847 259.226C223.272 258.943 222.559 258.801 221.707 258.801C220.84 258.801 220.119 258.958 219.536 259.278C218.953 259.591 218.486 260.015 218.133 260.544C217.78 261.073 217.527 261.692 217.373 262.399C217.227 263.107 217.151 263.852 217.151 264.642C217.151 265.558 217.22 266.385 217.366 267.123C217.511 267.853 217.749 268.479 218.087 269C218.424 269.522 218.884 269.916 219.452 270.192C220.02 270.468 220.741 270.602 221.608 270.602C222.474 270.602 223.195 270.445 223.778 270.132C224.361 269.82 224.829 269.395 225.182 268.859C225.535 268.322 225.788 267.696 225.942 266.981C226.087 266.273 226.164 265.514 226.164 264.701Z" fill="#071D49"/>
<path d="M243.467 271.481C243.467 271.742 243.459 271.958 243.436 272.136C243.413 272.315 243.382 272.464 243.336 272.576C243.29 272.695 243.237 272.777 243.168 272.829C243.099 272.881 243.022 272.904 242.93 272.904H234.991C234.699 272.904 234.446 272.822 234.246 272.651C234.047 272.479 233.947 272.204 233.947 271.824V256.544C233.947 256.454 233.978 256.38 234.032 256.313C234.093 256.246 234.185 256.186 234.323 256.142C234.454 256.097 234.638 256.06 234.868 256.037C235.098 256.007 235.382 256 235.719 256C236.064 256 236.356 256.015 236.578 256.037C236.801 256.06 236.977 256.097 237.115 256.142C237.246 256.186 237.345 256.238 237.407 256.313C237.468 256.38 237.491 256.462 237.491 256.544V270.08H242.937C243.03 270.08 243.106 270.103 243.175 270.155C243.244 270.199 243.298 270.281 243.344 270.386C243.39 270.497 243.421 270.639 243.444 270.818C243.459 271.004 243.467 271.22 243.467 271.481Z" fill="#071D49"/>
<path d="M261.696 266.646C261.696 267.674 261.542 268.598 261.228 269.417C260.913 270.229 260.453 270.922 259.847 271.481C259.241 272.047 258.489 272.472 257.6 272.77C256.71 273.068 255.682 273.209 254.524 273.209C253.434 273.209 252.46 273.075 251.593 272.814C250.727 272.554 249.998 272.151 249.399 271.615C248.801 271.079 248.341 270.408 248.026 269.604C247.712 268.799 247.551 267.86 247.551 266.787V256.551C247.551 256.462 247.581 256.387 247.627 256.32C247.681 256.253 247.781 256.194 247.919 256.149C248.057 256.104 248.241 256.067 248.464 256.045C248.686 256.015 248.97 256.007 249.323 256.007C249.66 256.007 249.944 256.022 250.167 256.045C250.389 256.067 250.565 256.104 250.703 256.149C250.834 256.194 250.934 256.246 250.995 256.32C251.056 256.387 251.079 256.469 251.079 256.551V266.482C251.079 267.152 251.164 267.726 251.333 268.218C251.501 268.71 251.747 269.112 252.061 269.432C252.376 269.753 252.759 269.991 253.197 270.155C253.641 270.319 254.132 270.393 254.677 270.393C255.229 270.393 255.728 270.311 256.165 270.147C256.602 269.983 256.971 269.745 257.277 269.425C257.577 269.112 257.814 268.717 257.983 268.255C258.152 267.793 258.229 267.264 258.229 266.676V256.544C258.229 256.454 258.259 256.38 258.313 256.313C258.367 256.246 258.459 256.186 258.597 256.142C258.735 256.097 258.911 256.06 259.141 256.037C259.372 256.007 259.655 256 259.993 256C260.33 256 260.607 256.015 260.829 256.037C261.051 256.06 261.228 256.097 261.358 256.142C261.489 256.186 261.588 256.238 261.642 256.313C261.696 256.38 261.719 256.462 261.719 256.544V266.646H261.696Z" fill="#071D49"/>
<path d="M279.068 257.401C279.068 257.654 279.06 257.87 279.037 258.041C279.014 258.22 278.983 258.362 278.937 258.473C278.891 258.585 278.838 258.66 278.768 258.712C278.699 258.764 278.63 258.786 278.546 258.786H274.204V272.345C274.204 272.434 274.174 272.509 274.12 272.576C274.066 272.643 273.967 272.703 273.828 272.747C273.698 272.792 273.514 272.822 273.284 272.852C273.054 272.881 272.77 272.889 272.432 272.889C272.095 272.889 271.811 272.874 271.581 272.852C271.358 272.822 271.174 272.792 271.036 272.747C270.898 272.703 270.806 272.65 270.745 272.576C270.691 272.509 270.66 272.427 270.66 272.345V258.786H266.326C266.234 258.786 266.165 258.756 266.096 258.712C266.035 258.66 265.981 258.578 265.935 258.473C265.889 258.369 265.858 258.22 265.835 258.041C265.812 257.862 265.805 257.646 265.805 257.401C265.805 257.14 265.82 256.916 265.835 256.738C265.851 256.559 265.889 256.41 265.935 256.305C265.981 256.201 266.035 256.119 266.096 256.074C266.158 256.03 266.234 256 266.326 256H278.538C278.615 256 278.692 256.022 278.761 256.074C278.83 256.119 278.884 256.201 278.93 256.305C278.976 256.417 279.006 256.559 279.029 256.738C279.052 256.916 279.068 257.14 279.068 257.401Z" fill="#071D49"/>
<path d="M286.695 272.434C286.695 272.524 286.665 272.598 286.611 272.665C286.55 272.732 286.458 272.792 286.319 272.837C286.181 272.881 286.005 272.911 285.783 272.941C285.56 272.971 285.276 272.978 284.923 272.978C284.586 272.978 284.302 272.963 284.072 272.941C283.842 272.919 283.665 272.881 283.527 272.837C283.389 272.792 283.297 272.74 283.236 272.665C283.174 272.598 283.151 272.516 283.151 272.434V256.544C283.151 256.454 283.182 256.38 283.236 256.313C283.297 256.246 283.389 256.186 283.527 256.142C283.665 256.097 283.849 256.06 284.072 256.037C284.294 256.007 284.578 256 284.916 256C285.269 256 285.552 256.015 285.775 256.037C285.997 256.06 286.174 256.097 286.312 256.142C286.442 256.186 286.542 256.238 286.603 256.313C286.665 256.38 286.688 256.462 286.688 256.544V272.434H286.695Z" fill="#071D49"/>
<path d="M307.182 264.523C307.182 265.916 307.005 267.167 306.645 268.27C306.284 269.373 305.755 270.304 305.049 271.071C304.343 271.838 303.469 272.427 302.433 272.829C301.398 273.232 300.193 273.433 298.82 273.433C297.47 273.433 296.297 273.261 295.292 272.919C294.287 272.576 293.451 272.055 292.783 271.354C292.116 270.654 291.61 269.76 291.28 268.672C290.942 267.592 290.781 266.303 290.781 264.821C290.781 263.457 290.958 262.236 291.318 261.148C291.679 260.06 292.208 259.136 292.914 258.369C293.619 257.609 294.486 257.021 295.53 256.611C296.565 256.201 297.777 256 299.15 256C300.462 256 301.62 256.171 302.625 256.507C303.63 256.842 304.466 257.363 305.141 258.064C305.816 258.764 306.322 259.65 306.668 260.723C307.013 261.803 307.182 263.062 307.182 264.523ZM303.484 264.701C303.484 263.815 303.415 263.01 303.269 262.288C303.124 261.565 302.886 260.947 302.541 260.425C302.196 259.904 301.743 259.509 301.168 259.226C300.592 258.943 299.879 258.801 299.027 258.801C298.161 258.801 297.44 258.958 296.857 259.278C296.274 259.591 295.806 260.015 295.453 260.544C295.1 261.073 294.847 261.692 294.693 262.399C294.548 263.107 294.471 263.852 294.471 264.642C294.471 265.558 294.54 266.385 294.686 267.123C294.831 267.86 295.069 268.479 295.407 269C295.744 269.522 296.205 269.916 296.772 270.192C297.34 270.468 298.061 270.602 298.928 270.602C299.795 270.602 300.516 270.445 301.099 270.132C301.682 269.82 302.149 269.395 302.502 268.859C302.855 268.322 303.108 267.696 303.262 266.981C303.415 266.273 303.484 265.514 303.484 264.701Z" fill="#071D49"/>
<path d="M325.573 271.675C325.573 271.876 325.534 272.055 325.465 272.211C325.396 272.367 325.297 272.494 325.174 272.598C325.051 272.703 324.913 272.777 324.744 272.829C324.576 272.874 324.415 272.904 324.238 272.904H322.742C322.428 272.904 322.159 272.874 321.929 272.814C321.699 272.755 321.492 272.643 321.3 272.479C321.108 272.323 320.924 272.099 320.748 271.831C320.571 271.555 320.372 271.205 320.142 270.773L315.831 262.906C315.578 262.437 315.324 261.93 315.064 261.394C314.803 260.857 314.573 260.328 314.366 259.814H314.335C314.366 260.44 314.396 261.058 314.412 261.677C314.427 262.295 314.442 262.936 314.442 263.591V272.397C314.442 272.487 314.419 272.561 314.366 272.628C314.32 272.695 314.235 272.755 314.112 272.807C313.99 272.852 313.829 272.889 313.622 272.919C313.414 272.948 313.154 272.956 312.831 272.956C312.517 272.956 312.256 272.941 312.057 272.919C311.857 272.896 311.688 272.859 311.573 272.807C311.458 272.762 311.374 272.703 311.336 272.628C311.29 272.561 311.267 272.479 311.267 272.397V257.274C311.267 256.864 311.389 256.559 311.635 256.358C311.88 256.156 312.179 256.052 312.54 256.052H314.427C314.765 256.052 315.048 256.082 315.286 256.134C315.516 256.194 315.723 256.283 315.907 256.417C316.092 256.544 316.26 256.73 316.421 256.954C316.583 257.185 316.744 257.468 316.912 257.803L320.288 263.956C320.487 264.329 320.679 264.694 320.871 265.052C321.062 265.409 321.246 265.774 321.423 266.132C321.599 266.489 321.776 266.847 321.944 267.19C322.113 267.54 322.282 267.883 322.443 268.233H322.458C322.428 267.629 322.412 266.996 322.397 266.333C322.382 265.677 322.374 265.044 322.374 264.448V256.559C322.374 256.469 322.405 256.395 322.458 256.328C322.512 256.261 322.604 256.201 322.727 256.142C322.85 256.089 323.018 256.052 323.218 256.03C323.425 256.007 323.686 256 324.008 256C324.307 256 324.568 256.007 324.767 256.03C324.974 256.052 325.128 256.089 325.243 256.142C325.358 256.194 325.435 256.253 325.481 256.328C325.527 256.395 325.55 256.477 325.55 256.559V271.675H325.573Z" fill="#071D49"/>
<path d="M340.966 268.069C340.966 268.955 340.797 269.73 340.46 270.393C340.122 271.064 339.662 271.615 339.079 272.062C338.496 272.509 337.821 272.844 337.046 273.068C336.271 273.291 335.435 273.403 334.553 273.403C333.955 273.403 333.403 273.358 332.889 273.261C332.375 273.165 331.922 273.053 331.531 272.919C331.14 272.785 330.81 272.643 330.549 272.494C330.288 272.345 330.096 272.218 329.981 272.107C329.866 271.995 329.782 271.831 329.736 271.622C329.69 271.414 329.659 271.101 329.659 270.706C329.659 270.438 329.667 270.214 329.69 270.028C329.705 269.849 329.736 269.7 329.774 269.589C329.813 269.477 329.866 269.395 329.935 269.35C330.004 269.306 330.081 269.276 330.165 269.276C330.288 269.276 330.465 269.35 330.695 269.492C330.925 269.633 331.216 269.79 331.569 269.969C331.922 270.14 332.352 270.304 332.85 270.445C333.349 270.587 333.916 270.661 334.568 270.661C334.998 270.661 335.382 270.609 335.719 270.512C336.057 270.416 336.348 270.274 336.586 270.088C336.824 269.902 337 269.678 337.131 269.41C337.253 269.142 337.315 268.844 337.315 268.508C337.315 268.128 337.207 267.801 336.992 267.525C336.778 267.249 336.502 267.011 336.156 266.795C335.811 266.579 335.42 266.385 334.983 266.199C334.545 266.013 334.093 265.819 333.633 265.61C333.165 265.402 332.72 265.163 332.283 264.903C331.845 264.642 331.454 264.322 331.109 263.956C330.764 263.591 330.488 263.152 330.273 262.653C330.058 262.154 329.951 261.55 329.951 260.842C329.951 260.038 330.104 259.33 330.411 258.719C330.718 258.108 331.132 257.602 331.654 257.199C332.175 256.797 332.789 256.499 333.502 256.298C334.216 256.097 334.96 256 335.757 256C336.172 256 336.578 256.03 336.992 256.089C337.407 256.149 337.79 256.231 338.143 256.335C338.496 256.44 338.818 256.559 339.094 256.685C339.37 256.812 339.554 256.924 339.639 257.013C339.731 257.103 339.792 257.177 339.823 257.237C339.854 257.296 339.877 257.378 339.9 257.475C339.923 257.572 339.938 257.699 339.946 257.855C339.953 258.004 339.961 258.198 339.961 258.421C339.961 258.675 339.953 258.883 339.938 259.054C339.923 259.226 339.9 259.367 339.869 259.487C339.838 259.598 339.792 259.68 339.731 259.732C339.67 259.785 339.593 259.807 339.501 259.807C339.401 259.807 339.248 259.747 339.033 259.628C338.818 259.509 338.557 259.375 338.243 259.233C337.928 259.092 337.568 258.958 337.161 258.846C336.747 258.727 336.302 258.667 335.811 258.667C335.428 258.667 335.09 258.712 334.806 258.801C334.522 258.891 334.285 259.017 334.093 259.181C333.901 259.345 333.755 259.531 333.663 259.762C333.571 259.986 333.525 260.224 333.525 260.477C333.525 260.85 333.633 261.17 333.84 261.446C334.047 261.722 334.331 261.96 334.684 262.176C335.036 262.392 335.435 262.586 335.88 262.772C336.325 262.958 336.785 263.152 337.246 263.36C337.706 263.569 338.166 263.807 338.611 264.068C339.056 264.336 339.455 264.649 339.8 265.014C340.153 265.379 340.429 265.819 340.644 266.318C340.859 266.817 340.966 267.391 340.966 268.069Z" fill="#071D49"/>
<path d="M113.578 272.534C113.682 272.849 113.746 273.099 113.772 273.283C113.798 273.467 113.764 273.607 113.669 273.704C113.574 273.792 113.406 273.844 113.164 273.862C112.922 273.888 112.59 273.901 112.167 273.901C111.727 273.901 111.382 273.892 111.132 273.875C110.89 273.866 110.705 273.844 110.575 273.809C110.446 273.765 110.355 273.708 110.303 273.638C110.252 273.568 110.208 273.476 110.174 273.362L109.048 269.944H102.757L101.696 273.27C101.661 273.393 101.614 273.498 101.553 273.586C101.502 273.664 101.411 273.73 101.282 273.783C101.161 273.827 100.984 273.857 100.751 273.875C100.527 273.892 100.229 273.901 99.8578 273.901C99.4609 273.901 99.1502 273.888 98.9259 273.862C98.7015 273.835 98.5462 273.774 98.4599 273.678C98.3736 273.572 98.3434 273.428 98.3693 273.244C98.3952 273.06 98.4599 272.814 98.5635 272.508L103.728 257.415C103.78 257.266 103.84 257.148 103.909 257.06C103.978 256.964 104.086 256.893 104.233 256.85C104.388 256.797 104.6 256.766 104.867 256.758C105.135 256.74 105.488 256.731 105.928 256.731C106.438 256.731 106.843 256.74 107.145 256.758C107.447 256.766 107.68 256.797 107.844 256.85C108.017 256.893 108.138 256.964 108.207 257.06C108.284 257.156 108.349 257.288 108.401 257.454L113.578 272.534ZM105.89 260.057H105.877L103.508 267.288H108.258L105.89 260.057Z" fill="#071D49"/>
<path d="M129.137 267.485C129.137 268.528 128.986 269.462 128.683 270.286C128.381 271.11 127.937 271.806 127.35 272.376C126.764 272.946 126.039 273.38 125.176 273.678C124.313 273.976 123.32 274.125 122.199 274.125C121.146 274.125 120.201 273.993 119.364 273.73C118.527 273.458 117.819 273.051 117.241 272.508C116.663 271.964 116.219 271.289 115.908 270.483C115.606 269.668 115.455 268.717 115.455 267.63V257.283C115.455 257.196 115.481 257.117 115.533 257.047C115.584 256.977 115.675 256.92 115.804 256.876C115.943 256.832 116.119 256.797 116.335 256.771C116.551 256.744 116.827 256.731 117.164 256.731C117.491 256.731 117.763 256.744 117.979 256.771C118.195 256.797 118.367 256.832 118.497 256.876C118.626 256.92 118.717 256.977 118.769 257.047C118.829 257.117 118.859 257.196 118.859 257.283V267.328C118.859 268.003 118.941 268.59 119.105 269.089C119.269 269.58 119.502 269.988 119.804 270.312C120.115 270.636 120.481 270.882 120.904 271.048C121.336 271.206 121.815 271.285 122.341 271.285C122.876 271.285 123.355 271.202 123.778 271.035C124.201 270.869 124.559 270.628 124.852 270.312C125.146 269.988 125.37 269.593 125.525 269.129C125.689 268.655 125.771 268.121 125.771 267.525V257.283C125.771 257.196 125.797 257.117 125.849 257.047C125.901 256.977 125.991 256.92 126.121 256.876C126.25 256.832 126.423 256.797 126.638 256.771C126.863 256.744 127.139 256.731 127.467 256.731C127.795 256.731 128.062 256.744 128.269 256.771C128.485 256.797 128.658 256.832 128.787 256.876C128.916 256.92 129.007 256.977 129.059 257.047C129.111 257.117 129.137 257.196 129.137 257.283V267.485Z" fill="#071D49"/>
<path d="M143.931 258.23C143.931 258.484 143.918 258.703 143.892 258.887C143.875 259.063 143.845 259.207 143.802 259.321C143.759 259.426 143.703 259.505 143.633 259.558C143.573 259.61 143.504 259.637 143.426 259.637H139.233V273.349C139.233 273.437 139.202 273.515 139.142 273.586C139.09 273.656 139 273.713 138.87 273.756C138.741 273.8 138.564 273.835 138.339 273.862C138.124 273.888 137.852 273.901 137.524 273.901C137.196 273.901 136.92 273.888 136.696 273.862C136.48 273.835 136.307 273.8 136.178 273.756C136.048 273.713 135.954 273.656 135.893 273.586C135.841 273.515 135.815 273.437 135.815 273.349V259.637H131.622C131.535 259.637 131.462 259.61 131.402 259.558C131.341 259.505 131.289 259.426 131.246 259.321C131.203 259.207 131.169 259.063 131.143 258.887C131.126 258.703 131.117 258.484 131.117 258.23C131.117 257.967 131.126 257.744 131.143 257.56C131.169 257.376 131.203 257.231 131.246 257.126C131.289 257.012 131.341 256.933 131.402 256.889C131.462 256.836 131.535 256.81 131.622 256.81H143.426C143.504 256.81 143.573 256.836 143.633 256.889C143.703 256.933 143.759 257.012 143.802 257.126C143.845 257.231 143.875 257.376 143.892 257.56C143.918 257.744 143.931 257.967 143.931 258.23Z" fill="#071D49"/>
<path d="M160.253 265.119C160.253 266.53 160.081 267.792 159.735 268.905C159.39 270.018 158.877 270.965 158.195 271.745C157.513 272.516 156.668 273.108 155.658 273.52C154.657 273.923 153.497 274.125 152.176 274.125C150.873 274.125 149.734 273.954 148.759 273.612C147.793 273.261 146.986 272.731 146.339 272.021C145.692 271.311 145.204 270.408 144.876 269.313C144.557 268.217 144.397 266.92 144.397 265.421C144.397 264.045 144.57 262.81 144.915 261.714C145.26 260.61 145.774 259.672 146.455 258.901C147.137 258.129 147.978 257.538 148.979 257.126C149.989 256.714 151.158 256.508 152.487 256.508C153.755 256.508 154.873 256.679 155.839 257.021C156.814 257.362 157.626 257.888 158.273 258.598C158.929 259.308 159.42 260.206 159.748 261.293C160.085 262.371 160.253 263.647 160.253 265.119ZM156.681 265.303C156.681 264.409 156.612 263.598 156.474 262.871C156.336 262.135 156.098 261.508 155.762 260.991C155.434 260.465 154.994 260.062 154.441 259.781C153.889 259.492 153.199 259.348 152.37 259.348C151.533 259.348 150.834 259.51 150.274 259.834C149.713 260.149 149.26 260.575 148.915 261.109C148.569 261.644 148.323 262.271 148.177 262.989C148.039 263.699 147.97 264.453 147.97 265.25C147.97 266.18 148.039 267.017 148.177 267.762C148.315 268.498 148.548 269.129 148.876 269.655C149.204 270.181 149.644 270.584 150.196 270.864C150.748 271.136 151.443 271.272 152.28 271.272C153.117 271.272 153.816 271.114 154.377 270.798C154.938 270.483 155.391 270.053 155.736 269.51C156.081 268.967 156.323 268.336 156.461 267.617C156.607 266.889 156.681 266.118 156.681 265.303Z" fill="#071D49"/>
<path d="M172.55 273.349C172.55 273.437 172.52 273.515 172.459 273.586C172.407 273.656 172.317 273.713 172.187 273.756C172.058 273.8 171.885 273.835 171.67 273.862C171.454 273.888 171.178 273.901 170.841 273.901C170.513 273.901 170.237 273.888 170.013 273.862C169.797 273.835 169.624 273.8 169.495 273.756C169.366 273.713 169.271 273.656 169.21 273.586C169.158 273.515 169.133 273.437 169.133 273.349V257.283C169.133 257.196 169.158 257.117 169.21 257.047C169.271 256.977 169.366 256.92 169.495 256.876C169.633 256.832 169.81 256.797 170.026 256.771C170.241 256.744 170.513 256.731 170.841 256.731C171.178 256.731 171.454 256.744 171.67 256.771C171.885 256.797 172.058 256.832 172.187 256.876C172.317 256.92 172.407 256.977 172.459 257.047C172.52 257.117 172.55 257.196 172.55 257.283V273.349Z" fill="#071D49"/>
<path d="M190.114 265.066C190.114 266.626 189.912 267.963 189.506 269.076C189.109 270.181 188.535 271.083 187.784 271.784C187.034 272.486 186.119 273.003 185.04 273.336C183.97 273.66 182.693 273.822 181.209 273.822H177.209C176.925 273.822 176.683 273.739 176.485 273.572C176.295 273.397 176.2 273.117 176.2 272.731V257.901C176.2 257.516 176.295 257.24 176.485 257.073C176.683 256.898 176.925 256.81 177.209 256.81H181.507C183 256.81 184.264 256.99 185.299 257.349C186.343 257.7 187.219 258.226 187.927 258.927C188.643 259.619 189.187 260.478 189.558 261.504C189.929 262.529 190.114 263.717 190.114 265.066ZM186.594 265.185C186.594 264.378 186.499 263.629 186.309 262.937C186.128 262.244 185.83 261.644 185.416 261.135C185.01 260.627 184.484 260.233 183.837 259.952C183.198 259.663 182.357 259.518 181.313 259.518H179.591V271.088H181.364C182.296 271.088 183.082 270.965 183.72 270.72C184.359 270.474 184.889 270.106 185.312 269.615C185.744 269.116 186.063 268.498 186.27 267.762C186.486 267.025 186.594 266.166 186.594 265.185Z" fill="#071D49"/>
</svg>
